# VPXTOOL table OBJ file
# VPXTOOL OBJ file
# numVerts: 138 numFaces: 138
o LM_L_LRI_swRI
v -2571.7880859375 7738.09326171875 -40651.35546875
v 457.52337646484375 9405.802734375 -36906.86328125
v -211.91270446777344 -5157.1455078125 -34845.48046875
v -211.91270446777344 -5157.1455078125 -34845.48046875
v 457.52337646484375 9405.802734375 -36906.86328125
v 2021.199462890625 10298.4599609375 -42271.34765625
v -2023.6871337890625 -13566.484375 -37738.15625
v -211.91270446777344 -5157.1455078125 -34845.48046875
v -1387.60986328125 -22341.525390625 -29527.759765625
v -211.91270446777344 -5157.1455078125 -34845.48046875
v -2023.6871337890625 -13566.484375 -37738.15625
v -2571.7880859375 7738.09326171875 -40651.35546875
v 2406.8037109375 -27384.685546875 -28485.107421875
v 2021.199462890625 10298.4599609375 -42271.34765625
v 926.0155639648438 -20816.521484375 -35777.921875
v 458.8803405761719 23665.244140625 -35122.47265625
v 457.52337646484375 9405.802734375 -36906.86328125
v -2571.7880859375 7738.09326171875 -40651.35546875
v -2023.6871337890625 -13566.484375 -37738.15625
v 915.4990844726563 -5077.9892578125 -40925.38671875
v -2571.7880859375 7738.09326171875 -40651.35546875
v 2021.199462890625 10298.4599609375 -42271.34765625
v 915.4990844726563 -5077.9892578125 -40925.38671875
v 926.0155639648438 -20816.521484375 -35777.921875
v 2021.199462890625 10298.4599609375 -42271.34765625
v 457.52337646484375 9405.802734375 -36906.86328125
v 2410.30908203125 31764.96875 -34928.30859375
v 915.4990844726563 -5077.9892578125 -40925.38671875
v 2021.199462890625 10298.4599609375 -42271.34765625
v -2571.7880859375 7738.09326171875 -40651.35546875
v -1387.60986328125 -22341.525390625 -29527.759765625
v 2406.8037109375 -27384.685546875 -28485.107421875
v 464.08203125 -33222.80078125 -22608.056640625
v 926.0155639648438 -20816.521484375 -35777.921875
v 915.4990844726563 -5077.9892578125 -40925.38671875
v -2023.6871337890625 -13566.484375 -37738.15625
v -2200.31884765625 -34392.95703125 -27120.5390625
v -2023.6871337890625 -13566.484375 -37738.15625
v -1387.60986328125 -22341.525390625 -29527.759765625
v -2135.41064453125 30667.18359375 -38230.02734375
v -2571.7880859375 7738.09326171875 -40651.35546875
v 2021.199462890625 10298.4599609375 -42271.34765625
v 926.0155639648438 -20816.521484375 -35777.921875
v -2023.6871337890625 -13566.484375 -37738.15625
v 927.8248291015625 -35569.671875 -27910.275390625
v -2135.41064453125 30667.18359375 -38230.02734375
v -1378.4503173828125 36018.375 -31905.890625
v -2571.7880859375 7738.09326171875 -40651.35546875
v 2406.8037109375 -27384.685546875 -28485.107421875
v 926.0155639648438 -20816.521484375 -35777.921875
v 927.8248291015625 -35569.671875 -27910.275390625
v -2023.6871337890625 -13566.484375 -37738.15625
v -2200.31884765625 -34392.95703125 -27120.5390625
v 927.8248291015625 -35569.671875 -27910.275390625
v 2410.30908203125 31764.96875 -34928.30859375
v 920.8138427734375 25583.541015625 -40616.046875
v 2021.199462890625 10298.4599609375 -42271.34765625
v 920.8138427734375 25583.541015625 -40616.046875
v -2135.41064453125 30667.18359375 -38230.02734375
v 2021.199462890625 10298.4599609375 -42271.34765625
v 677.3516845703125 -47251.33203125 -10593.3310546875
v 464.08203125 -33222.80078125 -22608.056640625
v 2406.8037109375 -27384.685546875 -28485.107421875
v -2304.23974609375 -54873.1796875 -6629.396484375
v -1387.60986328125 -22341.525390625 -29527.759765625
v 464.08203125 -33222.80078125 -22608.056640625
v -2200.31884765625 -34392.95703125 -27120.5390625
v -1387.60986328125 -22341.525390625 -29527.759765625
v -2304.23974609375 -54873.1796875 -6629.396484375
v 2410.30908203125 31764.96875 -34928.30859375
v 921.4923095703125 41306.2421875 -35195.96875
v 920.8138427734375 25583.541015625 -40616.046875
v 2406.8037109375 -27384.685546875 -28485.107421875
v 927.8248291015625 -35569.671875 -27910.275390625
v 2444.346435546875 -53167.47265625 -9346.9345703125
v 921.4923095703125 41306.2421875 -35195.96875
v -2135.41064453125 30667.18359375 -38230.02734375
v 920.8138427734375 25583.541015625 -40616.046875
v 927.8248291015625 -35569.671875 -27910.275390625
v -2200.31884765625 -34392.95703125 -27120.5390625
v -365.4759216308594 -47940.4453125 -18029.060546875
v 2444.346435546875 -53167.47265625 -9346.9345703125
v 677.3516845703125 -47251.33203125 -10593.3310546875
v 2406.8037109375 -27384.685546875 -28485.107421875
v 677.3516845703125 -47251.33203125 -10593.3310546875
v -2304.23974609375 -54873.1796875 -6629.396484375
v 464.08203125 -33222.80078125 -22608.056640625
v -1378.4503173828125 36018.375 -31905.890625
v -2135.41064453125 30667.18359375 -38230.02734375
v -2553.35595703125 64436.390625 -17882.650390625
v -368.416015625 55915.78125 -27271.478515625
v -2135.41064453125 30667.18359375 -38230.02734375
v 921.4923095703125 41306.2421875 -35195.96875
v 2410.30908203125 31764.96875 -34928.30859375
v 2439.370849609375 61828.75390625 -21033.806640625
v 921.4923095703125 41306.2421875 -35195.96875
v -2200.31884765625 -34392.95703125 -27120.5390625
v -2304.23974609375 -54873.1796875 -6629.396484375
v -365.4759216308594 -47940.4453125 -18029.060546875
v -365.4759216308594 -47940.4453125 -18029.060546875
v 2444.346435546875 -53167.47265625 -9346.9345703125
v 927.8248291015625 -35569.671875 -27910.275390625
v -368.416015625 55915.78125 -27271.478515625
v -2553.35595703125 64436.390625 -17882.650390625
v -2135.41064453125 30667.18359375 -38230.02734375
v -2304.23974609375 -54873.1796875 -6629.396484375
v 677.3516845703125 -47251.33203125 -10593.3310546875
v -1346.4486083984375 -53520.28515625 -2134.2314453125
v -365.4759216308594 -47940.4453125 -18029.060546875
v 211.79962158203125 -57664.23046875 -5097.30859375
v 2444.346435546875 -53167.47265625 -9346.9345703125
v -365.4759216308594 -47940.4453125 -18029.060546875
v -2304.23974609375 -54873.1796875 -6629.396484375
v 211.79962158203125 -57664.23046875 -5097.30859375
v 677.3516845703125 -47251.33203125 -10593.3310546875
v 728.01171875 -61350.42578125 14002.5556640625
v -1346.4486083984375 -53520.28515625 -2134.2314453125
v 2444.346435546875 -53167.47265625 -9346.9345703125
v 1907.4405517578125 -64207.515625 9769.7880859375
v 677.3516845703125 -47251.33203125 -10593.3310546875
v -2304.23974609375 -54873.1796875 -6629.396484375
v -1346.4486083984375 -53520.28515625 -2134.2314453125
v -2528.138916015625 -63154.9609375 11999.580078125
v 1907.4405517578125 -64207.515625 9769.7880859375
v 728.01171875 -61350.42578125 14002.5556640625
v 677.3516845703125 -47251.33203125 -10593.3310546875
v 211.79962158203125 -57664.23046875 -5097.30859375
v 1907.4405517578125 -64207.515625 9769.7880859375
v 2444.346435546875 -53167.47265625 -9346.9345703125
v 211.79962158203125 -57664.23046875 -5097.30859375
v -2304.23974609375 -54873.1796875 -6629.396484375
v 1907.4405517578125 -64207.515625 9769.7880859375
v -1346.4486083984375 -53520.28515625 -2134.2314453125
v 728.01171875 -61350.42578125 14002.5556640625
v -2528.138916015625 -63154.9609375 11999.580078125
v -2304.23974609375 -54873.1796875 -6629.396484375
v -2528.138916015625 -63154.9609375 11999.580078125
v 1907.4405517578125 -64207.515625 9769.7880859375
vt 0.16863960027694702 0.00478750467300415
vt 0.16939029097557068 0.0048784613609313965
vt 0.1689663678407669 0.00390702486038208
vt 0.1689663678407669 0.00390702486038208
vt 0.16939029097557068 0.0048784613609313965
vt 0.16968373954296112 0.004766583442687988
vt 0.16834765672683716 0.003272712230682373
vt 0.1689663678407669 0.00390702486038208
vt 0.1681351512670517 0.002839803695678711
vt 0.1689663678407669 0.00390702486038208
vt 0.16834765672683716 0.003272712230682373
vt 0.16863960027694702 0.00478750467300415
vt 0.1692104935646057 0.0025379061698913574
vt 0.16968373954296112 0.004766583442687988
vt 0.16898402571678162 0.0027676820755004883
vt 0.16956236958503723 0.005957961082458496
vt 0.16939029097557068 0.0048784613609313965
vt 0.16863960027694702 0.00478750467300415
vt 0.16834765672683716 0.003272712230682373
vt 0.1693747341632843 0.0037369132041931152
vt 0.16863960027694702 0.00478750467300415
vt 0.16968373954296112 0.004766583442687988
vt 0.1693747341632843 0.0037369132041931152
vt 0.16898402571678162 0.0027676820755004883
vt 0.16968373954296112 0.004766583442687988
vt 0.16939029097557068 0.0048784613609313965
vt 0.17031405866146088 0.006583690643310547
vt 0.1693747341632843 0.0037369132041931152
vt 0.16968373954296112 0.004766583442687988
vt 0.16863960027694702 0.00478750467300415
vt 0.1681351512670517 0.002839803695678711
vt 0.1692104935646057 0.0025379061698913574
vt 0.16831845045089722 0.002232074737548828
vt 0.16898402571678162 0.0027676820755004883
vt 0.1693747341632843 0.0037369132041931152
vt 0.16834765672683716 0.003272712230682373
vt 0.1677754670381546 0.0020598173141479492
vt 0.16834765672683716 0.003272712230682373
vt 0.1681351512670517 0.002839803695678711
vt 0.16910618543624878 0.006404697895050049
vt 0.16863960027694702 0.00478750467300415
vt 0.16968373954296112 0.004766583442687988
vt 0.16898402571678162 0.0027676820755004883
vt 0.16834765672683716 0.003272712230682373
vt 0.1685447096824646 0.0019583702087402344
vt 0.16910618543624878 0.006404697895050049
vt 0.16912294924259186 0.006945788860321045
vt 0.16863960027694702 0.00478750467300415
vt 0.1692104935646057 0.0025379061698913574
vt 0.16898402571678162 0.0027676820755004883
vt 0.1685447096824646 0.0019583702087402344
vt 0.16834765672683716 0.003272712230682373
vt 0.1677754670381546 0.0020598173141479492
vt 0.1685447096824646 0.0019583702087402344
vt 0.17031405866146088 0.006583690643310547
vt 0.16985712945461273 0.005926668643951416
vt 0.16968373954296112 0.004766583442687988
vt 0.16985712945461273 0.005926668643951416
vt 0.16910618543624878 0.006404697895050049
vt 0.16968373954296112 0.004766583442687988
vt 0.16791218519210815 0.0016325712203979492
vt 0.16831845045089722 0.002232074737548828
vt 0.1692104935646057 0.0025379061698913574
vt 0.16674694418907166 0.0012792348861694336
vt 0.1681351512670517 0.002839803695678711
vt 0.16831845045089722 0.002232074737548828
vt 0.1677754670381546 0.0020598173141479492
vt 0.1681351512670517 0.002839803695678711
vt 0.16674694418907166 0.0012792348861694336
vt 0.17031405866146088 0.006583690643310547
vt 0.16995812952518463 0.007202446460723877
vt 0.16985712945461273 0.005926668643951416
vt 0.1692104935646057 0.0025379061698913574
vt 0.1685447096824646 0.0019583702087402344
vt 0.1683281511068344 0.0013470649719238281
vt 0.16995812952518463 0.007202446460723877
vt 0.16910618543624878 0.006404697895050049
vt 0.16985712945461273 0.005926668643951416
vt 0.1685447096824646 0.0019583702087402344
vt 0.1677754670381546 0.0020598173141479492
vt 0.16776145994663239 0.0013862848281860352
vt 0.1683281511068344 0.0013470649719238281
vt 0.16791218519210815 0.0016325712203979492
vt 0.1692104935646057 0.0025379061698913574
vt 0.16791218519210815 0.0016325712203979492
vt 0.16674694418907166 0.0012792348861694336
vt 0.16831845045089722 0.002232074737548828
vt 0.16912294924259186 0.006945788860321045
vt 0.16910618543624878 0.006404697895050049
vt 0.1690031886100769 0.009457588195800781
vt 0.1696406602859497 0.00848478078842163
vt 0.16910618543624878 0.006404697895050049
vt 0.16995812952518463 0.007202446460723877
vt 0.17031405866146088 0.006583690643310547
vt 0.1704111099243164 0.009063363075256348
vt 0.16995812952518463 0.007202446460723877
vt 0.1677754670381546 0.0020598173141479492
vt 0.16674694418907166 0.0012792348861694336
vt 0.16776145994663239 0.0013862848281860352
vt 0.16776145994663239 0.0013862848281860352
vt 0.1683281511068344 0.0013470649719238281
vt 0.1685447096824646 0.0019583702087402344
vt 0.1696406602859497 0.00848478078842163
vt 0.1690031886100769 0.009457588195800781
vt 0.16910618543624878 0.006404697895050049
vt 0.16674694418907166 0.0012792348861694336
vt 0.16791218519210815 0.0016325712203979492
vt 0.16690592467784882 0.0014136433601379395
vt 0.16776145994663239 0.0013862848281860352
vt 0.16742584109306335 0.0010679364204406738
vt 0.1683281511068344 0.0013470649719238281
vt 0.16776145994663239 0.0013862848281860352
vt 0.16674694418907166 0.0012792348861694336
vt 0.16742584109306335 0.0010679364204406738
vt 0.16791218519210815 0.0016325712203979492
vt 0.16702379286289215 0.001331627368927002
vt 0.16690592467784882 0.0014136433601379395
vt 0.1683281511068344 0.0013470649719238281
vt 0.16729383170604706 0.0010718703269958496
vt 0.16791218519210815 0.0016325712203979492
vt 0.16674694418907166 0.0012792348861694336
vt 0.16690592467784882 0.0014136433601379395
vt 0.16610346734523773 0.0011718273162841797
vt 0.16729383170604706 0.0010718703269958496
vt 0.16702379286289215 0.001331627368927002
vt 0.16791218519210815 0.0016325712203979492
vt 0.16742584109306335 0.0010679364204406738
vt 0.16729383170604706 0.0010718703269958496
vt 0.1683281511068344 0.0013470649719238281
vt 0.16742584109306335 0.0010679364204406738
vt 0.16674694418907166 0.0012792348861694336
vt 0.16729383170604706 0.0010718703269958496
vt 0.16690592467784882 0.0014136433601379395
vt 0.16702379286289215 0.001331627368927002
vt 0.16610346734523773 0.0011718273162841797
vt 0.16674694418907166 0.0012792348861694336
vt 0.16610346734523773 0.0011718273162841797
vt 0.16729383170604706 0.0010718703269958496
vn -0.9164770245552063 -0.053994759917259216 0.3964272737503052
vn -0.6298648715019226 0.06661583483219147 0.7738428115844727
vn -0.9107649326324463 -0.0605819970369339 0.4084571599960327
vn 0.8565459251403809 -0.0791296511888504 0.5099683403968811
vn 0.8581781983375549 -0.08074522018432617 0.5069619417190552
vn 0.9938302040100098 -0.059982337057590485 -0.0932944118976593
vn -0.9900173544883728 -0.1350887268781662 -0.04020796716213226
vn -0.8773473501205444 0.2038811445236206 0.43438953161239624
vn -0.8877434730529785 0.09818563610315323 0.4497457444667816
vn -0.7782071232795715 0.19427016377449036 0.5972040891647339
vn -0.985913097858429 -0.11446060985326767 0.12195946276187897
vn -0.9779735803604126 0.17848104238510132 0.10822319984436035
vn 0.9994159936904907 -0.03294481337070465 0.009067714214324951
vn 0.9999465346336365 0.008987851440906525 -0.005118876695632935
vn 0.824006199836731 -0.16787777841091156 -0.5411384105682373
vn -0.5697625875473022 -0.08342292904853821 0.8175642490386963
vn -0.5879963040351868 0.023916035890579224 0.8085100054740906
vn -0.9057450890541077 0.009920135140419006 0.42370671033859253
vn -0.6966838836669922 -0.2963535189628601 -0.653303861618042
vn -0.28169751167297363 -0.05179525166749954 -0.9581041932106018
vn -0.6726856827735901 0.11890046298503876 -0.7303126454353333
vn 0.9645707607269287 0.21576745808124542 -0.1518138200044632
vn 0.8480542302131653 -0.26712486147880554 -0.45765525102615356
vn 0.843288779258728 -0.2132292091846466 -0.49335306882858276
vn 0.9963074922561646 0.03752359002828598 -0.07722330093383789
vn 0.856981635093689 -0.1065099835395813 0.504220187664032
vn 0.9788662195205688 0.19829192757606506 0.05001264810562134
vn -0.11959758400917053 -0.2908293604850769 -0.9492706656455994
vn -0.04492446780204773 0.09399347752332687 -0.9945586919784546
vn -0.5713304877281189 -0.052487388253211975 -0.8190400004386902
vn 0.24135707318782806 0.5447085499763489 0.8031435012817383
vn 0.6711406707763672 0.29032135009765625 0.6821171641349792
vn 0.72237229347229 0.3609566390514374 0.5898208618164063
vn 0.07625435292720795 -0.4942302703857422 -0.8659802079200745
vn 0.07048732042312622 -0.10033921897411346 -0.9924532771110535
vn -0.3916695713996887 -0.3974688649177551 -0.8298273682594299
vn -0.9839230179786682 -0.1638219654560089 -0.0711175948381424
vn -0.9730281829833984 0.1370043158531189 -0.1855960190296173
vn -0.902961015701294 0.3130636513233185 0.2943679392337799
vn -0.5432282090187073 0.3096775412559509 -0.7803863286972046
vn -0.6058014631271362 -0.0457085557281971 -0.7943017482757568
vn -0.08958674967288971 0.0824991762638092 -0.9925563335418701
vn -0.2301863729953766 -0.4995420277118683 -0.8351478576660156
vn -0.679118812084198 -0.18316538631916046 -0.7108079195022583
vn -0.3214832842350006 -0.6337609887123108 -0.7035590410232544
vn -0.9662874341011047 -0.012107037007808685 -0.25718075037002563
vn -0.9374617338180542 -0.0561877116560936 0.34352347254753113
vn -0.9441384077072144 -0.14138364791870117 0.2976797819137573
vn 0.9883365631103516 -0.14994339644908905 -0.026604801416397095
vn 0.7849142551422119 -0.21047738194465637 -0.5827597379684448
vn 0.7764582633972168 -0.3232341408729553 -0.5409548878669739
vn -0.5331273078918457 -0.17438070476055145 -0.8278687000274658
vn -0.6172721982002258 -0.3933645486831665 -0.6813511848449707
vn -0.09917344152927399 -0.532749593257904 -0.840441882610321
vn 0.9623064994812012 0.26473313570022583 -0.06230977177619934
vn 0.8085955381393433 0.04576166719198227 -0.5865824818611145
vn 0.8037787675857544 0.05692017823457718 -0.5921989679336548
vn -0.2973078787326813 0.05265412479639053 -0.9533286094665527
vn -0.7461178302764893 0.1868589222431183 -0.6390554904937744
vn -0.3875771760940552 -0.18496516346931458 -0.9030901789665222
vn 0.06739036738872528 0.5687413215637207 0.8197510838508606
vn 0.10889030992984772 0.5125247240066528 0.8517401218414307
vn 0.5829381942749023 0.6689872741699219 0.4611281156539917
vn -0.0021379292011260986 0.5032393932342529 0.8641444444656372
vn -0.003242403268814087 0.6219364404678345 0.7830609679222107
vn 0.438579797744751 0.3683911859989166 0.8197169303894043
vn -0.9638592004776001 -0.23846128582954407 -0.11879196763038635
vn -0.9358488917350769 0.23938928544521332 0.25861093401908875
vn -0.9399999976158142 0.14090117812156677 0.31071996688842773
vn 0.9880331158638 -0.08221057057380676 -0.1305069625377655
vn 0.7834744453430176 0.2873891294002533 -0.5509766340255737
vn 0.7776293158531189 0.17420248687267303 -0.6041077375411987
vn 0.9671539664268494 0.14981089532375336 -0.20535311102867126
vn 0.8408392667770386 -0.4068617820739746 -0.3570053279399872
vn 0.8349660634994507 -0.4105812907218933 -0.36640793085098267
vn 0.013782843947410583 0.5128558874130249 -0.8583640456199646
vn -0.4263542592525482 0.14696547389030457 -0.8925374746322632
vn 0.0218031108379364 0.12988853454589844 -0.9912889003753662
vn -0.118573397397995 -0.5455529689788818 -0.8296458721160889
vn -0.635374128818512 -0.39174845814704895 -0.6654568314552307
vn -0.2448892444372177 -0.763305127620697 -0.5978248119354248
vn 0.9692701697349548 0.07828061282634735 0.23321151733398438
vn 0.6567414999008179 0.5446654558181763 0.5215651392936707
vn 0.9272981882095337 0.36176419258117676 0.09614972770214081
vn -0.3502480685710907 0.7214819192886353 0.5973191857337952
vn -0.7502683401107788 0.3981851637363434 0.5277745127677917
vn -0.31244611740112305 0.6404799818992615 0.7015431523323059
vn -0.8580478429794312 -0.18102537095546722 0.48060768842697144
vn -0.9919434785842896 -0.07233303785324097 -0.10400031507015228
vn -0.9748874306678772 0.18601100146770477 0.12245234847068787
vn -0.6511539220809937 0.5228921175003052 -0.5500749945640564
vn -0.6999891996383667 0.14298102259635925 -0.6996939182281494
vn -0.2693179249763489 0.48156630992889404 -0.8340034484863281
vn 0.9977409243583679 -0.025860700756311417 -0.062002524733543396
vn 0.9990658760070801 0.016633719205856323 -0.03988417983055115
vn 0.7998872399330139 0.28120696544647217 -0.5301915407180786
vn -0.9259357452392578 -0.04231268912553787 -0.3753034472465515
vn -0.9638760089874268 -0.25678473711013794 -0.070743128657341
vn -0.6653551459312439 -0.47011798620224 -0.5799065828323364
vn 0.46806177496910095 -0.5693423748016357 -0.6758458018302917
vn 0.8268862366676331 -0.48928725719451904 -0.27723121643066406
vn 0.7951706051826477 -0.23063957691192627 -0.5608110427856445
vn -0.6922388076782227 0.24370840191841125 -0.6792728900909424
vn -0.9438257217407227 0.3093142807483673 -0.11626528203487396
vn -0.7664328813552856 0.06835045665502548 -0.6386774778366089
vn -0.9595497250556946 0.14391621947288513 0.2419760674238205
vn -0.8027171492576599 0.5492866635322571 0.2322266548871994
vn -0.9326795339584351 0.35838747024536133 0.040831297636032104
vn 0.19998034834861755 -0.627972424030304 -0.7521026730537415
vn 0.21431593596935272 -0.8824014067649841 -0.41885140538215637
vn 0.611607551574707 -0.6866001486778259 -0.39308589696884155
vn -0.5764358639717102 -0.4714432954788208 -0.6674301624298096
vn -0.7078089714050293 -0.5441931486129761 -0.4504002630710602
vn -0.26218321919441223 -0.8701678514480591 -0.41721442341804504
vn -0.30102989077568054 0.8295062780380249 0.47042563557624817
vn -0.5128614902496338 -0.15501201152801514 0.8443603515625
vn -0.7119606733322144 0.462362676858902 0.5285192728042603
vn 0.9755477905273438 0.12351709604263306 0.18179601430892944
vn 0.5112717747688293 0.03126728534698486 0.8588501214981079
vn 0.8020941019058228 0.49794334173202515 0.32969266176223755
vn -0.9936394691467285 0.09332999587059021 -0.06300864368677139
vn -0.6334171891212463 0.5631589889526367 0.5306926965713501
vn -0.4667920768260956 -0.0982125848531723 0.8788967132568359
vn 0.7790096402168274 -0.5677582025527954 0.2660723924636841
vn 0.6351969838142395 -0.059394389390945435 0.770063042640686
vn 0.8801300525665283 0.4411098062992096 0.1754799336194992
vn 0.5119951963424683 -0.756758987903595 -0.40641963481903076
vn 0.5524734258651733 -0.7930527329444885 0.25659415125846863
vn 0.8198921084403992 -0.35544371604919434 -0.4488172233104706
vn -0.36439239978790283 -0.8674055933952332 -0.33885934948921204
vn -0.8002971410751343 -0.5232332944869995 -0.29283326864242554
vn -0.5292596220970154 -0.7786862254142761 0.33694514632225037
vn -0.2121869921684265 0.9148191809654236 0.343631386756897
vn -0.1509748101234436 0.15571099519729614 0.9761970043182373
vn -0.6929100751876831 -0.35688111186027527 0.6265075206756592
vn -0.5145025849342346 -0.6779215335845947 -0.5250804424285889
vn -0.5838854908943176 -0.788463830947876 0.1933971643447876
vn 0.09405286610126495 -0.9933100342750549 -0.0670015811920166
f 3/3/3 2/2/2 1/1/1
f 6/6/6 5/5/5 4/4/4
f 9/9/9 8/8/8 7/7/7
f 12/12/12 11/11/11 10/10/10
f 15/15/15 14/14/14 13/13/13
f 18/18/18 17/17/17 16/16/16
f 21/21/21 20/20/20 19/19/19
f 24/24/24 23/23/23 22/22/22
f 27/27/27 26/26/26 25/25/25
f 30/30/30 29/29/29 28/28/28
f 33/33/33 32/32/32 31/31/31
f 36/36/36 35/35/35 34/34/34
f 39/39/39 38/38/38 37/37/37
f 42/42/42 41/41/41 40/40/40
f 45/45/45 44/44/44 43/43/43
f 48/48/48 47/47/47 46/46/46
f 51/51/51 50/50/50 49/49/49
f 54/54/54 53/53/53 52/52/52
f 57/57/57 56/56/56 55/55/55
f 60/60/60 59/59/59 58/58/58
f 63/63/63 62/62/62 61/61/61
f 66/66/66 65/65/65 64/64/64
f 69/69/69 68/68/68 67/67/67
f 72/72/72 71/71/71 70/70/70
f 75/75/75 74/74/74 73/73/73
f 78/78/78 77/77/77 76/76/76
f 81/81/81 80/80/80 79/79/79
f 84/84/84 83/83/83 82/82/82
f 87/87/87 86/86/86 85/85/85
f 90/90/90 89/89/89 88/88/88
f 93/93/93 92/92/92 91/91/91
f 96/96/96 95/95/95 94/94/94
f 99/99/99 98/98/98 97/97/97
f 102/102/102 101/101/101 100/100/100
f 105/105/105 104/104/104 103/103/103
f 108/108/108 107/107/107 106/106/106
f 111/111/111 110/110/110 109/109/109
f 114/114/114 113/113/113 112/112/112
f 117/117/117 116/116/116 115/115/115
f 120/120/120 119/119/119 118/118/118
f 123/123/123 122/122/122 121/121/121
f 126/126/126 125/125/125 124/124/124
f 129/129/129 128/128/128 127/127/127
f 132/132/132 131/131/131 130/130/130
f 135/135/135 134/134/134 133/133/133
f 138/138/138 137/137/137 136/136/136
