# VPXTOOL table OBJ file
# VPXTOOL OBJ file
# numVerts: 142 numFaces: 168
o LM_L_LH7_UnderPF
v 31.079391479492188 829.6905517578125 -12.83383560180664
v -72.87994384765625 829.6905517578125 -12.83383560180664
v -72.87994384765625 829.6905517578125 13.141265869140625
v 31.079391479492188 829.6905517578125 13.141265869140625
v 31.079391479492188 757.906494140625 -12.83383560180664
v 31.079391479492188 829.6905517578125 -12.83383560180664
v 31.079391479492188 829.6905517578125 13.141265869140625
v 31.079391479492188 757.906494140625 13.141265869140625
v 31.079391479492188 829.6905517578125 13.141265869140625
v -72.87994384765625 829.6905517578125 13.141265869140625
v 31.079391479492188 757.906494140625 13.141265869140625
v -72.87994384765625 829.6905517578125 13.141265869140625
v -72.87994384765625 829.6905517578125 -12.83383560180664
v -72.87994384765625 757.906494140625 13.141265869140625
v -72.87994384765625 757.906494140625 -12.83383560180664
v 53.35523986816406 741.351806640625 -12.153261184692383
v 47.54937744140625 742.5066528320313 -12.153261184692383
v 53.35523986816406 741.351806640625 -5.324187755584717
v 47.54937744140625 742.5066528320313 -12.153261184692383
v 41.74351501464844 741.351806640625 -12.153261184692383
v 47.54937744140625 742.5066528320313 -5.324187755584717
v 58.2772216796875 738.06298828125 -12.153261184692383
v 53.35523986816406 741.351806640625 -12.153261184692383
v 58.2772216796875 738.06298828125 -5.324187755584717
v 47.54937744140625 742.5066528320313 -12.153261184692383
v 47.54937744140625 742.5066528320313 -5.324187755584717
v 53.35523986816406 741.351806640625 -5.324187755584717
v 53.35523986816406 741.351806640625 -12.153261184692383
v 53.35523986816406 741.351806640625 -5.324187755584717
v 58.2772216796875 738.06298828125 -5.324187755584717
v 41.74351501464844 741.351806640625 -12.153261184692383
v 36.821537017822266 738.06298828125 -12.153261184692383
v 41.74351501464844 741.351806640625 -5.324187755584717
v -72.87994384765625 757.906494140625 -12.83383560180664
v 31.079391479492188 757.906494140625 -12.83383560180664
v 31.079391479492188 757.906494140625 13.141265869140625
v 41.74351501464844 741.351806640625 -12.153261184692383
v 41.74351501464844 741.351806640625 -5.324187755584717
v 47.54937744140625 742.5066528320313 -5.324187755584717
v 61.56599426269531 733.1409912109375 -12.153261184692383
v 58.2772216796875 738.06298828125 -12.153261184692383
v 61.56599426269531 733.1409912109375 -5.324187755584717
v 58.2772216796875 738.06298828125 -12.153261184692383
v 58.2772216796875 738.06298828125 -5.324187755584717
v 61.56599426269531 733.1409912109375 -5.324187755584717
v 58.2772216796875 738.06298828125 -5.324187755584717
v 53.35523986816406 741.351806640625 -5.324187755584717
v 47.54937744140625 742.5066528320313 -5.324187755584717
v 36.821537017822266 738.06298828125 -12.153261184692383
v 36.821537017822266 738.06298828125 -5.324187755584717
v 41.74351501464844 741.351806640625 -5.324187755584717
v 36.821537017822266 738.06298828125 -12.153261184692383
v 33.53276062011719 733.1409912109375 -12.153261184692383
v 36.821537017822266 738.06298828125 -5.324187755584717
v 47.54937744140625 742.5066528320313 -5.324187755584717
v 41.74351501464844 741.351806640625 -5.324187755584717
v 36.821537017822266 738.06298828125 -5.324187755584717
v 62.72087097167969 727.3351440429688 -12.153261184692383
v 61.56599426269531 733.1409912109375 -12.153261184692383
v 62.72087097167969 727.3351440429688 -5.324187755584717
v 61.56599426269531 733.1409912109375 -12.153261184692383
v 61.56599426269531 733.1409912109375 -5.324187755584717
v 62.72087097167969 727.3351440429688 -5.324187755584717
v 62.72087097167969 727.3351440429688 -5.324187755584717
v 61.56599426269531 733.1409912109375 -5.324187755584717
v 58.2772216796875 738.06298828125 -5.324187755584717
v 33.53276062011719 733.1409912109375 -12.153261184692383
v 33.53276062011719 733.1409912109375 -5.324187755584717
v 36.821537017822266 738.06298828125 -5.324187755584717
v 33.53276062011719 733.1409912109375 -12.153261184692383
v 32.37788391113281 727.3351440429688 -12.153261184692383
v 33.53276062011719 733.1409912109375 -5.324187755584717
v -72.87994384765625 757.906494140625 13.141265869140625
v 61.56599426269531 721.529296875 -12.153261184692383
v 62.72087097167969 727.3351440429688 -12.153261184692383
v 61.56599426269531 721.529296875 -5.324187755584717
v 62.72087097167969 727.3351440429688 -12.153261184692383
v 62.72087097167969 727.3351440429688 -5.324187755584717
v 61.56599426269531 721.529296875 -5.324187755584717
v 47.54937744140625 712.1636962890625 -5.324187755584717
v 47.54937744140625 742.5066528320313 -5.324187755584717
v 36.821537017822266 738.06298828125 -5.324187755584717
v 33.53276062011719 733.1409912109375 -5.324187755584717
v 32.37788391113281 727.3351440429688 -5.324187755584717
v 32.37788391113281 727.3351440429688 -12.153261184692383
v 32.37788391113281 727.3351440429688 -5.324187755584717
v 33.53276062011719 733.1409912109375 -5.324187755584717
v 32.37788391113281 727.3351440429688 -12.153261184692383
v 33.53276062011719 721.529296875 -12.153261184692383
v 32.37788391113281 727.3351440429688 -5.324187755584717
v 47.54937744140625 712.1636962890625 -5.324187755584717
v 62.72087097167969 727.3351440429688 -5.324187755584717
v 58.2772216796875 738.06298828125 -5.324187755584717
v 58.2772216796875 716.6072998046875 -12.153261184692383
v 61.56599426269531 721.529296875 -12.153261184692383
v 58.2772216796875 716.6072998046875 -5.324187755584717
v 61.56599426269531 721.529296875 -12.153261184692383
v 61.56599426269531 721.529296875 -5.324187755584717
v 58.2772216796875 716.6072998046875 -5.324187755584717
v 58.2772216796875 716.6072998046875 -5.324187755584717
v 61.56599426269531 721.529296875 -5.324187755584717
v 33.53276062011719 721.529296875 -12.153261184692383
v 33.53276062011719 721.529296875 -5.324187755584717
v 32.37788391113281 727.3351440429688 -5.324187755584717
v 33.53276062011719 721.529296875 -12.153261184692383
v 36.821537017822266 716.6072998046875 -12.153261184692383
v 33.53276062011719 721.529296875 -5.324187755584717
v -72.87994384765625 757.906494140625 13.141265869140625
v 53.35523986816406 713.3185424804688 -12.153261184692383
v 58.2772216796875 716.6072998046875 -12.153261184692383
v 53.35523986816406 713.3185424804688 -5.324187755584717
v 53.35523986816406 713.3185424804688 -5.324187755584717
v 58.2772216796875 716.6072998046875 -12.153261184692383
v 58.2772216796875 716.6072998046875 -5.324187755584717
v 53.35523986816406 713.3185424804688 -5.324187755584717
v 36.821537017822266 716.6072998046875 -12.153261184692383
v 41.74351501464844 713.3185424804688 -12.153261184692383
v 36.821537017822266 716.6072998046875 -5.324187755584717
v 47.54937744140625 712.1636962890625 -12.153261184692383
v 53.35523986816406 713.3185424804688 -12.153261184692383
v 47.54937744140625 712.1636962890625 -5.324187755584717
v 33.53276062011719 721.529296875 -5.324187755584717
v 36.821537017822266 716.6072998046875 -5.324187755584717
v 36.821537017822266 716.6072998046875 -12.153261184692383
v 36.821537017822266 716.6072998046875 -5.324187755584717
v 33.53276062011719 721.529296875 -5.324187755584717
v 41.74351501464844 713.3185424804688 -12.153261184692383
v 47.54937744140625 712.1636962890625 -12.153261184692383
v 41.74351501464844 713.3185424804688 -5.324187755584717
v 53.35523986816406 713.3185424804688 -12.153261184692383
v 53.35523986816406 713.3185424804688 -5.324187755584717
v 47.54937744140625 712.1636962890625 -5.324187755584717
v 32.37788391113281 727.3351440429688 -5.324187755584717
v 36.821537017822266 716.6072998046875 -5.324187755584717
v 41.74351501464844 713.3185424804688 -5.324187755584717
v 41.74351501464844 713.3185424804688 -5.324187755584717
v 41.74351501464844 713.3185424804688 -12.153261184692383
v 41.74351501464844 713.3185424804688 -5.324187755584717
v 36.821537017822266 716.6072998046875 -5.324187755584717
v 47.54937744140625 712.1636962890625 -12.153261184692383
v 47.54937744140625 712.1636962890625 -5.324187755584717
v 41.74351501464844 713.3185424804688 -5.324187755584717
vt 0.49801331758499146 0.6478431224822998
vt 0.49801331758499146 0.6791692972183228
vt 0.5012930035591125 0.678948163986206
vt 0.5012930035591125 0.6478689908981323
vt 0.4692750871181488 0.6478842496871948
vt 0.49801331758499146 0.6478431224822998
vt 0.5012930035591125 0.6478689908981323
vt 0.47273778915405273 0.64790940284729
vt 0.5012930035591125 0.6478689908981323
vt 0.5012930035591125 0.678948163986206
vt 0.47273778915405273 0.64790940284729
vt 0.5012930035591125 0.678948163986206
vt 0.49801331758499146 0.6791692972183228
vt 0.47273778915405273 0.6786025762557983
vt 0.4692750871181488 0.6788181662559509
vt 0.31360599398612976 0.6941937208175659
vt 0.31123781204223633 0.6945235729217529
vt 0.31357818841934204 0.6948665380477905
vt 0.31123781204223633 0.6945235729217529
vt 0.30886515974998474 0.6941937208175659
vt 0.3112148642539978 0.6951957941055298
vt 0.31560665369033813 0.6932551860809326
vt 0.31360599398612976 0.6941937208175659
vt 0.3155747652053833 0.6939295530319214
vt 0.31123781204223633 0.6945235729217529
vt 0.3112148642539978 0.6951957941055298
vt 0.31357818841934204 0.6948665380477905
vt 0.31360599398612976 0.6941937208175659
vt 0.31357818841934204 0.6948665380477905
vt 0.3155747652053833 0.6939295530319214
vt 0.30886515974998474 0.6941937208175659
vt 0.30685171484947205 0.6932551860809326
vt 0.3088470697402954 0.6948665380477905
vt 0.4692750871181488 0.6788181662559509
vt 0.4692750871181488 0.6478842496871948
vt 0.47273778915405273 0.64790940284729
vt 0.30886515974998474 0.6941937208175659
vt 0.3088470697402954 0.6948665380477905
vt 0.3112148642539978 0.6951957941055298
vt 0.316934198141098 0.6918525695800781
vt 0.31560665369033813 0.6932551860809326
vt 0.3168995976448059 0.6925292611122131
vt 0.31560665369033813 0.6932551860809326
vt 0.3155747652053833 0.6939295530319214
vt 0.3168995976448059 0.6925292611122131
vt 0.3155747652053833 0.6939295530319214
vt 0.31357818841934204 0.6948665380477905
vt 0.3112148642539978 0.6951957941055298
vt 0.30685171484947205 0.6932551860809326
vt 0.306837797164917 0.6939295530319214
vt 0.3088470697402954 0.6948665380477905
vt 0.30685171484947205 0.6932551860809326
vt 0.30550509691238403 0.6918525695800781
vt 0.306837797164917 0.6939295530319214
vt 0.3112148642539978 0.6951957941055298
vt 0.3088470697402954 0.6948665380477905
vt 0.306837797164917 0.6939295530319214
vt 0.31738755106925964 0.6902012228965759
vt 0.316934198141098 0.6918525695800781
vt 0.3173520863056183 0.690880537033081
vt 0.316934198141098 0.6918525695800781
vt 0.3168995976448059 0.6925292611122131
vt 0.3173520863056183 0.690880537033081
vt 0.3173520863056183 0.690880537033081
vt 0.3168995976448059 0.6925292611122131
vt 0.3155747652053833 0.6939295530319214
vt 0.30550509691238403 0.6918525695800781
vt 0.3054939806461334 0.6925292611122131
vt 0.306837797164917 0.6939295530319214
vt 0.30550509691238403 0.6918525695800781
vt 0.3050292730331421 0.6902012228965759
vt 0.3054939806461334 0.6925292611122131
vt 0.47273778915405273 0.6786025762557983
vt 0.31690025329589844 0.6885532140731812
vt 0.31738755106925964 0.6902012228965759
vt 0.31686580181121826 0.6892352104187012
vt 0.31738755106925964 0.6902012228965759
vt 0.3173520863056183 0.690880537033081
vt 0.31686580181121826 0.6892352104187012
vt 0.3111564815044403 0.6865879893302917
vt 0.3112148642539978 0.6951957941055298
vt 0.306837797164917 0.6939295530319214
vt 0.3054939806461334 0.6925292611122131
vt 0.3050191104412079 0.690880537033081
vt 0.3050292730331421 0.6902012228965759
vt 0.3050191104412079 0.690880537033081
vt 0.3054939806461334 0.6925292611122131
vt 0.3050292730331421 0.6902012228965759
vt 0.30549415946006775 0.6885532140731812
vt 0.3050191104412079 0.690880537033081
vt 0.3111564815044403 0.6865879893302917
vt 0.3173520863056183 0.690880537033081
vt 0.3155747652053833 0.6939295530319214
vt 0.31554892659187317 0.6871585845947266
vt 0.31690025329589844 0.6885532140731812
vt 0.31551727652549744 0.6878429055213928
vt 0.31690025329589844 0.6885532140731812
vt 0.31686580181121826 0.6892352104187012
vt 0.31551727652549744 0.6878429055213928
vt 0.31551727652549744 0.6878429055213928
vt 0.31686580181121826 0.6892352104187012
vt 0.30549415946006775 0.6885532140731812
vt 0.30548304319381714 0.6892352104187012
vt 0.3050191104412079 0.690880537033081
vt 0.30549415946006775 0.6885532140731812
vt 0.30682653188705444 0.6871585845947266
vt 0.30548304319381714 0.6892352104187012
vt 0.47273778915405273 0.6786025762557983
vt 0.3135403096675873 0.6862281560897827
vt 0.31554892659187317 0.6871585845947266
vt 0.31351280212402344 0.6869139671325684
vt 0.31351280212402344 0.6869139671325684
vt 0.31554892659187317 0.6871585845947266
vt 0.31551727652549744 0.6878429055213928
vt 0.31351280212402344 0.6869139671325684
vt 0.30682653188705444 0.6871585845947266
vt 0.30882248282432556 0.6862281560897827
vt 0.30681270360946655 0.6878429055213928
vt 0.31117916107177734 0.6859016418457031
vt 0.3135403096675873 0.6862281560897827
vt 0.3111564815044403 0.6865879893302917
vt 0.30548304319381714 0.6892352104187012
vt 0.30681270360946655 0.6878429055213928
vt 0.30682653188705444 0.6871585845947266
vt 0.30681270360946655 0.6878429055213928
vt 0.30548304319381714 0.6892352104187012
vt 0.30882248282432556 0.6862281560897827
vt 0.31117916107177734 0.6859016418457031
vt 0.30880460143089294 0.6869139671325684
vt 0.3135403096675873 0.6862281560897827
vt 0.31351280212402344 0.6869139671325684
vt 0.3111564815044403 0.6865879893302917
vt 0.3050191104412079 0.690880537033081
vt 0.30681270360946655 0.6878429055213928
vt 0.30880460143089294 0.6869139671325684
vt 0.30880460143089294 0.6869139671325684
vt 0.30882248282432556 0.6862281560897827
vt 0.30880460143089294 0.6869139671325684
vt 0.30681270360946655 0.6878429055213928
vt 0.31117916107177734 0.6859016418457031
vt 0.3111564815044403 0.6865879893302917
vt 0.30880460143089294 0.6869139671325684
vn 0 -1 -0
vn 0 -1 -0
vn 0 -1 -0
vn 0 -1 -0
vn -1 -0 -0
vn -1 -0 -0
vn -1 -0 -0
vn 0 -0 -1
vn 0 -0 -1
vn 0 -0 -1
vn -1 -0 -0
vn 1 -0 -0
vn 1 -0 -0
vn 1 -0 -0
vn 1 -0 -0
vn -0.19509360194206238 -0.9807846546173096 -0
vn -0.19509360194206238 -0.9807846546173096 -0
vn -0.19509360194206238 -0.9807846546173096 -0
vn 0.19509360194206238 -0.9807846546173096 -0
vn 0.19509360194206238 -0.9807846546173096 -0
vn 0.19509360194206238 -0.9807846546173096 -0
vn -0.5555782318115234 -0.8314642310142517 -0
vn -0.5555782318115234 -0.8314642310142517 -0
vn -0.5555782318115234 -0.8314642310142517 -0
vn -0.19509363174438477 -0.9807846546173096 -0
vn -0.19509363174438477 -0.9807846546173096 -0
vn -0.19509363174438477 -0.9807846546173096 -0
vn -0.5555780529975891 -0.8314643502235413 -0
vn -0.5555780529975891 -0.8314643502235413 -0
vn -0.5555780529975891 -0.8314643502235413 -0
vn 0.5555782318115234 -0.8314642310142517 -0
vn 0.5555782318115234 -0.8314642310142517 -0
vn 0.5555782318115234 -0.8314642310142517 -0
vn 0 1 -0
vn 0 1 -0
vn 0 1 -0
vn 0.19509363174438477 -0.9807846546173096 -0
vn 0.19509363174438477 -0.9807846546173096 -0
vn 0.19509363174438477 -0.9807846546173096 -0
vn -0.8314685225486755 -0.5555718541145325 -0
vn -0.8314685225486755 -0.5555718541145325 -0
vn -0.8314685225486755 -0.5555718541145325 -0
vn -0.8314686417579651 -0.5555717945098877 -0
vn -0.8314686417579651 -0.5555717945098877 -0
vn -0.8314686417579651 -0.5555717945098877 -0
vn -0.0000002327920185507537 -0 -1
vn -0.0000002327920185507537 -0 -1
vn -0.0000002327920185507537 -0 -1
vn 0.5555775165557861 -0.8314647078514099 -0
vn 0.5555775165557861 -0.8314647078514099 -0
vn 0.5555775165557861 -0.8314647078514099 -0
vn 0.8314691781997681 -0.5555710196495056 -0
vn 0.8314691781997681 -0.5555710196495056 -0
vn 0.8314691781997681 -0.5555710196495056 -0
vn 0.00000017459402101849264 -0 -1
vn 0.00000017459402101849264 -0 -1
vn 0.00000017459402101849264 -0 -1
vn -0.9807848930358887 -0.1950923502445221 -0
vn -0.9807848930358887 -0.1950923502445221 -0
vn -0.9807848930358887 -0.1950923502445221 -0
vn -0.9807843565940857 -0.1950947493314743 -0
vn -0.9807843565940857 -0.1950947493314743 -0
vn -0.9807843565940857 -0.1950947493314743 -0
vn 0 -0 -1
vn 0 -0 -1
vn 0 -0 -1
vn 0.8314686417579651 -0.5555717945098877 -0
vn 0.8314686417579651 -0.5555717945098877 -0
vn 0.8314686417579651 -0.5555717945098877 -0
vn 0.9807846546173096 -0.1950935274362564 -0
vn 0.9807846546173096 -0.1950935274362564 -0
vn 0.9807846546173096 -0.1950935274362564 -0
vn 0 -0 -1
vn -0.9807843565940857 0.19509471952915192 -0
vn -0.9807843565940857 0.19509471952915192 -0
vn -0.9807843565940857 0.19509471952915192 -0
vn -0.9807848334312439 0.1950923651456833 -0
vn -0.9807848334312439 0.1950923651456833 -0
vn -0.9807848334312439 0.1950923651456833 -0
vn 0 -0 -1
vn 0 -0 -1
vn 0 -0 -1
vn 0 -0 -1
vn 0 -0 -1
vn 0.9807846546173096 -0.19509357213974 -0
vn 0.9807846546173096 -0.19509357213974 -0
vn 0.9807846546173096 -0.19509357213974 -0
vn 0.9807846546173096 0.1950935274362564 -0
vn 0.9807846546173096 0.1950935274362564 -0
vn 0.9807846546173096 0.1950935274362564 -0
vn 0.00000005425271965009415 -0 -1
vn 0.00000005425271965009415 -0 -1
vn 0.00000005425271965009415 -0 -1
vn -0.8314685225486755 0.5555718541145325 -0
vn -0.8314685225486755 0.5555718541145325 -0
vn -0.8314685225486755 0.5555718541145325 -0
vn -0.8314686417579651 0.5555717945098877 -0
vn -0.8314686417579651 0.5555717945098877 -0
vn -0.8314686417579651 0.5555717945098877 -0
vn 0 -0 -1
vn 0 -0 -1
vn 0.9807846546173096 0.19509357213974 -0
vn 0.9807846546173096 0.19509357213974 -0
vn 0.9807846546173096 0.19509357213974 -0
vn 0.8314685225486755 0.5555718541145325 -0
vn 0.8314685225486755 0.5555718541145325 -0
vn 0.8314685225486755 0.5555718541145325 -0
vn 0 1 -0
vn -0.5555652976036072 0.8314728140830994 -0
vn -0.5555652976036072 0.8314728140830994 -0
vn -0.5555652976036072 0.8314728140830994 -0
vn 0 -0 -1
vn -0.5555651783943176 0.8314728736877441 -0
vn -0.5555651783943176 0.8314728736877441 -0
vn -0.5555651783943176 0.8314728736877441 -0
vn 0.5555647015571594 0.8314732313156128 -0
vn 0.5555647015571594 0.8314732313156128 -0
vn 0.5555647015571594 0.8314732313156128 -0
vn -0.19509360194206238 0.9807846546173096 -0
vn -0.19509360194206238 0.9807846546173096 -0
vn -0.19509360194206238 0.9807846546173096 -0
vn 0 -0 -1
vn 0 -0 -1
vn 0.8314691781997681 0.5555709004402161 -0
vn 0.8314691781997681 0.5555709004402161 -0
vn 0.8314691781997681 0.5555709004402161 -0
vn 0.19509360194206238 0.9807846546173096 -0
vn 0.19509360194206238 0.9807846546173096 -0
vn 0.19509360194206238 0.9807846546173096 -0
vn -0.19509363174438477 0.9807846546173096 -0
vn -0.19509363174438477 0.9807846546173096 -0
vn -0.19509363174438477 0.9807846546173096 -0
vn 0.0000003269923070092773 -0 -1
vn 0.0000003269923070092773 -0 -1
vn 0.0000003269923070092773 -0 -1
vn 0 -0 -1
vn 0.5555651783943176 0.8314728736877441 -0
vn 0.5555651783943176 0.8314728736877441 -0
vn 0.5555651783943176 0.8314728736877441 -0
vn 0.19509363174438477 0.9807846546173096 -0
vn 0.19509363174438477 0.9807846546173096 -0
vn 0.19509363174438477 0.9807846546173096 -0
f 3/3/3 2/2/2 1/1/1
f 3/3/3 1/1/1 4/4/4
f 7/7/7 6/6/6 5/5/5
f 10/10/10 9/9/9 8/8/8
f 7/7/7 5/5/5 11/11/11
f 14/14/14 13/13/13 12/12/12
f 14/14/14 15/15/15 13/13/13
f 18/18/18 17/17/17 16/16/16
f 21/21/21 20/20/20 19/19/19
f 24/24/24 23/23/23 22/22/22
f 27/27/27 26/26/26 25/25/25
f 30/30/30 29/29/29 28/28/28
f 33/33/33 32/32/32 31/31/31
f 36/36/36 35/35/35 34/34/34
f 39/39/39 38/38/38 37/37/37
f 42/42/42 41/41/41 40/40/40
f 45/45/45 44/44/44 43/43/43
f 48/48/48 47/47/47 46/46/46
f 51/51/51 50/50/50 49/49/49
f 54/54/54 53/53/53 52/52/52
f 57/57/57 56/56/56 55/55/55
f 60/60/60 59/59/59 58/58/58
f 63/63/63 62/62/62 61/61/61
f 66/66/66 65/65/65 64/64/64
f 69/69/69 68/68/68 67/67/67
f 72/72/72 71/71/71 70/70/70
f 10/10/10 8/8/8 73/73/73
f 76/76/76 75/75/75 74/74/74
f 79/79/79 78/78/78 77/77/77
f 81/81/81 66/66/66 80/80/80
f 82/82/82 81/81/81 80/80/80
f 84/84/84 83/83/83 82/82/82
f 87/87/87 86/86/86 85/85/85
f 90/90/90 89/89/89 88/88/88
f 93/93/93 92/92/92 91/91/91
f 96/96/96 95/95/95 94/94/94
f 99/99/99 98/98/98 97/97/97
f 64/64/64 101/101/101 100/100/100
f 84/84/84 82/82/82 80/80/80
f 104/104/104 103/103/103 102/102/102
f 107/107/107 106/106/106 105/105/105
f 36/36/36 34/34/34 108/108/108
f 111/111/111 110/110/110 109/109/109
f 100/100/100 112/112/112 64/64/64
f 115/115/115 114/114/114 113/113/113
f 118/118/118 117/117/117 116/116/116
f 121/121/121 120/120/120 119/119/119
f 112/112/112 80/80/80 64/64/64
f 123/123/123 122/122/122 84/84/84
f 126/126/126 125/125/125 124/124/124
f 129/129/129 128/128/128 127/127/127
f 132/132/132 131/131/131 130/130/130
f 135/135/135 134/134/134 133/133/133
f 80/80/80 136/136/136 84/84/84
f 139/139/139 138/138/138 137/137/137
f 142/142/142 141/141/141 140/140/140
