# VPXTOOL table OBJ file
# VPXTOOL OBJ file
# numVerts: 129 numFaces: 129
o LM_GI_gi08_swRO
v -2571.7880859375 7738.09326171875 -40651.33203125
v 457.52337646484375 9405.802734375 -36906.86328125
v -211.91270446777344 -5157.37158203125 -34845.46484375
v -211.91270446777344 -5157.37158203125 -34845.46484375
v 457.52337646484375 9405.802734375 -36906.86328125
v 2021.3125 10298.2333984375 -42271.33984375
v -2023.6871337890625 -13566.484375 -37738.12890625
v -211.91270446777344 -5157.37158203125 -34845.46484375
v -1387.60986328125 -22341.072265625 -29527.873046875
v -211.91270446777344 -5157.37158203125 -34845.46484375
v -2023.6871337890625 -13566.484375 -37738.12890625
v -2571.7880859375 7738.09326171875 -40651.33203125
v 2406.8037109375 -27384.458984375 -28485.306640625
v 2021.3125 10298.2333984375 -42271.33984375
v 926.128662109375 -20816.974609375 -35777.87890625
v 458.993408203125 23665.244140625 -35122.4453125
v 457.52337646484375 9405.802734375 -36906.86328125
v -2571.7880859375 7738.09326171875 -40651.33203125
v -2023.6871337890625 -13566.484375 -37738.12890625
v 915.4990844726563 -5077.76318359375 -40925.40234375
v -2571.7880859375 7738.09326171875 -40651.33203125
v 2021.3125 10298.2333984375 -42271.33984375
v 915.4990844726563 -5077.76318359375 -40925.40234375
v 926.128662109375 -20816.974609375 -35777.87890625
v 2021.3125 10298.2333984375 -42271.33984375
v 457.52337646484375 9405.802734375 -36906.86328125
v 2410.30908203125 31764.96875 -34928.27734375
v 915.4990844726563 -5077.76318359375 -40925.40234375
v 2021.3125 10298.2333984375 -42271.33984375
v -2571.7880859375 7738.09326171875 -40651.33203125
v -1387.60986328125 -22341.072265625 -29527.873046875
v 2406.8037109375 -27384.458984375 -28485.306640625
v 463.9689636230469 -33223.02734375 -22608.087890625
v 926.128662109375 -20816.974609375 -35777.87890625
v 915.4990844726563 -5077.76318359375 -40925.40234375
v -2023.6871337890625 -13566.484375 -37738.12890625
v -2200.205810546875 -34393.18359375 -27120.37109375
v -2023.6871337890625 -13566.484375 -37738.12890625
v -1387.60986328125 -22341.072265625 -29527.873046875
v -2135.41064453125 30667.41015625 -38229.96484375
v -2571.7880859375 7738.09326171875 -40651.33203125
v 2021.3125 10298.2333984375 -42271.33984375
v 926.128662109375 -20816.974609375 -35777.87890625
v -2023.6871337890625 -13566.484375 -37738.12890625
v 927.9379272460938 -35569.671875 -27910.375
v -2135.41064453125 30667.41015625 -38229.96484375
v -1378.4503173828125 36017.921875 -31906.064453125
v -2571.7880859375 7738.09326171875 -40651.33203125
v 2406.8037109375 -27384.458984375 -28485.306640625
v 926.128662109375 -20816.974609375 -35777.87890625
v 927.9379272460938 -35569.671875 -27910.375
v -2023.6871337890625 -13566.484375 -37738.12890625
v -2200.205810546875 -34393.18359375 -27120.37109375
v 927.9379272460938 -35569.671875 -27910.375
v 2410.30908203125 31764.96875 -34928.27734375
v 920.9269409179688 25583.765625 -40615.9453125
v 2021.3125 10298.2333984375 -42271.33984375
v 920.9269409179688 25583.765625 -40615.9453125
v -2135.41064453125 30667.41015625 -38229.96484375
v 2021.3125 10298.2333984375 -42271.33984375
v 677.3516845703125 -47251.55859375 -10593.26171875
v 463.9689636230469 -33223.02734375 -22608.087890625
v 2406.8037109375 -27384.458984375 -28485.306640625
v -2304.23974609375 -54873.1796875 -6629.74658203125
v -1387.60986328125 -22341.072265625 -29527.873046875
v 463.9689636230469 -33223.02734375 -22608.087890625
v -2200.205810546875 -34393.18359375 -27120.37109375
v -1387.60986328125 -22341.072265625 -29527.873046875
v -2304.23974609375 -54873.1796875 -6629.74658203125
v 2410.30908203125 31764.96875 -34928.27734375
v 921.6054077148438 41305.7890625 -35196.1328125
v 920.9269409179688 25583.765625 -40615.9453125
v 2406.8037109375 -27384.458984375 -28485.306640625
v 927.9379272460938 -35569.671875 -27910.375
v 2444.45947265625 -53168.15234375 -9346.0546875
v 921.6054077148438 41305.7890625 -35196.1328125
v -2135.41064453125 30667.41015625 -38229.96484375
v 920.9269409179688 25583.765625 -40615.9453125
v 2444.45947265625 -53168.15234375 -9346.0546875
v 677.3516845703125 -47251.55859375 -10593.26171875
v 2406.8037109375 -27384.458984375 -28485.306640625
v -1378.4503173828125 36017.921875 -31906.064453125
v -2135.41064453125 30667.41015625 -38229.96484375
v -2553.35595703125 64436.6171875 -17882.439453125
v -368.416015625 55915.5546875 -27271.5703125
v -2135.41064453125 30667.41015625 -38229.96484375
v 921.6054077148438 41305.7890625 -35196.1328125
v 2410.30908203125 31764.96875 -34928.27734375
v 2439.370849609375 61828.98046875 -21033.640625
v 921.6054077148438 41305.7890625 -35196.1328125
v -368.416015625 55915.5546875 -27271.5703125
v -2553.35595703125 64436.6171875 -17882.439453125
v -2135.41064453125 30667.41015625 -38229.96484375
v -368.416015625 55915.5546875 -27271.5703125
v 921.6054077148438 41305.7890625 -35196.1328125
v 2439.370849609375 61828.98046875 -21033.640625
v 464.6474304199219 52254.9140625 -22685.82421875
v 466.9090576171875 63427.9375 -13491.5107421875
v 2439.370849609375 61828.98046875 -21033.640625
v 466.9090576171875 63427.9375 -13491.5107421875
v 464.6474304199219 52254.9140625 -22685.82421875
v -2553.35595703125 64436.6171875 -17882.439453125
v -368.416015625 55915.5546875 -27271.5703125
v 2439.370849609375 61828.98046875 -21033.640625
v 927.3724975585938 67904.5625 -16966.525390625
v 927.3724975585938 67904.5625 -16966.525390625
v -2553.35595703125 64436.6171875 -17882.439453125
v -368.416015625 55915.5546875 -27271.5703125
v 466.9090576171875 63427.9375 -13491.5107421875
v -218.58445739746094 71979.53125 -1922.0526123046875
v 2439.370849609375 61828.98046875 -21033.640625
v -218.58445739746094 71979.53125 -1922.0526123046875
v 466.9090576171875 63427.9375 -13491.5107421875
v -2553.35595703125 64436.6171875 -17882.439453125
v 175.04849243164063 77888.6640625 -3869.884033203125
v 927.3724975585938 67904.5625 -16966.525390625
v 2439.370849609375 61828.98046875 -21033.640625
v 175.04849243164063 77888.6640625 -3869.884033203125
v -2553.35595703125 64436.6171875 -17882.439453125
v 927.3724975585938 67904.5625 -16966.525390625
v -218.58445739746094 71979.53125 -1922.0526123046875
v -2553.35595703125 64436.6171875 -17882.439453125
v -2522.371826171875 81608.328125 11980.748046875
v 175.04849243164063 77888.6640625 -3869.884033203125
v 2439.370849609375 61828.98046875 -21033.640625
v 2056.48046875 80082.1953125 12494.8779296875
v -2522.371826171875 81608.328125 11980.748046875
v -2553.35595703125 64436.6171875 -17882.439453125
v 175.04849243164063 77888.6640625 -3869.884033203125
vt 0.530185878276825 0.37868911027908325
vt 0.5309137105941772 0.3787792921066284
vt 0.5304039120674133 0.37780165672302246
vt 0.5304039120674133 0.37780165672302246
vt 0.5309137105941772 0.3787792921066284
vt 0.5312498211860657 0.3786688446998596
vt 0.5297532081604004 0.3771643042564392
vt 0.5304039120674133 0.37780165672302246
vt 0.5294299721717834 0.3767256736755371
vt 0.5304039120674133 0.37780165672302246
vt 0.5297532081604004 0.3771643042564392
vt 0.530185878276825 0.37868911027908325
vt 0.5304774641990662 0.3764216899871826
vt 0.5312498211860657 0.3786688446998596
vt 0.5303363800048828 0.37665557861328125
vt 0.5311421751976013 0.3798640966415405
vt 0.5309137105941772 0.3787792921066284
vt 0.530185878276825 0.37868911027908325
vt 0.5297532081604004 0.3771643042564392
vt 0.5308501720428467 0.3776325583457947
vt 0.530185878276825 0.37868911027908325
vt 0.5312498211860657 0.3786688446998596
vt 0.5308501720428467 0.3776325583457947
vt 0.5303363800048828 0.37665557861328125
vt 0.5312498211860657 0.3786688446998596
vt 0.5309137105941772 0.3787792921066284
vt 0.5319287180900574 0.38049304485321045
vt 0.5308501720428467 0.3776325583457947
vt 0.5312498211860657 0.3786688446998596
vt 0.530185878276825 0.37868911027908325
vt 0.5294299721717834 0.3767256736755371
vt 0.5304774641990662 0.3764216899871826
vt 0.5295042395591736 0.3761117458343506
vt 0.5303363800048828 0.37665557861328125
vt 0.5308501720428467 0.3776325583457947
vt 0.5297532081604004 0.3771643042564392
vt 0.5289937853813171 0.37594032287597656
vt 0.5297532081604004 0.3771643042564392
vt 0.5294299721717834 0.3767256736755371
vt 0.530738353729248 0.38031435012817383
vt 0.530185878276825 0.37868911027908325
vt 0.5312498211860657 0.3786688446998596
vt 0.5303363800048828 0.37665557861328125
vt 0.5297532081604004 0.3771643042564392
vt 0.5297572612762451 0.3758382797241211
vt 0.530738353729248 0.38031435012817383
vt 0.5307298898696899 0.380855917930603
vt 0.530185878276825 0.37868911027908325
vt 0.5304774641990662 0.3764216899871826
vt 0.5303363800048828 0.37665557861328125
vt 0.5297572612762451 0.3758382797241211
vt 0.5297532081604004 0.3771643042564392
vt 0.5289937853813171 0.37594032287597656
vt 0.5297572612762451 0.3758382797241211
vt 0.5319287180900574 0.38049304485321045
vt 0.5314842462539673 0.3798346519470215
vt 0.5312498211860657 0.3786688446998596
vt 0.5314842462539673 0.3798346519470215
vt 0.530738353729248 0.38031435012817383
vt 0.5312498211860657 0.3786688446998596
vt 0.5289281010627747 0.37550365924835205
vt 0.5295042395591736 0.3761117458343506
vt 0.5304774641990662 0.3764216899871826
vt 0.5276944637298584 0.3751465678215027
vt 0.5294299721717834 0.3767256736755371
vt 0.5295042395591736 0.3761117458343506
vt 0.5289937853813171 0.37594032287597656
vt 0.5294299721717834 0.3767256736755371
vt 0.5276944637298584 0.3751465678215027
vt 0.5319287180900574 0.38049304485321045
vt 0.5316175222396851 0.3811153769493103
vt 0.5314842462539673 0.3798346519470215
vt 0.5304774641990662 0.3764216899871826
vt 0.5297572612762451 0.3758382797241211
vt 0.5293093919754028 0.37521588802337646
vt 0.5316175222396851 0.3811153769493103
vt 0.530738353729248 0.38031435012817383
vt 0.5314842462539673 0.3798346519470215
vt 0.5293093919754028 0.37521588802337646
vt 0.5289281010627747 0.37550365924835205
vt 0.5304774641990662 0.3764216899871826
vt 0.5307298898696899 0.380855917930603
vt 0.530738353729248 0.38031435012817383
vt 0.5306298136711121 0.3833756446838379
vt 0.5313040018081665 0.38240158557891846
vt 0.530738353729248 0.38031435012817383
vt 0.5316175222396851 0.3811153769493103
vt 0.5319287180900574 0.38049304485321045
vt 0.5320371389389038 0.3829801678657532
vt 0.5316175222396851 0.3811153769493103
vt 0.5313040018081665 0.38240158557891846
vt 0.5306298136711121 0.3833756446838379
vt 0.530738353729248 0.38031435012817383
vt 0.5313040018081665 0.38240158557891846
vt 0.5316175222396851 0.3811153769493103
vt 0.5320371389389038 0.3829801678657532
vt 0.5312938690185547 0.38230013847351074
vt 0.531201183795929 0.38337892293930054
vt 0.5320371389389038 0.3829801678657532
vt 0.531201183795929 0.38337892293930054
vt 0.5312938690185547 0.38230013847351074
vt 0.5306298136711121 0.3833756446838379
vt 0.5313040018081665 0.38240158557891846
vt 0.5320371389389038 0.3829801678657532
vt 0.5315312147140503 0.3835570216178894
vt 0.5315312147140503 0.3835570216178894
vt 0.5306298136711121 0.3833756446838379
vt 0.5313040018081665 0.38240158557891846
vt 0.531201183795929 0.38337892293930054
vt 0.5308422446250916 0.38436758518218994
vt 0.5320371389389038 0.3829801678657532
vt 0.5308422446250916 0.38436758518218994
vt 0.531201183795929 0.38337892293930054
vt 0.5306298136711121 0.3833756446838379
vt 0.5309960246086121 0.3845924139022827
vt 0.5315312147140503 0.3835570216178894
vt 0.5320371389389038 0.3829801678657532
vt 0.5309960246086121 0.3845924139022827
vt 0.5306298136711121 0.3833756446838379
vt 0.5315312147140503 0.3835570216178894
vt 0.5308422446250916 0.38436758518218994
vt 0.5306298136711121 0.3833756446838379
vt 0.5298135280609131 0.385392427444458
vt 0.5309960246086121 0.3845924139022827
vt 0.5320371389389038 0.3829801678657532
vt 0.5309470295906067 0.38532721996307373
vt 0.5298135280609131 0.385392427444458
vt 0.5306298136711121 0.3833756446838379
vt 0.5309960246086121 0.3845924139022827
vn -0.9164762496948242 -0.05399473011493683 0.3964289128780365
vn -0.629862904548645 0.06661476194858551 0.7738444805145264
vn -0.910764217376709 -0.060581959784030914 0.4084586799144745
vn 0.8565353751182556 -0.07912641763687134 0.5099862813949585
vn 0.8581676483154297 -0.08073965460062027 0.5069806575775146
vn 0.9938319325447083 -0.059984833002090454 -0.09327277541160583
vn -0.9900176525115967 -0.13508722186088562 -0.04020540416240692
vn -0.8773463368415833 0.2038847804069519 0.434389591217041
vn -0.8877426385879517 0.09819118678569794 0.44974613189697266
vn -0.7782052159309387 0.1942691057920456 0.5972069501876831
vn -0.9859130382537842 -0.1144593209028244 0.1219613254070282
vn -0.9779729843139648 0.17848238348960876 0.10822567343711853
vn 0.9994161128997803 -0.03293830156326294 0.009084612131118774
vn 0.9999465942382813 0.008991442620754242 -0.005101263523101807
vn 0.8240163326263428 -0.1678788959980011 -0.5411227941513062
vn -0.569760262966156 -0.08341999351978302 0.8175660371780396
vn -0.5879932641983032 0.02391953021287918 0.8085119128227234
vn -0.9057435393333435 0.00992514193058014 0.4237097501754761
vn -0.6966831684112549 -0.29635438323020935 -0.6533043384552002
vn -0.2816978693008423 -0.05179356783628464 -0.9581043124198914
vn -0.672685980796814 0.1188998594880104 -0.7303125858306885
vn 0.964562714099884 0.21575239300727844 -0.1518874317407608
vn 0.8480144143104553 -0.2671360969543457 -0.45772242546081543
vn 0.8432472944259644 -0.21324008703231812 -0.4934194087982178
vn 0.9963093996047974 0.0375169962644577 -0.07720157504081726
vn 0.8569698929786682 -0.1065082848072052 0.5042407512664795
vn 0.9788655042648315 0.19828975200653076 0.050035372376441956
vn -0.11959733814001083 -0.2908283770084381 -0.9492709040641785
vn -0.04491950571537018 0.09398877620697021 -0.9945593476295471
vn -0.5713294744491577 -0.05248115956783295 -0.8190411329269409
vn 0.24136967957019806 0.5446867346763611 0.8031545281410217
vn 0.6711493134498596 0.2902945876121521 0.6821199655532837
vn 0.7223812937736511 0.3609316945075989 0.5898250937461853
vn 0.07623979449272156 -0.4942229092121124 -0.865985631942749
vn 0.07047097384929657 -0.10032971948385239 -0.9924553632736206
vn -0.3916836380958557 -0.3974596858024597 -0.8298250436782837
vn -0.9839193224906921 -0.1638372391462326 -0.07113370299339294
vn -0.9730271697044373 0.13698813319206238 -0.1856134533882141
vn -0.9029711484909058 0.3130526542663574 0.29434871673583984
vn -0.5432193875312805 0.3096785545349121 -0.7803921699523926
vn -0.60579514503479 -0.045702848583459854 -0.7943069338798523
vn -0.08957631886005402 0.08249412477016449 -0.9925576448440552
vn -0.23022939264774323 -0.4995412230491638 -0.8351364135742188
vn -0.6791515350341797 -0.18315604329109192 -0.7107791304588318
vn -0.3215233385562897 -0.6337575316429138 -0.7035439014434814
vn -0.9662889242172241 -0.012101840227842331 -0.2571755349636078
vn -0.9374598860740662 -0.056191250681877136 0.3435281217098236
vn -0.9441366791725159 -0.14138436317443848 0.29768529534339905
vn 0.9883406758308411 -0.14992158114910126 -0.02657487988471985
vn 0.7849349975585938 -0.2104697823524475 -0.5827343463897705
vn 0.7764800786972046 -0.3232249617576599 -0.5409290194511414
vn -0.5331581830978394 -0.1743750423192978 -0.8278500437736511
vn -0.61729896068573 -0.3933667540550232 -0.6813256144523621
vn -0.09920544922351837 -0.5327405333518982 -0.8404438495635986
vn 0.9623086452484131 0.2647302746772766 -0.06229102611541748
vn 0.8086066842079163 0.04576145112514496 -0.586567223072052
vn 0.8037903904914856 0.05691898614168167 -0.5921835899353027
vn -0.2972725033760071 0.052662305533885956 -0.9533392190933228
vn -0.7460935115814209 0.1868659257888794 -0.6390816569328308
vn -0.38754501938819885 -0.1849578320980072 -0.9031054377555847
vn 0.06727844476699829 0.568748950958252 0.819754958152771
vn 0.10878020524978638 0.5125356316566467 0.8517476320266724
vn 0.5828479528427124 0.6690340638160706 0.4611741304397583
vn -0.0020493268966674805 0.503227949142456 0.8641512989997864
vn -0.0031533241271972656 0.6219266653060913 0.7830690145492554
vn 0.4386579394340515 0.36835721135139465 0.8196902275085449
vn -0.9638529419898987 -0.2384769171476364 -0.11881181597709656
vn -0.9358580708503723 0.23937350511550903 0.2585921585559845
vn -0.9400087594985962 0.1408836841583252 0.3107011914253235
vn 0.9880361557006836 -0.08222022652626038 -0.13047821819782257
vn 0.783492922782898 0.28737926483154297 -0.550955593585968
vn 0.777648389339447 0.17419439554214478 -0.6040856838226318
vn 0.9671550393104553 0.14982712268829346 -0.20533637702465057
vn 0.8408536911010742 -0.40684932470321655 -0.356985479593277
vn 0.8349807262420654 -0.41056886315345764 -0.36638838052749634
vn 0.013800114393234253 0.5128525495529175 -0.8583657145500183
vn -0.4263404607772827 0.14696618914604187 -0.8925439119338989
vn 0.021819598972797394 0.12988799810409546 -0.9912884831428528
vn 0.9692490696907043 0.07832761108875275 0.23328281939029694
vn 0.6566792726516724 0.544708788394928 0.5215981602668762
vn 0.9272719621658325 0.36181604862213135 0.09620767831802368
vn -0.858055591583252 -0.1810229867696762 0.4805947542190552
vn -0.9919431209564209 -0.07231992483139038 -0.1040131151676178
vn -0.9748875498771667 0.18601864576339722 0.12243932485580444
vn -0.6511229872703552 0.5229029059410095 -0.5501013994216919
vn -0.6999601721763611 0.14299431443214417 -0.6997202038764954
vn -0.26927560567855835 0.4815683960914612 -0.834015965461731
vn 0.9977420568466187 -0.025868797674775124 -0.06198069453239441
vn 0.9990668296813965 0.01662459224462509 -0.039863064885139465
vn 0.7999008893966675 0.28119638562202454 -0.5301765203475952
vn -0.6922389268875122 0.2437087595462799 -0.6792726516723633
vn -0.9438250660896301 0.3093167245388031 -0.11626474559307098
vn -0.7664328217506409 0.06835240125656128 -0.6386772990226746
vn 0.36793482303619385 0.43642139434814453 -0.8210726380348206
vn 0.4567478895187378 0.2676197290420532 -0.8483871817588806
vn 0.7567615509033203 0.47755083441734314 -0.44638216495513916
vn 0.8007736206054688 -0.4522544741630554 0.3927181363105774
vn 0.7931308746337891 -0.4167451560497284 0.444147527217865
vn 0.9795992374420166 -0.18364426493644714 -0.08160930871963501
vn -0.6277250051498413 -0.5404021143913269 0.560291588306427
vn -0.6306086778640747 -0.4939756691455841 0.598598837852478
vn -0.8091290593147278 -0.1182316467165947 0.5756139755249023
vn 0.184483602643013 0.4557687044143677 -0.8707702159881592
vn 0.6064506769180298 0.5749737024307251 -0.5492020845413208
vn 0.4950803518295288 0.7084807753562927 -0.5029417872428894
vn -0.2026127725839615 0.7808735370635986 -0.5909185409545898
vn -0.6824123859405518 0.4901907444000244 -0.5422419309616089
vn -0.27053290605545044 0.4687545597553253 -0.8408811688423157
vn 0.7429481744766235 -0.4438501000404358 0.5010238885879517
vn 0.7381443977355957 -0.5180985927581787 0.4321072995662689
vn 0.7682269811630249 -0.6333940029144287 0.09294766187667847
vn -0.5422996282577515 -0.678885817527771 0.4950001537799835
vn -0.5711302161216736 -0.5978837609291077 0.5624459385871887
vn -0.8968850374221802 -0.34923240542411804 0.27135589718818665
vn 0.7496224045753479 0.6053435802459717 -0.2676290273666382
vn 0.7500539422035217 0.6106563806533813 -0.2540035843849182
vn 0.809066116809845 0.22819320857524872 -0.5416085720062256
vn -0.6381378173828125 0.7201134562492371 -0.27242743968963623
vn -0.7235955595970154 0.44760751724243164 -0.5254112482070923
vn -0.2526436746120453 0.7323830127716064 -0.6322866678237915
vn -0.35359618067741394 -0.7455611824989319 0.5648965835571289
vn -0.79718017578125 -0.5798882246017456 0.16802799701690674
vn -0.1946338564157486 -0.3171444237232208 0.9281902313232422
vn 0.8051703572273254 0.5629727840423584 -0.18644696474075317
vn 0.9974116086959839 0.0023399442434310913 -0.07186475396156311
vn 0.7975853085517883 0.19814151525497437 0.5697348117828369
vn -0.7936334609985352 0.35728996992111206 0.49243250489234924
vn -0.9675759077072144 0.1427740752696991 -0.20835648477077484
vn -0.6676231026649475 0.6891362071037292 -0.2817281484603882
f 3/3/3 2/2/2 1/1/1
f 6/6/6 5/5/5 4/4/4
f 9/9/9 8/8/8 7/7/7
f 12/12/12 11/11/11 10/10/10
f 15/15/15 14/14/14 13/13/13
f 18/18/18 17/17/17 16/16/16
f 21/21/21 20/20/20 19/19/19
f 24/24/24 23/23/23 22/22/22
f 27/27/27 26/26/26 25/25/25
f 30/30/30 29/29/29 28/28/28
f 33/33/33 32/32/32 31/31/31
f 36/36/36 35/35/35 34/34/34
f 39/39/39 38/38/38 37/37/37
f 42/42/42 41/41/41 40/40/40
f 45/45/45 44/44/44 43/43/43
f 48/48/48 47/47/47 46/46/46
f 51/51/51 50/50/50 49/49/49
f 54/54/54 53/53/53 52/52/52
f 57/57/57 56/56/56 55/55/55
f 60/60/60 59/59/59 58/58/58
f 63/63/63 62/62/62 61/61/61
f 66/66/66 65/65/65 64/64/64
f 69/69/69 68/68/68 67/67/67
f 72/72/72 71/71/71 70/70/70
f 75/75/75 74/74/74 73/73/73
f 78/78/78 77/77/77 76/76/76
f 81/81/81 80/80/80 79/79/79
f 84/84/84 83/83/83 82/82/82
f 87/87/87 86/86/86 85/85/85
f 90/90/90 89/89/89 88/88/88
f 93/93/93 92/92/92 91/91/91
f 96/96/96 95/95/95 94/94/94
f 99/99/99 98/98/98 97/97/97
f 102/102/102 101/101/101 100/100/100
f 105/105/105 104/104/104 103/103/103
f 108/108/108 107/107/107 106/106/106
f 111/111/111 110/110/110 109/109/109
f 114/114/114 113/113/113 112/112/112
f 117/117/117 116/116/116 115/115/115
f 120/120/120 119/119/119 118/118/118
f 123/123/123 122/122/122 121/121/121
f 126/126/126 125/125/125 124/124/124
f 129/129/129 128/128/128 127/127/127
