# VPXTOOL table OBJ file
# VPXTOOL OBJ file
# numVerts: 99 numFaces: 99
o LM_GI_gi22_swR2
v 2406.916748046875 -27384.458984375 -28485.2578125
v -211.91270446777344 -5156.91943359375 -34845.5078125
v 2021.3125 10298.4599609375 -42271.34375
v -2571.6748046875 7738.54541015625 -40651.2890625
v 457.6364440917969 9406.029296875 -36906.87890625
v -211.91270446777344 -5156.91943359375 -34845.5078125
v -211.91270446777344 -5156.91943359375 -34845.5078125
v 457.6364440917969 9406.029296875 -36906.87890625
v 2021.3125 10298.4599609375 -42271.34375
v -211.91270446777344 -5156.91943359375 -34845.5078125
v -2023.6871337890625 -13566.484375 -37738.08203125
v -2571.6748046875 7738.54541015625 -40651.2890625
v 2406.916748046875 -27384.458984375 -28485.2578125
v 2021.3125 10298.4599609375 -42271.34375
v 929.6341552734375 -29094.80078125 -32221.125
v 459.10650634765625 23665.017578125 -35122.515625
v 457.6364440917969 9406.029296875 -36906.87890625
v -2571.6748046875 7738.54541015625 -40651.2890625
v 2021.3125 10298.4599609375 -42271.34375
v 915.6121826171875 -5077.64990234375 -40925.41796875
v 929.6341552734375 -29094.80078125 -32221.125
v -2023.6871337890625 -13566.484375 -37738.08203125
v 915.6121826171875 -5077.64990234375 -40925.41796875
v -2571.6748046875 7738.54541015625 -40651.2890625
v 2021.3125 10298.4599609375 -42271.34375
v 457.6364440917969 9406.029296875 -36906.87890625
v 2410.535400390625 31765.419921875 -34928.21484375
v 915.6121826171875 -5077.64990234375 -40925.41796875
v 2021.3125 10298.4599609375 -42271.34375
v -2571.6748046875 7738.54541015625 -40651.2890625
v -2135.297607421875 30667.41015625 -38229.90625
v -2571.6748046875 7738.54541015625 -40651.2890625
v 2021.3125 10298.4599609375 -42271.34375
v -2135.297607421875 30667.41015625 -38229.90625
v -1378.4503173828125 36017.80859375 -31906.12890625
v -2571.6748046875 7738.54541015625 -40651.2890625
v 2410.535400390625 31765.419921875 -34928.21484375
v 921.0400390625 25583.765625 -40616.0234375
v 2021.3125 10298.4599609375 -42271.34375
v 921.0400390625 25583.765625 -40616.0234375
v -2135.297607421875 30667.41015625 -38229.90625
v 2021.3125 10298.4599609375 -42271.34375
v 2410.535400390625 31765.419921875 -34928.21484375
v 921.4923095703125 41306.015625 -35196.10546875
v 921.0400390625 25583.765625 -40616.0234375
v 921.4923095703125 41306.015625 -35196.10546875
v -2135.297607421875 30667.41015625 -38229.90625
v 921.0400390625 25583.765625 -40616.0234375
v -1378.4503173828125 36017.80859375 -31906.12890625
v -2135.297607421875 30667.41015625 -38229.90625
v -2553.24267578125 64436.6171875 -17882.568359375
v -368.1898498535156 55915.89453125 -27271.451171875
v -2135.297607421875 30667.41015625 -38229.90625
v 921.4923095703125 41306.015625 -35196.10546875
v 2410.535400390625 31765.419921875 -34928.21484375
v 2439.48388671875 61828.75390625 -21033.9375
v 921.4923095703125 41306.015625 -35196.10546875
v -368.1898498535156 55915.89453125 -27271.451171875
v -2553.24267578125 64436.6171875 -17882.568359375
v -2135.297607421875 30667.41015625 -38229.90625
v -368.1898498535156 55915.89453125 -27271.451171875
v 921.4923095703125 41306.015625 -35196.10546875
v 2439.48388671875 61828.75390625 -21033.9375
v 467.248291015625 63427.9375 -13491.736328125
v 464.7605285644531 52255.59375 -22685.619140625
v -2553.24267578125 64436.6171875 -17882.568359375
v -368.1898498535156 55915.89453125 -27271.451171875
v 2439.48388671875 61828.75390625 -21033.9375
v 927.5986938476563 67905.015625 -16966.23828125
v 927.5986938476563 67905.015625 -16966.23828125
v -2553.24267578125 64436.6171875 -17882.568359375
v -368.1898498535156 55915.89453125 -27271.451171875
v -218.47137451171875 71979.984375 -1921.68359375
v 467.248291015625 63427.9375 -13491.736328125
v -2553.24267578125 64436.6171875 -17882.568359375
v 175.1615753173828 77888.4375 -3870.429931640625
v 927.5986938476563 67905.015625 -16966.23828125
v 2439.48388671875 61828.75390625 -21033.9375
v 175.1615753173828 77888.4375 -3870.429931640625
v -2553.24267578125 64436.6171875 -17882.568359375
v 927.5986938476563 67905.015625 -16966.23828125
v -218.47137451171875 71979.984375 -1921.68359375
v -2553.24267578125 64436.6171875 -17882.568359375
v -2522.371826171875 81608.4453125 11980.7666015625
v 175.1615753173828 77888.4375 -3870.429931640625
v 2439.48388671875 61828.75390625 -21033.9375
v 2056.48046875 80082.421875 12494.859375
v -2522.371826171875 81608.4453125 11980.7666015625
v -2553.24267578125 64436.6171875 -17882.568359375
v 175.1615753173828 77888.4375 -3870.429931640625
v 2056.48046875 80082.421875 12494.859375
v 72.37146759033203 84807.7109375 10904.2353515625
v 175.1615753173828 77888.4375 -3870.429931640625
v 72.37146759033203 84807.7109375 10904.2353515625
v -2522.371826171875 81608.4453125 11980.7666015625
v 175.1615753173828 77888.4375 -3870.429931640625
v -2522.371826171875 81608.4453125 11980.7666015625
v 72.37146759033203 84807.7109375 10904.2353515625
v 2056.48046875 80082.421875 12494.859375
vt 0.7642323970794678 0.289315402507782
vt 0.7655507326126099 0.29068297147750854
vt 0.7667421698570251 0.2913515567779541
vt 0.766334593296051 0.29158467054367065
vt 0.7665967345237732 0.2917538285255432
vt 0.7655507326126099 0.29068297147750854
vt 0.7655507326126099 0.29068297147750854
vt 0.7665967345237732 0.2917538285255432
vt 0.7667421698570251 0.2913515567779541
vt 0.7655507326126099 0.29068297147750854
vt 0.7648135423660278 0.2899078130722046
vt 0.766334593296051 0.29158467054367065
vt 0.7642323970794678 0.289315402507782
vt 0.7667421698570251 0.2913515567779541
vt 0.7639594078063965 0.2889963388442993
vt 0.767545223236084 0.2931544780731201
vt 0.7665967345237732 0.2917538285255432
vt 0.766334593296051 0.29158467054367065
vt 0.7667421698570251 0.2913515567779541
vt 0.7656838297843933 0.29020053148269653
vt 0.7639594078063965 0.2889963388442993
vt 0.7648135423660278 0.2899078130722046
vt 0.7656838297843933 0.29020053148269653
vt 0.766334593296051 0.29158467054367065
vt 0.7667421698570251 0.2913515567779541
vt 0.7665967345237732 0.2917538285255432
vt 0.7683297395706177 0.29388779401779175
vt 0.7656838297843933 0.29020053148269653
vt 0.7667421698570251 0.2913515567779541
vt 0.766334593296051 0.29158467054367065
vt 0.7678329348564148 0.293653666973114
vt 0.766334593296051 0.29158467054367065
vt 0.7667421698570251 0.2913515567779541
vt 0.7678329348564148 0.293653666973114
vt 0.7681359052658081 0.29461050033569336
vt 0.766334593296051 0.29158467054367065
vt 0.7683297395706177 0.29388779401779175
vt 0.7677581906318665 0.2928560972213745
vt 0.7667421698570251 0.2913515567779541
vt 0.7677581906318665 0.2928560972213745
vt 0.7678329348564148 0.293653666973114
vt 0.7667421698570251 0.2913515567779541
vt 0.7683297395706177 0.29388779401779175
vt 0.7687479853630066 0.2946792244911194
vt 0.7677581906318665 0.2928560972213745
vt 0.7687479853630066 0.2946792244911194
vt 0.7678329348564148 0.293653666973114
vt 0.7677581906318665 0.2928560972213745
vt 0.7681359052658081 0.29461050033569336
vt 0.7678329348564148 0.293653666973114
vt 0.7698508501052856 0.2984369993209839
vt 0.7695163488388062 0.29668790102005005
vt 0.7678329348564148 0.293653666973114
vt 0.7687479853630066 0.2946792244911194
vt 0.7683297395706177 0.29388779401779175
vt 0.7700755000114441 0.29768067598342896
vt 0.7687479853630066 0.2946792244911194
vt 0.7695163488388062 0.29668790102005005
vt 0.7698508501052856 0.2984369993209839
vt 0.7678329348564148 0.293653666973114
vt 0.7695163488388062 0.29668790102005005
vt 0.7687479853630066 0.2946792244911194
vt 0.7700755000114441 0.29768067598342896
vt 0.7699713110923767 0.2985420227050781
vt 0.769331157207489 0.29675066471099854
vt 0.7698508501052856 0.2984369993209839
vt 0.7695163488388062 0.29668790102005005
vt 0.7700755000114441 0.29768067598342896
vt 0.7703123688697815 0.2985801696777344
vt 0.7703123688697815 0.2985801696777344
vt 0.7698508501052856 0.2984369993209839
vt 0.7695163488388062 0.29668790102005005
vt 0.7703771591186523 0.3003770112991333
vt 0.7699713110923767 0.2985420227050781
vt 0.7698508501052856 0.2984369993209839
vt 0.7706727981567383 0.30053478479385376
vt 0.7703123688697815 0.2985801696777344
vt 0.7700755000114441 0.29768067598342896
vt 0.7706727981567383 0.30053478479385376
vt 0.7698508501052856 0.2984369993209839
vt 0.7703123688697815 0.2985801696777344
vt 0.7703771591186523 0.3003770112991333
vt 0.7698508501052856 0.2984369993209839
vt 0.770517885684967 0.3024449944496155
vt 0.7706727981567383 0.30053478479385376
vt 0.7700755000114441 0.29768067598342896
vt 0.770859956741333 0.30224788188934326
vt 0.770517885684967 0.3024449944496155
vt 0.7698508501052856 0.2984369993209839
vt 0.7706727981567383 0.30053478479385376
vt 0.770859956741333 0.30224788188934326
vt 0.7709795236587524 0.30251920223236084
vt 0.7706727981567383 0.30053478479385376
vt 0.7709795236587524 0.30251920223236084
vt 0.770517885684967 0.3024449944496155
vt 0.7706727981567383 0.30053478479385376
vt 0.770517885684967 0.3024449944496155
vt 0.7709795236587524 0.30251920223236084
vt 0.770859956741333 0.30224788188934326
vn 0.38471996784210205 0.1551234871149063 0.9099050760269165
vn 0.40282514691352844 0.13516230881214142 0.9052420258522034
vn 0.7665228843688965 0.4233110547065735 0.48296013474464417
vn -0.9164736866950989 -0.05398289114236832 0.39643633365631104
vn -0.6298547387123108 0.06661893427371979 0.7738506197929382
vn -0.9107608199119568 -0.06057234853506088 0.40846747159957886
vn 0.8565449714660645 -0.07913625985383987 0.5099685788154602
vn 0.858177125453949 -0.08074991405010223 0.506962776184082
vn 0.9938293099403381 -0.059995926916599274 -0.09329335391521454
vn -0.7782055139541626 0.19427356123924255 0.5972052216529846
vn -0.9859132766723633 -0.11445758491754532 0.12196128070354462
vn -0.977972149848938 0.1784878671169281 0.108225017786026
vn 0.9963765144348145 0.04101583734154701 -0.07450957596302032
vn 0.9984972476959229 -0.00560375303030014 -0.05451563000679016
vn 0.8054255843162537 -0.31596839427948 -0.5014516115188599
vn -0.5697571635246277 -0.08342105895280838 0.8175681829452515
vn -0.5879895687103271 0.02391679212450981 0.8085148930549622
vn -0.905741274356842 0.009929642081260681 0.42371466755867004
vn 0.9669929146766663 0.22182679176330566 -0.12536969780921936
vn 0.8654090166091919 -0.2693781852722168 -0.42249566316604614
vn 0.8616139888763428 -0.21946501731872559 -0.4576641321182251
vn -0.6966902017593384 -0.29634779691696167 -0.6532999277114868
vn -0.2817050516605377 -0.05178983509540558 -0.9581024050712585
vn -0.6726905107498169 0.11890613287687302 -0.7303074598312378
vn 0.9963080883026123 0.0375136137008667 -0.07722097635269165
vn 0.8569793105125427 -0.10651226341724396 0.5042240023612976
vn 0.9788671731948853 0.19828647375106812 0.05001667141914368
vn -0.11961723864078522 -0.2908272445201874 -0.9492687582969666
vn -0.044939324259757996 0.09398747980594635 -0.9945586323738098
vn -0.5713469386100769 -0.052475541830062866 -0.8190293312072754
vn -0.5432301759719849 0.30968043208122253 -0.780383825302124
vn -0.605807363986969 -0.04569808021187782 -0.7942978143692017
vn -0.08959032595157623 0.08249279856681824 -0.9925565123558044
vn -0.9662846326828003 -0.012099463492631912 -0.2571921944618225
vn -0.937466025352478 -0.05618969351053238 0.3435119092464447
vn -0.9441421627998352 -0.14138290286064148 0.29766884446144104
vn 0.9623086452484131 0.2647269070148468 -0.06230364739894867
vn 0.8086008429527283 0.045753203332424164 -0.5865760445594788
vn 0.8037840127944946 0.056912776082754135 -0.5921926498413086
vn -0.29730406403541565 0.052659694105386734 -0.9533295035362244
vn -0.7461156249046326 0.18686175346374512 -0.6390570402145386
vn -0.38757508993148804 -0.18496130406856537 -0.9030916690826416
vn 0.9880329370498657 -0.08218447864055634 -0.13052520155906677
vn 0.7834556698799133 0.28740420937538147 -0.5509955883026123
vn 0.7776122689247131 0.17421892285346985 -0.6041250228881836
vn 0.013757959008216858 0.512854814529419 -0.8583651185035706
vn -0.42637431621551514 0.1469579041004181 -0.8925291895866394
vn 0.021782562136650085 0.12988890707492828 -0.9912892580032349
vn -0.8580746054649353 -0.18100494146347046 0.48056769371032715
vn -0.9919412732124329 -0.07230085134506226 -0.1040448397397995
vn -0.9748879075050354 0.18603801727294922 0.12240718305110931
vn -0.6511770486831665 0.5228868722915649 -0.5500526428222656
vn -0.7000143527984619 0.14297491312026978 -0.6996698975563049
vn -0.2693502902984619 0.4815627932548523 -0.8339950442314148
vn 0.9977391362190247 -0.025835474953055382 -0.062042102217674255
vn 0.9990638494491577 0.016656704246997833 -0.03992536664009094
vn 0.799858808517456 0.2812211215496063 -0.53022700548172
vn -0.6922221779823303 0.24371595680713654 -0.6792871356010437
vn -0.9438197612762451 0.30932554602622986 -0.11628447473049164
vn -0.7664194107055664 0.06835900247097015 -0.6386926770210266
vn 0.3679598569869995 0.43641287088394165 -0.8210659623146057
vn 0.45676878094673157 0.26760759949684143 -0.8483799695968628
vn 0.7567819952964783 0.4775301218032837 -0.4463699758052826
vn -0.6276934742927551 -0.5404151678085327 0.5603144764900208
vn -0.6305760741233826 -0.49398767948150635 0.5986233353614807
vn -0.8091040849685669 -0.11824687570333481 0.5756458044052124
vn 0.18449965119361877 0.4557698965072632 -0.8707662224769592
vn 0.6064677238464355 0.5749611854553223 -0.5491964221000671
vn 0.4951004385948181 0.7084726095199585 -0.5029336214065552
vn -0.20260772109031677 0.7808802127838135 -0.5909112095832825
vn -0.682404100894928 0.49018773436546326 -0.5422549247741699
vn -0.2705214023590088 0.468759149312973 -0.8408823013305664
vn -0.5422585606575012 -0.6789097189903259 0.4950123727321625
vn -0.5710908770561218 -0.5979105830192566 0.5624573230743408
vn -0.8968634009361267 -0.34927257895469666 0.27137571573257446
vn 0.749690592288971 0.6052853465080261 -0.2675701081752777
vn 0.7501219511032104 0.6105985641479492 -0.2539418339729309
vn 0.8091216087341309 0.22813716530799866 -0.5415494441986084
vn -0.6381399035453796 0.7201108932495117 -0.27242937684059143
vn -0.7235936522483826 0.4476008117198944 -0.5254196524620056
vn -0.2526446580886841 0.7323883175849915 -0.6322799921035767
vn -0.35354840755462646 -0.745576798915863 0.5649060606956482
vn -0.7971487045288086 -0.5799262523651123 0.16804645955562592
vn -0.19459839165210724 -0.3171519339084625 0.928195059299469
vn 0.8051741719245911 0.5629668235778809 -0.18644873797893524
vn 0.9974120855331421 0.0023343712091445923 -0.07185856997966766
vn 0.7975811958312988 0.19814622402191162 0.5697388648986816
vn -0.7936332821846008 0.3572993874549866 0.4924260079860687
vn -0.9675734043121338 0.14278100430965424 -0.20836347341537476
vn -0.6676154136657715 0.6891399621963501 -0.2817370891571045
vn 0.7459397912025452 -0.012797504663467407 0.6658903956413269
vn 0.5950170159339905 0.7161468267440796 0.36481279134750366
vn 0.9065847396850586 0.3813226521015167 -0.18082357943058014
vn -0.4539982080459595 0.8377151489257813 0.30351096391677856
vn -0.7828312516212463 0.1924263834953308 0.5917324423789978
vn -0.7487267851829529 0.5937020778656006 -0.29483258724212646
vn -0.7670896053314209 0.010559916496276855 0.6414530277252197
vn 0.09137511253356934 0.9534797072410583 0.28727537393569946
vn 0.5895876288414001 -0.2919519543647766 0.7530940175056458
f 3/3/3 2/2/2 1/1/1
f 6/6/6 5/5/5 4/4/4
f 9/9/9 8/8/8 7/7/7
f 12/12/12 11/11/11 10/10/10
f 15/15/15 14/14/14 13/13/13
f 18/18/18 17/17/17 16/16/16
f 21/21/21 20/20/20 19/19/19
f 24/24/24 23/23/23 22/22/22
f 27/27/27 26/26/26 25/25/25
f 30/30/30 29/29/29 28/28/28
f 33/33/33 32/32/32 31/31/31
f 36/36/36 35/35/35 34/34/34
f 39/39/39 38/38/38 37/37/37
f 42/42/42 41/41/41 40/40/40
f 45/45/45 44/44/44 43/43/43
f 48/48/48 47/47/47 46/46/46
f 51/51/51 50/50/50 49/49/49
f 54/54/54 53/53/53 52/52/52
f 57/57/57 56/56/56 55/55/55
f 60/60/60 59/59/59 58/58/58
f 63/63/63 62/62/62 61/61/61
f 66/66/66 65/65/65 64/64/64
f 69/69/69 68/68/68 67/67/67
f 72/72/72 71/71/71 70/70/70
f 75/75/75 74/74/74 73/73/73
f 78/78/78 77/77/77 76/76/76
f 81/81/81 80/80/80 79/79/79
f 84/84/84 83/83/83 82/82/82
f 87/87/87 86/86/86 85/85/85
f 90/90/90 89/89/89 88/88/88
f 93/93/93 92/92/92 91/91/91
f 96/96/96 95/95/95 94/94/94
f 99/99/99 98/98/98 97/97/97
