# VPXTOOL table OBJ file
# VPXTOOL OBJ file
# numVerts: 125 numFaces: 138
o LM_L_LW8_UnderPF
v -9.655649185180664 194.6649627685547 -12.153261184692383
v -20.27361297607422 196.7769317626953 -12.153261184692383
v -9.655649185180664 194.6649627685547 -5.324187755584717
v -20.27361297607422 196.7769317626953 -12.153261184692383
v -30.891605377197266 194.6649627685547 -12.153261184692383
v -20.27361297607422 196.7769317626953 -5.324187755584717
v -20.27361297607422 196.7769317626953 -12.153261184692383
v -20.27361297607422 196.7769317626953 -5.324187755584717
v -9.655649185180664 194.6649627685547 -5.324187755584717
v -0.6541602611541748 188.6502685546875 -12.153261184692383
v -9.655649185180664 194.6649627685547 -12.153261184692383
v -0.6541602611541748 188.6502685546875 -5.324187755584717
v -9.655649185180664 194.6649627685547 -12.153261184692383
v -9.655649185180664 194.6649627685547 -5.324187755584717
v -0.6541602611541748 188.6502685546875 -5.324187755584717
v -30.891605377197266 194.6649627685547 -12.153261184692383
v -30.891605377197266 194.6649627685547 -5.324187755584717
v -20.27361297607422 196.7769317626953 -5.324187755584717
v -0.6541602611541748 188.6502685546875 -5.324187755584717
v -9.655649185180664 194.6649627685547 -5.324187755584717
v -20.27361297607422 196.7769317626953 -5.324187755584717
v -30.891605377197266 194.6649627685547 -12.153261184692383
v -39.89309310913086 188.6502685546875 -12.153261184692383
v -30.891605377197266 194.6649627685547 -5.324187755584717
v -0.6541602611541748 188.6502685546875 -12.153261184692383
v -0.6541602611541748 188.6502685546875 -5.324187755584717
v 5.360414981842041 179.64889526367188 -5.324187755584717
v 5.360414981842041 179.64889526367188 -12.153261184692383
v -0.6541602611541748 188.6502685546875 -12.153261184692383
v 5.360414981842041 179.64889526367188 -5.324187755584717
v -20.27361297607422 196.7769317626953 -5.324187755584717
v -30.891605377197266 194.6649627685547 -5.324187755584717
v -39.89309310913086 188.6502685546875 -5.324187755584717
v -39.89309310913086 188.6502685546875 -12.153261184692383
v -39.89309310913086 188.6502685546875 -5.324187755584717
v -30.891605377197266 194.6649627685547 -5.324187755584717
v -39.89309310913086 188.6502685546875 -12.153261184692383
v -45.90766906738281 179.64889526367188 -12.153261184692383
v -39.89309310913086 188.6502685546875 -5.324187755584717
v 7.47247314453125 169.03082275390625 -5.324187755584717
v 5.360414981842041 179.64889526367188 -5.324187755584717
v -0.6541602611541748 188.6502685546875 -5.324187755584717
v 5.360414981842041 179.64889526367188 -12.153261184692383
v 5.360414981842041 179.64889526367188 -5.324187755584717
v 7.47247314453125 169.03082275390625 -5.324187755584717
v 7.47247314453125 169.03082275390625 -12.153261184692383
v 5.360414981842041 179.64889526367188 -12.153261184692383
v 7.47247314453125 169.03082275390625 -5.324187755584717
v -45.90766906738281 179.64889526367188 -12.153261184692383
v -45.90766906738281 179.64889526367188 -5.324187755584717
v -39.89309310913086 188.6502685546875 -5.324187755584717
v -20.27361297607422 141.28482055664063 -5.324187755584717
v -45.90766906738281 179.64889526367188 -12.153261184692383
v -48.01972579956055 169.03082275390625 -12.153261184692383
v -45.90766906738281 179.64889526367188 -5.324187755584717
v -20.27361297607422 141.28482055664063 -5.324187755584717
v -20.27361297607422 196.7769317626953 -5.324187755584717
v -39.89309310913086 188.6502685546875 -5.324187755584717
v -39.89309310913086 188.6502685546875 -5.324187755584717
v -45.90766906738281 179.64889526367188 -5.324187755584717
v -48.01972579956055 169.03082275390625 -5.324187755584717
v 7.47247314453125 169.03082275390625 -12.153261184692383
v 7.47247314453125 169.03082275390625 -5.324187755584717
v 5.360414981842041 158.41285705566406 -5.324187755584717
v 5.360414981842041 158.41285705566406 -12.153261184692383
v 7.47247314453125 169.03082275390625 -12.153261184692383
v 5.360414981842041 158.41285705566406 -5.324187755584717
v -48.01972579956055 169.03082275390625 -12.153261184692383
v -48.01972579956055 169.03082275390625 -5.324187755584717
v -45.90766906738281 179.64889526367188 -5.324187755584717
v 7.47247314453125 169.03082275390625 -5.324187755584717
v -48.01972579956055 169.03082275390625 -12.153261184692383
v -45.90766906738281 158.41285705566406 -12.153261184692383
v -48.01972579956055 169.03082275390625 -5.324187755584717
v -39.89309310913086 188.6502685546875 -5.324187755584717
v -48.01972579956055 169.03082275390625 -5.324187755584717
v 5.360414981842041 158.41285705566406 -12.153261184692383
v 5.360414981842041 158.41285705566406 -5.324187755584717
v -0.6541602611541748 149.41136169433594 -5.324187755584717
v -0.6541602611541748 149.41136169433594 -12.153261184692383
v 5.360414981842041 158.41285705566406 -12.153261184692383
v -0.6541602611541748 149.41136169433594 -5.324187755584717
v 5.360414981842041 158.41285705566406 -5.324187755584717
v -45.90766906738281 158.41285705566406 -12.153261184692383
v -45.90766906738281 158.41285705566406 -5.324187755584717
v -48.01972579956055 169.03082275390625 -5.324187755584717
v -45.90766906738281 158.41285705566406 -12.153261184692383
v -39.89309310913086 149.41136169433594 -12.153261184692383
v -45.90766906738281 158.41285705566406 -5.324187755584717
v -0.6541602611541748 149.41136169433594 -12.153261184692383
v -0.6541602611541748 149.41136169433594 -5.324187755584717
v -9.655649185180664 143.39678955078125 -5.324187755584717
v -9.655649185180664 143.39678955078125 -12.153261184692383
v -45.90766906738281 158.41285705566406 -5.324187755584717
v -20.27361297607422 141.28482055664063 -5.324187755584717
v -0.6541602611541748 149.41136169433594 -5.324187755584717
v 5.360414981842041 158.41285705566406 -5.324187755584717
v -39.89309310913086 149.41136169433594 -12.153261184692383
v -39.89309310913086 149.41136169433594 -5.324187755584717
v -45.90766906738281 158.41285705566406 -5.324187755584717
v -39.89309310913086 149.41136169433594 -12.153261184692383
v -30.891605377197266 143.39678955078125 -12.153261184692383
v -39.89309310913086 149.41136169433594 -5.324187755584717
v -20.27361297607422 141.28482055664063 -12.153261184692383
v -9.655649185180664 143.39678955078125 -12.153261184692383
v -20.27361297607422 141.28482055664063 -5.324187755584717
v -20.27361297607422 141.28482055664063 -5.324187755584717
v -45.90766906738281 158.41285705566406 -5.324187755584717
v -39.89309310913086 149.41136169433594 -5.324187755584717
v -20.27361297607422 141.28482055664063 -5.324187755584717
v -9.655649185180664 143.39678955078125 -5.324187755584717
v -0.6541602611541748 149.41136169433594 -5.324187755584717
v -9.655649185180664 143.39678955078125 -12.153261184692383
v -9.655649185180664 143.39678955078125 -5.324187755584717
v -20.27361297607422 141.28482055664063 -5.324187755584717
v -30.891605377197266 143.39678955078125 -12.153261184692383
v -20.27361297607422 141.28482055664063 -12.153261184692383
v -30.891605377197266 143.39678955078125 -5.324187755584717
v -30.891605377197266 143.39678955078125 -5.324187755584717
v -20.27361297607422 141.28482055664063 -12.153261184692383
v -20.27361297607422 141.28482055664063 -5.324187755584717
v -30.891605377197266 143.39678955078125 -5.324187755584717
v -39.89309310913086 149.41136169433594 -5.324187755584717
v -30.891605377197266 143.39678955078125 -5.324187755584717
v -20.27361297607422 141.28482055664063 -5.324187755584717
vt 0.1703786849975586 0.7214651107788086
vt 0.17107108235359192 0.7243450880050659
vt 0.17159228026866913 0.7214499711990356
vt 0.17107108235359192 0.7243450880050659
vt 0.1703786849975586 0.7272176742553711
vt 0.17228376865386963 0.7243245244026184
vt 0.17107108235359192 0.7243450880050659
vt 0.17228376865386963 0.7243245244026184
vt 0.17159228026866913 0.7214499711990356
vt 0.16840945184230804 0.7190213203430176
vt 0.1703786849975586 0.7214651107788086
vt 0.16962556540966034 0.7190107703208923
vt 0.1703786849975586 0.7214651107788086
vt 0.17159228026866913 0.7214499711990356
vt 0.16962556540966034 0.7190107703208923
vt 0.1703786849975586 0.7272176742553711
vt 0.17159228026866913 0.7271918058395386
vt 0.17228376865386963 0.7243245244026184
vt 0.16962556540966034 0.7190107703208923
vt 0.17159228026866913 0.7214499711990356
vt 0.17228376865386963 0.7243245244026184
vt 0.1703786849975586 0.7272176742553711
vt 0.16840945184230804 0.7296406030654907
vt 0.17159228026866913 0.7271918058395386
vt 0.16840945184230804 0.7190213203430176
vt 0.16962556540966034 0.7190107703208923
vt 0.1666891723871231 0.7173804044723511
vt 0.16546928882598877 0.7173879146575928
vt 0.16840945184230804 0.7190213203430176
vt 0.1666891723871231 0.7173804044723511
vt 0.17228376865386963 0.7243245244026184
vt 0.17159228026866913 0.7271918058395386
vt 0.16962556540966034 0.7296101450920105
vt 0.16840945184230804 0.7296406030654907
vt 0.16962556540966034 0.7296101450920105
vt 0.17159228026866913 0.7271918058395386
vt 0.16840945184230804 0.7296406030654907
vt 0.16546928882598877 0.731242835521698
vt 0.16962556540966034 0.7296101450920105
vt 0.16323617100715637 0.7168049216270447
vt 0.1666891723871231 0.7173804044723511
vt 0.16962556540966034 0.7190107703208923
vt 0.16546928882598877 0.7173879146575928
vt 0.1666891723871231 0.7173804044723511
vt 0.16323617100715637 0.7168049216270447
vt 0.16201190650463104 0.7168112993240356
vt 0.16546928882598877 0.7173879146575928
vt 0.16323617100715637 0.7168049216270447
vt 0.16546928882598877 0.731242835521698
vt 0.1666891723871231 0.731209397315979
vt 0.16962556540966034 0.7296101450920105
vt 0.15426750481128693 0.724229097366333
vt 0.16546928882598877 0.731242835521698
vt 0.16201190650463104 0.7317826747894287
vt 0.1666891723871231 0.731209397315979
vt 0.15426750481128693 0.724229097366333
vt 0.17228376865386963 0.7243245244026184
vt 0.16962556540966034 0.7296101450920105
vt 0.16962556540966034 0.7296101450920105
vt 0.1666891723871231 0.731209397315979
vt 0.16323617100715637 0.7317482829093933
vt 0.16201190650463104 0.7168112993240356
vt 0.16323617100715637 0.7168049216270447
vt 0.15979476273059845 0.7173669934272766
vt 0.15856610238552094 0.7173744440078735
vt 0.16201190650463104 0.7168112993240356
vt 0.15979476273059845 0.7173669934272766
vt 0.16201190650463104 0.7317826747894287
vt 0.16323617100715637 0.7317482829093933
vt 0.1666891723871231 0.731209397315979
vt 0.16323617100715637 0.7168049216270447
vt 0.16201190650463104 0.7317826747894287
vt 0.15856610238552094 0.7311829328536987
vt 0.16323617100715637 0.7317482829093933
vt 0.16962556540966034 0.7296101450920105
vt 0.16323617100715637 0.7317482829093933
vt 0.15856610238552094 0.7173744440078735
vt 0.15979476273059845 0.7173669934272766
vt 0.1568862348794937 0.7189760208129883
vt 0.1556539088487625 0.718986451625824
vt 0.15856610238552094 0.7173744440078735
vt 0.1568862348794937 0.7189760208129883
vt 0.15979476273059845 0.7173669934272766
vt 0.15856610238552094 0.7311829328536987
vt 0.15979476273059845 0.7311497926712036
vt 0.16323617100715637 0.7317482829093933
vt 0.15856610238552094 0.7311829328536987
vt 0.1556539088487625 0.7295399904251099
vt 0.15979476273059845 0.7311497926712036
vt 0.1556539088487625 0.718986451625824
vt 0.1568862348794937 0.7189760208129883
vt 0.1549474596977234 0.7213848829269409
vt 0.15371264517307281 0.7213998436927795
vt 0.15979476273059845 0.7311497926712036
vt 0.15426750481128693 0.724229097366333
vt 0.1568862348794937 0.7189760208129883
vt 0.15979476273059845 0.7173669934272766
vt 0.1556539088487625 0.7295399904251099
vt 0.1568862348794937 0.7295099496841431
vt 0.15979476273059845 0.7311497926712036
vt 0.1556539088487625 0.7295399904251099
vt 0.15371264517307281 0.727105975151062
vt 0.1568862348794937 0.7295099496841431
vt 0.1530318409204483 0.7242492437362671
vt 0.15371264517307281 0.7213998436927795
vt 0.15426750481128693 0.724229097366333
vt 0.15426750481128693 0.724229097366333
vt 0.15979476273059845 0.7311497926712036
vt 0.1568862348794937 0.7295099496841431
vt 0.15426750481128693 0.724229097366333
vt 0.1549474596977234 0.7213848829269409
vt 0.1568862348794937 0.7189760208129883
vt 0.15371264517307281 0.7213998436927795
vt 0.1549474596977234 0.7213848829269409
vt 0.15426750481128693 0.724229097366333
vt 0.15371264517307281 0.727105975151062
vt 0.1530318409204483 0.7242492437362671
vt 0.1549474596977234 0.7270804643630981
vt 0.1549474596977234 0.7270804643630981
vt 0.1530318409204483 0.7242492437362671
vt 0.15426750481128693 0.724229097366333
vt 0.1549474596977234 0.7270804643630981
vt 0.1568862348794937 0.7295099496841431
vt 0.1549474596977234 0.7270804643630981
vt 0.15426750481128693 0.724229097366333
vn -0.19508418440818787 -0.9807865023612976 -0
vn -0.19508418440818787 -0.9807865023612976 -0
vn -0.19508418440818787 -0.9807865023612976 -0
vn 0.19508367776870728 -0.9807866215705872 -0
vn 0.19508367776870728 -0.9807866215705872 -0
vn 0.19508367776870728 -0.9807866215705872 -0
vn -0.19508424401283264 -0.9807865023612976 -0
vn -0.19508424401283264 -0.9807865023612976 -0
vn -0.19508424401283264 -0.9807865023612976 -0
vn -0.5555756688117981 -0.8314660787582397 -0
vn -0.5555756688117981 -0.8314660787582397 -0
vn -0.5555756688117981 -0.8314660787582397 -0
vn -0.5555755496025085 -0.8314661383628845 -0
vn -0.5555755496025085 -0.8314661383628845 -0
vn -0.5555755496025085 -0.8314661383628845 -0
vn 0.1950838267803192 -0.9807866215705872 -0
vn 0.1950838267803192 -0.9807866215705872 -0
vn 0.1950838267803192 -0.9807866215705872 -0
vn 0 -0 -1
vn 0 -0 -1
vn 0 -0 -1
vn 0.5555756688117981 -0.8314660787582397 -0
vn 0.5555756688117981 -0.8314660787582397 -0
vn 0.5555756688117981 -0.8314660787582397 -0
vn -0.8314676284790039 -0.5555732250213623 -0
vn -0.8314676284790039 -0.5555732250213623 -0
vn -0.8314676284790039 -0.5555732250213623 -0
vn -0.8314675688743591 -0.5555732250213623 -0
vn -0.8314675688743591 -0.5555732250213623 -0
vn -0.8314675688743591 -0.5555732250213623 -0
vn -0.00000003480110422060534 -0 -1
vn -0.00000003480110422060534 -0 -1
vn -0.00000003480110422060534 -0 -1
vn 0.5555755496025085 -0.8314661383628845 -0
vn 0.5555755496025085 -0.8314661383628845 -0
vn 0.5555755496025085 -0.8314661383628845 -0
vn 0.8314675688743591 -0.5555732250213623 -0
vn 0.8314675688743591 -0.5555732250213623 -0
vn 0.8314675688743591 -0.5555732250213623 -0
vn 0.0000002784162802527135 -0 -1
vn 0.0000002784162802527135 -0 -1
vn 0.0000002784162802527135 -0 -1
vn -0.9807853698730469 -0.19508963823318481 -0
vn -0.9807853698730469 -0.19508963823318481 -0
vn -0.9807853698730469 -0.19508963823318481 -0
vn -0.9807853698730469 -0.19508951902389526 -0
vn -0.9807853698730469 -0.19508951902389526 -0
vn -0.9807853698730469 -0.19508951902389526 -0
vn 0.8314676284790039 -0.5555732250213623 -0
vn 0.8314676284790039 -0.5555732250213623 -0
vn 0.8314676284790039 -0.5555732250213623 -0
vn 0 -0 -1
vn 0.9807853698730469 -0.1950894296169281 -0
vn 0.9807853698730469 -0.1950894296169281 -0
vn 0.9807853698730469 -0.1950894296169281 -0
vn 0 -0 -0.9999999403953552
vn 0 -0 -0.9999999403953552
vn 0 -0 -0.9999999403953552
vn -0.00000013920814012635674 -0 -1
vn -0.00000013920814012635674 -0 -1
vn -0.00000013920814012635674 -0 -1
vn -0.980785071849823 0.19509150087833405 -0
vn -0.980785071849823 0.19509150087833405 -0
vn -0.980785071849823 0.19509150087833405 -0
vn -0.980785071849823 0.1950916200876236 -0
vn -0.980785071849823 0.1950916200876236 -0
vn -0.980785071849823 0.1950916200876236 -0
vn 0.9807853102684021 -0.1950901299715042 -0
vn 0.9807853102684021 -0.1950901299715042 -0
vn 0.9807853102684021 -0.1950901299715042 -0
vn 0 -0 -1
vn 0.9807848930358887 0.1950920969247818 -0
vn 0.9807848930358887 0.1950920969247818 -0
vn 0.9807848930358887 0.1950920969247818 -0
vn 0 -0 -1
vn 0 -0 -1
vn -0.8314707279205322 0.555568516254425 -0
vn -0.8314707279205322 0.555568516254425 -0
vn -0.8314707279205322 0.555568516254425 -0
vn -0.8314708471298218 0.5555684566497803 -0
vn -0.8314708471298218 0.5555684566497803 -0
vn -0.8314708471298218 0.5555684566497803 -0
vn 0 -0 -1
vn 0.980785071849823 0.19509142637252808 -0
vn 0.980785071849823 0.19509142637252808 -0
vn 0.980785071849823 0.19509142637252808 -0
vn 0.8314708471298218 0.5555684566497803 -0
vn 0.8314708471298218 0.5555684566497803 -0
vn 0.8314708471298218 0.5555684566497803 -0
vn -0.555568516254425 0.8314707279205322 -0
vn -0.555568516254425 0.8314707279205322 -0
vn -0.555568516254425 0.8314707279205322 -0
vn -0.555568516254425 0.8314707279205322 -0
vn 0 -0 -1
vn 0.000000048883730840998396 -0 -1
vn 0.000000048883730840998396 -0 -1
vn 0.000000048883730840998396 -0 -1
vn 0.8314707279205322 0.555568516254425 -0
vn 0.8314707279205322 0.555568516254425 -0
vn 0.8314707279205322 0.555568516254425 -0
vn 0.555568516254425 0.8314708471298218 -0
vn 0.555568516254425 0.8314708471298218 -0
vn 0.555568516254425 0.8314708471298218 -0
vn -0.19508421421051025 0.9807865023612976 -0
vn -0.19508421421051025 0.9807865023612976 -0
vn -0.19508421421051025 0.9807865023612976 -0
vn -0.00000009776746168199679 -0 -1
vn -0.00000009776746168199679 -0 -1
vn -0.00000009776746168199679 -0 -1
vn -0.00000010440657405297316 -0 -1
vn -0.00000010440657405297316 -0 -1
vn -0.00000010440657405297316 -0 -1
vn -0.19508419930934906 0.9807865023612976 -0
vn -0.19508419930934906 0.9807865023612976 -0
vn -0.19508419930934906 0.9807865023612976 -0
vn 0.19508381187915802 0.9807866215705872 -0
vn 0.19508381187915802 0.9807866215705872 -0
vn 0.19508381187915802 0.9807866215705872 -0
vn 0.555568516254425 0.8314708471298218 -0
vn 0.19508369266986847 0.9807866215705872 -0
vn 0.19508369266986847 0.9807866215705872 -0
vn 0.19508369266986847 0.9807866215705872 -0
vn 0.00000013920814012635674 -0 -1
vn 0.00000013920814012635674 -0 -1
vn 0.00000013920814012635674 -0 -1
f 3/3/3 2/2/2 1/1/1
f 6/6/6 5/5/5 4/4/4
f 9/9/9 8/8/8 7/7/7
f 12/12/12 11/11/11 10/10/10
f 15/15/15 14/14/14 13/13/13
f 18/18/18 17/17/17 16/16/16
f 21/21/21 20/20/20 19/19/19
f 24/24/24 23/23/23 22/22/22
f 27/27/27 26/26/26 25/25/25
f 30/30/30 29/29/29 28/28/28
f 33/33/33 32/32/32 31/31/31
f 36/36/36 35/35/35 34/34/34
f 39/39/39 38/38/38 37/37/37
f 42/42/42 41/41/41 40/40/40
f 45/45/45 44/44/44 43/43/43
f 48/48/48 47/47/47 46/46/46
f 51/51/51 50/50/50 49/49/49
f 21/21/21 19/19/19 52/52/52
f 55/55/55 54/54/54 53/53/53
f 58/58/58 57/57/57 56/56/56
f 61/61/61 60/60/60 59/59/59
f 64/64/64 63/63/63 62/62/62
f 67/67/67 66/66/66 65/65/65
f 70/70/70 69/69/69 68/68/68
f 19/19/19 71/71/71 52/52/52
f 74/74/74 73/73/73 72/72/72
f 76/76/76 75/75/75 52/52/52
f 79/79/79 78/78/78 77/77/77
f 82/82/82 81/81/81 80/80/80
f 71/71/71 83/83/83 52/52/52
f 86/86/86 85/85/85 84/84/84
f 89/89/89 88/88/88 87/87/87
f 92/92/92 91/91/91 90/90/90
f 92/92/92 90/90/90 93/93/93
f 94/94/94 76/76/76 52/52/52
f 97/97/97 96/96/96 95/95/95
f 100/100/100 99/99/99 98/98/98
f 103/103/103 102/102/102 101/101/101
f 106/106/106 105/105/105 104/104/104
f 109/109/109 108/108/108 107/107/107
f 112/112/112 111/111/111 110/110/110
f 115/115/115 114/114/114 113/113/113
f 118/118/118 117/117/117 116/116/116
f 103/103/103 119/119/119 102/102/102
f 122/122/122 121/121/121 120/120/120
f 125/125/125 124/124/124 123/123/123
