# VPXTOOL table OBJ file
# VPXTOOL OBJ file
# numVerts: 57 numFaces: 126
o LM_L_LH2_Playfield
v -244.15174865722656 563.1470947265625 23.52941131591797
v -233.93276977539063 534.5339965820313 23.52941131591797
v -233.93276977539063 534.5339965820313 -0
v -233.93276977539063 534.5339965820313 -0
v -233.93276977539063 534.5339965820313 23.52941131591797
v -233.8252410888672 532.7052612304688 -0
v -246.41070556640625 566.3740844726563 23.52941131591797
v -244.15174865722656 563.1470947265625 23.52941131591797
v -244.15174865722656 563.1470947265625 -0
v -244.15174865722656 563.1470947265625 -0
v -244.15174865722656 563.1470947265625 23.52941131591797
v -233.93276977539063 534.5339965820313 -0
v -248.99212646484375 568.3103637695313 23.52941131591797
v -246.41070556640625 566.3740844726563 23.52941131591797
v -246.41070556640625 566.3740844726563 -0
v -251.68153381347656 569.3861694335938 23.52941131591797
v -248.99212646484375 568.3103637695313 23.52941131591797
v -248.99212646484375 568.3103637695313 -0
v -246.41070556640625 566.3740844726563 -0
v -246.41070556640625 566.3740844726563 23.52941131591797
v -244.15174865722656 563.1470947265625 -0
v -248.99212646484375 568.3103637695313 -0
v -251.68153381347656 569.3861694335938 -0
v -41.22587585449219 534.7922973632813 -0
v -233.93276977539063 534.5339965820313 -0
v -233.8252410888672 532.7052612304688 -0
v -233.93276977539063 534.5339965820313 -0
v -41.22587585449219 534.7922973632813 -0
v -36.2238883972168 548.8837280273438 -0
v -106.2380599975586 639.1170654296875 -0
v 151.48098754882813 535.0505981445313 -0
v -244.15174865722656 563.1470947265625 -0
v -176.25222778320313 729.3502807617188 -0
v -232.36293029785156 746.2383422851563 -0
v -251.68153381347656 569.3861694335938 -0
v -248.99212646484375 568.3103637695313 -0
v -246.41070556640625 566.3740844726563 -0
v -244.15174865722656 563.1470947265625 -0
v -181.36172485351563 743.6567993164063 -0
v -246.41070556640625 566.3740844726563 -0
v -182.49119567871094 745.2703247070313 -0
v 161.48497009277344 563.2334594726563 -0
v 91.47079467773438 653.466796875 -0
v -233.70762634277344 746.7762451171875 -0
v -181.36172485351563 743.6567993164063 -0
v -183.7819061279297 746.2384643554688 -0
v 21.456623077392578 743.7000122070313 -0
v 21.456623077392578 743.7000122070313 -0
v 91.47079467773438 653.466796875 -0
v 92.43888092041016 654.9189453125 -0
v 92.92289733886719 655.6448974609375 -0
v 92.43888092041016 654.9189453125 -0
v 22.42470932006836 745.1521606445313 -0
v -215.73370361328125 924.166259765625 -0
v -48.55752182006836 833.9331665039063 -0
v -118.57166290283203 924.16650390625 -0
v -48.07347869873047 834.6593627929688 -0
vt 0.8336973786354065 0.4594697952270508
vt 0.8258801698684692 0.4561823010444641
vt 0.8233754634857178 0.4566488265991211
vt 0.8233754634857178 0.4566488265991211
vt 0.8258801698684692 0.4561823010444641
vt 0.8228757381439209 0.4565965533256531
vt 0.8345838189125061 0.46016329526901245
vt 0.8336973786354065 0.4594697952270508
vt 0.8312349319458008 0.45996153354644775
vt 0.8312349319458008 0.45996153354644775
vt 0.8336973786354065 0.4594697952270508
vt 0.8233754634857178 0.4566488265991211
vt 0.8351161479949951 0.4609352946281433
vt 0.8345838189125061 0.46016329526901245
vt 0.8321261405944824 0.46066009998321533
vt 0.8354120850563049 0.46172845363616943
vt 0.8351161479949951 0.4609352946281433
vt 0.8326613903045654 0.4614376425743103
vt 0.8321261405944824 0.46066009998321533
vt 0.8345838189125061 0.46016329526901245
vt 0.8312349319458008 0.45996153354644775
vt 0.8326613903045654 0.4614376425743103
vt 0.8329589366912842 0.4622364640235901
vt 0.8234460949897766 0.400703489780426
vt 0.8233754634857178 0.4566488265991211
vt 0.8228757381439209 0.4565965533256531
vt 0.8233754634857178 0.4566488265991211
vt 0.8234460949897766 0.400703489780426
vt 0.8273074626922607 0.39927607774734497
vt 0.8524805307388306 0.420132577419281
vt 0.8235166668891907 0.3447532057762146
vt 0.8312349319458008 0.45996153354644775
vt 0.8784531950950623 0.4416516423225403
vt 0.8834061622619629 0.4587075114250183
vt 0.8329589366912842 0.4622364640235901
vt 0.8326613903045654 0.4614376425743103
vt 0.8321261405944824 0.46066009998321533
vt 0.8312349319458008 0.45996153354644775
vt 0.8826471567153931 0.4433228373527527
vt 0.8321261405944824 0.46066009998321533
vt 0.8831214904785156 0.44367843866348267
vt 0.8312587738037109 0.3416217565536499
vt 0.8565564751625061 0.36162662506103516
vt 0.8835644125938416 0.45911914110183716
vt 0.8826471567153931 0.4433228373527527
vt 0.8834061622619629 0.4440765380859375
vt 0.8826598525047302 0.3822685480117798
vt 0.8826598525047302 0.3822685480117798
vt 0.8565564751625061 0.36162662506103516
vt 0.8569701313972473 0.36133283376693726
vt 0.8571769595146179 0.36118584871292114
vt 0.8569701313972473 0.36133283376693726
vt 0.8830867409706116 0.38197535276412964
vt 0.9374423027038574 0.45580023527145386
vt 0.9096078872680664 0.4035784602165222
vt 0.9374423623085022 0.42558932304382324
vt 0.9098283052444458 0.40343230962753296
vn -0.9417418837547302 -0.33633628487586975 -0
vn -0.9417418837547302 -0.33633628487586975 -0
vn -0.9417418837547302 -0.33633628487586975 -0
vn -0.9982765316963196 -0.05868411436676979 -0
vn -0.9982765316963196 -0.05868411436676979 -0
vn -0.9982765316963196 -0.05868411436676979 -0
vn -0.8192262053489685 -0.5734704732894897 -0
vn -0.8192262053489685 -0.5734704732894897 -0
vn -0.8192262053489685 -0.5734704732894897 -0
vn -0.9417415857315063 -0.33633729815483093 -0
vn -0.9417415857315063 -0.33633729815483093 -0
vn -0.9417415857315063 -0.33633729815483093 -0
vn -0.6000440716743469 -0.7999669909477234 -0
vn -0.6000440716743469 -0.7999669909477234 -0
vn -0.6000440716743469 -0.7999669909477234 -0
vn -0.37140271067619324 -0.9284719228744507 -0
vn -0.37140271067619324 -0.9284719228744507 -0
vn -0.37140271067619324 -0.9284719228744507 -0
vn -0.8192221522331238 -0.573476254940033 -0
vn -0.8192221522331238 -0.573476254940033 -0
vn -0.8192221522331238 -0.573476254940033 -0
vn -0.6000440716743469 -0.7999669909477234 -0
vn -0.37140271067619324 -0.9284719228744507 -0
vn 0 -0 -0.9999999403953552
vn 0 -0 -0.9999999403953552
vn 0 -0 -0.9999999403953552
vn 0 -0 -1
vn 0 -0 -1
vn 0 -0 -1
vn 0 -0 -1
vn 0 -0 -1
vn 0 -0 -1
vn 0 -0 -1
vn 0 -0 -1
vn 0 -0 -1
vn 0 -0 -1
vn 0 -0 -0.9999999403953552
vn 0 -0 -0.9999999403953552
vn 0 -0 -0.9999999403953552
vn 0 -0 -1
vn 0 -0 -1
vn 0 -0 -1
vn 0 -0 -1
vn 0 -0 -1
vn 0 -0 -1
vn 0 -0 -1
vn 0 -0 -1
vn 0 -0 -0.9999999403953552
vn 0 -0 -0.9999999403953552
vn 0 -0 -0.9999999403953552
vn 0 -0 -1
vn 0 -0 -1
vn 0 -0 -1
vn 0 -0 -1
vn 0 -0 -1
vn 0 -0 -1
vn 0 -0 -1
f 3/3/3 2/2/2 1/1/1
f 6/6/6 5/5/5 4/4/4
f 9/9/9 8/8/8 7/7/7
f 12/12/12 11/11/11 10/10/10
f 15/15/15 14/14/14 13/13/13
f 18/18/18 17/17/17 16/16/16
f 21/21/21 20/20/20 19/19/19
f 15/15/15 13/13/13 22/22/22
f 18/18/18 16/16/16 23/23/23
f 26/26/26 25/25/25 24/24/24
f 29/29/29 28/28/28 27/27/27
f 27/27/27 30/30/30 29/29/29
f 31/31/31 28/28/28 29/29/29
f 33/33/33 27/27/27 32/32/32
f 36/36/36 35/35/35 34/34/34
f 39/39/39 38/38/38 37/37/37
f 41/41/41 40/40/40 36/36/36
f 31/31/31 29/29/29 42/42/42
f 27/27/27 33/33/33 30/30/30
f 29/29/29 43/43/43 42/42/42
f 35/35/35 44/44/44 34/34/34
f 33/33/33 32/32/32 45/45/45
f 34/34/34 46/46/46 36/36/36
f 45/45/45 40/40/40 41/41/41
f 41/41/41 36/36/36 46/46/46
f 30/30/30 47/47/47 29/29/29
f 29/29/29 47/47/47 43/43/43
f 30/30/30 33/33/33 47/47/47
f 50/50/50 49/49/49 48/48/48
f 52/52/52 47/47/47 51/51/51
f 47/47/47 53/53/53 51/51/51
f 44/44/44 54/54/54 34/34/34
f 54/54/54 46/46/46 34/34/34
f 33/33/33 55/55/55 47/47/47
f 56/56/56 33/33/33 45/45/45
f 41/41/41 56/56/56 45/45/45
f 46/46/46 56/56/56 41/41/41
f 53/53/53 47/47/47 55/55/55
f 33/33/33 56/56/56 55/55/55
f 55/55/55 57/57/57 53/53/53
f 54/54/54 56/56/56 46/46/46
f 55/55/55 56/56/56 57/57/57
