# VPXTOOL table OBJ file
# VPXTOOL OBJ file
# numVerts: 90 numFaces: 90
o LM_GI_gi06_swRI
v -2571.7880859375 7738.09326171875 -40651.35546875
v 457.52337646484375 9405.802734375 -36906.86328125
v -1764.8460693359375 -5397.10205078125 -36081.76171875
v -1764.8460693359375 -5397.10205078125 -36081.76171875
v -2023.6871337890625 -13566.484375 -37738.15625
v -2571.7880859375 7738.09326171875 -40651.35546875
v 458.8803405761719 23665.244140625 -35122.47265625
v 457.52337646484375 9405.802734375 -36906.86328125
v -2571.7880859375 7738.09326171875 -40651.35546875
v -2023.6871337890625 -13566.484375 -37738.15625
v 915.4990844726563 -5077.9892578125 -40925.38671875
v -2571.7880859375 7738.09326171875 -40651.35546875
v 2021.199462890625 10298.4599609375 -42271.34765625
v 457.52337646484375 9405.802734375 -36906.86328125
v 2410.30908203125 31764.96875 -34928.30859375
v 915.4990844726563 -5077.9892578125 -40925.38671875
v 2021.199462890625 10298.4599609375 -42271.34765625
v -2571.7880859375 7738.09326171875 -40651.35546875
v -2135.41064453125 30667.18359375 -38230.02734375
v -2571.7880859375 7738.09326171875 -40651.35546875
v 2021.199462890625 10298.4599609375 -42271.34765625
v -2135.41064453125 30667.18359375 -38230.02734375
v -1378.4503173828125 36018.375 -31905.890625
v -2571.7880859375 7738.09326171875 -40651.35546875
v 2410.30908203125 31764.96875 -34928.30859375
v 920.8138427734375 25583.541015625 -40616.046875
v 2021.199462890625 10298.4599609375 -42271.34765625
v 920.8138427734375 25583.541015625 -40616.046875
v -2135.41064453125 30667.18359375 -38230.02734375
v 2021.199462890625 10298.4599609375 -42271.34765625
v 2410.30908203125 31764.96875 -34928.30859375
v 921.4923095703125 41306.2421875 -35195.96875
v 920.8138427734375 25583.541015625 -40616.046875
v 921.4923095703125 41306.2421875 -35195.96875
v -2135.41064453125 30667.18359375 -38230.02734375
v 920.8138427734375 25583.541015625 -40616.046875
v -1378.4503173828125 36018.375 -31905.890625
v -2135.41064453125 30667.18359375 -38230.02734375
v -2553.35595703125 64436.390625 -17882.650390625
v -368.416015625 55915.78125 -27271.478515625
v -2135.41064453125 30667.18359375 -38230.02734375
v 921.4923095703125 41306.2421875 -35195.96875
v 2410.30908203125 31764.96875 -34928.30859375
v 2439.370849609375 61828.75390625 -21033.806640625
v 921.4923095703125 41306.2421875 -35195.96875
v -368.416015625 55915.78125 -27271.478515625
v -2553.35595703125 64436.390625 -17882.650390625
v -2135.41064453125 30667.18359375 -38230.02734375
v -368.416015625 55915.78125 -27271.478515625
v 921.4923095703125 41306.2421875 -35195.96875
v 2439.370849609375 61828.75390625 -21033.806640625
v 464.53436279296875 52255.3671875 -22685.568359375
v 466.9090576171875 63427.7109375 -13491.8125
v 2439.370849609375 61828.75390625 -21033.806640625
v 466.9090576171875 63427.7109375 -13491.8125
v 464.53436279296875 52255.3671875 -22685.568359375
v -2553.35595703125 64436.390625 -17882.650390625
v -368.416015625 55915.78125 -27271.478515625
v 2439.370849609375 61828.75390625 -21033.806640625
v 927.3724975585938 67905.015625 -16966.208984375
v 927.3724975585938 67905.015625 -16966.208984375
v -2553.35595703125 64436.390625 -17882.650390625
v -368.416015625 55915.78125 -27271.478515625
v 466.9090576171875 63427.7109375 -13491.8125
v -218.58445739746094 71979.7578125 -1921.59765625
v 2439.370849609375 61828.75390625 -21033.806640625
v -218.58445739746094 71979.7578125 -1921.59765625
v 466.9090576171875 63427.7109375 -13491.8125
v -2553.35595703125 64436.390625 -17882.650390625
v 174.93540954589844 77888.4375 -3870.565185546875
v 927.3724975585938 67905.015625 -16966.208984375
v 2439.370849609375 61828.75390625 -21033.806640625
v 174.93540954589844 77888.4375 -3870.565185546875
v -2553.35595703125 64436.390625 -17882.650390625
v 927.3724975585938 67905.015625 -16966.208984375
v -218.58445739746094 71979.7578125 -1921.59765625
v -2553.35595703125 64436.390625 -17882.650390625
v -2522.2587890625 81608.5546875 11980.7392578125
v 174.93540954589844 77888.4375 -3870.565185546875
v 2439.370849609375 61828.75390625 -21033.806640625
v 2056.367431640625 80082.421875 12494.849609375
v -2522.2587890625 81608.5546875 11980.7392578125
v -2553.35595703125 64436.390625 -17882.650390625
v 174.93540954589844 77888.4375 -3870.565185546875
v 2056.367431640625 80082.421875 12494.849609375
v 72.0322265625 84807.6015625 10904.283203125
v 174.93540954589844 77888.4375 -3870.565185546875
v 72.0322265625 84807.6015625 10904.283203125
v -2522.2587890625 81608.5546875 11980.7392578125
v 174.93540954589844 77888.4375 -3870.565185546875
vt 0.0007110839360393584 0.31357091665267944
vt 0.0011582087026908994 0.31375283002853394
vt 0.0006018714630044997 0.31178611516952515
vt 0.0006018714630044997 0.31178611516952515
vt 0.0005371540901251137 0.3105419874191284
vt 0.0007110839360393584 0.31357091665267944
vt 0.001260720076970756 0.31591129302978516
vt 0.0011582087026908994 0.31375283002853394
vt 0.0007110839360393584 0.31357091665267944
vt 0.0005371540901251137 0.3105419874191284
vt 0.0011489165481179953 0.3114702105522156
vt 0.0007110839360393584 0.31357091665267944
vt 0.001333002233877778 0.3135291337966919
vt 0.0011582087026908994 0.31375283002853394
vt 0.0017084106802940369 0.3171626329421997
vt 0.0011489165481179953 0.3114702105522156
vt 0.001333002233877778 0.3135291337966919
vt 0.0007110839360393584 0.31357091665267944
vt 0.0009889844805002213 0.3168046474456787
vt 0.0007110839360393584 0.31357091665267944
vt 0.001333002233877778 0.3135291337966919
vt 0.0009889844805002213 0.3168046474456787
vt 0.0009989318205043674 0.3178865909576416
vt 0.0007110839360393584 0.31357091665267944
vt 0.0017084106802940369 0.3171626329421997
vt 0.0014362582005560398 0.315848708152771
vt 0.001333002233877778 0.3135291337966919
vt 0.0014362582005560398 0.315848708152771
vt 0.0009889844805002213 0.3168046474456787
vt 0.001333002233877778 0.3135291337966919
vt 0.0017084106802940369 0.3171626329421997
vt 0.0014964188449084759 0.3183998465538025
vt 0.0014362582005560398 0.315848708152771
vt 0.0014964188449084759 0.3183998465538025
vt 0.0009889844805002213 0.3168046474456787
vt 0.0014362582005560398 0.315848708152771
vt 0.0009989318205043674 0.3178865909576416
vt 0.0009889844805002213 0.3168046474456787
vt 0.0009276324999518692 0.3229091763496399
vt 0.0013072999427095056 0.320963978767395
vt 0.0009889844805002213 0.3168046474456787
vt 0.0014964188449084759 0.3183998465538025
vt 0.0017084106802940369 0.3171626329421997
vt 0.0017662483733147383 0.32212090492248535
vt 0.0014964188449084759 0.3183998465538025
vt 0.0013072999427095056 0.320963978767395
vt 0.0009276324999518692 0.3229091763496399
vt 0.0009889844805002213 0.3168046474456787
vt 0.0013072999427095056 0.320963978767395
vt 0.0014964188449084759 0.3183998465538025
vt 0.0017662483733147383 0.32212090492248535
vt 0.0013295771786943078 0.32076573371887207
vt 0.0012884773313999176 0.3229186534881592
vt 0.0017662483733147383 0.32212090492248535
vt 0.0012884773313999176 0.3229186534881592
vt 0.0013295771786943078 0.32076573371887207
vt 0.0009276324999518692 0.3229091763496399
vt 0.0013072999427095056 0.320963978767395
vt 0.0017662483733147383 0.32212090492248535
vt 0.0014587737387046218 0.3232702612876892
vt 0.0014587737387046218 0.3232702612876892
vt 0.0009276324999518692 0.3229091763496399
vt 0.0013072999427095056 0.320963978767395
vt 0.0012884773313999176 0.3229186534881592
vt 0.0011088888859376311 0.32489466667175293
vt 0.0017662483733147383 0.32212090492248535
vt 0.0011088888859376311 0.32489466667175293
vt 0.0012884773313999176 0.3229186534881592
vt 0.0009276324999518692 0.3229091763496399
vt 0.001177954487502575 0.32533979415893555
vt 0.0014587737387046218 0.3232702612876892
vt 0.0017662483733147383 0.32212090492248535
vt 0.001177954487502575 0.32533979415893555
vt 0.0009276324999518692 0.3229091763496399
vt 0.0014587737387046218 0.3232702612876892
vt 0.0011088888859376311 0.32489466667175293
vt 0.0009276324999518692 0.3229091763496399
vt 0.0005440338281914592 0.3269445300102234
vt 0.001177954487502575 0.32533979415893555
vt 0.0017662483733147383 0.32212090492248535
vt 0.001222002785652876 0.326815128326416
vt 0.0005440338281914592 0.3269445300102234
vt 0.0009276324999518692 0.3229091763496399
vt 0.001177954487502575 0.32533979415893555
vt 0.001222002785652876 0.326815128326416
vt 0.0010189159074798226 0.3272891044616699
vt 0.001177954487502575 0.32533979415893555
vt 0.0010189159074798226 0.3272891044616699
vt 0.0005440338281914592 0.3269445300102234
vt 0.001177954487502575 0.32533979415893555
vn -0.9280731081962585 -0.0004262998700141907 0.37239789962768555
vn -0.642784833908081 0.07520531117916107 0.7623462677001953
vn -0.925443172454834 0.0003048749640583992 0.3788864016532898
vn -0.9257265329360962 0.15207335352897644 0.3462716341018677
vn -0.9712618589401245 -0.17300401628017426 -0.16346287727355957
vn -0.9723147749900818 0.15274551510810852 -0.1768411546945572
vn -0.5697625875473022 -0.08342292904853821 0.8175642490386963
vn -0.5879963040351868 0.023916035890579224 0.8085100054740906
vn -0.9057450890541077 0.009920135140419006 0.42370671033859253
vn -0.6966838836669922 -0.2963535189628601 -0.653303861618042
vn -0.28169751167297363 -0.05179525166749954 -0.9581041932106018
vn -0.6726856827735901 0.11890046298503876 -0.7303126454353333
vn 0.9963074922561646 0.03752359002828598 -0.07722330093383789
vn 0.856981635093689 -0.1065099835395813 0.504220187664032
vn 0.9788662195205688 0.19829192757606506 0.05001264810562134
vn -0.11959758400917053 -0.2908293604850769 -0.9492706656455994
vn -0.04492446780204773 0.09399347752332687 -0.9945586919784546
vn -0.5713304877281189 -0.052487388253211975 -0.8190400004386902
vn -0.5432282090187073 0.3096775412559509 -0.7803863286972046
vn -0.6058014631271362 -0.0457085557281971 -0.7943017482757568
vn -0.08958674967288971 0.0824991762638092 -0.9925563335418701
vn -0.9662874341011047 -0.012107037007808685 -0.25718075037002563
vn -0.9374617338180542 -0.0561877116560936 0.34352347254753113
vn -0.9441384077072144 -0.14138364791870117 0.2976797819137573
vn 0.9623064994812012 0.26473313570022583 -0.06230977177619934
vn 0.8085955381393433 0.04576166719198227 -0.5865824818611145
vn 0.8037787675857544 0.05692017823457718 -0.5921989679336548
vn -0.2973078787326813 0.05265412479639053 -0.9533286094665527
vn -0.7461178302764893 0.1868589222431183 -0.6390554904937744
vn -0.3875771760940552 -0.18496516346931458 -0.9030901789665222
vn 0.9880331158638 -0.08221057057380676 -0.1305069625377655
vn 0.7834744453430176 0.2873891294002533 -0.5509766340255737
vn 0.7776293158531189 0.17420248687267303 -0.6041077375411987
vn 0.013782843947410583 0.5128558874130249 -0.8583640456199646
vn -0.4263542592525482 0.14696547389030457 -0.8925374746322632
vn 0.0218031108379364 0.12988853454589844 -0.9912889003753662
vn -0.8580478429794312 -0.18102537095546722 0.48060768842697144
vn -0.9919434785842896 -0.07233303785324097 -0.10400031507015228
vn -0.9748874306678772 0.18601100146770477 0.12245234847068787
vn -0.6511539220809937 0.5228921175003052 -0.5500749945640564
vn -0.6999891996383667 0.14298102259635925 -0.6996939182281494
vn -0.2693179249763489 0.48156630992889404 -0.8340034484863281
vn 0.9977409243583679 -0.025860700756311417 -0.062002524733543396
vn 0.9990658760070801 0.016633719205856323 -0.03988417983055115
vn 0.7998872399330139 0.28120696544647217 -0.5301915407180786
vn -0.6922388076782227 0.24370840191841125 -0.6792728900909424
vn -0.9438257217407227 0.3093142807483673 -0.11626528203487396
vn -0.7664328813552856 0.06835045665502548 -0.6386774778366089
vn 0.3679395318031311 0.4364229440689087 -0.8210696578025818
vn 0.4567517042160034 0.2676190733909607 -0.8483854532241821
vn 0.7567672729492188 0.4775446057319641 -0.44637924432754517
vn 0.8007627725601196 -0.4522658884525299 0.3927268385887146
vn 0.7931206226348877 -0.4167580008506775 0.44415345788002014
vn 0.9795951843261719 -0.18366797268390656 -0.08160339295864105
vn -0.6277206540107727 -0.5404009819030762 0.5602978467941284
vn -0.6306037902832031 -0.49397343397140503 0.5986059904098511
vn -0.8091243505477905 -0.11822963505983353 0.5756210088729858
vn 0.18450629711151123 0.45576757192611694 -0.8707659840583801
vn 0.6064726114273071 0.5749591588973999 -0.5491930246353149
vn 0.4951041638851166 0.7084709405899048 -0.5029321312904358
vn -0.20263969898223877 0.7808790802955627 -0.5909020304679871
vn -0.6824260950088501 0.4901708960533142 -0.5422427654266357
vn -0.2705501317977905 0.46875396370887756 -0.8408759832382202
vn 0.7429344654083252 -0.44386765360832214 0.5010288953781128
vn 0.7381297945976257 -0.5181154012680054 0.4321119785308838
vn 0.7682124972343445 -0.6334106922149658 0.0929536372423172
vn -0.5422924757003784 -0.6788907647132874 0.49500128626823425
vn -0.571122944355011 -0.5978899002075195 0.5624468326568604
vn -0.8968814611434937 -0.34924009442329407 0.27135801315307617
vn 0.7496681809425354 0.6053040027618408 -0.26759058237075806
vn 0.7500996589660645 0.6106172800064087 -0.25396284461021423
vn 0.8091053366661072 0.22815310955047607 -0.5415669679641724
vn -0.6381638050079346 0.7200921773910522 -0.2724228501319885
vn -0.7236128449440002 0.447576105594635 -0.525414228439331
vn -0.2526746988296509 0.7323806285858154 -0.6322768926620483
vn -0.353632390499115 -0.7455431222915649 0.564897894859314
vn -0.7972031831741333 -0.5798593163490295 0.16801917552947998
vn -0.19466149806976318 -0.31712862849235535 0.9281898736953735
vn 0.8051666021347046 0.5629754066467285 -0.1864548921585083
vn 0.9974116683006287 0.002345547080039978 -0.071864053606987
vn 0.797582745552063 0.198155015707016 0.5697335004806519
vn -0.7936314940452576 0.35727599263191223 0.49244585633277893
vn -0.9675842523574829 0.14274470508098602 -0.2083376944065094
vn -0.6676479578018188 0.6891138553619385 -0.28172385692596436
vn 0.7459478378295898 -0.012766629457473755 0.6658821105957031
vn 0.5949884057044983 0.7161715030670166 0.36481112241744995
vn 0.9065648913383484 0.3813658356666565 -0.18083159625530243
vn -0.45403212308883667 0.8376920819282532 0.30352428555488586
vn -0.7828248143196106 0.19239482283592224 0.5917513370513916
vn -0.7487600445747375 0.5936686396598816 -0.29481565952301025
f 3/3/3 2/2/2 1/1/1
f 6/6/6 5/5/5 4/4/4
f 9/9/9 8/8/8 7/7/7
f 12/12/12 11/11/11 10/10/10
f 15/15/15 14/14/14 13/13/13
f 18/18/18 17/17/17 16/16/16
f 21/21/21 20/20/20 19/19/19
f 24/24/24 23/23/23 22/22/22
f 27/27/27 26/26/26 25/25/25
f 30/30/30 29/29/29 28/28/28
f 33/33/33 32/32/32 31/31/31
f 36/36/36 35/35/35 34/34/34
f 39/39/39 38/38/38 37/37/37
f 42/42/42 41/41/41 40/40/40
f 45/45/45 44/44/44 43/43/43
f 48/48/48 47/47/47 46/46/46
f 51/51/51 50/50/50 49/49/49
f 54/54/54 53/53/53 52/52/52
f 57/57/57 56/56/56 55/55/55
f 60/60/60 59/59/59 58/58/58
f 63/63/63 62/62/62 61/61/61
f 66/66/66 65/65/65 64/64/64
f 69/69/69 68/68/68 67/67/67
f 72/72/72 71/71/71 70/70/70
f 75/75/75 74/74/74 73/73/73
f 78/78/78 77/77/77 76/76/76
f 81/81/81 80/80/80 79/79/79
f 84/84/84 83/83/83 82/82/82
f 87/87/87 86/86/86 85/85/85
f 90/90/90 89/89/89 88/88/88
