# VPXTOOL table OBJ file
# VPXTOOL OBJ file
# numVerts: 135 numFaces: 135
o LM_L_LC3_Playfield
v 344.8487854003906 1656.6104736328125 0.00003700156230479479
v 220.09226989746094 1625.4171142578125 0.00002415658309473656
v 233.6677703857422 1613.522216796875 0.000023293849153560586
v 343.08319091796875 1657.8350830078125 0.000035707460483536124
v 217.7380828857422 1627.050048828125 0.000022431113393395208
v 220.09226989746094 1625.4171142578125 0.00002415658309473656
v 355.0304260253906 1647.689208984375 0.000036354511394165456
v 233.6677703857422 1613.522216796875 0.000023293849153560586
v 442.93115234375 1619.47705078125 0.00004658769830712117
v 233.6677703857422 1613.522216796875 0.000023293849153560586
v 355.0304260253906 1647.689208984375 0.000036354511394165456
v 351.63653564453125 1650.6630859375 0.0000365701962437015
v 351.63653564453125 1650.6630859375 0.0000365701962437015
v 344.8487854003906 1656.6104736328125 0.00003700156230479479
v 233.6677703857422 1613.522216796875 0.000023293849153560586
v 344.26025390625 1657.0186767578125 0.0000365701962437015
v 220.09226989746094 1625.4171142578125 0.00002415658309473656
v 344.8487854003906 1656.6104736328125 0.00003700156230479479
v 343.08319091796875 1657.8350830078125 0.000035707460483536124
v 220.09226989746094 1625.4171142578125 0.00002415658309473656
v 344.26025390625 1657.0186767578125 0.0000365701962437015
v 343.08319091796875 1657.8350830078125 0.000035707460483536124
v 309.7615661621094 1688.6202392578125 0.000032317180739482865
v 217.7380828857422 1627.050048828125 0.000022431113393395208
v 476.39306640625 1681.8563232421875 0.00004941517545375973
v 442.93115234375 1619.47705078125 0.00004658769830712117
v 652.1945190429688 1625.4320068359375 0.00006988154927967116
v 476.39306640625 1681.8563232421875 0.00004941517545375973
v 355.0304260253906 1647.689208984375 0.000036354511394165456
v 442.93115234375 1619.47705078125 0.00004658769830712117
v 351.63653564453125 1650.6630859375 0.0000365701962437015
v 355.0304260253906 1647.689208984375 0.000036354511394165456
v 469.6053161621094 1687.8038330078125 0.00004984654515283182
v 344.8487854003906 1656.6104736328125 0.00003700156230479479
v 351.63653564453125 1650.6630859375 0.0000365701962437015
v 469.6053161621094 1687.8038330078125 0.00004984654515283182
v 468.42822265625 1688.6202392578125 0.000048983809392666444
v 344.26025390625 1657.0186767578125 0.0000365701962437015
v 344.8487854003906 1656.6104736328125 0.00003700156230479479
v 344.26025390625 1657.0186767578125 0.0000365701962437015
v 468.42822265625 1688.6202392578125 0.000048983809392666444
v 343.08319091796875 1657.8350830078125 0.000035707460483536124
v 309.7615661621094 1688.6202392578125 0.000032317180739482865
v 243.11831665039063 1750.1905517578125 0.00002553746526245959
v 217.7380828857422 1627.050048828125 0.000022431113393395208
v 243.11831665039063 1750.1905517578125 0.00002553746526245959
v 84.45162200927734 1750.1905517578125 0.000008870838428265415
v 217.7380828857422 1627.050048828125 0.000022431113393395208
v 597.7556762695313 1716.0234375 0.000062475839513354
v 476.39306640625 1681.8563232421875 0.00004941517545375973
v 652.1945190429688 1625.4320068359375 0.00006988154927967116
v 355.0304260253906 1647.689208984375 0.000036354511394165456
v 476.39306640625 1681.8563232421875 0.00004941517545375973
v 469.6053161621094 1687.8038330078125 0.00004984654515283182
v 344.8487854003906 1656.6104736328125 0.00003700156230479479
v 469.6053161621094 1687.8038330078125 0.00004984654515283182
v 468.42822265625 1688.6202392578125 0.000048983809392666444
v 309.7615661621094 1688.6202392578125 0.000032317180739482865
v 343.08319091796875 1657.8350830078125 0.000035707460483536124
v 401.7850036621094 1750.1905517578125 0.00004220409391564317
v 469.6053161621094 1687.8038330078125 0.00004984654515283182
v 476.39306640625 1681.8563232421875 0.00004941517545375973
v 594.36181640625 1718.997314453125 0.00006269152800086886
v 343.08319091796875 1657.8350830078125 0.000035707460483536124
v 468.42822265625 1688.6202392578125 0.000048983809392666444
v 401.7850036621094 1750.1905517578125 0.00004220409391564317
v 593.7733154296875 1719.4053955078125 0.00006226015830179676
v 468.42822265625 1688.6202392578125 0.000048983809392666444
v 469.6053161621094 1687.8038330078125 0.00004984654515283182
v 476.39306640625 1681.8563232421875 0.00004941517545375973
v 597.7556762695313 1716.0234375 0.000062475839513354
v 594.36181640625 1718.997314453125 0.00006269152800086886
v 469.6053161621094 1687.8038330078125 0.00004984654515283182
v 594.36181640625 1718.997314453125 0.00006269152800086886
v 593.7733154296875 1719.4053955078125 0.00006226015830179676
v 84.45162200927734 1750.1905517578125 0.000008870838428265415
v 243.11831665039063 1750.1905517578125 0.00002553746526245959
v 153.228515625 1801.6668701171875 0.000016095402315841056
v 401.7850036621094 1750.1905517578125 0.00004220409391564317
v 243.11831665039063 1750.1905517578125 0.00002553746526245959
v 309.7615661621094 1688.6202392578125 0.000032317180739482865
v 593.7733154296875 1719.4053955078125 0.00006226015830179676
v 560.45166015625 1750.1905517578125 0.00005887071893084794
v 468.42822265625 1688.6202392578125 0.000048983809392666444
v 560.45166015625 1750.1905517578125 0.00005887071893084794
v 593.7733154296875 1719.4053955078125 0.00006226015830179676
v 719.1183471679688 1750.1905517578125 0.00007553734758403152
v 560.45166015625 1750.1905517578125 0.00005887071893084794
v 401.7850036621094 1750.1905517578125 0.00004220409391564317
v 468.42822265625 1688.6202392578125 0.000048983809392666444
v 560.45166015625 1750.1905517578125 0.00005887071893084794
v 719.1183471679688 1750.1905517578125 0.00007553734758403152
v 629.2285766601563 1801.6668701171875 0.00006609528645640239
v 243.11831665039063 1750.1905517578125 0.00002553746526245959
v 401.7850036621094 1750.1905517578125 0.00004220409391564317
v 311.89520263671875 1801.6668701171875 0.00003276202915003523
v 153.228515625 1801.6668701171875 0.000016095402315841056
v 243.11831665039063 1750.1905517578125 0.00002553746526245959
v 222.00540161132813 1853.1429443359375 0.000023319124011322856
v 401.7850036621094 1750.1905517578125 0.00004220409391564317
v 560.45166015625 1750.1905517578125 0.00005887071893084794
v 470.5618591308594 1801.6668701171875 0.00004942865780321881
v 222.00540161132813 1853.1429443359375 0.000023319124011322856
v 243.11831665039063 1750.1905517578125 0.00002553746526245959
v 311.89520263671875 1801.6668701171875 0.00003276202915003523
v 311.89520263671875 1801.6668701171875 0.00003276202915003523
v 401.7850036621094 1750.1905517578125 0.00004220409391564317
v 380.6720886230469 1853.1429443359375 0.000039985752664506435
v 539.3387451171875 1853.1429443359375 0.00005665237767971121
v 560.45166015625 1750.1905517578125 0.00005887071893084794
v 629.2285766601563 1801.6668701171875 0.00006609528645640239
v 380.6720886230469 1853.1429443359375 0.000039985752664506435
v 401.7850036621094 1750.1905517578125 0.00004220409391564317
v 470.5618591308594 1801.6668701171875 0.00004942865780321881
v 470.5618591308594 1801.6668701171875 0.00004942865780321881
v 560.45166015625 1750.1905517578125 0.00005887071893084794
v 539.3387451171875 1853.1429443359375 0.00005665237767971121
v 222.00540161132813 1853.1429443359375 0.000023319124011322856
v 311.89520263671875 1801.6668701171875 0.00003276202915003523
v 380.6720886230469 1853.1429443359375 0.000039985752664506435
v 380.6720886230469 1853.1429443359375 0.000039985752664506435
v 470.5618591308594 1801.6668701171875 0.00004942865780321881
v 539.3387451171875 1853.1429443359375 0.00005665237767971121
v 380.6720886230469 1853.1429443359375 0.000039985752664506435
v 290.78228759765625 1904.6192626953125 0.0000305436878988985
v 222.00540161132813 1853.1429443359375 0.000023319124011322856
v 380.6720886230469 1853.1429443359375 0.000039985752664506435
v 539.3387451171875 1853.1429443359375 0.00005665237767971121
v 449.448974609375 1904.6192626953125 0.00004721031655208208
v 290.78228759765625 1904.6192626953125 0.0000305436878988985
v 380.6720886230469 1853.1429443359375 0.000039985752664506435
v 359.5591735839844 1956.0953369140625 0.00003776825178647414
v 359.5591735839844 1956.0953369140625 0.00003776825178647414
v 380.6720886230469 1853.1429443359375 0.000039985752664506435
v 449.448974609375 1904.6192626953125 0.00004721031655208208
vt 0.6611928939819336 0.5559138655662537
vt 0.6568469405174255 0.5735052227973938
vt 0.6552019715309143 0.5715103149414063
vt 0.6613644361495972 0.5561695694923401
vt 0.6570733189582825 0.5738492608070374
vt 0.6568469405174255 0.5735052227973938
vt 0.6599451899528503 0.5544358491897583
vt 0.6552019715309143 0.5715103149414063
vt 0.6560246348381042 0.5419006943702698
vt 0.6552019715309143 0.5715103149414063
vt 0.6599451899528503 0.5544358491897583
vt 0.6603606939315796 0.5549280643463135
vt 0.6603606939315796 0.5549280643463135
vt 0.6611928939819336 0.5559138655662537
vt 0.6552019715309143 0.5715103149414063
vt 0.6612500548362732 0.5559991002082825
vt 0.6568469405174255 0.5735052227973938
vt 0.6611928939819336 0.5559138655662537
vt 0.6613644361495972 0.5561695694923401
vt 0.6568469405174255 0.5735052227973938
vt 0.6612500548362732 0.5559991002082825
vt 0.6613644361495972 0.5561695694923401
vt 0.6657012701034546 0.5610473155975342
vt 0.6570733189582825 0.5738492608070374
vt 0.6647444367408752 0.5371598601341248
vt 0.6560246348381042 0.5419006943702698
vt 0.6568490266799927 0.5122307538986206
vt 0.6647444367408752 0.5371598601341248
vt 0.6599451899528503 0.5544358491897583
vt 0.6560246348381042 0.5419006943702698
vt 0.6603606939315796 0.5549280643463135
vt 0.6599451899528503 0.5544358491897583
vt 0.6655856966972351 0.5381326675415039
vt 0.6611928939819336 0.5559138655662537
vt 0.6603606939315796 0.5549280643463135
vt 0.6655856966972351 0.5381326675415039
vt 0.6657012701034546 0.5383015871047974
vt 0.6612500548362732 0.5559991002082825
vt 0.6611928939819336 0.5559138655662537
vt 0.6612500548362732 0.5559991002082825
vt 0.6657012701034546 0.5383015871047974
vt 0.6613644361495972 0.5561695694923401
vt 0.6657012701034546 0.5610473155975342
vt 0.6745150685310364 0.5709604024887085
vt 0.6570733189582825 0.5738492608070374
vt 0.6745150685310364 0.5709604024887085
vt 0.6745150685310364 0.5939511060714722
vt 0.6570733189582825 0.5738492608070374
vt 0.6696007251739502 0.5196785926818848
vt 0.6647444367408752 0.5371598601341248
vt 0.6568490266799927 0.5122307538986206
vt 0.6599451899528503 0.5544358491897583
vt 0.6647444367408752 0.5371598601341248
vt 0.6655856966972351 0.5381326675415039
vt 0.6611928939819336 0.5559138655662537
vt 0.6655856966972351 0.5381326675415039
vt 0.6657012701034546 0.5383015871047974
vt 0.6657012701034546 0.5610473155975342
vt 0.6613644361495972 0.5561695694923401
vt 0.6745150685310364 0.5479698181152344
vt 0.6655856966972351 0.5381326675415039
vt 0.6647444367408752 0.5371598601341248
vt 0.6700261831283569 0.5201586484909058
vt 0.6613644361495972 0.5561695694923401
vt 0.6657012701034546 0.5383015871047974
vt 0.6745150685310364 0.5479698181152344
vt 0.6700845956802368 0.5202422142028809
vt 0.6657012701034546 0.5383015871047974
vt 0.6655856966972351 0.5381326675415039
vt 0.6647444367408752 0.5371598601341248
vt 0.6696007251739502 0.5196785926818848
vt 0.6700261831283569 0.5201586484909058
vt 0.6655856966972351 0.5381326675415039
vt 0.6700261831283569 0.5201586484909058
vt 0.6700845956802368 0.5202422142028809
vt 0.6745150685310364 0.5939511060714722
vt 0.6745150685310364 0.5709604024887085
vt 0.6820307970046997 0.5844101905822754
vt 0.6745150685310364 0.5479698181152344
vt 0.6745150685310364 0.5709604024887085
vt 0.6657012701034546 0.5610473155975342
vt 0.6700845956802368 0.5202422142028809
vt 0.6745150685310364 0.5249791741371155
vt 0.6657012701034546 0.5383015871047974
vt 0.6745150685310364 0.5249791741371155
vt 0.6700845956802368 0.5202422142028809
vt 0.6745150685310364 0.5019885301589966
vt 0.6745150685310364 0.5249791741371155
vt 0.6745150685310364 0.5479698181152344
vt 0.6657012701034546 0.5383015871047974
vt 0.6745150685310364 0.5249791741371155
vt 0.6745150685310364 0.5019885301589966
vt 0.6820307970046997 0.5148118138313293
vt 0.6745150685310364 0.5709604024887085
vt 0.6745150685310364 0.5479698181152344
vt 0.6820307970046997 0.5612106919288635
vt 0.6820307970046997 0.5844101905822754
vt 0.6745150685310364 0.5709604024887085
vt 0.6896843314170837 0.5746943354606628
vt 0.6745150685310364 0.5479698181152344
vt 0.6745150685310364 0.5249791741371155
vt 0.6820307970046997 0.5380112528800964
vt 0.6896843314170837 0.5746943354606628
vt 0.6745150685310364 0.5709604024887085
vt 0.6820307970046997 0.5612106919288635
vt 0.6820307970046997 0.5612106919288635
vt 0.6745150685310364 0.5479698181152344
vt 0.6896843314170837 0.5512822866439819
vt 0.6896843314170837 0.5278701782226563
vt 0.6745150685310364 0.5249791741371155
vt 0.6820307970046997 0.5148118138313293
vt 0.6896843314170837 0.5512822866439819
vt 0.6745150685310364 0.5479698181152344
vt 0.6820307970046997 0.5380112528800964
vt 0.6820307970046997 0.5380112528800964
vt 0.6745150685310364 0.5249791741371155
vt 0.6896843314170837 0.5278701782226563
vt 0.6896843314170837 0.5746943354606628
vt 0.6820307970046997 0.5612106919288635
vt 0.6896843314170837 0.5512822866439819
vt 0.6896843314170837 0.5512822866439819
vt 0.6820307970046997 0.5380112528800964
vt 0.6896843314170837 0.5278701782226563
vt 0.6896843314170837 0.5512822866439819
vt 0.6974794864654541 0.5647987127304077
vt 0.6896843314170837 0.5746943354606628
vt 0.6896843314170837 0.5512822866439819
vt 0.6896843314170837 0.5278701782226563
vt 0.6974794864654541 0.5411701202392578
vt 0.6974794864654541 0.5647987127304077
vt 0.6896843314170837 0.5512822866439819
vt 0.7054201364517212 0.5547183752059937
vt 0.7054201364517212 0.5547183752059937
vt 0.6896843314170837 0.5512822866439819
vt 0.6974794864654541 0.5411701202392578
vn 0.00000006599402269102939 0.00000014784880875140516 -1
vn 0.00000006599402269102939 0.00000014784880875140516 -1
vn 0.00000006599402269102939 0.00000014784880875140516 -1
vn 0.0000002698839978165779 -0.0000006675973054370843 -1
vn 0.0000002698839978165779 -0.0000006675973054370843 -1
vn 0.0000002698839978165779 -0.0000006675973054370843 -1
vn 0.00000011172879510468192 -0.00000001460742637959811 -1
vn 0.00000011172879510468192 -0.00000001460742637959811 -1
vn 0.00000011172879510468192 -0.00000001460742637959811 -1
vn 0.0000000659947403391925 0.00000014784804136525054 -1
vn 0.0000000659947403391925 0.00000014784804136525054 -1
vn 0.0000000659947403391925 0.00000014784804136525054 -1
vn 0.00000006599250212957486 0.00000014784626500841114 -1
vn 0.00000006599250212957486 0.00000014784626500841114 -1
vn 0.00000006599250212957486 0.00000014784626500841114 -1
vn 0.00000026989309276359563 -0.0000006676534667349188 -1
vn 0.00000026989309276359563 -0.0000006676534667349188 -1
vn 0.00000026989309276359563 -0.0000006676534667349188 -1
vn 0.0000002698639036680106 -0.0000006675412009826687 -1
vn 0.0000002698639036680106 -0.0000006675412009826687 -1
vn 0.0000002698639036680106 -0.0000006675412009826687 -1
vn 0.0000001050415789904946 0.0000000035692633293393783 -1
vn 0.0000001050415789904946 0.0000000035692633293393783 -1
vn 0.0000001050415789904946 0.0000000035692633293393783 -1
vn 0.0000001117292853791696 -0.000000014607394405175 -0.9999999403953552
vn 0.0000001117292853791696 -0.000000014607394405175 -0.9999999403953552
vn 0.0000001117292853791696 -0.000000014607394405175 -0.9999999403953552
vn 0.00000011172921432489602 -0.00000001460724785573575 -1
vn 0.00000011172921432489602 -0.00000001460724785573575 -1
vn 0.00000011172921432489602 -0.00000001460724785573575 -1
vn 0.00000006599348267855021 0.0000001478443607538793 -1
vn 0.00000006599348267855021 0.0000001478443607538793 -1
vn 0.00000006599348267855021 0.0000001478443607538793 -1
vn 0.00000006599358215453321 0.0000001478481976846524 -1
vn 0.00000006599358215453321 0.0000001478481976846524 -1
vn 0.00000006599358215453321 0.0000001478481976846524 -1
vn 0.00000026989309276359563 -0.0000006676644375147589 -1
vn 0.00000026989309276359563 -0.0000006676644375147589 -1
vn 0.00000026989309276359563 -0.0000006676644375147589 -1
vn 0.0000002698639036680106 -0.000000667535744014458 -1
vn 0.0000002698639036680106 -0.000000667535744014458 -1
vn 0.0000002698639036680106 -0.000000667535744014458 -1
vn 0.00000010503650571536127 0.0000000035772305118086933 -1
vn 0.00000010503650571536127 0.0000000035772305118086933 -1
vn 0.00000010503650571536127 0.0000000035772305118086933 -1
vn 0.00000010504152214707574 0.000000003576109408598427 -1
vn 0.00000010504152214707574 0.000000003576109408598427 -1
vn 0.00000010504152214707574 0.000000003576109408598427 -1
vn 0.00000011172918590318659 -0.00000001460724785573575 -1
vn 0.00000011172918590318659 -0.00000001460724785573575 -1
vn 0.00000011172918590318659 -0.00000001460724785573575 -1
vn 0.0000000659947403391925 0.00000014784643553866772 -1
vn 0.0000000659947403391925 0.00000014784643553866772 -1
vn 0.0000000659947403391925 0.00000014784643553866772 -1
vn 0.00000026990272772309254 -0.0000006676644375147589 -1
vn 0.00000026990272772309254 -0.0000006676644375147589 -1
vn 0.00000026990272772309254 -0.0000006676644375147589 -1
vn 0.00000010504684411216658 0.0000000035749585514111004 -1
vn 0.00000010504684411216658 0.0000000035749585514111004 -1
vn 0.00000010504684411216658 0.0000000035749585514111004 -1
vn 0.00000006599379531735394 0.00000014784609447815455 -1
vn 0.00000006599379531735394 0.00000014784609447815455 -1
vn 0.00000006599379531735394 0.00000014784609447815455 -1
vn 0.00000010503939762429582 0.000000003580204577247059 -1
vn 0.00000010503939762429582 0.000000003580204577247059 -1
vn 0.00000010503939762429582 0.000000003580204577247059 -1
vn 0.0000002699040919651452 -0.0000006676534667349188 -1
vn 0.0000002699040919651452 -0.0000006676534667349188 -1
vn 0.0000002699040919651452 -0.0000006676534667349188 -1
vn 0.00000006599359636538793 0.00000014783371682369761 -1
vn 0.00000006599359636538793 0.00000014783371682369761 -1
vn 0.00000006599359636538793 0.00000014783371682369761 -1
vn 0.00000026999273927685863 -0.0000006679109674223582 -1
vn 0.00000026999273927685863 -0.0000006679109674223582 -1
vn 0.00000026999273927685863 -0.0000006679109674223582 -1
vn 0.00000010504214742468321 0.000000000002332943300348278 -1
vn 0.00000010504214742468321 0.000000000002332943300348278 -1
vn 0.00000010504214742468321 0.000000000002332943300348278 -1
vn 0.0000001050418134695974 0.000000003583003893581349 -1
vn 0.0000001050418134695974 0.000000003583003893581349 -1
vn 0.0000001050418134695974 0.000000003583003893581349 -1
vn 0.0000001050358804377538 0.0000000035909430984304436 -1
vn 0.0000001050358804377538 0.0000000035909430984304436 -1
vn 0.0000001050358804377538 0.0000000035909430984304436 -1
vn 0.0000001050418134695974 0.0000000035968912293071753 -1
vn 0.0000001050418134695974 0.0000000035968912293071753 -1
vn 0.0000001050418134695974 0.0000000035968912293071753 -1
vn 0.00000010504185610216155 0.0000000035830818312376778 -1
vn 0.00000010504185610216155 0.0000000035830818312376778 -1
vn 0.00000010504185610216155 0.0000000035830818312376778 -1
vn 0.00000010504216874096528 0.0000000000024262610150149744 -1
vn 0.00000010504216874096528 0.0000000000024262610150149744 -1
vn 0.00000010504216874096528 0.0000000000024262610150149744 -1
vn 0.00000010504150083079367 0.0000000000023329285551987322 -0.9999999403953552
vn 0.00000010504150083079367 0.0000000000023329285551987322 -0.9999999403953552
vn 0.00000010504150083079367 0.0000000000023329285551987322 -0.9999999403953552
vn 0.00000010503673308903672 -0.000000000006952170610030617 -1
vn 0.00000010503673308903672 -0.000000000006952170610030617 -1
vn 0.00000010503673308903672 -0.000000000006952170610030617 -1
vn 0.00000010504216874096528 0.0000000000022396255856815817 -1
vn 0.00000010504216874096528 0.0000000000022396255856815817 -1
vn 0.00000010504216874096528 0.0000000000022396255856815817 -1
vn 0.00000010504705016955995 -0.0000000000047708573203131266 -1
vn 0.00000010504705016955995 -0.0000000000047708573203131266 -1
vn 0.00000010504705016955995 -0.0000000000047708573203131266 -1
vn 0.00000010503671177275464 -0.000000000006905511752697269 -1
vn 0.00000010503671177275464 -0.000000000006905511752697269 -1
vn 0.00000010503671177275464 -0.000000000006905511752697269 -1
vn 0.0000001050467233199015 -0.000000000004829165713149397 -1
vn 0.0000001050467233199015 -0.000000000004829165713149397 -1
vn 0.0000001050467233199015 -0.000000000004829165713149397 -1
vn 0.00000010504705016955995 -0.000000000004805851463313138 -1
vn 0.00000010504705016955995 -0.000000000004805851463313138 -1
vn 0.00000010504705016955995 -0.000000000004805851463313138 -1
vn 0.00000010503637781766884 -0.000000000006998807783320515 -1
vn 0.00000010503637781766884 -0.000000000006998807783320515 -1
vn 0.00000010503637781766884 -0.000000000006998807783320515 -1
vn 0.00000010504191294558041 -0.000000000014044317792061278 -1
vn 0.00000010504191294558041 -0.000000000014044317792061278 -1
vn 0.00000010504191294558041 -0.000000000014044317792061278 -1
vn 0.00000010504193426186248 -0.00000000001399765893472793 -1
vn 0.00000010504193426186248 -0.00000000001399765893472793 -1
vn 0.00000010504193426186248 -0.00000000001399765893472793 -1
vn 0.0000001050417139936144 0.0000000000023329285551987322 -0.9999999403953552
vn 0.0000001050417139936144 0.0000000000023329285551987322 -0.9999999403953552
vn 0.0000001050417139936144 0.0000000000023329285551987322 -0.9999999403953552
vn 0.00000010504169267733232 0.000000000002239611274212905 -0.9999999403953552
vn 0.00000010504169267733232 0.000000000002239611274212905 -0.9999999403953552
vn 0.00000010504169267733232 0.000000000002239611274212905 -0.9999999403953552
vn 0.00000010504140846023802 0.0000000000022862699147058185 -0.9999999403953552
vn 0.00000010504140846023802 0.0000000000022862699147058185 -0.9999999403953552
vn 0.00000010504140846023802 0.0000000000022862699147058185 -0.9999999403953552
vn 0.00000010504150083079367 0.0000000000023795869788512114 -0.9999999403953552
vn 0.00000010504150083079367 0.0000000000023795869788512114 -0.9999999403953552
vn 0.00000010504150083079367 0.0000000000023795869788512114 -0.9999999403953552
f 3/3/3 2/2/2 1/1/1
f 6/6/6 5/5/5 4/4/4
f 9/9/9 8/8/8 7/7/7
f 12/12/12 11/11/11 10/10/10
f 15/15/15 14/14/14 13/13/13
f 18/18/18 17/17/17 16/16/16
f 21/21/21 20/20/20 19/19/19
f 24/24/24 23/23/23 22/22/22
f 27/27/27 26/26/26 25/25/25
f 30/30/30 29/29/29 28/28/28
f 33/33/33 32/32/32 31/31/31
f 36/36/36 35/35/35 34/34/34
f 39/39/39 38/38/38 37/37/37
f 42/42/42 41/41/41 40/40/40
f 45/45/45 44/44/44 43/43/43
f 48/48/48 47/47/47 46/46/46
f 51/51/51 50/50/50 49/49/49
f 54/54/54 53/53/53 52/52/52
f 57/57/57 56/56/56 55/55/55
f 60/60/60 59/59/59 58/58/58
f 63/63/63 62/62/62 61/61/61
f 66/66/66 65/65/65 64/64/64
f 69/69/69 68/68/68 67/67/67
f 72/72/72 71/71/71 70/70/70
f 75/75/75 74/74/74 73/73/73
f 78/78/78 77/77/77 76/76/76
f 81/81/81 80/80/80 79/79/79
f 84/84/84 83/83/83 82/82/82
f 87/87/87 86/86/86 85/85/85
f 90/90/90 89/89/89 88/88/88
f 93/93/93 92/92/92 91/91/91
f 96/96/96 95/95/95 94/94/94
f 99/99/99 98/98/98 97/97/97
f 102/102/102 101/101/101 100/100/100
f 105/105/105 104/104/104 103/103/103
f 108/108/108 107/107/107 106/106/106
f 111/111/111 110/110/110 109/109/109
f 114/114/114 113/113/113 112/112/112
f 117/117/117 116/116/116 115/115/115
f 120/120/120 119/119/119 118/118/118
f 123/123/123 122/122/122 121/121/121
f 126/126/126 125/125/125 124/124/124
f 129/129/129 128/128/128 127/127/127
f 132/132/132 131/131/131 130/130/130
f 135/135/135 134/134/134 133/133/133
