# VPXTOOL table OBJ file
# VPXTOOL OBJ file
# numVerts: 124 numFaces: 138
o LM_L_LW8_UnderPF
v -2.8842685222625732 191.73117065429688 -12.153261184692383
v -13.502232551574707 193.8431396484375 -12.153261184692383
v -2.8842685222625732 191.73117065429688 -5.324187755584717
v -13.502232551574707 193.8431396484375 -12.153261184692383
v -24.120223999023438 191.73117065429688 -12.153261184692383
v -13.502232551574707 193.8431396484375 -5.324187755584717
v -13.502232551574707 193.8431396484375 -12.153261184692383
v -13.502232551574707 193.8431396484375 -5.324187755584717
v -2.8842685222625732 191.73117065429688 -5.324187755584717
v 6.117219924926758 185.7164764404297 -12.153261184692383
v -2.8842685222625732 191.73117065429688 -12.153261184692383
v 6.117219924926758 185.7164764404297 -5.324187755584717
v -2.8842685222625732 191.73117065429688 -12.153261184692383
v -2.8842685222625732 191.73117065429688 -5.324187755584717
v 6.117219924926758 185.7164764404297 -5.324187755584717
v -24.120223999023438 191.73117065429688 -12.153261184692383
v -24.120223999023438 191.73117065429688 -5.324187755584717
v -13.502232551574707 193.8431396484375 -5.324187755584717
v 6.117219924926758 185.7164764404297 -5.324187755584717
v -2.8842685222625732 191.73117065429688 -5.324187755584717
v -13.502232551574707 193.8431396484375 -5.324187755584717
v -24.120223999023438 191.73117065429688 -12.153261184692383
v -33.12168502807617 185.7164764404297 -12.153261184692383
v -24.120223999023438 191.73117065429688 -5.324187755584717
v 6.117219924926758 185.7164764404297 -12.153261184692383
v 6.117219924926758 185.7164764404297 -5.324187755584717
v 12.131794929504395 176.71510314941406 -5.324187755584717
v 12.131794929504395 176.71510314941406 -12.153261184692383
v 6.117219924926758 185.7164764404297 -12.153261184692383
v 12.131794929504395 176.71510314941406 -5.324187755584717
v -13.502232551574707 193.8431396484375 -5.324187755584717
v -24.120223999023438 191.73117065429688 -5.324187755584717
v -33.12168502807617 185.7164764404297 -5.324187755584717
v -33.12168502807617 185.7164764404297 -12.153261184692383
v -33.12168502807617 185.7164764404297 -5.324187755584717
v -24.120223999023438 191.73117065429688 -5.324187755584717
v -33.12168502807617 185.7164764404297 -12.153261184692383
v -39.136287689208984 176.71510314941406 -12.153261184692383
v -33.12168502807617 185.7164764404297 -5.324187755584717
v 14.243853569030762 166.09703063964844 -5.324187755584717
v 12.131794929504395 176.71510314941406 -5.324187755584717
v 6.117219924926758 185.7164764404297 -5.324187755584717
v 12.131794929504395 176.71510314941406 -12.153261184692383
v 12.131794929504395 176.71510314941406 -5.324187755584717
v 14.243853569030762 166.09703063964844 -5.324187755584717
v 14.243853569030762 166.09703063964844 -12.153261184692383
v 12.131794929504395 176.71510314941406 -12.153261184692383
v 14.243853569030762 166.09703063964844 -5.324187755584717
v -39.136287689208984 176.71510314941406 -12.153261184692383
v -39.136287689208984 176.71510314941406 -5.324187755584717
v -33.12168502807617 185.7164764404297 -5.324187755584717
v -13.502232551574707 138.3510284423828 -5.324187755584717
v -39.136287689208984 176.71510314941406 -12.153261184692383
v -41.248348236083984 166.09703063964844 -12.153261184692383
v -39.136287689208984 176.71510314941406 -5.324187755584717
v -33.12168502807617 185.7164764404297 -5.324187755584717
v -33.12168502807617 185.7164764404297 -5.324187755584717
v -39.136287689208984 176.71510314941406 -5.324187755584717
v -41.248348236083984 166.09703063964844 -5.324187755584717
v 14.243853569030762 166.09703063964844 -12.153261184692383
v 14.243853569030762 166.09703063964844 -5.324187755584717
v 12.131794929504395 155.47906494140625 -5.324187755584717
v 12.131794929504395 155.47906494140625 -12.153261184692383
v 14.243853569030762 166.09703063964844 -12.153261184692383
v 12.131794929504395 155.47906494140625 -5.324187755584717
v -41.248348236083984 166.09703063964844 -12.153261184692383
v -41.248348236083984 166.09703063964844 -5.324187755584717
v -39.136287689208984 176.71510314941406 -5.324187755584717
v 14.243853569030762 166.09703063964844 -5.324187755584717
v -41.248348236083984 166.09703063964844 -12.153261184692383
v -39.136287689208984 155.47906494140625 -12.153261184692383
v -41.248348236083984 166.09703063964844 -5.324187755584717
v -41.248348236083984 166.09703063964844 -5.324187755584717
v 12.131794929504395 155.47906494140625 -12.153261184692383
v 12.131794929504395 155.47906494140625 -5.324187755584717
v 6.117219924926758 146.47756958007813 -5.324187755584717
v 6.117219924926758 146.47756958007813 -12.153261184692383
v 12.131794929504395 155.47906494140625 -12.153261184692383
v 6.117219924926758 146.47756958007813 -5.324187755584717
v 12.131794929504395 155.47906494140625 -5.324187755584717
v -39.136287689208984 155.47906494140625 -12.153261184692383
v -39.136287689208984 155.47906494140625 -5.324187755584717
v -41.248348236083984 166.09703063964844 -5.324187755584717
v -39.136287689208984 155.47906494140625 -12.153261184692383
v -33.12168502807617 146.47756958007813 -12.153261184692383
v -39.136287689208984 155.47906494140625 -5.324187755584717
v 6.117219924926758 146.47756958007813 -12.153261184692383
v 6.117219924926758 146.47756958007813 -5.324187755584717
v -2.8842685222625732 140.46299743652344 -5.324187755584717
v -2.8842685222625732 140.46299743652344 -12.153261184692383
v -39.136287689208984 155.47906494140625 -5.324187755584717
v -13.502232551574707 138.3510284423828 -5.324187755584717
v 6.117219924926758 146.47756958007813 -5.324187755584717
v 12.131794929504395 155.47906494140625 -5.324187755584717
v -33.12168502807617 146.47756958007813 -12.153261184692383
v -33.12168502807617 146.47756958007813 -5.324187755584717
v -39.136287689208984 155.47906494140625 -5.324187755584717
v -33.12168502807617 146.47756958007813 -12.153261184692383
v -24.120223999023438 140.46299743652344 -12.153261184692383
v -33.12168502807617 146.47756958007813 -5.324187755584717
v -13.502232551574707 138.3510284423828 -12.153261184692383
v -2.8842685222625732 140.46299743652344 -12.153261184692383
v -13.502232551574707 138.3510284423828 -5.324187755584717
v -13.502232551574707 138.3510284423828 -5.324187755584717
v -39.136287689208984 155.47906494140625 -5.324187755584717
v -33.12168502807617 146.47756958007813 -5.324187755584717
v -13.502232551574707 138.3510284423828 -5.324187755584717
v -2.8842685222625732 140.46299743652344 -5.324187755584717
v 6.117219924926758 146.47756958007813 -5.324187755584717
v -2.8842685222625732 140.46299743652344 -12.153261184692383
v -2.8842685222625732 140.46299743652344 -5.324187755584717
v -13.502232551574707 138.3510284423828 -5.324187755584717
v -24.120223999023438 140.46299743652344 -12.153261184692383
v -13.502232551574707 138.3510284423828 -12.153261184692383
v -24.120223999023438 140.46299743652344 -5.324187755584717
v -24.120223999023438 140.46299743652344 -12.153261184692383
v -24.120223999023438 140.46299743652344 -5.324187755584717
v -33.12168502807617 146.47756958007813 -5.324187755584717
v -13.502232551574707 138.3510284423828 -12.153261184692383
v -13.502232551574707 138.3510284423828 -5.324187755584717
v -24.120223999023438 140.46299743652344 -5.324187755584717
v -33.12168502807617 146.47756958007813 -5.324187755584717
v -24.120223999023438 140.46299743652344 -5.324187755584717
v -13.502232551574707 138.3510284423828 -5.324187755584717
vt 0.16287614405155182 0.551970362663269
vt 0.16510941088199615 0.5547679662704468
vt 0.16679292917251587 0.5519531965255737
vt 0.16510941088199615 0.5547679662704468
vt 0.16287614405155182 0.5575574636459351
vt 0.16902326047420502 0.5547455549240112
vt 0.16510941088199615 0.5547679662704468
vt 0.16902326047420502 0.5547455549240112
vt 0.16679292917251587 0.5519531965255737
vt 0.1565246284008026 0.5495956540107727
vt 0.16287614405155182 0.551970362663269
vt 0.1604495346546173 0.5495829582214355
vt 0.16287614405155182 0.551970362663269
vt 0.16679292917251587 0.5519531965255737
vt 0.1604495346546173 0.5495829582214355
vt 0.16287614405155182 0.5575574636459351
vt 0.16679292917251587 0.5575298070907593
vt 0.16902326047420502 0.5547455549240112
vt 0.1604495346546173 0.5495829582214355
vt 0.16679292917251587 0.5519531965255737
vt 0.16902326047420502 0.5547455549240112
vt 0.16287614405155182 0.5575574636459351
vt 0.1565246284008026 0.5599094033241272
vt 0.16679292917251587 0.5575298070907593
vt 0.1565246284008026 0.5495956540107727
vt 0.1604495346546173 0.5495829582214355
vt 0.1509784460067749 0.5479975938796997
vt 0.14704151451587677 0.5480073094367981
vt 0.1565246284008026 0.5495956540107727
vt 0.1509784460067749 0.5479975938796997
vt 0.16902326047420502 0.5547455549240112
vt 0.16679292917251587 0.5575298070907593
vt 0.1604495346546173 0.5598773956298828
vt 0.1565246284008026 0.5599094033241272
vt 0.1604495346546173 0.5598773956298828
vt 0.16679292917251587 0.5575298070907593
vt 0.1565246284008026 0.5599094033241272
vt 0.14704151451587677 0.5614637136459351
vt 0.1604495346546173 0.5598773956298828
vt 0.1398412436246872 0.547436535358429
vt 0.1509784460067749 0.5479975938796997
vt 0.1604495346546173 0.5495829582214355
vt 0.14704151451587677 0.5480073094367981
vt 0.1509784460067749 0.5479975938796997
vt 0.1398412436246872 0.547436535358429
vt 0.13588999211788177 0.5474451780319214
vt 0.14704151451587677 0.5480073094367981
vt 0.1398412436246872 0.547436535358429
vt 0.14704151451587677 0.5614637136459351
vt 0.1509784460067749 0.5614287853240967
vt 0.1604495346546173 0.5598773956298828
vt 0.11091368645429611 0.5546414852142334
vt 0.14704151451587677 0.5614637136459351
vt 0.13588999211788177 0.5619857907295227
vt 0.1509784460067749 0.5614287853240967
vt 0.1604495346546173 0.5598773956298828
vt 0.1604495346546173 0.5598773956298828
vt 0.1509784460067749 0.5614287853240967
vt 0.1398412436246872 0.5619499683380127
vt 0.13588999211788177 0.5474451780319214
vt 0.1398412436246872 0.547436535358429
vt 0.12874124944210052 0.5479803085327148
vt 0.12477587163448334 0.5479899644851685
vt 0.13588999211788177 0.5474451780319214
vt 0.12874124944210052 0.5479803085327148
vt 0.13588999211788177 0.5619857907295227
vt 0.1398412436246872 0.5619499683380127
vt 0.1509784460067749 0.5614287853240967
vt 0.1398412436246872 0.547436535358429
vt 0.13588999211788177 0.5619857907295227
vt 0.12477587163448334 0.5614011287689209
vt 0.1398412436246872 0.5619499683380127
vt 0.1398412436246872 0.5619499683380127
vt 0.12477587163448334 0.5479899644851685
vt 0.12874124944210052 0.5479803085327148
vt 0.11936022341251373 0.549541175365448
vt 0.11538296937942505 0.5495536923408508
vt 0.12477587163448334 0.5479899644851685
vt 0.11936022341251373 0.549541175365448
vt 0.12874124944210052 0.5479803085327148
vt 0.12477587163448334 0.5614011287689209
vt 0.12874124944210052 0.5613665580749512
vt 0.1398412436246872 0.5619499683380127
vt 0.12477587163448334 0.5614011287689209
vt 0.11538296937942505 0.5598036646842957
vt 0.12874124944210052 0.5613665580749512
vt 0.11538296937942505 0.5495536923408508
vt 0.11936022341251373 0.549541175365448
vt 0.11310679465532303 0.5518795847892761
vt 0.10912174731492996 0.5518964529037476
vt 0.12874124944210052 0.5613665580749512
vt 0.11091368645429611 0.5546414852142334
vt 0.11936022341251373 0.549541175365448
vt 0.12874124944210052 0.5479803085327148
vt 0.11538296937942505 0.5598036646842957
vt 0.11936022341251373 0.5597720146179199
vt 0.12874124944210052 0.5613665580749512
vt 0.11538296937942505 0.5598036646842957
vt 0.10912174731492996 0.5574384331703186
vt 0.11936022341251373 0.5597720146179199
vt 0.10692586749792099 0.5546635389328003
vt 0.10912174731492996 0.5518964529037476
vt 0.11091368645429611 0.5546414852142334
vt 0.11091368645429611 0.5546414852142334
vt 0.12874124944210052 0.5613665580749512
vt 0.11936022341251373 0.5597720146179199
vt 0.11091368645429611 0.5546414852142334
vt 0.11310679465532303 0.5518795847892761
vt 0.11936022341251373 0.549541175365448
vt 0.10912174731492996 0.5518964529037476
vt 0.11310679465532303 0.5518795847892761
vt 0.11091368645429611 0.5546414852142334
vt 0.10912174731492996 0.5574384331703186
vt 0.10692586749792099 0.5546635389328003
vt 0.11310679465532303 0.557411253452301
vt 0.10912174731492996 0.5574384331703186
vt 0.11310679465532303 0.557411253452301
vt 0.11936022341251373 0.5597720146179199
vt 0.10692586749792099 0.5546635389328003
vt 0.11091368645429611 0.5546414852142334
vt 0.11310679465532303 0.557411253452301
vt 0.11936022341251373 0.5597720146179199
vt 0.11310679465532303 0.557411253452301
vt 0.11091368645429611 0.5546414852142334
vn -0.19508418440818787 -0.9807865023612976 -0
vn -0.19508418440818787 -0.9807865023612976 -0
vn -0.19508418440818787 -0.9807865023612976 -0
vn 0.19508370757102966 -0.9807866215705872 -0
vn 0.19508370757102966 -0.9807866215705872 -0
vn 0.19508370757102966 -0.9807866215705872 -0
vn -0.19508424401283264 -0.9807865023612976 -0
vn -0.19508424401283264 -0.9807865023612976 -0
vn -0.19508424401283264 -0.9807865023612976 -0
vn -0.5555756688117981 -0.8314660787582397 -0
vn -0.5555756688117981 -0.8314660787582397 -0
vn -0.5555756688117981 -0.8314660787582397 -0
vn -0.5555755496025085 -0.8314661383628845 -0
vn -0.5555755496025085 -0.8314661383628845 -0
vn -0.5555755496025085 -0.8314661383628845 -0
vn 0.19508376717567444 -0.9807866215705872 -0
vn 0.19508376717567444 -0.9807866215705872 -0
vn 0.19508376717567444 -0.9807866215705872 -0
vn 0 -0 -1
vn 0 -0 -1
vn 0 -0 -1
vn 0.555576741695404 -0.8314653038978577 -0
vn 0.555576741695404 -0.8314653038978577 -0
vn 0.555576741695404 -0.8314653038978577 -0
vn -0.8314676880836487 -0.5555731654167175 -0
vn -0.8314676880836487 -0.5555731654167175 -0
vn -0.8314676880836487 -0.5555731654167175 -0
vn -0.8314675688743591 -0.5555732250213623 -0
vn -0.8314675688743591 -0.5555732250213623 -0
vn -0.8314675688743591 -0.5555732250213623 -0
vn -0.00000003480110422060534 -0 -1
vn -0.00000003480110422060534 -0 -1
vn -0.00000003480110422060534 -0 -1
vn 0.5555769205093384 -0.8314651846885681 -0
vn 0.5555769205093384 -0.8314651846885681 -0
vn 0.5555769205093384 -0.8314651846885681 -0
vn 0.8314663171768188 -0.5555751323699951 -0
vn 0.8314663171768188 -0.5555751323699951 -0
vn 0.8314663171768188 -0.5555751323699951 -0
vn 0.0000002784172181691247 -0 -1
vn 0.0000002784172181691247 -0 -1
vn 0.0000002784172181691247 -0 -1
vn -0.9807853698730469 -0.19508963823318481 -0
vn -0.9807853698730469 -0.19508963823318481 -0
vn -0.9807853698730469 -0.19508963823318481 -0
vn -0.9807853698730469 -0.19508960843086243 -0
vn -0.9807853698730469 -0.19508960843086243 -0
vn -0.9807853698730469 -0.19508960843086243 -0
vn 0.8314663767814636 -0.5555750727653503 -0
vn 0.8314663767814636 -0.5555750727653503 -0
vn 0.8314663767814636 -0.5555750727653503 -0
vn 0 -0 -1
vn 0.9807853698730469 -0.1950894296169281 -0
vn 0.9807853698730469 -0.1950894296169281 -0
vn 0.9807853698730469 -0.1950894296169281 -0
vn 0 -0 -1
vn -0.00000013920814012635674 -0 -1
vn -0.00000013920814012635674 -0 -1
vn -0.00000013920814012635674 -0 -1
vn -0.9807850122451782 0.19509157538414001 -0
vn -0.9807850122451782 0.19509157538414001 -0
vn -0.9807850122451782 0.19509157538414001 -0
vn -0.980785071849823 0.1950916200876236 -0
vn -0.980785071849823 0.1950916200876236 -0
vn -0.980785071849823 0.1950916200876236 -0
vn 0.9807853698730469 -0.19508947432041168 -0
vn 0.9807853698730469 -0.19508947432041168 -0
vn 0.9807853698730469 -0.19508947432041168 -0
vn 0 -0 -1
vn 0.980785071849823 0.19509145617485046 -0
vn 0.980785071849823 0.19509145617485046 -0
vn 0.980785071849823 0.19509145617485046 -0
vn 0 -0 -1
vn -0.8314707279205322 0.555568516254425 -0
vn -0.8314707279205322 0.555568516254425 -0
vn -0.8314707279205322 0.555568516254425 -0
vn -0.8314709067344666 0.5555683970451355 -0
vn -0.8314709067344666 0.5555683970451355 -0
vn -0.8314709067344666 0.5555683970451355 -0
vn 0 -0 -1
vn 0.980785071849823 0.19509142637252808 -0
vn 0.980785071849823 0.19509142637252808 -0
vn 0.980785071849823 0.19509142637252808 -0
vn 0.8314695954322815 0.5555703043937683 -0
vn 0.8314695954322815 0.5555703043937683 -0
vn 0.8314695954322815 0.5555703043937683 -0
vn -0.555568516254425 0.8314708471298218 -0
vn -0.555568516254425 0.8314708471298218 -0
vn -0.555568516254425 0.8314708471298218 -0
vn -0.555568516254425 0.8314708471298218 -0
vn 0 -0 -1
vn 0.000000048883730840998396 -0 -1
vn 0.000000048883730840998396 -0 -1
vn 0.000000048883730840998396 -0 -1
vn 0.8314695358276367 0.5555704236030579 -0
vn 0.8314695358276367 0.5555704236030579 -0
vn 0.8314695358276367 0.5555704236030579 -0
vn 0.5555698871612549 0.8314698338508606 -0
vn 0.5555698871612549 0.8314698338508606 -0
vn 0.5555698871612549 0.8314698338508606 -0
vn -0.19508421421051025 0.9807865023612976 -0
vn -0.19508421421051025 0.9807865023612976 -0
vn -0.19508421421051025 0.9807865023612976 -0
vn -0.00000009776746168199679 -0 -1
vn -0.00000009776746168199679 -0 -1
vn -0.00000009776746168199679 -0 -1
vn -0.00000010440657405297316 -0 -1
vn -0.00000010440657405297316 -0 -1
vn -0.00000010440657405297316 -0 -1
vn -0.19508419930934906 0.9807865023612976 -0
vn -0.19508419930934906 0.9807865023612976 -0
vn -0.19508419930934906 0.9807865023612976 -0
vn 0.19508373737335205 0.9807866215705872 -0
vn 0.19508373737335205 0.9807866215705872 -0
vn 0.19508373737335205 0.9807866215705872 -0
vn 0.555569589138031 0.8314700722694397 -0
vn 0.555569589138031 0.8314700722694397 -0
vn 0.555569589138031 0.8314700722694397 -0
vn 0.19508372247219086 0.9807866215705872 -0
vn 0.19508372247219086 0.9807866215705872 -0
vn 0.19508372247219086 0.9807866215705872 -0
vn 0.00000013920814012635674 -0 -1
vn 0.00000013920814012635674 -0 -1
vn 0.00000013920814012635674 -0 -1
f 3/3/3 2/2/2 1/1/1
f 6/6/6 5/5/5 4/4/4
f 9/9/9 8/8/8 7/7/7
f 12/12/12 11/11/11 10/10/10
f 15/15/15 14/14/14 13/13/13
f 18/18/18 17/17/17 16/16/16
f 21/21/21 20/20/20 19/19/19
f 24/24/24 23/23/23 22/22/22
f 27/27/27 26/26/26 25/25/25
f 30/30/30 29/29/29 28/28/28
f 33/33/33 32/32/32 31/31/31
f 36/36/36 35/35/35 34/34/34
f 39/39/39 38/38/38 37/37/37
f 42/42/42 41/41/41 40/40/40
f 45/45/45 44/44/44 43/43/43
f 48/48/48 47/47/47 46/46/46
f 51/51/51 50/50/50 49/49/49
f 21/21/21 19/19/19 52/52/52
f 55/55/55 54/54/54 53/53/53
f 56/56/56 21/21/21 52/52/52
f 59/59/59 58/58/58 57/57/57
f 62/62/62 61/61/61 60/60/60
f 65/65/65 64/64/64 63/63/63
f 68/68/68 67/67/67 66/66/66
f 19/19/19 69/69/69 52/52/52
f 72/72/72 71/71/71 70/70/70
f 73/73/73 56/56/56 52/52/52
f 76/76/76 75/75/75 74/74/74
f 79/79/79 78/78/78 77/77/77
f 69/69/69 80/80/80 52/52/52
f 83/83/83 82/82/82 81/81/81
f 86/86/86 85/85/85 84/84/84
f 89/89/89 88/88/88 87/87/87
f 89/89/89 87/87/87 90/90/90
f 91/91/91 73/73/73 52/52/52
f 94/94/94 93/93/93 92/92/92
f 97/97/97 96/96/96 95/95/95
f 100/100/100 99/99/99 98/98/98
f 103/103/103 102/102/102 101/101/101
f 106/106/106 105/105/105 104/104/104
f 109/109/109 108/108/108 107/107/107
f 112/112/112 111/111/111 110/110/110
f 115/115/115 114/114/114 113/113/113
f 118/118/118 117/117/117 116/116/116
f 121/121/121 120/120/120 119/119/119
f 124/124/124 123/123/123 122/122/122
