# VPXTOOL table OBJ file
# VPXTOOL OBJ file
# numVerts: 130 numFaces: 138
o LM_L_LDS_UnderPF
v 285.2306823730469 6.511068820953369 -12.153261184692383
v 274.6127014160156 8.623044967651367 -12.153261184692383
v 285.2306823730469 6.511068820953369 -5.324187755584717
v 274.6127014160156 8.623044967651367 -12.153261184692383
v 263.9947509765625 6.511068820953369 -12.153261184692383
v 274.6127014160156 8.623044967651367 -5.324187755584717
v 274.6127014160156 8.623044967651367 -12.153261184692383
v 274.6127014160156 8.623044967651367 -5.324187755584717
v 285.2306823730469 6.511068820953369 -5.324187755584717
v 263.9947509765625 6.511068820953369 -12.153261184692383
v 263.9947509765625 6.511068820953369 -5.324187755584717
v 274.6127014160156 8.623044967651367 -5.324187755584717
v 294.2321472167969 0.49638327956199646 -12.153261184692383
v 285.2306823730469 6.511068820953369 -12.153261184692383
v 294.2321472167969 0.49638327956199646 -5.324187755584717
v 263.9947509765625 6.511068820953369 -12.153261184692383
v 254.99325561523438 0.49638327956199646 -12.153261184692383
v 263.9947509765625 6.511068820953369 -5.324187755584717
v 285.2306823730469 6.511068820953369 -12.153261184692383
v 285.2306823730469 6.511068820953369 -5.324187755584717
v 294.2321472167969 0.49638327956199646 -5.324187755584717
v 294.2321472167969 0.49638327956199646 -5.324187755584717
v 285.2306823730469 6.511068820953369 -5.324187755584717
v 274.6127014160156 8.623044967651367 -5.324187755584717
v 274.6127014160156 8.623044967651367 -5.324187755584717
v 263.9947509765625 6.511068820953369 -5.324187755584717
v 254.99325561523438 0.49638327956199646 -5.324187755584717
v 254.99325561523438 0.49638327956199646 -12.153261184692383
v 254.99325561523438 0.49638327956199646 -5.324187755584717
v 263.9947509765625 6.511068820953369 -5.324187755584717
v 294.2321472167969 0.49638327956199646 -12.153261184692383
v 294.2321472167969 0.49638327956199646 -5.324187755584717
v 300.2467956542969 -8.505105018615723 -5.324187755584717
v 300.2467956542969 -8.505105018615723 -12.153261184692383
v 294.2321472167969 0.49638327956199646 -12.153261184692383
v 300.2467956542969 -8.505105018615723 -5.324187755584717
v 254.99325561523438 0.49638327956199646 -12.153261184692383
v 248.9786834716797 -8.505105018615723 -12.153261184692383
v 254.99325561523438 0.49638327956199646 -5.324187755584717
v 254.99325561523438 0.49638327956199646 -5.324187755584717
v 248.9786834716797 -8.505105018615723 -5.324187755584717
v 248.9786834716797 -8.505105018615723 -12.153261184692383
v 248.9786834716797 -8.505105018615723 -5.324187755584717
v 254.99325561523438 0.49638327956199646 -5.324187755584717
v 302.35882568359375 -19.123069763183594 -5.324187755584717
v 300.2467956542969 -8.505105018615723 -5.324187755584717
v 294.2321472167969 0.49638327956199646 -5.324187755584717
v 246.8666534423828 -19.123069763183594 -5.324187755584717
v 300.2467956542969 -8.505105018615723 -12.153261184692383
v 300.2467956542969 -8.505105018615723 -5.324187755584717
v 302.35882568359375 -19.123069763183594 -5.324187755584717
v 302.35882568359375 -19.123069763183594 -12.153261184692383
v 300.2467956542969 -8.505105018615723 -12.153261184692383
v 302.35882568359375 -19.123069763183594 -5.324187755584717
v 248.9786834716797 -8.505105018615723 -12.153261184692383
v 246.8666534423828 -19.123069763183594 -12.153261184692383
v 248.9786834716797 -8.505105018615723 -5.324187755584717
v 274.6127014160156 -46.86907196044922 -5.324187755584717
v 294.2321472167969 0.49638327956199646 -5.324187755584717
v 274.6127014160156 8.623044967651367 -5.324187755584717
v 246.8666534423828 -19.123069763183594 -12.153261184692383
v 246.8666534423828 -19.123069763183594 -5.324187755584717
v 248.9786834716797 -8.505105018615723 -5.324187755584717
v 302.35882568359375 -19.123069763183594 -12.153261184692383
v 302.35882568359375 -19.123069763183594 -5.324187755584717
v 300.2467956542969 -29.74103355407715 -5.324187755584717
v 300.2467956542969 -29.74103355407715 -12.153261184692383
v 302.35882568359375 -19.123069763183594 -12.153261184692383
v 300.2467956542969 -29.74103355407715 -5.324187755584717
v 274.6127014160156 8.623044967651367 -5.324187755584717
v 246.8666534423828 -19.123069763183594 -5.324187755584717
v 274.6127014160156 -46.86907196044922 -5.324187755584717
v 246.8666534423828 -19.123069763183594 -12.153261184692383
v 248.9786834716797 -29.74103355407715 -12.153261184692383
v 246.8666534423828 -19.123069763183594 -5.324187755584717
v 274.6127014160156 -46.86907196044922 -5.324187755584717
v 302.35882568359375 -19.123069763183594 -5.324187755584717
v 248.9786834716797 -29.74103355407715 -12.153261184692383
v 248.9786834716797 -29.74103355407715 -5.324187755584717
v 246.8666534423828 -19.123069763183594 -5.324187755584717
v 294.2321472167969 -38.742523193359375 -5.324187755584717
v 300.2467956542969 -29.74103355407715 -5.324187755584717
v 302.35882568359375 -19.123069763183594 -5.324187755584717
v 300.2467956542969 -29.74103355407715 -12.153261184692383
v 300.2467956542969 -29.74103355407715 -5.324187755584717
v 294.2321472167969 -38.742523193359375 -5.324187755584717
v 294.2321472167969 -38.742523193359375 -12.153261184692383
v 300.2467956542969 -29.74103355407715 -12.153261184692383
v 294.2321472167969 -38.742523193359375 -5.324187755584717
v 248.9786834716797 -29.74103355407715 -12.153261184692383
v 254.99325561523438 -38.742523193359375 -12.153261184692383
v 248.9786834716797 -29.74103355407715 -5.324187755584717
v 248.9786834716797 -29.74103355407715 -5.324187755584717
v 294.2321472167969 -38.742523193359375 -5.324187755584717
v 254.99325561523438 -38.742523193359375 -12.153261184692383
v 254.99325561523438 -38.742523193359375 -5.324187755584717
v 248.9786834716797 -29.74103355407715 -5.324187755584717
v 285.2306823730469 -44.75709915161133 -12.153261184692383
v 294.2321472167969 -38.742523193359375 -12.153261184692383
v 285.2306823730469 -44.75709915161133 -5.324187755584717
v 294.2321472167969 -38.742523193359375 -12.153261184692383
v 294.2321472167969 -38.742523193359375 -5.324187755584717
v 285.2306823730469 -44.75709915161133 -5.324187755584717
v 254.99325561523438 -38.742523193359375 -12.153261184692383
v 263.9947509765625 -44.75709915161133 -12.153261184692383
v 254.99325561523438 -38.742523193359375 -5.324187755584717
v 274.6127014160156 -46.86907196044922 -5.324187755584717
v 248.9786834716797 -29.74103355407715 -5.324187755584717
v 254.99325561523438 -38.742523193359375 -5.324187755584717
v 274.6127014160156 -46.86907196044922 -12.153261184692383
v 285.2306823730469 -44.75709915161133 -12.153261184692383
v 274.6127014160156 -46.86907196044922 -5.324187755584717
v 263.9947509765625 -44.75709915161133 -12.153261184692383
v 274.6127014160156 -46.86907196044922 -12.153261184692383
v 263.9947509765625 -44.75709915161133 -5.324187755584717
v 263.9947509765625 -44.75709915161133 -12.153261184692383
v 263.9947509765625 -44.75709915161133 -5.324187755584717
v 254.99325561523438 -38.742523193359375 -5.324187755584717
v 285.2306823730469 -44.75709915161133 -12.153261184692383
v 285.2306823730469 -44.75709915161133 -5.324187755584717
v 274.6127014160156 -46.86907196044922 -5.324187755584717
v 274.6127014160156 -46.86907196044922 -5.324187755584717
v 285.2306823730469 -44.75709915161133 -5.324187755584717
v 294.2321472167969 -38.742523193359375 -5.324187755584717
v 274.6127014160156 -46.86907196044922 -12.153261184692383
v 274.6127014160156 -46.86907196044922 -5.324187755584717
v 263.9947509765625 -44.75709915161133 -5.324187755584717
v 254.99325561523438 -38.742523193359375 -5.324187755584717
v 263.9947509765625 -44.75709915161133 -5.324187755584717
v 274.6127014160156 -46.86907196044922 -5.324187755584717
vt 0.35661429166793823 0.7587120532989502
vt 0.3587217330932617 0.7614055871963501
vt 0.36076563596725464 0.7588299512863159
vt 0.3587217330932617 0.7614055871963501
vt 0.35661429166793823 0.7641395330429077
vt 0.36287063360214233 0.7615185976028442
vt 0.3587217330932617 0.7614055871963501
vt 0.36287063360214233 0.7615185976028442
vt 0.36076563596725464 0.7588299512863159
vt 0.35661429166793823 0.7641395330429077
vt 0.36076563596725464 0.7642475366592407
vt 0.36287063360214233 0.7615185976028442
vt 0.350620299577713 0.7564735412597656
vt 0.35661429166793823 0.7587120532989502
vt 0.3547787666320801 0.7565954327583313
vt 0.35661429166793823 0.7641395330429077
vt 0.350620299577713 0.7664929628372192
vt 0.36076563596725464 0.7642475366592407
vt 0.35661429166793823 0.7587120532989502
vt 0.36076563596725464 0.7588299512863159
vt 0.3547787666320801 0.7565954327583313
vt 0.3547787666320801 0.7565954327583313
vt 0.36076563596725464 0.7588299512863159
vt 0.36287063360214233 0.7615185976028442
vt 0.36287063360214233 0.7615185976028442
vt 0.36076563596725464 0.7642475366592407
vt 0.3547787666320801 0.7665966153144836
vt 0.350620299577713 0.7664929628372192
vt 0.3547787666320801 0.7665966153144836
vt 0.36076563596725464 0.7642475366592407
vt 0.350620299577713 0.7564735412597656
vt 0.3547787666320801 0.7565954327583313
vt 0.34583938121795654 0.7551569938659668
vt 0.34167033433914185 0.7550326585769653
vt 0.350620299577713 0.7564735412597656
vt 0.34583938121795654 0.7551569938659668
vt 0.350620299577713 0.7664929628372192
vt 0.34167033433914185 0.7681055068969727
vt 0.3547787666320801 0.7665966153144836
vt 0.3547787666320801 0.7665966153144836
vt 0.34583938121795654 0.7682060599327087
vt 0.34167033433914185 0.7681055068969727
vt 0.34583938121795654 0.7682060599327087
vt 0.3547787666320801 0.7665966153144836
vt 0.3353261947631836 0.7547315359115601
vt 0.34583938121795654 0.7551569938659668
vt 0.3547787666320801 0.7565954327583313
vt 0.3353261947631836 0.7688327431678772
vt 0.34167033433914185 0.7550326585769653
vt 0.34583938121795654 0.7551569938659668
vt 0.3353261947631836 0.7547315359115601
vt 0.33114495873451233 0.7546066045761108
vt 0.34167033433914185 0.7550326585769653
vt 0.3353261947631836 0.7547315359115601
vt 0.34167033433914185 0.7681055068969727
vt 0.33114495873451233 0.7687335014343262
vt 0.34583938121795654 0.7682060599327087
vt 0.30801519751548767 0.7620434165000916
vt 0.3547787666320801 0.7565954327583313
vt 0.36287063360214233 0.7615185976028442
vt 0.33114495873451233 0.7687335014343262
vt 0.3353261947631836 0.7688327431678772
vt 0.34583938121795654 0.7682060599327087
vt 0.33114495873451233 0.7546066045761108
vt 0.3353261947631836 0.7547315359115601
vt 0.3248473107814789 0.7553790211677551
vt 0.32065388560295105 0.7552555799484253
vt 0.33114495873451233 0.7546066045761108
vt 0.3248473107814789 0.7553790211677551
vt 0.36287063360214233 0.7615185976028442
vt 0.3353261947631836 0.7688327431678772
vt 0.30801519751548767 0.7620434165000916
vt 0.33114495873451233 0.7687335014343262
vt 0.32065388560295105 0.7682858109474182
vt 0.3353261947631836 0.7688327431678772
vt 0.30801519751548767 0.7620434165000916
vt 0.3353261947631836 0.7547315359115601
vt 0.32065388560295105 0.7682858109474182
vt 0.3248473107814789 0.7683857083320618
vt 0.3353261947631836 0.7688327431678772
vt 0.31599050760269165 0.7569965124130249
vt 0.3248473107814789 0.7553790211677551
vt 0.3353261947631836 0.7547315359115601
vt 0.32065388560295105 0.7552555799484253
vt 0.3248473107814789 0.7553790211677551
vt 0.31599050760269165 0.7569965124130249
vt 0.3117866814136505 0.7568761110305786
vt 0.32065388560295105 0.7552555799484253
vt 0.31599050760269165 0.7569965124130249
vt 0.32065388560295105 0.7682858109474182
vt 0.3117866814136505 0.7668353319168091
vt 0.3248473107814789 0.7683857083320618
vt 0.3248473107814789 0.7683857083320618
vt 0.31599050760269165 0.7569965124130249
vt 0.3117866814136505 0.7668353319168091
vt 0.31599050760269165 0.7669377326965332
vt 0.3248473107814789 0.7683857083320618
vt 0.30587542057037354 0.7592200040817261
vt 0.3117866814136505 0.7568761110305786
vt 0.31008607149124146 0.759335994720459
vt 0.3117866814136505 0.7568761110305786
vt 0.31599050760269165 0.7569965124130249
vt 0.31008607149124146 0.759335994720459
vt 0.3117866814136505 0.7668353319168091
vt 0.30587542057037354 0.7646048665046692
vt 0.31599050760269165 0.7669377326965332
vt 0.30801519751548767 0.7620434165000916
vt 0.3248473107814789 0.7683857083320618
vt 0.31599050760269165 0.7669377326965332
vt 0.3038022518157959 0.7619323134422302
vt 0.30587542057037354 0.7592200040817261
vt 0.30801519751548767 0.7620434165000916
vt 0.30587542057037354 0.7646048665046692
vt 0.3038022518157959 0.7619323134422302
vt 0.31008607149124146 0.7647112011909485
vt 0.30587542057037354 0.7646048665046692
vt 0.31008607149124146 0.7647112011909485
vt 0.31599050760269165 0.7669377326965332
vt 0.30587542057037354 0.7592200040817261
vt 0.31008607149124146 0.759335994720459
vt 0.30801519751548767 0.7620434165000916
vt 0.30801519751548767 0.7620434165000916
vt 0.31008607149124146 0.759335994720459
vt 0.31599050760269165 0.7569965124130249
vt 0.3038022518157959 0.7619323134422302
vt 0.30801519751548767 0.7620434165000916
vt 0.31008607149124146 0.7647112011909485
vt 0.31599050760269165 0.7669377326965332
vt 0.31008607149124146 0.7647112011909485
vt 0.30801519751548767 0.7620434165000916
vn -0.19508405029773712 -0.9807865023612976 -0
vn -0.19508405029773712 -0.9807865023612976 -0
vn -0.19508405029773712 -0.9807865023612976 -0
vn 0.19508405029773712 -0.9807865023612976 -0
vn 0.19508405029773712 -0.9807865023612976 -0
vn 0.19508405029773712 -0.9807865023612976 -0
vn -0.1950840801000595 -0.9807865023612976 -0
vn -0.1950840801000595 -0.9807865023612976 -0
vn -0.1950840801000595 -0.9807865023612976 -0
vn 0.1950840801000595 -0.9807865023612976 -0
vn 0.1950840801000595 -0.9807865023612976 -0
vn 0.1950840801000595 -0.9807865023612976 -0
vn -0.5555771589279175 -0.831464946269989 -0
vn -0.5555771589279175 -0.831464946269989 -0
vn -0.5555771589279175 -0.831464946269989 -0
vn 0.5555771589279175 -0.831464946269989 -0
vn 0.5555771589279175 -0.831464946269989 -0
vn 0.5555771589279175 -0.831464946269989 -0
vn -0.5555745363235474 -0.8314667344093323 -0
vn -0.5555745363235474 -0.8314667344093323 -0
vn -0.5555745363235474 -0.8314667344093323 -0
vn 0 -0 -1
vn 0 -0 -1
vn 0 -0 -1
vn -0.00000003480130672528503 -0 -0.9999999403953552
vn -0.00000003480130672528503 -0 -0.9999999403953552
vn -0.00000003480130672528503 -0 -0.9999999403953552
vn 0.5555745363235474 -0.8314667344093323 -0
vn 0.5555745363235474 -0.8314667344093323 -0
vn 0.5555745363235474 -0.8314667344093323 -0
vn -0.8314679265022278 -0.5555727481842041 -0
vn -0.8314679265022278 -0.5555727481842041 -0
vn -0.8314679265022278 -0.5555727481842041 -0
vn -0.8314680457115173 -0.5555726289749146 -0
vn -0.8314680457115173 -0.5555726289749146 -0
vn -0.8314680457115173 -0.5555726289749146 -0
vn 0.8314706087112427 -0.5555689334869385 -0
vn 0.8314706087112427 -0.5555689334869385 -0
vn 0.8314706087112427 -0.5555689334869385 -0
vn 0 -0 -1
vn 0 -0 -1
vn 0.8314704895019531 -0.5555689930915833 -0
vn 0.8314704895019531 -0.5555689930915833 -0
vn 0.8314704895019531 -0.5555689930915833 -0
vn 0.0000002784170476388681 -0 -1
vn 0.0000002784170476388681 -0 -1
vn 0.0000002784170476388681 -0 -1
vn 0 -0 -1
vn -0.9807857275009155 -0.19508817791938782 -0
vn -0.9807857275009155 -0.19508817791938782 -0
vn -0.9807857275009155 -0.19508817791938782 -0
vn -0.9807857275009155 -0.1950882077217102 -0
vn -0.9807857275009155 -0.1950882077217102 -0
vn -0.9807857275009155 -0.1950882077217102 -0
vn 0.9807857275009155 -0.1950882077217102 -0
vn 0.9807857275009155 -0.1950882077217102 -0
vn 0.9807857275009155 -0.1950882077217102 -0
vn 0 -0 -0.9999999403953552
vn 0 -0 -0.9999999403953552
vn 0 -0 -0.9999999403953552
vn 0.9807857275009155 -0.19508817791938782 -0
vn 0.9807857275009155 -0.19508817791938782 -0
vn 0.9807857275009155 -0.19508817791938782 -0
vn -0.9807857275009155 0.19508817791938782 -0
vn -0.9807857275009155 0.19508817791938782 -0
vn -0.9807857275009155 0.19508817791938782 -0
vn -0.9807857275009155 0.1950882077217102 -0
vn -0.9807857275009155 0.1950882077217102 -0
vn -0.9807857275009155 0.1950882077217102 -0
vn -0.000000016220800702626548 -0 -1
vn -0.000000016220800702626548 -0 -1
vn -0.000000016220800702626548 -0 -1
vn 0.9807857275009155 0.1950882077217102 -0
vn 0.9807857275009155 0.1950882077217102 -0
vn 0.9807857275009155 0.1950882077217102 -0
vn 0 -0 -1
vn 0 -0 -1
vn 0.9807857275009155 0.19508817791938782 -0
vn 0.9807857275009155 0.19508817791938782 -0
vn 0.9807857275009155 0.19508817791938782 -0
vn 0.00000013920860908456234 -0 -1
vn 0.00000013920860908456234 -0 -1
vn 0.00000013920860908456234 -0 -1
vn -0.8314679265022278 0.5555727481842041 -0
vn -0.8314679265022278 0.5555727481842041 -0
vn -0.8314679265022278 0.5555727481842041 -0
vn -0.8314680457115173 0.5555726289749146 -0
vn -0.8314680457115173 0.5555726289749146 -0
vn -0.8314680457115173 0.5555726289749146 -0
vn 0.8314706087112427 0.5555689334869385 -0
vn 0.8314706087112427 0.5555689334869385 -0
vn 0.8314706087112427 0.5555689334869385 -0
vn 0 -0 -1
vn 0 -0 -1
vn 0.8314704895019531 0.5555689930915833 -0
vn 0.8314704895019531 0.5555689930915833 -0
vn 0.8314704895019531 0.5555689930915833 -0
vn -0.5555675625801086 0.8314713835716248 -0
vn -0.5555675625801086 0.8314713835716248 -0
vn -0.5555675625801086 0.8314713835716248 -0
vn -0.5555700659751892 0.8314697742462158 -0
vn -0.5555700659751892 0.8314697742462158 -0
vn -0.5555700659751892 0.8314697742462158 -0
vn 0.5555675625801086 0.8314713835716248 -0
vn 0.5555675625801086 0.8314713835716248 -0
vn 0.5555675625801086 0.8314713835716248 -0
vn -0.00000009776730536259493 -0 -1
vn -0.00000009776730536259493 -0 -1
vn -0.00000009776730536259493 -0 -1
vn -0.19508405029773712 0.9807865023612976 -0
vn -0.19508405029773712 0.9807865023612976 -0
vn -0.19508405029773712 0.9807865023612976 -0
vn 0.19508405029773712 0.9807865023612976 -0
vn 0.19508405029773712 0.9807865023612976 -0
vn 0.19508405029773712 0.9807865023612976 -0
vn 0.5555700659751892 0.8314697742462158 -0
vn 0.5555700659751892 0.8314697742462158 -0
vn 0.5555700659751892 0.8314697742462158 -0
vn -0.1950840801000595 0.9807865023612976 -0
vn -0.1950840801000595 0.9807865023612976 -0
vn -0.1950840801000595 0.9807865023612976 -0
vn -0.00000010440633957387035 -0 -1
vn -0.00000010440633957387035 -0 -1
vn -0.00000010440633957387035 -0 -1
vn 0.1950840801000595 0.9807865023612976 -0
vn 0.1950840801000595 0.9807865023612976 -0
vn 0.1950840801000595 0.9807865023612976 -0
vn 0.00000013920860908456234 -0 -1
vn 0.00000013920860908456234 -0 -1
vn 0.00000013920860908456234 -0 -1
f 3/3/3 2/2/2 1/1/1
f 6/6/6 5/5/5 4/4/4
f 9/9/9 8/8/8 7/7/7
f 12/12/12 11/11/11 10/10/10
f 15/15/15 14/14/14 13/13/13
f 18/18/18 17/17/17 16/16/16
f 21/21/21 20/20/20 19/19/19
f 24/24/24 23/23/23 22/22/22
f 27/27/27 26/26/26 25/25/25
f 30/30/30 29/29/29 28/28/28
f 33/33/33 32/32/32 31/31/31
f 36/36/36 35/35/35 34/34/34
f 39/39/39 38/38/38 37/37/37
f 41/41/41 40/40/40 24/24/24
f 44/44/44 43/43/43 42/42/42
f 47/47/47 46/46/46 45/45/45
f 48/48/48 41/41/41 24/24/24
f 51/51/51 50/50/50 49/49/49
f 54/54/54 53/53/53 52/52/52
f 57/57/57 56/56/56 55/55/55
f 60/60/60 59/59/59 58/58/58
f 63/63/63 62/62/62 61/61/61
f 66/66/66 65/65/65 64/64/64
f 69/69/69 68/68/68 67/67/67
f 72/72/72 71/71/71 70/70/70
f 75/75/75 74/74/74 73/73/73
f 22/22/22 77/77/77 76/76/76
f 80/80/80 79/79/79 78/78/78
f 83/83/83 82/82/82 81/81/81
f 86/86/86 85/85/85 84/84/84
f 89/89/89 88/88/88 87/87/87
f 92/92/92 91/91/91 90/90/90
f 93/93/93 48/48/48 76/76/76
f 77/77/77 94/94/94 76/76/76
f 97/97/97 96/96/96 95/95/95
f 100/100/100 99/99/99 98/98/98
f 103/103/103 102/102/102 101/101/101
f 106/106/106 105/105/105 104/104/104
f 109/109/109 108/108/108 107/107/107
f 112/112/112 111/111/111 110/110/110
f 115/115/115 114/114/114 113/113/113
f 118/118/118 117/117/117 116/116/116
f 121/121/121 120/120/120 119/119/119
f 124/124/124 123/123/123 122/122/122
f 127/127/127 126/126/126 125/125/125
f 130/130/130 129/129/129 128/128/128
