# VPXTOOL table OBJ file
# VPXTOOL OBJ file
# numVerts: 130 numFaces: 138
o LM_L_LW4_UnderPF
v -4.476974010467529 -112.1979751586914 -12.23087215423584
v -13.502260208129883 -110.4027099609375 -12.23087215423584
v -4.476974010467529 -112.1979751586914 -6.426159381866455
v -13.502260208129883 -110.4027099609375 -12.23087215423584
v -22.52751922607422 -112.1979751586914 -12.23087215423584
v -13.502260208129883 -110.4027099609375 -6.426159381866455
v -13.502260208129883 -110.4027099609375 -6.426159381866455
v 3.174285411834717 -117.31033325195313 -12.23087215423584
v -4.476974010467529 -112.1979751586914 -12.23087215423584
v 3.174285411834717 -117.31033325195313 -6.426159381866455
v -4.476974010467529 -112.1979751586914 -12.23087215423584
v -4.476974010467529 -112.1979751586914 -6.426159381866455
v 3.174285411834717 -117.31033325195313 -6.426159381866455
v -22.52751922607422 -112.1979751586914 -12.23087215423584
v -22.52751922607422 -112.1979751586914 -6.426159381866455
v -13.502260208129883 -110.4027099609375 -6.426159381866455
v -22.52751922607422 -112.1979751586914 -12.23087215423584
v -30.17877769470215 -117.31033325195313 -12.23087215423584
v -22.52751922607422 -112.1979751586914 -6.426159381866455
v 3.174285411834717 -117.31033325195313 -12.23087215423584
v 3.174285411834717 -117.31033325195313 -6.426159381866455
v 8.286702156066895 -124.96159362792969 -6.426159381866455
v 8.286702156066895 -124.96159362792969 -12.23087215423584
v 3.174285411834717 -117.31033325195313 -12.23087215423584
v 8.286702156066895 -124.96159362792969 -6.426159381866455
v -30.17877769470215 -117.31033325195313 -12.23087215423584
v -30.17877769470215 -117.31033325195313 -6.426159381866455
v -22.52751922607422 -112.1979751586914 -6.426159381866455
v 10.081936836242676 -133.98687744140625 -6.426159381866455
v -4.476974010467529 -112.1979751586914 -6.426159381866455
v -13.502260208129883 -110.4027099609375 -6.426159381866455
v 10.081936836242676 -133.98687744140625 -6.426159381866455
v 3.174285411834717 -117.31033325195313 -6.426159381866455
v -4.476974010467529 -112.1979751586914 -6.426159381866455
v -30.17877769470215 -117.31033325195313 -12.23087215423584
v -35.291194915771484 -124.96159362792969 -12.23087215423584
v -30.17877769470215 -117.31033325195313 -6.426159381866455
v -37.086429595947266 -133.98687744140625 -6.426159381866455
v -13.502260208129883 -110.4027099609375 -6.426159381866455
v -22.52751922607422 -112.1979751586914 -6.426159381866455
v 10.081936836242676 -133.98687744140625 -6.426159381866455
v 8.286702156066895 -124.96159362792969 -6.426159381866455
v 3.174285411834717 -117.31033325195313 -6.426159381866455
v 8.286702156066895 -124.96159362792969 -12.23087215423584
v 8.286702156066895 -124.96159362792969 -6.426159381866455
v 10.081936836242676 -133.98687744140625 -6.426159381866455
v 10.081936836242676 -133.98687744140625 -12.23087215423584
v 8.286702156066895 -124.96159362792969 -12.23087215423584
v 10.081936836242676 -133.98687744140625 -6.426159381866455
v -37.086429595947266 -133.98687744140625 -6.426159381866455
v -22.52751922607422 -112.1979751586914 -6.426159381866455
v -30.17877769470215 -117.31033325195313 -6.426159381866455
v -35.291194915771484 -124.96159362792969 -12.23087215423584
v -35.291194915771484 -124.96159362792969 -6.426159381866455
v -30.17877769470215 -117.31033325195313 -6.426159381866455
v -35.291194915771484 -124.96159362792969 -12.23087215423584
v -37.086429595947266 -133.98687744140625 -12.23087215423584
v -35.291194915771484 -124.96159362792969 -6.426159381866455
v -30.17877769470215 -117.31033325195313 -6.426159381866455
v -35.291194915771484 -124.96159362792969 -6.426159381866455
v -37.086429595947266 -133.98687744140625 -6.426159381866455
v -13.502260208129883 -110.4027099609375 -6.426159381866455
v 3.174285411834717 -150.66342163085938 -6.426159381866455
v 10.081936836242676 -133.98687744140625 -6.426159381866455
v 10.081936836242676 -133.98687744140625 -12.23087215423584
v 10.081936836242676 -133.98687744140625 -6.426159381866455
v 8.286702156066895 -143.0121612548828 -6.426159381866455
v 8.286702156066895 -143.0121612548828 -12.23087215423584
v 10.081936836242676 -133.98687744140625 -12.23087215423584
v 8.286702156066895 -143.0121612548828 -6.426159381866455
v -37.086429595947266 -133.98687744140625 -12.23087215423584
v -37.086429595947266 -133.98687744140625 -6.426159381866455
v -35.291194915771484 -124.96159362792969 -6.426159381866455
v -13.502260208129883 -110.4027099609375 -6.426159381866455
v -37.086429595947266 -133.98687744140625 -6.426159381866455
v -30.17877769470215 -150.66342163085938 -6.426159381866455
v -37.086429595947266 -133.98687744140625 -12.23087215423584
v -35.291194915771484 -143.0121612548828 -12.23087215423584
v -37.086429595947266 -133.98687744140625 -6.426159381866455
v -13.502260208129883 -110.4027099609375 -6.426159381866455
v -13.502260208129883 -157.57110595703125 -6.426159381866455
v 3.174285411834717 -150.66342163085938 -6.426159381866455
v 3.174285411834717 -150.66342163085938 -6.426159381866455
v 8.286702156066895 -143.0121612548828 -6.426159381866455
v 10.081936836242676 -133.98687744140625 -6.426159381866455
v 8.286702156066895 -143.0121612548828 -12.23087215423584
v 8.286702156066895 -143.0121612548828 -6.426159381866455
v 3.174285411834717 -150.66342163085938 -6.426159381866455
v -30.17877769470215 -150.66342163085938 -6.426159381866455
v 3.174285411834717 -150.66342163085938 -12.23087215423584
v 8.286702156066895 -143.0121612548828 -12.23087215423584
v 3.174285411834717 -150.66342163085938 -6.426159381866455
v -35.291194915771484 -143.0121612548828 -12.23087215423584
v -35.291194915771484 -143.0121612548828 -6.426159381866455
v -37.086429595947266 -133.98687744140625 -6.426159381866455
v -35.291194915771484 -143.0121612548828 -12.23087215423584
v -30.17877769470215 -150.66342163085938 -12.23087215423584
v -35.291194915771484 -143.0121612548828 -6.426159381866455
v -37.086429595947266 -133.98687744140625 -6.426159381866455
v -35.291194915771484 -143.0121612548828 -6.426159381866455
v -30.17877769470215 -150.66342163085938 -6.426159381866455
v 3.174285411834717 -150.66342163085938 -12.23087215423584
v 3.174285411834717 -150.66342163085938 -6.426159381866455
v -4.476974010467529 -155.77584838867188 -6.426159381866455
v -4.476974010467529 -155.77584838867188 -12.23087215423584
v -30.17877769470215 -150.66342163085938 -12.23087215423584
v -30.17877769470215 -150.66342163085938 -6.426159381866455
v -35.291194915771484 -143.0121612548828 -6.426159381866455
v -30.17877769470215 -150.66342163085938 -12.23087215423584
v -22.52751922607422 -155.77584838867188 -12.23087215423584
v -30.17877769470215 -150.66342163085938 -6.426159381866455
v -13.502260208129883 -157.57110595703125 -12.23087215423584
v -4.476974010467529 -155.77584838867188 -12.23087215423584
v -13.502260208129883 -157.57110595703125 -6.426159381866455
v -13.502260208129883 -157.57110595703125 -6.426159381866455
v -4.476974010467529 -155.77584838867188 -6.426159381866455
v 3.174285411834717 -150.66342163085938 -6.426159381866455
v -4.476974010467529 -155.77584838867188 -12.23087215423584
v -4.476974010467529 -155.77584838867188 -6.426159381866455
v -13.502260208129883 -157.57110595703125 -6.426159381866455
v -22.52751922607422 -155.77584838867188 -12.23087215423584
v -13.502260208129883 -157.57110595703125 -12.23087215423584
v -22.52751922607422 -155.77584838867188 -6.426159381866455
v -22.52751922607422 -155.77584838867188 -12.23087215423584
v -22.52751922607422 -155.77584838867188 -6.426159381866455
v -30.17877769470215 -150.66342163085938 -6.426159381866455
v -13.502260208129883 -157.57110595703125 -12.23087215423584
v -13.502260208129883 -157.57110595703125 -6.426159381866455
v -22.52751922607422 -155.77584838867188 -6.426159381866455
v -22.52751922607422 -155.77584838867188 -6.426159381866455
vt 0.8753268122673035 0.4235309362411499
vt 0.8770542144775391 0.42579931020736694
vt 0.8789700269699097 0.42351704835891724
vt 0.8770542144775391 0.42579931020736694
vt 0.8753268122673035 0.42806142568588257
vt 0.8806958198547363 0.4257819652557373
vt 0.8806958198547363 0.4257819652557373
vt 0.8704125881195068 0.4216049909591675
vt 0.8753268122673035 0.4235309362411499
vt 0.8740605115890503 0.4215940237045288
vt 0.8753268122673035 0.4235309362411499
vt 0.8789700269699097 0.42351704835891724
vt 0.8740605115890503 0.4215940237045288
vt 0.8753268122673035 0.42806142568588257
vt 0.8789700269699097 0.42804068326950073
vt 0.8806958198547363 0.4257819652557373
vt 0.8753268122673035 0.42806142568588257
vt 0.8704125881195068 0.42996978759765625
vt 0.8789700269699097 0.42804068326950073
vt 0.8704125881195068 0.4216049909591675
vt 0.8740605115890503 0.4215940237045288
vt 0.8667269945144653 0.4203069806098938
vt 0.8630722165107727 0.4203159213066101
vt 0.8704125881195068 0.4216049909591675
vt 0.8667269945144653 0.4203069806098938
vt 0.8704125881195068 0.42996978759765625
vt 0.8740605115890503 0.4299461245536804
vt 0.8789700269699097 0.42804068326950073
vt 0.8580983877182007 0.4198504686355591
vt 0.8789700269699097 0.42351704835891724
vt 0.8806958198547363 0.4257819652557373
vt 0.8580983877182007 0.4198504686355591
vt 0.8740605115890503 0.4215940237045288
vt 0.8789700269699097 0.42351704835891724
vt 0.8704125881195068 0.42996978759765625
vt 0.8630722165107727 0.4312324523925781
vt 0.8740605115890503 0.4299461245536804
vt 0.8580983877182007 0.43163245916366577
vt 0.8806958198547363 0.4257819652557373
vt 0.8789700269699097 0.42804068326950073
vt 0.8580983877182007 0.4198504686355591
vt 0.8667269945144653 0.4203069806098938
vt 0.8740605115890503 0.4215940237045288
vt 0.8630722165107727 0.4203159213066101
vt 0.8667269945144653 0.4203069806098938
vt 0.8580983877182007 0.4198504686355591
vt 0.8544355034828186 0.41985875368118286
vt 0.8630722165107727 0.4203159213066101
vt 0.8580983877182007 0.4198504686355591
vt 0.8580983877182007 0.43163245916366577
vt 0.8789700269699097 0.42804068326950073
vt 0.8740605115890503 0.4299461245536804
vt 0.8630722165107727 0.4312324523925781
vt 0.8667269945144653 0.4312068819999695
vt 0.8740605115890503 0.4299461245536804
vt 0.8630722165107727 0.4312324523925781
vt 0.8544355034828186 0.43165862560272217
vt 0.8667269945144653 0.4312068819999695
vt 0.8740605115890503 0.4299461245536804
vt 0.8667269945144653 0.4312068819999695
vt 0.8580983877182007 0.43163245916366577
vt 0.8806958198547363 0.4257819652557373
vt 0.8422163724899292 0.4215579032897949
vt 0.8580983877182007 0.4198504686355591
vt 0.8544355034828186 0.41985875368118286
vt 0.8580983877182007 0.4198504686355591
vt 0.8494932055473328 0.42029088735580444
vt 0.8458222150802612 0.42029982805252075
vt 0.8544355034828186 0.41985875368118286
vt 0.8494932055473328 0.42029088735580444
vt 0.8544355034828186 0.43165862560272217
vt 0.8580983877182007 0.43163245916366577
vt 0.8667269945144653 0.4312068819999695
vt 0.8806958198547363 0.4257819652557373
vt 0.8580983877182007 0.43163245916366577
vt 0.8422163724899292 0.4298681616783142
vt 0.8544355034828186 0.43165862560272217
vt 0.8458222150802612 0.43118661642074585
vt 0.8580983877182007 0.43163245916366577
vt 0.8806958198547363 0.4257819652557373
vt 0.8356611132621765 0.4257013201713562
vt 0.8422163724899292 0.4215579032897949
vt 0.8422163724899292 0.4215579032897949
vt 0.8494932055473328 0.42029088735580444
vt 0.8580983877182007 0.4198504686355591
vt 0.8458222150802612 0.42029982805252075
vt 0.8494932055473328 0.42029088735580444
vt 0.8422163724899292 0.4215579032897949
vt 0.8422163724899292 0.4298681616783142
vt 0.8385385274887085 0.42156875133514404
vt 0.8458222150802612 0.42029982805252075
vt 0.8422163724899292 0.4215579032897949
vt 0.8458222150802612 0.43118661642074585
vt 0.8494932055473328 0.43116122484207153
vt 0.8580983877182007 0.43163245916366577
vt 0.8458222150802612 0.43118661642074585
vt 0.8385385274887085 0.42989158630371094
vt 0.8494932055473328 0.43116122484207153
vt 0.8580983877182007 0.43163245916366577
vt 0.8494932055473328 0.43116122484207153
vt 0.8422163724899292 0.4298681616783142
vt 0.8385385274887085 0.42156875133514404
vt 0.8422163724899292 0.4215579032897949
vt 0.8373634815216064 0.4234573245048523
vt 0.8336811065673828 0.42347103357315063
vt 0.8385385274887085 0.42989158630371094
vt 0.8422163724899292 0.4298681616783142
vt 0.8494932055473328 0.43116122484207153
vt 0.8385385274887085 0.42989158630371094
vt 0.8336811065673828 0.42797183990478516
vt 0.8422163724899292 0.4298681616783142
vt 0.8319772481918335 0.42571842670440674
vt 0.8336811065673828 0.42347103357315063
vt 0.8356611132621765 0.4257013201713562
vt 0.8356611132621765 0.4257013201713562
vt 0.8373634815216064 0.4234573245048523
vt 0.8422163724899292 0.4215579032897949
vt 0.8336811065673828 0.42347103357315063
vt 0.8373634815216064 0.4234573245048523
vt 0.8356611132621765 0.4257013201713562
vt 0.8336811065673828 0.42797183990478516
vt 0.8319772481918335 0.42571842670440674
vt 0.8373634815216064 0.4279513359069824
vt 0.8336811065673828 0.42797183990478516
vt 0.8373634815216064 0.4279513359069824
vt 0.8422163724899292 0.4298681616783142
vt 0.8319772481918335 0.42571842670440674
vt 0.8356611132621765 0.4257013201713562
vt 0.8373634815216064 0.4279513359069824
vt 0.8373634815216064 0.4279513359069824
vn -0.19509252905845642 -0.9807848334312439 -0
vn -0.19509252905845642 -0.9807848334312439 -0
vn -0.19509252905845642 -0.9807848334312439 -0
vn 0.19509312510490417 -0.9807847738265991 -0
vn 0.19509312510490417 -0.9807847738265991 -0
vn 0.19509312510490417 -0.9807847738265991 -0
vn -0.19509252905845642 -0.9807848334312439 -0
vn -0.5555667281150818 -0.8314719200134277 -0
vn -0.5555667281150818 -0.8314719200134277 -0
vn -0.5555667281150818 -0.8314719200134277 -0
vn -0.555566668510437 -0.8314720392227173 -0
vn -0.555566668510437 -0.8314720392227173 -0
vn -0.555566668510437 -0.8314720392227173 -0
vn 0.19509314000606537 -0.9807847738265991 -0
vn 0.19509314000606537 -0.9807847738265991 -0
vn 0.19509314000606537 -0.9807847738265991 -0
vn 0.5555665493011475 -0.8314719796180725 -0
vn 0.5555665493011475 -0.8314719796180725 -0
vn 0.5555665493011475 -0.8314719796180725 -0
vn -0.8314692378044128 -0.5555708408355713 -0
vn -0.8314692378044128 -0.5555708408355713 -0
vn -0.8314692378044128 -0.5555708408355713 -0
vn -0.8314691781997681 -0.5555709004402161 -0
vn -0.8314691781997681 -0.5555709004402161 -0
vn -0.8314691781997681 -0.5555709004402161 -0
vn 0.5555667281150818 -0.8314719200134277 -0
vn 0.5555667281150818 -0.8314719200134277 -0
vn 0.5555667281150818 -0.8314719200134277 -0
vn 0.0000001464688068608666 -0 -0.9999999403953552
vn 0.0000001464688068608666 -0 -0.9999999403953552
vn 0.0000001464688068608666 -0 -0.9999999403953552
vn -0.00000027063657626058557 -0 -1
vn -0.00000027063657626058557 -0 -1
vn -0.00000027063657626058557 -0 -1
vn 0.8314692378044128 -0.5555707216262817 -0
vn 0.8314692378044128 -0.5555707216262817 -0
vn 0.8314692378044128 -0.5555707216262817 -0
vn -0.0000001464691621322345 -0 -1
vn -0.0000001464691621322345 -0 -1
vn -0.0000001464691621322345 -0 -1
vn 0.0000003853546672871744 -0 -1
vn 0.0000003853546672871744 -0 -1
vn 0.0000003853546672871744 -0 -1
vn -0.9807854294776917 -0.19508959352970123 -0
vn -0.9807854294776917 -0.19508959352970123 -0
vn -0.9807854294776917 -0.19508959352970123 -0
vn -0.9807854294776917 -0.19508954882621765 -0
vn -0.9807854294776917 -0.19508954882621765 -0
vn -0.9807854294776917 -0.19508954882621765 -0
vn 0.00000027063657626058557 -0 -1
vn 0.00000027063657626058557 -0 -1
vn 0.00000027063657626058557 -0 -1
vn 0.8314690589904785 -0.5555711388587952 -0
vn 0.8314690589904785 -0.5555711388587952 -0
vn 0.8314690589904785 -0.5555711388587952 -0
vn 0.9807854294776917 -0.19508931040763855 -0
vn 0.9807854294776917 -0.19508931040763855 -0
vn 0.9807854294776917 -0.19508931040763855 -0
vn -0.00000019267703521563817 -0 -1
vn -0.00000019267703521563817 -0 -1
vn -0.00000019267703521563817 -0 -1
vn -0.00000008980336474451178 -0 -1
vn -0.00000008980336474451178 -0 -1
vn -0.00000008980336474451178 -0 -1
vn -0.9807854294776917 0.19508959352970123 -0
vn -0.9807854294776917 0.19508959352970123 -0
vn -0.9807854294776917 0.19508959352970123 -0
vn -0.9807854294776917 0.19508954882621765 -0
vn -0.9807854294776917 0.19508954882621765 -0
vn -0.9807854294776917 0.19508954882621765 -0
vn 0.9807853102684021 -0.19509027898311615 -0
vn 0.9807853102684021 -0.19509027898311615 -0
vn 0.9807853102684021 -0.19509027898311615 -0
vn 0.00000004490174632110211 -0 -0.9999999403953552
vn 0.00000004490174632110211 -0 -0.9999999403953552
vn 0.00000004490174632110211 -0 -0.9999999403953552
vn 0.9807853102684021 0.19509021937847137 -0
vn 0.9807853102684021 0.19509021937847137 -0
vn 0.9807853102684021 0.19509021937847137 -0
vn 0 -0 -1
vn 0 -0 -1
vn 0 -0 -1
vn 0.0000001926758557146968 -0 -1
vn 0.0000001926758557146968 -0 -1
vn 0.0000001926758557146968 -0 -1
vn -0.8314691185951233 0.5555709600448608 -0
vn -0.8314691185951233 0.5555709600448608 -0
vn -0.8314691185951233 0.5555709600448608 -0
vn 0 -0 -1
vn -0.8314692378044128 0.5555707812309265 -0
vn -0.8314692378044128 0.5555707812309265 -0
vn -0.8314692378044128 0.5555707812309265 -0
vn 0.9807854294776917 0.19508935511112213 -0
vn 0.9807854294776917 0.19508935511112213 -0
vn 0.9807854294776917 0.19508935511112213 -0
vn 0.8314691185951233 0.5555710792541504 -0
vn 0.8314691185951233 0.5555710792541504 -0
vn 0.8314691185951233 0.5555710792541504 -0
vn -0.00000038535230828529166 -0 -1
vn -0.00000038535230828529166 -0 -1
vn -0.00000038535230828529166 -0 -1
vn -0.5555708408355713 0.8314691781997681 -0
vn -0.5555708408355713 0.8314691781997681 -0
vn -0.5555708408355713 0.8314691781997681 -0
vn -0.5555708408355713 0.8314691781997681 -0
vn 0.8314692378044128 0.5555707812309265 -0
vn 0.8314692378044128 0.5555707812309265 -0
vn 0.8314692378044128 0.5555707812309265 -0
vn 0.5555709004402161 0.8314691185951233 -0
vn 0.5555709004402161 0.8314691185951233 -0
vn 0.5555709004402161 0.8314691185951233 -0
vn -0.1950925588607788 0.9807848334312439 -0
vn -0.1950925588607788 0.9807848334312439 -0
vn -0.1950925588607788 0.9807848334312439 -0
vn 0.00000004817000132106841 -0 -1
vn 0.00000004817000132106841 -0 -1
vn 0.00000004817000132106841 -0 -1
vn -0.19509249925613403 0.9807848334312439 -0
vn -0.19509249925613403 0.9807848334312439 -0
vn -0.19509249925613403 0.9807848334312439 -0
vn 0.19509316980838776 0.9807847738265991 -0
vn 0.19509316980838776 0.9807847738265991 -0
vn 0.19509316980838776 0.9807847738265991 -0
vn 0.5555707216262817 0.8314692974090576 -0
vn 0.5555707216262817 0.8314692974090576 -0
vn 0.5555707216262817 0.8314692974090576 -0
vn 0.1950930953025818 0.9807847738265991 -0
vn 0.1950930953025818 0.9807847738265991 -0
vn 0.1950930953025818 0.9807847738265991 -0
vn 0 -0 -1
f 3/3/3 2/2/2 1/1/1
f 6/6/6 5/5/5 4/4/4
f 3/3/3 7/7/7 2/2/2
f 10/10/10 9/9/9 8/8/8
f 13/13/13 12/12/12 11/11/11
f 16/16/16 15/15/15 14/14/14
f 19/19/19 18/18/18 17/17/17
f 22/22/22 21/21/21 20/20/20
f 25/25/25 24/24/24 23/23/23
f 28/28/28 27/27/27 26/26/26
f 31/31/31 30/30/30 29/29/29
f 34/34/34 33/33/33 32/32/32
f 37/37/37 36/36/36 35/35/35
f 40/40/40 39/39/39 38/38/38
f 43/43/43 42/42/42 41/41/41
f 46/46/46 45/45/45 44/44/44
f 49/49/49 48/48/48 47/47/47
f 52/52/52 51/51/51 50/50/50
f 55/55/55 54/54/54 53/53/53
f 58/58/58 57/57/57 56/56/56
f 61/61/61 60/60/60 59/59/59
f 64/64/64 63/63/63 62/62/62
f 67/67/67 66/66/66 65/65/65
f 70/70/70 69/69/69 68/68/68
f 73/73/73 72/72/72 71/71/71
f 76/76/76 75/75/75 74/74/74
f 79/79/79 78/78/78 77/77/77
f 82/82/82 81/81/81 80/80/80
f 85/85/85 84/84/84 83/83/83
f 88/88/88 87/87/87 86/86/86
f 81/81/81 89/89/89 80/80/80
f 92/92/92 91/91/91 90/90/90
f 95/95/95 94/94/94 93/93/93
f 98/98/98 97/97/97 96/96/96
f 101/101/101 100/100/100 99/99/99
f 104/104/104 103/103/103 102/102/102
f 104/104/104 102/102/102 105/105/105
f 108/108/108 107/107/107 106/106/106
f 111/111/111 110/110/110 109/109/109
f 114/114/114 113/113/113 112/112/112
f 117/117/117 116/116/116 115/115/115
f 120/120/120 119/119/119 118/118/118
f 123/123/123 122/122/122 121/121/121
f 126/126/126 125/125/125 124/124/124
f 129/129/129 128/128/128 127/127/127
f 81/81/81 130/130/130 89/89/89
