# VPXTOOL table OBJ file
# VPXTOOL OBJ file
# numVerts: 130 numFaces: 138
o LM_GI_gi08_UnderPF
v 306.9704284667969 480.91290283203125 -32.3721809387207
v 297.9451599121094 482.7081604003906 -32.3721809387207
v 306.9704284667969 480.91290283203125 -26.567468643188477
v 297.9451599121094 482.7081604003906 -32.3721809387207
v 288.91986083984375 480.91290283203125 -32.3721809387207
v 297.9451599121094 482.7081604003906 -26.567468643188477
v 297.9451599121094 482.7081604003906 -32.3721809387207
v 297.9451599121094 482.7081604003906 -26.567468643188477
v 306.9704284667969 480.91290283203125 -26.567468643188477
v 288.91986083984375 480.91290283203125 -32.3721809387207
v 288.91986083984375 480.91290283203125 -26.567468643188477
v 297.9451599121094 482.7081604003906 -26.567468643188477
v 314.6217041015625 475.800537109375 -32.3721809387207
v 306.9704284667969 480.91290283203125 -32.3721809387207
v 314.6217041015625 475.800537109375 -26.567468643188477
v 288.91986083984375 480.91290283203125 -32.3721809387207
v 281.26861572265625 475.800537109375 -32.3721809387207
v 288.91986083984375 480.91290283203125 -26.567468643188477
v 306.9704284667969 480.91290283203125 -32.3721809387207
v 306.9704284667969 480.91290283203125 -26.567468643188477
v 314.6217041015625 475.800537109375 -26.567468643188477
v 281.26861572265625 475.800537109375 -32.3721809387207
v 281.26861572265625 475.800537109375 -26.567468643188477
v 288.91986083984375 480.91290283203125 -26.567468643188477
v 314.6217041015625 475.800537109375 -32.3721809387207
v 314.6217041015625 475.800537109375 -26.567468643188477
v 319.7341003417969 468.1492919921875 -26.567468643188477
v 319.7341003417969 468.1492919921875 -32.3721809387207
v 314.6217041015625 475.800537109375 -32.3721809387207
v 319.7341003417969 468.1492919921875 -26.567468643188477
v 281.26861572265625 475.800537109375 -32.3721809387207
v 276.15625 468.1492919921875 -32.3721809387207
v 281.26861572265625 475.800537109375 -26.567468643188477
v 321.5293884277344 459.12396240234375 -26.567468643188477
v 306.9704284667969 480.91290283203125 -26.567468643188477
v 297.9451599121094 482.7081604003906 -26.567468643188477
v 274.3609924316406 459.12396240234375 -26.567468643188477
v 297.9451599121094 482.7081604003906 -26.567468643188477
v 288.91986083984375 480.91290283203125 -26.567468643188477
v 321.5293884277344 459.12396240234375 -26.567468643188477
v 314.6217041015625 475.800537109375 -26.567468643188477
v 306.9704284667969 480.91290283203125 -26.567468643188477
v 276.15625 468.1492919921875 -32.3721809387207
v 276.15625 468.1492919921875 -26.567468643188477
v 281.26861572265625 475.800537109375 -26.567468643188477
v 281.26861572265625 475.800537109375 -26.567468643188477
v 319.7341003417969 468.1492919921875 -26.567468643188477
v 314.6217041015625 475.800537109375 -26.567468643188477
v 319.7341003417969 468.1492919921875 -32.3721809387207
v 319.7341003417969 468.1492919921875 -26.567468643188477
v 321.5293884277344 459.12396240234375 -26.567468643188477
v 321.5293884277344 459.12396240234375 -32.3721809387207
v 319.7341003417969 468.1492919921875 -32.3721809387207
v 321.5293884277344 459.12396240234375 -26.567468643188477
v 276.15625 468.1492919921875 -32.3721809387207
v 274.3609924316406 459.12396240234375 -32.3721809387207
v 276.15625 468.1492919921875 -26.567468643188477
v 281.26861572265625 475.800537109375 -26.567468643188477
v 276.15625 468.1492919921875 -26.567468643188477
v 274.3609924316406 459.12396240234375 -26.567468643188477
v 274.3609924316406 459.12396240234375 -32.3721809387207
v 274.3609924316406 459.12396240234375 -26.567468643188477
v 276.15625 468.1492919921875 -26.567468643188477
v 321.5293884277344 459.12396240234375 -32.3721809387207
v 321.5293884277344 459.12396240234375 -26.567468643188477
v 319.7341003417969 450.0987243652344 -26.567468643188477
v 297.9451599121094 435.5398254394531 -26.567468643188477
v 321.5293884277344 459.12396240234375 -26.567468643188477
v 297.9451599121094 482.7081604003906 -26.567468643188477
v 319.7341003417969 450.0987243652344 -32.3721809387207
v 321.5293884277344 459.12396240234375 -32.3721809387207
v 319.7341003417969 450.0987243652344 -26.567468643188477
v 274.3609924316406 459.12396240234375 -32.3721809387207
v 276.15625 450.0987243652344 -32.3721809387207
v 274.3609924316406 459.12396240234375 -26.567468643188477
v 297.9451599121094 482.7081604003906 -26.567468643188477
v 274.3609924316406 459.12396240234375 -26.567468643188477
v 297.9451599121094 435.5398254394531 -26.567468643188477
v 276.15625 450.0987243652344 -32.3721809387207
v 276.15625 450.0987243652344 -26.567468643188477
v 274.3609924316406 459.12396240234375 -26.567468643188477
v 314.6217041015625 442.44744873046875 -26.567468643188477
v 319.7341003417969 450.0987243652344 -26.567468643188477
v 321.5293884277344 459.12396240234375 -26.567468643188477
v 319.7341003417969 450.0987243652344 -32.3721809387207
v 319.7341003417969 450.0987243652344 -26.567468643188477
v 314.6217041015625 442.44744873046875 -26.567468643188477
v 314.6217041015625 442.44744873046875 -32.3721809387207
v 319.7341003417969 450.0987243652344 -32.3721809387207
v 314.6217041015625 442.44744873046875 -26.567468643188477
v 276.15625 450.0987243652344 -32.3721809387207
v 281.26861572265625 442.44744873046875 -32.3721809387207
v 276.15625 450.0987243652344 -26.567468643188477
v 274.3609924316406 459.12396240234375 -26.567468643188477
v 276.15625 450.0987243652344 -26.567468643188477
v 281.26861572265625 442.44744873046875 -26.567468643188477
v 306.9704284667969 437.3350830078125 -26.567468643188477
v 314.6217041015625 442.44744873046875 -26.567468643188477
v 281.26861572265625 442.44744873046875 -32.3721809387207
v 281.26861572265625 442.44744873046875 -26.567468643188477
v 276.15625 450.0987243652344 -26.567468643188477
v 274.3609924316406 459.12396240234375 -26.567468643188477
v 281.26861572265625 442.44744873046875 -26.567468643188477
v 288.91986083984375 437.3350830078125 -26.567468643188477
v 297.9451599121094 435.5398254394531 -26.567468643188477
v 306.9704284667969 437.3350830078125 -32.3721809387207
v 314.6217041015625 442.44744873046875 -32.3721809387207
v 306.9704284667969 437.3350830078125 -26.567468643188477
v 281.26861572265625 442.44744873046875 -32.3721809387207
v 288.91986083984375 437.3350830078125 -32.3721809387207
v 281.26861572265625 442.44744873046875 -26.567468643188477
v 314.6217041015625 442.44744873046875 -32.3721809387207
v 314.6217041015625 442.44744873046875 -26.567468643188477
v 306.9704284667969 437.3350830078125 -26.567468643188477
v 288.91986083984375 437.3350830078125 -26.567468643188477
v 297.9451599121094 435.5398254394531 -32.3721809387207
v 306.9704284667969 437.3350830078125 -32.3721809387207
v 297.9451599121094 435.5398254394531 -26.567468643188477
v 288.91986083984375 437.3350830078125 -32.3721809387207
v 297.9451599121094 435.5398254394531 -32.3721809387207
v 288.91986083984375 437.3350830078125 -26.567468643188477
v 288.91986083984375 437.3350830078125 -32.3721809387207
v 288.91986083984375 437.3350830078125 -26.567468643188477
v 281.26861572265625 442.44744873046875 -26.567468643188477
v 306.9704284667969 437.3350830078125 -32.3721809387207
v 306.9704284667969 437.3350830078125 -26.567468643188477
v 297.9451599121094 435.5398254394531 -26.567468643188477
v 297.9451599121094 435.5398254394531 -32.3721809387207
v 297.9451599121094 435.5398254394531 -26.567468643188477
v 288.91986083984375 437.3350830078125 -26.567468643188477
vt 0.8669630289077759 0.20220255851745605
vt 0.8683776259422302 0.20344680547714233
vt 0.8688828349113464 0.20226699113845825
vt 0.8683776259422302 0.20344680547714233
vt 0.8669630289077759 0.2047133445739746
vt 0.8702956438064575 0.2035091519355774
vt 0.8683776259422302 0.20344680547714233
vt 0.8702956438064575 0.2035091519355774
vt 0.8688828349113464 0.20226699113845825
vt 0.8669630289077759 0.2047133445739746
vt 0.8688828349113464 0.20477354526519775
vt 0.8702956438064575 0.2035091519355774
vt 0.8629392981529236 0.20117193460464478
vt 0.8669630289077759 0.20220255851745605
vt 0.8648642897605896 0.20123809576034546
vt 0.8669630289077759 0.2047133445739746
vt 0.8629392981529236 0.2058073878288269
vt 0.8688828349113464 0.20477354526519775
vt 0.8669630289077759 0.20220255851745605
vt 0.8688828349113464 0.20226699113845825
vt 0.8648642897605896 0.20123809576034546
vt 0.8629392981529236 0.2058073878288269
vt 0.8648642897605896 0.20586568117141724
vt 0.8688828349113464 0.20477354526519775
vt 0.8629392981529236 0.20117193460464478
vt 0.8648642897605896 0.20123809576034546
vt 0.8588628768920898 0.20057988166809082
vt 0.8569302558898926 0.20051270723342896
vt 0.8629392981529236 0.20117193460464478
vt 0.8588628768920898 0.20057988166809082
vt 0.8629392981529236 0.2058073878288269
vt 0.8569302558898926 0.2065613865852356
vt 0.8648642897605896 0.20586568117141724
vt 0.8518034815788269 0.20039159059524536
vt 0.8688828349113464 0.20226699113845825
vt 0.8702956438064575 0.2035091519355774
vt 0.8518034815788269 0.20691776275634766
vt 0.8702956438064575 0.2035091519355774
vt 0.8688828349113464 0.20477354526519775
vt 0.8518034815788269 0.20039159059524536
vt 0.8648642897605896 0.20123809576034546
vt 0.8688828349113464 0.20226699113845825
vt 0.8569302558898926 0.2065613865852356
vt 0.8588628768920898 0.20661836862564087
vt 0.8648642897605896 0.20586568117141724
vt 0.8648642897605896 0.20586568117141724
vt 0.8588628768920898 0.20057988166809082
vt 0.8648642897605896 0.20123809576034546
vt 0.8569302558898926 0.20051270723342896
vt 0.8588628768920898 0.20057988166809082
vt 0.8518034815788269 0.20039159059524536
vt 0.8498618602752686 0.2003241777420044
vt 0.8569302558898926 0.20051270723342896
vt 0.8518034815788269 0.20039159059524536
vt 0.8569302558898926 0.2065613865852356
vt 0.8498618602752686 0.20686137676239014
vt 0.8588628768920898 0.20661836862564087
vt 0.8648642897605896 0.20586568117141724
vt 0.8588628768920898 0.20661836862564087
vt 0.8518034815788269 0.20691776275634766
vt 0.8498618602752686 0.20686137676239014
vt 0.8518034815788269 0.20691776275634766
vt 0.8588628768920898 0.20661836862564087
vt 0.8498618602752686 0.2003241777420044
vt 0.8518034815788269 0.20039159059524536
vt 0.844765305519104 0.20069986581802368
vt 0.8334563374519348 0.20379900932312012
vt 0.8518034815788269 0.20039159059524536
vt 0.8702956438064575 0.2035091519355774
vt 0.8428148031234741 0.20063310861587524
vt 0.8498618602752686 0.2003241777420044
vt 0.844765305519104 0.20069986581802368
vt 0.8498618602752686 0.20686137676239014
vt 0.8428148031234741 0.20666354894638062
vt 0.8518034815788269 0.20691776275634766
vt 0.8702956438064575 0.2035091519355774
vt 0.8518034815788269 0.20691776275634766
vt 0.8334563374519348 0.20379900932312012
vt 0.8428148031234741 0.20666354894638062
vt 0.844765305519104 0.206720232963562
vt 0.8518034815788269 0.20691776275634766
vt 0.8388151526451111 0.2014559507369995
vt 0.844765305519104 0.20069986581802368
vt 0.8518034815788269 0.20039159059524536
vt 0.8428148031234741 0.20063310861587524
vt 0.844765305519104 0.20069986581802368
vt 0.8388151526451111 0.2014559507369995
vt 0.8368571996688843 0.20139050483703613
vt 0.8428148031234741 0.20063310861587524
vt 0.8388151526451111 0.2014559507369995
vt 0.8428148031234741 0.20666354894638062
vt 0.8368571996688843 0.20600014925003052
vt 0.844765305519104 0.206720232963562
vt 0.8518034815788269 0.20691776275634766
vt 0.844765305519104 0.206720232963562
vt 0.8388151526451111 0.2060578465461731
vt 0.8348478078842163 0.20254385471343994
vt 0.8388151526451111 0.2014559507369995
vt 0.8368571996688843 0.20600014925003052
vt 0.8388151526451111 0.2060578465461731
vt 0.844765305519104 0.206720232963562
vt 0.8518034815788269 0.20691776275634766
vt 0.8388151526451111 0.2060578465461731
vt 0.8348478078842163 0.20503228902816772
vt 0.8334563374519348 0.20379900932312012
vt 0.8328849077224731 0.20248037576675415
vt 0.8368571996688843 0.20139050483703613
vt 0.8348478078842163 0.20254385471343994
vt 0.8368571996688843 0.20600014925003052
vt 0.8328849077224731 0.20497292280197144
vt 0.8388151526451111 0.2060578465461731
vt 0.8368571996688843 0.20139050483703613
vt 0.8388151526451111 0.2014559507369995
vt 0.8348478078842163 0.20254385471343994
vt 0.8348478078842163 0.20503228902816772
vt 0.8314916491508484 0.20373761653900146
vt 0.8328849077224731 0.20248037576675415
vt 0.8334563374519348 0.20379900932312012
vt 0.8328849077224731 0.20497292280197144
vt 0.8314916491508484 0.20373761653900146
vt 0.8348478078842163 0.20503228902816772
vt 0.8328849077224731 0.20497292280197144
vt 0.8348478078842163 0.20503228902816772
vt 0.8388151526451111 0.2060578465461731
vt 0.8328849077224731 0.20248037576675415
vt 0.8348478078842163 0.20254385471343994
vt 0.8334563374519348 0.20379900932312012
vt 0.8314916491508484 0.20373761653900146
vt 0.8334563374519348 0.20379900932312012
vt 0.8348478078842163 0.20503228902816772
vn -0.19509312510490417 -0.9807847738265991 -0
vn -0.19509312510490417 -0.9807847738265991 -0
vn -0.19509312510490417 -0.9807847738265991 -0
vn 0.19509166479110718 -0.9807849526405334 -0
vn 0.19509166479110718 -0.9807849526405334 -0
vn 0.19509166479110718 -0.9807849526405334 -0
vn -0.19509276747703552 -0.9807847738265991 -0
vn -0.19509276747703552 -0.9807847738265991 -0
vn -0.19509276747703552 -0.9807847738265991 -0
vn 0.19509276747703552 -0.9807847738265991 -0
vn 0.19509276747703552 -0.9807847738265991 -0
vn 0.19509276747703552 -0.9807847738265991 -0
vn -0.5555658936500549 -0.8314725756645203 -0
vn -0.5555658936500549 -0.8314725756645203 -0
vn -0.5555658936500549 -0.8314725756645203 -0
vn 0.5555658936500549 -0.8314725756645203 -0
vn 0.5555658936500549 -0.8314725756645203 -0
vn 0.5555658936500549 -0.8314725756645203 -0
vn -0.5555655360221863 -0.8314726948738098 -0
vn -0.5555655360221863 -0.8314726948738098 -0
vn -0.5555655360221863 -0.8314726948738098 -0
vn 0.5555672645568848 -0.8314715027809143 -0
vn 0.5555672645568848 -0.8314715027809143 -0
vn 0.5555672645568848 -0.8314715027809143 -0
vn -0.8314713835716248 -0.5555676221847534 -0
vn -0.8314713835716248 -0.5555676221847534 -0
vn -0.8314713835716248 -0.5555676221847534 -0
vn -0.8314680457115173 -0.5555725693702698 -0
vn -0.8314680457115173 -0.5555725693702698 -0
vn -0.8314680457115173 -0.5555725693702698 -0
vn 0.8314715623855591 -0.5555674433708191 -0
vn 0.8314715623855591 -0.5555674433708191 -0
vn 0.8314715623855591 -0.5555674433708191 -0
vn 0 -0 -1
vn 0 -0 -1
vn 0 -0 -1
vn 0 -0 -0.9999999403953552
vn 0 -0 -0.9999999403953552
vn 0 -0 -0.9999999403953552
vn 0 -0 -0.9999999403953552
vn 0 -0 -0.9999999403953552
vn 0 -0 -0.9999999403953552
vn 0.8314729928970337 -0.5555649995803833 -0
vn 0.8314729928970337 -0.5555649995803833 -0
vn 0.8314729928970337 -0.5555649995803833 -0
vn 0 -0 -0.9999999403953552
vn 0 -0 -1
vn 0 -0 -1
vn -0.9807858467102051 -0.19508738815784454 -0
vn -0.9807858467102051 -0.19508738815784454 -0
vn -0.9807858467102051 -0.19508738815784454 -0
vn -0.9807844758033752 -0.1950942426919937 -0
vn -0.9807844758033752 -0.1950942426919937 -0
vn -0.9807844758033752 -0.1950942426919937 -0
vn 0.9807844758033752 -0.1950942426919937 -0
vn 0.9807844758033752 -0.1950942426919937 -0
vn 0.9807844758033752 -0.1950942426919937 -0
vn -0.0000007707200211370946 -0 -1
vn -0.0000007707200211370946 -0 -1
vn -0.0000007707200211370946 -0 -1
vn 0.9807851910591125 -0.19509100914001465 -0
vn 0.9807851910591125 -0.19509100914001465 -0
vn 0.9807851910591125 -0.19509100914001465 -0
vn -0.980783998966217 0.1950969249010086 -0
vn -0.980783998966217 0.1950969249010086 -0
vn -0.980783998966217 0.1950969249010086 -0
vn -0.00000008980336474451178 -0 -1
vn -0.00000008980336474451178 -0 -1
vn -0.00000008980336474451178 -0 -1
vn -0.9807854294776917 0.19508937001228333 -0
vn -0.9807854294776917 0.19508937001228333 -0
vn -0.9807854294776917 0.19508937001228333 -0
vn 0.9807848334312439 0.19509299099445343 -0
vn 0.9807848334312439 0.19509299099445343 -0
vn 0.9807848334312439 0.19509299099445343 -0
vn 0.00000008980362764532401 -0 -1
vn 0.00000008980362764532401 -0 -1
vn 0.00000008980362764532401 -0 -1
vn 0.980783998966217 0.1950969249010086 -0
vn 0.980783998966217 0.1950969249010086 -0
vn 0.980783998966217 0.1950969249010086 -0
vn -0.0000007707200211370946 -0 -1
vn -0.0000007707200211370946 -0 -1
vn -0.0000007707200211370946 -0 -1
vn -0.831467866897583 0.5555727481842041 -0
vn -0.831467866897583 0.5555727481842041 -0
vn -0.831467866897583 0.5555727481842041 -0
vn -0.8314715623855591 0.5555674433708191 -0
vn -0.8314715623855591 0.5555674433708191 -0
vn -0.8314715623855591 0.5555674433708191 -0
vn 0.8314732313156128 0.555564820766449 -0
vn 0.8314732313156128 0.555564820766449 -0
vn 0.8314732313156128 0.555564820766449 -0
vn 0.000001541463802823273 -0 -1
vn 0.000001541463802823273 -0 -1
vn 0.000001541463802823273 -0 -1
vn 0 -0 -0.9999999403953552
vn 0 -0 -0.9999999403953552
vn 0.8314713835716248 0.5555676221847534 -0
vn 0.8314713835716248 0.5555676221847534 -0
vn 0.8314713835716248 0.5555676221847534 -0
vn 0 -0 -1
vn 0 -0 -1
vn 0 -0 -1
vn 0 -0 -0.9999999403953552
vn -0.5555658936500549 0.8314725756645203 -0
vn -0.5555658936500549 0.8314725756645203 -0
vn -0.5555658936500549 0.8314725756645203 -0
vn 0.5555676221847534 0.83147132396698 -0
vn 0.5555676221847534 0.83147132396698 -0
vn 0.5555676221847534 0.83147132396698 -0
vn -0.5555655360221863 0.8314726948738098 -0
vn -0.5555655360221863 0.8314726948738098 -0
vn -0.5555655360221863 0.8314726948738098 -0
vn 0 -0 -0.9999999403953552
vn -0.19509312510490417 0.9807847738265991 -0
vn -0.19509312510490417 0.9807847738265991 -0
vn -0.19509312510490417 0.9807847738265991 -0
vn 0.19509312510490417 0.9807847738265991 -0
vn 0.19509312510490417 0.9807847738265991 -0
vn 0.19509312510490417 0.9807847738265991 -0
vn 0.5555655360221863 0.8314726948738098 -0
vn 0.5555655360221863 0.8314726948738098 -0
vn 0.5555655360221863 0.8314726948738098 -0
vn -0.19509276747703552 0.9807847738265991 -0
vn -0.19509276747703552 0.9807847738265991 -0
vn -0.19509276747703552 0.9807847738265991 -0
vn 0.1950913369655609 0.980785071849823 -0
vn 0.1950913369655609 0.980785071849823 -0
vn 0.1950913369655609 0.980785071849823 -0
f 3/3/3 2/2/2 1/1/1
f 6/6/6 5/5/5 4/4/4
f 9/9/9 8/8/8 7/7/7
f 12/12/12 11/11/11 10/10/10
f 15/15/15 14/14/14 13/13/13
f 18/18/18 17/17/17 16/16/16
f 21/21/21 20/20/20 19/19/19
f 24/24/24 23/23/23 22/22/22
f 27/27/27 26/26/26 25/25/25
f 30/30/30 29/29/29 28/28/28
f 33/33/33 32/32/32 31/31/31
f 36/36/36 35/35/35 34/34/34
f 39/39/39 38/38/38 37/37/37
f 42/42/42 41/41/41 40/40/40
f 45/45/45 44/44/44 43/43/43
f 46/46/46 39/39/39 37/37/37
f 48/48/48 47/47/47 34/34/34
f 51/51/51 50/50/50 49/49/49
f 54/54/54 53/53/53 52/52/52
f 57/57/57 56/56/56 55/55/55
f 60/60/60 59/59/59 58/58/58
f 63/63/63 62/62/62 61/61/61
f 66/66/66 65/65/65 64/64/64
f 69/69/69 68/68/68 67/67/67
f 72/72/72 71/71/71 70/70/70
f 75/75/75 74/74/74 73/73/73
f 78/78/78 77/77/77 76/76/76
f 81/81/81 80/80/80 79/79/79
f 84/84/84 83/83/83 82/82/82
f 87/87/87 86/86/86 85/85/85
f 90/90/90 89/89/89 88/88/88
f 93/93/93 92/92/92 91/91/91
f 96/96/96 95/95/95 94/94/94
f 98/98/98 97/97/97 40/40/40
f 101/101/101 100/100/100 99/99/99
f 104/104/104 103/103/103 102/102/102
f 97/97/97 105/105/105 40/40/40
f 108/108/108 107/107/107 106/106/106
f 111/111/111 110/110/110 109/109/109
f 114/114/114 113/113/113 112/112/112
f 105/105/105 115/115/115 37/37/37
f 118/118/118 117/117/117 116/116/116
f 121/121/121 120/120/120 119/119/119
f 124/124/124 123/123/123 122/122/122
f 127/127/127 126/126/126 125/125/125
f 130/130/130 129/129/129 128/128/128
