# VPXTOOL table OBJ file
# VPXTOOL OBJ file
# numVerts: 126 numFaces: 126
o LM_GI_gi07_Lsling3
v 13.990941047668457 3.849703550338745 -36.18340301513672
v 11.344263076782227 3.127048969268799 -36.91853332519531
v 11.764642715454102 0.00022086019453126937 -36.91853332519531
v 11.344263076782227 3.127048969268799 -36.91853332519531
v 8.697612762451172 2.4045050144195557 -36.18340301513672
v 9.028875350952148 0.20650428533554077 -36.18340301513672
v 14.500410079956055 -0.20606255531311035 -36.18340301513672
v 13.990941047668457 3.849703550338745 -36.18340301513672
v 11.764642715454102 0.00022086019453126937 -36.91853332519531
v 11.764642715454102 0.00022086019453126937 -36.91853332519531
v 11.344263076782227 3.127048969268799 -36.91853332519531
v 9.028875350952148 0.20650428533554077 -36.18340301513672
v 9.028875350952148 0.20650428533554077 -36.18340301513672
v 8.697612762451172 2.4045050144195557 -36.18340301513672
v 7.026142597198486 0.35746222734451294 -34.17499542236328
v 8.697612762451172 2.4045050144195557 -36.18340301513672
v 6.7601165771484375 1.8754342794418335 -34.17499542236328
v 7.026142597198486 0.35746222734451294 -34.17499542236328
v 7.026142597198486 0.35746222734451294 -34.17499542236328
v 6.7601165771484375 1.8754342794418335 -34.17499542236328
v 6.293079853057861 0.41278770565986633 -31.43144989013672
v 6.7601165771484375 1.8754342794418335 -34.17499542236328
v 6.050934314727783 1.6818504333496094 -31.43144989013672
v 6.293079853057861 0.41278770565986633 -31.43144989013672
v 6.293079853057861 0.41278770565986633 -31.43144989013672
v 6.050934314727783 1.6818504333496094 -31.43144989013672
v 6.7601165771484375 1.8754342794418335 -28.687910079956055
v 11.764642715454102 0.00022086019453126937 -36.91853332519531
v 9.028875350952148 0.20650428533554077 -36.18340301513672
v 4.250758171081543 -15.942682266235352 -36.18340301513672
v 9.489065170288086 -17.576274871826172 -36.18340301513672
v 14.500410079956055 -0.20606255531311035 -36.18340301513672
v 11.764642715454102 0.00022086019453126937 -36.91853332519531
v 4.250758171081543 -15.942682266235352 -36.18340301513672
v 9.028875350952148 0.20650428533554077 -36.18340301513672
v 7.026142597198486 0.35746222734451294 -34.17499542236328
v 7.026142597198486 0.35746222734451294 -28.687910079956055
v 6.293079853057861 0.41278770565986633 -31.43144989013672
v 6.7601165771484375 1.8754342794418335 -28.687910079956055
v 2.3334155082702637 -15.34481430053711 -34.17499542236328
v 7.026142597198486 0.35746222734451294 -34.17499542236328
v 6.293079853057861 0.41278770565986633 -31.43144989013672
v 6.293079853057861 0.41278770565986633 -31.43144989013672
v 7.026142597198486 0.35746222734451294 -28.687910079956055
v 2.3334155082702637 -15.34481430053711 -28.687910079956055
v 2.3334155082702637 -15.34481430053711 -34.17499542236328
v 4.250758171081543 -15.942682266235352 -36.18340301513672
v 7.026142597198486 0.35746222734451294 -34.17499542236328
v 7.026142597198486 0.35746222734451294 -28.687910079956055
v 9.028875350952148 0.20650428533554077 -26.67949676513672
v 4.250758171081543 -15.942682266235352 -26.67949676513672
v 1.6316323280334473 -15.125941276550293 -31.43144989013672
v 2.3334155082702637 -15.34481430053711 -34.17499542236328
v 6.293079853057861 0.41278770565986633 -31.43144989013672
v 1.6316323280334473 -15.125941276550293 -31.43144989013672
v 6.293079853057861 0.41278770565986633 -31.43144989013672
v 2.3334155082702637 -15.34481430053711 -28.687910079956055
v 2.3334155082702637 -15.34481430053711 -28.687910079956055
v 7.026142597198486 0.35746222734451294 -28.687910079956055
v 4.250758171081543 -15.942682266235352 -26.67949676513672
v 4.250758171081543 -15.942682266235352 -36.18340301513672
v -56.49261474609375 -201.4949493408203 -36.91853332519531
v 11.764642715454102 0.00022086019453126937 -36.91853332519531
v 9.489065170288086 -17.576274871826172 -36.18340301513672
v 11.764642715454102 0.00022086019453126937 -36.91853332519531
v -56.49261474609375 -201.4949493408203 -36.91853332519531
v 4.250758171081543 -15.942682266235352 -36.18340301513672
v 2.3334155082702637 -15.34481430053711 -34.17499542236328
v -60.80419158935547 -199.49705505371094 -34.17499542236328
v 2.3334155082702637 -15.34481430053711 -34.17499542236328
v 1.6316323280334473 -15.125941276550293 -31.43144989013672
v -61.471187591552734 -199.18795776367188 -31.43144989013672
v -61.471187591552734 -199.18795776367188 -31.43144989013672
v 1.6316323280334473 -15.125941276550293 -31.43144989013672
v 2.3334155082702637 -15.34481430053711 -28.687910079956055
v -60.80419158935547 -199.49705505371094 -28.687910079956055
v 2.3334155082702637 -15.34481430053711 -28.687910079956055
v 4.250758171081543 -15.942682266235352 -26.67949676513672
v 4.250758171081543 -15.942682266235352 -36.18340301513672
v -58.981903076171875 -200.3415069580078 -36.18340301513672
v -56.49261474609375 -201.4949493408203 -36.91853332519531
v -58.981903076171875 -200.3415069580078 -36.18340301513672
v 4.250758171081543 -15.942682266235352 -36.18340301513672
v -60.80419158935547 -199.49705505371094 -34.17499542236328
v -56.49261474609375 -201.4949493408203 -36.91853332519531
v -54.003326416015625 -202.6483917236328 -36.18340301513672
v 9.489065170288086 -17.576274871826172 -36.18340301513672
v -60.80419158935547 -199.49705505371094 -34.17499542236328
v 2.3334155082702637 -15.34481430053711 -34.17499542236328
v -61.471187591552734 -199.18795776367188 -31.43144989013672
v -60.80419158935547 -199.49705505371094 -28.687910079956055
v -61.471187591552734 -199.18795776367188 -31.43144989013672
v 2.3334155082702637 -15.34481430053711 -28.687910079956055
v -58.981903076171875 -200.3415069580078 -26.67949676513672
v -60.80419158935547 -199.49705505371094 -28.687910079956055
v 4.250758171081543 -15.942682266235352 -26.67949676513672
v -56.49261474609375 -201.4949493408203 -36.91853332519531
v -58.981903076171875 -200.3415069580078 -36.18340301513672
v -60.28466033935547 -202.60565185546875 -36.18340301513672
v -54.003326416015625 -202.6483917236328 -36.18340301513672
v -56.49261474609375 -201.4949493408203 -36.91853332519531
v -58.13316345214844 -204.30804443359375 -36.91853332519531
v -58.981903076171875 -200.3415069580078 -36.18340301513672
v -60.80419158935547 -199.49705505371094 -34.17499542236328
v -61.85966873168945 -201.3594512939453 -34.17499542236328
v -58.13316345214844 -204.30804443359375 -36.91853332519531
v -56.49261474609375 -201.4949493408203 -36.91853332519531
v -60.28466033935547 -202.60565185546875 -36.18340301513672
v -60.28466033935547 -202.60565185546875 -36.18340301513672
v -58.981903076171875 -200.3415069580078 -36.18340301513672
v -61.85966873168945 -201.3594512939453 -34.17499542236328
v -61.85966873168945 -201.3594512939453 -34.17499542236328
v -60.80419158935547 -199.49705505371094 -34.17499542236328
v -62.436153411865234 -200.90325927734375 -31.43144989013672
v -60.80419158935547 -199.49705505371094 -34.17499542236328
v -61.471187591552734 -199.18795776367188 -31.43144989013672
v -62.436153411865234 -200.90325927734375 -31.43144989013672
v -62.436153411865234 -200.90325927734375 -31.43144989013672
v -61.471187591552734 -199.18795776367188 -31.43144989013672
v -60.80419158935547 -199.49705505371094 -28.687910079956055
v -61.85966873168945 -201.3594512939453 -28.687910079956055
v -62.436153411865234 -200.90325927734375 -31.43144989013672
v -60.80419158935547 -199.49705505371094 -28.687910079956055
v -61.85966873168945 -201.3594512939453 -28.687910079956055
v -60.80419158935547 -199.49705505371094 -28.687910079956055
v -58.981903076171875 -200.3415069580078 -26.67949676513672
vt 0.9224668145179749 0.9311536550521851
vt 0.9215799570083618 0.930872917175293
vt 0.9217594861984253 0.9299956560134888
vt 0.9215799570083618 0.930872917175293
vt 0.9207258224487305 0.9307480454444885
vt 0.9208641648292542 0.9301315546035767
vt 0.9226871132850647 0.9300158619880676
vt 0.9224668145179749 0.9311536550521851
vt 0.9217594861984253 0.9299956560134888
vt 0.9217594861984253 0.9299956560134888
vt 0.9215799570083618 0.930872917175293
vt 0.9208641648292542 0.9301315546035767
vt 0.9208641648292542 0.9301315546035767
vt 0.9207258224487305 0.9307480454444885
vt 0.9202420115470886 0.9303869009017944
vt 0.9207258224487305 0.9307480454444885
vt 0.9201339483261108 0.930812418460846
vt 0.9202420115470886 0.9303869009017944
vt 0.9202420115470886 0.9303869009017944
vt 0.9201339483261108 0.930812418460846
vt 0.9200596809387207 0.9306929707527161
vt 0.9201339483261108 0.930812418460846
vt 0.9199628233909607 0.9310485124588013
vt 0.9200596809387207 0.9306929707527161
vt 0.9200596809387207 0.9306929707527161
vt 0.9199628233909607 0.9310485124588013
vt 0.9202572703361511 0.9313926100730896
vt 0.9217594861984253 0.9299956560134888
vt 0.9208641648292542 0.9301315546035767
vt 0.9194884896278381 0.9256163239479065
vt 0.921244740486145 0.9251610040664673
vt 0.9226871132850647 0.9300158619880676
vt 0.9217594861984253 0.9299956560134888
vt 0.9194884896278381 0.9256163239479065
vt 0.9208641648292542 0.9301315546035767
vt 0.9202420115470886 0.9303869009017944
vt 0.9203650951385498 0.9309676289558411
vt 0.9200596809387207 0.9306929707527161
vt 0.9202572703361511 0.9313926100730896
vt 0.9188912510871887 0.9259980916976929
vt 0.9202420115470886 0.9303869009017944
vt 0.9200596809387207 0.9306929707527161
vt 0.9200596809387207 0.9306929707527161
vt 0.9203650951385498 0.9309676289558411
vt 0.9190161824226379 0.9265844821929932
vt 0.9188912510871887 0.9259980916976929
vt 0.9194884896278381 0.9256163239479065
vt 0.9202420115470886 0.9303869009017944
vt 0.9203650951385498 0.9309676289558411
vt 0.9210754036903381 0.9311374425888062
vt 0.9197030663490295 0.9266322255134583
vt 0.918718695640564 0.9263525009155273
vt 0.9188912510871887 0.9259980916976929
vt 0.9200596809387207 0.9306929707527161
vt 0.918718695640564 0.9263525009155273
vt 0.9200596809387207 0.9306929707527161
vt 0.9190161824226379 0.9265844821929932
vt 0.9190161824226379 0.9265844821929932
vt 0.9203650951385498 0.9309676289558411
vt 0.9197030663490295 0.9266322255134583
vt 0.9194884896278381 0.9256163239479065
vt 0.9023205637931824 0.8754035234451294
vt 0.9217594861984253 0.9299956560134888
vt 0.921244740486145 0.9251610040664673
vt 0.9217594861984253 0.9299956560134888
vt 0.9023205637931824 0.8754035234451294
vt 0.9194884896278381 0.9256163239479065
vt 0.9188912510871887 0.9259980916976929
vt 0.90097975730896 0.876251220703125
vt 0.9188912510871887 0.9259980916976929
vt 0.918718695640564 0.9263525009155273
vt 0.9008358120918274 0.8766559958457947
vt 0.9008358120918274 0.8766559958457947
vt 0.918718695640564 0.9263525009155273
vt 0.9190161824226379 0.9265844821929932
vt 0.9011293053627014 0.8768985271453857
vt 0.9190161824226379 0.9265844821929932
vt 0.9197030663490295 0.9266322255134583
vt 0.9194884896278381 0.9256163239479065
vt 0.901523232460022 0.8757925629615784
vt 0.9023205637931824 0.8754035234451294
vt 0.901523232460022 0.8757925629615784
vt 0.9194884896278381 0.9256163239479065
vt 0.90097975730896 0.876251220703125
vt 0.9023205637931824 0.8754035234451294
vt 0.9031571745872498 0.8751887679100037
vt 0.921244740486145 0.9251610040664673
vt 0.90097975730896 0.876251220703125
vt 0.9188912510871887 0.9259980916976929
vt 0.9008358120918274 0.8766559958457947
vt 0.9011293053627014 0.8768985271453857
vt 0.9008358120918274 0.8766559958457947
vt 0.9190161824226379 0.9265844821929932
vt 0.9017806053161621 0.8769143223762512
vt 0.9011293053627014 0.8768985271453857
vt 0.9197030663490295 0.9266322255134583
vt 0.9023205637931824 0.8754035234451294
vt 0.901523232460022 0.8757925629615784
vt 0.9011406302452087 0.8751999139785767
vt 0.9031571745872498 0.8751887679100037
vt 0.9023205637931824 0.8754035234451294
vt 0.9018378257751465 0.8746674656867981
vt 0.901523232460022 0.8757925629615784
vt 0.90097975730896 0.876251220703125
vt 0.9006704688072205 0.8757637739181519
vt 0.9018378257751465 0.8746674656867981
vt 0.9023205637931824 0.8754035234451294
vt 0.9011406302452087 0.8751999139785767
vt 0.9011406302452087 0.8751999139785767
vt 0.901523232460022 0.8757925629615784
vt 0.9006704688072205 0.8757637739181519
vt 0.9006704688072205 0.8757637739181519
vt 0.90097975730896 0.876251220703125
vt 0.9005535244941711 0.8762072920799255
vt 0.90097975730896 0.876251220703125
vt 0.9008358120918274 0.8766559958457947
vt 0.9005535244941711 0.8762072920799255
vt 0.9005535244941711 0.8762072920799255
vt 0.9008358120918274 0.8766559958457947
vt 0.9011293053627014 0.8768985271453857
vt 0.9008204936981201 0.8764116764068604
vt 0.9005535244941711 0.8762072920799255
vt 0.9011293053627014 0.8768985271453857
vt 0.9008204936981201 0.8764116764068604
vt 0.9011293053627014 0.8768985271453857
vt 0.9017806053161621 0.8769143223762512
vn 0.25863710045814514 0.034772083163261414 -0.9653486013412476
vn 0.25863710045814514 0.034772083163261414 -0.9653486013412476
vn 0.25863710045814514 0.034772083163261414 -0.9653486013412476
vn -0.25757259130477905 -0.038819022476673126 -0.9654789566993713
vn -0.25757259130477905 -0.038819022476673126 -0.9654789566993713
vn -0.25757259130477905 -0.038819022476673126 -0.9654789566993713
vn 0.26167744398117065 0.03287079185247421 -0.9645954370498657
vn 0.26167744398117065 0.03287079185247421 -0.9645954370498657
vn 0.26167744398117065 0.03287079185247421 -0.9645954370498657
vn -0.26182103157043457 -0.035199858248233795 -0.9644743204116821
vn -0.26182103157043457 -0.035199858248233795 -0.9644743204116821
vn -0.26182103157043457 -0.035199858248233795 -0.9644743204116821
vn -0.708062469959259 -0.1067127138376236 -0.6980400085449219
vn -0.708062469959259 -0.1067127138376236 -0.6980400085449219
vn -0.708062469959259 -0.1067127138376236 -0.6980400085449219
vn -0.6979966759681702 -0.12232403457164764 -0.7055760622024536
vn -0.6979966759681702 -0.12232403457164764 -0.7055760622024536
vn -0.6979966759681702 -0.12232403457164764 -0.7055760622024536
vn -0.9533628821372986 -0.16707734763622284 -0.25136494636535645
vn -0.9533628821372986 -0.16707734763622284 -0.25136494636535645
vn -0.9533628821372986 -0.16707734763622284 -0.25136494636535645
vn -0.9490013122558594 -0.1810763031244278 -0.2580847442150116
vn -0.9490013122558594 -0.1810763031244278 -0.2580847442150116
vn -0.9490013122558594 -0.1810763031244278 -0.2580847442150116
vn -0.949001133441925 -0.18107610940933228 0.258085697889328
vn -0.949001133441925 -0.18107610940933228 0.258085697889328
vn -0.949001133441925 -0.18107610940933228 0.258085697889328
vn -0.2534954249858856 0.07500302791595459 -0.9644245505332947
vn -0.2534954249858856 0.07500302791595459 -0.9644245505332947
vn -0.2534954249858856 0.07500302791595459 -0.9644245505332947
vn 0.25365981459617615 -0.07318152487277985 -0.9645212292671204
vn 0.25365981459617615 -0.07318152487277985 -0.9645212292671204
vn 0.25365981459617615 -0.07318152487277985 -0.9645212292671204
vn -0.6857134699821472 0.20288410782814026 -0.6990244388580322
vn -0.6857134699821472 0.20288410782814026 -0.6990244388580322
vn -0.6857134699821472 0.20288410782814026 -0.6990244388580322
vn -0.953362762928009 -0.16707764565944672 0.25136539340019226
vn -0.953362762928009 -0.16707764565944672 0.25136539340019226
vn -0.953362762928009 -0.16707764565944672 0.25136539340019226
vn -0.9268934726715088 0.2770088016986847 -0.2532481849193573
vn -0.9268934726715088 0.2770088016986847 -0.2532481849193573
vn -0.9268934726715088 0.2770088016986847 -0.2532481849193573
vn -0.9268937110900879 0.27700796723365784 0.25324809551239014
vn -0.9268937110900879 0.27700796723365784 0.25324809551239014
vn -0.9268937110900879 0.27700796723365784 0.25324809551239014
vn -0.6775240898132324 0.2024824470281601 -0.7070800065994263
vn -0.6775240898132324 0.2024824470281601 -0.7070800065994263
vn -0.6775240898132324 0.2024824470281601 -0.7070800065994263
vn -0.6857141256332397 0.2028845250606537 0.6990236043930054
vn -0.6857141256332397 0.2028845250606537 0.6990236043930054
vn -0.6857141256332397 0.2028845250606537 0.6990236043930054
vn -0.9251963496208191 0.2775486707687378 -0.25880199670791626
vn -0.9251963496208191 0.2775486707687378 -0.25880199670791626
vn -0.9251963496208191 0.2775486707687378 -0.25880199670791626
vn -0.9251963496208191 0.2775483727455139 0.25880229473114014
vn -0.9251963496208191 0.2775483727455139 0.25880229473114014
vn -0.9251963496208191 0.2775483727455139 0.25880229473114014
vn -0.6775244474411011 0.20248299837112427 0.7070794105529785
vn -0.6775244474411011 0.20248299837112427 0.7070794105529785
vn -0.6775244474411011 0.20248299837112427 0.7070794105529785
vn -0.3265535831451416 0.11062058061361313 -0.9386829733848572
vn -0.3265535831451416 0.11062058061361313 -0.9386829733848572
vn -0.3265535831451416 0.11062058061361313 -0.9386829733848572
vn 0.19553951919078827 -0.06623965501785278 -0.9784562587738037
vn 0.19553951919078827 -0.06623965501785278 -0.9784562587738037
vn 0.19553951919078827 -0.06623965501785278 -0.9784562587738037
vn -0.6690195798873901 0.22937700152397156 -0.7069646716117859
vn -0.6690195798873901 0.22937700152397156 -0.7069646716117859
vn -0.6690195798873901 0.22937700152397156 -0.7069646716117859
vn -0.9137448072433472 0.3132631778717041 -0.25872084498405457
vn -0.9137448072433472 0.3132631778717041 -0.25872084498405457
vn -0.9137448072433472 0.3132631778717041 -0.25872084498405457
vn -0.9137442708015442 0.3132633864879608 0.25872254371643066
vn -0.9137442708015442 0.3132633864879608 0.25872254371643066
vn -0.9137442708015442 0.3132633864879608 0.25872254371643066
vn -0.6690207123756409 0.22937774658203125 0.7069634199142456
vn -0.6690207123756409 0.22937774658203125 0.7069634199142456
vn -0.6690207123756409 0.22937774658203125 0.7069634199142456
vn -0.2460557222366333 0.08437556773424149 -0.965576171875
vn -0.2460557222366333 0.08437556773424149 -0.965576171875
vn -0.2460557222366333 0.08437556773424149 -0.965576171875
vn -0.6706618070602417 0.22997865080833435 -0.7052109837532043
vn -0.6706618070602417 0.22997865080833435 -0.7052109837532043
vn -0.6706618070602417 0.22997865080833435 -0.7052109837532043
vn 0.2460409253835678 -0.08440888673067093 -0.9655770659446716
vn 0.2460409253835678 -0.08440888673067093 -0.9655770659446716
vn 0.2460409253835678 -0.08440888673067093 -0.9655770659446716
vn -0.9140409827232361 0.31338435411453247 -0.25752541422843933
vn -0.9140409827232361 0.31338435411453247 -0.25752541422843933
vn -0.9140409827232361 0.31338435411453247 -0.25752541422843933
vn -0.9140411615371704 0.31338390707969666 0.25752532482147217
vn -0.9140411615371704 0.31338390707969666 0.25752532482147217
vn -0.9140411615371704 0.31338390707969666 0.25752532482147217
vn -0.6706631183624268 0.22997888922691345 0.7052096724510193
vn -0.6706631183624268 0.22997888922691345 0.7052096724510193
vn -0.6706631183624268 0.22997888922691345 0.7052096724510193
vn -0.22515350580215454 0.12955032289028168 -0.9656721353530884
vn -0.22515350580215454 0.12955032289028168 -0.9656721353530884
vn -0.22515350580215454 0.12955032289028168 -0.9656721353530884
vn 0.22450502216815948 -0.1309269815683365 -0.9656373858451843
vn 0.22450502216815948 -0.1309269815683365 -0.9656373858451843
vn 0.22450502216815948 -0.1309269815683365 -0.9656373858451843
vn -0.6162014603614807 0.34921860694885254 -0.7059335708618164
vn -0.6162014603614807 0.34921860694885254 -0.7059335708618164
vn -0.6162014603614807 0.34921860694885254 -0.7059335708618164
vn -0.22567878663539886 0.1316118985414505 -0.9652706384658813
vn -0.22567878663539886 0.1316118985414505 -0.9652706384658813
vn -0.22567878663539886 0.1316118985414505 -0.9652706384658813
vn -0.6162192821502686 0.35456499457359314 -0.7032478451728821
vn -0.6162192821502686 0.35456499457359314 -0.7032478451728821
vn -0.6162192821502686 0.35456499457359314 -0.7032478451728821
vn -0.8410146832466125 0.4766276180744171 -0.2559695839881897
vn -0.8410146832466125 0.4766276180744171 -0.2559695839881897
vn -0.8410146832466125 0.4766276180744171 -0.2559695839881897
vn -0.8420271277427673 0.4736942648887634 -0.2580776810646057
vn -0.8420271277427673 0.4736942648887634 -0.2580776810646057
vn -0.8420271277427673 0.4736942648887634 -0.2580776810646057
vn -0.8420284390449524 0.47369134426116943 0.25807851552963257
vn -0.8420284390449524 0.47369134426116943 0.25807851552963257
vn -0.8420284390449524 0.47369134426116943 0.25807851552963257
vn -0.8410165309906006 0.4766242504119873 0.25596997141838074
vn -0.8410165309906006 0.4766242504119873 0.25596997141838074
vn -0.8410165309906006 0.4766242504119873 0.25596997141838074
vn -0.6162011623382568 0.34922197461128235 0.705932080745697
vn -0.6162011623382568 0.34922197461128235 0.705932080745697
vn -0.6162011623382568 0.34922197461128235 0.705932080745697
f 3/3/3 2/2/2 1/1/1
f 6/6/6 5/5/5 4/4/4
f 9/9/9 8/8/8 7/7/7
f 12/12/12 11/11/11 10/10/10
f 15/15/15 14/14/14 13/13/13
f 18/18/18 17/17/17 16/16/16
f 21/21/21 20/20/20 19/19/19
f 24/24/24 23/23/23 22/22/22
f 27/27/27 26/26/26 25/25/25
f 30/30/30 29/29/29 28/28/28
f 33/33/33 32/32/32 31/31/31
f 36/36/36 35/35/35 34/34/34
f 39/39/39 38/38/38 37/37/37
f 42/42/42 41/41/41 40/40/40
f 45/45/45 44/44/44 43/43/43
f 48/48/48 47/47/47 46/46/46
f 51/51/51 50/50/50 49/49/49
f 54/54/54 53/53/53 52/52/52
f 57/57/57 56/56/56 55/55/55
f 60/60/60 59/59/59 58/58/58
f 63/63/63 62/62/62 61/61/61
f 66/66/66 65/65/65 64/64/64
f 69/69/69 68/68/68 67/67/67
f 72/72/72 71/71/71 70/70/70
f 75/75/75 74/74/74 73/73/73
f 78/78/78 77/77/77 76/76/76
f 81/81/81 80/80/80 79/79/79
f 84/84/84 83/83/83 82/82/82
f 87/87/87 86/86/86 85/85/85
f 90/90/90 89/89/89 88/88/88
f 93/93/93 92/92/92 91/91/91
f 96/96/96 95/95/95 94/94/94
f 99/99/99 98/98/98 97/97/97
f 102/102/102 101/101/101 100/100/100
f 105/105/105 104/104/104 103/103/103
f 108/108/108 107/107/107 106/106/106
f 111/111/111 110/110/110 109/109/109
f 114/114/114 113/113/113 112/112/112
f 117/117/117 116/116/116 115/115/115
f 120/120/120 119/119/119 118/118/118
f 123/123/123 122/122/122 121/121/121
f 126/126/126 125/125/125 124/124/124
