# VPXTOOL table OBJ file
# VPXTOOL OBJ file
# numVerts: 66 numFaces: 192
o VR_AsteroidCircleEffect
v -23.430416107177734 23.152498245239258 8.22760009765625
v -23.367542266845703 22.477067947387695 7.5275421142578125
v -21.939491271972656 22.431581497192383 7.85640811920166
v -21.984989166259766 22.920351028442383 8.362998962402344
v -14.586177825927734 21.466472625732422 11.979942321777344
v -14.986515998840332 22.180740356445313 12.50889778137207
v -15.874632835388184 22.217145919799805 11.4611234664917
v -15.584931373596191 21.700273513793945 11.078349113464355
v -23.317607879638672 23.76894187927246 8.97426986694336
v -21.90335464477539 23.36643409729004 8.9033203125
v -14.350032806396484 20.758010864257813 11.353395462036133
v -15.414048194885254 21.18760108947754 10.624954223632813
v -23.033447265625 24.30270767211914 9.73885440826416
v -21.697725296020508 23.752689361572266 9.456604957580566
v -14.287158012390137 20.08258056640625 10.653336524963379
v -15.368548393249512 20.69883155822754 10.118362426757813
v -22.588857650756836 24.73328399658203 10.491971969604492
v -21.37600326538086 24.064271926879883 10.001592636108398
v -14.399967193603516 19.466136932373047 9.906667709350586
v -15.450182914733887 20.252748489379883 9.578041076660156
v -22.00092315673828 25.044124603271484 11.204681396484375
v -20.95054817199707 24.289209365844727 10.517338752746582
v -14.684127807617188 18.932371139526367 9.142082214355469
v -15.65581226348877 19.866493225097656 9.02475643157959
v -21.292238235473633 25.223281860351563 11.849593162536621
v -20.437715530395508 24.418855667114258 10.984023094177246
v -15.128717422485352 18.50179672241211 8.388964653015137
v -15.97753620147705 19.55491065979004 8.479768753051758
v -20.49003791809082 25.263874053955078 12.401923179626465
v -19.857210159301758 24.44822883605957 11.383712768554688
v -19.876188278198242 18.66965103149414 5.567253112792969
v -18.986766815185547 18.306577682495117 5.732626914978027
v -18.769380569458008 19.41364097595215 6.557531833648682
v -19.413002014160156 19.67637825012207 6.43786096572876
v -15.716651916503906 18.190956115722656 7.676255226135254
v -16.402990341186523 19.329973220825195 7.964023113250732
v -19.62514877319336 25.164337158203125 12.840446472167969
v -19.231340408325195 24.376201629638672 11.701045989990234
v -20.726511001586914 19.146013259887695 5.550724983215332
v -20.028331756591797 20.02109146118164 6.425900936126709
v -16.425336837768555 18.011796951293945 7.031343936920166
v -16.915822982788086 19.200326919555664 7.497337818145752
v -18.730810165405273 24.92850112915039 13.148309707641602
v -18.584157943725586 24.205541610717773 11.923829078674316
v -21.50505828857422 19.71735191345215 5.683678150177002
v -20.591720581054688 20.434537887573242 6.522110939025879
v -17.227537155151367 17.971206665039063 6.479013919830322
v -17.496328353881836 19.17095375061035 7.097649097442627
v -17.841388702392578 24.565425872802734 13.313684463500977
v -17.940536499023438 23.94280433654785 12.043499946594238
v -22.181913375854492 20.36171531677246 5.961000919342041
v -21.081520080566406 20.90082550048828 6.722794055938721
v -18.092426300048828 18.07073974609375 6.04049015045166
v -18.1221981048584 19.24298095703125 6.78031587600708
v -16.991064071655273 24.089065551757813 13.330211639404297
v -17.325206756591797 23.59809112548828 12.055459976196289
v -22.731060028076172 21.054338455200195 6.372038841247559
v -21.478904724121094 21.402036666870117 7.020237922668457
v -16.21251678466797 23.51772689819336 13.197259902954102
v -16.761817932128906 23.18464469909668 11.959250450134277
v -23.131397247314453 21.768606185913086 6.900994777679443
v -22.731060028076172 21.054338455200195 6.372038841247559
v -21.478904724121094 21.402036666870117 7.020237922668457
v -21.768606185913086 21.918909072875977 7.403011798858643
v -15.535663604736328 22.873363494873047 12.91993522644043
v -16.272018432617188 22.71835708618164 11.758567810058594
vt 0.00024399999529123306 0.09394800662994385
vt 0.00024399999529123306 0.06271302700042725
vt 0.09381599724292755 0.06271302700042725
vt 0.09381599724292755 0.09394800662994385
vt 0.00024399999529123306 0.5312349796295166
vt 0.00024399999529123306 0.5
vt 0.09381599724292755 0.5
vt 0.09381599724292755 0.5312349796295166
vt 0.00024399999529123306 0.12518298625946045
vt 0.09381599724292755 0.12518298625946045
vt 0.00024399999529123306 0.5624699592590332
vt 0.09381599724292755 0.5624699592590332
vt 0.00024399999529123306 0.15641802549362183
vt 0.09381599724292755 0.15641802549362183
vt 0.00024399999529123306 0.5937039852142334
vt 0.09381599724292755 0.5937039852142334
vt 0.00024399999529123306 0.18765199184417725
vt 0.09381599724292755 0.18765199184417725
vt 0.00024399999529123306 0.62493896484375
vt 0.09381599724292755 0.62493896484375
vt 0.00024399999529123306 0.21888697147369385
vt 0.09381599724292755 0.21888697147369385
vt 0.00024399999529123306 0.6561740040779114
vt 0.09381599724292755 0.6561740040779114
vt 0.00024399999529123306 0.2501220107078552
vt 0.09381599724292755 0.2501220107078552
vt 0.00024399999529123306 0.6874090433120728
vt 0.09381599724292755 0.6874090433120728
vt 0.00024399999529123306 0.2813569903373718
vt 0.09381599724292755 0.2813569903373718
vt 0.00024399999529123306 0.8748170137405396
vt 0.00024399999529123306 0.843582034111023
vt 0.09381599724292755 0.843582034111023
vt 0.09381599724292755 0.8748170137405396
vt 0.00024399999529123306 0.7186430096626282
vt 0.09381599724292755 0.7186430096626282
vt 0.00024399999529123306 0.3125920295715332
vt 0.09381599724292755 0.3125920295715332
vt 0.00024399999529123306 0.9060519933700562
vt 0.09381599724292755 0.9060519933700562
vt 0.00024399999529123306 0.7498779892921448
vt 0.09381599724292755 0.7498779892921448
vt 0.00024399999529123306 0.3438259959220886
vt 0.09381599724292755 0.3438259959220886
vt 0.00024399999529123306 0.9372860193252563
vt 0.09381599724292755 0.9372860193252563
vt 0.00024399999529123306 0.7811130285263062
vt 0.09381599724292755 0.7811130285263062
vt 0.00024399999529123306 0.3750609755516052
vt 0.09381599724292755 0.3750609755516052
vt 0.00024399999529123306 0.968520998954773
vt 0.09381599724292755 0.968520998954773
vt 0.00024399999529123306 0.8123469948768616
vt 0.09381599724292755 0.8123469948768616
vt 0.00024399999529123306 0.4062960147857666
vt 0.09381599724292755 0.4062960147857666
vt 0.00024399999529123306 0.9997559785842896
vt 0.09381599724292755 0.9997559785842896
vt 0.00024399999529123306 0.4375309944152832
vt 0.09381599724292755 0.4375309944152832
vt 0.00024399999529123306 0.03147900104522705
vt 0.00024399999529123306 0.00024402141571044922
vt 0.09381599724292755 0.00024402141571044922
vt 0.09381599724292755 0.03147900104522705
vt 0.00024399999529123306 0.4687650203704834
vt 0.09381599724292755 0.4687650203704834
vn 0.17910000681877136 0.73089998960495 -0.6585999727249146
vn 0.18119999766349792 0.7008000016212463 -0.6898999810218811
vn 0.18129999935626984 0.7005000114440918 -0.6902999877929688
vn 0.17910000681877136 0.7307000160217285 -0.6589000225067139
vn 0.5861999988555908 0.6525999903678894 -0.48010000586509705
vn 0.5659000277519226 0.6870999932289124 -0.45579999685287476
vn 0.5663999915122986 0.6862999796867371 -0.4562000036239624
vn 0.5863999724388123 0.6520000100135803 -0.4805999994277954
vn 0.18440000712871552 0.7581999897956848 -0.6254000067710876
vn 0.18440000712871552 0.7580999732017517 -0.6255000233650208
vn 0.5985000133514404 0.6182000041007996 -0.5095999836921692
vn 0.5985999703407288 0.6177999973297119 -0.5099999904632568
vn 0.19699999690055847 0.7818999886512756 -0.5914999842643738
vn 0.19699999690055847 0.7820000052452087 -0.5914000272750854
vn 0.6021999716758728 0.5852000117301941 -0.5430999994277954
vn 0.6021999716758728 0.5849000215530396 -0.54339998960495
vn 0.21639999747276306 0.8011999726295471 -0.5579000115394592
vn 0.21660000085830688 0.8014000058174133 -0.5576000213623047
vn 0.597000002861023 0.5551000237464905 -0.579200029373169
vn 0.597000002861023 0.5550000071525574 -0.5792999863624573
vn 0.24199999868869781 0.815500020980835 -0.5257999897003174
vn 0.24240000545978546 0.8155999779701233 -0.5253999829292297
vn 0.5831999778747559 0.52920001745224 -0.6164000034332275
vn 0.5831999778747559 0.5292999744415283 -0.6161999702453613
vn 0.27300000190734863 0.8241000175476074 -0.49630001187324524
vn 0.2736000120639801 0.8241999745368958 -0.4959000051021576
vn 0.5612000226974487 0.5087000131607056 -0.652899980545044
vn 0.5615000128746033 0.5088000297546387 -0.6525999903678894
vn 0.3084000051021576 0.82669997215271 -0.4706000089645386
vn 0.3091999888420105 0.82669997215271 -0.4700999855995178
vn 0.33410000801086426 0.5238999724388123 -0.7835000157356262
vn 0.3752000033855438 0.505299985408783 -0.7771000266075134
vn 0.3763999938964844 0.5048999786376953 -0.7767999768257141
vn 0.3352000117301941 0.5232999920845032 -0.7835000157356262
vn 0.5322999954223633 0.4943999946117401 -0.6872000098228455
vn 0.5327000021934509 0.4945000112056732 -0.6868000030517578
vn 0.34709998965263367 0.8230999708175659 -0.44940000772476196
vn 0.3479999899864197 0.8230000138282776 -0.4490000009536743
vn 0.2953999936580658 0.5473999977111816 -0.7829999923706055
vn 0.29649999737739563 0.5467000007629395 -0.7831000089645386
vn 0.4975999891757965 0.4867999851703644 -0.7178999781608582
vn 0.4982999861240387 0.4869000017642975 -0.7174000144004822
vn 0.38760000467300415 0.8133999705314636 -0.43380001187324524
vn 0.388700008392334 0.8130000233650208 -0.4334999918937683
vn 0.260699987411499 0.5748000144958496 -0.7756999731063843
vn 0.26159998774528503 0.5740000009536743 -0.7759000062942505
vn 0.4587000012397766 0.486299991607666 -0.7437000274658203
vn 0.4596000015735626 0.4862000048160553 -0.7432000041007996
vn 0.428600013256073 0.7975999712944031 -0.4244000017642975
vn 0.42969998717308044 0.7971000075340271 -0.4242999851703644
vn 0.23109999299049377 0.6050000190734863 -0.7620000243186951
vn 0.23180000483989716 0.604200005531311 -0.7623999714851379
vn 0.4172999858856201 0.4925999939441681 -0.763700008392334
vn 0.41839998960494995 0.49230000376701355 -0.7633000016212463
vn 0.4684999883174896 0.7763000130653381 -0.42179998755455017
vn 0.46959999203681946 0.775600016117096 -0.42179998755455017
vn 0.20759999752044678 0.6367999911308289 -0.7426000237464905
vn 0.20800000429153442 0.6360999941825867 -0.7429999709129333
vn 0.5056999921798706 0.7501000165939331 -0.4262000024318695
vn 0.506600022315979 0.7493000030517578 -0.42640000581741333
vn 0.1907999962568283 0.6690999865531921 -0.7182000279426575
vn 0.20759999752044678 0.6367999911308289 -0.7426000237464905
vn 0.20800000429153442 0.6360999941825867 -0.7429999709129333
vn 0.19099999964237213 0.6686000227928162 -0.7186999917030334
vn 0.5386000275611877 0.7200000286102295 -0.4375999867916107
vn 0.5393999814987183 0.7192000150680542 -0.43799999356269836
f 58/58/58 52/52/52 57/57/57
f 52/52/52 51/51/51 57/57/57
f 52/52/52 46/46/46 51/51/51
f 46/46/46 45/45/45 51/51/51
f 46/46/46 40/40/40 45/45/45
f 40/40/40 39/39/39 45/45/45
f 40/40/40 34/34/34 39/39/39
f 34/34/34 31/31/31 39/39/39
f 34/34/34 33/33/33 31/31/31
f 33/33/33 32/32/32 31/31/31
f 33/33/33 54/54/54 32/32/32
f 54/54/54 53/53/53 32/32/32
f 54/54/54 48/48/48 53/53/53
f 48/48/48 47/47/47 53/53/53
f 48/48/48 42/42/42 47/47/47
f 42/42/42 41/41/41 47/47/47
f 42/42/42 36/36/36 41/41/41
f 36/36/36 35/35/35 41/41/41
f 36/36/36 28/28/28 35/35/35
f 28/28/28 27/27/27 35/35/35
f 28/28/28 24/24/24 27/27/27
f 24/24/24 23/23/23 27/27/27
f 24/24/24 20/20/20 23/23/23
f 20/20/20 19/19/19 23/23/23
f 20/20/20 16/16/16 19/19/19
f 16/16/16 15/15/15 19/19/19
f 16/16/16 12/12/12 15/15/15
f 12/12/12 11/11/11 15/15/15
f 12/12/12 8/8/8 11/11/11
f 8/8/8 5/5/5 11/11/11
f 8/8/8 7/7/7 5/5/5
f 7/7/7 6/6/6 5/5/5
f 7/7/7 66/66/66 6/6/6
f 66/66/66 65/65/65 6/6/6
f 66/66/66 60/60/60 65/65/65
f 60/60/60 59/59/59 65/65/65
f 60/60/60 56/56/56 59/59/59
f 56/56/56 55/55/55 59/59/59
f 56/56/56 50/50/50 55/55/55
f 50/50/50 49/49/49 55/55/55
f 50/50/50 44/44/44 49/49/49
f 44/44/44 43/43/43 49/49/49
f 44/44/44 38/38/38 43/43/43
f 38/38/38 37/37/37 43/43/43
f 38/38/38 30/30/30 37/37/37
f 30/30/30 29/29/29 37/37/37
f 30/30/30 26/26/26 29/29/29
f 26/26/26 25/25/25 29/29/29
f 26/26/26 22/22/22 25/25/25
f 22/22/22 21/21/21 25/25/25
f 22/22/22 18/18/18 21/21/21
f 18/18/18 17/17/17 21/21/21
f 18/18/18 14/14/14 17/17/17
f 14/14/14 13/13/13 17/17/17
f 14/14/14 10/10/10 13/13/13
f 10/10/10 9/9/9 13/13/13
f 10/10/10 4/4/4 9/9/9
f 4/4/4 1/1/1 9/9/9
f 4/4/4 3/3/3 1/1/1
f 3/3/3 2/2/2 1/1/1
f 3/3/3 64/64/64 2/2/2
f 64/64/64 61/61/61 2/2/2
f 64/64/64 63/63/63 61/61/61
f 63/63/63 62/62/62 61/61/61
