# VPXTOOL table OBJ file
# VPXTOOL OBJ file
# numVerts: 71 numFaces: 162
o LM_L_LC7_Playfield
v -233.93276977539063 534.5339965820313 -0
v -41.22587585449219 534.7922973632813 -0
v -36.2238883972168 548.8837280273438 -0
v -106.2380599975586 639.1170654296875 -0
v 151.48098754882813 535.0505981445313 -0
v 151.48098754882813 535.0505981445313 23.52941131591797
v 161.48497009277344 563.2334594726563 23.52941131591797
v 161.48497009277344 563.2334594726563 -0
v 151.48098754882813 535.0505981445313 -0
v 151.48098754882813 535.0505981445313 23.52941131591797
v 161.48497009277344 563.2334594726563 -0
v 161.48497009277344 563.2334594726563 -0
v 161.48497009277344 563.2334594726563 23.52941131591797
v 163.42108154296875 566.1377563476563 23.52941131591797
v 163.42108154296875 566.1377563476563 -0
v 163.42108154296875 566.1377563476563 23.52941131591797
v 165.67999267578125 567.9664916992188 23.52941131591797
v 165.67999267578125 567.9664916992188 -0
v 165.67999267578125 567.9664916992188 23.52941131591797
v 168.6919708251953 569.14990234375 23.52941131591797
v 168.6919708251953 569.14990234375 -0
v 161.48497009277344 563.2334594726563 -0
v 163.42108154296875 566.1377563476563 -0
v 163.42108154296875 566.1377563476563 23.52941131591797
v 165.67999267578125 567.9664916992188 -0
v -176.25222778320313 729.3502807617188 -0
v 165.67999267578125 567.9664916992188 -0
v 165.67999267578125 567.9664916992188 23.52941131591797
v 168.6919708251953 569.14990234375 -0
v 168.6919708251953 569.14990234375 -0
v 168.6919708251953 569.14990234375 23.52941131591797
v 172.56436157226563 569.580078125 -0
v 91.47079467773438 653.466796875 -0
v 163.42108154296875 566.1377563476563 -0
v 92.92289733886719 655.6448974609375 -0
v 165.67999267578125 567.9664916992188 -0
v 168.6919708251953 569.14990234375 -0
v 96.8760757446289 657.9041137695313 -0
v 21.456623077392578 743.7000122070313 -0
v 200.3537139892578 680.413818359375 -0
v 172.56436157226563 569.580078125 -0
v 92.43888092041016 654.9189453125 -0
v 91.47079467773438 653.466796875 -0
v 163.42108154296875 566.1377563476563 -0
v 92.43888092041016 654.9189453125 -0
v 94.05237579345703 656.5592651367188 -0
v 94.61705780029297 657.0164794921875 -0
v 95.37007904052734 657.3123779296875 -0
v 96.8760757446289 657.9041137695313 -0
v 168.6919708251953 569.14990234375 -0
v 200.3537139892578 680.413818359375 -0
v 202.28988647460938 680.6289672851563 -0
v 21.456623077392578 743.7000122070313 -0
v 22.42470932006836 745.1521606445313 -0
v 94.61705780029297 657.0164794921875 -0
v 95.37007904052734 657.3123779296875 -0
v 25.060178756713867 746.658203125 -0
v 25.060178756713867 746.658203125 -0
v 23.55413246154785 746.0665283203125 -0
v 128.53781127929688 769.1679077148438 -0
v 128.53781127929688 769.1679077148438 -0
v -48.55752182006836 833.9331665039063 -0
v 232.0154571533203 791.6777954101563 -0
v -48.07347869873047 834.6593627929688 -0
v -46.75574493408203 835.4122924804688 -0
v -47.508766174316406 835.1165771484375 -0
v -46.75574493408203 835.4122924804688 -0
v -47.508766174316406 835.1165771484375 -0
v 23.55413246154785 746.0665283203125 -0
v 56.721923828125 857.922119140625 -0
v 160.19955444335938 880.4320068359375 -0
vt 0.21351215243339539 0.1387777328491211
vt 0.21358278393745422 0.08283239603042603
vt 0.21744418144226074 0.08140498399734497
vt 0.24261726438999176 0.102261483669281
vt 0.21365340054035187 0.0268821120262146
vt 0.21615733206272125 0.027186274528503418
vt 0.2238578200340271 0.024078011512756348
vt 0.22139547765254974 0.023750662803649902
vt 0.21365340054035187 0.0268821120262146
vt 0.21615733206272125 0.027186274528503418
vt 0.22139547765254974 0.023750662803649902
vt 0.22139547765254974 0.023750662803649902
vt 0.2238578200340271 0.024078011512756348
vt 0.22465559840202332 0.023493647575378418
vt 0.22219757735729218 0.023162007331848145
vt 0.22465559840202332 0.023493647575378418
vt 0.22515827417373657 0.022823870182037354
vt 0.2227030098438263 0.022487521171569824
vt 0.22515827417373657 0.022823870182037354
vt 0.2254837304353714 0.021940648555755615
vt 0.2230302393436432 0.02159804105758667
vt 0.22139547765254974 0.023750662803649902
vt 0.22219757735729218 0.023162007331848145
vt 0.22465559840202332 0.023493647575378418
vt 0.2227030098438263 0.022487521171569824
vt 0.26858991384506226 0.12378054857254028
vt 0.2227030098438263 0.022487521171569824
vt 0.22515827417373657 0.022823870182037354
vt 0.2230302393436432 0.02159804105758667
vt 0.2230302393436432 0.02159804105758667
vt 0.2254837304353714 0.021940648555755615
vt 0.22314924001693726 0.02046346664428711
vt 0.2466932237148285 0.043755531311035156
vt 0.22219757735729218 0.023162007331848145
vt 0.2473136931657791 0.04331475496292114
vt 0.2227030098438263 0.022487521171569824
vt 0.2230302393436432 0.02159804105758667
vt 0.2479577362537384 0.04213160276412964
vt 0.2727965712547302 0.06439745426177979
vt 0.2544025778770447 0.011211991310119629
vt 0.22314924001693726 0.02046346664428711
vt 0.24710683524608612 0.043461740016937256
vt 0.2466932237148285 0.043755531311035156
vt 0.22219757735729218 0.023162007331848145
vt 0.24710683524608612 0.043461740016937256
vt 0.2475743144750595 0.04297548532485962
vt 0.2477046251296997 0.04280585050582886
vt 0.24778901040554047 0.042581140995025635
vt 0.2479577362537384 0.04213160276412964
vt 0.2230302393436432 0.02159804105758667
vt 0.2544025778770447 0.011211991310119629
vt 0.25446441769599915 0.010633349418640137
vt 0.2727965712547302 0.06439745426177979
vt 0.2732234299182892 0.06410425901412964
vt 0.2477046251296997 0.04280585050582886
vt 0.24778901040554047 0.042581140995025635
vt 0.2736664116382599 0.06330865621566772
vt 0.2736664116382599 0.06330865621566772
vt 0.27349233627319336 0.06376302242279053
vt 0.28031522035598755 0.031987130641937256
vt 0.28031522035598755 0.031987130641937256
vt 0.299744576215744 0.08570736646652222
vt 0.2870173156261444 0.0004146695137023926
vt 0.2999649941921234 0.08556121587753296
vt 0.3001936078071594 0.08515995740890503
vt 0.3001038134098053 0.08538961410522461
vt 0.3001936078071594 0.08515995740890503
vt 0.3001038134098053 0.08538961410522461
vt 0.27349233627319336 0.06376302242279053
vt 0.3070562481880188 0.053426384925842285
vt 0.3139747381210327 0.021434426307678223
vn 0 -0 -1
vn 0 -0 -1
vn 0 -0 -1
vn 0 -0 -1
vn 0 -0 -1
vn 0.942389965057373 -0.33451634645462036 -0
vn 0.942389965057373 -0.33451634645462036 -0
vn 0.942389965057373 -0.33451634645462036 -0
vn 0.9423896670341492 -0.33451738953590393 -0
vn 0.9423896670341492 -0.33451738953590393 -0
vn 0.9423896670341492 -0.33451738953590393 -0
vn 0 -0 -1
vn 0.8320609927177429 -0.5546842217445374 -0
vn 0.8320609927177429 -0.5546842217445374 -0
vn 0.8320609927177429 -0.5546842217445374 -0
vn 0.6292157769203186 -0.7772306203842163 -0
vn 0.6292157769203186 -0.7772306203842163 -0
vn 0.6292157769203186 -0.7772306203842163 -0
vn 0.3656783401966095 -0.9307411909103394 -0
vn 0.3656783401966095 -0.9307411909103394 -0
vn 0.3656783401966095 -0.9307411909103394 -0
vn 0.8320609927177429 -0.5546842217445374 -0
vn 0.629221498966217 -0.7772259712219238 -0
vn 0.629221498966217 -0.7772259712219238 -0
vn 0.629221498966217 -0.7772259712219238 -0
vn 0 -0 -1
vn 0.36567479372024536 -0.9307426810264587 -0
vn 0.36567479372024536 -0.9307426810264587 -0
vn 0.36567479372024536 -0.9307426810264587 -0
vn 0.11042298376560211 -0.9938846826553345 -0
vn 0.11042298376560211 -0.9938846826553345 -0
vn 0.11042298376560211 -0.9938846826553345 -0
vn 0 -0 -1
vn 0 -0 -1
vn 0 -0 -1
vn 0 -0 -1
vn 0 -0 -1
vn 0 -0 -1
vn 0 -0 -1
vn 0 -0 -1
vn 0 -0 -1
vn 0 -0 -0.9999999403953552
vn 0 -0 -0.9999999403953552
vn 0 -0 -0.9999999403953552
vn 0 -0 -1
vn 0 -0 -1
vn 0 -0 -1
vn 0 -0 -1
vn 0 -0 -0.9999999403953552
vn 0 -0 -0.9999999403953552
vn 0 -0 -0.9999999403953552
vn 0 -0 -1
vn 0 -0 -0.9999999403953552
vn 0 -0 -1
vn 0 -0 -0.9999999403953552
vn 0 -0 -0.9999999403953552
vn 0 -0 -0.9999999403953552
vn 0 -0 -1
vn 0 -0 -1
vn 0 -0 -1
vn 0 -0 -0.9999999403953552
vn 0 -0 -1
vn 0 -0 -1
vn 0 -0 -1
vn 0 -0 -1
vn 0 -0 -1
vn 0 -0 -0.9999999403953552
vn 0 -0 -0.9999999403953552
vn 0 -0 -0.9999999403953552
vn 0 -0 -1
vn 0 -0 -1
f 3/3/3 2/2/2 1/1/1
f 1/1/1 4/4/4 3/3/3
f 5/5/5 2/2/2 3/3/3
f 8/8/8 7/7/7 6/6/6
f 11/11/11 10/10/10 9/9/9
f 5/5/5 3/3/3 12/12/12
f 15/15/15 14/14/14 13/13/13
f 18/18/18 17/17/17 16/16/16
f 21/21/21 20/20/20 19/19/19
f 15/15/15 13/13/13 22/22/22
f 25/25/25 24/24/24 23/23/23
f 1/1/1 26/26/26 4/4/4
f 29/29/29 28/28/28 27/27/27
f 32/32/32 31/31/31 30/30/30
f 3/3/3 33/33/33 12/12/12
f 34/34/34 12/12/12 33/33/33
f 36/36/36 34/34/34 35/35/35
f 38/38/38 37/37/37 36/36/36
f 4/4/4 39/39/39 3/3/3
f 41/41/41 37/37/37 40/40/40
f 44/44/44 43/43/43 42/42/42
f 35/35/35 34/34/34 45/45/45
f 36/36/36 35/35/35 46/46/46
f 47/47/47 36/36/36 46/46/46
f 48/48/48 36/36/36 47/47/47
f 38/38/38 36/36/36 48/48/48
f 3/3/3 39/39/39 33/33/33
f 51/51/51 50/50/50 49/49/49
f 41/41/41 40/40/40 52/52/52
f 4/4/4 26/26/26 39/39/39
f 42/42/42 43/43/43 53/53/53
f 45/45/45 39/39/39 35/35/35
f 46/46/46 35/35/35 54/54/54
f 47/47/47 46/46/46 54/54/54
f 57/57/57 56/56/56 55/55/55
f 58/58/58 38/38/38 48/48/48
f 39/39/39 54/54/54 35/35/35
f 54/54/54 59/59/59 47/47/47
f 59/59/59 58/58/58 47/47/47
f 60/60/60 40/40/40 38/38/38
f 61/61/61 49/49/49 57/57/57
f 26/26/26 62/62/62 39/39/39
f 52/52/52 40/40/40 63/63/63
f 54/54/54 39/39/39 62/62/62
f 59/59/59 54/54/54 64/64/64
f 58/58/58 59/59/59 65/65/65
f 63/63/63 40/40/40 60/60/60
f 62/62/62 64/64/64 54/54/54
f 64/64/64 66/66/66 59/59/59
f 69/69/69 68/68/68 67/67/67
f 70/70/70 60/60/60 58/58/58
f 70/70/70 58/58/58 65/65/65
f 71/71/71 63/63/63 60/60/60
f 70/70/70 71/71/71 60/60/60
