# VPXTOOL table OBJ file
# VPXTOOL OBJ file
# numVerts: 45 numFaces: 45
o LM_GI_gi20_swC1
v -205.0943145751953 286.65179443359375 67.71098327636719
v -348.9467468261719 802.6342163085938 -473.92120361328125
v -509.6446228027344 1381.5865478515625 -327.184814453125
v -509.6446228027344 1381.5865478515625 -327.184814453125
v -597.9586791992188 1695.9058837890625 67.71467590332031
v -205.0943145751953 286.65179443359375 67.71098327636719
v -205.0943145751953 286.653564453125 -540.6187744140625
v -651.3291015625 582.9242553710938 -473.92120361328125
v -751.4900512695313 445.052734375 -473.92120361328125
v -205.0943145751953 286.65179443359375 67.71098327636719
v -205.0943145751953 286.653564453125 -540.6187744140625
v -348.9467468261719 802.6342163085938 -473.92120361328125
v -751.4900512695313 445.052734375 -473.92120361328125
v -651.3291015625 582.9242553710938 -473.92120361328125
v -1221.770263671875 818.96728515625 -327.1866149902344
v -651.3291015625 582.9242553710938 -473.92120361328125
v -1421.466796875 1093.9718017578125 -209.29759216308594
v -1221.770263671875 818.96728515625 -327.1866149902344
v -205.0943145751953 286.65179443359375 67.71098327636719
v -651.3291015625 582.9242553710938 -473.92120361328125
v -205.0943145751953 286.653564453125 -540.6187744140625
v -1423.864501953125 1095.800537109375 67.71282958984375
v -1421.466796875 1093.9718017578125 -209.29759216308594
v -651.3291015625 582.9242553710938 -473.92120361328125
v -1423.864501953125 1095.800537109375 67.71282958984375
v -651.3291015625 582.9242553710938 -473.92120361328125
v -205.0943145751953 286.65179443359375 67.71098327636719
v -1221.770263671875 818.96728515625 -327.1866149902344
v -1421.466796875 1093.9718017578125 -209.29759216308594
v -1477.9539794921875 1021.34765625 -193.78970336914063
v -331.85040283203125 112.17401123046875 67.71098327636719
v -751.4900512695313 445.052734375 -473.92120361328125
v -1221.770263671875 818.96728515625 -327.1866149902344
v -1477.9539794921875 1021.34765625 67.71282958984375
v -1221.770263671875 818.96728515625 -327.1866149902344
v -1477.9539794921875 1021.34765625 -193.78970336914063
v -1477.9539794921875 1021.34765625 -193.78970336914063
v -1421.466796875 1093.9718017578125 -209.29759216308594
v -1477.9539794921875 1021.34765625 67.71282958984375
v -1221.770263671875 818.96728515625 -327.1866149902344
v -1477.9539794921875 1021.34765625 67.71282958984375
v -331.85040283203125 112.17401123046875 67.71098327636719
v -1421.466796875 1093.9718017578125 -209.29759216308594
v -1423.864501953125 1095.800537109375 67.71282958984375
v -1477.9539794921875 1021.34765625 67.71282958984375
vt 0.18424376845359802 0.28601741790771484
vt 0.18357683718204498 0.28613001108169556
vt 0.18293409049510956 0.28773826360702515
vt 0.18293409049510956 0.28773826360702515
vt 0.182625412940979 0.2892284393310547
vt 0.18424376845359802 0.28601741790771484
vt 0.18416038155555725 0.2848241925239563
vt 0.18236984312534332 0.28563982248306274
vt 0.18197238445281982 0.28532981872558594
vt 0.18424376845359802 0.28601741790771484
vt 0.18416038155555725 0.2848241925239563
vt 0.18357683718204498 0.28613001108169556
vt 0.18197238445281982 0.28532981872558594
vt 0.18236984312534332 0.28563982248306274
vt 0.18009361624717712 0.286479651927948
vt 0.18236984312534332 0.28563982248306274
vt 0.17931871116161346 0.28735893964767456
vt 0.18009361624717712 0.286479651927948
vt 0.18424376845359802 0.28601741790771484
vt 0.18236984312534332 0.28563982248306274
vt 0.18416038155555725 0.2848241925239563
vt 0.17933212220668793 0.2878872752189636
vt 0.17931871116161346 0.28735893964767456
vt 0.18236984312534332 0.28563982248306274
vt 0.17933212220668793 0.2878872752189636
vt 0.18236984312534332 0.28563982248306274
vt 0.18424376845359802 0.28601741790771484
vt 0.18009361624717712 0.286479651927948
vt 0.17931871116161346 0.28735893964767456
vt 0.17907802760601044 0.28720802068710327
vt 0.18374134600162506 0.28562599420547485
vt 0.18197238445281982 0.28532981872558594
vt 0.18009361624717712 0.286479651927948
vt 0.17911802232265472 0.2877197265625
vt 0.18009361624717712 0.286479651927948
vt 0.17907802760601044 0.28720802068710327
vt 0.17907802760601044 0.28720802068710327
vt 0.17931871116161346 0.28735893964767456
vt 0.17911802232265472 0.2877197265625
vt 0.18009361624717712 0.286479651927948
vt 0.17911802232265472 0.2877197265625
vt 0.18374134600162506 0.28562599420547485
vt 0.17931871116161346 0.28735893964767456
vt 0.17933212220668793 0.2878872752189636
vt 0.17911802232265472 0.2877197265625
vn -0.5734484791755676 0.759436309337616 -0.30726760625839233
vn -0.9655659198760986 -0.26007795333862305 0.006475292611867189
vn -0.9631580114364624 -0.26893365383148193 0.0011830597650259733
vn -0.9633637070655823 -0.26819807291030884 -0.00038659211713820696
vn -0.9632684588432312 -0.2685348093509674 -0.0016824447084218264
vn -0.5878034830093384 0.8090035319328308 -0.0005847539287060499
vn -0.06813324242830276 0.01554889976978302 -0.997555136680603
vn -0.1449127495288849 0.10526277869939804 -0.9838293194770813
vn -0.1487964391708374 0.0991189181804657 -0.9838878512382507
vn -0.5131163597106934 0.5410470366477966 -0.6663180589675903
vn -0.5881288051605225 0.8087673187255859 0.0001466738904127851
vn -0.961125910282135 -0.2760521471500397 0.005658344365656376
vn -0.1452905386686325 0.10553143918514252 -0.9837448000907898
vn -0.14322707056999207 0.1085575744509697 -0.9837181568145752
vn -0.19430240988731384 0.2105272263288498 -0.958083987236023
vn -0.10707729309797287 0.26843172311782837 -0.9573290944099426
vn -0.1777607947587967 0.3103592097759247 -0.9338513612747192
vn -0.17635241150856018 0.30418553948402405 -0.9361469149589539
vn -0.3560183048248291 0.6551463007926941 -0.6663589477539063
vn 0.5541132092475891 0.8324410319328308 0.0007239245460368693
vn -0.5875096321105957 0.8092171549797058 0.00018753856420516968
vn 0.5527467727661133 0.8333489894866943 -0.0007169758318923414
vn 0.5533116459846497 0.8329740762710571 0.0006054326076991856
vn 0.5516564846038818 0.8340713977813721 -0.00024574343115091324
vn 0.5531069040298462 0.8331103324890137 0.000022464138965005986
vn 0.5524974465370178 0.8335137963294983 0.0012050285004079342
vn -0.5877976417541504 0.8090079426765442 0.000005066394805908203
vn -0.3211800754070282 0.12849587202072144 -0.9382601976394653
vn -0.33597686886787415 0.1595408022403717 -0.9282598495483398
vn -0.3903958797454834 0.10842771083116531 -0.9142398834228516
vn -0.9103213548660278 0.277299165725708 -0.3072788715362549
vn -0.6256052255630493 -0.7801292538642883 0.0040665799751877785
vn -0.624914824962616 -0.7806684374809265 -0.006185733713209629
vn -0.6195873022079468 -0.7849277257919312 0.0002847294381354004
vn -0.614264965057373 -0.7890925407409668 0.003395658917725086
vn -0.6207839250564575 -0.7839436531066895 0.00772678479552269
vn -0.7893422842025757 0.6139534115791321 -0
vn -0.7893422842025757 0.6139534115791321 -0
vn -0.7893422842025757 0.6139534115791321 -0
vn -0.6182745695114136 -0.7859165072441101 -0.008465969935059547
vn -0.6214361786842346 -0.7834637761116028 -0.0011963146971538663
vn -0.9510719180107117 0.3089689612388611 -0.0005827136337757111
vn -0.8089880347251892 0.5877243280410767 -0.010882197879254818
vn -0.8089880347251892 0.5877243280410767 -0.010882197879254818
vn -0.8089880347251892 0.5877243280410767 -0.010882197879254818
f 3/3/3 2/2/2 1/1/1
f 6/6/6 5/5/5 4/4/4
f 9/9/9 8/8/8 7/7/7
f 12/12/12 11/11/11 10/10/10
f 15/15/15 14/14/14 13/13/13
f 18/18/18 17/17/17 16/16/16
f 21/21/21 20/20/20 19/19/19
f 24/24/24 23/23/23 22/22/22
f 27/27/27 26/26/26 25/25/25
f 30/30/30 29/29/29 28/28/28
f 33/33/33 32/32/32 31/31/31
f 36/36/36 35/35/35 34/34/34
f 39/39/39 38/38/38 37/37/37
f 42/42/42 41/41/41 40/40/40
f 45/45/45 44/44/44 43/43/43
