# VPXTOOL table OBJ file
# VPXTOOL OBJ file
# numVerts: 132 numFaces: 132
o LM_L_LRO_swRO
v -2571.7880859375 7738.09326171875 -40651.33203125
v 457.52337646484375 9405.802734375 -36906.86328125
v -211.91270446777344 -5157.37158203125 -34845.46484375
v -211.91270446777344 -5157.37158203125 -34845.46484375
v 457.52337646484375 9405.802734375 -36906.86328125
v 2021.3125 10298.2333984375 -42271.33984375
v -2023.6871337890625 -13566.484375 -37738.12890625
v -211.91270446777344 -5157.37158203125 -34845.46484375
v -1387.60986328125 -22341.072265625 -29527.873046875
v -211.91270446777344 -5157.37158203125 -34845.46484375
v -2023.6871337890625 -13566.484375 -37738.12890625
v -2571.7880859375 7738.09326171875 -40651.33203125
v 2406.8037109375 -27384.458984375 -28485.306640625
v 2021.3125 10298.2333984375 -42271.33984375
v 926.128662109375 -20816.974609375 -35777.87890625
v 458.993408203125 23665.244140625 -35122.4453125
v 457.52337646484375 9405.802734375 -36906.86328125
v -2571.7880859375 7738.09326171875 -40651.33203125
v -2023.6871337890625 -13566.484375 -37738.12890625
v 915.4990844726563 -5077.76318359375 -40925.40234375
v -2571.7880859375 7738.09326171875 -40651.33203125
v 2021.3125 10298.2333984375 -42271.33984375
v 915.4990844726563 -5077.76318359375 -40925.40234375
v 926.128662109375 -20816.974609375 -35777.87890625
v 2021.3125 10298.2333984375 -42271.33984375
v 457.52337646484375 9405.802734375 -36906.86328125
v 2410.30908203125 31764.96875 -34928.27734375
v 915.4990844726563 -5077.76318359375 -40925.40234375
v 2021.3125 10298.2333984375 -42271.33984375
v -2571.7880859375 7738.09326171875 -40651.33203125
v -1387.60986328125 -22341.072265625 -29527.873046875
v 2406.8037109375 -27384.458984375 -28485.306640625
v 463.9689636230469 -33223.02734375 -22608.087890625
v 926.128662109375 -20816.974609375 -35777.87890625
v 915.4990844726563 -5077.76318359375 -40925.40234375
v -2023.6871337890625 -13566.484375 -37738.12890625
v -2200.205810546875 -34393.18359375 -27120.37109375
v -2023.6871337890625 -13566.484375 -37738.12890625
v -1387.60986328125 -22341.072265625 -29527.873046875
v -2135.41064453125 30667.41015625 -38229.96484375
v -2571.7880859375 7738.09326171875 -40651.33203125
v 2021.3125 10298.2333984375 -42271.33984375
v 926.128662109375 -20816.974609375 -35777.87890625
v -2023.6871337890625 -13566.484375 -37738.12890625
v 927.9379272460938 -35569.671875 -27910.375
v -2135.41064453125 30667.41015625 -38229.96484375
v -1378.4503173828125 36017.921875 -31906.064453125
v -2571.7880859375 7738.09326171875 -40651.33203125
v 2406.8037109375 -27384.458984375 -28485.306640625
v 926.128662109375 -20816.974609375 -35777.87890625
v 927.9379272460938 -35569.671875 -27910.375
v -2023.6871337890625 -13566.484375 -37738.12890625
v -2200.205810546875 -34393.18359375 -27120.37109375
v 927.9379272460938 -35569.671875 -27910.375
v 2410.30908203125 31764.96875 -34928.27734375
v 920.9269409179688 25583.765625 -40615.9453125
v 2021.3125 10298.2333984375 -42271.33984375
v 920.9269409179688 25583.765625 -40615.9453125
v -2135.41064453125 30667.41015625 -38229.96484375
v 2021.3125 10298.2333984375 -42271.33984375
v 677.3516845703125 -47251.55859375 -10593.26171875
v 463.9689636230469 -33223.02734375 -22608.087890625
v 2406.8037109375 -27384.458984375 -28485.306640625
v -2304.23974609375 -54873.1796875 -6629.74658203125
v -1387.60986328125 -22341.072265625 -29527.873046875
v 463.9689636230469 -33223.02734375 -22608.087890625
v -2200.205810546875 -34393.18359375 -27120.37109375
v -1387.60986328125 -22341.072265625 -29527.873046875
v -2304.23974609375 -54873.1796875 -6629.74658203125
v 2406.8037109375 -27384.458984375 -28485.306640625
v 927.9379272460938 -35569.671875 -27910.375
v 2444.45947265625 -53168.15234375 -9346.0546875
v 921.6054077148438 41305.7890625 -35196.1328125
v -2135.41064453125 30667.41015625 -38229.96484375
v 920.9269409179688 25583.765625 -40615.9453125
v 927.9379272460938 -35569.671875 -27910.375
v -2200.205810546875 -34393.18359375 -27120.37109375
v -365.4759216308594 -47940.21875 -18029.1640625
v 2444.45947265625 -53168.15234375 -9346.0546875
v 677.3516845703125 -47251.55859375 -10593.26171875
v 2406.8037109375 -27384.458984375 -28485.306640625
v 677.3516845703125 -47251.55859375 -10593.26171875
v -2304.23974609375 -54873.1796875 -6629.74658203125
v 463.9689636230469 -33223.02734375 -22608.087890625
v -1378.4503173828125 36017.921875 -31906.064453125
v -2135.41064453125 30667.41015625 -38229.96484375
v -2553.35595703125 64436.6171875 -17882.439453125
v -368.416015625 55915.5546875 -27271.5703125
v -2135.41064453125 30667.41015625 -38229.96484375
v 921.6054077148438 41305.7890625 -35196.1328125
v -2200.205810546875 -34393.18359375 -27120.37109375
v -2304.23974609375 -54873.1796875 -6629.74658203125
v -365.4759216308594 -47940.21875 -18029.1640625
v -365.4759216308594 -47940.21875 -18029.1640625
v 2444.45947265625 -53168.15234375 -9346.0546875
v 927.9379272460938 -35569.671875 -27910.375
v -368.416015625 55915.5546875 -27271.5703125
v -2553.35595703125 64436.6171875 -17882.439453125
v -2135.41064453125 30667.41015625 -38229.96484375
v -2304.23974609375 -54873.1796875 -6629.74658203125
v 677.3516845703125 -47251.55859375 -10593.26171875
v -1346.222412109375 -53519.37890625 -2135.8466796875
v -365.4759216308594 -47940.21875 -18029.1640625
v 212.02578735351563 -57664.00390625 -5097.458984375
v 2444.45947265625 -53168.15234375 -9346.0546875
v -365.4759216308594 -47940.21875 -18029.1640625
v -2304.23974609375 -54873.1796875 -6629.74658203125
v 212.02578735351563 -57664.00390625 -5097.458984375
v 677.3516845703125 -47251.55859375 -10593.26171875
v 728.01171875 -61350.42578125 14002.833984375
v -1346.222412109375 -53519.37890625 -2135.8466796875
v 2444.45947265625 -53168.15234375 -9346.0546875
v 1907.6666259765625 -64207.515625 9769.76171875
v 677.3516845703125 -47251.55859375 -10593.26171875
v -2304.23974609375 -54873.1796875 -6629.74658203125
v -1346.222412109375 -53519.37890625 -2135.8466796875
v -2528.138916015625 -63154.9609375 11999.67578125
v 1907.6666259765625 -64207.515625 9769.76171875
v 728.01171875 -61350.42578125 14002.833984375
v 677.3516845703125 -47251.55859375 -10593.26171875
v 212.02578735351563 -57664.00390625 -5097.458984375
v 1907.6666259765625 -64207.515625 9769.76171875
v 2444.45947265625 -53168.15234375 -9346.0546875
v 212.02578735351563 -57664.00390625 -5097.458984375
v -2304.23974609375 -54873.1796875 -6629.74658203125
v 1907.6666259765625 -64207.515625 9769.76171875
v -1346.222412109375 -53519.37890625 -2135.8466796875
v 728.01171875 -61350.42578125 14002.833984375
v -2528.138916015625 -63154.9609375 11999.67578125
v -2304.23974609375 -54873.1796875 -6629.74658203125
v -2528.138916015625 -63154.9609375 11999.67578125
v 1907.6666259765625 -64207.515625 9769.76171875
vt 0.05215257778763771 0.010280907154083252
vt 0.053123004734516144 0.010371088981628418
vt 0.05244332551956177 0.009393453598022461
vt 0.05244332551956177 0.009393453598022461
vt 0.053123004734516144 0.010371088981628418
vt 0.05357116460800171 0.01026064157485962
vt 0.051575686782598495 0.008756101131439209
vt 0.05244332551956177 0.009393453598022461
vt 0.051144734025001526 0.00831747055053711
vt 0.05244332551956177 0.009393453598022461
vt 0.051575686782598495 0.008756101131439209
vt 0.05215257778763771 0.010280907154083252
vt 0.052541375160217285 0.008013486862182617
vt 0.05357116460800171 0.01026064157485962
vt 0.052353281527757645 0.00824737548828125
vt 0.05342768877744675 0.011455893516540527
vt 0.053123004734516144 0.010371088981628418
vt 0.05215257778763771 0.010280907154083252
vt 0.051575686782598495 0.008756101131439209
vt 0.05303835868835449 0.009224355220794678
vt 0.05215257778763771 0.010280907154083252
vt 0.05357116460800171 0.01026064157485962
vt 0.05303835868835449 0.009224355220794678
vt 0.052353281527757645 0.00824737548828125
vt 0.05357116460800171 0.01026064157485962
vt 0.053123004734516144 0.010371088981628418
vt 0.05447642132639885 0.01208484172821045
vt 0.05303835868835449 0.009224355220794678
vt 0.05357116460800171 0.01026064157485962
vt 0.05215257778763771 0.010280907154083252
vt 0.051144734025001526 0.00831747055053711
vt 0.052541375160217285 0.008013486862182617
vt 0.05124371871352196 0.007703542709350586
vt 0.052353281527757645 0.00824737548828125
vt 0.05303835868835449 0.009224355220794678
vt 0.051575686782598495 0.008756101131439209
vt 0.050563108175992966 0.0075321197509765625
vt 0.051575686782598495 0.008756101131439209
vt 0.051144734025001526 0.00831747055053711
vt 0.05288921669125557 0.011906147003173828
vt 0.05215257778763771 0.010280907154083252
vt 0.05357116460800171 0.01026064157485962
vt 0.052353281527757645 0.00824737548828125
vt 0.051575686782598495 0.008756101131439209
vt 0.051581088453531265 0.007430076599121094
vt 0.05288921669125557 0.011906147003173828
vt 0.052877943962812424 0.012447714805603027
vt 0.05215257778763771 0.010280907154083252
vt 0.052541375160217285 0.008013486862182617
vt 0.052353281527757645 0.00824737548828125
vt 0.051581088453531265 0.007430076599121094
vt 0.051575686782598495 0.008756101131439209
vt 0.050563108175992966 0.0075321197509765625
vt 0.051581088453531265 0.007430076599121094
vt 0.05447642132639885 0.01208484172821045
vt 0.05388372018933296 0.011426448822021484
vt 0.05357116460800171 0.01026064157485962
vt 0.05388372018933296 0.011426448822021484
vt 0.05288921669125557 0.011906147003173828
vt 0.05357116460800171 0.01026064157485962
vt 0.0504755973815918 0.007095456123352051
vt 0.05124371871352196 0.007703542709350586
vt 0.052541375160217285 0.008013486862182617
vt 0.04883069545030594 0.0067383646965026855
vt 0.051144734025001526 0.00831747055053711
vt 0.05124371871352196 0.007703542709350586
vt 0.050563108175992966 0.0075321197509765625
vt 0.051144734025001526 0.00831747055053711
vt 0.04883069545030594 0.0067383646965026855
vt 0.052541375160217285 0.008013486862182617
vt 0.051581088453531265 0.007430076599121094
vt 0.050983987748622894 0.006807684898376465
vt 0.05406147986650467 0.012707173824310303
vt 0.05288921669125557 0.011906147003173828
vt 0.05388372018933296 0.011426448822021484
vt 0.051581088453531265 0.007430076599121094
vt 0.050563108175992966 0.0075321197509765625
vt 0.05034419521689415 0.006850600242614746
vt 0.050983987748622894 0.006807684898376465
vt 0.0504755973815918 0.007095456123352051
vt 0.052541375160217285 0.008013486862182617
vt 0.0504755973815918 0.007095456123352051
vt 0.04883069545030594 0.0067383646965026855
vt 0.05124371871352196 0.007703542709350586
vt 0.052877943962812424 0.012447714805603027
vt 0.05288921669125557 0.011906147003173828
vt 0.05274447798728943 0.01496744155883789
vt 0.053643397986888885 0.013993382453918457
vt 0.05288921669125557 0.011906147003173828
vt 0.05406147986650467 0.012707173824310303
vt 0.050563108175992966 0.0075321197509765625
vt 0.04883069545030594 0.0067383646965026855
vt 0.05034419521689415 0.006850600242614746
vt 0.05034419521689415 0.006850600242614746
vt 0.050983987748622894 0.006807684898376465
vt 0.051581088453531265 0.007430076599121094
vt 0.053643397986888885 0.013993382453918457
vt 0.05274447798728943 0.01496744155883789
vt 0.05288921669125557 0.011906147003173828
vt 0.04883069545030594 0.0067383646965026855
vt 0.0504755973815918 0.007095456123352051
vt 0.04898497462272644 0.006871461868286133
vt 0.05034419521689415 0.006850600242614746
vt 0.049691133201122284 0.006525099277496338
vt 0.050983987748622894 0.006807684898376465
vt 0.05034419521689415 0.006850600242614746
vt 0.04883069545030594 0.0067383646965026855
vt 0.049691133201122284 0.006525099277496338
vt 0.0504755973815918 0.007095456123352051
vt 0.048921409994363785 0.006782412528991699
vt 0.04898497462272644 0.006871461868286133
vt 0.050983987748622894 0.006807684898376465
vt 0.04930533841252327 0.006522655487060547
vt 0.0504755973815918 0.007095456123352051
vt 0.04883069545030594 0.0067383646965026855
vt 0.04898497462272644 0.006871461868286133
vt 0.04770045727491379 0.006622493267059326
vt 0.04930533841252327 0.006522655487060547
vt 0.048921409994363785 0.006782412528991699
vt 0.0504755973815918 0.007095456123352051
vt 0.049691133201122284 0.006525099277496338
vt 0.04930533841252327 0.006522655487060547
vt 0.050983987748622894 0.006807684898376465
vt 0.049691133201122284 0.006525099277496338
vt 0.04883069545030594 0.0067383646965026855
vt 0.04930533841252327 0.006522655487060547
vt 0.04898497462272644 0.006871461868286133
vt 0.048921409994363785 0.006782412528991699
vt 0.04770045727491379 0.006622493267059326
vt 0.04883069545030594 0.0067383646965026855
vt 0.04770045727491379 0.006622493267059326
vt 0.04930533841252327 0.006522655487060547
vn -0.9164762496948242 -0.05399473011493683 0.3964289128780365
vn -0.629862904548645 0.06661476194858551 0.7738444805145264
vn -0.910764217376709 -0.060581959784030914 0.4084586799144745
vn 0.8565353751182556 -0.07912641763687134 0.5099862813949585
vn 0.8581676483154297 -0.08073965460062027 0.5069806575775146
vn 0.9938319325447083 -0.059984833002090454 -0.09327277541160583
vn -0.9900176525115967 -0.13508722186088562 -0.04020540416240692
vn -0.8773463368415833 0.2038847804069519 0.434389591217041
vn -0.8877426385879517 0.09819118678569794 0.44974613189697266
vn -0.7782052159309387 0.1942691057920456 0.5972069501876831
vn -0.9859130382537842 -0.1144593209028244 0.1219613254070282
vn -0.9779729843139648 0.17848238348960876 0.10822567343711853
vn 0.9994161128997803 -0.03293830156326294 0.009084612131118774
vn 0.9999465942382813 0.008991442620754242 -0.005101263523101807
vn 0.8240163326263428 -0.1678788959980011 -0.5411227941513062
vn -0.569760262966156 -0.08341999351978302 0.8175660371780396
vn -0.5879932641983032 0.02391953021287918 0.8085119128227234
vn -0.9057435393333435 0.00992514193058014 0.4237097501754761
vn -0.6966831684112549 -0.29635438323020935 -0.6533043384552002
vn -0.2816978693008423 -0.05179356783628464 -0.9581043124198914
vn -0.672685980796814 0.1188998594880104 -0.7303125858306885
vn 0.964562714099884 0.21575239300727844 -0.1518874317407608
vn 0.8480144143104553 -0.2671360969543457 -0.45772242546081543
vn 0.8432472944259644 -0.21324008703231812 -0.4934194087982178
vn 0.9963093996047974 0.0375169962644577 -0.07720157504081726
vn 0.8569698929786682 -0.1065082848072052 0.5042407512664795
vn 0.9788655042648315 0.19828975200653076 0.050035372376441956
vn -0.11959733814001083 -0.2908283770084381 -0.9492709040641785
vn -0.04491950571537018 0.09398877620697021 -0.9945593476295471
vn -0.5713294744491577 -0.05248115956783295 -0.8190411329269409
vn 0.24136967957019806 0.5446867346763611 0.8031545281410217
vn 0.6711493134498596 0.2902945876121521 0.6821199655532837
vn 0.7223812937736511 0.3609316945075989 0.5898250937461853
vn 0.07623979449272156 -0.4942229092121124 -0.865985631942749
vn 0.07047097384929657 -0.10032971948385239 -0.9924553632736206
vn -0.3916836380958557 -0.3974596858024597 -0.8298250436782837
vn -0.9839193224906921 -0.1638372391462326 -0.07113370299339294
vn -0.9730271697044373 0.13698813319206238 -0.1856134533882141
vn -0.9029711484909058 0.3130526542663574 0.29434871673583984
vn -0.5432193875312805 0.3096785545349121 -0.7803921699523926
vn -0.60579514503479 -0.045702848583459854 -0.7943069338798523
vn -0.08957631886005402 0.08249412477016449 -0.9925576448440552
vn -0.23022939264774323 -0.4995412230491638 -0.8351364135742188
vn -0.6791515350341797 -0.18315604329109192 -0.7107791304588318
vn -0.3215233385562897 -0.6337575316429138 -0.7035439014434814
vn -0.9662889242172241 -0.012101840227842331 -0.2571755349636078
vn -0.9374598860740662 -0.056191250681877136 0.3435281217098236
vn -0.9441366791725159 -0.14138436317443848 0.29768529534339905
vn 0.9883406758308411 -0.14992158114910126 -0.02657487988471985
vn 0.7849349975585938 -0.2104697823524475 -0.5827343463897705
vn 0.7764800786972046 -0.3232249617576599 -0.5409290194511414
vn -0.5331581830978394 -0.1743750423192978 -0.8278500437736511
vn -0.61729896068573 -0.3933667540550232 -0.6813256144523621
vn -0.09920544922351837 -0.5327405333518982 -0.8404438495635986
vn 0.9623086452484131 0.2647302746772766 -0.06229102611541748
vn 0.8086066842079163 0.04576145112514496 -0.586567223072052
vn 0.8037903904914856 0.05691898614168167 -0.5921835899353027
vn -0.2972725033760071 0.052662305533885956 -0.9533392190933228
vn -0.7460935115814209 0.1868659257888794 -0.6390816569328308
vn -0.38754501938819885 -0.1849578320980072 -0.9031054377555847
vn 0.06727844476699829 0.568748950958252 0.819754958152771
vn 0.10878020524978638 0.5125356316566467 0.8517476320266724
vn 0.5828479528427124 0.6690340638160706 0.4611741304397583
vn -0.0020493268966674805 0.503227949142456 0.8641512989997864
vn -0.0031533241271972656 0.6219266653060913 0.7830690145492554
vn 0.4386579394340515 0.36835721135139465 0.8196902275085449
vn -0.9638529419898987 -0.2384769171476364 -0.11881181597709656
vn -0.9358580708503723 0.23937350511550903 0.2585921585559845
vn -0.9400087594985962 0.1408836841583252 0.3107011914253235
vn 0.9671550393104553 0.14982712268829346 -0.20533637702465057
vn 0.8408536911010742 -0.40684932470321655 -0.356985479593277
vn 0.8349807262420654 -0.41056886315345764 -0.36638838052749634
vn 0.013800114393234253 0.5128525495529175 -0.8583657145500183
vn -0.4263404607772827 0.14696618914604187 -0.8925439119338989
vn 0.021819598972797394 0.12988799810409546 -0.9912884831428528
vn -0.1185958981513977 -0.5455458164215088 -0.8296473622322083
vn -0.6353931427001953 -0.3917505741119385 -0.6654375195503235
vn -0.2449105978012085 -0.7633042931556702 -0.5978171229362488
vn 0.9692490696907043 0.07832761108875275 0.23328281939029694
vn 0.6566792726516724 0.544708788394928 0.5215981602668762
vn 0.9272719621658325 0.36181604862213135 0.09620767831802368
vn -0.35028600692749023 0.7214722633361816 0.5973085761070251
vn -0.7502959370613098 0.3981667757034302 0.5277493000030518
vn -0.31248560547828674 0.6404725313186646 0.7015323638916016
vn -0.858055591583252 -0.1810229867696762 0.4805947542190552
vn -0.9919431209564209 -0.07231992483139038 -0.1040131151676178
vn -0.9748875498771667 0.18601864576339722 0.12243932485580444
vn -0.6511229872703552 0.5229029059410095 -0.5501013994216919
vn -0.6999601721763611 0.14299431443214417 -0.6997202038764954
vn -0.26927560567855835 0.4815683960914612 -0.834015965461731
vn -0.9259281158447266 -0.04232173413038254 -0.37532132863998413
vn -0.9638711810112 -0.2567979097366333 -0.07076163589954376
vn -0.6653388738632202 -0.4701216220855713 -0.5799223780632019
vn 0.4680405557155609 -0.5693537592887878 -0.6758508682250977
vn 0.8268704414367676 -0.48930975794792175 -0.2772386968135834
vn 0.7951576709747314 -0.2306605577468872 -0.5608209371566772
vn -0.6922389268875122 0.2437087595462799 -0.6792726516723633
vn -0.9438250660896301 0.3093167245388031 -0.11626474559307098
vn -0.7664328217506409 0.06835240125656128 -0.6386772990226746
vn -0.9595366716384888 0.1439456343650818 0.24201008677482605
vn -0.8027203679084778 0.5492855906486511 0.2322179526090622
vn -0.9326822757720947 0.35838043689727783 0.040828920900821686
vn 0.19995349645614624 -0.6279714703559875 -0.7521106600761414
vn 0.2142859846353531 -0.8824028372764587 -0.41886359453201294
vn 0.6115806102752686 -0.6866198182106018 -0.3930933475494385
vn -0.5763379335403442 -0.4715035855770111 -0.6674720048904419
vn -0.7077175378799438 -0.544268786907196 -0.4504522681236267
vn -0.26205816864967346 -0.8701947927474976 -0.4172366261482239
vn -0.30106621980667114 0.8295005559921265 0.4704124927520752
vn -0.5128828287124634 -0.1550232470035553 0.8443453311920166
vn -0.7119911313056946 0.4623456597328186 0.5284932851791382
vn 0.9755429029464722 0.1235373467206955 0.1818089634180069
vn 0.5112651586532593 0.031282275915145874 0.8588535785675049
vn 0.8020813465118408 0.49796611070632935 0.32968950271606445
vn -0.9936400055885315 0.09334529936313629 -0.06297781318426132
vn -0.6333844661712646 0.5632195472717285 0.5306674242019653
vn -0.46678245067596436 -0.0981893390417099 0.8789044618606567
vn 0.7790273427963257 -0.5677326917648315 0.2660752236843109
vn 0.6351877450942993 -0.0593792200088501 0.7700718641281128
vn 0.8801113367080688 0.44114184379577637 0.17549321055412292
vn 0.5119508504867554 -0.7567802667617798 -0.4064357876777649
vn 0.5524441599845886 -0.793077290058136 0.2565811574459076
vn 0.8198676705360413 -0.3554810881614685 -0.4488319754600525
vn -0.36427396535873413 -0.8674415349960327 -0.3388948142528534
vn -0.8002201318740845 -0.5233191251754761 -0.2928907573223114
vn -0.5291882753372192 -0.7787543535232544 0.33689987659454346
vn -0.21219810843467712 0.9148196578025818 0.3436233401298523
vn -0.15100747346878052 0.15570546686649323 0.9761929512023926
vn -0.692926287651062 -0.3568817377090454 0.6264891028404236
vn -0.5144936442375183 -0.6779316663742065 -0.5250762701034546
vn -0.5838756561279297 -0.7884700298309326 0.19340240955352783
vn 0.09406639635562897 -0.9933091402053833 -0.06699636578559875
f 3/3/3 2/2/2 1/1/1
f 6/6/6 5/5/5 4/4/4
f 9/9/9 8/8/8 7/7/7
f 12/12/12 11/11/11 10/10/10
f 15/15/15 14/14/14 13/13/13
f 18/18/18 17/17/17 16/16/16
f 21/21/21 20/20/20 19/19/19
f 24/24/24 23/23/23 22/22/22
f 27/27/27 26/26/26 25/25/25
f 30/30/30 29/29/29 28/28/28
f 33/33/33 32/32/32 31/31/31
f 36/36/36 35/35/35 34/34/34
f 39/39/39 38/38/38 37/37/37
f 42/42/42 41/41/41 40/40/40
f 45/45/45 44/44/44 43/43/43
f 48/48/48 47/47/47 46/46/46
f 51/51/51 50/50/50 49/49/49
f 54/54/54 53/53/53 52/52/52
f 57/57/57 56/56/56 55/55/55
f 60/60/60 59/59/59 58/58/58
f 63/63/63 62/62/62 61/61/61
f 66/66/66 65/65/65 64/64/64
f 69/69/69 68/68/68 67/67/67
f 72/72/72 71/71/71 70/70/70
f 75/75/75 74/74/74 73/73/73
f 78/78/78 77/77/77 76/76/76
f 81/81/81 80/80/80 79/79/79
f 84/84/84 83/83/83 82/82/82
f 87/87/87 86/86/86 85/85/85
f 90/90/90 89/89/89 88/88/88
f 93/93/93 92/92/92 91/91/91
f 96/96/96 95/95/95 94/94/94
f 99/99/99 98/98/98 97/97/97
f 102/102/102 101/101/101 100/100/100
f 105/105/105 104/104/104 103/103/103
f 108/108/108 107/107/107 106/106/106
f 111/111/111 110/110/110 109/109/109
f 114/114/114 113/113/113 112/112/112
f 117/117/117 116/116/116 115/115/115
f 120/120/120 119/119/119 118/118/118
f 123/123/123 122/122/122 121/121/121
f 126/126/126 125/125/125 124/124/124
f 129/129/129 128/128/128 127/127/127
f 132/132/132 131/131/131 130/130/130
