# VPXTOOL table OBJ file
# VPXTOOL OBJ file
# numVerts: 99 numFaces: 99
o LM_L_LB4_GateR
v 57.60127639770508 -0.38023844361305237 -1.4873968362808228
v 57.60133361816406 1.0755891799926758 -1.0405689477920532
v 36.13471603393555 0.6973384618759155 -1.2045714855194092
v 57.60127639770508 1.3797411918640137 0.3771187663078308
v 36.03820037841797 1.4164868593215942 0.09652970731258392
v 57.60133361816406 1.0755891799926758 -1.0405689477920532
v 36.13471603393555 0.6973384618759155 -1.2045714855194092
v 57.60133361816406 1.0755891799926758 -1.0405689477920532
v 36.316429138183594 1.2220470905303955 -0.7002096176147461
v 36.03820037841797 1.4164868593215942 0.09652970731258392
v 36.316429138183594 1.2220470905303955 -0.7002096176147461
v 57.60133361816406 1.0755891799926758 -1.0405689477920532
v 36.004188537597656 -0.00002760752431640867 -1.3606230020523071
v 57.60127639770508 -0.38023844361305237 -1.4873968362808228
v 36.13471603393555 0.6973384618759155 -1.2045714855194092
v 57.60127639770508 0.705841600894928 1.154305100440979
v 36.82258605957031 0.6947433352470398 1.214565396308899
v 57.60127639770508 1.3797411918640137 0.3771187663078308
v 57.60133361816406 -1.417618751525879 -0.37248072028160095
v 57.60127639770508 -0.38023844361305237 -1.4873968362808228
v 36.31648254394531 -1.2221022844314575 -0.700195848941803
v 57.60127639770508 -0.38023844361305237 -1.4873968362808228
v 36.004188537597656 -0.00002760752431640867 -1.3606230020523071
v 36.13471603393555 -0.6972832679748535 -1.204585313796997
v 36.23912811279297 1.199629783630371 0.8493800163269043
v 36.03820037841797 1.4164868593215942 0.09652970731258392
v 57.60127639770508 1.3797411918640137 0.3771187663078308
v 36.316429138183594 1.2220470905303955 -0.7002096176147461
v 35.11373519897461 1.2226544618606567 -0.03844347596168518
v 36.13471603393555 0.6973384618759155 -1.2045714855194092
v 57.60127639770508 -0.38023844361305237 -1.4873968362808228
v 36.13471603393555 -0.6972832679748535 -1.204585313796997
v 36.31648254394531 -1.2221022844314575 -0.700195848941803
v 36.82258605957031 0.6947433352470398 1.214565396308899
v 36.23912811279297 1.199629783630371 0.8493800163269043
v 57.60127639770508 1.3797411918640137 0.3771187663078308
v 36.03820037841797 1.4164868593215942 0.09652970731258392
v 35.11373519897461 1.2226544618606567 -0.03844347596168518
v 36.316429138183594 1.2220470905303955 -0.7002096176147461
v 36.13471603393555 0.6973384618759155 -1.2045714855194092
v 34.74009323120117 0.705841600894928 -0.4179089069366455
v 36.004188537597656 -0.00002760752431640867 -1.3606230020523071
v 35.11373519897461 1.2226544618606567 -0.03844347596168518
v 34.74009323120117 0.705841600894928 -0.4179089069366455
v 36.13471603393555 0.6973384618759155 -1.2045714855194092
v 34.74009323120117 0.705841600894928 -0.4179089069366455
v 34.6033821105957 -0.00002760752431640867 -0.5568023324012756
v 36.004188537597656 -0.00002760752431640867 -1.3606230020523071
v 35.11373519897461 1.2226544618606567 -0.03844347596168518
v 36.03820037841797 1.4164868593215942 0.09652970731258392
v 34.43525314331055 1.2334765195846558 1.3066848516464233
v 36.03820037841797 1.4164868593215942 0.09652970731258392
v 36.23912811279297 1.199629783630371 0.8493800163269043
v 35.15155792236328 1.4115726947784424 1.3550739288330078
v 36.13471603393555 -0.6972832679748535 -1.204585313796997
v 36.004188537597656 -0.00002760752431640867 -1.3606230020523071
v 34.74009323120117 -0.70589679479599 -0.4179089069366455
v 36.92412567138672 -0.00002760752431640867 1.3828057050704956
v 36.82258605957031 0.6947433352470398 1.214565396308899
v 57.60127639770508 0.705841600894928 1.154305100440979
v 36.004188537597656 -0.00002760752431640867 -1.3606230020523071
v 34.6033821105957 -0.00002760752431640867 -0.5568023324012756
v 34.74009323120117 -0.70589679479599 -0.4179089069366455
v 36.03820037841797 1.4164868593215942 0.09652970731258392
v 35.15155792236328 1.4115726947784424 1.3550739288330078
v 34.43525314331055 1.2334765195846558 1.3066848516464233
v 57.60133361816406 -1.417618751525879 -0.37248072028160095
v 36.31648254394531 -1.2221022844314575 -0.700195848941803
v 36.038475036621094 -1.41651451587677 0.09636406600475311
v 36.23912811279297 1.199629783630371 0.8493800163269043
v 35.79370880126953 1.2155869007110596 2.2888638973236084
v 35.15155792236328 1.4115726947784424 1.3550739288330078
v 36.82258605957031 0.6947433352470398 1.214565396308899
v 36.35491180419922 0.6761082410812378 1.5815246105194092
v 36.23912811279297 1.199629783630371 0.8493800163269043
v 36.31648254394531 -1.2221022844314575 -0.700195848941803
v 36.13471603393555 -0.6972832679748535 -1.204585313796997
v 35.11373519897461 -1.2226544618606567 -0.03844347596168518
v 36.13471603393555 -0.6972832679748535 -1.204585313796997
v 34.74009323120117 -0.70589679479599 -0.4179089069366455
v 35.11373519897461 -1.2226544618606567 -0.03844347596168518
v 36.23912811279297 1.199629783630371 0.8493800163269043
v 36.35491180419922 0.6761082410812378 1.5815246105194092
v 35.79370880126953 1.2155869007110596 2.2888638973236084
v 36.515037536621094 -0.00008282257476821542 1.6550227403640747
v 36.35491180419922 0.6761082410812378 1.5815246105194092
v 36.82258605957031 0.6947433352470398 1.214565396308899
v 36.31648254394531 -1.2221022844314575 -0.700195848941803
v 35.11373519897461 -1.2226544618606567 -0.03844347596168518
v 36.038475036621094 -1.41651451587677 0.09636406600475311
v 36.92412567138672 -0.00002760752431640867 1.3828057050704956
v 36.515037536621094 -0.00008282257476821542 1.6550227403640747
v 36.82258605957031 0.6947433352470398 1.214565396308899
v 35.11373519897461 -1.2226544618606567 -0.03844347596168518
v 34.43320846557617 -1.2304949760437012 1.2986924648284912
v 36.038475036621094 -1.41651451587677 0.09636406600475311
v 34.43320846557617 -1.2304949760437012 1.2986924648284912
v 35.15227508544922 -1.4100266695022583 1.35820734500885
v 36.038475036621094 -1.41651451587677 0.09636406600475311
vt 0.07072678208351135 0.571488618850708
vt 0.07104772329330444 0.5715389251708984
vt 0.07027381658554077 0.5767196416854858
vt 0.0713120624423027 0.5715700387954712
vt 0.07062260061502457 0.5767725706100464
vt 0.07104772329330444 0.5715389251708984
vt 0.07027381658554077 0.5767196416854858
vt 0.07104772329330444 0.5715389251708984
vt 0.07045523077249527 0.5767003297805786
vt 0.07062260061502457 0.5767725706100464
vt 0.07045523077249527 0.5767003297805786
vt 0.07104772329330444 0.5715389251708984
vt 0.07010982185602188 0.5767260789871216
vt 0.07072678208351135 0.571488618850708
vt 0.07027381658554077 0.5767196416854858
vt 0.07132727652788162 0.5715643763542175
vt 0.07067177444696426 0.576590895652771
vt 0.0713120624423027 0.5715700387954712
vt 0.07070615887641907 0.5714744329452515
vt 0.07072678208351135 0.571488618850708
vt 0.0699969232082367 0.5766205787658691
vt 0.07072678208351135 0.571488618850708
vt 0.07010982185602188 0.5767260789871216
vt 0.07000919431447983 0.5766735672950745
vt 0.0707085058093071 0.5767271518707275
vt 0.07062260061502457 0.5767725706100464
vt 0.0713120624423027 0.5715700387954712
vt 0.07045523077249527 0.5767003297805786
vt 0.07051130384206772 0.5770022869110107
vt 0.07027381658554077 0.5767196416854858
vt 0.07072678208351135 0.571488618850708
vt 0.07000919431447983 0.5766735672950745
vt 0.0699969232082367 0.5766205787658691
vt 0.07067177444696426 0.576590895652771
vt 0.0707085058093071 0.5767271518707275
vt 0.0713120624423027 0.5715700387954712
vt 0.07062260061502457 0.5767725706100464
vt 0.07051130384206772 0.5770022869110107
vt 0.07045523077249527 0.5767003297805786
vt 0.07027381658554077 0.5767196416854858
vt 0.07034233212471008 0.5770699977874756
vt 0.07010982185602188 0.5767260789871216
vt 0.07051130384206772 0.5770022869110107
vt 0.07034233212471008 0.5770699977874756
vt 0.07027381658554077 0.5767196416854858
vt 0.07034233212471008 0.5770699977874756
vt 0.0701836422085762 0.5770779848098755
vt 0.07010982185602188 0.5767260789871216
vt 0.07051130384206772 0.5770022869110107
vt 0.07062260061502457 0.5767725706100464
vt 0.07070640474557877 0.5771742463111877
vt 0.07062260061502457 0.5767725706100464
vt 0.0707085058093071 0.5767271518707275
vt 0.07077119499444962 0.5770113468170166
vt 0.07000919431447983 0.5766735672950745
vt 0.07010982185602188 0.5767260789871216
vt 0.07007774710655212 0.5770239233970642
vt 0.07057078927755356 0.5765457153320313
vt 0.07067177444696426 0.576590895652771
vt 0.07132727652788162 0.5715643763542175
vt 0.07010982185602188 0.5767260789871216
vt 0.0701836422085762 0.5770779848098755
vt 0.07007774710655212 0.5770239233970642
vt 0.07062260061502457 0.5767725706100464
vt 0.07077119499444962 0.5770113468170166
vt 0.07070640474557877 0.5771742463111877
vt 0.07070615887641907 0.5714744329452515
vt 0.0699969232082367 0.5766205787658691
vt 0.07009343057870865 0.5766804814338684
vt 0.0707085058093071 0.5767271518707275
vt 0.07090062648057938 0.576878547668457
vt 0.07077119499444962 0.5770113468170166
vt 0.07067177444696426 0.576590895652771
vt 0.07071615010499954 0.5766927003860474
vt 0.0707085058093071 0.5767271518707275
vt 0.0699969232082367 0.5766205787658691
vt 0.07000919431447983 0.5766735672950745
vt 0.07005303353071213 0.5769224762916565
vt 0.07000919431447983 0.5766735672950745
vt 0.07007774710655212 0.5770239233970642
vt 0.07005303353071213 0.5769224762916565
vt 0.0707085058093071 0.5767271518707275
vt 0.07071615010499954 0.5766927003860474
vt 0.07090062648057938 0.576878547668457
vt 0.0706009790301323 0.5766307711601257
vt 0.07071615010499954 0.5766927003860474
vt 0.07067177444696426 0.576590895652771
vt 0.0699969232082367 0.5766205787658691
vt 0.07005303353071213 0.5769224762916565
vt 0.07009343057870865 0.5766804814338684
vt 0.07057078927755356 0.5765457153320313
vt 0.0706009790301323 0.5766307711601257
vt 0.07067177444696426 0.576590895652771
vt 0.07005303353071213 0.5769224762916565
vt 0.07024707645177841 0.5770941376686096
vt 0.07009343057870865 0.5766804814338684
vt 0.07024707645177841 0.5770941376686096
vt 0.07024266570806503 0.576919674873352
vt 0.07009343057870865 0.5766804814338684
vn 0.0021335328929126263 0.2934136986732483 -0.9559832215309143
vn 0.0021335328929126263 0.2934136986732483 -0.9559832215309143
vn 0.0021335328929126263 0.2934136986732483 -0.9559832215309143
vn 0.004395737778395414 0.9777418971061707 -0.20976541936397552
vn 0.004395737778395414 0.9777418971061707 -0.20976541936397552
vn 0.004395737778395414 0.9777418971061707 -0.20976541936397552
vn -0.006732922978699207 0.6941856741905212 -0.7197645306587219
vn -0.006732922978699207 0.6941856741905212 -0.7197645306587219
vn -0.006732922978699207 0.6941856741905212 -0.7197645306587219
vn 0.002910423092544079 0.9717180132865906 -0.23612600564956665
vn 0.002910423092544079 0.9717180132865906 -0.23612600564956665
vn 0.002910423092544079 0.9717180132865906 -0.23612600564956665
vn -0.0018775631906464696 0.21870635449886322 -0.9757888913154602
vn -0.0018775631906464696 0.21870635449886322 -0.9757888913154602
vn -0.0018775631906464696 0.21870635449886322 -0.9757888913154602
vn 0.0014963701833039522 0.7555254101753235 0.6551176309585571
vn 0.0014963701833039522 0.7555254101753235 0.6551176309585571
vn 0.0014963701833039522 0.7555254101753235 0.6551176309585571
vn 0.0037631269078701735 -0.7320999503135681 -0.681186854839325
vn 0.0037631269078701735 -0.7320999503135681 -0.681186854839325
vn 0.0037631269078701735 -0.7320999503135681 -0.681186854839325
vn -0.009600324556231499 -0.22008784115314484 -0.9754328727722168
vn -0.009600324556231499 -0.22008784115314484 -0.9754328727722168
vn -0.009600324556231499 -0.22008784115314484 -0.9754328727722168
vn -0.0019708112813532352 0.9607874751091003 0.27727872133255005
vn -0.0019708112813532352 0.9607874751091003 0.27727872133255005
vn -0.0019708112813532352 0.9607874751091003 0.27727872133255005
vn -0.33904579281806946 0.7103263139724731 -0.6168342232704163
vn -0.33904579281806946 0.7103263139724731 -0.6168342232704163
vn -0.33904579281806946 0.7103263139724731 -0.6168342232704163
vn 0.0007316715200431645 -0.692802369594574 -0.7211271524429321
vn 0.0007316715200431645 -0.692802369594574 -0.7211271524429321
vn 0.0007316715200431645 -0.692802369594574 -0.7211271524429321
vn 0.012733575887978077 0.5956373810768127 0.8031525611877441
vn 0.012733575887978077 0.5956373810768127 0.8031525611877441
vn 0.012733575887978077 0.5956373810768127 0.8031525611877441
vn -0.15657484531402588 0.9455240964889526 -0.28542691469192505
vn -0.15657484531402588 0.9455240964889526 -0.28542691469192505
vn -0.15657484531402588 0.9455240964889526 -0.28542691469192505
vn -0.470986545085907 0.2756703794002533 -0.8379603624343872
vn -0.470986545085907 0.2756703794002533 -0.8379603624343872
vn -0.470986545085907 0.2756703794002533 -0.8379603624343872
vn -0.345305472612381 0.7047191858291626 -0.6197863817214966
vn -0.345305472612381 0.7047191858291626 -0.6197863817214966
vn -0.345305472612381 0.7047191858291626 -0.6197863817214966
vn -0.48085418343544006 0.25801849365234375 -0.8379772305488586
vn -0.48085418343544006 0.25801849365234375 -0.8379772305488586
vn -0.48085418343544006 0.25801849365234375 -0.8379772305488586
vn -0.189609557390213 0.9763897657394409 -0.10349461436271667
vn -0.189609557390213 0.9763897657394409 -0.10349461436271667
vn -0.189609557390213 0.9763897657394409 -0.10349461436271667
vn 0.2752138376235962 0.9408649206161499 0.19756154716014862
vn 0.2752138376235962 0.9408649206161499 0.19756154716014862
vn 0.2752138376235962 0.9408649206161499 0.19756154716014862
vn -0.4709729850292206 -0.2756931185722351 -0.8379604816436768
vn -0.4709729850292206 -0.2756931185722351 -0.8379604816436768
vn -0.4709729850292206 -0.2756931185722351 -0.8379604816436768
vn 0.002692465204745531 0.23572097718715668 0.9718170762062073
vn 0.002692465204745531 0.23572097718715668 0.9718170762062073
vn 0.002692465204745531 0.23572097718715668 0.9718170762062073
vn -0.48085445165634155 -0.2580166757106781 -0.8379775881767273
vn -0.48085445165634155 -0.2580166757106781 -0.8379775881767273
vn -0.48085445165634155 -0.2580166757106781 -0.8379775881767273
vn -0.2282848358154297 0.960840106010437 -0.15707464516162872
vn -0.2282848358154297 0.960840106010437 -0.15707464516162872
vn -0.2282848358154297 0.960840106010437 -0.15707464516162872
vn -0.005242612678557634 -0.9710476994514465 -0.23882797360420227
vn -0.005242612678557634 -0.9710476994514465 -0.23882797360420227
vn -0.005242612678557634 -0.9710476994514465 -0.23882797360420227
vn 0.216017484664917 0.9747801423072815 0.05603660270571709
vn 0.216017484664917 0.9747801423072815 0.05603660270571709
vn 0.216017484664917 0.9747801423072815 0.05603660270571709
vn 0.3635413646697998 0.7840262651443481 0.5031306743621826
vn 0.3635413646697998 0.7840262651443481 0.5031306743621826
vn 0.3635413646697998 0.7840262651443481 0.5031306743621826
vn -0.33907240629196167 -0.7102876901626587 -0.6168641448020935
vn -0.33907240629196167 -0.7102876901626587 -0.6168641448020935
vn -0.33907240629196167 -0.7102876901626587 -0.6168641448020935
vn -0.3452523648738861 -0.7047501802444458 -0.6197806596755981
vn -0.3452523648738861 -0.7047501802444458 -0.6197806596755981
vn -0.3452523648738861 -0.7047501802444458 -0.6197806596755981
vn 0.8148650527000427 0.5247072577476501 0.2463272511959076
vn 0.8148650527000427 0.5247072577476501 0.2463272511959076
vn 0.8148650527000427 0.5247072577476501 0.2463272511959076
vn 0.5959263443946838 0.2249106466770172 0.7709002494812012
vn 0.5959263443946838 0.2249106466770172 0.7709002494812012
vn 0.5959263443946838 0.2249106466770172 0.7709002494812012
vn -0.15660633146762848 -0.9455196857452393 -0.28542420268058777
vn -0.15660633146762848 -0.9455196857452393 -0.28542420268058777
vn -0.15660633146762848 -0.9455196857452393 -0.28542420268058777
vn 0.5330837965011597 0.2719196081161499 0.8011749982833862
vn 0.5330837965011597 0.2719196081161499 0.8011749982833862
vn 0.5330837965011597 0.2719196081161499 0.8011749982833862
vn -0.1897904872894287 -0.9764785766601563 -0.1023181676864624
vn -0.1897904872894287 -0.9764785766601563 -0.1023181676864624
vn -0.1897904872894287 -0.9764785766601563 -0.1023181676864624
vn -0.2272540032863617 -0.9614760875701904 -0.1546587347984314
vn -0.2272540032863617 -0.9614760875701904 -0.1546587347984314
vn -0.2272540032863617 -0.9614760875701904 -0.1546587347984314
f 3/3/3 2/2/2 1/1/1
f 6/6/6 5/5/5 4/4/4
f 9/9/9 8/8/8 7/7/7
f 12/12/12 11/11/11 10/10/10
f 15/15/15 14/14/14 13/13/13
f 18/18/18 17/17/17 16/16/16
f 21/21/21 20/20/20 19/19/19
f 24/24/24 23/23/23 22/22/22
f 27/27/27 26/26/26 25/25/25
f 30/30/30 29/29/29 28/28/28
f 33/33/33 32/32/32 31/31/31
f 36/36/36 35/35/35 34/34/34
f 39/39/39 38/38/38 37/37/37
f 42/42/42 41/41/41 40/40/40
f 45/45/45 44/44/44 43/43/43
f 48/48/48 47/47/47 46/46/46
f 51/51/51 50/50/50 49/49/49
f 54/54/54 53/53/53 52/52/52
f 57/57/57 56/56/56 55/55/55
f 60/60/60 59/59/59 58/58/58
f 63/63/63 62/62/62 61/61/61
f 66/66/66 65/65/65 64/64/64
f 69/69/69 68/68/68 67/67/67
f 72/72/72 71/71/71 70/70/70
f 75/75/75 74/74/74 73/73/73
f 78/78/78 77/77/77 76/76/76
f 81/81/81 80/80/80 79/79/79
f 84/84/84 83/83/83 82/82/82
f 87/87/87 86/86/86 85/85/85
f 90/90/90 89/89/89 88/88/88
f 93/93/93 92/92/92 91/91/91
f 96/96/96 95/95/95 94/94/94
f 99/99/99 98/98/98 97/97/97
