# VPXTOOL table OBJ file
# VPXTOOL OBJ file
# numVerts: 112 numFaces: 120
o LM_GI_gi03_UnderPF
v -301.20379638671875 482.80426025390625 -32.3721809387207
v -310.22906494140625 484.5995178222656 -32.3721809387207
v -301.20379638671875 482.80426025390625 -26.567468643188477
v -293.55255126953125 477.69189453125 -32.3721809387207
v -301.20379638671875 482.80426025390625 -32.3721809387207
v -293.55255126953125 477.69189453125 -26.567468643188477
v -301.20379638671875 482.80426025390625 -32.3721809387207
v -301.20379638671875 482.80426025390625 -26.567468643188477
v -293.55255126953125 477.69189453125 -26.567468643188477
v -310.22906494140625 484.5995178222656 -32.3721809387207
v -310.22906494140625 484.5995178222656 -26.567468643188477
v -301.20379638671875 482.80426025390625 -26.567468643188477
v -288.44012451171875 470.0406188964844 -32.3721809387207
v -293.55255126953125 477.69189453125 -32.3721809387207
v -288.44012451171875 470.0406188964844 -26.567468643188477
v -293.55255126953125 477.69189453125 -32.3721809387207
v -293.55255126953125 477.69189453125 -26.567468643188477
v -288.44012451171875 470.0406188964844 -26.567468643188477
v -381.1938781738281 505.5875244140625 -32.3721809387207
v -390.2191467285156 507.3827819824219 -32.3721809387207
v -381.1938781738281 505.5875244140625 -26.567468643188477
v -373.5426025390625 500.47515869140625 -32.3721809387207
v -381.1938781738281 505.5875244140625 -32.3721809387207
v -373.5426025390625 500.47515869140625 -26.567468643188477
v -381.1938781738281 505.5875244140625 -32.3721809387207
v -381.1938781738281 505.5875244140625 -26.567468643188477
v -373.5426025390625 500.47515869140625 -26.567468643188477
v -390.2191467285156 507.3827819824219 -32.3721809387207
v -399.2444152832031 505.5875244140625 -32.3721809387207
v -390.2191467285156 507.3827819824219 -26.567468643188477
v -390.2191467285156 507.3827819824219 -32.3721809387207
v -390.2191467285156 507.3827819824219 -26.567468643188477
v -381.1938781738281 505.5875244140625 -26.567468643188477
v -286.6448974609375 461.0152893066406 -26.567468643188477
v -301.20379638671875 482.80426025390625 -26.567468643188477
v -310.22906494140625 484.5995178222656 -26.567468643188477
v -293.55255126953125 477.69189453125 -26.567468643188477
v -368.4302062988281 492.82391357421875 -32.3721809387207
v -373.5426025390625 500.47515869140625 -32.3721809387207
v -368.4302062988281 492.82391357421875 -26.567468643188477
v -373.5426025390625 500.47515869140625 -32.3721809387207
v -373.5426025390625 500.47515869140625 -26.567468643188477
v -368.4302062988281 492.82391357421875 -26.567468643188477
v -288.44012451171875 470.0406188964844 -32.3721809387207
v -288.44012451171875 470.0406188964844 -26.567468643188477
v -286.6448974609375 461.0152893066406 -26.567468643188477
v -286.6448974609375 461.0152893066406 -32.3721809387207
v -288.44012451171875 470.0406188964844 -32.3721809387207
v -286.6448974609375 461.0152893066406 -26.567468643188477
v -288.44012451171875 470.0406188964844 -26.567468643188477
v -399.2444152832031 505.5875244140625 -32.3721809387207
v -399.2444152832031 505.5875244140625 -26.567468643188477
v -390.2191467285156 507.3827819824219 -26.567468643188477
v -366.63494873046875 483.7985534667969 -26.567468643188477
v -381.1938781738281 505.5875244140625 -26.567468643188477
v -390.2191467285156 507.3827819824219 -26.567468643188477
v -366.63494873046875 483.7985534667969 -26.567468643188477
v -373.5426025390625 500.47515869140625 -26.567468643188477
v -381.1938781738281 505.5875244140625 -26.567468643188477
v -368.4302062988281 492.82391357421875 -32.3721809387207
v -368.4302062988281 492.82391357421875 -26.567468643188477
v -366.63494873046875 483.7985534667969 -26.567468643188477
v -366.63494873046875 483.7985534667969 -32.3721809387207
v -368.4302062988281 492.82391357421875 -32.3721809387207
v -366.63494873046875 483.7985534667969 -26.567468643188477
v -368.4302062988281 492.82391357421875 -26.567468643188477
v -373.5426025390625 500.47515869140625 -26.567468643188477
v -413.8033142089844 483.7985534667969 -26.567468643188477
v -390.2191467285156 507.3827819824219 -26.567468643188477
v -399.2444152832031 505.5875244140625 -26.567468643188477
v -366.63494873046875 483.7985534667969 -32.3721809387207
v -366.63494873046875 483.7985534667969 -26.567468643188477
v -368.4302062988281 474.7733154296875 -26.567468643188477
v -368.4302062988281 474.7733154296875 -32.3721809387207
v -366.63494873046875 483.7985534667969 -32.3721809387207
v -368.4302062988281 474.7733154296875 -26.567468643188477
v -390.2191467285156 460.2144470214844 -26.567468643188477
v -366.63494873046875 483.7985534667969 -26.567468643188477
v -390.2191467285156 507.3827819824219 -26.567468643188477
v -373.5426025390625 467.1220703125 -26.567468643188477
v -368.4302062988281 474.7733154296875 -26.567468643188477
v -366.63494873046875 483.7985534667969 -26.567468643188477
v -368.4302062988281 474.7733154296875 -32.3721809387207
v -368.4302062988281 474.7733154296875 -26.567468643188477
v -373.5426025390625 467.1220703125 -26.567468643188477
v -373.5426025390625 467.1220703125 -32.3721809387207
v -368.4302062988281 474.7733154296875 -32.3721809387207
v -373.5426025390625 467.1220703125 -26.567468643188477
v -390.2191467285156 507.3827819824219 -26.567468643188477
v -413.8033142089844 483.7985534667969 -26.567468643188477
v -390.2191467285156 460.2144470214844 -26.567468643188477
v -381.1938781738281 462.00970458984375 -26.567468643188477
v -373.5426025390625 467.1220703125 -26.567468643188477
v -373.5426025390625 467.1220703125 -32.3721809387207
v -373.5426025390625 467.1220703125 -26.567468643188477
v -381.1938781738281 462.00970458984375 -26.567468643188477
v -381.1938781738281 462.00970458984375 -32.3721809387207
v -373.5426025390625 467.1220703125 -32.3721809387207
v -381.1938781738281 462.00970458984375 -26.567468643188477
v -390.2191467285156 460.2144470214844 -26.567468643188477
v -381.1938781738281 462.00970458984375 -26.567468643188477
v -390.2191467285156 460.2144470214844 -32.3721809387207
v -381.1938781738281 462.00970458984375 -32.3721809387207
v -390.2191467285156 460.2144470214844 -26.567468643188477
v -381.1938781738281 462.00970458984375 -32.3721809387207
v -381.1938781738281 462.00970458984375 -26.567468643188477
v -390.2191467285156 460.2144470214844 -26.567468643188477
v -413.8033142089844 483.7985534667969 -26.567468643188477
v -399.2444152832031 462.00970458984375 -26.567468643188477
v -390.2191467285156 460.2144470214844 -32.3721809387207
v -390.2191467285156 460.2144470214844 -26.567468643188477
v -399.2444152832031 462.00970458984375 -26.567468643188477
vt 0.3151196539402008 0.3327637314796448
vt 0.31575196981430054 0.33530354499816895
vt 0.31597644090652466 0.33260756731033325
vt 0.313321053981781 0.33055728673934937
vt 0.3151196539402008 0.3327637314796448
vt 0.3141801357269287 0.33040493726730347
vt 0.3151196539402008 0.3327637314796448
vt 0.31597644090652466 0.33260756731033325
vt 0.3141801357269287 0.33040493726730347
vt 0.31575196981430054 0.33530354499816895
vt 0.3166079521179199 0.3351430296897888
vt 0.31597644090652466 0.33260756731033325
vt 0.3106350004673004 0.3290219306945801
vt 0.313321053981781 0.33055728673934937
vt 0.3114975094795227 0.32887232303619385
vt 0.313321053981781 0.33055728673934937
vt 0.3141801357269287 0.33040493726730347
vt 0.3114975094795227 0.32887232303619385
vt 0.9303868412971497 0.6038737297058105
vt 0.9310240149497986 0.606430172920227
vt 0.931233286857605 0.6036785840988159
vt 0.9285743832588196 0.6016392707824707
vt 0.9303868412971497 0.6038737297058105
vt 0.9294232130050659 0.6014480590820313
vt 0.9303868412971497 0.6038737297058105
vt 0.931233286857605 0.6036785840988159
vt 0.9294232130050659 0.6014480590820313
vt 0.9310240149497986 0.606430172920227
vt 0.9303868412971497 0.6089152097702026
vt 0.9318696856498718 0.606230616569519
vt 0.9310240149497986 0.606430172920227
vt 0.9318696856498718 0.606230616569519
vt 0.931233286857605 0.6036785840988159
vt 0.30834195017814636 0.3282417058944702
vt 0.31597644090652466 0.33260756731033325
vt 0.3166079521179199 0.3351430296897888
vt 0.3141801357269287 0.33040493726730347
vt 0.9258677363395691 0.6000688672065735
vt 0.9285743832588196 0.6016392707824707
vt 0.9267199635505676 0.5998805165290833
vt 0.9285743832588196 0.6016392707824707
vt 0.9294232130050659 0.6014480590820313
vt 0.9267199635505676 0.5998805165290833
vt 0.3106350004673004 0.3290219306945801
vt 0.3114975094795227 0.32887232303619385
vt 0.30834195017814636 0.3282417058944702
vt 0.3074754476547241 0.3283899426460266
vt 0.3106350004673004 0.3290219306945801
vt 0.30834195017814636 0.3282417058944702
vt 0.3114975094795227 0.32887232303619385
vt 0.9303868412971497 0.6089152097702026
vt 0.931233286857605 0.6087114810943604
vt 0.9318696856498718 0.606230616569519
vt 0.9235402345657349 0.5992132425308228
vt 0.931233286857605 0.6036785840988159
vt 0.9318696856498718 0.606230616569519
vt 0.9235402345657349 0.5992132425308228
vt 0.9294232130050659 0.6014480590820313
vt 0.931233286857605 0.6036785840988159
vt 0.9258677363395691 0.6000688672065735
vt 0.9267199635505676 0.5998805165290833
vt 0.9235402345657349 0.5992132425308228
vt 0.9226838946342468 0.5994001626968384
vt 0.9258677363395691 0.6000688672065735
vt 0.9235402345657349 0.5992132425308228
vt 0.9267199635505676 0.5998805165290833
vt 0.9294232130050659 0.6014480590820313
vt 0.9235402345657349 0.6123169660568237
vt 0.9318696856498718 0.606230616569519
vt 0.931233286857605 0.6087114810943604
vt 0.9226838946342468 0.5994001626968384
vt 0.9235402345657349 0.5992132425308228
vt 0.9203701615333557 0.5995439291000366
vt 0.9195097088813782 0.5997312068939209
vt 0.9226838946342468 0.5994001626968384
vt 0.9203701615333557 0.5995439291000366
vt 0.9152764678001404 0.6053032875061035
vt 0.9235402345657349 0.5992132425308228
vt 0.9318696856498718 0.606230616569519
vt 0.917690098285675 0.6008182168006897
vt 0.9203701615333557 0.5995439291000366
vt 0.9235402345657349 0.5992132425308228
vt 0.9195097088813782 0.5997312068939209
vt 0.9203701615333557 0.5995439291000366
vt 0.917690098285675 0.6008182168006897
vt 0.9168263077735901 0.601007342338562
vt 0.9195097088813782 0.5997312068939209
vt 0.917690098285675 0.6008182168006897
vt 0.9318696856498718 0.606230616569519
vt 0.9235402345657349 0.6123169660568237
vt 0.9152764678001404 0.6053032875061035
vt 0.9159032106399536 0.6028401851654053
vt 0.917690098285675 0.6008182168006897
vt 0.9168263077735901 0.601007342338562
vt 0.917690098285675 0.6008182168006897
vt 0.9159032106399536 0.6028401851654053
vt 0.9150371551513672 0.6030324697494507
vt 0.9168263077735901 0.601007342338562
vt 0.9159032106399536 0.6028401851654053
vt 0.9152764678001404 0.6053032875061035
vt 0.9159032106399536 0.6028401851654053
vt 0.9144095778465271 0.6054997444152832
vt 0.9150371551513672 0.6030324697494507
vt 0.9152764678001404 0.6053032875061035
vt 0.9150371551513672 0.6030324697494507
vt 0.9159032106399536 0.6028401851654053
vt 0.9152764678001404 0.6053032875061035
vt 0.9235402345657349 0.6123169660568237
vt 0.9159032106399536 0.6078364849090576
vt 0.9144095778465271 0.6054997444152832
vt 0.9152764678001404 0.6053032875061035
vt 0.9159032106399536 0.6078364849090576
vn -0.19509312510490417 -0.9807847738265991 -0
vn -0.19509312510490417 -0.9807847738265991 -0
vn -0.19509312510490417 -0.9807847738265991 -0
vn -0.5555693507194519 -0.8314701914787292 -0
vn -0.5555693507194519 -0.8314701914787292 -0
vn -0.5555693507194519 -0.8314701914787292 -0
vn -0.5555655360221863 -0.8314726948738098 -0
vn -0.5555655360221863 -0.8314726948738098 -0
vn -0.5555655360221863 -0.8314726948738098 -0
vn -0.19509276747703552 -0.9807847738265991 -0
vn -0.19509276747703552 -0.9807847738265991 -0
vn -0.19509276747703552 -0.9807847738265991 -0
vn -0.8314697742462158 -0.5555700063705444 -0
vn -0.8314697742462158 -0.5555700063705444 -0
vn -0.8314697742462158 -0.5555700063705444 -0
vn -0.831467866897583 -0.5555727481842041 -0
vn -0.831467866897583 -0.5555727481842041 -0
vn -0.831467866897583 -0.5555727481842041 -0
vn -0.19509166479110718 -0.9807849526405334 -0
vn -0.19509166479110718 -0.9807849526405334 -0
vn -0.19509166479110718 -0.9807849526405334 -0
vn -0.5555658936500549 -0.8314725756645203 -0
vn -0.5555658936500549 -0.8314725756645203 -0
vn -0.5555658936500549 -0.8314725756645203 -0
vn -0.5555689930915833 -0.8314703702926636 -0
vn -0.5555689930915833 -0.8314703702926636 -0
vn -0.5555689930915833 -0.8314703702926636 -0
vn 0.1950945258140564 -0.9807844161987305 -0
vn 0.1950945258140564 -0.9807844161987305 -0
vn 0.1950945258140564 -0.9807844161987305 -0
vn -0.19509276747703552 -0.9807847738265991 -0
vn -0.19509276747703552 -0.9807847738265991 -0
vn -0.19509276747703552 -0.9807847738265991 -0
vn 0 -0 -1
vn 0 -0 -1
vn 0 -0 -1
vn 0 -0 -1
vn -0.8314715623855591 -0.5555674433708191 -0
vn -0.8314715623855591 -0.5555674433708191 -0
vn -0.8314715623855591 -0.5555674433708191 -0
vn -0.831467866897583 -0.5555727481842041 -0
vn -0.831467866897583 -0.5555727481842041 -0
vn -0.831467866897583 -0.5555727481842041 -0
vn -0.9807858467102051 -0.19508738815784454 -0
vn -0.9807858467102051 -0.19508738815784454 -0
vn -0.9807858467102051 -0.19508738815784454 -0
vn -0.9807851910591125 -0.1950906366109848 -0
vn -0.9807851910591125 -0.1950906366109848 -0
vn -0.9807851910591125 -0.1950906366109848 -0
vn 0 -0 -1
vn 0.1950913369655609 -0.980785071849823 -0
vn 0.1950913369655609 -0.980785071849823 -0
vn 0.1950913369655609 -0.980785071849823 -0
vn 0 -0 -1
vn 0 -0 -1
vn 0 -0 -1
vn 0 -0 -0.9999999403953552
vn 0 -0 -0.9999999403953552
vn 0 -0 -0.9999999403953552
vn -0.9807843565940857 -0.19509458541870117 -0
vn -0.9807843565940857 -0.19509458541870117 -0
vn -0.9807843565940857 -0.19509458541870117 -0
vn -0.9807858467102051 -0.1950870305299759 -0
vn -0.9807858467102051 -0.1950870305299759 -0
vn -0.9807858467102051 -0.1950870305299759 -0
vn 0 -0 -1
vn 0 -0 -1
vn 0 -0 -0.9999999403953552
vn 0 -0 -0.9999999403953552
vn 0 -0 -0.9999999403953552
vn -0.9807853698730469 0.19508971273899078 -0
vn -0.9807853698730469 0.19508971273899078 -0
vn -0.9807853698730469 0.19508971273899078 -0
vn -0.980783998966217 0.19509656727313995 -0
vn -0.980783998966217 0.19509656727313995 -0
vn -0.980783998966217 0.19509656727313995 -0
vn -0.00000008980349264220422 -0 -0.9999999403953552
vn -0.00000008980349264220422 -0 -0.9999999403953552
vn -0.00000008980349264220422 -0 -0.9999999403953552
vn -0.0000007707105282861448 -0 -1
vn -0.0000007707105282861448 -0 -1
vn -0.0000007707105282861448 -0 -1
vn -0.8314713835716248 0.5555676221847534 -0
vn -0.8314713835716248 0.5555676221847534 -0
vn -0.8314713835716248 0.5555676221847534 -0
vn -0.8314680457115173 0.5555725693702698 -0
vn -0.8314680457115173 0.5555725693702698 -0
vn -0.8314680457115173 0.5555725693702698 -0
vn 0.00000008980362764532401 -0 -1
vn 0.00000008980362764532401 -0 -1
vn 0.00000008980362764532401 -0 -1
vn 0 -0 -0.9999999403953552
vn 0 -0 -0.9999999403953552
vn -0.5555655360221863 0.8314726948738098 -0
vn -0.5555655360221863 0.8314726948738098 -0
vn -0.5555655360221863 0.8314726948738098 -0
vn -0.5555693507194519 0.8314701914787292 -0
vn -0.5555693507194519 0.8314701914787292 -0
vn -0.5555693507194519 0.8314701914787292 -0
vn 0 -0 -1
vn 0 -0 -1
vn -0.19509312510490417 0.9807847738265991 -0
vn -0.19509312510490417 0.9807847738265991 -0
vn -0.19509312510490417 0.9807847738265991 -0
vn -0.1950913369655609 0.980785071849823 -0
vn -0.1950913369655609 0.980785071849823 -0
vn -0.1950913369655609 0.980785071849823 -0
vn 0 -0 -1
vn 0 -0 -1
vn 0.19509419798851013 0.98078453540802 -0
vn 0.19509419798851013 0.98078453540802 -0
vn 0.19509419798851013 0.98078453540802 -0
f 3/3/3 2/2/2 1/1/1
f 6/6/6 5/5/5 4/4/4
f 9/9/9 8/8/8 7/7/7
f 12/12/12 11/11/11 10/10/10
f 15/15/15 14/14/14 13/13/13
f 18/18/18 17/17/17 16/16/16
f 21/21/21 20/20/20 19/19/19
f 24/24/24 23/23/23 22/22/22
f 27/27/27 26/26/26 25/25/25
f 30/30/30 29/29/29 28/28/28
f 33/33/33 32/32/32 31/31/31
f 36/36/36 35/35/35 34/34/34
f 35/35/35 37/37/37 34/34/34
f 40/40/40 39/39/39 38/38/38
f 43/43/43 42/42/42 41/41/41
f 46/46/46 45/45/45 44/44/44
f 49/49/49 48/48/48 47/47/47
f 37/37/37 50/50/50 34/34/34
f 53/53/53 52/52/52 51/51/51
f 56/56/56 55/55/55 54/54/54
f 59/59/59 58/58/58 57/57/57
f 62/62/62 61/61/61 60/60/60
f 65/65/65 64/64/64 63/63/63
f 67/67/67 66/66/66 54/54/54
f 70/70/70 69/69/69 68/68/68
f 73/73/73 72/72/72 71/71/71
f 76/76/76 75/75/75 74/74/74
f 79/79/79 78/78/78 77/77/77
f 82/82/82 81/81/81 80/80/80
f 85/85/85 84/84/84 83/83/83
f 88/88/88 87/87/87 86/86/86
f 91/91/91 90/90/90 89/89/89
f 93/93/93 92/92/92 57/57/57
f 96/96/96 95/95/95 94/94/94
f 99/99/99 98/98/98 97/97/97
f 101/101/101 100/100/100 54/54/54
f 104/104/104 103/103/103 102/102/102
f 107/107/107 106/106/106 105/105/105
f 100/100/100 109/109/109 108/108/108
f 112/112/112 111/111/111 110/110/110
