# VPXTOOL table OBJ file
# VPXTOOL OBJ file
# numVerts: 28 numFaces: 33
o LM_L_LB4_Layer1
v 13.048419952392578 -55.82217788696289 -4.451416492462158
v 13.048419952392578 -55.82217788696289 -0.4631783366203308
v 46.254695892333984 -30.692720413208008 -0.4631783366203308
v -33.02505874633789 -32.03665542602539 -4.451416492462158
v 13.048419952392578 -55.82217788696289 -4.451416492462158
v 46.254695892333984 -30.692720413208008 -4.451416492462158
v 46.254695892333984 -30.692720413208008 -4.451416492462158
v -33.02505874633789 -32.03665542602539 -4.451416492462158
v -28.316043853759766 73.21063995361328 -4.451416492462158
v -33.02505874633789 -32.03665542602539 -0.4631783366203308
v -33.02505874633789 -32.03665542602539 -4.451416492462158
v 46.254695892333984 -30.692720413208008 -4.451416492462158
v -28.316043853759766 73.21063995361328 -4.451416492462158
v 46.254695892333984 -30.692720413208008 -4.451416492462158
v 46.254695892333984 -30.692720413208008 -0.4631783366203308
v 51.21830749511719 71.25801849365234 -0.4631783366203308
v -28.316043853759766 73.21063995361328 -4.451416492462158
v -28.316043853759766 73.21063995361328 -0.4631783366203308
v -33.02505874633789 -32.03665542602539 -0.4631783366203308
v -28.316043853759766 73.21063995361328 -4.451416492462158
v 51.21830749511719 71.25801849365234 -4.451416492462158
v 51.21830749511719 71.25801849365234 -4.451416492462158
v 46.254695892333984 -30.692720413208008 -4.451416492462158
v 51.21830749511719 71.25801849365234 -0.4631783366203308
v -28.316043853759766 73.21063995361328 -4.451416492462158
v 51.21830749511719 71.25801849365234 -4.451416492462158
v -28.316043853759766 73.21063995361328 -0.4631783366203308
v 51.21830749511719 71.25801849365234 -0.4631783366203308
vt 0.36673614382743835 0.32591700553894043
vt 0.3665563762187958 0.3265572190284729
vt 0.39460572600364685 0.3324701189994812
vt 0.31253933906555176 0.32780468463897705
vt 0.36673614382743835 0.32591700553894043
vt 0.3948138952255249 0.3318327069282532
vt 0.3948138952255249 0.3318327069282532
vt 0.31253933906555176 0.32780468463897705
vt 0.28873881697654724 0.34639590978622437
vt 0.3124122619628906 0.32844406366348267
vt 0.31253933906555176 0.32780468463897705
vt 0.3948138952255249 0.3318327069282532
vt 0.28873881697654724 0.34639590978622437
vt 0.3948138952255249 0.3318327069282532
vt 0.39460572600364685 0.3324701189994812
vt 0.3731106221675873 0.3505978584289551
vt 0.28873881697654724 0.34639590978622437
vt 0.2886335253715515 0.3470262289047241
vt 0.3124122619628906 0.32844406366348267
vt 0.28873881697654724 0.34639590978622437
vt 0.3733004033565521 0.3499693274497986
vt 0.3733004033565521 0.3499693274497986
vt 0.3948138952255249 0.3318327069282532
vt 0.3731106221675873 0.3505978584289551
vt 0.28873881697654724 0.34639590978622437
vt 0.3733004033565521 0.3499693274497986
vt 0.2886335253715515 0.3470262289047241
vt 0.3731106221675873 0.3505978584289551
vn 0.6034485101699829 -0.7974019050598145 -0
vn 0.6034485101699829 -0.7974019050598145 -0
vn 0.6034485101699829 -0.7974019050598145 -0
vn 0 -0 -1
vn 0 -0 -1
vn 0 -0 -1
vn 0.6034485101699829 -0.7974019050598145 -0
vn -0.9990005493164063 0.04469766840338707 -0
vn -0.9990005493164063 0.04469766840338707 -0
vn -0.9990005493164063 0.04469766840338707 -0
vn -0.000000002059367343321128 -0 -1
vn -0.000000002059367343321128 -0 -1
vn -0.000000002059367343321128 -0 -1
vn 0.9988169074058533 -0.04862874746322632 -0
vn 0.9988169074058533 -0.04862874746322632 -0
vn 0.9988169074058533 -0.04862874746322632 -0
vn -0.9990005493164063 0.04469766467809677 -0
vn -0.9990005493164063 0.04469766467809677 -0
vn -0.9990005493164063 0.04469766467809677 -0
vn 0 -0 -1
vn 0 -0 -1
vn 0.9988168478012085 -0.048628803342580795 -0
vn 0.9988168478012085 -0.048628803342580795 -0
vn 0.9988168478012085 -0.048628803342580795 -0
vn 0.024543315172195435 0.99969881772995 -0
vn 0.024543315172195435 0.99969881772995 -0
vn 0.024543315172195435 0.99969881772995 -0
vn 0.024543315172195435 0.99969881772995 -0
f 3/3/3 2/2/2 1/1/1
f 6/6/6 5/5/5 4/4/4
f 3/3/3 1/1/1 7/7/7
f 10/10/10 9/9/9 8/8/8
f 13/13/13 12/12/12 11/11/11
f 16/16/16 15/15/15 14/14/14
f 19/19/19 18/18/18 17/17/17
f 21/21/21 6/6/6 20/20/20
f 24/24/24 23/23/23 22/22/22
f 27/27/27 26/26/26 25/25/25
f 27/27/27 28/28/28 26/26/26
