# VPXTOOL table OBJ file
# VPXTOOL OBJ file
# numVerts: 57 numFaces: 126
o LM_L_LH3_Playfield
v -244.15174865722656 563.1470947265625 23.52941131591797
v -233.93276977539063 534.5339965820313 23.52941131591797
v -233.93276977539063 534.5339965820313 -0
v -233.93276977539063 534.5339965820313 -0
v -233.93276977539063 534.5339965820313 23.52941131591797
v -233.8252410888672 532.7052612304688 -0
v -246.41070556640625 566.3740844726563 23.52941131591797
v -244.15174865722656 563.1470947265625 23.52941131591797
v -244.15174865722656 563.1470947265625 -0
v -244.15174865722656 563.1470947265625 -0
v -244.15174865722656 563.1470947265625 23.52941131591797
v -233.93276977539063 534.5339965820313 -0
v -248.99212646484375 568.3103637695313 23.52941131591797
v -246.41070556640625 566.3740844726563 23.52941131591797
v -246.41070556640625 566.3740844726563 -0
v -251.68153381347656 569.3861694335938 23.52941131591797
v -248.99212646484375 568.3103637695313 23.52941131591797
v -248.99212646484375 568.3103637695313 -0
v -246.41070556640625 566.3740844726563 -0
v -246.41070556640625 566.3740844726563 23.52941131591797
v -244.15174865722656 563.1470947265625 -0
v -248.99212646484375 568.3103637695313 -0
v -251.68153381347656 569.3861694335938 -0
v -41.22587585449219 534.7922973632813 -0
v -233.93276977539063 534.5339965820313 -0
v -233.8252410888672 532.7052612304688 -0
v -233.93276977539063 534.5339965820313 -0
v -41.22587585449219 534.7922973632813 -0
v -36.2238883972168 548.8837280273438 -0
v -106.2380599975586 639.1170654296875 -0
v 151.48098754882813 535.0505981445313 -0
v -244.15174865722656 563.1470947265625 -0
v -176.25222778320313 729.3502807617188 -0
v -232.36293029785156 746.2383422851563 -0
v -251.68153381347656 569.3861694335938 -0
v -248.99212646484375 568.3103637695313 -0
v -246.41070556640625 566.3740844726563 -0
v -244.15174865722656 563.1470947265625 -0
v -181.36172485351563 743.6567993164063 -0
v -246.41070556640625 566.3740844726563 -0
v -182.49119567871094 745.2703247070313 -0
v 161.48497009277344 563.2334594726563 -0
v 91.47079467773438 653.466796875 -0
v -233.70762634277344 746.7762451171875 -0
v -181.36172485351563 743.6567993164063 -0
v -183.7819061279297 746.2384643554688 -0
v 21.456623077392578 743.7000122070313 -0
v 21.456623077392578 743.7000122070313 -0
v 91.47079467773438 653.466796875 -0
v 92.43888092041016 654.9189453125 -0
v 92.92289733886719 655.6448974609375 -0
v 92.43888092041016 654.9189453125 -0
v 22.42470932006836 745.1521606445313 -0
v -215.73370361328125 924.166259765625 -0
v -48.55752182006836 833.9331665039063 -0
v -118.57166290283203 924.16650390625 -0
v -48.07347869873047 834.6593627929688 -0
vt 0.8208799958229065 0.9968233108520508
vt 0.8130627870559692 0.9935358166694641
vt 0.8105580806732178 0.9940023422241211
vt 0.8105580806732178 0.9940023422241211
vt 0.8130627870559692 0.9935358166694641
vt 0.8100583553314209 0.9939500689506531
vt 0.8217664361000061 0.9975168108940125
vt 0.8208799958229065 0.9968233108520508
vt 0.8184175491333008 0.9973150491714478
vt 0.8184175491333008 0.9973150491714478
vt 0.8208799958229065 0.9968233108520508
vt 0.8105580806732178 0.9940023422241211
vt 0.8222987651824951 0.9982888102531433
vt 0.8217664361000061 0.9975168108940125
vt 0.8193087577819824 0.9980136156082153
vt 0.8225947022438049 0.9990819692611694
vt 0.8222987651824951 0.9982888102531433
vt 0.8198440074920654 0.9987911581993103
vt 0.8193087577819824 0.9980136156082153
vt 0.8217664361000061 0.9975168108940125
vt 0.8184175491333008 0.9973150491714478
vt 0.8198440074920654 0.9987911581993103
vt 0.8201415538787842 0.9995899796485901
vt 0.8106287121772766 0.938057005405426
vt 0.8105580806732178 0.9940023422241211
vt 0.8100583553314209 0.9939500689506531
vt 0.8105580806732178 0.9940023422241211
vt 0.8106287121772766 0.938057005405426
vt 0.8144900798797607 0.936629593372345
vt 0.8396631479263306 0.957486093044281
vt 0.8106992840766907 0.8821067214012146
vt 0.8184175491333008 0.9973150491714478
vt 0.8656358122825623 0.9790051579475403
vt 0.8705887794494629 0.9960610270500183
vt 0.8201415538787842 0.9995899796485901
vt 0.8198440074920654 0.9987911581993103
vt 0.8193087577819824 0.9980136156082153
vt 0.8184175491333008 0.9973150491714478
vt 0.8698297739028931 0.9806763529777527
vt 0.8193087577819824 0.9980136156082153
vt 0.8703041076660156 0.9810319542884827
vt 0.8184413909912109 0.8789752721786499
vt 0.8437390923500061 0.8989801406860352
vt 0.8707470297813416 0.9964726567268372
vt 0.8698297739028931 0.9806763529777527
vt 0.8705887794494629 0.9814300537109375
vt 0.8698424696922302 0.9196220636367798
vt 0.8698424696922302 0.9196220636367798
vt 0.8437390923500061 0.8989801406860352
vt 0.8441527485847473 0.8986863493919373
vt 0.8443595767021179 0.8985393643379211
vt 0.8441527485847473 0.8986863493919373
vt 0.8702693581581116 0.9193288683891296
vt 0.9246249198913574 0.9931537508964539
vt 0.8967905044555664 0.9409319758415222
vt 0.9246249794960022 0.9629428386688232
vt 0.8970109224319458 0.940785825252533
vn -0.9417418837547302 -0.33633628487586975 -0
vn -0.9417418837547302 -0.33633628487586975 -0
vn -0.9417418837547302 -0.33633628487586975 -0
vn -0.9982765316963196 -0.05868411436676979 -0
vn -0.9982765316963196 -0.05868411436676979 -0
vn -0.9982765316963196 -0.05868411436676979 -0
vn -0.8192262053489685 -0.5734704732894897 -0
vn -0.8192262053489685 -0.5734704732894897 -0
vn -0.8192262053489685 -0.5734704732894897 -0
vn -0.9417415857315063 -0.33633729815483093 -0
vn -0.9417415857315063 -0.33633729815483093 -0
vn -0.9417415857315063 -0.33633729815483093 -0
vn -0.6000440716743469 -0.7999669909477234 -0
vn -0.6000440716743469 -0.7999669909477234 -0
vn -0.6000440716743469 -0.7999669909477234 -0
vn -0.37140271067619324 -0.9284719228744507 -0
vn -0.37140271067619324 -0.9284719228744507 -0
vn -0.37140271067619324 -0.9284719228744507 -0
vn -0.8192221522331238 -0.573476254940033 -0
vn -0.8192221522331238 -0.573476254940033 -0
vn -0.8192221522331238 -0.573476254940033 -0
vn -0.6000440716743469 -0.7999669909477234 -0
vn -0.37140271067619324 -0.9284719228744507 -0
vn 0 -0 -0.9999999403953552
vn 0 -0 -0.9999999403953552
vn 0 -0 -0.9999999403953552
vn 0 -0 -1
vn 0 -0 -1
vn 0 -0 -1
vn 0 -0 -1
vn 0 -0 -1
vn 0 -0 -1
vn 0 -0 -1
vn 0 -0 -1
vn 0 -0 -1
vn 0 -0 -1
vn 0 -0 -0.9999999403953552
vn 0 -0 -0.9999999403953552
vn 0 -0 -0.9999999403953552
vn 0 -0 -1
vn 0 -0 -1
vn 0 -0 -1
vn 0 -0 -1
vn 0 -0 -1
vn 0 -0 -1
vn 0 -0 -1
vn 0 -0 -1
vn 0 -0 -0.9999999403953552
vn 0 -0 -0.9999999403953552
vn 0 -0 -0.9999999403953552
vn 0 -0 -1
vn 0 -0 -1
vn 0 -0 -1
vn 0 -0 -1
vn 0 -0 -1
vn 0 -0 -1
vn 0 -0 -1
f 3/3/3 2/2/2 1/1/1
f 6/6/6 5/5/5 4/4/4
f 9/9/9 8/8/8 7/7/7
f 12/12/12 11/11/11 10/10/10
f 15/15/15 14/14/14 13/13/13
f 18/18/18 17/17/17 16/16/16
f 21/21/21 20/20/20 19/19/19
f 15/15/15 13/13/13 22/22/22
f 18/18/18 16/16/16 23/23/23
f 26/26/26 25/25/25 24/24/24
f 29/29/29 28/28/28 27/27/27
f 27/27/27 30/30/30 29/29/29
f 31/31/31 28/28/28 29/29/29
f 33/33/33 27/27/27 32/32/32
f 36/36/36 35/35/35 34/34/34
f 39/39/39 38/38/38 37/37/37
f 41/41/41 40/40/40 36/36/36
f 31/31/31 29/29/29 42/42/42
f 27/27/27 33/33/33 30/30/30
f 29/29/29 43/43/43 42/42/42
f 35/35/35 44/44/44 34/34/34
f 33/33/33 32/32/32 45/45/45
f 34/34/34 46/46/46 36/36/36
f 45/45/45 40/40/40 41/41/41
f 41/41/41 36/36/36 46/46/46
f 30/30/30 47/47/47 29/29/29
f 29/29/29 47/47/47 43/43/43
f 30/30/30 33/33/33 47/47/47
f 50/50/50 49/49/49 48/48/48
f 52/52/52 47/47/47 51/51/51
f 47/47/47 53/53/53 51/51/51
f 44/44/44 54/54/54 34/34/34
f 54/54/54 46/46/46 34/34/34
f 33/33/33 55/55/55 47/47/47
f 56/56/56 33/33/33 45/45/45
f 41/41/41 56/56/56 45/45/45
f 46/46/46 56/56/56 41/41/41
f 53/53/53 47/47/47 55/55/55
f 33/33/33 56/56/56 55/55/55
f 55/55/55 57/57/57 53/53/53
f 54/54/54 56/56/56 46/46/46
f 55/55/55 56/56/56 57/57/57
