# VPXTOOL table OBJ file
# VPXTOOL OBJ file
# numVerts: 90 numFaces: 186
o LM_L_LMR_Playfield
v 10.125280380249023 -603.9579467773438 -0
v -57.73274230957031 -700.3851318359375 -0
v -55.473785400390625 -699.6322021484375 -0
v -34.282859802246094 -699.6322021484375 -0
v -32.56174850463867 -699.9548950195313 -0
v -30.840641021728516 -701.4609375 -0
v 58.71071243286133 -641.7041015625 -0
v 81.34468841552734 -631.5448608398438 23.52941131591797
v 83.73511505126953 -631.32080078125 23.52941131591797
v 83.73511505126953 -631.32080078125 -0
v 81.34468841552734 -631.5448608398438 -0
v 83.73511505126953 -631.32080078125 -0
v 83.73511505126953 -631.32080078125 23.52941131591797
v 85.52794647216797 -632.1425170898438 -0
v 58.71071243286133 -641.7041015625 -0
v 58.71071243286133 -639.612548828125 -0
v 10.125280380249023 -603.9579467773438 -0
v 58.71071243286133 -639.612548828125 -0
v 59.308250427246094 -637.9691162109375 -0
v 60.57814025878906 -636.92333984375 -0
v 81.34468841552734 -631.5448608398438 -0
v 83.73511505126953 -631.32080078125 -0
v -159.4340057373047 -481.76055908203125 -0
v 130.677734375 -544.69677734375 -0
v 251.2301788330078 -485.4356994628906 -0
v 85.52794647216797 -632.1425170898438 -0
v 165.15322875976563 -645.969482421875 -0
v 129.8709259033203 -544.3831176757813 -0
v 129.4656524658203 -543.7645874023438 -0
v 126.67745971679688 -534.3932495117188 -0
v 126.75492095947266 -533.3090209960938 -0
v -158.27227783203125 -480.08258056640625 -0
v -157.88511657714844 -478.6626892089844 -0
v -158.0142059326172 -434.0003967285156 -0
v 42.68515396118164 -448.3301696777344 -0
v 252.933349609375 -485.34613037109375 -0
v 249.6165771484375 -484.80828857421875 -0
v 248.80601501464844 -483.57122802734375 -0
v 126.67745971679688 -534.3932495117188 -0
v 129.4656524658203 -543.7645874023438 -0
v 248.80601501464844 -483.57122802734375 -0
v 243.22962951660156 -464.82861328125 -0
v -158.0142059326172 -434.0003967285156 -0
v -158.0142059326172 -434.0003967285156 23.52941131591797
v -157.88511657714844 -478.6626892089844 -0
v -158.7886505126953 -431.418701171875 23.52941131591797
v -158.0142059326172 -434.0003967285156 23.52941131591797
v -158.0142059326172 -434.0003967285156 -0
v 252.933349609375 -485.34613037109375 23.52941131591797
v 251.2301788330078 -485.4356994628906 23.52941131591797
v 251.2301788330078 -485.4356994628906 -0
v 251.2301788330078 -485.4356994628906 23.52941131591797
v 249.6165771484375 -484.80828857421875 23.52941131591797
v 249.6165771484375 -484.80828857421875 -0
v 249.6165771484375 -484.80828857421875 23.52941131591797
v 248.80601501464844 -483.57122802734375 23.52941131591797
v 248.80601501464844 -483.57122802734375 -0
v -158.7886505126953 -431.418701171875 -0
v -158.7886505126953 -431.418701171875 23.52941131591797
v -158.0142059326172 -434.0003967285156 -0
v 252.933349609375 -485.34613037109375 -0
v 251.2301788330078 -485.4356994628906 -0
v 251.2301788330078 -485.4356994628906 23.52941131591797
v 249.6165771484375 -484.80828857421875 -0
v 243.3845672607422 -462.6600341796875 -0
v 249.6165771484375 -484.80828857421875 -0
v 248.80601501464844 -483.57122802734375 23.52941131591797
v 243.22962951660156 -464.82861328125 23.52941131591797
v 243.22962951660156 -464.82861328125 -0
v 248.80601501464844 -483.57122802734375 -0
v 243.22962951660156 -464.82861328125 23.52941131591797
v 243.3845672607422 -462.6600341796875 23.52941131591797
v 243.3845672607422 -462.6600341796875 -0
v 243.22962951660156 -464.82861328125 -0
v 243.22962951660156 -464.82861328125 23.52941131591797
v 243.3845672607422 -462.6600341796875 -0
v 243.3845672607422 -462.6600341796875 -0
v 243.3845672607422 -462.6600341796875 23.52941131591797
v 244.93356323242188 -460.49139404296875 -0
v -158.7886505126953 -431.418701171875 -0
v -54.83298873901367 -295.2872009277344 -0
v 145.86639404296875 -309.61700439453125 -0
v 146.3639373779297 -309.616943359375 -0
v 244.93356323242188 -460.49139404296875 -0
v -55.220211029052734 -293.996337890625 -0
v -54.83298873901367 -295.2872009277344 -0
v 48.348228454589844 -156.573974609375 -0
v -55.220211029052734 -293.996337890625 -0
v 48.348228454589844 -156.573974609375 -0
v 49.34331512451172 -156.57386779785156 -0
vt 0.19328247010707855 0.748475968837738
vt 0.17082802951335907 0.7302305698394775
vt 0.1715719997882843 0.7303711175918579
vt 0.17856962978839874 0.7303711175918579
vt 0.17913846671581268 0.7303109169006348
vt 0.17970889806747437 0.730029821395874
vt 0.20943878591060638 0.7412744164466858
vt 0.2168564647436142 0.7468277215957642
vt 0.21764974296092987 0.7468702793121338
vt 0.21781159937381744 0.7432477474212646
vt 0.21701371669769287 0.7432051301002502
vt 0.21781159937381744 0.7432477474212646
vt 0.21764974296092987 0.7468702793121338
vt 0.21840603649616241 0.743091344833374
vt 0.20943878591060638 0.7412744164466858
vt 0.20944467186927795 0.7416714429855347
vt 0.19328247010707855 0.748475968837738
vt 0.20944467186927795 0.7416714429855347
vt 0.20964829623699188 0.7419835329055786
vt 0.21007435023784637 0.7421822547912598
vt 0.21701371669769287 0.7432051301002502
vt 0.21781159937381744 0.7432477474212646
vt 0.1355847269296646 0.7723307609558105
vt 0.2340085804462433 0.759939968585968
vt 0.27543461322784424 0.7716010212898254
vt 0.21840603649616241 0.743091344833374
vt 0.2448434680700302 0.740465521812439
vt 0.23373818397521973 0.7600011825561523
vt 0.2336052805185318 0.7601218819618225
vt 0.23272192478179932 0.7619531154632568
vt 0.23275484144687653 0.7621653079986572
vt 0.1359674036502838 0.7726642489433289
vt 0.1360882818698883 0.7729465365409851
vt 0.13569429516792297 0.7818858623504639
vt 0.20450995862483978 0.7790049910545349
vt 0.27601563930511475 0.7716188430786133
vt 0.2748929560184479 0.7717255353927612
vt 0.27463221549987793 0.7719711065292358
vt 0.23272192478179932 0.7619531154632568
vt 0.2336052805185318 0.7601218819618225
vt 0.27463221549987793 0.7719711065292358
vt 0.27295947074890137 0.7757030725479126
vt 0.13569429516792297 0.7818858623504639
vt 0.13601383566856384 0.7853834629058838
vt 0.1360882818698883 0.7729465365409851
vt 0.13572953641414642 0.7859020233154297
vt 0.13601383566856384 0.7853834629058838
vt 0.13569429516792297 0.7818858623504639
vt 0.27550840377807617 0.7751508951187134
vt 0.27493083477020264 0.7751331329345703
vt 0.27543461322784424 0.7716010212898254
vt 0.27493083477020264 0.7751331329345703
vt 0.274392306804657 0.7752572298049927
vt 0.2748929560184479 0.7717255353927612
vt 0.274392306804657 0.7752572298049927
vt 0.27413299679756165 0.77550208568573
vt 0.27463221549987793 0.7719711065292358
vt 0.13540814816951752 0.7824061512947083
vt 0.13572953641414642 0.7859020233154297
vt 0.13569429516792297 0.7818858623504639
vt 0.27601563930511475 0.7716188430786133
vt 0.27543461322784424 0.7716010212898254
vt 0.27493083477020264 0.7751331329345703
vt 0.2748929560184479 0.7717255353927612
vt 0.27303868532180786 0.7761361598968506
vt 0.2748929560184479 0.7717255353927612
vt 0.27413299679756165 0.77550208568573
vt 0.27246877551078796 0.7792215347290039
vt 0.27295947074890137 0.7757030725479126
vt 0.27463221549987793 0.7719711065292358
vt 0.27246877551078796 0.7792215347290039
vt 0.27254733443260193 0.7796531915664673
vt 0.27303868532180786 0.7761361598968506
vt 0.27295947074890137 0.7757030725479126
vt 0.27246877551078796 0.7792215347290039
vt 0.27303868532180786 0.7761361598968506
vt 0.27303868532180786 0.7761361598968506
vt 0.27254733443260193 0.7796531915664673
vt 0.27359429001808167 0.7765695452690125
vt 0.13540814816951752 0.7824061512947083
vt 0.17070433497428894 0.810408890247345
vt 0.2408657819032669 0.807407796382904
vt 0.24103960394859314 0.807407796382904
vt 0.27359429001808167 0.7765695452690125
vt 0.17056508362293243 0.8106798529624939
vt 0.17070433497428894 0.810408890247345
vt 0.20719335973262787 0.8401368856430054
vt 0.17056508362293243 0.8106798529624939
vt 0.20719335973262787 0.8401368856430054
vt 0.2075491100549698 0.8401368856430054
vn 0 -0 -1
vn 0 -0 -1
vn 0 -0 -1
vn 0 -0 -1
vn 0 -0 -1
vn 0 -0 -1
vn 0 -0 -1
vn 0.0933244451880455 -0.9956356883049011 -0
vn 0.0933244451880455 -0.9956356883049011 -0
vn 0.0933244451880455 -0.9956356883049011 -0
vn 0.0933244451880455 -0.9956356883049011 -0
vn -0.41665101051330566 -0.9090664982795715 -0
vn -0.41665101051330566 -0.9090664982795715 -0
vn -0.41665101051330566 -0.9090664982795715 -0
vn 0 -0 -0.9999999403953552
vn 0 -0 -0.9999999403953552
vn 0 -0 -0.9999999403953552
vn 0 -0 -1
vn 0 -0 -1
vn 0 -0 -1
vn 0 -0 -1
vn 0 -0 -1
vn 0 -0 -1
vn 0 -0 -1
vn 0 -0 -1
vn 0 -0 -1
vn 0 -0 -1
vn 0 -0 -1
vn 0 -0 -1
vn 0 -0 -1
vn 0 -0 -1
vn 0 -0 -1
vn 0 -0 -1
vn 0 -0 -1
vn 0 -0 -1
vn 0 -0 -1
vn 0 -0 -1
vn 0 -0 -1
vn 0 -0 -0.9999999403953552
vn 0 -0 -0.9999999403953552
vn 0 -0 -0.9999999403953552
vn 0 -0 -1
vn -0.9999958276748657 -0.002890672069042921 -0
vn -0.9999958276748657 -0.002890672069042921 -0
vn -0.9999958276748657 -0.002890672069042921 -0
vn -0.9578313231468201 -0.28733107447624207 -0
vn -0.9578313231468201 -0.28733107447624207 -0
vn -0.9578313231468201 -0.28733107447624207 -0
vn -0.05251152440905571 0.9986203908920288 -0
vn -0.05251152440905571 0.9986203908920288 -0
vn -0.05251152440905571 0.9986203908920288 -0
vn 0.3623974919319153 0.9320236444473267 -0
vn 0.3623974919319153 0.9320236444473267 -0
vn 0.3623974919319153 0.9320236444473267 -0
vn 0.8364331126213074 0.5480689406394958 -0
vn 0.8364331126213074 0.5480689406394958 -0
vn 0.8364331126213074 0.5480689406394958 -0
vn -0.957834780216217 -0.28731951117515564 -0
vn -0.957834780216217 -0.28731951117515564 -0
vn -0.957834780216217 -0.28731951117515564 -0
vn -0.05251152440905571 0.9986203908920288 -0
vn 0.3623908758163452 0.9320262670516968 -0
vn 0.3623908758163452 0.9320262670516968 -0
vn 0.3623908758163452 0.9320262670516968 -0
vn 0 -0 -1
vn 0.8364331126213074 0.5480689406394958 -0
vn 0.9584768414497375 0.285170316696167 -0
vn 0.9584768414497375 0.285170316696167 -0
vn 0.9584768414497375 0.285170316696167 -0
vn 0.9584768414497375 0.285170316696167 -0
vn 0.9974581003189087 -0.07125656306743622 -0
vn 0.9974581003189087 -0.07125656306743622 -0
vn 0.9974581003189087 -0.07125656306743622 -0
vn 0.9974569082260132 -0.0712720975279808 -0
vn 0.9974569082260132 -0.0712720975279808 -0
vn 0.9974569082260132 -0.0712720975279808 -0
vn 0.8137337565422058 -0.58123779296875 -0
vn 0.8137337565422058 -0.58123779296875 -0
vn 0.8137337565422058 -0.58123779296875 -0
vn 0 -0 -1
vn 0 -0 -1
vn 0 -0 -1
vn 0 -0 -1
vn 0 -0 -1
vn 0 -0 -1
vn 0 -0 -0.9999999403953552
vn 0 -0 -0.9999999403953552
vn 0 -0 -0.9999999403953552
vn 0 -0 -1
vn 0 -0 -1
f 3/3/3 2/2/2 1/1/1
f 4/4/4 3/3/3 1/1/1
f 6/6/6 5/5/5 1/1/1
f 5/5/5 4/4/4 1/1/1
f 1/1/1 7/7/7 6/6/6
f 10/10/10 9/9/9 8/8/8
f 10/10/10 8/8/8 11/11/11
f 14/14/14 13/13/13 12/12/12
f 17/17/17 16/16/16 15/15/15
f 1/1/1 19/19/19 18/18/18
f 1/1/1 20/20/20 19/19/19
f 1/1/1 21/21/21 20/20/20
f 22/22/22 21/21/21 1/1/1
f 1/1/1 2/2/2 23/23/23
f 22/22/22 1/1/1 24/24/24
f 27/27/27 26/26/26 25/25/25
f 26/26/26 22/22/22 25/25/25
f 24/24/24 1/1/1 28/28/28
f 28/28/28 1/1/1 29/29/29
f 30/30/30 29/29/29 1/1/1
f 30/30/30 1/1/1 31/31/31
f 32/32/32 1/1/1 23/23/23
f 33/33/33 1/1/1 32/32/32
f 22/22/22 24/24/24 25/25/25
f 34/34/34 1/1/1 33/33/33
f 1/1/1 35/35/35 31/31/31
f 27/27/27 25/25/25 36/36/36
f 28/28/28 37/37/37 24/24/24
f 29/29/29 38/38/38 28/28/28
f 1/1/1 34/34/34 35/35/35
f 41/41/41 40/40/40 39/39/39
f 42/42/42 30/30/30 31/31/31
f 45/45/45 44/44/44 43/43/43
f 37/37/37 25/25/25 24/24/24
f 38/38/38 37/37/37 28/28/28
f 48/48/48 47/47/47 46/46/46
f 51/51/51 50/50/50 49/49/49
f 54/54/54 53/53/53 52/52/52
f 57/57/57 56/56/56 55/55/55
f 38/38/38 30/30/30 42/42/42
f 60/60/60 59/59/59 58/58/58
f 51/51/51 49/49/49 61/61/61
f 64/64/64 63/63/63 62/62/62
f 65/65/65 31/31/31 35/35/35
f 57/57/57 55/55/55 66/66/66
f 31/31/31 65/65/65 42/42/42
f 69/69/69 68/68/68 67/67/67
f 69/69/69 67/67/67 70/70/70
f 73/73/73 72/72/72 71/71/71
f 76/76/76 75/75/75 74/74/74
f 79/79/79 78/78/78 77/77/77
f 81/81/81 34/34/34 80/80/80
f 34/34/34 81/81/81 35/35/35
f 35/35/35 82/82/82 65/65/65
f 84/84/84 65/65/65 83/83/83
f 81/81/81 80/80/80 85/85/85
f 35/35/35 81/81/81 82/82/82
f 83/83/83 65/65/65 82/82/82
f 88/88/88 87/87/87 86/86/86
f 81/81/81 89/89/89 82/82/82
f 90/90/90 83/83/83 82/82/82
f 89/89/89 90/90/90 82/82/82
