# VPXTOOL table OBJ file
# VPXTOOL OBJ file
# numVerts: 102 numFaces: 138
o LM_L_LW8_UnderPF
v -2.8842685222625732 140.3592987060547 -32.29457092285156
v -13.502232551574707 142.47128295898438 -32.29457092285156
v -2.8842685222625732 140.3592987060547 -25.465497970581055
v -13.502232551574707 142.47128295898438 -32.29457092285156
v -24.120223999023438 140.3592987060547 -32.29457092285156
v -13.502232551574707 142.47128295898438 -25.465497970581055
v -13.502232551574707 142.47128295898438 -32.29457092285156
v -13.502232551574707 142.47128295898438 -25.465497970581055
v -2.8842685222625732 140.3592987060547 -25.465497970581055
v 6.117219924926758 134.34461975097656 -32.29457092285156
v -2.8842685222625732 140.3592987060547 -32.29457092285156
v 6.117219924926758 134.34461975097656 -25.465497970581055
v -2.8842685222625732 140.3592987060547 -25.465497970581055
v -24.120223999023438 140.3592987060547 -32.29457092285156
v -24.120223999023438 140.3592987060547 -25.465497970581055
v -13.502232551574707 142.47128295898438 -25.465497970581055
v 6.117219924926758 134.34461975097656 -25.465497970581055
v -2.8842685222625732 140.3592987060547 -25.465497970581055
v -13.502232551574707 142.47128295898438 -25.465497970581055
v -24.120223999023438 140.3592987060547 -32.29457092285156
v -33.12168502807617 134.34461975097656 -32.29457092285156
v -24.120223999023438 140.3592987060547 -25.465497970581055
v 6.117219924926758 134.34461975097656 -32.29457092285156
v 6.117219924926758 134.34461975097656 -25.465497970581055
v 12.131794929504395 125.3432388305664 -25.465497970581055
v 12.131794929504395 125.3432388305664 -32.29457092285156
v 6.117219924926758 134.34461975097656 -32.29457092285156
v 12.131794929504395 125.3432388305664 -25.465497970581055
v -24.120223999023438 140.3592987060547 -25.465497970581055
v -33.12168502807617 134.34461975097656 -25.465497970581055
v -33.12168502807617 134.34461975097656 -32.29457092285156
v -33.12168502807617 134.34461975097656 -25.465497970581055
v -24.120223999023438 140.3592987060547 -25.465497970581055
v -33.12168502807617 134.34461975097656 -32.29457092285156
v -39.136287689208984 125.3432388305664 -32.29457092285156
v -33.12168502807617 134.34461975097656 -25.465497970581055
v 14.243853569030762 114.72516632080078 -25.465497970581055
v 12.131794929504395 125.3432388305664 -25.465497970581055
v 12.131794929504395 125.3432388305664 -32.29457092285156
v 12.131794929504395 125.3432388305664 -25.465497970581055
v 14.243853569030762 114.72516632080078 -25.465497970581055
v 14.243853569030762 114.72516632080078 -32.29457092285156
v -39.136287689208984 125.3432388305664 -32.29457092285156
v -39.136287689208984 125.3432388305664 -25.465497970581055
v -33.12168502807617 134.34461975097656 -25.465497970581055
v -13.502232551574707 86.97916412353516 -25.465497970581055
v 6.117219924926758 134.34461975097656 -25.465497970581055
v -13.502232551574707 142.47128295898438 -25.465497970581055
v -39.136287689208984 125.3432388305664 -32.29457092285156
v -41.248348236083984 114.72516632080078 -32.29457092285156
v -39.136287689208984 125.3432388305664 -25.465497970581055
v -39.136287689208984 125.3432388305664 -25.465497970581055
v -41.248348236083984 114.72516632080078 -25.465497970581055
v -33.12168502807617 134.34461975097656 -25.465497970581055
v 14.243853569030762 114.72516632080078 -32.29457092285156
v 14.243853569030762 114.72516632080078 -25.465497970581055
v 12.131794929504395 104.1072006225586 -25.465497970581055
v 12.131794929504395 104.1072006225586 -32.29457092285156
v -41.248348236083984 114.72516632080078 -25.465497970581055
v -13.502232551574707 86.97916412353516 -25.465497970581055
v -41.248348236083984 114.72516632080078 -32.29457092285156
v -39.136287689208984 104.1072006225586 -32.29457092285156
v -41.248348236083984 114.72516632080078 -25.465497970581055
v 12.131794929504395 104.1072006225586 -32.29457092285156
v 12.131794929504395 104.1072006225586 -25.465497970581055
v 6.117219924926758 95.105712890625 -25.465497970581055
v 6.117219924926758 95.105712890625 -32.29457092285156
v 12.131794929504395 104.1072006225586 -32.29457092285156
v 6.117219924926758 95.105712890625 -25.465497970581055
v 12.131794929504395 104.1072006225586 -25.465497970581055
v -39.136287689208984 104.1072006225586 -25.465497970581055
v -39.136287689208984 104.1072006225586 -32.29457092285156
v -33.12168502807617 95.105712890625 -32.29457092285156
v -39.136287689208984 104.1072006225586 -25.465497970581055
v 6.117219924926758 95.105712890625 -32.29457092285156
v 6.117219924926758 95.105712890625 -25.465497970581055
v -2.8842685222625732 89.09114074707031 -25.465497970581055
v -39.136287689208984 104.1072006225586 -25.465497970581055
v -2.8842685222625732 89.09114074707031 -32.29457092285156
v 6.117219924926758 95.105712890625 -25.465497970581055
v -33.12168502807617 95.105712890625 -25.465497970581055
v -33.12168502807617 95.105712890625 -32.29457092285156
v -24.120223999023438 89.09114074707031 -32.29457092285156
v -33.12168502807617 95.105712890625 -25.465497970581055
v -13.502232551574707 86.97916412353516 -32.29457092285156
v -2.8842685222625732 89.09114074707031 -32.29457092285156
v -13.502232551574707 86.97916412353516 -25.465497970581055
v -33.12168502807617 95.105712890625 -25.465497970581055
v -2.8842685222625732 89.09114074707031 -25.465497970581055
v -2.8842685222625732 89.09114074707031 -32.29457092285156
v -2.8842685222625732 89.09114074707031 -25.465497970581055
v -13.502232551574707 86.97916412353516 -25.465497970581055
v -24.120223999023438 89.09114074707031 -32.29457092285156
v -13.502232551574707 86.97916412353516 -32.29457092285156
v -24.120223999023438 89.09114074707031 -25.465497970581055
v -24.120223999023438 89.09114074707031 -32.29457092285156
v -24.120223999023438 89.09114074707031 -25.465497970581055
v -33.12168502807617 95.105712890625 -25.465497970581055
v -13.502232551574707 86.97916412353516 -32.29457092285156
v -13.502232551574707 86.97916412353516 -25.465497970581055
v -24.120223999023438 89.09114074707031 -25.465497970581055
v -24.120223999023438 89.09114074707031 -25.465497970581055
vt 0.09314604848623276 0.8867648243904114
vt 0.09463519603013992 0.8881639242172241
vt 0.09575777500867844 0.8867562413215637
vt 0.09463519603013992 0.8881639242172241
vt 0.09314604848623276 0.8895589113235474
vt 0.09724497050046921 0.8881526589393616
vt 0.09463519603013992 0.8881639242172241
vt 0.09724497050046921 0.8881526589393616
vt 0.09575777500867844 0.8867562413215637
vt 0.08891084045171738 0.8855772018432617
vt 0.09314604848623276 0.8867648243904114
vt 0.09152797609567642 0.8855708837509155
vt 0.09575777500867844 0.8867562413215637
vt 0.09314604848623276 0.8895589113235474
vt 0.09575777500867844 0.8895451426506042
vt 0.09724497050046921 0.8881526589393616
vt 0.09152797609567642 0.8855708837509155
vt 0.09575777500867844 0.8867562413215637
vt 0.09724497050046921 0.8881526589393616
vt 0.09314604848623276 0.8895589113235474
vt 0.08891084045171738 0.8907351493835449
vt 0.09575777500867844 0.8895451426506042
vt 0.08891084045171738 0.8855772018432617
vt 0.09152797609567642 0.8855708837509155
vt 0.08521263301372528 0.8847780227661133
vt 0.08258746564388275 0.8847829103469849
vt 0.08891084045171738 0.8855772018432617
vt 0.08521263301372528 0.8847780227661133
vt 0.09575777500867844 0.8895451426506042
vt 0.09152797609567642 0.8907191157341003
vt 0.08891084045171738 0.8907351493835449
vt 0.09152797609567642 0.8907191157341003
vt 0.09575777500867844 0.8895451426506042
vt 0.08891084045171738 0.8907351493835449
vt 0.08258746564388275 0.8915124535560608
vt 0.09152797609567642 0.8907191157341003
vt 0.07778630405664444 0.8844974637031555
vt 0.08521263301372528 0.8847780227661133
vt 0.08258746564388275 0.8847829103469849
vt 0.08521263301372528 0.8847780227661133
vt 0.07778630405664444 0.8844974637031555
vt 0.07515160739421844 0.8845017552375793
vt 0.08258746564388275 0.8915124535560608
vt 0.08521263301372528 0.8914949893951416
vt 0.09152797609567642 0.8907191157341003
vt 0.05849732086062431 0.8881006836891174
vt 0.09152797609567642 0.8855708837509155
vt 0.09724497050046921 0.8881526589393616
vt 0.08258746564388275 0.8915124535560608
vt 0.07515160739421844 0.8917735815048218
vt 0.08521263301372528 0.8914949893951416
vt 0.08521263301372528 0.8914949893951416
vt 0.07778630405664444 0.8917556405067444
vt 0.09152797609567642 0.8907191157341003
vt 0.07515160739421844 0.8845017552375793
vt 0.07778630405664444 0.8844974637031555
vt 0.07038480043411255 0.8847693800926208
vt 0.06774067133665085 0.8847742080688477
vt 0.07778630405664444 0.8917556405067444
vt 0.05849732086062431 0.8881006836891174
vt 0.07515160739421844 0.8917735815048218
vt 0.06774067133665085 0.8914811611175537
vt 0.07778630405664444 0.8917556405067444
vt 0.06774067133665085 0.8847742080688477
vt 0.07038480043411255 0.8847693800926208
vt 0.06412950158119202 0.8855499625205994
vt 0.061477456241846085 0.8855562210083008
vt 0.06774067133665085 0.8847742080688477
vt 0.06412950158119202 0.8855499625205994
vt 0.07038480043411255 0.8847693800926208
vt 0.07038480043411255 0.8914638757705688
vt 0.06774067133665085 0.8914811611175537
vt 0.061477456241846085 0.8906822800636292
vt 0.07038480043411255 0.8914638757705688
vt 0.061477456241846085 0.8855562210083008
vt 0.06412950158119202 0.8855499625205994
vt 0.05995969474315643 0.8867194056510925
vt 0.07038480043411255 0.8914638757705688
vt 0.05730245262384415 0.8867278695106506
vt 0.06412950158119202 0.8855499625205994
vt 0.06412950158119202 0.8906664848327637
vt 0.061477456241846085 0.8906822800636292
vt 0.05730245262384415 0.8894994258880615
vt 0.06412950158119202 0.8906664848327637
vt 0.05583823472261429 0.8881116509437561
vt 0.05730245262384415 0.8867278695106506
vt 0.05849732086062431 0.8881006836891174
vt 0.06412950158119202 0.8906664848327637
vt 0.05995969474315643 0.8867194056510925
vt 0.05730245262384415 0.8867278695106506
vt 0.05995969474315643 0.8867194056510925
vt 0.05849732086062431 0.8881006836891174
vt 0.05730245262384415 0.8894994258880615
vt 0.05583823472261429 0.8881116509437561
vt 0.05995969474315643 0.8894858360290527
vt 0.05730245262384415 0.8894994258880615
vt 0.05995969474315643 0.8894858360290527
vt 0.06412950158119202 0.8906664848327637
vt 0.05583823472261429 0.8881116509437561
vt 0.05849732086062431 0.8881006836891174
vt 0.05995969474315643 0.8894858360290527
vt 0.05995969474315643 0.8894858360290527
vn -0.1950840950012207 -0.9807865023612976 -0
vn -0.1950840950012207 -0.9807865023612976 -0
vn -0.1950840950012207 -0.9807865023612976 -0
vn 0.1950836181640625 -0.9807866215705872 -0
vn 0.1950836181640625 -0.9807866215705872 -0
vn 0.1950836181640625 -0.9807866215705872 -0
vn -0.19508430361747742 -0.9807865023612976 -0
vn -0.19508430361747742 -0.9807865023612976 -0
vn -0.19508430361747742 -0.9807865023612976 -0
vn -0.5555755496025085 -0.8314661383628845 -0
vn -0.5555755496025085 -0.8314661383628845 -0
vn -0.5555755496025085 -0.8314661383628845 -0
vn -0.5555755496025085 -0.8314661383628845 -0
vn 0.1950838267803192 -0.9807866215705872 -0
vn 0.1950838267803192 -0.9807866215705872 -0
vn 0.1950838267803192 -0.9807866215705872 -0
vn 0 -0 -1
vn 0 -0 -1
vn 0 -0 -1
vn 0.5555766224861145 -0.8314653635025024 -0
vn 0.5555766224861145 -0.8314653635025024 -0
vn 0.5555766224861145 -0.8314653635025024 -0
vn -0.8314674496650696 -0.5555734038352966 -0
vn -0.8314674496650696 -0.5555734038352966 -0
vn -0.8314674496650696 -0.5555734038352966 -0
vn -0.8314676284790039 -0.5555731654167175 -0
vn -0.8314676284790039 -0.5555731654167175 -0
vn -0.8314676284790039 -0.5555731654167175 -0
vn 0 -0 -1
vn 0 -0 -1
vn 0.5555769205093384 -0.8314651846885681 -0
vn 0.5555769205093384 -0.8314651846885681 -0
vn 0.5555769205093384 -0.8314651846885681 -0
vn 0.8314663767814636 -0.5555750131607056 -0
vn 0.8314663767814636 -0.5555750131607056 -0
vn 0.8314663767814636 -0.5555750131607056 -0
vn 0 -0 -1
vn 0 -0 -1
vn -0.9807853698730469 -0.19508963823318481 -0
vn -0.9807853698730469 -0.19508963823318481 -0
vn -0.9807853698730469 -0.19508963823318481 -0
vn -0.9807853698730469 -0.19508963823318481 -0
vn 0.8314661979675293 -0.5555753707885742 -0
vn 0.8314661979675293 -0.5555753707885742 -0
vn 0.8314661979675293 -0.5555753707885742 -0
vn 0 -0 -0.9999999403953552
vn 0 -0 -0.9999999403953552
vn 0 -0 -0.9999999403953552
vn 0.9807853698730469 -0.19508947432041168 -0
vn 0.9807853698730469 -0.19508947432041168 -0
vn 0.9807853698730469 -0.19508947432041168 -0
vn 0 -0 -1
vn 0 -0 -1
vn 0 -0 -0.9999999403953552
vn -0.9807850122451782 0.19509157538414001 -0
vn -0.9807850122451782 0.19509157538414001 -0
vn -0.9807850122451782 0.19509157538414001 -0
vn -0.9807850122451782 0.19509157538414001 -0
vn 0.9807853698730469 -0.19508947432041168 -0
vn 0 -0 -1
vn 0.980785071849823 0.19509142637252808 -0
vn 0.980785071849823 0.19509142637252808 -0
vn 0.980785071849823 0.19509142637252808 -0
vn -0.8314708471298218 0.555568516254425 -0
vn -0.8314708471298218 0.555568516254425 -0
vn -0.8314708471298218 0.555568516254425 -0
vn -0.8314708471298218 0.5555684566497803 -0
vn -0.8314708471298218 0.5555684566497803 -0
vn -0.8314708471298218 0.5555684566497803 -0
vn 0 -0 -1
vn 0.980785071849823 0.19509142637252808 -0
vn 0.8314695954322815 0.5555703639984131 -0
vn 0.8314695954322815 0.5555703639984131 -0
vn 0.8314695954322815 0.5555703639984131 -0
vn -0.555568516254425 0.8314708471298218 -0
vn -0.555568516254425 0.8314708471298218 -0
vn -0.555568516254425 0.8314708471298218 -0
vn 0 -0 -1
vn -0.555568516254425 0.8314708471298218 -0
vn 0 -0 -1
vn 0.8314695954322815 0.5555703639984131 -0
vn 0.5555698871612549 0.8314698338508606 -0
vn 0.5555698871612549 0.8314698338508606 -0
vn 0.5555698871612549 0.8314698338508606 -0
vn -0.19508415460586548 0.9807865619659424 -0
vn -0.19508415460586548 0.9807865619659424 -0
vn -0.19508415460586548 0.9807865619659424 -0
vn 0 -0 -1
vn 0 -0 -1
vn -0.19508427381515503 0.9807865023612976 -0
vn -0.19508427381515503 0.9807865023612976 -0
vn -0.19508427381515503 0.9807865023612976 -0
vn 0.1950836479663849 0.9807866215705872 -0
vn 0.1950836479663849 0.9807866215705872 -0
vn 0.1950836479663849 0.9807866215705872 -0
vn 0.555569589138031 0.8314700722694397 -0
vn 0.555569589138031 0.8314700722694397 -0
vn 0.555569589138031 0.8314700722694397 -0
vn 0.19508379697799683 0.9807866215705872 -0
vn 0.19508379697799683 0.9807866215705872 -0
vn 0.19508379697799683 0.9807866215705872 -0
vn 0 -0 -1
f 3/3/3 2/2/2 1/1/1
f 6/6/6 5/5/5 4/4/4
f 9/9/9 8/8/8 7/7/7
f 12/12/12 11/11/11 10/10/10
f 12/12/12 13/13/13 11/11/11
f 16/16/16 15/15/15 14/14/14
f 19/19/19 18/18/18 17/17/17
f 22/22/22 21/21/21 20/20/20
f 25/25/25 24/24/24 23/23/23
f 28/28/28 27/27/27 26/26/26
f 30/30/30 29/29/29 19/19/19
f 33/33/33 32/32/32 31/31/31
f 36/36/36 35/35/35 34/34/34
f 17/17/17 38/38/38 37/37/37
f 41/41/41 40/40/40 39/39/39
f 41/41/41 39/39/39 42/42/42
f 45/45/45 44/44/44 43/43/43
f 48/48/48 47/47/47 46/46/46
f 51/51/51 50/50/50 49/49/49
f 53/53/53 52/52/52 30/30/30
f 54/54/54 48/48/48 46/46/46
f 57/57/57 56/56/56 55/55/55
f 57/57/57 55/55/55 58/58/58
f 51/51/51 59/59/59 50/50/50
f 17/17/17 37/37/37 60/60/60
f 63/63/63 62/62/62 61/61/61
f 53/53/53 30/30/30 60/60/60
f 66/66/66 65/65/65 64/64/64
f 69/69/69 68/68/68 67/67/67
f 37/37/37 70/70/70 60/60/60
f 63/63/63 71/71/71 62/62/62
f 74/74/74 73/73/73 72/72/72
f 77/77/77 76/76/76 75/75/75
f 78/78/78 53/53/53 60/60/60
f 77/77/77 75/75/75 79/79/79
f 70/70/70 80/80/80 60/60/60
f 74/74/74 81/81/81 73/73/73
f 84/84/84 83/83/83 82/82/82
f 87/87/87 86/86/86 85/85/85
f 88/88/88 78/78/78 60/60/60
f 80/80/80 89/89/89 60/60/60
f 92/92/92 91/91/91 90/90/90
f 95/95/95 94/94/94 93/93/93
f 98/98/98 97/97/97 96/96/96
f 101/101/101 100/100/100 99/99/99
f 60/60/60 102/102/102 88/88/88
