# VPXTOOL table OBJ file
# VPXTOOL OBJ file
# numVerts: 129 numFaces: 129
o LM_L_LB3_swI2
v 2406.860107421875 -27384.2890625 -28485.328125
v -211.91270446777344 -5156.91943359375 -34845.5078125
v 2021.3125 10298.5166015625 -42271.3671875
v -1387.55322265625 -22341.35546875 -29527.681640625
v -211.91270446777344 -5156.91943359375 -34845.5078125
v 2406.860107421875 -27384.2890625 -28485.328125
v -211.91270446777344 -5156.91943359375 -34845.5078125
v 457.52337646484375 9405.916015625 -36906.87109375
v 2021.3125 10298.5166015625 -42271.3671875
v 2406.860107421875 -27384.2890625 -28485.328125
v 2021.3125 10298.5166015625 -42271.3671875
v 926.128662109375 -20816.861328125 -35777.90234375
v -2023.6871337890625 -13566.5966796875 -37737.9765625
v 915.5556030273438 -5077.76318359375 -40925.41015625
v -2571.703125 7738.09326171875 -40651.28515625
v 2021.3125 10298.5166015625 -42271.3671875
v 915.5556030273438 -5077.76318359375 -40925.41015625
v 926.128662109375 -20816.861328125 -35777.90234375
v 457.52337646484375 9405.916015625 -36906.87109375
v 458.993408203125 23665.130859375 -35122.453125
v 2410.36572265625 31765.36328125 -34928.11328125
v 2021.3125 10298.5166015625 -42271.3671875
v 457.52337646484375 9405.916015625 -36906.87109375
v 2410.36572265625 31765.36328125 -34928.11328125
v 915.5556030273438 -5077.76318359375 -40925.41015625
v 2021.3125 10298.5166015625 -42271.3671875
v -2571.703125 7738.09326171875 -40651.28515625
v -1387.55322265625 -22341.35546875 -29527.681640625
v 2406.860107421875 -27384.2890625 -28485.328125
v 464.08203125 -33223.140625 -22607.892578125
v 926.128662109375 -20816.861328125 -35777.90234375
v 915.5556030273438 -5077.76318359375 -40925.41015625
v -2023.6871337890625 -13566.5966796875 -37737.9765625
v -2135.35400390625 30667.8046875 -38229.81640625
v -2571.703125 7738.09326171875 -40651.28515625
v 2021.3125 10298.5166015625 -42271.3671875
v 926.128662109375 -20816.861328125 -35777.90234375
v -2023.6871337890625 -13566.5966796875 -37737.9765625
v 927.9379272460938 -35569.4453125 -27910.48046875
v 2406.860107421875 -27384.2890625 -28485.328125
v 926.128662109375 -20816.861328125 -35777.90234375
v 927.9379272460938 -35569.4453125 -27910.48046875
v -2023.6871337890625 -13566.5966796875 -37737.9765625
v -2200.26220703125 -34392.5625 -27120.611328125
v 927.9379272460938 -35569.4453125 -27910.48046875
v 2410.36572265625 31765.36328125 -34928.11328125
v 920.9834594726563 25583.541015625 -40616.01171875
v 2021.3125 10298.5166015625 -42271.3671875
v 2410.36572265625 31765.36328125 -34928.11328125
v 458.993408203125 23665.130859375 -35122.453125
v -1378.4219970703125 36018.1484375 -31906.015625
v 920.9834594726563 25583.541015625 -40616.01171875
v -2135.35400390625 30667.8046875 -38229.81640625
v 2021.3125 10298.5166015625 -42271.3671875
v 677.4647827148438 -47251.38671875 -10593.333984375
v 464.08203125 -33223.140625 -22607.892578125
v 2406.860107421875 -27384.2890625 -28485.328125
v -2304.18310546875 -54873.29296875 -6629.4951171875
v -1387.55322265625 -22341.35546875 -29527.681640625
v 464.08203125 -33223.140625 -22607.892578125
v 2410.36572265625 31765.36328125 -34928.11328125
v 921.6336669921875 41306.015625 -35196.01171875
v 920.9834594726563 25583.541015625 -40616.01171875
v 2406.860107421875 -27384.2890625 -28485.328125
v 927.9379272460938 -35569.4453125 -27910.48046875
v 2444.40283203125 -53167.64453125 -9346.490234375
v 2410.36572265625 31765.36328125 -34928.11328125
v -1378.4219970703125 36018.1484375 -31906.015625
v 464.6474304199219 52255.53515625 -22685.630859375
v 921.6336669921875 41306.015625 -35196.01171875
v -2135.35400390625 30667.8046875 -38229.81640625
v 920.9834594726563 25583.541015625 -40616.01171875
v 927.9379272460938 -35569.4453125 -27910.48046875
v -2200.26220703125 -34392.5625 -27120.611328125
v -365.41937255859375 -47940.4453125 -18028.935546875
v 2444.40283203125 -53167.64453125 -9346.490234375
v 677.4647827148438 -47251.38671875 -10593.333984375
v 2406.860107421875 -27384.2890625 -28485.328125
v -368.30291748046875 55915.8359375 -27271.45703125
v -2135.35400390625 30667.8046875 -38229.81640625
v 921.6336669921875 41306.015625 -35196.01171875
v 2410.36572265625 31765.36328125 -34928.11328125
v 2439.314208984375 61828.92578125 -21033.7890625
v 921.6336669921875 41306.015625 -35196.01171875
v -2200.26220703125 -34392.5625 -27120.611328125
v -2304.18310546875 -54873.29296875 -6629.4951171875
v -365.41937255859375 -47940.4453125 -18028.935546875
v -365.41937255859375 -47940.4453125 -18028.935546875
v 2444.40283203125 -53167.64453125 -9346.490234375
v 927.9379272460938 -35569.4453125 -27910.48046875
v 2410.36572265625 31765.36328125 -34928.11328125
v 464.6474304199219 52255.53515625 -22685.630859375
v 2439.314208984375 61828.92578125 -21033.7890625
v -368.30291748046875 55915.8359375 -27271.45703125
v -2553.29931640625 64436.50390625 -17882.615234375
v -2135.35400390625 30667.8046875 -38229.81640625
v -2304.18310546875 -54873.29296875 -6629.4951171875
v 677.4647827148438 -47251.38671875 -10593.333984375
v -1346.2789306640625 -53519.4921875 -2135.5673828125
v -365.41937255859375 -47940.4453125 -18028.935546875
v 211.91270446777344 -57664.1171875 -5097.4736328125
v 2444.40283203125 -53167.64453125 -9346.490234375
v -365.41937255859375 -47940.4453125 -18028.935546875
v -2304.18310546875 -54873.29296875 -6629.4951171875
v 211.91270446777344 -57664.1171875 -5097.4736328125
v 677.4647827148438 -47251.38671875 -10593.333984375
v 728.0965576171875 -61350.3671875 14002.857421875
v -1346.2789306640625 -53519.4921875 -2135.5673828125
v 2444.40283203125 -53167.64453125 -9346.490234375
v 1907.5535888671875 -64207.515625 9769.7607421875
v 677.4647827148438 -47251.38671875 -10593.333984375
v 1907.5535888671875 -64207.515625 9769.7607421875
v 728.0965576171875 -61350.3671875 14002.857421875
v 677.4647827148438 -47251.38671875 -10593.333984375
v 211.91270446777344 -57664.1171875 -5097.4736328125
v 1907.5535888671875 -64207.515625 9769.7607421875
v 2444.40283203125 -53167.64453125 -9346.490234375
v 211.91270446777344 -57664.1171875 -5097.4736328125
v -2304.18310546875 -54873.29296875 -6629.4951171875
v 1907.5535888671875 -64207.515625 9769.7607421875
v -1346.2789306640625 -53519.4921875 -2135.5673828125
v 728.0965576171875 -61350.3671875 14002.857421875
v -2528.082275390625 -63154.9609375 11999.6640625
v -2304.18310546875 -54873.29296875 -6629.4951171875
v -2528.082275390625 -63154.9609375 11999.6640625
v 1907.5535888671875 -64207.515625 9769.7607421875
v -2528.082275390625 -63154.9609375 11999.6640625
v 728.0965576171875 -61350.3671875 14002.857421875
v 1907.5535888671875 -64207.515625 9769.7607421875
vt 0.7726401090621948 0.2268715500831604
vt 0.7721225023269653 0.22960788011550903
vt 0.7718741297721863 0.23136264085769653
vt 0.7722989916801453 0.2275017499923706
vt 0.7721225023269653 0.22960788011550903
vt 0.7726401090621948 0.2268715500831604
vt 0.7721225023269653 0.22960788011550903
vt 0.7722591757774353 0.23132365942001343
vt 0.7718741297721863 0.23136264085769653
vt 0.7726401090621948 0.2268715500831604
vt 0.7718741297721863 0.23136264085769653
vt 0.7719815373420715 0.2276298999786377
vt 0.7717116475105286 0.2286289930343628
vt 0.7717691659927368 0.22953569889068604
vt 0.7717499136924744 0.2313670516014099
vt 0.7718741297721863 0.23136264085769653
vt 0.7717691659927368 0.22953569889068604
vt 0.7719815373420715 0.2276298999786377
vt 0.7722591757774353 0.23132365942001343
vt 0.772670328617096 0.2330540418624878
vt 0.7730879187583923 0.23401981592178345
vt 0.7718741297721863 0.23136264085769653
vt 0.7722591757774353 0.23132365942001343
vt 0.7730879187583923 0.23401981592178345
vt 0.7717691659927368 0.22953569889068604
vt 0.7718741297721863 0.23136264085769653
vt 0.7717499136924744 0.2313670516014099
vt 0.7722989916801453 0.2275017499923706
vt 0.7726401090621948 0.2268715500831604
vt 0.7728535532951355 0.226112961769104
vt 0.7719815373420715 0.2276298999786377
vt 0.7717691659927368 0.22953569889068604
vt 0.7717116475105286 0.2286289930343628
vt 0.7724159955978394 0.23394984006881714
vt 0.7717499136924744 0.2313670516014099
vt 0.7718741297721863 0.23136264085769653
vt 0.7719815373420715 0.2276298999786377
vt 0.7717116475105286 0.2286289930343628
vt 0.7724608182907104 0.22585636377334595
vt 0.7726401090621948 0.2268715500831604
vt 0.7719815373420715 0.2276298999786377
vt 0.7724608182907104 0.22585636377334595
vt 0.7717116475105286 0.2286289930343628
vt 0.7722534537315369 0.2260798215866089
vt 0.7724608182907104 0.22585636377334595
vt 0.7730879187583923 0.23401981592178345
vt 0.7723094820976257 0.23322439193725586
vt 0.7718741297721863 0.23136264085769653
vt 0.7730879187583923 0.23401981592178345
vt 0.772670328617096 0.2330540418624878
vt 0.7730822563171387 0.23455607891082764
vt 0.7723094820976257 0.23322439193725586
vt 0.7724159955978394 0.23394984006881714
vt 0.7718741297721863 0.23136264085769653
vt 0.7737874388694763 0.2244681715965271
vt 0.7728535532951355 0.226112961769104
vt 0.7726401090621948 0.2268715500831604
vt 0.7737652659416199 0.22372430562973022
vt 0.7722989916801453 0.2275017499923706
vt 0.7728535532951355 0.226112961769104
vt 0.7730879187583923 0.23401981592178345
vt 0.7730708718299866 0.23510318994522095
vt 0.7723094820976257 0.23322439193725586
vt 0.7726401090621948 0.2268715500831604
vt 0.7724608182907104 0.22585636377334595
vt 0.7740007638931274 0.223871648311615
vt 0.7730879187583923 0.23401981592178345
vt 0.7730822563171387 0.23455607891082764
vt 0.7743250727653503 0.23650598526000977
vt 0.7730708718299866 0.23510318994522095
vt 0.7724159955978394 0.23394984006881714
vt 0.7723094820976257 0.23322439193725586
vt 0.7724608182907104 0.22585636377334595
vt 0.7722534537315369 0.2260798215866089
vt 0.7730681300163269 0.22440510988235474
vt 0.7740007638931274 0.223871648311615
vt 0.7737874388694763 0.2244681715965271
vt 0.7726401090621948 0.2268715500831604
vt 0.7739647626876831 0.2368757724761963
vt 0.7724159955978394 0.23394984006881714
vt 0.7730708718299866 0.23510318994522095
vt 0.7730879187583923 0.23401981592178345
vt 0.774999737739563 0.23741835355758667
vt 0.7730708718299866 0.23510318994522095
vt 0.7722534537315369 0.2260798215866089
vt 0.7737652659416199 0.22372430562973022
vt 0.7730681300163269 0.22440510988235474
vt 0.7730681300163269 0.22440510988235474
vt 0.7740007638931274 0.223871648311615
vt 0.7724608182907104 0.22585636377334595
vt 0.7730879187583923 0.23401981592178345
vt 0.7743250727653503 0.23650598526000977
vt 0.774999737739563 0.23741835355758667
vt 0.7739647626876831 0.2368757724761963
vt 0.7748767733573914 0.2380516529083252
vt 0.7724159955978394 0.23394984006881714
vt 0.7737652659416199 0.22372430562973022
vt 0.7737874388694763 0.2244681715965271
vt 0.7743158340454102 0.22367900609970093
vt 0.7730681300163269 0.22440510988235474
vt 0.7741082906723022 0.22321617603302002
vt 0.7740007638931274 0.223871648311615
vt 0.7730681300163269 0.22440510988235474
vt 0.7737652659416199 0.22372430562973022
vt 0.7741082906723022 0.22321617603302002
vt 0.7737874388694763 0.2244681715965271
vt 0.7757924795150757 0.22272205352783203
vt 0.7743158340454102 0.22367900609970093
vt 0.7740007638931274 0.223871648311615
vt 0.7755042910575867 0.22243547439575195
vt 0.7737874388694763 0.2244681715965271
vt 0.7755042910575867 0.22243547439575195
vt 0.7757924795150757 0.22272205352783203
vt 0.7737874388694763 0.2244681715965271
vt 0.7741082906723022 0.22321617603302002
vt 0.7755042910575867 0.22243547439575195
vt 0.7740007638931274 0.223871648311615
vt 0.7741082906723022 0.22321617603302002
vt 0.7737652659416199 0.22372430562973022
vt 0.7755042910575867 0.22243547439575195
vt 0.7743158340454102 0.22367900609970093
vt 0.7757924795150757 0.22272205352783203
vt 0.7753365635871887 0.22259396314620972
vt 0.7737652659416199 0.22372430562973022
vt 0.7753365635871887 0.22259396314620972
vt 0.7755042910575867 0.22243547439575195
vt 0.7753365635871887 0.22259396314620972
vt 0.7757924795150757 0.22272205352783203
vt 0.7755042910575867 0.22243547439575195
vn 0.384723961353302 0.15512220561504364 0.9099036455154419
vn 0.4028289318084717 0.13516095280647278 0.9052404165267944
vn 0.7665256857872009 0.4233090877532959 0.48295727372169495
vn -0.12170562893152237 0.4394780695438385 0.8899701237678528
vn -0.17415790259838104 0.3140471279621124 0.9332970380783081
vn 0.39242103695869446 0.29501476883888245 0.8711899518966675
vn 0.8565359115600586 -0.0791267454624176 0.5099854469299316
vn 0.8581682443618774 -0.0807422325015068 0.5069791674613953
vn 0.993831992149353 -0.05998294800519943 -0.09327429533004761
vn 0.999416172504425 -0.03293904662132263 0.009076997637748718
vn 0.9999465942382813 0.00899011641740799 -0.005108833312988281
vn 0.8240119814872742 -0.16788020730018616 -0.5411288738250732
vn -0.6966977119445801 -0.29635265469551086 -0.653289794921875
vn -0.28171640634536743 -0.05179532617330551 -0.9580987691879272
vn -0.6726994514465332 0.11890044063329697 -0.7303000688552856
vn 0.9645662903785706 0.21575988829135895 -0.15185341238975525
vn 0.8480327725410461 -0.26712989807128906 -0.4576919674873352
vn 0.8432663679122925 -0.2132337987422943 -0.4933893084526062
vn 0.14847514033317566 -0.21986959874629974 0.9641641974449158
vn 0.18424786627292633 -0.28690287470817566 0.9400742053985596
vn 0.6391668319702148 0.10848701000213623 0.7613779306411743
vn 0.9963091611862183 0.037518687546253204 -0.07720416784286499
vn 0.8569714426994324 -0.10651451349258423 0.5042366981506348
vn 0.9788658618927002 0.19828830659389496 0.05003301799297333
vn -0.11961649358272552 -0.29082757234573364 -0.9492687582969666
vn -0.044943422079086304 0.09399498999118805 -0.9945576190948486
vn -0.5713465213775635 -0.05248640477657318 -0.8190288543701172
vn 0.24135862290859222 0.5446909666061401 0.8031548857688904
vn 0.6711451411247253 0.2903086543083191 0.6821181178092957
vn 0.7223738431930542 0.3609452545642853 0.5898258686065674
vn 0.07620775699615479 -0.49422380328178406 -0.86598801612854
vn 0.0704389214515686 -0.1003318801522255 -0.9924574494361877
vn -0.3917132019996643 -0.39745837450027466 -0.8298118114471436
vn -0.543243408203125 0.30967870354652405 -0.7803752422332764
vn -0.6058158874511719 -0.04570784047245979 -0.7942907810211182
vn -0.08960539847612381 0.08250194787979126 -0.9925544261932373
vn -0.23024047911167145 -0.49953746795654297 -0.8351356983184814
vn -0.6791610717773438 -0.18315300345420837 -0.7107707858085632
vn -0.32153376936912537 -0.6337549090385437 -0.70354163646698
vn 0.9883396625518799 -0.14992709457874298 -0.026583045721054077
vn 0.7849291563034058 -0.21047338843345642 -0.5827410221099854
vn 0.7764740586280823 -0.3232272267341614 -0.5409363508224487
vn -0.5331666469573975 -0.17437100410461426 -0.8278454542160034
vn -0.6173090934753418 -0.39335063099861145 -0.6813257336616516
vn -0.09921977669000626 -0.5327485799789429 -0.8404369950294495
vn 0.962308406829834 0.2647314667701721 -0.06228742003440857
vn 0.8086100816726685 0.04575768858194351 -0.5865626931190491
vn 0.8037931323051453 0.056918490678071976 -0.5921796560287476
vn 0.6758044362068176 -0.3004496395587921 0.6730664968490601
vn 0.7306427955627441 -0.18444262444972992 0.6573750972747803
vn 0.24859407544136047 -0.21676060557365417 0.9440422654151917
vn -0.2973129153251648 0.052654314786195755 -0.9533271789550781
vn -0.7461191415786743 0.18686644732952118 -0.6390519738197327
vn -0.3875824511051178 -0.18496087193489075 -0.9030888676643372
vn 0.06728072464466095 0.5687479972839355 0.8197554349899292
vn 0.10878311097621918 0.5125338435173035 0.8517483472824097
vn 0.582848310470581 0.6690348386764526 0.46117261052131653
vn -0.002077847719192505 0.5032317042350769 0.8641489744186401
vn -0.003181934356689453 0.6219297647476196 0.78306645154953
vn 0.4386327862739563 0.3683679699897766 0.8196988105773926
vn 0.9880369901657104 -0.08221164345741272 -0.13047589361667633
vn 0.7834908366203308 0.2873817980289459 -0.550957202911377
vn 0.7776466012001038 0.17419511079788208 -0.6040875911712646
vn 0.9671556353569031 0.14982165396213531 -0.205337256193161
vn 0.8408501744270325 -0.40685325860977173 -0.3569890558719635
vn 0.8349772095680237 -0.4105730652809143 -0.36639150977134705
vn 0.39641889929771423 -0.4417124390602112 0.8048243522644043
vn -0.11448711156845093 -0.3478630483150482 0.9305288791656494
vn -0.16771799325942993 -0.46168848872184753 0.8710421323776245
vn 0.013803884387016296 0.5128538608551025 -0.8583648800849915
vn -0.42634153366088867 0.14697521924972534 -0.8925419449806213
vn 0.021819673478603363 0.12988527119159698 -0.991288959980011
vn -0.11862191557884216 -0.5455524921417236 -0.8296393156051636
vn -0.6354116797447205 -0.39173001050949097 -0.6654319763183594
vn -0.2449359893798828 -0.7632991671562195 -0.5978133082389832
vn 0.9692615270614624 0.07829675078392029 0.23324215412139893
vn 0.6567173600196838 0.5446832776069641 0.5215768814086914
vn 0.9272878766059875 0.3617846369743347 0.09617248177528381
vn -0.6511209011077881 0.522905170917511 -0.5501015782356262
vn -0.699959397315979 0.14299635589122772 -0.699720561504364
vn -0.2692737579345703 0.48156893253326416 -0.8340162038803101
vn 0.9977420568466187 -0.025864021852612495 -0.06198282539844513
vn 0.9990665912628174 0.016629256308078766 -0.03986544907093048
vn 0.7998983263969421 0.28119856119155884 -0.5301792621612549
vn -0.9259323477745056 -0.04231438785791397 -0.37531155347824097
vn -0.9638736844062805 -0.2567908763885498 -0.07075293362140656
vn -0.6653476357460022 -0.47011643648147583 -0.5799164175987244
vn 0.4680652320384979 -0.5693461298942566 -0.6758401393890381
vn 0.8268872499465942 -0.48928961157798767 -0.2772238552570343
vn 0.7951734066009521 -0.23064309358596802 -0.5608056783676147
vn 0.6383960843086243 -0.47398748993873596 0.6064537167549133
vn 0.6424205899238586 -0.4805588722229004 0.5969579815864563
vn 0.9151652455329895 0.05532127991318703 0.39926445484161377
vn -0.6922264099121094 0.24371586740016937 -0.6792828440666199
vn -0.9438210725784302 0.3093235194683075 -0.11627870053052902
vn -0.7664226293563843 0.06835909932851791 -0.6386888027191162
vn -0.9595430493354797 0.1439339816570282 0.24199166893959045
vn -0.8027317523956299 0.5492766499519348 0.2321997582912445
vn -0.9326877593994141 0.35836848616600037 0.040809620171785355
vn 0.2000236213207245 -0.6279590129852295 -0.7521023750305176
vn 0.21435709297657013 -0.8823896050453186 -0.41885510087013245
vn 0.6116408705711365 -0.6865789890289307 -0.3930708169937134
vn -0.5763911604881287 -0.4714670181274414 -0.6674520373344421
vn -0.7077679634094238 -0.5442262291908264 -0.4504246711730957
vn -0.2621253430843353 -0.8701773285865784 -0.41723114252090454
vn -0.3010510206222534 0.8295038342475891 0.4704165458679199
vn -0.5128744840621948 -0.15501616895198822 0.8443517088890076
vn -0.7119794487953186 0.4623546004295349 0.5285012722015381
vn 0.975547194480896 0.12351744621992111 0.18179970979690552
vn 0.5112719535827637 0.03126700222492218 0.8588500022888184
vn 0.8020936250686646 0.4979470670223236 0.32968848943710327
vn 0.7790104150772095 -0.5677633285522461 0.2660593092441559
vn 0.6352013945579529 -0.05940401554107666 0.7700586318969727
vn 0.8801323175430298 0.4411071836948395 0.17547523975372314
vn 0.5120092034339905 -0.7567481994628906 -0.40642213821411133
vn 0.5524837970733643 -0.7930454611778259 0.25659456849098206
vn 0.8199030160903931 -0.35542961955070496 -0.4488081932067871
vn -0.36433273553848267 -0.8674226403236389 -0.33887991309165955
vn -0.800258994102478 -0.5232768058776855 -0.29285961389541626
vn -0.5292607545852661 -0.7787330150604248 0.33683502674102783
vn -0.21220862865447998 0.9148169755935669 0.3436238765716553
vn -0.15100803971290588 0.15570279955863953 0.9761932492256165
vn -0.6929229497909546 -0.3568907380104065 0.626487672328949
vn -0.514504075050354 -0.6779252290725708 -0.5250741243362427
vn -0.5838820934295654 -0.7884642481803894 0.1934058964252472
vn 0.09397605061531067 -0.9933139085769653 -0.06705275177955627
vn -0.8102688193321228 -0.4592399001121521 0.3640923500061035
vn 0.22110286355018616 0.11696402728557587 0.9682112336158752
vn 0.6166457533836365 -0.7835904359817505 -0.07572381943464279
f 3/3/3 2/2/2 1/1/1
f 6/6/6 5/5/5 4/4/4
f 9/9/9 8/8/8 7/7/7
f 12/12/12 11/11/11 10/10/10
f 15/15/15 14/14/14 13/13/13
f 18/18/18 17/17/17 16/16/16
f 21/21/21 20/20/20 19/19/19
f 24/24/24 23/23/23 22/22/22
f 27/27/27 26/26/26 25/25/25
f 30/30/30 29/29/29 28/28/28
f 33/33/33 32/32/32 31/31/31
f 36/36/36 35/35/35 34/34/34
f 39/39/39 38/38/38 37/37/37
f 42/42/42 41/41/41 40/40/40
f 45/45/45 44/44/44 43/43/43
f 48/48/48 47/47/47 46/46/46
f 51/51/51 50/50/50 49/49/49
f 54/54/54 53/53/53 52/52/52
f 57/57/57 56/56/56 55/55/55
f 60/60/60 59/59/59 58/58/58
f 63/63/63 62/62/62 61/61/61
f 66/66/66 65/65/65 64/64/64
f 69/69/69 68/68/68 67/67/67
f 72/72/72 71/71/71 70/70/70
f 75/75/75 74/74/74 73/73/73
f 78/78/78 77/77/77 76/76/76
f 81/81/81 80/80/80 79/79/79
f 84/84/84 83/83/83 82/82/82
f 87/87/87 86/86/86 85/85/85
f 90/90/90 89/89/89 88/88/88
f 93/93/93 92/92/92 91/91/91
f 96/96/96 95/95/95 94/94/94
f 99/99/99 98/98/98 97/97/97
f 102/102/102 101/101/101 100/100/100
f 105/105/105 104/104/104 103/103/103
f 108/108/108 107/107/107 106/106/106
f 111/111/111 110/110/110 109/109/109
f 114/114/114 113/113/113 112/112/112
f 117/117/117 116/116/116 115/115/115
f 120/120/120 119/119/119 118/118/118
f 123/123/123 122/122/122 121/121/121
f 126/126/126 125/125/125 124/124/124
f 129/129/129 128/128/128 127/127/127
