# VPXTOOL table OBJ file
# VPXTOOL OBJ file
# numVerts: 112 numFaces: 135
o LM_GI_gi10_UnderPF
v 302.4776306152344 248.57847595214844 -8.345191955566406
v 302.4776306152344 248.57847595214844 -13.051074028015137
v 302.33160400390625 249.88751220703125 -13.051074028015137
v 302.33160400390625 249.88751220703125 -8.345191955566406
v 302.4776306152344 248.57847595214844 -8.345191955566406
v 302.33160400390625 249.88751220703125 -13.051074028015137
v 296.60186767578125 254.46739196777344 -8.345191955566406
v 302.4776306152344 248.57847595214844 -8.345191955566406
v 302.33160400390625 249.88751220703125 -8.345191955566406
v 255.41885375976563 248.63104248046875 -8.345191955566406
v 261.3077697753906 254.50680541992188 -8.345191955566406
v 296.60186767578125 254.46739196777344 -8.345191955566406
v 255.41885375976563 248.63104248046875 -8.345191955566406
v 302.4776306152344 248.57847595214844 -8.345191955566406
v 259.9986572265625 254.36082458496094 -8.345191955566406
v 259.9986572265625 254.36082458496094 -8.345191955566406
v 256.0042419433594 251.18264770507813 -8.345191955566406
v 255.41885375976563 248.63104248046875 -8.345191955566406
v 255.41885375976563 248.63104248046875 -8.345191955566406
v 255.56776428222656 249.9398651123047 -8.345191955566406
v 255.41885375976563 248.63104248046875 -13.051074028015137
v 256.0042419433594 251.18264770507813 -8.345191955566406
v 255.56776428222656 249.9398651123047 -8.345191955566406
v 302.4776306152344 248.57847595214844 -8.345191955566406
v 302.43817138671875 213.28436279296875 -8.345191955566406
v 302.4776306152344 248.57847595214844 -13.051074028015137
v 255.41885375976563 248.63104248046875 -8.345191955566406
v 255.41885375976563 248.63104248046875 -13.051074028015137
v 255.37937927246094 213.33692932128906 -13.051074028015137
v 302.43817138671875 213.28436279296875 -8.345191955566406
v 302.43817138671875 213.28436279296875 -8.345191955566406
v 302.43817138671875 213.28436279296875 -13.051074028015137
v 302.4776306152344 248.57847595214844 -13.051074028015137
v 255.37937927246094 213.33692932128906 -8.345191955566406
v 255.37937927246094 213.33692932128906 -8.345191955566406
v 302.28924560546875 211.9755401611328 -8.345191955566406
v 302.28924560546875 211.9755401611328 -13.051074028015137
v 302.43817138671875 213.28436279296875 -13.051074028015137
v 301.852783203125 210.73275756835938 -8.345191955566406
v 301.852783203125 210.73275756835938 -13.051074028015137
v 302.28924560546875 211.9755401611328 -13.051074028015137
v 302.43817138671875 213.28436279296875 -8.345191955566406
v 302.28924560546875 211.9755401611328 -8.345191955566406
v 302.43817138671875 213.28436279296875 -13.051074028015137
v 301.1507263183594 209.61819458007813 -8.345191955566406
v 301.1507263183594 209.61819458007813 -13.051074028015137
v 301.852783203125 210.73275756835938 -13.051074028015137
v 302.28924560546875 211.9755401611328 -8.345191955566406
v 301.852783203125 210.73275756835938 -8.345191955566406
v 302.28924560546875 211.9755401611328 -13.051074028015137
v 255.37937927246094 213.33692932128906 -8.345191955566406
v 255.37937927246094 213.33692932128906 -13.051074028015137
v 255.52542114257813 212.0278778076172 -13.051074028015137
v 300.2182312011719 208.6878204345703 -8.345191955566406
v 300.2182312011719 208.6878204345703 -13.051074028015137
v 301.1507263183594 209.61819458007813 -13.051074028015137
v 301.852783203125 210.73275756835938 -8.345191955566406
v 301.1507263183594 209.61819458007813 -8.345191955566406
v 301.852783203125 210.73275756835938 -13.051074028015137
v 301.852783203125 210.73275756835938 -8.345191955566406
v 302.28924560546875 211.9755401611328 -8.345191955566406
v 302.43817138671875 213.28436279296875 -8.345191955566406
v 299.10211181640625 207.9882354736328 -8.345191955566406
v 299.10211181640625 207.9882354736328 -13.051074028015137
v 300.2182312011719 208.6878204345703 -13.051074028015137
v 301.1507263183594 209.61819458007813 -8.345191955566406
v 300.2182312011719 208.6878204345703 -8.345191955566406
v 301.1507263183594 209.61819458007813 -13.051074028015137
v 297.85833740234375 207.55458068847656 -8.345191955566406
v 297.85833740234375 207.55458068847656 -13.051074028015137
v 299.10211181640625 207.9882354736328 -13.051074028015137
v 296.54925537109375 207.40859985351563 -8.345191955566406
v 296.54925537109375 207.40859985351563 -13.051074028015137
v 297.85833740234375 207.55458068847656 -13.051074028015137
v 255.52542114257813 212.0278778076172 -8.345191955566406
v 255.37937927246094 213.33692932128906 -8.345191955566406
v 255.52542114257813 212.0278778076172 -13.051074028015137
v 297.85833740234375 207.55458068847656 -8.345191955566406
v 301.852783203125 210.73275756835938 -8.345191955566406
v 302.43817138671875 213.28436279296875 -8.345191955566406
v 300.2182312011719 208.6878204345703 -8.345191955566406
v 300.2182312011719 208.6878204345703 -8.345191955566406
v 301.1507263183594 209.61819458007813 -8.345191955566406
v 301.852783203125 210.73275756835938 -8.345191955566406
v 299.10211181640625 207.9882354736328 -8.345191955566406
v 297.85833740234375 207.55458068847656 -8.345191955566406
v 299.10211181640625 207.9882354736328 -13.051074028015137
v 296.54925537109375 207.40859985351563 -8.345191955566406
v 297.85833740234375 207.55458068847656 -8.345191955566406
v 261.255126953125 207.44801330566406 -8.345191955566406
v 255.37937927246094 213.33692932128906 -8.345191955566406
v 297.85833740234375 207.55458068847656 -8.345191955566406
v 296.54925537109375 207.40859985351563 -8.345191955566406
v 297.85833740234375 207.55458068847656 -13.051074028015137
v 297.85833740234375 207.55458068847656 -8.345191955566406
v 300.2182312011719 208.6878204345703 -8.345191955566406
v 301.852783203125 210.73275756835938 -8.345191955566406
v 261.255126953125 207.44801330566406 -8.345191955566406
v 261.255126953125 207.44801330566406 -13.051074028015137
v 296.54925537109375 207.40859985351563 -13.051074028015137
v 261.255126953125 207.44801330566406 -8.345191955566406
v 296.54925537109375 207.40859985351563 -8.345191955566406
v 261.255126953125 207.44801330566406 -8.345191955566406
v 296.54925537109375 207.40859985351563 -13.051074028015137
v 299.10211181640625 207.9882354736328 -8.345191955566406
v 255.52542114257813 212.0278778076172 -8.345191955566406
v 261.255126953125 207.44801330566406 -8.345191955566406
v 259.9463806152344 207.59698486328125 -8.345191955566406
v 261.255126953125 207.44801330566406 -13.051074028015137
v 258.70355224609375 208.0334014892578 -8.345191955566406
v 258.70355224609375 208.0334014892578 -8.345191955566406
v 259.9463806152344 207.59698486328125 -8.345191955566406
vt 0.297028511762619 0.9863081574440002
vt 0.2963586151599884 0.9862075448036194
vt 0.2967148423194885 0.9862313270568848
vt 0.2973843812942505 0.9863318800926208
vt 0.297028511762619 0.9863081574440002
vt 0.2967148423194885 0.9862313270568848
vt 0.29863056540489197 0.9878407716751099
vt 0.297028511762619 0.9863081574440002
vt 0.2973843812942505 0.9863318800926208
vt 0.2970428168773651 0.999151885509491
vt 0.2986413240432739 0.9974825978279114
vt 0.29863056540489197 0.9878407716751099
vt 0.2970428168773651 0.999151885509491
vt 0.297028511762619 0.9863081574440002
vt 0.29860156774520874 0.9978417754173279
vt 0.29860156774520874 0.9978417754173279
vt 0.29773661494255066 0.9989657998085022
vt 0.2970428168773651 0.999151885509491
vt 0.2970428168773651 0.999151885509491
vt 0.2973985970020294 0.9990977644920349
vt 0.2963729500770569 0.999068021774292
vt 0.29773661494255066 0.9989657998085022
vt 0.2973985970020294 0.9990977644920349
vt 0.297028511762619 0.9863081574440002
vt 0.2874898314476013 0.9867515563964844
vt 0.2963586151599884 0.9862075448036194
vt 0.2970428168773651 0.999151885509491
vt 0.2963729500770569 0.999068021774292
vt 0.2868254780769348 0.9994401931762695
vt 0.2874898314476013 0.9867515563964844
vt 0.2874898314476013 0.9867515563964844
vt 0.28681132197380066 0.9866520762443542
vt 0.2963586151599884 0.9862075448036194
vt 0.2875039577484131 0.9995231032371521
vt 0.2875039577484131 0.9995231032371521
vt 0.2871381640434265 0.9868078827857971
vt 0.286459356546402 0.9867085218429565
vt 0.28681132197380066 0.9866520762443542
vt 0.28680434823036194 0.986941397190094
vt 0.2861252427101135 0.9868422746658325
vt 0.286459356546402 0.9867085218429565
vt 0.2874898314476013 0.9867515563964844
vt 0.2871381640434265 0.9868078827857971
vt 0.28681132197380066 0.9866520762443542
vt 0.2865051329135895 0.9871454238891602
vt 0.2858257293701172 0.9870465397834778
vt 0.2861252427101135 0.9868422746658325
vt 0.2871381640434265 0.9868078827857971
vt 0.28680434823036194 0.986941397190094
vt 0.286459356546402 0.9867085218429565
vt 0.2875039577484131 0.9995231032371521
vt 0.2868254780769348 0.9994401931762695
vt 0.2864733934402466 0.9994138479232788
vt 0.286255419254303 0.9874095916748047
vt 0.285575807094574 0.9873110055923462
vt 0.2858257293701172 0.9870465397834778
vt 0.28680434823036194 0.986941397190094
vt 0.2865051329135895 0.9871454238891602
vt 0.2861252427101135 0.9868422746658325
vt 0.28680434823036194 0.986941397190094
vt 0.2871381640434265 0.9868078827857971
vt 0.2874898314476013 0.9867515563964844
vt 0.2860677242279053 0.9877206683158875
vt 0.28538793325424194 0.9876225590705872
vt 0.285575807094574 0.9873110055923462
vt 0.2865051329135895 0.9871454238891602
vt 0.286255419254303 0.9874095916748047
vt 0.2858257293701172 0.9870465397834778
vt 0.2859513759613037 0.9880631566047668
vt 0.2852714955806732 0.98796546459198
vt 0.28538793325424194 0.9876225590705872
vt 0.2859122157096863 0.9884198904037476
vt 0.285232275724411 0.9883226752281189
vt 0.2852714955806732 0.98796546459198
vt 0.2871522307395935 0.9994967579841614
vt 0.2875039577484131 0.9995231032371521
vt 0.2864733934402466 0.9994138479232788
vt 0.2859513759613037 0.9880631566047668
vt 0.28680434823036194 0.986941397190094
vt 0.2874898314476013 0.9867515563964844
vt 0.286255419254303 0.9874095916748047
vt 0.286255419254303 0.9874095916748047
vt 0.2865051329135895 0.9871454238891602
vt 0.28680434823036194 0.986941397190094
vt 0.2860677242279053 0.9877206683158875
vt 0.2859513759613037 0.9880631566047668
vt 0.28538793325424194 0.9876225590705872
vt 0.2859122157096863 0.9884198904037476
vt 0.2859513759613037 0.9880631566047668
vt 0.2859227955341339 0.9979895949363708
vt 0.2875039577484131 0.9995231032371521
vt 0.2859513759613037 0.9880631566047668
vt 0.2859122157096863 0.9884198904037476
vt 0.2852714955806732 0.98796546459198
vt 0.2859513759613037 0.9880631566047668
vt 0.286255419254303 0.9874095916748047
vt 0.28680434823036194 0.986941397190094
vt 0.2859227955341339 0.9979895949363708
vt 0.28524288535118103 0.9979048371315002
vt 0.285232275724411 0.9883226752281189
vt 0.2859227955341339 0.9979895949363708
vt 0.2859122157096863 0.9884198904037476
vt 0.2859227955341339 0.9979895949363708
vt 0.285232275724411 0.9883226752281189
vt 0.2860677242279053 0.9877206683158875
vt 0.2871522307395935 0.9994967579841614
vt 0.2859227955341339 0.9979895949363708
vt 0.2859627306461334 0.9983429312705994
vt 0.28524288535118103 0.9979048371315002
vt 0.2860798239707947 0.9986754655838013
vt 0.2860798239707947 0.9986754655838013
vt 0.2859627306461334 0.9983429312705994
vn -0.9938331842422485 -0.11088519543409348 -0
vn -0.9938331842422485 -0.11088519543409348 -0
vn -0.9938331842422485 -0.11088519543409348 -0
vn -0.9938367605209351 -0.11085329949855804 -0
vn -0.9938367605209351 -0.11085329949855804 -0
vn -0.9938367605209351 -0.11085329949855804 -0
vn 0 -0 -1
vn 0 -0 -1
vn 0 -0 -1
vn 0 -0 -1
vn 0 -0 -1
vn 0 -0 -0.9999999403953552
vn 0 -0 -0.9999999403953552
vn 0 -0 -0.9999999403953552
vn 0 -0 -1
vn 0.0000007494004989894165 -0 -1
vn 0.0000007494004989894165 -0 -1
vn 0.0000007494004989894165 -0 -1
vn 0.9935908317565918 -0.11303632706403732 -0
vn 0.9935908317565918 -0.11303632706403732 -0
vn 0.9935908317565918 -0.11303632706403732 -0
vn 0 -0 -0.9999999403953552
vn 0 -0 -0.9999999403953552
vn -0.9999994039535522 0.0011187528725713491 -0
vn -0.9999994039535522 0.0011187528725713491 -0
vn -0.9999994039535522 0.0011187528725713491 -0
vn 0.9999994039535522 -0.0011187528725713491 -0
vn 0.9999994039535522 -0.0011187528725713491 -0
vn 0.9999994039535522 -0.0011187528725713491 -0
vn 0 -0 -1
vn -0.9999994039535522 0.0011175499530509114 -0
vn -0.9999994039535522 0.0011175499530509114 -0
vn -0.9999994039535522 0.0011175499530509114 -0
vn 0.9999994039535522 -0.0011187528725713491 -0
vn 0 -0 -1
vn -0.9935908317565918 0.11303632706403732 -0
vn -0.9935908317565918 0.11303632706403732 -0
vn -0.9935908317565918 0.11303632706403732 -0
vn -0.9435053467750549 0.33135756850242615 -0
vn -0.9435053467750549 0.33135756850242615 -0
vn -0.9435053467750549 0.33135756850242615 -0
vn -0.9935872554779053 0.11306814849376678 -0
vn -0.9935872554779053 0.11306814849376678 -0
vn -0.9935872554779053 0.11306814849376678 -0
vn -0.8461269736289978 0.5329813361167908 -0
vn -0.8461269736289978 0.5329813361167908 -0
vn -0.8461269736289978 0.5329813361167908 -0
vn -0.9434952139854431 0.3313862681388855 -0
vn -0.9434952139854431 0.3313862681388855 -0
vn -0.9434952139854431 0.3313862681388855 -0
vn 0.9938331842422485 0.11088519543409348 -0
vn 0.9938331842422485 0.11088519543409348 -0
vn 0.9938331842422485 0.11088519543409348 -0
vn -0.7063180208206177 0.7078946232795715 -0
vn -0.7063180208206177 0.7078946232795715 -0
vn -0.7063180208206177 0.7078946232795715 -0
vn -0.8461414575576782 0.5329582691192627 -0
vn -0.8461414575576782 0.5329582691192627 -0
vn -0.8461414575576782 0.5329582691192627 -0
vn 0 -0 -0.9999999403953552
vn 0 -0 -0.9999999403953552
vn 0 -0 -0.9999999403953552
vn -0.5310896635055542 0.8473156094551086 -0
vn -0.5310896635055542 0.8473156094551086 -0
vn -0.5310896635055542 0.8473156094551086 -0
vn -0.7063018679618835 0.7079107165336609 -0
vn -0.7063018679618835 0.7079107165336609 -0
vn -0.7063018679618835 0.7079107165336609 -0
vn -0.3292222321033478 0.9442524313926697 -0
vn -0.3292222321033478 0.9442524313926697 -0
vn -0.3292222321033478 0.9442524313926697 -0
vn -0.1108320876955986 0.9938391447067261 -0
vn -0.1108320876955986 0.9938391447067261 -0
vn -0.1108320876955986 0.9938391447067261 -0
vn 0.9938332438468933 0.1108851432800293 -0
vn 0.9938332438468933 0.1108851432800293 -0
vn 0.9938332438468933 0.1108851432800293 -0
vn -0.0000007494004989894165 -0 -1
vn -0.0000007494004989894165 -0 -1
vn -0.0000007494004989894165 -0 -1
vn -0.5310896635055542 0.8473156094551086 -0
vn 0 -0 -1
vn 0 -0 -1
vn 0 -0 -1
vn -0.3292323350906372 0.9442489147186279 -0
vn -0.3292323350906372 0.9442489147186279 -0
vn -0.3292323350906372 0.9442489147186279 -0
vn 0 -0 -1
vn 0 -0 -1
vn 0 -0 -0.9999999403953552
vn 0 -0 -0.9999999403953552
vn -0.11083205789327621 0.9938391447067261 -0
vn -0.11083205789327621 0.9938391447067261 -0
vn -0.11083205789327621 0.9938391447067261 -0
vn 0.0000010498907840883476 -0 -1
vn 0.0000010498907840883476 -0 -1
vn 0.0000010498907840883476 -0 -1
vn 0.0011170004727318883 0.9999993443489075 -0
vn 0.0011170004727318883 0.9999993443489075 -0
vn 0.0011170004727318883 0.9999993443489075 -0
vn 0 -0 -1
vn 0.001116998610086739 0.999999463558197 -0
vn 0.001116998610086739 0.999999463558197 -0
vn 0.001116998610086739 0.999999463558197 -0
vn 0 -0 -1
vn 0 -0 -1
vn 0.11309598386287689 0.9935840964317322 -0
vn 0.11309598386287689 0.9935840964317322 -0
vn 0.11309598386287689 0.9935840964317322 -0
vn 0 -0 -1
vn 0 -0 -0.9999999403953552
vn 0 -0 -0.9999999403953552
f 3/3/3 2/2/2 1/1/1
f 6/6/6 5/5/5 4/4/4
f 9/9/9 8/8/8 7/7/7
f 11/11/11 7/7/7 10/10/10
f 14/14/14 13/13/13 12/12/12
f 15/15/15 11/11/11 10/10/10
f 18/18/18 17/17/17 16/16/16
f 21/21/21 20/20/20 19/19/19
f 13/13/13 23/23/23 22/22/22
f 26/26/26 25/25/25 24/24/24
f 29/29/29 28/28/28 27/27/27
f 8/8/8 30/30/30 10/10/10
f 33/33/33 32/32/32 31/31/31
f 29/29/29 27/27/27 34/34/34
f 35/35/35 10/10/10 30/30/30
f 38/38/38 37/37/37 36/36/36
f 41/41/41 40/40/40 39/39/39
f 44/44/44 43/43/43 42/42/42
f 47/47/47 46/46/46 45/45/45
f 50/50/50 49/49/49 48/48/48
f 53/53/53 52/52/52 51/51/51
f 56/56/56 55/55/55 54/54/54
f 59/59/59 58/58/58 57/57/57
f 62/62/62 61/61/61 60/60/60
f 65/65/65 64/64/64 63/63/63
f 68/68/68 67/67/67 66/66/66
f 71/71/71 70/70/70 69/69/69
f 74/74/74 73/73/73 72/72/72
f 77/77/77 76/76/76 75/75/75
f 80/80/80 79/79/79 78/78/78
f 65/65/65 63/63/63 81/81/81
f 84/84/84 83/83/83 82/82/82
f 87/87/87 86/86/86 85/85/85
f 89/89/89 88/88/88 30/30/30
f 91/91/91 62/62/62 90/90/90
f 94/94/94 93/93/93 92/92/92
f 97/97/97 96/96/96 95/95/95
f 100/100/100 99/99/99 98/98/98
f 88/88/88 101/101/101 30/30/30
f 104/104/104 103/103/103 102/102/102
f 82/82/82 105/105/105 89/89/89
f 106/106/106 35/35/35 101/101/101
f 109/109/109 108/108/108 107/107/107
f 101/101/101 110/110/110 106/106/106
f 90/90/90 112/112/112 111/111/111
