# VPXTOOL table OBJ file
# VPXTOOL OBJ file
# numVerts: 91 numFaces: 105
o LM_GI_gi15_UnderPF
v 393.5048522949219 -416.06719970703125 -8.345191955566406
v 404.3738098144531 -449.64605712890625 -8.345191955566406
v 393.5048522949219 -416.06719970703125 -13.051074028015137
v 348.7330017089844 -430.5591125488281 -8.345191955566406
v 404.3738098144531 -449.64605712890625 -8.345191955566406
v 393.5048522949219 -416.06719970703125 -8.345191955566406
v 404.3738098144531 -449.64605712890625 -8.345191955566406
v 404.3738098144531 -449.64605712890625 -13.051074028015137
v 393.5048522949219 -416.06719970703125 -13.051074028015137
v 404.6365661621094 -450.93682861328125 -8.345191955566406
v 404.6365661621094 -450.93682861328125 -13.051074028015137
v 404.3738098144531 -449.64605712890625 -13.051074028015137
v 404.3738098144531 -449.64605712890625 -8.345191955566406
v 404.6365661621094 -450.93682861328125 -8.345191955566406
v 404.3738098144531 -449.64605712890625 -13.051074028015137
v 404.6055603027344 -452.2536926269531 -8.345191955566406
v 404.6055603027344 -452.2536926269531 -13.051074028015137
v 404.6365661621094 -450.93682861328125 -13.051074028015137
v 359.6019592285156 -464.1379699707031 -8.345191955566406
v 404.6365661621094 -450.93682861328125 -8.345191955566406
v 404.6055603027344 -452.2536926269531 -8.345191955566406
v 404.6365661621094 -450.93682861328125 -13.051074028015137
v 404.2822570800781 -453.5306701660156 -8.345191955566406
v 404.2822570800781 -453.5306701660156 -13.051074028015137
v 404.6055603027344 -452.2536926269531 -13.051074028015137
v 404.6055603027344 -452.2536926269531 -8.345191955566406
v 404.6365661621094 -450.93682861328125 -8.345191955566406
v 404.6055603027344 -452.2536926269531 -8.345191955566406
v 404.2822570800781 -453.5306701660156 -8.345191955566406
v 404.6055603027344 -452.2536926269531 -13.051074028015137
v 403.6829528808594 -454.7036437988281 -8.345191955566406
v 403.6829528808594 -454.7036437988281 -13.051074028015137
v 404.2822570800781 -453.5306701660156 -13.051074028015137
v 404.2822570800781 -453.5306701660156 -8.345191955566406
v 403.6829528808594 -454.7036437988281 -8.345191955566406
v 404.2822570800781 -453.5306701660156 -13.051074028015137
v 402.8376159667969 -455.7138671875 -8.345191955566406
v 402.8376159667969 -455.7138671875 -13.051074028015137
v 403.6829528808594 -454.7036437988281 -13.051074028015137
v 401.7886962890625 -456.5106201171875 -8.345191955566406
v 359.6019592285156 -464.1379699707031 -8.345191955566406
v 348.7330017089844 -430.5591125488281 -8.345191955566406
v 359.6019592285156 -464.1379699707031 -13.051074028015137
v 401.7886962890625 -456.5106201171875 -8.345191955566406
v 401.7886962890625 -456.5106201171875 -13.051074028015137
v 402.8376159667969 -455.7138671875 -13.051074028015137
v 403.6829528808594 -454.7036437988281 -8.345191955566406
v 402.8376159667969 -455.7138671875 -8.345191955566406
v 403.6829528808594 -454.7036437988281 -13.051074028015137
v 401.7886962890625 -456.5106201171875 -8.345191955566406
v 404.2822570800781 -453.5306701660156 -8.345191955566406
v 404.6055603027344 -452.2536926269531 -8.345191955566406
v 400.58880615234375 -457.0540466308594 -8.345191955566406
v 400.58880615234375 -457.0540466308594 -13.051074028015137
v 401.7886962890625 -456.5106201171875 -13.051074028015137
v 400.58880615234375 -457.0540466308594 -8.345191955566406
v 402.8376159667969 -455.7138671875 -8.345191955566406
v 401.7886962890625 -456.5106201171875 -8.345191955566406
v 402.8376159667969 -455.7138671875 -13.051074028015137
v 403.6829528808594 -454.7036437988281 -8.345191955566406
v 404.2822570800781 -453.5306701660156 -8.345191955566406
v 401.7886962890625 -456.5106201171875 -8.345191955566406
v 400.58880615234375 -457.0540466308594 -8.345191955566406
v 401.7886962890625 -456.5106201171875 -13.051074028015137
v 401.7886962890625 -456.5106201171875 -8.345191955566406
v 402.8376159667969 -455.7138671875 -8.345191955566406
v 403.6829528808594 -454.7036437988281 -8.345191955566406
v 404.3738098144531 -449.64605712890625 -8.345191955566406
v 367.0098876953125 -467.9229736328125 -8.345191955566406
v 400.58880615234375 -457.0540466308594 -8.345191955566406
v 400.58880615234375 -457.0540466308594 -8.345191955566406
v 367.0098876953125 -467.9229736328125 -8.345191955566406
v 400.58880615234375 -457.0540466308594 -13.051074028015137
v 367.0098876953125 -467.9229736328125 -8.345191955566406
v 367.0098876953125 -467.9229736328125 -8.345191955566406
v 367.0098876953125 -467.9229736328125 -13.051074028015137
v 400.58880615234375 -457.0540466308594 -13.051074028015137
v 359.6019592285156 -464.1379699707031 -8.345191955566406
v 359.6019592285156 -464.1379699707031 -13.051074028015137
v 360.1453552246094 -465.3379211425781 -13.051074028015137
v 360.1453552246094 -465.3379211425781 -8.345191955566406
v 359.6019592285156 -464.1379699707031 -8.345191955566406
v 360.1453552246094 -465.3379211425781 -13.051074028015137
v 360.1453552246094 -465.3379211425781 -8.345191955566406
v 367.0098876953125 -467.9229736328125 -8.345191955566406
v 365.71917724609375 -468.18572998046875 -8.345191955566406
v 367.0098876953125 -467.9229736328125 -13.051074028015137
v 364.4023132324219 -468.1546936035156 -8.345191955566406
v 364.4023132324219 -468.1546936035156 -8.345191955566406
v 365.71917724609375 -468.18572998046875 -8.345191955566406
v 367.0098876953125 -467.9229736328125 -8.345191955566406
vt 0.9127732515335083 0.5929610729217529
vt 0.9036775231361389 0.5907377004623413
vt 0.911794900894165 0.5928523540496826
vt 0.9088369011878967 0.6041760444641113
vt 0.9036775231361389 0.5907377004623413
vt 0.9127732515335083 0.5929610729217529
vt 0.9036775231361389 0.5907377004623413
vt 0.9026932120323181 0.5906269550323486
vt 0.911794900894165 0.5928523540496826
vt 0.903329610824585 0.5906907320022583
vt 0.9023450613021851 0.5905798673629761
vt 0.9026932120323181 0.5906269550323486
vt 0.9036775231361389 0.5907377004623413
vt 0.903329610824585 0.5906907320022583
vt 0.9026932120323181 0.5906269550323486
vt 0.9029748439788818 0.5907162427902222
vt 0.9019900560379028 0.5906054377555847
vt 0.9023450613021851 0.5905798673629761
vt 0.8997790217399597 0.6019032001495361
vt 0.903329610824585 0.5906907320022583
vt 0.9029748439788818 0.5907162427902222
vt 0.9023450613021851 0.5905798673629761
vt 0.9026309251785278 0.5908128619194031
vt 0.9016459584236145 0.5907022356987
vt 0.9019900560379028 0.5906054377555847
vt 0.9029748439788818 0.5907162427902222
vt 0.903329610824585 0.5906907320022583
vt 0.9029748439788818 0.5907162427902222
vt 0.9026309251785278 0.5908128619194031
vt 0.9019900560379028 0.5906054377555847
vt 0.9023151397705078 0.5909757614135742
vt 0.9013299942016602 0.5908653736114502
vt 0.9016459584236145 0.5907022356987
vt 0.9026309251785278 0.5908128619194031
vt 0.9023151397705078 0.5909757614135742
vt 0.9016459584236145 0.5907022356987
vt 0.9020432233810425 0.5911967754364014
vt 0.9010578989982605 0.5910866260528564
vt 0.9013299942016602 0.5908653736114502
vt 0.9018288254737854 0.5914648771286011
vt 0.8997790217399597 0.6019032001495361
vt 0.9088369011878967 0.6041760444641113
vt 0.8987922668457031 0.6018057465553284
vt 0.9018288254737854 0.5914648771286011
vt 0.9008433818817139 0.59135502576828
vt 0.9010578989982605 0.5910866260528564
vt 0.9023151397705078 0.5909757614135742
vt 0.9020432233810425 0.5911967754364014
vt 0.9013299942016602 0.5908653736114502
vt 0.9018288254737854 0.5914648771286011
vt 0.9026309251785278 0.5908128619194031
vt 0.9029748439788818 0.5907162427902222
vt 0.9016826152801514 0.5917664170265198
vt 0.9006970524787903 0.5916569828987122
vt 0.9008433818817139 0.59135502576828
vt 0.9016826152801514 0.5917664170265198
vt 0.9020432233810425 0.5911967754364014
vt 0.9018288254737854 0.5914648771286011
vt 0.9010578989982605 0.5910866260528564
vt 0.9023151397705078 0.5909757614135742
vt 0.9026309251785278 0.5908128619194031
vt 0.9018288254737854 0.5914648771286011
vt 0.9016826152801514 0.5917664170265198
vt 0.9008433818817139 0.59135502576828
vt 0.9018288254737854 0.5914648771286011
vt 0.9020432233810425 0.5911967754364014
vt 0.9023151397705078 0.5909757614135742
vt 0.9036775231361389 0.5907377004623413
vt 0.8987635374069214 0.6001343727111816
vt 0.9016826152801514 0.5917664170265198
vt 0.9016826152801514 0.5917664170265198
vt 0.8987635374069214 0.6001343727111816
vt 0.9006970524787903 0.5916569828987122
vt 0.8987635374069214 0.6001343727111816
vt 0.8987635374069214 0.6001343727111816
vt 0.8977760672569275 0.6000349521636963
vt 0.9006970524787903 0.5916569828987122
vt 0.8997790217399597 0.6019032001495361
vt 0.8987922668457031 0.6018057465553284
vt 0.8984699845314026 0.6016868352890015
vt 0.8994569778442383 0.6017844676971436
vt 0.8997790217399597 0.6019032001495361
vt 0.8984699845314026 0.6016868352890015
vt 0.8994569778442383 0.6017844676971436
vt 0.8987635374069214 0.6001343727111816
vt 0.8986930251121521 0.6004536747932434
vt 0.8977760672569275 0.6000349521636963
vt 0.8987013697624207 0.6007757186889648
vt 0.8987013697624207 0.6007757186889648
vt 0.8986930251121521 0.6004536747932434
vt 0.8987635374069214 0.6001343727111816
vn -0.951400876045227 -0.30795544385910034 -0
vn -0.951400876045227 -0.30795544385910034 -0
vn -0.951400876045227 -0.30795544385910034 -0
vn 0 -0 -1
vn 0 -0 -1
vn 0 -0 -1
vn -0.9514015316963196 -0.30795323848724365 -0
vn -0.9514015316963196 -0.30795323848724365 -0
vn -0.9514015316963196 -0.30795323848724365 -0
vn -0.979907214641571 -0.19945408403873444 -0
vn -0.979907214641571 -0.19945408403873444 -0
vn -0.979907214641571 -0.19945408403873444 -0
vn -0.9798946380615234 -0.1995159238576889 -0
vn -0.9798946380615234 -0.1995159238576889 -0
vn -0.9798946380615234 -0.1995159238576889 -0
vn -0.9997216463088989 0.02359381876885891 -0
vn -0.9997216463088989 0.02359381876885891 -0
vn -0.9997216463088989 0.02359381876885891 -0
vn 0 -0 -1
vn -0.9997231364250183 0.023529384285211563 -0
vn -0.9997231364250183 0.023529384285211563 -0
vn -0.9997231364250183 0.023529384285211563 -0
vn -0.9694181680679321 0.24541495740413666 -0
vn -0.9694181680679321 0.24541495740413666 -0
vn -0.9694181680679321 0.24541495740413666 -0
vn 0 -0 -1
vn 0 -0 -1
vn -0.9694181680679321 0.24541501700878143 -0
vn -0.9694181680679321 0.24541501700878143 -0
vn -0.9694181680679321 0.24541501700878143 -0
vn -0.8905218243598938 0.4549405872821808 -0
vn -0.8905218243598938 0.4549405872821808 -0
vn -0.8905218243598938 0.4549405872821808 -0
vn -0.8904956579208374 0.45499181747436523 -0
vn -0.8904956579208374 0.45499181747436523 -0
vn -0.8904956579208374 0.45499181747436523 -0
vn -0.7668877840042114 0.6417811512947083 -0
vn -0.7668877840042114 0.6417811512947083 -0
vn -0.7668877840042114 0.6417811512947083 -0
vn 0 -0 -1
vn 0.9514015316963196 0.30795323848724365 -0
vn 0.9514015316963196 0.30795323848724365 -0
vn 0.9514015316963196 0.30795323848724365 -0
vn -0.6048658490180969 0.7963273525238037 -0
vn -0.6048658490180969 0.7963273525238037 -0
vn -0.6048658490180969 0.7963273525238037 -0
vn -0.7669196724891663 0.6417431235313416 -0
vn -0.7669196724891663 0.6417431235313416 -0
vn -0.7669196724891663 0.6417431235313416 -0
vn -0.0000014057579846848967 -0 -1
vn -0.0000014057579846848967 -0 -1
vn -0.0000014057579846848967 -0 -1
vn -0.4125460088253021 0.9109368324279785 -0
vn -0.4125460088253021 0.9109368324279785 -0
vn -0.4125460088253021 0.9109368324279785 -0
vn 0 -0 -1
vn -0.604897141456604 0.7963036894798279 -0
vn -0.604897141456604 0.7963036894798279 -0
vn -0.604897141456604 0.7963036894798279 -0
vn 0 -0 -1
vn 0 -0 -1
vn -0.41257014870643616 0.9109259247779846 -0
vn -0.41257014870643616 0.9109259247779846 -0
vn -0.41257014870643616 0.9109259247779846 -0
vn 0.00000404373713536188 -0 -1
vn 0.00000404373713536188 -0 -1
vn 0.00000404373713536188 -0 -1
vn 0.0000001202959509782886 -0 -1
vn 0.0000001202959509782886 -0 -1
vn 0.0000001202959509782886 -0 -1
vn -0.307952344417572 0.9514018297195435 -0
vn -0.307952344417572 0.9514018297195435 -0
vn -0.307952344417572 0.9514018297195435 -0
vn 0 -0 -1
vn -0.30795249342918396 0.9514018297195435 -0
vn -0.30795249342918396 0.9514018297195435 -0
vn -0.30795249342918396 0.9514018297195435 -0
vn 0.9109529852867126 0.41251030564308167 -0
vn 0.9109529852867126 0.41251030564308167 -0
vn 0.9109529852867126 0.41251030564308167 -0
vn 0.9109529256820679 0.4125101864337921 -0
vn 0.9109529256820679 0.4125101864337921 -0
vn 0.9109529256820679 0.4125101864337921 -0
vn 0 -0 -1
vn -0.19949281215667725 0.9798992872238159 -0
vn -0.19949281215667725 0.9798992872238159 -0
vn -0.19949281215667725 0.9798992872238159 -0
vn 0 -0 -1
vn 0.0000005055979954704526 -0 -1
vn 0.0000005055979954704526 -0 -1
vn 0.0000005055979954704526 -0 -1
f 3/3/3 2/2/2 1/1/1
f 6/6/6 5/5/5 4/4/4
f 9/9/9 8/8/8 7/7/7
f 12/12/12 11/11/11 10/10/10
f 15/15/15 14/14/14 13/13/13
f 18/18/18 17/17/17 16/16/16
f 19/19/19 4/4/4 5/5/5
f 22/22/22 21/21/21 20/20/20
f 25/25/25 24/24/24 23/23/23
f 5/5/5 27/27/27 26/26/26
f 30/30/30 29/29/29 28/28/28
f 33/33/33 32/32/32 31/31/31
f 36/36/36 35/35/35 34/34/34
f 39/39/39 38/38/38 37/37/37
f 5/5/5 26/26/26 40/40/40
f 43/43/43 42/42/42 41/41/41
f 46/46/46 45/45/45 44/44/44
f 49/49/49 48/48/48 47/47/47
f 52/52/52 51/51/51 50/50/50
f 55/55/55 54/54/54 53/53/53
f 40/40/40 56/56/56 5/5/5
f 59/59/59 58/58/58 57/57/57
f 61/61/61 60/60/60 40/40/40
f 64/64/64 63/63/63 62/62/62
f 67/67/67 66/66/66 65/65/65
f 70/70/70 69/69/69 68/68/68
f 73/73/73 72/72/72 71/71/71
f 19/19/19 5/5/5 74/74/74
f 77/77/77 76/76/76 75/75/75
f 80/80/80 79/79/79 78/78/78
f 83/83/83 82/82/82 81/81/81
f 84/84/84 19/19/19 74/74/74
f 87/87/87 86/86/86 85/85/85
f 74/74/74 88/88/88 84/84/84
f 91/91/91 90/90/90 89/89/89
