# VPXTOOL table OBJ file
# VPXTOOL OBJ file
# numVerts: 150 numFaces: 153
o LM_L_LMet4_TMet4
v 24.39875602722168 -0.14124009013175964 -65.61187744140625
v -23.771678924560547 -0.14118488132953644 -65.61187744140625
v -23.771623611450195 -22.373855590820313 -65.61187744140625
v 24.39870262145996 -22.37380027770996 -65.61187744140625
v 24.39875602722168 -0.14124009013175964 -65.61187744140625
v -23.771623611450195 -22.373855590820313 -65.61187744140625
v 24.39875602722168 -0.14124009013175964 -65.61187744140625
v 24.39870262145996 -22.37380027770996 -65.61187744140625
v 24.39875602722168 -14.962946891784668 -44.30571365356445
v 24.39875602722168 -0.14124009013175964 -65.61187744140625
v 24.39870262145996 -9.404779434204102 -11.883299827575684
v -23.771678924560547 -0.14118488132953644 -65.61187744140625
v -23.771678924560547 -0.14118488132953644 -65.61187744140625
v -23.7717342376709 -14.962946891784668 -44.30571365356445
v -23.771623611450195 -22.373855590820313 -65.61187744140625
v 14.208819389343262 -14.962946891784668 -44.30571365356445
v 24.39870262145996 -22.37380027770996 -65.61187744140625
v -23.771623611450195 -22.373855590820313 -65.61187744140625
v 16.987903594970703 -14.962946891784668 -44.30571365356445
v 24.39875602722168 -14.962946891784668 -44.30571365356445
v 24.39870262145996 -22.37380027770996 -65.61187744140625
v 24.39870262145996 -22.37380027770996 -65.61187744140625
v 14.208819389343262 -14.962946891784668 -44.30571365356445
v 16.987903594970703 -14.962946891784668 -44.30571365356445
v 24.39870262145996 -9.404779434204102 -11.883299827575684
v 24.39875602722168 -0.14124009013175964 -65.61187744140625
v 24.39875602722168 -14.962946891784668 -44.30571365356445
v -23.771623611450195 -22.373855590820313 -65.61187744140625
v -23.7717342376709 -14.962946891784668 -44.30571365356445
v 14.208819389343262 -14.962946891784668 -44.30571365356445
v -23.771678924560547 -0.14118488132953644 -65.61187744140625
v -23.771678924560547 -9.404779434204102 -11.88329792022705
v -23.7717342376709 -14.962946891784668 -44.30571365356445
v 24.39870262145996 -9.404779434204102 -11.883299827575684
v -23.771678924560547 -9.404779434204102 -11.88329792022705
v -23.771678924560547 -0.14118488132953644 -65.61187744140625
v 16.987903594970703 -14.962946891784668 -44.30571365356445
v 24.39875602722168 -14.962946891784668 15.907317161560059
v 24.39875602722168 -14.962946891784668 -44.30571365356445
v 14.208819389343262 -14.962946891784668 -44.30571365356445
v 24.39875602722168 -14.962946891784668 15.907317161560059
v 16.987903594970703 -14.962946891784668 -44.30571365356445
v 24.39870262145996 -9.404779434204102 4.7910919189453125
v 24.39870262145996 -9.404779434204102 -11.883299827575684
v 24.39875602722168 -14.962946891784668 -44.30571365356445
v 14.208819389343262 -14.962946891784668 -44.30571365356445
v -23.7717342376709 -14.962946891784668 -44.30571365356445
v -23.771678924560547 -14.962946891784668 15.907379150390625
v -23.771678924560547 -9.404779434204102 -11.88329792022705
v -23.771678924560547 -9.404779434204102 4.79109525680542
v -23.7717342376709 -14.962946891784668 -44.30571365356445
v 24.39870262145996 -9.404779434204102 15.907344818115234
v 24.39870262145996 -9.404779434204102 4.7910919189453125
v 24.39875602722168 -14.962946891784668 -44.30571365356445
v 24.39870262145996 -9.404779434204102 -11.883299827575684
v -23.771678924560547 -9.404779434204102 4.79109525680542
v -23.771678924560547 -9.404779434204102 -11.88329792022705
v 24.39875602722168 -14.962946891784668 -44.30571365356445
v 24.39875602722168 -14.962946891784668 15.907317161560059
v 24.39870262145996 -9.404779434204102 15.907344818115234
v 24.39870262145996 -9.404779434204102 -11.883299827575684
v 24.39870262145996 -9.404779434204102 4.7910919189453125
v 6.797966480255127 -9.404890060424805 4.791093349456787
v 24.39870262145996 -9.404779434204102 -11.883299827575684
v 6.797966480255127 -9.404890060424805 4.791093349456787
v -5.244545936584473 -9.404834747314453 4.791093349456787
v -23.771678924560547 -9.404779434204102 4.79109525680542
v -23.771678924560547 -9.404779434204102 15.9073486328125
v -23.7717342376709 -14.962946891784668 -44.30571365356445
v 24.39870262145996 -9.404779434204102 -11.883299827575684
v -5.244545936584473 -9.404834747314453 4.791093349456787
v -23.771678924560547 -9.404779434204102 4.79109525680542
v 14.208819389343262 -14.962946891784668 -44.30571365356445
v -23.771678924560547 -14.962946891784668 15.907379150390625
v -23.771678924560547 -14.962946891784668 15.907379150390625
v -23.7717342376709 -14.962946891784668 -44.30571365356445
v -23.771678924560547 -9.404779434204102 15.9073486328125
v 24.39875602722168 -3.846721887588501 15.907344818115234
v 24.39875602722168 -3.846721887588501 14.054644584655762
v 24.39870262145996 -9.404779434204102 4.7910919189453125
v 6.797966480255127 -9.404890060424805 4.791093349456787
v 24.39870262145996 -9.404779434204102 4.7910919189453125
v 6.79802131652832 -3.8466668128967285 14.054646492004395
v 24.39870262145996 -9.404779434204102 4.7910919189453125
v 24.39875602722168 -3.846721887588501 14.054644584655762
v 6.79802131652832 -3.8466668128967285 14.054646492004395
v 24.39870262145996 -9.404779434204102 15.907344818115234
v 24.39875602722168 -3.846721887588501 15.907344818115234
v 24.39870262145996 -9.404779434204102 4.7910919189453125
v 6.79802131652832 -3.8466668128967285 14.054646492004395
v 24.39875602722168 -3.846721887588501 14.054644584655762
v 6.79802131652832 -3.8466668128967285 15.907344818115234
v 6.797966480255127 -9.404890060424805 4.791093349456787
v 6.797966480255127 -9.404890060424805 15.907344818115234
v -5.244545936584473 -9.404834747314453 4.791093349456787
v -5.244545936584473 -9.404834747314453 4.791093349456787
v -5.244545936584473 -3.846611499786377 14.054646492004395
v -23.771678924560547 -9.404779434204102 4.79109525680542
v 6.797966480255127 -9.404890060424805 15.907344818115234
v 6.797966480255127 -9.404890060424805 4.791093349456787
v 6.79802131652832 -3.8466668128967285 14.054646492004395
v 24.39875602722168 -3.846721887588501 15.907344818115234
v 24.39870262145996 -9.404779434204102 15.907344818115234
v 6.79802131652832 -3.8466668128967285 15.907344818115234
v -5.244545936584473 -3.846611499786377 14.054646492004395
v -23.771678924560547 -3.846721887588501 14.054648399353027
v -23.771678924560547 -9.404779434204102 4.79109525680542
v 6.79802131652832 -3.8466668128967285 14.054646492004395
v 6.79802131652832 -3.8466668128967285 15.907344818115234
v 6.797966480255127 -9.404890060424805 15.907344818115234
v -5.244545936584473 -3.846611499786377 14.054646492004395
v -5.244545936584473 -9.404834747314453 4.791093349456787
v -5.244545936584473 -9.404834747314453 15.907344818115234
v -5.244545936584473 -3.846611499786377 14.054646492004395
v -5.244545936584473 -3.846611499786377 15.907344818115234
v -23.771678924560547 -3.846721887588501 14.054648399353027
v 24.39870262145996 -9.404779434204102 15.907344818115234
v 6.797966480255127 -9.404890060424805 15.907344818115234
v 6.79802131652832 -3.8466668128967285 15.907344818115234
v 6.797966480255127 -9.404890060424805 15.907344818115234
v -5.244545936584473 -9.404834747314453 15.907344818115234
v -5.244545936584473 -9.404834747314453 4.791093349456787
v -5.244545936584473 -9.404834747314453 15.907344818115234
v -5.244545936584473 -3.846611499786377 15.907344818115234
v -5.244545936584473 -3.846611499786377 14.054646492004395
v -5.244545936584473 -3.846611499786377 15.907344818115234
v -23.771678924560547 -3.846721887588501 15.9073486328125
v -23.771678924560547 -3.846721887588501 14.054648399353027
v -23.771678924560547 -9.404779434204102 4.79109525680542
v -23.771678924560547 -3.846721887588501 14.054648399353027
v -23.771678924560547 -9.404779434204102 15.9073486328125
v 6.797966480255127 -9.404890060424805 15.907344818115234
v 24.39870262145996 -9.404779434204102 15.907344818115234
v 24.39875602722168 -14.962946891784668 15.907317161560059
v -23.771678924560547 -9.404779434204102 15.9073486328125
v -23.771678924560547 -3.846721887588501 15.9073486328125
v -5.244545936584473 -3.846611499786377 15.907344818115234
v -23.771678924560547 -3.846721887588501 15.9073486328125
v -5.244545936584473 -9.404834747314453 15.907344818115234
v -23.771678924560547 -9.404779434204102 15.9073486328125
v -5.244545936584473 -3.846611499786377 15.907344818115234
v -5.244545936584473 -9.404834747314453 15.907344818115234
v 6.797966480255127 -9.404890060424805 15.907344818115234
v 24.39875602722168 -14.962946891784668 15.907317161560059
v 24.39875602722168 -14.962946891784668 15.907317161560059
v -23.771678924560547 -14.962946891784668 15.907379150390625
v -5.244545936584473 -9.404834747314453 15.907344818115234
v -23.771678924560547 -14.962946891784668 15.907379150390625
v -23.771678924560547 -9.404779434204102 15.9073486328125
v -5.244545936584473 -9.404834747314453 15.907344818115234
vt 0.6023674011230469 0.008346915245056152
vt 0.6023674011230469 0.0008791089057922363
vt 0.606106162071228 0.0008791089057922363
vt 0.606106162071228 0.008346915245056152
vt 0.6023674011230469 0.008346915245056152
vt 0.606106162071228 0.0008791089057922363
vt 0.977936863899231 0.6940081119537354
vt 0.9839848279953003 0.6940081119537354
vt 0.981968879699707 0.6993511915206909
vt 0.5203126668930054 0.8020802140235901
vt 0.5203126668930054 0.8364603519439697
vt 0.55758136510849 0.8020802140235901
vt 0.9814898371696472 0.01774662733078003
vt 0.9776232242584229 0.023192644119262695
vt 0.9754442572593689 0.017904222011566162
vt 0.9579953551292419 0.014925777912139893
vt 0.9597089886665344 0.01837402582168579
vt 0.9516083002090454 0.01837402582168579
vt 0.9584627151489258 0.014925777912139893
vt 0.9597089886665344 0.014925777912139893
vt 0.9597089886665344 0.01837402582168579
vt 0.9597089886665344 0.01837402582168579
vt 0.9579953551292419 0.014925777912139893
vt 0.9584627151489258 0.014925777912139893
vt 0.9804568886756897 0.707482099533081
vt 0.977936863899231 0.6940081119537354
vt 0.981968879699707 0.6993511915206909
vt 0.9516083002090454 0.01837402582168579
vt 0.9516083002090454 0.014925777912139893
vt 0.9579953551292419 0.014925777912139893
vt 0.9814898371696472 0.01774662733078003
vt 0.9793838858604431 0.03128087520599365
vt 0.9776232242584229 0.023192644119262695
vt 0.5203126668930054 0.8364603519439697
vt 0.55758136510849 0.8364603519439697
vt 0.55758136510849 0.8020802140235901
vt 0.9584627151489258 0.014925777912139893
vt 0.9597089886665344 0.005721390247344971
vt 0.9597089886665344 0.014925777912139893
vt 0.9579953551292419 0.014925777912139893
vt 0.9597089886665344 0.005721390247344971
vt 0.9584627151489258 0.014925777912139893
vt 0.9804568886756897 0.7116637229919434
vt 0.9804568886756897 0.707482099533081
vt 0.981968879699707 0.6993511915206909
vt 0.9579953551292419 0.014925777912139893
vt 0.9516083002090454 0.014925777912139893
vt 0.9516083002090454 0.005721390247344971
vt 0.9793838858604431 0.03128087520599365
vt 0.979512095451355 0.035460829734802246
vt 0.9776232242584229 0.023192644119262695
vt 0.9804568886756897 0.7144514322280884
vt 0.9804568886756897 0.7116637229919434
vt 0.981968879699707 0.6993511915206909
vt 0.4947526454925537 0.36559098958969116
vt 0.49195948243141174 0.35812318325042725
vt 0.4947526454925537 0.35812318325042725
vt 0.981968879699707 0.6993511915206909
vt 0.981968879699707 0.7144514322280884
vt 0.9804568886756897 0.7144514322280884
vt 0.4947526454925537 0.36559098958969116
vt 0.49195948243141174 0.36559098958969116
vt 0.49195948243141174 0.36286240816116333
vt 0.4947526454925537 0.36559098958969116
vt 0.49195948243141174 0.36286240816116333
vt 0.49195948243141174 0.36099541187286377
vt 0.979512095451355 0.035460829734802246
vt 0.9795975685119629 0.03824740648269653
vt 0.9776232242584229 0.023192644119262695
vt 0.4947526454925537 0.36559098958969116
vt 0.49195948243141174 0.36099541187286377
vt 0.49195948243141174 0.35812318325042725
vt 0.9579953551292419 0.014925777912139893
vt 0.9516083002090454 0.005721390247344971
vt 0.9780861735343933 0.038286805152893066
vt 0.9776232242584229 0.023192644119262695
vt 0.9795975685119629 0.03824740648269653
vt 0.9789448976516724 0.7144514322280884
vt 0.9789448976516724 0.7139867544174194
vt 0.9804568886756897 0.7116637229919434
vt 0.49195948243141174 0.36286240816116333
vt 0.49195948243141174 0.36559098958969116
vt 0.49032527208328247 0.36286240816116333
vt 0.49195948243141174 0.36559098958969116
vt 0.49032527208328247 0.36559098958969116
vt 0.49032527208328247 0.36286240816116333
vt 0.9804568886756897 0.7144514322280884
vt 0.9789448976516724 0.7144514322280884
vt 0.9804568886756897 0.7116637229919434
vt 0.49032527208328247 0.36286240816116333
vt 0.49032527208328247 0.36559098958969116
vt 0.4900149405002594 0.36286240816116333
vt 0.49195948243141174 0.36286240816116333
vt 0.49009740352630615 0.36286240816116333
vt 0.49195948243141174 0.36099541187286377
vt 0.49195948243141174 0.36099541187286377
vt 0.49032527208328247 0.36099541187286377
vt 0.49195948243141174 0.35812318325042725
vt 0.03372529149055481 0.38597744703292847
vt 0.03372529149055481 0.38770079612731934
vt 0.032790593802928925 0.3862646818161011
vt 0.5717222094535828 0.04264867305755615
vt 0.5707875490188599 0.04264867305755615
vt 0.5717222094535828 0.039920032024383545
vt 0.49032527208328247 0.36099541187286377
vt 0.49032527208328247 0.35812318325042725
vt 0.49195948243141174 0.35812318325042725
vt 0.032790593802928925 0.3862646818161011
vt 0.032790593802928925 0.38597744703292847
vt 0.03372529149055481 0.38597744703292847
vt 0.10234637558460236 0.2235856056213379
vt 0.10141167789697647 0.22502171993255615
vt 0.10141167789697647 0.22329837083816528
vt 0.49032527208328247 0.36099541187286377
vt 0.4900149405002594 0.36099541187286377
vt 0.49032527208328247 0.35812318325042725
vt 0.5707875490188599 0.04264867305755615
vt 0.5707875490188599 0.039920032024383545
vt 0.5717222094535828 0.039920032024383545
vt 0.49009740352630615 0.36286240816116333
vt 0.49009740352630615 0.36099541187286377
vt 0.49195948243141174 0.36099541187286377
vt 0.10141167789697647 0.22329837083816528
vt 0.10234637558460236 0.22329837083816528
vt 0.10234637558460236 0.2235856056213379
vt 0.4900149405002594 0.36099541187286377
vt 0.4900149405002594 0.35812318325042725
vt 0.49032527208328247 0.35812318325042725
vt 0.979512095451355 0.035460829734802246
vt 0.9810947179794312 0.037743568420410156
vt 0.9795975685119629 0.03824740648269653
vt 0.5707875490188599 0.039920032024383545
vt 0.5707875490188599 0.04264867305755615
vt 0.5698528289794922 0.04264867305755615
vt 0.5707875490188599 0.035180866718292236
vt 0.5717222094535828 0.035180866718292236
vt 0.5717222094535828 0.038053035736083984
vt 0.9811089634895325 0.0382080078125
vt 0.5707875490188599 0.038053035736083984
vt 0.5707875490188599 0.035180866718292236
vt 0.5717222094535828 0.038053035736083984
vt 0.5707875490188599 0.038053035736083984
vt 0.5707875490188599 0.039920032024383545
vt 0.5698528289794922 0.04264867305755615
vt 0.5698528289794922 0.04264867305755615
vt 0.5698528289794922 0.035180866718292236
vt 0.5707875490188599 0.038053035736083984
vt 0.5698528289794922 0.035180866718292236
vt 0.5707875490188599 0.035180866718292236
vt 0.5707875490188599 0.038053035736083984
vn 0.0000001373194322695781 -0 -0.9999999403953552
vn 0.0000001373194322695781 -0 -0.9999999403953552
vn 0.0000001373194322695781 -0 -0.9999999403953552
vn 0 -0 -1
vn 0 -0 -1
vn 0 -0 -1
vn 1 -0.00000253076245826378 -0.0000017276706785196438
vn 1 -0.00000253076245826378 -0.0000017276706785196438
vn 1 -0.00000253076245826378 -0.0000017276706785196438
vn 0.000001122121830121614 0.985460102558136 0.16990678012371063
vn 0.000001122121830121614 0.985460102558136 0.16990678012371063
vn 0.000001122121830121614 0.985460102558136 0.16990678012371063
vn -1 -0.000002530749725337955 -0.000004319173967815004
vn -1 -0.000002530749725337955 -0.000004319173967815004
vn -1 -0.000002530749725337955 -0.000004319173967815004
vn 0.00000110321866486629 -0.9444964528083801 0.3285216689109802
vn 0.00000110321866486629 -0.9444964528083801 0.3285216689109802
vn 0.00000110321866486629 -0.9444964528083801 0.3285216689109802
vn 0 -0.9444965720176697 0.32852137088775635
vn 0 -0.9444965720176697 0.32852137088775635
vn 0 -0.9444965720176697 0.32852137088775635
vn 0 -0.9444965124130249 0.3285213112831116
vn 0 -0.9444965124130249 0.3285213112831116
vn 0 -0.9444965124130249 0.3285213112831116
vn 1 0.0000023349712137132883 0.0000013662944411407807
vn 1 0.0000023349712137132883 0.0000013662944411407807
vn 1 0.0000023349712137132883 0.0000013662944411407807
vn 0 -0.9444958567619324 0.3285234272480011
vn 0 -0.9444958567619324 0.3285234272480011
vn 0 -0.9444958567619324 0.3285234272480011
vn -1 0.0000050034936975862365 0.0000008539338978152955
vn -1 0.0000050034936975862365 0.0000008539338978152955
vn -1 0.0000050034936975862365 0.0000008539338978152955
vn 0 0.9854599237442017 0.16990773379802704
vn 0 0.9854599237442017 0.16990773379802704
vn 0 0.9854599237442017 0.16990773379802704
vn 0 -1 -0
vn 0 -1 -0
vn 0 -1 -0
vn 0 -1 -0.0000001492494590138449
vn 0 -1 -0.0000001492494590138449
vn 0 -1 -0.0000001492494590138449
vn 1 0.000010240161827823613 -0
vn 1 0.000010240161827823613 -0
vn 1 0.000010240161827823613 -0
vn 0 -1 -0.00000004368301631529903
vn 0 -1 -0.00000004368301631529903
vn 0 -1 -0.00000004368301631529903
vn -0.9999999403953552 0.000011318069482513238 -0
vn -0.9999999403953552 0.000011318069482513238 -0
vn -0.9999999403953552 0.000011318069482513238 -0
vn 0.9999999403953552 0.000008084341970970854 -0
vn 0.9999999403953552 0.000008084341970970854 -0
vn 0.9999999403953552 0.000008084341970970854 -0
vn 0 1 -0
vn 0 1 -0
vn 0 1 -0
vn 1 0.000010148962246603332 -0
vn 1 0.000010148962246603332 -0
vn 1 0.000010148962246603332 -0
vn -0.000006274173756537493 1 -0
vn -0.000006274173756537493 1 -0
vn -0.000006274173756537493 1 -0
vn 0.000004585010628943564 1 0.000011442622053436935
vn 0.000004585010628943564 1 0.000011442622053436935
vn 0.000004585010628943564 1 0.000011442622053436935
vn -1 0.00000565904065297218 -0
vn -1 0.00000565904065297218 -0
vn -1 0.00000565904065297218 -0
vn 0.000002980227463922347 1 0.000008731130037631374
vn 0.000002980227463922347 1 0.000008731130037631374
vn 0.000002980227463922347 1 0.000008731130037631374
vn 0 -1 -0
vn 0 -1 -0
vn -1 0.0000005969971539343533 0.0000009169940540232346
vn -1 0.0000005969971539343533 0.0000009169940540232346
vn -1 0.0000005969971539343533 0.0000009169940540232346
vn 1 -0.000010307790944352746 -0
vn 1 -0.000010307790944352746 -0
vn 1 -0.000010307790944352746 -0
vn -0.000005435346338344971 0.857489287853241 -0.5145019888877869
vn -0.000005435346338344971 0.857489287853241 -0.5145019888877869
vn -0.000005435346338344971 0.857489287853241 -0.5145019888877869
vn 0.00000265982816927135 0.8574960231781006 -0.5144906640052795
vn 0.00000265982816927135 0.8574960231781006 -0.5144906640052795
vn 0.00000265982816927135 0.8574960231781006 -0.5144906640052795
vn 1 -0.000009701405360829085 -0
vn 1 -0.000009701405360829085 -0
vn 1 -0.000009701405360829085 -0
vn 0.0000031370893793791765 1 -0
vn 0.0000031370893793791765 1 -0
vn 0.0000031370893793791765 1 -0
vn 0.000004585010628943564 1 -0
vn 0.000004585010628943564 1 -0
vn 0.000004585010628943564 1 -0
vn 0.0000024956157176347915 0.8574891686439514 -0.5145019888877869
vn 0.0000024956157176347915 0.8574891686439514 -0.5145019888877869
vn 0.0000024956157176347915 0.8574891686439514 -0.5145019888877869
vn -1 0.000010105332876264583 -0
vn -1 0.000010105332876264583 -0
vn -1 0.000010105332876264583 -0
vn -0.00000012765006829340564 -0 1
vn -0.00000012765006829340564 -0 1
vn -0.00000012765006829340564 -0 1
vn -0.00000515210876983474 0.8574960231781006 -0.5144906640052795
vn -0.00000515210876983474 0.8574960231781006 -0.5144906640052795
vn -0.00000515210876983474 0.8574960231781006 -0.5144906640052795
vn -1 0.000010004317118728068 -0
vn -1 0.000010004317118728068 -0
vn -1 0.000010004317118728068 -0
vn 1 0.00000010105333103638259 -0
vn 1 0.00000010105333103638259 -0
vn 1 0.00000010105333103638259 -0
vn -0.000005960455382592045 0.9999999403953552 -0
vn -0.000005960455382592045 0.9999999403953552 -0
vn -0.000005960455382592045 0.9999999403953552 -0
vn 0.00000008351855029786748 -0 0.9999999403953552
vn 0.00000008351855029786748 -0 0.9999999403953552
vn 0.00000008351855029786748 -0 0.9999999403953552
vn 0.000004585011083690915 1 -0
vn 0.000004585011083690915 1 -0
vn 0.000004585011083690915 1 -0
vn 1 -0 -0
vn 1 -0 -0
vn 1 -0 -0
vn -0.000005960449925623834 1 -0
vn -0.000005960449925623834 1 -0
vn -0.000005960449925623834 1 -0
vn -1 -0 -0
vn -1 -0 -0
vn -1 -0 -0
vn -0.0000000835193674220136 -0.000004967018412571633 1
vn -0.0000000835193674220136 -0.000004967018412571633 1
vn -0.0000000835193674220136 -0.000004967018412571633 1
vn 0.00000024253455421785475 -0 1
vn 0.00000024253455421785475 -0 1
vn 0.00000024253455421785475 -0 1
vn -1 -0 -0
vn 0.0000000815942868825914 -0 1
vn 0.0000000815942868825914 -0 1
vn 0.0000000815942868825914 -0 1
vn 0.00000006103599758944256 -0.000004967191671312321 1
vn 0.00000006103599758944256 -0.000004967191671312321 1
vn 0.00000006103599758944256 -0.000004967191671312321 1
vn 0.0000013059452612651512 0.0000019104011244053254 1
vn 0.0000013059452612651512 0.0000019104011244053254 1
vn 0.0000013059452612651512 0.0000019104011244053254 1
vn 0.00000012126488968533522 0.000005587897248915397 1
vn 0.00000012126488968533522 0.000005587897248915397 1
vn 0.00000012126488968533522 0.000005587897248915397 1
f 3/3/3 2/2/2 1/1/1
f 6/6/6 5/5/5 4/4/4
f 9/9/9 8/8/8 7/7/7
f 12/12/12 11/11/11 10/10/10
f 15/15/15 14/14/14 13/13/13
f 18/18/18 17/17/17 16/16/16
f 21/21/21 20/20/20 19/19/19
f 24/24/24 23/23/23 22/22/22
f 27/27/27 26/26/26 25/25/25
f 30/30/30 29/29/29 28/28/28
f 33/33/33 32/32/32 31/31/31
f 36/36/36 35/35/35 34/34/34
f 39/39/39 38/38/38 37/37/37
f 42/42/42 41/41/41 40/40/40
f 45/45/45 44/44/44 43/43/43
f 48/48/48 47/47/47 46/46/46
f 51/51/51 50/50/50 49/49/49
f 54/54/54 53/53/53 52/52/52
f 57/57/57 56/56/56 55/55/55
f 60/60/60 59/59/59 58/58/58
f 63/63/63 62/62/62 61/61/61
f 66/66/66 65/65/65 64/64/64
f 69/69/69 68/68/68 67/67/67
f 72/72/72 71/71/71 70/70/70
f 38/38/38 74/74/74 73/73/73
f 77/77/77 76/76/76 75/75/75
f 80/80/80 79/79/79 78/78/78
f 83/83/83 82/82/82 81/81/81
f 86/86/86 85/85/85 84/84/84
f 89/89/89 88/88/88 87/87/87
f 92/92/92 91/91/91 90/90/90
f 95/95/95 94/94/94 93/93/93
f 98/98/98 97/97/97 96/96/96
f 101/101/101 100/100/100 99/99/99
f 104/104/104 103/103/103 102/102/102
f 107/107/107 106/106/106 105/105/105
f 110/110/110 109/109/109 108/108/108
f 113/113/113 112/112/112 111/111/111
f 116/116/116 115/115/115 114/114/114
f 119/119/119 118/118/118 117/117/117
f 122/122/122 121/121/121 120/120/120
f 125/125/125 124/124/124 123/123/123
f 128/128/128 127/127/127 126/126/126
f 131/131/131 130/130/130 129/129/129
f 134/134/134 133/133/133 132/132/132
f 137/137/137 136/136/136 135/135/135
f 131/131/131 138/138/138 130/130/130
f 141/141/141 140/140/140 139/139/139
f 144/144/144 143/143/143 142/142/142
f 147/147/147 146/146/146 145/145/145
f 150/150/150 149/149/149 148/148/148
