# VPXTOOL table OBJ file
# VPXTOOL OBJ file
# numVerts: 68 numFaces: 156
o BM_TMet1
v 24.39872932434082 -0.14112965762615204 -65.61187744140625
v -23.77176284790039 -0.14112965762615204 -65.61187744140625
v -23.7717342376709 -22.373579025268555 -65.61187744140625
v 24.39870262145996 -22.373689651489258 -65.61187744140625
v 24.39872932434082 -0.14112965762615204 -65.61187744140625
v 24.39870262145996 -22.373689651489258 -65.61187744140625
v 24.39870262145996 -14.962836265563965 -44.30571365356445
v 24.39872932434082 -0.14112965762615204 -65.61187744140625
v 24.39870262145996 -9.404779434204102 -11.883298873901367
v -23.77176284790039 -0.14112965762615204 -65.61187744140625
v -23.77176284790039 -0.14112965762615204 -65.61187744140625
v -23.77170753479004 -14.962946891784668 -44.30571365356445
v -23.7717342376709 -22.373579025268555 -65.61187744140625
v 14.208819389343262 -14.962946891784668 -44.30571365356445
v 24.39870262145996 -22.373689651489258 -65.61187744140625
v -23.7717342376709 -22.373579025268555 -65.61187744140625
v 16.98787498474121 -14.962946891784668 -44.30571365356445
v 24.39870262145996 -14.962836265563965 -44.30571365356445
v 24.39870262145996 -9.404779434204102 -11.883298873901367
v -23.77170753479004 -14.962946891784668 -44.30571365356445
v -23.7717342376709 -9.404668807983398 -11.883296966552734
v -23.7717342376709 -9.404668807983398 -11.883296966552734
v 24.39870262145996 -14.962836265563965 15.907317161560059
v 24.39870262145996 -9.404779434204102 4.791092395782471
v -23.77170753479004 -14.962946891784668 15.907379150390625
v -23.7717342376709 -9.404668807983398 4.791096210479736
v 24.39870262145996 -9.404779434204102 15.907344818115234
v 24.39870262145996 -9.404779434204102 -11.883298873901367
v -23.7717342376709 -9.404668807983398 4.791096210479736
v -23.7717342376709 -9.404668807983398 -11.883296966552734
v 24.39870262145996 -14.962836265563965 15.907317161560059
v 24.39870262145996 -9.404779434204102 4.791092395782471
v 6.797994136810303 -9.404779434204102 4.7910943031311035
v -5.244656562805176 -9.404668807983398 4.7910943031311035
v -23.7717342376709 -9.404668807983398 15.9073486328125
v -23.77170753479004 -14.962946891784668 15.907379150390625
v 24.39870262145996 -3.846611499786377 15.907344818115234
v 24.39870262145996 -3.846611499786377 14.054645538330078
v 6.797966480255127 -3.846611499786377 14.054647445678711
v 24.39870262145996 -3.846611499786377 14.054645538330078
v 24.39870262145996 -3.846611499786377 15.907344818115234
v 6.797966480255127 -3.846611499786377 15.907346725463867
v 6.797994136810303 -9.404779434204102 15.907346725463867
v 6.797994136810303 -9.404779434204102 15.907346725463867
v 6.797994136810303 -9.404779434204102 4.7910943031311035
v 6.797966480255127 -3.846611499786377 14.054647445678711
v -23.7717342376709 -3.846721887588501 14.054649353027344
v -5.24462890625 -3.846611499786377 14.054647445678711
v 6.797966480255127 -3.846611499786377 15.907346725463867
v 24.39870262145996 -3.846611499786377 15.907344818115234
v 6.797994136810303 -9.404779434204102 15.907346725463867
v 6.797966480255127 -3.846611499786377 15.907346725463867
v -5.24462890625 -3.846611499786377 14.054647445678711
v -5.244656562805176 -9.404668807983398 4.7910943031311035
v -5.244656562805176 -9.404668807983398 15.907346725463867
v 24.39870262145996 -9.404779434204102 15.907344818115234
v -5.24462890625 -3.846611499786377 15.907346725463867
v -5.244656562805176 -9.404668807983398 15.907346725463867
v -5.24462890625 -3.846611499786377 15.907346725463867
v -23.7717342376709 -3.846721887588501 15.9073486328125
v -23.7717342376709 -3.846721887588501 14.054649353027344
v -5.24462890625 -3.846611499786377 15.907346725463867
v -5.244656562805176 -9.404668807983398 15.907346725463867
v -23.7717342376709 -3.846721887588501 15.9073486328125
v 24.39870262145996 -14.962836265563965 15.907317161560059
v -23.7717342376709 -3.846721887588501 15.9073486328125
v -23.7717342376709 -9.404668807983398 15.9073486328125
v -23.77170753479004 -14.962946891784668 15.907379150390625
vt 0.5861167907714844 0.7635959386825562
vt 0.5861167907714844 0.7561281323432922
vt 0.5908101201057434 0.7561281323432922
vt 0.5908101201057434 0.7635959386825562
vt 0.9714726209640503 0.17508721351623535
vt 0.9790647625923157 0.17508721351623535
vt 0.9765340685844421 0.18043029308319092
vt 0.5472741723060608 0.3510304093360901
vt 0.5472741723060608 0.3854105472564697
vt 0.5940582752227783 0.3510304093360901
vt 0.9765976071357727 0.32450932264328003
vt 0.9717438220977783 0.3299553394317627
vt 0.9690085053443909 0.32466691732406616
vt 0.9477694630622864 0.08951073884963989
vt 0.9499205946922302 0.09295898675918579
vt 0.9397516250610352 0.09295898675918579
vt 0.9483561515808105 0.08951073884963989
vt 0.9499205946922302 0.08951073884963989
vt 0.9746360182762146 0.18856120109558105
vt 0.9397516250610352 0.08951073884963989
vt 0.9739540219306946 0.33804357051849365
vt 0.5940582752227783 0.3854105472564697
vt 0.9499205946922302 0.08030635118484497
vt 0.9746360182762146 0.19274282455444336
vt 0.9397516250610352 0.08030635118484497
vt 0.9741149544715881 0.34222352504730225
vt 0.9746360182762146 0.19553053379058838
vt 0.4094700813293457 0.08299821615219116
vt 0.4059637784957886 0.07553040981292725
vt 0.4094700813293457 0.07553040981292725
vt 0.9765340685844421 0.19553053379058838
vt 0.4059637784957886 0.08299821615219116
vt 0.4059637784957886 0.08026963472366333
vt 0.4059637784957886 0.07840263843536377
vt 0.9742222428321838 0.34501010179519653
vt 0.9723249673843384 0.34504950046539307
vt 0.9727379679679871 0.19553053379058838
vt 0.9727379679679871 0.19506585597991943
vt 0.40391233563423157 0.08026963472366333
vt 0.40391233563423157 0.08299821615219116
vt 0.4035227596759796 0.08299821615219116
vt 0.4035227596759796 0.08026963472366333
vt 0.4036262631416321 0.08026963472366333
vt 0.09286791831254959 0.8228670954704285
vt 0.09286791831254959 0.8245904445648193
vt 0.09169457852840424 0.8231543302536011
vt 0.40391233563423157 0.07553040981292725
vt 0.40391233563423157 0.07840263843536377
vt 0.5454863905906677 0.6524689197540283
vt 0.5454863905906677 0.6551975011825562
vt 0.5443130731582642 0.6524689197540283
vt 0.09169457852840424 0.8228670954704285
vt 0.08642284572124481 0.4009537696838379
vt 0.08524949848651886 0.40238988399505615
vt 0.08524949848651886 0.4006665349006653
vt 0.5443130731582642 0.6551975011825562
vt 0.4035227596759796 0.07840263843536377
vt 0.4036262631416321 0.07840263843536377
vt 0.08642284572124481 0.4006665349006653
vt 0.4035227596759796 0.07553040981292725
vt 0.9761016368865967 0.34450626373291016
vt 0.5454863905906677 0.650601863861084
vt 0.5443130731582642 0.650601863861084
vt 0.5454863905906677 0.6477296948432922
vt 0.5431396961212158 0.6551975011825562
vt 0.9761195182800293 0.344970703125
vt 0.5443130731582642 0.6477296948432922
vt 0.5431396961212158 0.6477296948432922
vn 0.5689043402671814 0.6290059685707092 -0.5298107266426086
vn -0.5688866972923279 0.6290186643600464 -0.5298144817352295
vn -0.5617570281028748 -0.6742788553237915 -0.4793507158756256
vn 0.5617604851722717 -0.6742428541183472 -0.47939711809158325
vn 0.5689043402671814 0.6290059685707092 -0.5298107266426086
vn 0.5617604851722717 -0.6742428541183472 -0.47939711809158325
vn 0.746593713760376 -0.6559839844703674 0.11082789301872253
vn 0.5689043402671814 0.6290059685707092 -0.5298107266426086
vn 0.7268120050430298 0.6843348145484924 0.05856601148843765
vn -0.5688866972923279 0.6290186643600464 -0.5298144817352295
vn -0.5688866972923279 0.6290186643600464 -0.5298144817352295
vn -0.7465861439704895 -0.6559929251670837 0.11082623898983002
vn -0.5617570281028748 -0.6742788553237915 -0.4793507158756256
vn -0.0000002385614266131597 -0.986027181148529 0.16658468544483185
vn 0.5617604851722717 -0.6742428541183472 -0.47939711809158325
vn -0.5617570281028748 -0.6742788553237915 -0.4793507158756256
vn 0.000006330417363642482 -0.9860266447067261 0.16658766567707062
vn 0.746593713760376 -0.6559839844703674 0.11082789301872253
vn 0.7268120050430298 0.6843348145484924 0.05856601148843765
vn -0.7465861439704895 -0.6559929251670837 0.11082623898983002
vn -0.7268118858337402 0.684335470199585 0.05856260657310486
vn -0.7268118858337402 0.684335470199585 0.05856260657310486
vn 0.5773677229881287 -0.5773562788963318 0.5773268938064575
vn 0.7724060416221619 0.6120830774307251 -0.169538214802742
vn -0.5773564577102661 -0.577361524105072 0.5773327946662903
vn -0.7724167704582214 0.6120703816413879 -0.16953527927398682
vn 0.7071085572242737 -0.0000015741701417937293 0.7071050405502319
vn 0.7268120050430298 0.6843348145484924 0.05856601148843765
vn -0.7724167704582214 0.6120703816413879 -0.16953527927398682
vn -0.7268118858337402 0.684335470199585 0.05856260657310486
vn 0.5773677229881287 -0.5773562788963318 0.5773268938064575
vn 0.7724060416221619 0.6120830774307251 -0.169538214802742
vn -0.08805724233388901 0.9873722791671753 -0.13168860971927643
vn 0.08806267380714417 0.9873717427253723 -0.13168877363204956
vn -0.707101047039032 0.00000025198391995218117 0.7071124911308289
vn -0.5773564577102661 -0.577361524105072 0.5773327946662903
vn 0.577347993850708 0.577366054058075 0.5773367881774902
vn 0.6516673564910889 0.7309824824333191 -0.20247052609920502
vn -0.6516653895378113 0.7309836745262146 -0.2024725377559662
vn 0.6516673564910889 0.7309824824333191 -0.20247052609920502
vn 0.577347993850708 0.577366054058075 0.5773367881774902
vn -0.5773499011993408 0.5773528218269348 0.5773481130599976
vn -0.3014967739582062 0.3015271723270416 0.9045335650444031
vn -0.3014967739582062 0.3015271723270416 0.9045335650444031
vn -0.08805724233388901 0.9873722791671753 -0.13168860971927643
vn -0.6516653895378113 0.7309836745262146 -0.2024725377559662
vn -0.6516661047935486 0.730985164642334 -0.2024645209312439
vn 0.6516638994216919 0.7309858798980713 -0.2024695873260498
vn -0.5773499011993408 0.5773528218269348 0.5773481130599976
vn 0.577347993850708 0.577366054058075 0.5773367881774902
vn -0.3014967739582062 0.3015271723270416 0.9045335650444031
vn -0.5773499011993408 0.5773528218269348 0.5773481130599976
vn 0.6516638994216919 0.7309858798980713 -0.2024695873260498
vn 0.08806267380714417 0.9873717427253723 -0.13168877363204956
vn 0.3015083074569702 0.30152007937431335 0.9045321941375732
vn 0.7071085572242737 -0.0000015741701417937293 0.7071050405502319
vn 0.5773481130599976 0.5773552060127258 0.577347457408905
vn 0.3015083074569702 0.30152007937431335 0.9045321941375732
vn 0.5773481130599976 0.5773552060127258 0.577347457408905
vn -0.5773612856864929 0.577357828617096 0.5773317217826843
vn -0.6516661047935486 0.730985164642334 -0.2024645209312439
vn 0.5773481130599976 0.5773552060127258 0.577347457408905
vn 0.3015083074569702 0.30152007937431335 0.9045321941375732
vn -0.5773612856864929 0.577357828617096 0.5773317217826843
vn 0.5773677229881287 -0.5773562788963318 0.5773268938064575
vn -0.5773612856864929 0.577357828617096 0.5773317217826843
vn -0.707101047039032 0.00000025198391995218117 0.7071124911308289
vn -0.5773564577102661 -0.577361524105072 0.5773327946662903
f 3/3/3 2/2/2 1/1/1
f 3/3/3 1/1/1 4/4/4
f 7/7/7 6/6/6 5/5/5
f 10/10/10 9/9/9 8/8/8
f 13/13/13 12/12/12 11/11/11
f 16/16/16 15/15/15 14/14/14
f 15/15/15 18/18/18 17/17/17
f 17/17/17 14/14/14 15/15/15
f 7/7/7 5/5/5 19/19/19
f 14/14/14 20/20/20 16/16/16
f 12/12/12 21/21/21 11/11/11
f 10/10/10 22/22/22 9/9/9
f 18/18/18 23/23/23 17/17/17
f 17/17/17 23/23/23 14/14/14
f 7/7/7 19/19/19 24/24/24
f 25/25/25 20/20/20 14/14/14
f 12/12/12 26/26/26 21/21/21
f 7/7/7 24/24/24 27/27/27
f 30/30/30 29/29/29 28/28/28
f 27/27/27 31/31/31 7/7/7
f 33/33/33 32/32/32 28/28/28
f 34/34/34 33/33/33 28/28/28
f 12/12/12 35/35/35 26/26/26
f 29/29/29 34/34/34 28/28/28
f 23/23/23 25/25/25 14/14/14
f 35/35/35 12/12/12 36/36/36
f 24/24/24 38/38/38 37/37/37
f 39/39/39 32/32/32 33/33/33
f 39/39/39 40/40/40 32/32/32
f 24/24/24 37/37/37 27/27/27
f 42/42/42 41/41/41 40/40/40
f 42/42/42 40/40/40 39/39/39
f 34/34/34 43/43/43 33/33/33
f 46/46/46 45/45/45 44/44/44
f 34/34/34 29/29/29 47/47/47
f 34/34/34 47/47/47 48/48/48
f 51/51/51 50/50/50 49/49/49
f 44/44/44 52/52/52 46/46/46
f 55/55/55 54/54/54 53/53/53
f 51/51/51 56/56/56 50/50/50
f 47/47/47 57/57/57 48/48/48
f 34/34/34 58/58/58 43/43/43
f 53/53/53 59/59/59 55/55/55
f 47/47/47 60/60/60 57/57/57
f 35/35/35 61/61/61 26/26/26
f 64/64/64 63/63/63 62/62/62
f 65/65/65 56/56/56 51/51/51
f 35/35/35 66/66/66 61/61/61
f 51/51/51 63/63/63 65/65/65
f 64/64/64 67/67/67 63/63/63
f 68/68/68 65/65/65 63/63/63
f 63/63/63 67/67/67 68/68/68
