# VPXTOOL table OBJ file
# VPXTOOL OBJ file
# numVerts: 10 numFaces: 33
o BM_Layer1
v 13.048419952392578 -55.82217788696289 -4.451416492462158
v 13.048419952392578 -55.82217788696289 -0.4631783366203308
v 46.254695892333984 -30.692720413208008 -0.4631783366203308
v -33.02505874633789 -32.03665542602539 -4.451416492462158
v 46.254695892333984 -30.692720413208008 -4.451416492462158
v -28.316043853759766 73.21063995361328 -4.451416492462158
v -33.02505874633789 -32.03665542602539 -0.4631783366203308
v 51.21830749511719 71.25801849365234 -0.4631783366203308
v -28.316043853759766 73.21063995361328 -0.4631783366203308
v 51.21830749511719 71.25801849365234 -4.451416492462158
vt 0.7882933020591736 0.9748427867889404
vt 0.7882506847381592 0.9754830002784729
vt 0.7949064373970032 0.9813959002494812
vt 0.7754330635070801 0.976730465888977
vt 0.794955849647522 0.9807584881782532
vt 0.769785463809967 0.9953216910362244
vt 0.7754029035568237 0.9773698449134827
vt 0.7898058891296387 0.9995236396789551
vt 0.7697604894638062 0.9959520101547241
vt 0.7898509502410889 0.9988951086997986
vn 0.37075284123420715 -0.4899158775806427 -0.7890023589134216
vn 0.6034485697746277 -0.7974019050598145 -0
vn 0.8842944502830505 -0.46692967414855957 -0
vn -0.6165386438369751 0.027585409581661224 -0.7868412733078003
vn 0.691656231880188 -0.36520615220069885 -0.6230859756469727
vn -0.5564980506896973 0.5964307188987732 -0.5784291625022888
vn -0.9990005493164063 0.04469766840338707 -0
vn 0.7325108051300049 0.6807554960250854 -0
vn -0.6821953654289246 0.7311699390411377 -0
vn 0.5987318158149719 0.5564467310905457 -0.5760965943336487
f 3/3/3 2/2/2 1/1/1
f 5/5/5 1/1/1 4/4/4
f 3/3/3 1/1/1 5/5/5
f 7/7/7 6/6/6 4/4/4
f 6/6/6 5/5/5 4/4/4
f 8/8/8 3/3/3 5/5/5
f 7/7/7 9/9/9 6/6/6
f 10/10/10 5/5/5 6/6/6
f 8/8/8 5/5/5 10/10/10
f 9/9/9 10/10/10 6/6/6
f 9/9/9 8/8/8 10/10/10
