# VPXTOOL table OBJ file
# VPXTOOL OBJ file
# numVerts: 140 numFaces: 204
o BM_LArm
v 8.35039234161377 9.508030891418457 -72.88787841796875
v 6.74114990234375 9.50814151763916 -76.33917999267578
v 11.450496673583984 9.508030891418457 -76.93648529052734
v 11.450496673583984 9.508030891418457 -76.93648529052734
v 11.450496673583984 9.508030891418457 -73.13648986816406
v 8.35039234161377 9.508030891418457 -72.88787841796875
v 6.74114990234375 9.50814151763916 -76.33917999267578
v 6.74114990234375 3.8080713748931885 -76.33917999267578
v 11.450496673583984 9.508030891418457 -76.93648529052734
v 11.450496673583984 9.508030891418457 -73.13648986816406
v 11.450496673583984 9.508030891418457 -76.93648529052734
v 11.450441360473633 3.8079609870910645 -76.93648529052734
v 6.74114990234375 9.50814151763916 -76.33917999267578
v 8.35039234161377 9.508030891418457 -72.88787841796875
v 6.0494160652160645 9.50814151763916 -71.1919937133789
v 11.450441360473633 3.8079609870910645 -76.93648529052734
v 6.0494160652160645 9.50814151763916 -71.1919937133789
v 2.7515316009521484 9.508030891418457 -73.09608459472656
v 6.74114990234375 9.50814151763916 -76.33917999267578
v 2.7515316009521484 9.508030891418457 -73.09608459472656
v 5.374549865722656 9.508030891418457 -69.3404769897461
v 2.7515316009521484 9.508030891418457 -73.09608459472656
v 6.0494160652160645 9.50814151763916 -71.1919937133789
v -6.0335693359375 3.8080713748931885 -76.93648529052734
v 11.450441360473633 3.8079609870910645 -76.93648529052734
v 6.74114990234375 3.8080713748931885 -76.33917999267578
v 11.450496673583984 9.508030891418457 -73.13648986816406
v 11.450441360473633 3.8079609870910645 -76.93648529052734
v 11.450441360473633 -3.7919485569000244 -76.93648529052734
v 5.374549865722656 9.508030891418457 -69.3404769897461
v 1.5664509534835815 9.508030891418457 -69.3404769897461
v 2.7515316009521484 9.508030891418457 -73.09608459472656
v 2.7515316009521484 3.8080713748931885 -73.09608459472656
v 1.5664509534835815 9.508030891418457 -69.3404769897461
v -6.0335693359375 3.8080713748931885 -76.93648529052734
v 6.74114990234375 3.8080713748931885 -76.33917999267578
v 2.7515316009521484 3.8080713748931885 -73.09608459472656
v -6.0335693359375 3.8080713748931885 -76.93648529052734
v -6.033541679382324 -3.7919485569000244 -76.93648529052734
v 11.450441360473633 3.8079609870910645 -76.93648529052734
v 1.5664509534835815 3.8079609870910645 -69.3404769897461
v -7.933574199676514 3.8080713748931885 -75.03788757324219
v -6.0335693359375 3.8080713748931885 -76.93648529052734
v -6.0335693359375 3.8080713748931885 -76.93648529052734
v 2.7515316009521484 3.8080713748931885 -73.09608459472656
v 1.5664509534835815 3.8079609870910645 -69.3404769897461
v 11.450441360473633 -3.7919485569000244 -76.93648529052734
v 1.5664509534835815 3.8079609870910645 -69.3404769897461
v -7.933574199676514 3.8080713748931885 -75.03788757324219
v 11.450441360473633 -3.7919485569000244 -76.93648529052734
v 11.450441360473633 -9.48903751373291 -73.13648986816406
v 11.450496673583984 9.508030891418457 -73.13648986816406
v 6.0494160652160645 9.50814151763916 -71.1919937133789
v 6.049470901489258 -9.48903751373291 -71.1919937133789
v 5.374549865722656 9.508030891418457 -69.3404769897461
v 6.741122245788574 -3.7918381690979004 -76.33917999267578
v 11.450441360473633 -3.7919485569000244 -76.93648529052734
v -6.033541679382324 -3.7919485569000244 -76.93648529052734
v -7.933574199676514 -3.7919485569000244 -75.03788757324219
v 11.450441360473633 -3.7919485569000244 -76.93648529052734
v 6.741122245788574 -3.7918381690979004 -76.33917999267578
v 11.450441360473633 -9.48903751373291 -76.93648529052734
v 2.7515316009521484 -3.7919485569000244 -73.09608459472656
v 6.741122245788574 -3.7918381690979004 -76.33917999267578
v -6.033541679382324 -3.7919485569000244 -76.93648529052734
v 1.5665613412857056 9.508030891418457 -46.532493591308594
v 2.7515316009521484 -3.7919485569000244 -73.09608459472656
v 6.74114990234375 -9.48903751373291 -76.33917999267578
v 11.450441360473633 -3.7919485569000244 -76.93648529052734
v 11.450441360473633 -9.48903751373291 -76.93648529052734
v 11.450441360473633 -9.48903751373291 -73.13648986816406
v 1.5664509534835815 -3.7920591831207275 -69.3404769897461
v -6.033541679382324 -3.7919485569000244 -76.93648529052734
v -7.933574199676514 -3.7919485569000244 -75.03788757324219
v 1.5664509534835815 -3.7920591831207275 -69.3404769897461
v 2.7515316009521484 -3.7919485569000244 -73.09608459472656
v -6.033541679382324 -3.7919485569000244 -76.93648529052734
v 5.374549865722656 -9.489148139953613 -69.3404769897461
v 1.5665613412857056 3.8079609870910645 -46.532493591308594
v 8.350447654724121 -9.48903751373291 -72.88787841796875
v 11.450441360473633 -9.48903751373291 -76.93648529052734
v 6.74114990234375 -9.48903751373291 -76.33917999267578
v 2.7515316009521484 -9.48903751373291 -73.09608459472656
v 11.450441360473633 -9.48903751373291 -73.13648986816406
v 1.5664509534835815 -3.7920591831207275 -69.3404769897461
v 1.5664509534835815 3.8079609870910645 -69.3404769897461
v -10.783443450927734 3.8080713748931885 -46.53248977661133
v -7.933574199676514 3.8080713748931885 -75.03788757324219
v 5.374632835388184 9.50814151763916 -46.532493591308594
v 6.049470901489258 -9.48903751373291 -71.1919937133789
v 2.7515316009521484 -9.48903751373291 -73.09608459472656
v 5.374549865722656 9.508030891418457 -69.3404769897461
v 5.374632835388184 9.50814151763916 -46.532493591308594
v 1.5665613412857056 9.508030891418457 -46.532493591308594
v 1.5664509534835815 -9.489148139953613 -69.3404769897461
v -10.783443450927734 -1.8919988870620728 -46.53248977661133
v 2.7515316009521484 -9.48903751373291 -73.09608459472656
v 5.374549865722656 -9.489148139953613 -69.3404769897461
v 6.049470901489258 -9.48903751373291 -71.1919937133789
v 1.5665613412857056 9.508030891418457 -46.532493591308594
v 5.374549865722656 -9.489148139953613 -69.3404769897461
v 2.7515316009521484 -9.48903751373291 -73.09608459472656
v 1.5664509534835815 -9.489148139953613 -69.3404769897461
v 1.5664509534835815 -3.7920591831207275 -69.3404769897461
v -7.933574199676514 -3.7919485569000244 -75.03788757324219
v -10.78347110748291 -3.7919485569000244 -46.53248977661133
v 1.5664509534835815 3.8079609870910645 -69.3404769897461
v 1.5665613412857056 3.8079609870910645 -46.532493591308594
v -10.783443450927734 3.8080713748931885 -46.53248977661133
v -10.783443450927734 3.8080713748931885 -46.53248977661133
v -10.783443450927734 1.9080111980438232 -46.53248977661133
v 1.5665613412857056 -9.489148139953613 -46.532493591308594
v 5.374549865722656 -9.489148139953613 -69.3404769897461
v 1.5664509534835815 -9.489148139953613 -69.3404769897461
v 1.5665613412857056 -9.489148139953613 -46.532493591308594
v 5.374632835388184 -9.489148139953613 -46.532493591308594
v -10.78347110748291 -3.7919485569000244 -46.53248977661133
v 1.5664509534835815 -3.7920591831207275 -69.3404769897461
v -10.78347110748291 -3.7919485569000244 -46.53248977661133
v 1.5665338039398193 -3.7919485569000244 -46.532493591308594
v 1.5665338039398193 -3.7919485569000244 -46.532493591308594
v 5.374632835388184 -9.489148139953613 -46.532493591308594
v 1.5665338039398193 1.9080111980438232 -46.532493591308594
v 1.5665338039398193 1.9080111980438232 9.675094604492188
v -10.783443450927734 1.9080111980438232 -46.53248977661133
v 1.5665338039398193 1.9080111980438232 -46.532493591308594
v 1.5665338039398193 -1.8919988870620728 -46.532493591308594
v 1.5665338039398193 1.9080111980438232 9.675094604492188
v 1.5665338039398193 -1.8919988870620728 9.675094604492188
v 1.5665338039398193 -1.8919988870620728 -46.532493591308594
v -10.783443450927734 -1.8919988870620728 -46.53248977661133
v -15.151451110839844 1.9000602960586548 13.47509479522705
v 1.5665338039398193 -1.8919988870620728 9.675094604492188
v 1.5665338039398193 1.9080111980438232 9.675094604492188
v -15.151451110839844 1.9000602960586548 13.47509479522705
v -10.783443450927734 1.9080111980438232 -46.53248977661133
v -15.151451110839844 -1.8999497890472412 13.47509479522705
v 1.5665338039398193 -1.8919988870620728 9.675094604492188
v -10.783443450927734 -1.8919988870620728 -46.53248977661133
v -15.151451110839844 -1.8999497890472412 13.47509479522705
vt 0.9585080146789551 0.40338224172592163
vt 0.9573428630828857 0.40327000617980957
vt 0.960231602191925 0.403020977973938
vt 0.960231602191925 0.403020977973938
vt 0.9604144096374512 0.4032263159751892
vt 0.9585080146789551 0.40338224172592163
vt 0.9573428630828857 0.40327000617980957
vt 0.9562127590179443 0.4025593400001526
vt 0.960231602191925 0.403020977973938
vt 0.9604144096374512 0.4032263159751892
vt 0.960231602191925 0.403020977973938
vt 0.9590989351272583 0.4023106098175049
vt 0.9573428630828857 0.40327000617980957
vt 0.9585080146789551 0.40338224172592163
vt 0.9571667909622192 0.4035794734954834
vt 0.9590989351272583 0.4023106098175049
vt 0.9571667909622192 0.4035794734954834
vt 0.9550312161445618 0.4036286473274231
vt 0.9573428630828857 0.40327000617980957
vt 0.9550312161445618 0.4036286473274231
vt 0.9568400979042053 0.40371018648147583
vt 0.9550312161445618 0.4036286473274231
vt 0.9571667909622192 0.4035794734954834
vt 0.9482659101486206 0.40311455726623535
vt 0.9590989351272583 0.4023106098175049
vt 0.9562127590179443 0.4025593400001526
vt 0.9604144096374512 0.4032263159751892
vt 0.9590989351272583 0.4023106098175049
vt 0.9575919508934021 0.4013655185699463
vt 0.9568400979042053 0.40371018648147583
vt 0.9544843435287476 0.40388524532318115
vt 0.9550312161445618 0.4036286473274231
vt 0.9539040327072144 0.40291815996170044
vt 0.9544843435287476 0.40388524532318115
vt 0.9482659101486206 0.40311455726623535
vt 0.9562127590179443 0.4025593400001526
vt 0.9539040327072144 0.40291815996170044
vt 0.9482659101486206 0.40311455726623535
vt 0.9467706084251404 0.40216749906539917
vt 0.9590989351272583 0.4023106098175049
vt 0.9533587694168091 0.40317535400390625
vt 0.9471861124038696 0.4033045768737793
vt 0.9482659101486206 0.40311455726623535
vt 0.9482659101486206 0.40311455726623535
vt 0.9539040327072144 0.40291815996170044
vt 0.9533587694168091 0.40317535400390625
vt 0.9575919508934021 0.4013655185699463
vt 0.9533587694168091 0.40317535400390625
vt 0.9471861124038696 0.4033045768737793
vt 0.9575919508934021 0.4013655185699463
vt 0.9566512107849121 0.40086597204208374
vt 0.9604144096374512 0.4032263159751892
vt 0.9571667909622192 0.4035794734954834
vt 0.9534144401550293 0.4012186527252197
vt 0.9568400979042053 0.40371018648147583
vt 0.9547091722488403 0.40161389112472534
vt 0.9575919508934021 0.4013655185699463
vt 0.9467706084251404 0.40216749906539917
vt 0.9456928372383118 0.40235769748687744
vt 0.9575919508934021 0.4013655185699463
vt 0.9547091722488403 0.40161389112472534
vt 0.9564647078514099 0.40065860748291016
vt 0.9524043202400208 0.4019729495048523
vt 0.9547091722488403 0.40161389112472534
vt 0.9467706084251404 0.40216749906539917
vt 0.9556121826171875 0.4051029682159424
vt 0.9524043202400208 0.4019729495048523
vt 0.9535844326019287 0.40090662240982056
vt 0.9575919508934021 0.4013655185699463
vt 0.9564647078514099 0.40065860748291016
vt 0.9566512107849121 0.40086597204208374
vt 0.9518613219261169 0.40223073959350586
vt 0.9467706084251404 0.40216749906539917
vt 0.9456928372383118 0.40235769748687744
vt 0.9518613219261169 0.40223073959350586
vt 0.9524043202400208 0.4019729495048523
vt 0.9467706084251404 0.40216749906539917
vt 0.9530906081199646 0.40135014057159424
vt 0.9544932246208191 0.4043967127799988
vt 0.9547501802444458 0.40102118253707886
vt 0.9564647078514099 0.40065860748291016
vt 0.9535844326019287 0.40090662240982056
vt 0.9512825012207031 0.40126585960388184
vt 0.9566512107849121 0.40086597204208374
vt 0.9518613219261169 0.40223073959350586
vt 0.9533587694168091 0.40317535400390625
vt 0.9469042420387268 0.40496116876602173
vt 0.9471861124038696 0.4033045768737793
vt 0.9579518437385559 0.4049288034439087
vt 0.9534144401550293 0.4012186527252197
vt 0.9512825012207031 0.40126585960388184
vt 0.9568400979042053 0.40371018648147583
vt 0.9579518437385559 0.4049288034439087
vt 0.9556121826171875 0.4051029682159424
vt 0.950741171836853 0.4015241861343384
vt 0.9457933902740479 0.4042551517486572
vt 0.9512825012207031 0.40126585960388184
vt 0.9530906081199646 0.40135014057159424
vt 0.9534144401550293 0.4012186527252197
vt 0.9556121826171875 0.4051029682159424
vt 0.9530906081199646 0.40135014057159424
vt 0.9512825012207031 0.40126585960388184
vt 0.950741171836853 0.4015241861343384
vt 0.9518613219261169 0.40223073959350586
vt 0.9456928372383118 0.40235769748687744
vt 0.9454235434532166 0.4040200710296631
vt 0.9533587694168091 0.40317535400390625
vt 0.9544932246208191 0.4043967127799988
vt 0.9469042420387268 0.40496116876602173
vt 0.9469042420387268 0.40496116876602173
vt 0.946533739566803 0.40472567081451416
vt 0.9518907070159912 0.4027540683746338
vt 0.9530906081199646 0.40135014057159424
vt 0.950741171836853 0.4015241861343384
vt 0.9518907070159912 0.4027540683746338
vt 0.954224169254303 0.4025809168815613
vt 0.9454235434532166 0.4040200710296631
vt 0.9518613219261169 0.40223073959350586
vt 0.9454235434532166 0.4040200710296631
vt 0.9530044198036194 0.40345698595046997
vt 0.9530044198036194 0.40345698595046997
vt 0.954224169254303 0.4025809168815613
vt 0.9541206359863281 0.40416157245635986
vt 0.9568573236465454 0.40710562467575073
vt 0.946533739566803 0.40472567081451416
vt 0.9541206359863281 0.40416157245635986
vt 0.9533762335777283 0.40369170904159546
vt 0.9568573236465454 0.40710562467575073
vt 0.956123411655426 0.4066416025161743
vt 0.9533762335777283 0.40369170904159546
vt 0.9457933902740479 0.4042551517486572
vt 0.9469459652900696 0.40805381536483765
vt 0.956123411655426 0.4066416025161743
vt 0.9568573236465454 0.40710562467575073
vt 0.9469459652900696 0.40805381536483765
vt 0.946533739566803 0.40472567081451416
vt 0.9462180733680725 0.407589316368103
vt 0.956123411655426 0.4066416025161743
vt 0.9457933902740479 0.4042551517486572
vt 0.9462180733680725 0.407589316368103
vn 0.000025971457944251597 1 0.000019948551198467612
vn 0.000025971457944251597 1 0.000019948551198467612
vn 0.000025971457944251597 1 0.000019948551198467612
vn 0 0.9999999403953552 -0
vn 0 0.9999999403953552 -0
vn 0 0.9999999403953552 -0
vn -0.3934248089790344 -0 -0.9193567037582397
vn -0.39342379570007324 0.00000035145043852935487 -0.919357180595398
vn 0.6611843109130859 -0.0000461798335891217 -0.7502234578132629
vn 0.7347625494003296 0.6653436422348022 0.1320679932832718
vn 1 -0.000009800756743061356 -0
vn 0.6362543702125549 -0.6117070317268372 0.47010087966918945
vn 0.000053268995543476194 1 0.0000070217138272710145
vn 0.000053268995543476194 1 0.0000070217138272710145
vn 0.000053268995543476194 1 0.0000070217138272710145
vn 0.6852849125862122 0.000026851585062104277 -0.7282751202583313
vn -0.00003107400698354468 1 -0.000004096055818081368
vn -0.00003107400698354468 1 -0.000004096055818081368
vn -0.00003107400698354468 1 -0.000004096055818081368
vn -0.8270454406738281 -0 -0.5621350407600403
vn -0.000056112443417077884 0.9999999403953552 0.00003885927435476333
vn -0.000056112443417077884 0.9999999403953552 0.00003885927435476333
vn -0.000056112443417077884 0.9999999403953552 0.00003885927435476333
vn 0.000006316061899269698 1 -0.00013511943689081818
vn 0.000006316061899269698 1 -0.00013511943689081818
vn 0.000006316061899269698 1 -0.00013511943689081818
vn 0.7347506880760193 0.5738089680671692 -0.36177992820739746
vn 0.636249840259552 -0.24827522039413452 -0.7304420471191406
vn 0.7282590866088867 -0.4462096095085144 0.520130455493927
vn 0 1 -0
vn 0 1 -0
vn 0 1 -0
vn -0.827054500579834 -0 -0.5621217489242554
vn -0.9883438348770142 -0 -0.15223826467990875
vn 0 1 -0
vn 0 1 -0
vn 0 1 -0
vn -0.38251468539237976 -0.00000132413913433993 -0.9239493012428284
vn -0.38250720500946045 -0.0000002863537247321801 -0.9239525198936462
vn 0.6853099465370178 -0.00003428207492106594 -0.7282515168190002
vn 0.000007264347004820593 1 0.000007138963155739475
vn 0.000007264347004820593 1 0.000007138963155739475
vn 0.000007264347004820593 1 0.000007138963155739475
vn -0.000011295803233224433 1 0.00002577684608695563
vn -0.000011295803233224433 1 0.00002577684608695563
vn -0.000011295803233224433 1 0.00002577684608695563
vn 0.6853099465370178 0.00003273803667980246 -0.7282515168190002
vn -0.9883447289466858 -0 -0.1522323042154312
vn -0.9005851149559021 0.004019041545689106 -0.4346611499786377
vn 0.7282480001449585 -0.5024895071983337 -0.46600341796875
vn 0.7347525358200073 -0.5379089713096619 -0.41327065229415894
vn 0.7347550392150879 0.4416637420654297 -0.5148477554321289
vn 0.9395337104797363 0.0000027101727937406395 0.34245648980140686
vn 0.9395262002944946 0.00000017828899956384703 0.34247687458992004
vn 0.984766960144043 0.000001285551206819946 0.17387957870960236
vn 0 -1 0.00018534112314227968
vn 0 -1 0.00018534112314227968
vn 0 -1 0.00018534112314227968
vn -0.9052976369857788 -0.007005170453339815 -0.4247201383113861
vn 0.6852866411209106 -0.00004291484583518468 -0.7282734513282776
vn -0.3934212028980255 -0.0000016910926206037402 -0.9193583726882935
vn 0.6611843109130859 0.0002515431842766702 -0.7502234578132629
vn 0.000009679793947725557 -0.9999999403953552 -0.000022089137928560376
vn 0.000009679793947725557 -0.9999999403953552 -0.000022089137928560376
vn 0.000009679793947725557 -0.9999999403953552 -0.000022089137928560376
vn 0 1 -0
vn -0.8270446062088013 -0.0000008296889859593648 -0.5621362328529358
vn -0.3934331238269806 -0.0000010404208978798124 -0.9193532466888428
vn 0.7282515168190002 0.2204316407442093 -0.6488910913467407
vn 0.6610665321350098 -0.7503272891044617 0.00003584399019018747
vn 0.7347559332847595 -0.6653406023979187 0.1321195662021637
vn -0.000007264306532306364 -1 -0.000007355254183494253
vn -0.000007264306532306364 -1 -0.000007355254183494253
vn -0.000007264306532306364 -1 -0.000007355254183494253
vn 0.000011295835975033697 -1 -0.00002581849548732862
vn 0.000011295835975033697 -1 -0.00002581849548732862
vn 0.000011295835975033697 -1 -0.00002581849548732862
vn 0.984766960144043 -0 0.17387935519218445
vn -1 -0 0.000004841729605686851
vn 0 -1 -0
vn 0 -1 -0
vn 0 -1 -0
vn -0.8270545601844788 -0 -0.5621216297149658
vn 0 -1 -0
vn -0.9883435964584351 -0.00000038252295553320437 -0.1522396206855774
vn 0.000010966643458232284 1 0.000001087612417904893
vn 0.000010966643458232284 1 0.000001087612417904893
vn 0.000010966643458232284 1 0.000001087612417904893
vn 1 -0 -0.0000036312969768914627
vn 0 -1 -0
vn 0 -1 -0
vn -0.000028998960260651074 1 -0.000004798660029337043
vn -0.000028998960260651074 1 -0.000004798660029337043
vn -0.000028998960260651074 1 -0.000004798660029337043
vn -0.9883446097373962 -0 -0.1522325724363327
vn -0.9958785176277161 0.005596877541393042 -0.09052485972642899
vn 0.000028448204830056056 -1 -0.00004941746374242939
vn 0.000028448204830056056 -1 -0.00004941746374242939
vn 0.000028448204830056056 -1 -0.00004941746374242939
vn -1 -0 0.000004841729605686851
vn 0 -1 -0.00002946868335129693
vn 0 -1 -0.00002946868335129693
vn 0 -1 -0.00002946868335129693
vn -0.000010966638910758775 -1 -0.000001087611963157542
vn -0.000010966638910758775 -1 -0.000001087611963157542
vn -0.000010966638910758775 -1 -0.000001087611963157542
vn 0.000008941708074416965 1 -0.00000000666716992725469
vn 0.000008941708074416965 1 -0.00000000666716992725469
vn 0.000008941708074416965 1 -0.00000000666716992725469
vn -0.9943342208862305 -0 -0.10629936307668686
vn -0.9954296946525574 0.00486831134185195 -0.09537356346845627
vn -1 -0.000004096939846931491 0.000003819909579760861
vn 0 -1 -0
vn 0 -1 -0
vn 0 -1 -0
vn 1 -0 -0.000003631296067396761
vn -0.9945337772369385 0.004861189518123865 -0.10430233180522919
vn 0 -1 0.000004854392500419635
vn 0 -1 0.000004854392500419635
vn 0 -1 0.000004854392500419635
vn -1 -0.000004853083282796433 0.0000036313190321379807
vn 0 -1 -0
vn 0.0005618619034066796 0.9999998211860657 -0.00012343267735559493
vn -0.0000896968922461383 0.9999998211860657 -0.0005682243499904871
vn 0.0005601336597464979 0.9999998211860657 -0.00013105227844789624
vn 1 -0 -0
vn 1 -0 -0
vn 1 -0 -0
vn 0.0002034321951214224 -0.9999999403953552 0.0002668737433850765
vn -0.0005618618451990187 -0.9999998211860657 0.000123432808322832
vn -0.0005239967722445726 -0.9999998211860657 0.00023738548043183982
vn -0.9987555742263794 0.000007721258043602575 -0.04987133666872978
vn 1 -0 -0
vn -0.0010153519688174129 0.9999995231628418 -0.000021516927517950535
vn -0.0007762226741760969 0.9999997615814209 0.00000944736530072987
vn -0.00017931617912836373 0.9999998211860657 0.0006055296980775893
vn -0.0004216260276734829 -0.9999998211860657 -0.0004923508386127651
vn 0.0007850535912439227 -0.9999997615814209 -0.0000512790575157851
vn -0.00011512869969010353 -1 -0.0001900048810057342
vn -0.9987580180168152 0.0000000914813043095819 -0.04982345551252365
f 3/3/3 2/2/2 1/1/1
f 6/6/6 5/5/5 4/4/4
f 9/9/9 8/8/8 7/7/7
f 12/12/12 11/11/11 10/10/10
f 15/15/15 14/14/14 13/13/13
f 9/9/9 16/16/16 8/8/8
f 19/19/19 18/18/18 17/17/17
f 8/8/8 20/20/20 7/7/7
f 23/23/23 22/22/22 21/21/21
f 26/26/26 25/25/25 24/24/24
f 29/29/29 28/28/28 27/27/27
f 32/32/32 31/31/31 30/30/30
f 8/8/8 33/33/33 20/20/20
f 33/33/33 34/34/34 20/20/20
f 37/37/37 36/36/36 35/35/35
f 40/40/40 39/39/39 38/38/38
f 43/43/43 42/42/42 41/41/41
f 46/46/46 45/45/45 44/44/44
f 40/40/40 47/47/47 39/39/39
f 33/33/33 48/48/48 34/34/34
f 49/49/49 38/38/38 39/39/39
f 52/52/52 51/51/51 50/50/50
f 55/55/55 54/54/54 53/53/53
f 58/58/58 57/57/57 56/56/56
f 49/49/49 39/39/39 59/59/59
f 62/62/62 61/61/61 60/60/60
f 65/65/65 64/64/64 63/63/63
f 31/31/31 66/66/66 30/30/30
f 68/68/68 67/67/67 61/61/61
f 62/62/62 68/68/68 61/61/61
f 71/71/71 70/70/70 69/69/69
f 74/74/74 73/73/73 72/72/72
f 77/77/77 76/76/76 75/75/75
f 55/55/55 78/78/78 54/54/54
f 79/79/79 34/34/34 48/48/48
f 82/82/82 81/81/81 80/80/80
f 68/68/68 83/83/83 67/67/67
f 81/81/81 84/84/84 80/80/80
f 83/83/83 85/85/85 67/67/67
f 88/88/88 87/87/87 86/86/86
f 89/89/89 78/78/78 55/55/55
f 90/90/90 82/82/82 80/80/80
f 91/91/91 82/82/82 90/90/90
f 94/94/94 93/93/93 92/92/92
f 83/83/83 95/95/95 85/85/85
f 49/49/49 59/59/59 96/96/96
f 99/99/99 98/98/98 97/97/97
f 79/79/79 100/100/100 34/34/34
f 103/103/103 102/102/102 101/101/101
f 106/106/106 105/105/105 104/104/104
f 109/109/109 108/108/108 107/107/107
f 111/111/111 110/110/110 49/49/49
f 96/96/96 111/111/111 49/49/49
f 85/85/85 95/95/95 112/112/112
f 115/115/115 114/114/114 113/113/113
f 89/89/89 116/116/116 78/78/78
f 59/59/59 117/117/117 96/96/96
f 120/120/120 119/119/119 118/118/118
f 85/85/85 112/112/112 121/121/121
f 113/113/113 122/122/122 115/115/115
f 125/125/125 124/124/124 123/123/123
f 128/128/128 127/127/127 126/126/126
f 131/131/131 130/130/130 129/129/129
f 96/96/96 132/132/132 111/111/111
f 128/128/128 133/133/133 127/127/127
f 136/136/136 135/135/135 134/134/134
f 139/139/139 138/138/138 137/137/137
f 96/96/96 140/140/140 132/132/132
