# VPXTOOL table OBJ file
# VPXTOOL OBJ file
# numVerts: 122 numFaces: 129
o LM_L_LSL_UnderPF
v -386.8782043457031 734.5565795898438 -8.554044723510742
v -386.8782043457031 734.5565795898438 -12.245689392089844
v -389.4901123046875 735.85546875 -12.245688438415527
v -385.1336975097656 731.9735107421875 -8.554046630859375
v -385.1336975097656 731.9735107421875 -12.24569034576416
v -386.8782043457031 734.5565795898438 -12.245689392089844
v -389.4901123046875 735.85546875 -8.554044723510742
v -386.8782043457031 734.5565795898438 -8.554044723510742
v -389.4901123046875 735.85546875 -12.245688438415527
v -386.8782043457031 734.5565795898438 -8.554044723510742
v -385.1336975097656 731.9735107421875 -8.554046630859375
v -386.8782043457031 734.5565795898438 -12.245689392089844
v -389.4901123046875 735.85546875 -8.554044723510742
v -389.4901123046875 735.85546875 -12.245688438415527
v -410.5735778808594 735.85546875 -12.245688438415527
v -384.7293395996094 728.7684936523438 -8.554046630859375
v -384.7293395996094 728.7684936523438 -12.24569034576416
v -385.1336975097656 731.9735107421875 -12.24569034576416
v -385.1336975097656 731.9735107421875 -8.554046630859375
v -386.8782043457031 734.5565795898438 -8.554044723510742
v -389.4901123046875 735.85546875 -8.554044723510742
v -385.1336975097656 731.9735107421875 -8.554046630859375
v -389.4901123046875 735.85546875 -8.554044723510742
v -384.7293395996094 728.7684936523438 -8.554046630859375
v -385.1336975097656 731.9735107421875 -8.554046630859375
v -410.5735778808594 735.85546875 -8.554044723510742
v -410.5735778808594 735.85546875 -12.245688438415527
v -413.18548583984375 734.5565795898438 -12.245689392089844
v -413.18548583984375 734.5565795898438 -8.554044723510742
v -384.7293395996094 728.7684936523438 -8.554046630859375
v -389.4901123046875 735.85546875 -8.554044723510742
v -415.3343200683594 728.7684936523438 -8.554046630859375
v -410.5735778808594 735.85546875 -8.554044723510742
v -410.5735778808594 735.85546875 -12.245688438415527
v -413.18548583984375 734.5565795898438 -8.554044723510742
v -415.3343200683594 728.7684936523438 -8.554046630859375
v -389.4901123046875 735.85546875 -8.554044723510742
v -410.5735778808594 735.85546875 -8.554044723510742
v -413.18548583984375 734.5565795898438 -12.245689392089844
v -414.92999267578125 731.9735107421875 -12.24569034576416
v -414.92999267578125 731.9735107421875 -8.554046630859375
v -413.18548583984375 734.5565795898438 -8.554044723510742
v -413.18548583984375 734.5565795898438 -12.245689392089844
v -414.92999267578125 731.9735107421875 -8.554046630859375
v -410.5735778808594 735.85546875 -8.554044723510742
v -413.18548583984375 734.5565795898438 -8.554044723510742
v -414.92999267578125 731.9735107421875 -8.554046630859375
v -414.92999267578125 731.9735107421875 -8.554046630859375
v -414.92999267578125 731.9735107421875 -12.24569034576416
v -415.3343200683594 728.7684936523438 -12.24569034576416
v -410.5735778808594 735.85546875 -8.554044723510742
v -414.92999267578125 731.9735107421875 -8.554046630859375
v -415.3343200683594 728.7684936523438 -8.554046630859375
v -415.3343200683594 728.7684936523438 -8.554046630859375
v -384.7293395996094 728.7684936523438 -8.554046630859375
v -394.71966552734375 669.7525634765625 -8.554043769836426
v -384.7293395996094 728.7684936523438 -12.24569034576416
v -384.7293395996094 728.7684936523438 -8.554046630859375
v -415.3343200683594 728.7684936523438 -8.554046630859375
v -405.343994140625 669.7525634765625 -8.554043769836426
v -415.3343200683594 728.7684936523438 -8.554046630859375
v -415.3343200683594 728.7684936523438 -12.24569034576416
v -405.343994140625 669.7525634765625 -8.554043769836426
v -394.71966552734375 669.7525634765625 -8.554043769836426
v -394.71966552734375 669.7525634765625 -12.245688438415527
v -384.7293395996094 728.7684936523438 -12.24569034576416
v -405.343994140625 669.7525634765625 -8.554043769836426
v -394.71966552734375 669.7525634765625 -8.554043769836426
v -384.7293395996094 728.7684936523438 -8.554046630859375
v -415.3343200683594 728.7684936523438 -12.24569034576416
v -405.343994140625 669.7525634765625 -12.245688438415527
v -405.343994140625 669.7525634765625 -8.554043769836426
v -395.8706359863281 667.3966674804688 -12.245687484741211
v -394.71966552734375 669.7525634765625 -12.245688438415527
v -394.71966552734375 669.7525634765625 -8.554043769836426
v -395.8706359863281 667.3966674804688 -8.55404281616211
v -395.8706359863281 667.3966674804688 -12.245687484741211
v -394.71966552734375 669.7525634765625 -8.554043769836426
v -397.72113037109375 665.6801147460938 -12.245686531066895
v -395.8706359863281 667.3966674804688 -12.245687484741211
v -395.8706359863281 667.3966674804688 -8.55404281616211
v -405.343994140625 669.7525634765625 -8.554043769836426
v -405.343994140625 669.7525634765625 -12.245688438415527
v -404.1930236816406 667.3966674804688 -12.245687484741211
v -405.343994140625 669.7525634765625 -8.554043769836426
v -395.8706359863281 667.3966674804688 -8.55404281616211
v -394.71966552734375 669.7525634765625 -8.554043769836426
v -397.72113037109375 665.6801147460938 -8.55404281616211
v -397.72113037109375 665.6801147460938 -12.245686531066895
v -395.8706359863281 667.3966674804688 -8.55404281616211
v -400.0318298339844 665.096923828125 -8.55404281616211
v -400.0318298339844 665.096923828125 -12.245686531066895
v -397.72113037109375 665.6801147460938 -12.245686531066895
v -404.1930236816406 667.3966674804688 -8.55404281616211
v -404.1930236816406 667.3966674804688 -12.245687484741211
v -402.342529296875 665.6801147460938 -12.245686531066895
v -402.342529296875 665.6801147460938 -8.55404281616211
v -402.342529296875 665.6801147460938 -12.245686531066895
v -400.0318298339844 665.096923828125 -12.245686531066895
v -404.1930236816406 667.3966674804688 -8.55404281616211
v -405.343994140625 669.7525634765625 -8.554043769836426
v -404.1930236816406 667.3966674804688 -12.245687484741211
v -397.72113037109375 665.6801147460938 -8.55404281616211
v -400.0318298339844 665.096923828125 -8.55404281616211
v -397.72113037109375 665.6801147460938 -12.245686531066895
v -404.1930236816406 667.3966674804688 -8.55404281616211
v -395.8706359863281 667.3966674804688 -8.55404281616211
v -405.343994140625 669.7525634765625 -8.554043769836426
v -404.1930236816406 667.3966674804688 -8.55404281616211
v -397.72113037109375 665.6801147460938 -8.55404281616211
v -395.8706359863281 667.3966674804688 -8.55404281616211
v -402.342529296875 665.6801147460938 -8.55404281616211
v -404.1930236816406 667.3966674804688 -8.55404281616211
v -402.342529296875 665.6801147460938 -12.245686531066895
v -400.0318298339844 665.096923828125 -8.55404281616211
v -402.342529296875 665.6801147460938 -8.55404281616211
v -400.0318298339844 665.096923828125 -12.245686531066895
v -397.72113037109375 665.6801147460938 -8.55404281616211
v -404.1930236816406 667.3966674804688 -8.55404281616211
v -402.342529296875 665.6801147460938 -8.55404281616211
v -402.342529296875 665.6801147460938 -8.55404281616211
v -400.0318298339844 665.096923828125 -8.55404281616211
vt 0.109377920627594 0.33409184217453003
vt 0.10918106883764267 0.33372604846954346
vt 0.10800214111804962 0.33409619331359863
vt 0.11021663248538971 0.333357036113739
vt 0.11002077907323837 0.3329905867576599
vt 0.10918106883764267 0.33372604846954346
vt 0.10820036381483078 0.3344615697860718
vt 0.109377920627594 0.33409184217453003
vt 0.10800214111804962 0.33409619331359863
vt 0.109377920627594 0.33409184217453003
vt 0.11021663248538971 0.333357036113739
vt 0.10918106883764267 0.33372604846954346
vt 0.10820036381483078 0.3344615697860718
vt 0.10800214111804962 0.33409619331359863
vt 0.09880906343460083 0.33409619331359863
vt 0.11049051582813263 0.3324461579322815
vt 0.11029509454965591 0.3320789337158203
vt 0.11002077907323837 0.3329905867576599
vt 0.11021663248538971 0.333357036113739
vt 0.109377920627594 0.33409184217453003
vt 0.10820036381483078 0.3344615697860718
vt 0.11021663248538971 0.333357036113739
vt 0.10820036381483078 0.3344615697860718
vt 0.11049051582813263 0.3324461579322815
vt 0.11021663248538971 0.333357036113739
vt 0.09901748597621918 0.3344615697860718
vt 0.09880906343460083 0.33409619331359863
vt 0.09771282970905304 0.33372604846954346
vt 0.09792240709066391 0.33409184217453003
vt 0.11049051582813263 0.3324461579322815
vt 0.10820036381483078 0.3344615697860718
vt 0.0971769317984581 0.3324461579322815
vt 0.09901748597621918 0.3344615697860718
vt 0.09880906343460083 0.33409619331359863
vt 0.09792240709066391 0.33409184217453003
vt 0.0971769317984581 0.3324461579322815
vt 0.10820036381483078 0.3344615697860718
vt 0.09901748597621918 0.3344615697860718
vt 0.09771282970905304 0.33372604846954346
vt 0.09703738987445831 0.3329905867576599
vt 0.09724763035774231 0.333357036113739
vt 0.09792240709066391 0.33409184217453003
vt 0.09771282970905304 0.33372604846954346
vt 0.09724763035774231 0.333357036113739
vt 0.09901748597621918 0.3344615697860718
vt 0.09792240709066391 0.33409184217453003
vt 0.09724763035774231 0.333357036113739
vt 0.09724763035774231 0.333357036113739
vt 0.09703738987445831 0.3329905867576599
vt 0.09696674346923828 0.3320789337158203
vt 0.09901748597621918 0.3344615697860718
vt 0.09724763035774231 0.333357036113739
vt 0.0971769317984581 0.3324461579322815
vt 0.0971769317984581 0.3324461579322815
vt 0.11049051582813263 0.3324461579322815
vt 0.10797210037708282 0.3158528804779053
vt 0.11029509454965591 0.3320789337158203
vt 0.11049051582813263 0.3324461579322815
vt 0.0971769317984581 0.3324461579322815
vt 0.10339716076850891 0.3158528804779053
vt 0.0971769317984581 0.3324461579322815
vt 0.09696674346923828 0.3320789337158203
vt 0.10339716076850891 0.3158528804779053
vt 0.10797210037708282 0.3158528804779053
vt 0.10777589678764343 0.3154711127281189
vt 0.11029509454965591 0.3320789337158203
vt 0.10339716076850891 0.3158528804779053
vt 0.10797210037708282 0.3158528804779053
vt 0.11049051582813263 0.3324461579322815
vt 0.09696674346923828 0.3320789337158203
vt 0.10319593548774719 0.3154711127281189
vt 0.10339716076850891 0.3158528804779053
vt 0.10735227912664413 0.31481504440307617
vt 0.10777589678764343 0.3154711127281189
vt 0.10797210037708282 0.3158528804779053
vt 0.10754887759685516 0.3151974081993103
vt 0.10735227912664413 0.31481504440307617
vt 0.10797210037708282 0.3158528804779053
vt 0.10660792142152786 0.31433749198913574
vt 0.10735227912664413 0.31481504440307617
vt 0.10754887759685516 0.3151974081993103
vt 0.10339716076850891 0.3158528804779053
vt 0.10319593548774719 0.3154711127281189
vt 0.1037660762667656 0.31481504440307617
vt 0.10339716076850891 0.3158528804779053
vt 0.10754887759685516 0.3151974081993103
vt 0.10797210037708282 0.3158528804779053
vt 0.10680528730154037 0.3147202134132385
vt 0.10660792142152786 0.31433749198913574
vt 0.10754887759685516 0.3151974081993103
vt 0.10582904517650604 0.31455814838409424
vt 0.10563062876462936 0.3141753077507019
vt 0.10660792142152786 0.31433749198913574
vt 0.1039666160941124 0.3151974081993103
vt 0.1037660762667656 0.31481504440307617
vt 0.10461711883544922 0.31433749198913574
vt 0.10481666028499603 0.3147202134132385
vt 0.10461711883544922 0.31433749198913574
vt 0.10563062876462936 0.3141753077507019
vt 0.1039666160941124 0.3151974081993103
vt 0.10339716076850891 0.3158528804779053
vt 0.1037660762667656 0.31481504440307617
vt 0.10680528730154037 0.3147202134132385
vt 0.10582904517650604 0.31455814838409424
vt 0.10660792142152786 0.31433749198913574
vt 0.1039666160941124 0.3151974081993103
vt 0.10754887759685516 0.3151974081993103
vt 0.10339716076850891 0.3158528804779053
vt 0.1039666160941124 0.3151974081993103
vt 0.10680528730154037 0.3147202134132385
vt 0.10754887759685516 0.3151974081993103
vt 0.10481666028499603 0.3147202134132385
vt 0.1039666160941124 0.3151974081993103
vt 0.10461711883544922 0.31433749198913574
vt 0.10582904517650604 0.31455814838409424
vt 0.10481666028499603 0.3147202134132385
vt 0.10563062876462936 0.3141753077507019
vt 0.10680528730154037 0.3147202134132385
vt 0.1039666160941124 0.3151974081993103
vt 0.10481666028499603 0.3147202134132385
vt 0.10481666028499603 0.3147202134132385
vt 0.10582904517650604 0.31455814838409424
vn -0.44527575373649597 -0.8953934907913208 -0
vn -0.44527575373649597 -0.8953934907913208 -0
vn -0.44527575373649597 -0.8953934907913208 -0
vn -0.8287078738212585 -0.5596814155578613 -0
vn -0.8287078738212585 -0.5596814155578613 -0
vn -0.8287078738212585 -0.5596814155578613 -0
vn -0.4452684223651886 -0.8953970670700073 -0
vn -0.4452684223651886 -0.8953970670700073 -0
vn -0.4452684223651886 -0.8953970670700073 -0
vn -0.8287132978439331 -0.5596733093261719 -0
vn -0.8287132978439331 -0.5596733093261719 -0
vn -0.8287132978439331 -0.5596733093261719 -0
vn 0 -0.9999999403953552 -0
vn 0 -0.9999999403953552 -0
vn 0 -0.9999999403953552 -0
vn -0.9921355247497559 -0.12516851723194122 -0
vn -0.9921355247497559 -0.12516851723194122 -0
vn -0.9921355247497559 -0.12516851723194122 -0
vn 0.0000006967670174162777 0.0000010058553243652568 -1
vn 0.0000006967670174162777 0.0000010058553243652568 -1
vn 0.0000006967670174162777 0.0000010058553243652568 -1
vn -0.9921355247497559 -0.12516851723194122 -0
vn -0.0000010076744274556404 -0.000000056298826933698365 -1
vn -0.0000010076744274556404 -0.000000056298826933698365 -1
vn -0.0000010076744274556404 -0.000000056298826933698365 -1
vn 0 -0.9999999403953552 -0
vn 0.4452725350856781 -0.8953952193260193 -0
vn 0.4452725350856781 -0.8953952193260193 -0
vn 0.4452725350856781 -0.8953952193260193 -0
vn 0 0.00000024346860527657554 -1
vn 0 0.00000024346860527657554 -1
vn 0 0.00000024346860527657554 -1
vn 0.44527584314346313 -0.895393431186676 -0
vn 0.44527584314346313 -0.895393431186676 -0
vn 0.44527584314346313 -0.895393431186676 -0
vn 0 0.0000002434704526876885 -1
vn 0 0.0000002434704526876885 -1
vn 0 0.0000002434704526876885 -1
vn 0.8287124633789063 -0.5596745610237122 -0
vn 0.8287124633789063 -0.5596745610237122 -0
vn 0.8287124633789063 -0.5596745610237122 -0
vn 0.8287079930305481 -0.5596813559532166 -0
vn 0.8287079930305481 -0.5596813559532166 -0
vn 0.8287079930305481 -0.5596813559532166 -0
vn -0.0000010451038860992412 0.0000010058104180643568 -1
vn -0.0000010451038860992412 0.0000010058104180643568 -1
vn -0.0000010451038860992412 0.0000010058104180643568 -1
vn 0.9921355247497559 -0.12516851723194122 -0
vn 0.9921355247497559 -0.12516851723194122 -0
vn 0.9921355247497559 -0.12516851723194122 -0
vn 0.000000503820956510026 -0.0000000562970114970085 -0.9999999403953552
vn 0.000000503820956510026 -0.0000000562970114970085 -0.9999999403953552
vn 0.000000503820956510026 -0.0000000562970114970085 -0.9999999403953552
vn 0.9921355247497559 -0.12516851723194122 -0
vn -0.9859727025032043 0.16690675914287567 -0
vn -0.9859727025032043 0.16690675914287567 -0
vn -0.9859727025032043 0.16690675914287567 -0
vn 0 -0.00000004385609031487547 -1
vn 0 -0.00000004385609031487547 -1
vn 0 -0.00000004385609031487547 -1
vn 0.98597252368927 0.16690771281719208 -0
vn 0.98597252368927 0.16690771281719208 -0
vn 0.98597252368927 0.16690771281719208 -0
vn -0.9859725832939148 0.1669076532125473 -0
vn -0.9859725832939148 0.1669076532125473 -0
vn -0.9859725832939148 0.1669076532125473 -0
vn 0 -0.00000004385603347145661 -0.9999999403953552
vn 0 -0.00000004385603347145661 -0.9999999403953552
vn 0 -0.00000004385603347145661 -0.9999999403953552
vn 0.9859725832939148 0.16690756380558014 -0
vn 0.9859725832939148 0.16690756380558014 -0
vn 0.9859725832939148 0.16690756380558014 -0
vn -0.898504376411438 0.4389646351337433 -0
vn -0.898504376411438 0.4389646351337433 -0
vn -0.898504376411438 0.4389646351337433 -0
vn -0.898499608039856 0.43897441029548645 -0
vn -0.898499608039856 0.43897441029548645 -0
vn -0.898499608039856 0.43897441029548645 -0
vn -0.6800769567489624 0.733140766620636 -0
vn -0.6800769567489624 0.733140766620636 -0
vn -0.6800769567489624 0.733140766620636 -0
vn 0.8985077738761902 0.43895775079727173 -0
vn 0.8985077738761902 0.43895775079727173 -0
vn 0.8985077738761902 0.43895775079727173 -0
vn 0 -0.00000036618794752030226 -1
vn 0 -0.00000036618794752030226 -1
vn 0 -0.00000036618794752030226 -1
vn -0.680060088634491 0.7331563830375671 -0
vn -0.680060088634491 0.7331563830375671 -0
vn -0.680060088634491 0.7331563830375671 -0
vn -0.24471046030521393 0.9695962071418762 -0
vn -0.24471046030521393 0.9695962071418762 -0
vn -0.24471046030521393 0.9695962071418762 -0
vn 0.6800707578659058 0.7331464290618896 -0
vn 0.6800707578659058 0.7331464290618896 -0
vn 0.6800707578659058 0.7331464290618896 -0
vn 0.24471046030521393 0.9695962071418762 -0
vn 0.24471046030521393 0.9695962071418762 -0
vn 0.24471046030521393 0.9695962071418762 -0
vn 0.8985036611557007 0.43896597623825073 -0
vn 0.8985036611557007 0.43896597623825073 -0
vn 0.8985036611557007 0.43896597623825073 -0
vn -0.2447105199098587 0.9695961475372314 -0
vn -0.2447105199098587 0.9695961475372314 -0
vn -0.2447105199098587 0.9695961475372314 -0
vn 0 -0.0000003662018173145043 -1
vn 0 -0.0000003662018173145043 -1
vn 0 -0.0000003662018173145043 -1
vn 0 -0 -1
vn 0 -0 -1
vn 0 -0 -1
vn 0.680060088634491 0.7331563830375671 -0
vn 0.680060088634491 0.7331563830375671 -0
vn 0.680060088634491 0.7331563830375671 -0
vn 0.2447105199098587 0.9695961475372314 -0
vn 0.2447105199098587 0.9695961475372314 -0
vn 0.2447105199098587 0.9695961475372314 -0
vn 0 -0 -0.9999999403953552
vn 0 -0 -0.9999999403953552
vn 0 -0 -0.9999999403953552
vn 0 -0 -1
vn 0 -0 -1
f 3/3/3 2/2/2 1/1/1
f 6/6/6 5/5/5 4/4/4
f 9/9/9 8/8/8 7/7/7
f 12/12/12 11/11/11 10/10/10
f 15/15/15 14/14/14 13/13/13
f 18/18/18 17/17/17 16/16/16
f 21/21/21 20/20/20 19/19/19
f 18/18/18 16/16/16 22/22/22
f 25/25/25 24/24/24 23/23/23
f 15/15/15 13/13/13 26/26/26
f 29/29/29 28/28/28 27/27/27
f 32/32/32 31/31/31 30/30/30
f 35/35/35 34/34/34 33/33/33
f 38/38/38 37/37/37 36/36/36
f 41/41/41 40/40/40 39/39/39
f 44/44/44 43/43/43 42/42/42
f 47/47/47 46/46/46 45/45/45
f 50/50/50 49/49/49 48/48/48
f 53/53/53 52/52/52 51/51/51
f 50/50/50 48/48/48 54/54/54
f 57/57/57 56/56/56 55/55/55
f 60/60/60 59/59/59 58/58/58
f 63/63/63 62/62/62 61/61/61
f 66/66/66 65/65/65 64/64/64
f 69/69/69 68/68/68 67/67/67
f 72/72/72 71/71/71 70/70/70
f 75/75/75 74/74/74 73/73/73
f 78/78/78 77/77/77 76/76/76
f 81/81/81 80/80/80 79/79/79
f 84/84/84 83/83/83 82/82/82
f 87/87/87 86/86/86 85/85/85
f 90/90/90 89/89/89 88/88/88
f 93/93/93 92/92/92 91/91/91
f 96/96/96 95/95/95 94/94/94
f 99/99/99 98/98/98 97/97/97
f 102/102/102 101/101/101 100/100/100
f 105/105/105 104/104/104 103/103/103
f 108/108/108 107/107/107 106/106/106
f 111/111/111 110/110/110 109/109/109
f 114/114/114 113/113/113 112/112/112
f 117/117/117 116/116/116 115/115/115
f 120/120/120 119/119/119 118/118/118
f 110/110/110 122/122/122 121/121/121
