# VPXTOOL table OBJ file
# VPXTOOL OBJ file
# numVerts: 115 numFaces: 144
o LM_L_LCWiz_Playfield
v -178.83474731445313 -31.28153419494629 0.000001725470269775542
v -178.337158203125 -32.143218994140625 0.000001725470269775542
v -225.61459350585938 196.58743286132813 0.000000862735134887771
v -179.6965789794922 -30.784046173095703 0.000001725470269775542
v -178.83474731445313 -31.28153419494629 0.000001725470269775542
v -226.88531494140625 196.58810424804688 0.000000862735134887771
v -305.9726867675781 54.562957763671875 -0
v -179.6965789794922 -30.784046173095703 0.000001725470269775542
v -227.3162384033203 196.8367919921875 0.000000862735134887771
v -307.5216064453125 55.98286819458008 -0
v -305.9726867675781 54.562957763671875 -0
v -290.45428466796875 239.51028442382813 -0
v -178.337158203125 -32.143218994140625 0.000001725470269775542
v -95.88261413574219 109.65531921386719 0.000001294102730753366
v -225.02291870117188 197.1791229248047 0.000000862735134887771
v -227.3162384033203 196.8367919921875 0.000000862735134887771
v -179.6965789794922 -30.784046173095703 0.000001725470269775542
v -226.88531494140625 196.58810424804688 0.000000862735134887771
v -225.61459350585938 196.58743286132813 0.000000862735134887771
v -178.337158203125 -32.143218994140625 0.000001725470269775542
v -225.02291870117188 197.1791229248047 0.000000862735134887771
v -226.88531494140625 196.58810424804688 0.000000862735134887771
v -178.83474731445313 -31.28153419494629 0.000001725470269775542
v -225.86338806152344 197.01834106445313 0.000000862735134887771
v -225.86338806152344 197.01834106445313 0.000000862735134887771
v -178.83474731445313 -31.28153419494629 0.000001725470269775542
v -225.61459350585938 196.58743286132813 0.000000862735134887771
v -290.45428466796875 239.51028442382813 -0
v -305.9726867675781 54.562957763671875 -0
v -227.3162384033203 196.8367919921875 0.000000862735134887771
v -291.2287292480469 240.22024536132813 -0
v -95.88261413574219 109.65531921386719 0.000001294102730753366
v -119.22549438476563 224.31643676757813 0.000000862735134887771
v -225.02291870117188 197.1791229248047 0.000000862735134887771
v -13.428078651428223 251.45375061035156 0.000000862735134887771
v -119.22549438476563 224.31643676757813 0.000000862735134887771
v -95.88261413574219 109.65531921386719 0.000001294102730753366
v -95.88261413574219 109.65531921386719 0.000001294102730753366
v -13.428023338317871 250.95614624023438 0.000000862735134887771
v -13.428078651428223 251.45375061035156 0.000000862735134887771
v -226.88531494140625 196.58810424804688 0.000000862735134887771
v -274.9359130859375 424.4576110839844 -0
v -227.3162384033203 196.8367919921875 0.000000862735134887771
v -274.9359130859375 424.4576110839844 -0
v -272.8920593261719 425.3182067871094 -0
v -225.02291870117188 197.1791229248047 0.000000862735134887771
v -272.8920593261719 425.3182067871094 -0
v -225.61459350585938 196.58743286132813 0.000000862735134887771
v -142.56837463378906 338.9775390625 0.0000004313675674438855
v -225.02291870117188 197.1791229248047 0.000000862735134887771
v -290.45428466796875 239.51028442382813 -0
v -227.3162384033203 196.8367919921875 0.000000862735134887771
v -274.9359130859375 424.4576110839844 -0
v -274.9359130859375 424.4576110839844 -0
v -300.3711242675781 243.8990020751953 -0
v -301.44683837890625 243.8990020751953 -0
v -300.3711242675781 243.8990020751953 -0
v -274.9359130859375 424.4576110839844 -0
v -142.56837463378906 338.9775390625 0.0000004313675674438855
v -119.22549438476563 224.31643676757813 0.000000862735134887771
v -13.428078651428223 251.45375061035156 0.000000862735134887771
v -225.02291870117188 197.1791229248047 0.000000862735134887771
v -142.56837463378906 338.9775390625 0.0000004313675674438855
v -271.70867919921875 426.5013427734375 -0
v -225.86338806152344 197.01834106445313 0.000000862735134887771
v -272.8920593261719 425.3182067871094 -0
v -274.9359130859375 424.4576110839844 -0
v -225.02291870117188 197.1791229248047 0.000000862735134887771
v -271.70867919921875 426.5013427734375 -0
v -272.8920593261719 425.3182067871094 -0
v -277.0873107910156 424.4576110839844 -0
v 69.02648162841797 393.0033874511719 0.0000004313675674438855
v -272.8920593261719 425.3182067871094 23.52941131591797
v -274.9359130859375 424.4576110839844 23.52941131591797
v -274.9359130859375 424.4576110839844 -0
v -271.70867919921875 426.5013427734375 23.52941131591797
v -272.8920593261719 425.3182067871094 23.52941131591797
v -272.8920593261719 425.3182067871094 -0
v -266.97589111328125 439.8397521972656 23.52941131591797
v -271.70867919921875 426.5013427734375 23.52941131591797
v -271.70867919921875 426.5013427734375 -0
v -60.11383819580078 480.7759704589844 -0
v -274.9359130859375 424.4576110839844 -0
v -274.9359130859375 424.4576110839844 23.52941131591797
v -277.0873107910156 424.4576110839844 -0
v -272.8920593261719 425.3182067871094 -0
v -271.70867919921875 426.5013427734375 -0
v -271.70867919921875 426.5013427734375 23.52941131591797
v -272.8920593261719 425.3182067871094 -0
v 69.02648162841797 393.0033874511719 0.0000004313675674438855
v 69.02648162841797 393.2521667480469 0.0000004313675674438855
v -13.428078651428223 251.45375061035156 0.000000862735134887771
v -266.97589111328125 439.8397521972656 -0
v -266.97589111328125 439.8397521972656 23.52941131591797
v -271.70867919921875 426.5013427734375 -0
v -142.56837463378906 338.9775390625 0.0000004313675674438855
v -165.9112548828125 453.638671875 -0
v -271.70867919921875 426.5013427734375 -0
v -13.428078651428223 251.45375061035156 0.000000862735134887771
v 69.02648162841797 393.2521667480469 0.0000004313675674438855
v -60.11383819580078 480.7759704589844 -0
v -266.97589111328125 439.8397521972656 -0
v -271.70867919921875 426.5013427734375 -0
v -243.7411651611328 470.8194885253906 -0
v -271.70867919921875 426.5013427734375 -0
v -241.9124755859375 473.0784606933594 -0
v -243.7411651611328 470.8194885253906 -0
v -165.9112548828125 453.638671875 -0
v -60.11383819580078 480.7759704589844 -0
v -60.11383819580078 480.7759704589844 -0
v -45.21574020385742 504.0645751953125 -0
v 69.02648162841797 393.2521667480469 0.0000004313675674438855
v 45.68355178833008 507.9132995605469 -0
v -60.11383819580078 480.7759704589844 -0
v 45.68355178833008 507.9132995605469 -0
vt 0.7943400740623474 0.12944161891937256
vt 0.794479250907898 0.12924569845199585
vt 0.77965247631073 0.18316739797592163
vt 0.7941063642501831 0.12955474853515625
vt 0.7943400740623474 0.12944161891937256
vt 0.7793008685112 0.18316751718521118
vt 0.7593060731887817 0.14922934770584106
vt 0.7941063642501831 0.12955474853515625
vt 0.7791790962219238 0.18322831392288208
vt 0.7588685154914856 0.1495611071586609
vt 0.7593060731887817 0.14922934770584106
vt 0.761154294013977 0.19373154640197754
vt 0.794479250907898 0.12924569845199585
vt 0.8159114718437195 0.16221249103546143
vt 0.7798102498054504 0.18331199884414673
vt 0.7791790962219238 0.18322831392288208
vt 0.7941063642501831 0.12955474853515625
vt 0.7793008685112 0.18316751718521118
vt 0.77965247631073 0.18316739797592163
vt 0.794479250907898 0.12924569845199585
vt 0.7798102498054504 0.18331199884414673
vt 0.7793008685112 0.18316751718521118
vt 0.7943400740623474 0.12944161891937256
vt 0.7795792818069458 0.18327271938323975
vt 0.7795792818069458 0.18327271938323975
vt 0.7943400740623474 0.12944161891937256
vt 0.77965247631073 0.18316739797592163
vt 0.761154294013977 0.19373154640197754
vt 0.7593060731887817 0.14922934770584106
vt 0.7791790962219238 0.18322831392288208
vt 0.7609291672706604 0.19390755891799927
vt 0.8159114718437195 0.16221249103546143
vt 0.8089420795440674 0.1899753212928772
vt 0.7798102498054504 0.18331199884414673
vt 0.8383305668830872 0.19669729471206665
vt 0.8089420795440674 0.1899753212928772
vt 0.8159114718437195 0.16221249103546143
vt 0.8159114718437195 0.16221249103546143
vt 0.8383309245109558 0.19657349586486816
vt 0.8383305668830872 0.19669729471206665
vt 0.7793008685112 0.18316751718521118
vt 0.7631166577339172 0.24098366498947144
vt 0.7791790962219238 0.18322831392288208
vt 0.7631166577339172 0.24098366498947144
vt 0.7636924982070923 0.24121034145355225
vt 0.7798102498054504 0.18331199884414673
vt 0.7636924982070923 0.24121034145355225
vt 0.77965247631073 0.18316739797592163
vt 0.8017094135284424 0.2187865972518921
vt 0.7798102498054504 0.18331199884414673
vt 0.761154294013977 0.19373154640197754
vt 0.7791790962219238 0.18322831392288208
vt 0.7631166577339172 0.24098366498947144
vt 0.7631166577339172 0.24098366498947144
vt 0.758331835269928 0.19481998682022095
vt 0.758031964302063 0.19481998682022095
vt 0.758331835269928 0.19481998682022095
vt 0.7631166577339172 0.24098366498947144
vt 0.8017094135284424 0.2187865972518921
vt 0.8089420795440674 0.1899753212928772
vt 0.8383305668830872 0.19669729471206665
vt 0.7798102498054504 0.18331199884414673
vt 0.8017094135284424 0.2187865972518921
vt 0.7640170454978943 0.24152213335037231
vt 0.7795792818069458 0.18327271938323975
vt 0.7636924982070923 0.24121034145355225
vt 0.7631166577339172 0.24098366498947144
vt 0.7798102498054504 0.18331199884414673
vt 0.7640170454978943 0.24152213335037231
vt 0.7636924982070923 0.24121034145355225
vt 0.7624987363815308 0.24098366498947144
vt 0.8618054986000061 0.23274248838424683
vt 0.7642213702201843 0.2438678741455078
vt 0.7636494636535645 0.24364233016967773
vt 0.7631166577339172 0.24098366498947144
vt 0.764543890953064 0.24417805671691895
vt 0.7642213702201843 0.2438678741455078
vt 0.7636924982070923 0.24121034145355225
vt 0.76572585105896 0.24768340587615967
vt 0.764543890953064 0.24417805671691895
vt 0.7640170454978943 0.24152213335037231
vt 0.8246559500694275 0.25595784187316895
vt 0.7631166577339172 0.24098366498947144
vt 0.7636494636535645 0.24364233016967773
vt 0.7624987363815308 0.24098366498947144
vt 0.7636924982070923 0.24121034145355225
vt 0.7640170454978943 0.24152213335037231
vt 0.764543890953064 0.24417805671691895
vt 0.7636924982070923 0.24121034145355225
vt 0.8618054986000061 0.23274248838424683
vt 0.861806333065033 0.23280733823776245
vt 0.8383305668830872 0.19669729471206665
vt 0.7652058601379395 0.2450454831123352
vt 0.76572585105896 0.24768340587615967
vt 0.7640170454978943 0.24152213335037231
vt 0.8017094135284424 0.2187865972518921
vt 0.7941983342170715 0.248707115650177
vt 0.7640170454978943 0.24152213335037231
vt 0.8383305668830872 0.19669729471206665
vt 0.861806333065033 0.23280733823776245
vt 0.8246559500694275 0.25595784187316895
vt 0.7652058601379395 0.2450454831123352
vt 0.7640170454978943 0.24152213335037231
vt 0.7715314626693726 0.2532898783683777
vt 0.7640170454978943 0.24152213335037231
vt 0.772034227848053 0.2538944482803345
vt 0.7715314626693726 0.2532898783683777
vt 0.7941983342170715 0.248707115650177
vt 0.8246559500694275 0.25595784187316895
vt 0.8246559500694275 0.25595784187316895
vt 0.8289246559143066 0.2622333765029907
vt 0.861806333065033 0.23280733823776245
vt 0.8553935289382935 0.2632752060890198
vt 0.8246559500694275 0.25595784187316895
vt 0.8553935289382935 0.2632752060890198
vn -0.000000010172839459698935 -0.000000005874511543879635 -1
vn -0.000000010172839459698935 -0.000000005874511543879635 -1
vn -0.000000010172839459698935 -0.000000005874511543879635 -1
vn -0.0000000024884172500350132 -0.000000004310817036667913 -1
vn -0.0000000024884172500350132 -0.000000004310817036667913 -1
vn -0.0000000024884172500350132 -0.000000004310817036667913 -1
vn 0.00000001293093987442262 -0.000000001084998757505673 -1
vn 0.00000001293093987442262 -0.000000001084998757505673 -1
vn 0.00000001293093987442262 -0.000000001084998757505673 -1
vn 0 -0 -1
vn 0 -0 -1
vn 0 -0 -1
vn 0.0000000009171018389153573 -0.0000000035754017524425308 -1
vn 0.0000000009171018389153573 -0.0000000035754017524425308 -1
vn 0.0000000009171018389153573 -0.0000000035754017524425308 -1
vn -0.000000002487692274399933 -0.000000004310655832284738 -1
vn -0.000000002487692274399933 -0.000000004310655832284738 -1
vn -0.000000002487692274399933 -0.000000004310655832284738 -1
vn 0.000000003125756542488034 -0.000000003125756542488034 -0.9999999403953552
vn 0.000000003125756542488034 -0.000000003125756542488034 -0.9999999403953552
vn 0.000000003125756542488034 -0.000000003125756542488034 -0.9999999403953552
vn 0.0000000014640001433363636 -0.000000003477376164795487 -1
vn 0.0000000014640001433363636 -0.000000003477376164795487 -1
vn 0.0000000014640001433363636 -0.000000003477376164795487 -1
vn -0.000000010174876052815307 -0.000000005874934760896622 -0.9999999403953552
vn -0.000000010174876052815307 -0.000000005874934760896622 -0.9999999403953552
vn -0.000000010174876052815307 -0.000000005874934760896622 -0.9999999403953552
vn 0.00000001293094076260104 -0.0000000010849988685279754 -0.9999999403953552
vn 0.00000001293094076260104 -0.0000000010849988685279754 -0.9999999403953552
vn 0.00000001293094076260104 -0.0000000010849988685279754 -0.9999999403953552
vn 0 -0 -1
vn 0.0000000009171003956254253 -0.00000000357540397288858 -0.9999999403953552
vn 0.0000000009171003956254253 -0.00000000357540397288858 -0.9999999403953552
vn 0.0000000009171003956254253 -0.00000000357540397288858 -0.9999999403953552
vn 0.0000000009171003401142741 -0.00000000357540352879937 -1
vn 0.0000000009171003401142741 -0.00000000357540352879937 -1
vn 0.0000000009171003401142741 -0.00000000357540352879937 -1
vn -0.000000005230555100155243 -0.0000000000005803989016825439 -1
vn -0.000000005230555100155243 -0.0000000000005803989016825439 -1
vn -0.000000005230555100155243 -0.0000000000005803989016825439 -1
vn -0.0000000024876694038056257 -0.000000004310892531833588 -1
vn -0.0000000024876694038056257 -0.000000004310892531833588 -1
vn -0.0000000024876694038056257 -0.000000004310892531833588 -1
vn 0.0000000014640001433363636 -0.000000003477376164795487 -1
vn -0.000000010174876052815307 -0.000000005874934760896622 -0.9999999403953552
vn 0.0000000031257261223771593 -0.0000000031257261223771593 -1
vn 0.0000000031257261223771593 -0.0000000031257261223771593 -1
vn 0.0000000031257261223771593 -0.0000000031257261223771593 -1
vn 0.0000000009171003401142741 -0.00000000357540352879937 -1
vn 0.0000000009171003401142741 -0.00000000357540352879937 -1
vn 0.000000012930942538957879 -0.0000000010849950937696917 -1
vn 0.000000012930942538957879 -0.0000000010849950937696917 -1
vn 0.000000012930942538957879 -0.0000000010849950937696917 -1
vn 0 -0 -1
vn 0 -0 -1
vn 0 -0 -0.9999999403953552
vn 0 -0 -0.9999999403953552
vn 0 -0 -0.9999999403953552
vn 0.0000000009171003956254253 -0.00000000357540397288858 -1
vn 0.0000000009171003956254253 -0.00000000357540397288858 -1
vn 0.0000000009171003956254253 -0.00000000357540397288858 -1
vn 0.0000000009171002290919716 -0.0000000035754026406209505 -1
vn 0.0000000009171002290919716 -0.0000000035754026406209505 -1
vn 0.0000000009171002290919716 -0.0000000035754026406209505 -1
vn 0.0000000014641695633699214 -0.000000003477332199963712 -1
vn 0.0000000014641695633699214 -0.000000003477332199963712 -1
vn 0.0000000014641695633699214 -0.000000003477332199963712 -1
vn 0.0000000031252345156218553 -0.0000000031258178267989933 -1
vn 0.0000000031252345156218553 -0.0000000031258178267989933 -1
vn 0.0000000031252345156218553 -0.0000000031258178267989933 -1
vn 0 -0 -0.9999999403953552
vn -0.000000005230555100155243 -0.0000000000005803989016825439 -1
vn -0.38806483149528503 0.9216321110725403 -0
vn -0.38806483149528503 0.9216321110725403 -0
vn -0.38806483149528503 0.9216321110725403 -0
vn -0.7070190906524658 0.7071945667266846 -0
vn -0.7070190906524658 0.7071945667266846 -0
vn -0.7070190906524658 0.7071945667266846 -0
vn -0.9424315094947815 0.3343992829322815 -0
vn -0.9424315094947815 0.3343992829322815 -0
vn -0.9424315094947815 0.3343992829322815 -0
vn 0.0000000009171003401142741 -0.00000000357540352879937 -1
vn 0 0.9999999403953552 -0
vn 0 0.9999999403953552 -0
vn 0 0.9999999403953552 -0
vn -0.38806483149528503 0.9216321110725403 -0
vn -0.7070392966270447 0.7071741819381714 -0
vn -0.7070392966270447 0.7071741819381714 -0
vn -0.7070392966270447 0.7071741819381714 -0
vn -0.00000000523177767774996 -0 -1
vn -0.00000000523177767774996 -0 -1
vn -0.00000000523177767774996 -0 -1
vn -0.9424330592155457 0.33439502120018005 -0
vn -0.9424330592155457 0.33439502120018005 -0
vn -0.9424330592155457 0.33439502120018005 -0
vn 0.0000000009171005066477278 -0.00000000357540441697779 -1
vn 0.0000000009171005066477278 -0.00000000357540441697779 -1
vn 0.0000000009171005066477278 -0.00000000357540441697779 -1
vn 0.0000000009171001180696692 -0.00000000357540352879937 -1
vn 0.0000000009171001180696692 -0.00000000357540352879937 -1
vn 0.0000000009171001180696692 -0.00000000357540352879937 -1
vn 0 -0 -0.9999999403953552
vn 0 -0 -0.9999999403953552
vn 0 -0 -0.9999999403953552
vn 0 -0 -1
vn 0 -0 -1
vn 0 -0 -1
vn 0 -0 -1
vn 0.0000000009171005066477278 -0.00000000357540441697779 -1
vn 0 -0 -1
vn 0 -0 -1
vn 0.0000000009171009507369376 -0.0000000035754050831116047 -0.9999999403953552
vn 0.0000000009171009507369376 -0.0000000035754050831116047 -0.9999999403953552
vn 0.0000000009171009507369376 -0.0000000035754050831116047 -0.9999999403953552
vn 0 -0 -1
f 3/3/3 2/2/2 1/1/1
f 6/6/6 5/5/5 4/4/4
f 9/9/9 8/8/8 7/7/7
f 12/12/12 11/11/11 10/10/10
f 15/15/15 14/14/14 13/13/13
f 18/18/18 17/17/17 16/16/16
f 21/21/21 20/20/20 19/19/19
f 24/24/24 23/23/23 22/22/22
f 27/27/27 26/26/26 25/25/25
f 30/30/30 29/29/29 28/28/28
f 12/12/12 10/10/10 31/31/31
f 34/34/34 33/33/33 32/32/32
f 37/37/37 36/36/36 35/35/35
f 40/40/40 39/39/39 38/38/38
f 43/43/43 42/42/42 41/41/41
f 22/22/22 44/44/44 24/24/24
f 25/25/25 45/45/45 27/27/27
f 48/48/48 47/47/47 46/46/46
f 36/36/36 50/50/50 49/49/49
f 53/53/53 52/52/52 51/51/51
f 31/31/31 54/54/54 12/12/12
f 54/54/54 31/31/31 55/55/55
f 58/58/58 57/57/57 56/56/56
f 61/61/61 60/60/60 59/59/59
f 64/64/64 63/63/63 62/62/62
f 67/67/67 66/66/66 65/65/65
f 70/70/70 69/69/69 68/68/68
f 56/56/56 71/71/71 58/58/58
f 39/39/39 40/40/40 72/72/72
f 75/75/75 74/74/74 73/73/73
f 78/78/78 77/77/77 76/76/76
f 81/81/81 80/80/80 79/79/79
f 35/35/35 49/49/49 82/82/82
f 85/85/85 84/84/84 83/83/83
f 75/75/75 73/73/73 86/86/86
f 89/89/89 88/88/88 87/87/87
f 92/92/92 91/91/91 90/90/90
f 95/95/95 94/94/94 93/93/93
f 98/98/98 97/97/97 96/96/96
f 101/101/101 100/100/100 99/99/99
f 104/104/104 103/103/103 102/102/102
f 107/107/107 106/106/106 105/105/105
f 106/106/106 108/108/108 105/105/105
f 96/96/96 97/97/97 109/109/109
f 106/106/106 110/110/110 108/108/108
f 106/106/106 111/111/111 110/110/110
f 114/114/114 113/113/113 112/112/112
f 111/111/111 115/115/115 110/110/110
