# VPXTOOL table OBJ file
# VPXTOOL OBJ file
# numVerts: 95 numFaces: 99
o LM_GI_giapron_Screen
v 127.2037124633789 71.33386993408203 3.0594797134399414
v 133.15805053710938 77.64936065673828 3.844285726547241
v 3.1849143505096436 74.49172973632813 3.4518861770629883
v 133.15805053710938 77.64936065673828 3.844285726547241
v 133.15805053710938 76.22834777832031 15.277997016906738
v 0 76.93885803222656 9.561141014099121
v 133.15805053710938 77.64936065673828 3.844285726547241
v 0 77.64936065673828 3.844285726547241
v 3.1849143505096436 74.49172973632813 3.4518861770629883
v 0 76.93885803222656 9.561141014099121
v 0 77.64936065673828 3.844285726547241
v 133.15805053710938 77.64936065673828 3.844285726547241
v 0.20777422189712524 71.33386993408203 3.0594797134399414
v 127.2037124633789 71.33386993408203 3.0594797134399414
v 3.1849143505096436 74.49172973632813 3.4518861770629883
v 0.20777422189712524 70.62358093261719 8.776342391967773
v 127.2037124633789 69.91307067871094 14.493197441101074
v 127.2037124633789 71.33386993408203 3.0594797134399414
v 0.20777422189712524 71.33386993408203 3.0594797134399414
v 0.20777422189712524 70.62358093261719 8.776342391967773
v 127.2037124633789 71.33386993408203 3.0594797134399414
v 133.15805053710938 76.22834777832031 15.277997016906738
v 0 76.22834777832031 15.277997016906738
v 0 76.93885803222656 9.561141014099121
v 0.20777422189712524 69.91307067871094 14.493197441101074
v 127.2037124633789 69.91307067871094 14.493197441101074
v 0.20777422189712524 70.62358093261719 8.776342391967773
v 3.1849143505096436 74.49172973632813 3.4518861770629883
v 0 77.64936065673828 3.844285726547241
v -126.78816223144531 71.33386993408203 3.0594797134399414
v 0 77.64936065673828 3.844285726547241
v 0 76.93885803222656 9.561141014099121
v -133.15798950195313 77.64936065673828 3.844285726547241
v 0.20777422189712524 71.33386993408203 3.0594797134399414
v 3.1849143505096436 74.49172973632813 3.4518861770629883
v -126.78816223144531 71.33386993408203 3.0594797134399414
v 0.20777422189712524 70.62358093261719 8.776342391967773
v 0.20777422189712524 71.33386993408203 3.0594797134399414
v -126.78816223144531 71.33386993408203 3.0594797134399414
v 0 77.64936065673828 3.844285726547241
v -133.15798950195313 77.64936065673828 3.844285726547241
v -126.78816223144531 71.33386993408203 3.0594797134399414
v 0 76.22834777832031 15.277997016906738
v -133.15798950195313 76.22834777832031 15.277997016906738
v 0 76.93885803222656 9.561141014099121
v -133.15798950195313 76.22834777832031 15.277997016906738
v -133.15798950195313 77.64936065673828 3.844285726547241
v -126.78816223144531 69.91307067871094 14.493197441101074
v -126.78816223144531 71.33386993408203 3.0594797134399414
v -126.78816223144531 69.91307067871094 14.493197441101074
v 0.20777422189712524 70.62358093261719 8.776342391967773
v -126.78816223144531 71.33386993408203 3.0594797134399414
v -133.15798950195313 77.64936065673828 3.844285726547241
v -133.15798950195313 -76.22856903076172 -15.277997016906738
v -133.15798950195313 -76.22856903076172 -15.277997016906738
v -133.15798950195313 77.64936065673828 3.844285726547241
v -133.15798950195313 76.22834777832031 15.277997016906738
v -126.78816223144531 69.91307067871094 14.493197441101074
v -126.78816223144531 71.33386993408203 3.0594797134399414
v -126.78816223144531 -71.33409118652344 -3.0594727993011475
v -126.78816223144531 -69.91329193115234 -14.493197441101074
v -126.78816223144531 71.33386993408203 3.0594797134399414
v -133.15798950195313 -76.22856903076172 -15.277997016906738
v -126.78816223144531 71.33386993408203 3.0594797134399414
v -126.78816223144531 -69.91329193115234 -14.493197441101074
v -126.78816223144531 -71.33409118652344 -3.0594727993011475
v -133.15798950195313 -77.64958190917969 -3.844285726547241
v -133.15798950195313 -76.22856903076172 -15.277997016906738
v -133.15798950195313 76.22834777832031 15.277997016906738
v 3.1849143505096436 -73.07093048095703 -14.885597229003906
v 0.20777422189712524 -69.91329193115234 -14.493197441101074
v -126.78816223144531 -69.91329193115234 -14.493197441101074
v 0.20777422189712524 -69.91329193115234 -14.493197441101074
v 0.20777422189712524 -70.62358093261719 -8.776342391967773
v -126.78816223144531 -69.91329193115234 -14.493197441101074
v 0 -76.22856903076172 -15.277997016906738
v 3.1849143505096436 -73.07093048095703 -14.885597229003906
v -126.78816223144531 -69.91329193115234 -14.493197441101074
v 0 -76.93907928466797 -9.561141014099121
v 0 -76.22856903076172 -15.277997016906738
v -133.15798950195313 -76.22856903076172 -15.277997016906738
v 0.20777422189712524 -71.33409118652344 -3.0594727993011475
v -126.78816223144531 -71.33409118652344 -3.0594727993011475
v 0.20777422189712524 -70.62358093261719 -8.776342391967773
v -133.15798950195313 -76.22856903076172 -15.277997016906738
v 0 -76.22856903076172 -15.277997016906738
v -126.78816223144531 -69.91329193115234 -14.493197441101074
v 0.20777422189712524 -70.62358093261719 -8.776342391967773
v -126.78816223144531 -71.33409118652344 -3.0594727993011475
v -126.78816223144531 -69.91329193115234 -14.493197441101074
v -133.15798950195313 -77.64958190917969 -3.844285726547241
v 0 -77.64958190917969 -3.844285726547241
v -133.15798950195313 -76.22856903076172 -15.277997016906738
v -133.15798950195313 -77.64958190917969 -3.844285726547241
v 0 -76.93907928466797 -9.561141014099121
vt 0.8397797346115112 0.9127537608146667
vt 0.8430140614509583 0.9106706976890564
vt 0.841396152973175 0.95362389087677
vt 0.8430140614509583 0.9106706976890564
vt 0.8435215950012207 0.911178469657898
vt 0.8432683348655701 0.9548008441925049
vt 0.8430140614509583 0.9106706976890564
vt 0.8430140614509583 0.9546365737915039
vt 0.841396152973175 0.95362389087677
vt 0.8432683348655701 0.9548008441925049
vt 0.8430140614509583 0.9546365737915039
vt 0.8430140614509583 0.9106706976890564
vt 0.8397797346115112 0.9546448588371277
vt 0.8397797346115112 0.9127537608146667
vt 0.841396152973175 0.95362389087677
vt 0.8400405049324036 0.9548089504241943
vt 0.8403001427650452 0.9132525324821472
vt 0.8397797346115112 0.9127537608146667
vt 0.8397797346115112 0.9546448588371277
vt 0.8400405049324036 0.9548089504241943
vt 0.8397797346115112 0.9127537608146667
vt 0.8435215950012207 0.911178469657898
vt 0.8435215950012207 0.9549644589424133
vt 0.8432683348655701 0.9548008441925049
vt 0.8403001427650452 0.9549723863601685
vt 0.8403001427650452 0.9132525324821472
vt 0.8400405049324036 0.9548089504241943
vt 0.841396152973175 0.95362389087677
vt 0.8430140614509583 0.9546365737915039
vt 0.8397797346115112 0.9965358972549438
vt 0.8430140614509583 0.9546365737915039
vt 0.8432683348655701 0.9548008441925049
vt 0.8430140614509583 0.9986023902893066
vt 0.8397797346115112 0.9546448588371277
vt 0.841396152973175 0.95362389087677
vt 0.8397797346115112 0.9965358972549438
vt 0.8400405049324036 0.9548089504241943
vt 0.8397797346115112 0.9546448588371277
vt 0.8397797346115112 0.9965358972549438
vt 0.8430140614509583 0.9546365737915039
vt 0.8430140614509583 0.9986023902893066
vt 0.8397797346115112 0.9965358972549438
vt 0.8435215950012207 0.9549644589424133
vt 0.8435215950012207 0.9987504482269287
vt 0.8432683348655701 0.9548008441925049
vt 0.8435215950012207 0.9987504482269287
vt 0.8430140614509583 0.9986023902893066
vt 0.8403001427650452 0.9966922998428345
vt 0.8397797346115112 0.9965358972549438
vt 0.8403001427650452 0.9966922998428345
vt 0.8400405049324036 0.9548089504241943
vt 0.8397797346115112 0.9965358972549438
vt 0.8430140614509583 0.9986023902893066
vt 0.765935480594635 0.9994288682937622
vt 0.765935480594635 0.9994288682937622
vt 0.8430140614509583 0.9986023902893066
vt 0.8435215950012207 0.9987504482269287
vt 0.8403001427650452 0.9966922998428345
vt 0.8397797346115112 0.9965358972549438
vt 0.7698221206665039 0.9974884986877441
vt 0.769029438495636 0.9973386526107788
vt 0.8397797346115112 0.9965358972549438
vt 0.765935480594635 0.9994288682937622
vt 0.8397797346115112 0.9965358972549438
vt 0.769029438495636 0.9973386526107788
vt 0.7698221206665039 0.9974884986877441
vt 0.7667396068572998 0.9995702505111694
vt 0.765935480594635 0.9994288682937622
vt 0.8435215950012207 0.9987504482269287
vt 0.7674816846847534 0.9554023742675781
vt 0.769029438495636 0.9563265442848206
vt 0.769029438495636 0.9973386526107788
vt 0.769029438495636 0.9563265442848206
vt 0.7694266438484192 0.9564839005470276
vt 0.769029438495636 0.9973386526107788
vt 0.765935480594635 0.9564671516418457
vt 0.7674816846847534 0.9554023742675781
vt 0.769029438495636 0.9973386526107788
vt 0.7663383483886719 0.9566240310668945
vt 0.765935480594635 0.9564671516418457
vt 0.765935480594635 0.9994288682937622
vt 0.7698221206665039 0.9566405415534973
vt 0.7698221206665039 0.9974884986877441
vt 0.7694266438484192 0.9564839005470276
vt 0.765935480594635 0.9994288682937622
vt 0.765935480594635 0.9564671516418457
vt 0.769029438495636 0.9973386526107788
vt 0.7694266438484192 0.9564839005470276
vt 0.7698221206665039 0.9974884986877441
vt 0.769029438495636 0.9973386526107788
vt 0.7667396068572998 0.9995702505111694
vt 0.7667396068572998 0.9567803144454956
vt 0.765935480594635 0.9994288682937622
vt 0.7667396068572998 0.9995702505111694
vt 0.7663383483886719 0.9566240310668945
vn 0.00000008111649663078424 0.12331824004650116 -0.9923672676086426
vn 0.00000008111649663078424 0.12331824004650116 -0.9923672676086426
vn 0.00000008111649663078424 0.12331824004650116 -0.9923672676086426
vn 0 0.9923651814460754 0.12333425879478455
vn 0 0.9923651814460754 0.12333425879478455
vn 0 0.9923651814460754 0.12333425879478455
vn 0 0.12332092970609665 -0.9923669099807739
vn 0 0.12332092970609665 -0.9923669099807739
vn 0 0.12332092970609665 -0.9923669099807739
vn 0 0.9923650622367859 0.12333528697490692
vn 0 0.9923650622367859 0.12333528697490692
vn 0 0.9923650622367859 0.12333528697490692
vn 0 0.12331467866897583 -0.9923676252365112
vn 0 0.12331467866897583 -0.9923676252365112
vn 0 0.12331467866897583 -0.9923676252365112
vn -0.0000008673026172800746 -0.9923675060272217 -0.12331511080265045
vn -0.0000008673026172800746 -0.9923675060272217 -0.12331511080265045
vn -0.0000008673026172800746 -0.9923675060272217 -0.12331511080265045
vn 0 -0.9923697710037231 -0.12329674512147903
vn 0 -0.9923697710037231 -0.12329674512147903
vn 0 -0.9923697710037231 -0.12329674512147903
vn 0 0.992365300655365 0.12333323061466217
vn 0 0.992365300655365 0.12333323061466217
vn 0 0.992365300655365 0.12333323061466217
vn 0 -0.9923652410507202 -0.12333347648382187
vn 0 -0.9923652410507202 -0.12333347648382187
vn 0 -0.9923652410507202 -0.12333347648382187
vn -0.0000001547305856774983 0.12332125753164291 -0.9923668503761292
vn -0.0000001547305856774983 0.12332125753164291 -0.9923668503761292
vn -0.0000001547305856774983 0.12332125753164291 -0.9923668503761292
vn 0 0.992365300655365 0.12333328276872635
vn 0 0.992365300655365 0.12333328276872635
vn 0 0.992365300655365 0.12333328276872635
vn 0 0.12331493198871613 -0.9923675656318665
vn 0 0.12331493198871613 -0.9923675656318665
vn 0 0.12331493198871613 -0.9923675656318665
vn 0 -0.9923698306083679 -0.12329676002264023
vn 0 -0.9923698306083679 -0.12329676002264023
vn 0 -0.9923698306083679 -0.12329676002264023
vn 0 0.12331823259592056 -0.9923670887947083
vn 0 0.12331823259592056 -0.9923670887947083
vn 0 0.12331823259592056 -0.9923670887947083
vn 0 0.992365300655365 0.12333328276872635
vn 0 0.992365300655365 0.12333328276872635
vn 0.0000000010174239228888382 0.9923651218414307 0.12333431094884872
vn 0.0000000010174239228888382 0.9923651218414307 0.12333431094884872
vn 0.0000000010174239228888382 0.9923651218414307 0.12333431094884872
vn 0 -0.9923652410507202 -0.12333347648382187
vn 0.0000008673026172800746 -0.9923675060272217 -0.12331511080265045
vn 0.0000008673026172800746 -0.9923675060272217 -0.12331511080265045
vn 0.0000008673026172800746 -0.9923675060272217 -0.12331511080265045
vn 0.0000024463804493279895 0.12332061678171158 -0.9923668503761292
vn 0.0000024463804493279895 0.12332061678171158 -0.9923668503761292
vn 0.0000024463804493279895 0.12332061678171158 -0.9923668503761292
vn -1 -0.0000002236686356127393 -0
vn -1 -0.0000002236686356127393 -0
vn -1 -0.0000002236686356127393 -0
vn 1 -0 -0
vn 1 -0 -0
vn 1 -0 -0
vn 0.0000006611207936657593 0.12332063168287277 -0.9923667907714844
vn 0.0000006611207936657593 0.12332063168287277 -0.9923667907714844
vn 0.0000006611207936657593 0.12332063168287277 -0.9923667907714844
vn 1 0.0000002436700867747277 -0
vn 1 0.0000002436700867747277 -0
vn 1 0.0000002436700867747277 -0
vn -1 0.00000011183431780636965 -0
vn -1 0.00000011183431780636965 -0
vn -1 0.00000011183431780636965 -0
vn 0 0.12332140654325485 -0.9923668503761292
vn 0 0.12332140654325485 -0.9923668503761292
vn 0 0.12332140654325485 -0.9923668503761292
vn 0 0.9923698306083679 0.12329690158367157
vn 0 0.9923698306083679 0.12329690158367157
vn 0 0.9923698306083679 0.12329690158367157
vn -0.000000014736249553948255 0.12332122027873993 -0.9923668503761292
vn -0.000000014736249553948255 0.12332122027873993 -0.9923668503761292
vn -0.000000014736249553948255 0.12332122027873993 -0.9923668503761292
vn 0 -0.992365300655365 -0.12333328276872635
vn 0 -0.992365300655365 -0.12333328276872635
vn 0 -0.992365300655365 -0.12333328276872635
vn 0 0.9923653602600098 0.12333319336175919
vn 0 0.9923653602600098 0.12333319336175919
vn 0 0.9923653602600098 0.12333319336175919
vn 0 0.12332134693861008 -0.9923669099807739
vn 0 0.12332134693861008 -0.9923669099807739
vn 0 0.12332134693861008 -0.9923669099807739
vn -0.0000008566342444282782 0.9923675656318665 0.12331505119800568
vn -0.0000008566342444282782 0.9923675656318665 0.12331505119800568
vn -0.0000008566342444282782 0.9923675656318665 0.12331505119800568
vn 0 -0.992365300655365 -0.12333328276872635
vn 0 -0.992365300655365 -0.12333328276872635
vn 0 -0.9923651814460754 -0.12333431094884872
vn 0 -0.9923651814460754 -0.12333431094884872
vn 0 -0.9923651814460754 -0.12333431094884872
f 3/3/3 2/2/2 1/1/1
f 6/6/6 5/5/5 4/4/4
f 9/9/9 8/8/8 7/7/7
f 12/12/12 11/11/11 10/10/10
f 15/15/15 14/14/14 13/13/13
f 18/18/18 17/17/17 16/16/16
f 21/21/21 20/20/20 19/19/19
f 24/24/24 23/23/23 22/22/22
f 27/27/27 26/26/26 25/25/25
f 30/30/30 29/29/29 28/28/28
f 33/33/33 32/32/32 31/31/31
f 36/36/36 35/35/35 34/34/34
f 39/39/39 38/38/38 37/37/37
f 42/42/42 41/41/41 40/40/40
f 32/32/32 44/44/44 43/43/43
f 47/47/47 46/46/46 45/45/45
f 27/27/27 25/25/25 48/48/48
f 51/51/51 50/50/50 49/49/49
f 54/54/54 53/53/53 52/52/52
f 57/57/57 56/56/56 55/55/55
f 60/60/60 59/59/59 58/58/58
f 63/63/63 62/62/62 61/61/61
f 66/66/66 65/65/65 64/64/64
f 69/69/69 68/68/68 67/67/67
f 72/72/72 71/71/71 70/70/70
f 75/75/75 74/74/74 73/73/73
f 78/78/78 77/77/77 76/76/76
f 81/81/81 80/80/80 79/79/79
f 84/84/84 83/83/83 82/82/82
f 87/87/87 86/86/86 85/85/85
f 90/90/90 89/89/89 88/88/88
f 79/79/79 92/92/92 91/91/91
f 95/95/95 94/94/94 93/93/93
