# VPXTOOL table OBJ file
# VPXTOOL OBJ file
# numVerts: 165 numFaces: 258
o LM_GI_gi14_Playfield
v 419.8375549316406 -714.67578125 0.000001725470269775542
v 476.629150390625 -796.0385131835938 -0
v 476.629150390625 -603.9579467773438 -0
v 476.629150390625 -603.9579467773438 -0
v 401.8670349121094 -648.196533203125 0.000001725470269775542
v 419.8375549316406 -714.67578125 0.000001725470269775542
v 476.629150390625 -603.9579467773438 -0
v 401.3732604980469 -647.0940551757813 0.000001725470269775542
v 401.8670349121094 -648.196533203125 0.000001725470269775542
v 400.56304931640625 -646.1982421875 0.000001725470269775542
v 401.3732604980469 -647.0940551757813 0.000001725470269775542
v 476.629150390625 -603.9579467773438 -0
v 476.629150390625 -603.9579467773438 -0
v 399.51556396484375 -645.5965576171875 0.000001725470269775542
v 400.56304931640625 -646.1982421875 0.000001725470269775542
v 476.629150390625 -603.9579467773438 -0
v 398.3334655761719 -645.3480224609375 0.000001725470269775542
v 399.51556396484375 -645.5965576171875 0.000001725470269775542
v 476.629150390625 -603.9579467773438 -0
v 299.14788818359375 -468.70098876953125 -0
v 398.3334655761719 -645.3480224609375 0.000001725470269775542
v 476.629150390625 -603.9579467773438 -0
v 294.96563720703125 -452.1269226074219 -0
v 299.14788818359375 -468.70098876953125 -0
v 294.1911315917969 -449.6485595703125 -0
v 476.629150390625 -436.4507751464844 -0
v 246.9471435546875 -459.56207275390625 23.52941131591797
v 289.85400390625 -448.409423828125 23.52941131591797
v 289.85400390625 -448.409423828125 -0
v 246.9471435546875 -459.56207275390625 -0
v 246.9471435546875 -459.56207275390625 23.52941131591797
v 289.85400390625 -448.409423828125 -0
v 292.10284423828125 -448.40936279296875 23.52941131591797
v 294.1911315917969 -449.6485595703125 23.52941131591797
v 294.1911315917969 -449.6485595703125 -0
v 289.85400390625 -448.409423828125 23.52941131591797
v 292.10284423828125 -448.40936279296875 23.52941131591797
v 292.10284423828125 -448.40936279296875 -0
v 294.1911315917969 -449.6485595703125 -0
v 294.1911315917969 -449.6485595703125 23.52941131591797
v 294.96563720703125 -452.1269226074219 -0
v 292.10284423828125 -448.40936279296875 -0
v 292.10284423828125 -448.40936279296875 23.52941131591797
v 294.1911315917969 -449.6485595703125 -0
v 289.85400390625 -448.409423828125 -0
v 289.85400390625 -448.409423828125 23.52941131591797
v 292.10284423828125 -448.40936279296875 -0
v 244.93356323242188 -460.49139404296875 -0
v 246.9471435546875 -459.56207275390625 -0
v 172.42218017578125 -301.0628662109375 -0
v 385.41015625 -359.296142578125 -0
v 289.85400390625 -448.409423828125 -0
v 193.8756561279297 -295.4865417480469 -0
v 339.8006286621094 -320.71881103515625 -0
v 292.10284423828125 -448.40936279296875 -0
v 312.3058776855469 -222.87521362304688 -0
v 298.9323425292969 -222.2556915283203 -0
v 171.41539001464844 -301.5274963378906 -0
v 476.629150390625 -268.94366455078125 -0
v 313.1126708984375 -222.42709350585938 -0
v 300.0567321777344 -222.25564575195313 -0
v 311.2617492675781 -222.25564575195313 -0
v 300.0567321777344 -222.25564575195313 -0
v 292.10284423828125 -448.40936279296875 -0
v 311.2617492675781 -222.25564575195313 -0
v 172.42218017578125 -301.0628662109375 -0
v 97.89727783203125 -142.56365966796875 -0
v 171.41539001464844 -301.5274963378906 -0
v 97.89727783203125 -142.56365966796875 -0
v 385.41015625 -191.78903198242188 -0
v 97.39984130859375 -143.42550659179688 -0
v 193.8756561279297 -295.4865417480469 -0
v 298.9323425292969 -222.2556915283203 -0
v 202.95394897460938 -69.332763671875 -0
v 476.629150390625 -101.43656158447266 -0
v 97.897216796875 -141.56861877441406 23.52941131591797
v 97.89727783203125 -142.56365966796875 23.52941131591797
v 97.89727783203125 -142.56365966796875 -0
v 97.89727783203125 -142.56365966796875 -0
v 97.89727783203125 -142.56365966796875 23.52941131591797
v 97.39984130859375 -143.42550659179688 -0
v 97.897216796875 -141.56861877441406 -0
v 308.0106201171875 3.8980720043182373 -0
v 330.420654296875 3.8980720043182373 -0
v 332.0342102050781 4.794433116912842 -0
v 97.897216796875 -141.56861877441406 -0
v 185.9591522216797 -9.02059268951416 -0
v 431.0196533203125 -62.8592414855957 -0
v 202.95394897460938 -69.332763671875 -0
v 185.9591522216797 -9.02059268951416 -0
v 308.0106201171875 3.8980720043182373 -0
v 476.629150390625 66.07054901123047 -0
v 330.420654296875 3.8980720043182373 23.52941131591797
v 308.0106201171875 3.8980720043182373 23.52941131591797
v 308.0106201171875 3.8980720043182373 -0
v 332.0342102050781 4.794433116912842 23.52941131591797
v 330.420654296875 3.8980720043182373 23.52941131591797
v 330.420654296875 3.8980720043182373 -0
v 332.5719909667969 6.4079270362854 23.52941131591797
v 332.0342102050781 4.794433116912842 23.52941131591797
v 332.0342102050781 4.794433116912842 -0
v 308.0106201171875 3.8980720043182373 -0
v 308.0106201171875 3.8980720043182373 23.52941131591797
v 306.3971252441406 4.525535583496094 -0
v 330.420654296875 3.8980720043182373 -0
v 306.3971252441406 4.525535583496094 -0
v 332.0342102050781 4.794433116912842 -0
v 332.0342102050781 4.794433116912842 23.52941131591797
v 330.420654296875 3.8980720043182373 -0
v 332.5719909667969 6.4079270362854 -0
v 332.5719909667969 6.4079270362854 23.52941131591797
v 332.0342102050781 4.794433116912842 -0
v 332.5719909667969 6.4079270362854 -0
v 332.5001220703125 174.94468688964844 23.52941131591797
v 332.5719909667969 6.4079270362854 23.52941131591797
v 332.5719909667969 6.4079270362854 -0
v 332.5001220703125 174.94468688964844 -0
v 332.5001220703125 174.94468688964844 -0
v 332.5001220703125 174.94468688964844 23.52941131591797
v 332.5719909667969 6.4079270362854 -0
v 331.9024658203125 176.5132293701172 23.52941131591797
v 332.5001220703125 174.94468688964844 23.52941131591797
v 332.5001220703125 174.94468688964844 -0
v 476.629150390625 66.07054901123047 -0
v 450.34625244140625 248.0209197998047 -0.000001725470269775542
v 332.5001220703125 174.94468688964844 -0
v 331.9024658203125 176.5132293701172 -0
v 331.9024658203125 176.5132293701172 23.52941131591797
v 332.5001220703125 174.94468688964844 -0
v 450.34625244140625 248.0209197998047 -0.000001725470269775542
v 476.629150390625 66.07054901123047 -0
v 450.8843688964844 248.2951202392578 -0.000001725470269775542
v 450.8843688964844 248.2951202392578 -0.000001725470269775542
v 476.629150390625 66.07054901123047 -0
v 451.3114013671875 248.72215270996094 -0.000001725470269775542
v 451.3114013671875 248.72215270996094 -0.000001725470269775542
v 476.629150390625 66.07054901123047 -0
v 451.5857238769531 249.26039123535156 -0.000001725470269775542
v 451.5857238769531 249.26039123535156 -0.000001725470269775542
v 476.629150390625 66.07054901123047 -0
v 451.6801452636719 249.85693359375 -0.000001725470269775542
v 451.6801452636719 249.85693359375 -0.000001725470269775542
v 476.629150390625 66.07054901123047 -0
v 476.629150390625 262.3972473144531 -0
v 331.9024658203125 176.5132293701172 -0
v 332.5001220703125 174.94468688964844 -0
v 339.3314208984375 315.2710876464844 -0.000001725470269775542
v 450.34625244140625 248.0209197998047 -0.000001725470269775542
v 378.2817077636719 302.4579772949219 -0.000001725470269775542
v 332.5001220703125 174.94468688964844 -0
v 377.4407958984375 302.36346435546875 -0.000001725470269775542
v 332.5001220703125 174.94468688964844 -0
v 377.6851806640625 302.3635559082031 -0.000001725470269775542
v 376.84423828125 302.4579772949219 -0.000001725470269775542
v 332.5001220703125 174.94468688964844 -0
v 377.4407958984375 302.36346435546875 -0.000001725470269775542
v 377.6851806640625 302.3635559082031 -0.000001725470269775542
v 332.5001220703125 174.94468688964844 -0
v 378.2817077636719 302.4579772949219 -0.000001725470269775542
v 376.3061218261719 302.732177734375 -0.000001725470269775542
v 332.5001220703125 174.94468688964844 -0
v 376.84423828125 302.4579772949219 -0.000001725470269775542
v 376.3061218261719 302.732177734375 -0.000001725470269775542
v 339.3314208984375 315.2710876464844 -0.000001725470269775542
v 332.5001220703125 174.94468688964844 -0
vt 0.6571847796440125 0.6120901107788086
vt 0.669491708278656 0.5971355438232422
vt 0.6725852489471436 0.632997453212738
vt 0.6725852489471436 0.632997453212738
vt 0.6537898778915405 0.6245650053024292
vt 0.6571847796440125 0.6120901107788086
vt 0.6725852489471436 0.632997453212738
vt 0.6536856889724731 0.6247738599777222
vt 0.6537898778915405 0.6245650053024292
vt 0.6535021662712097 0.6249436140060425
vt 0.6536856889724731 0.6247738599777222
vt 0.6725852489471436 0.632997453212738
vt 0.6725852489471436 0.632997453212738
vt 0.6532571911811829 0.6250576972961426
vt 0.6535021662712097 0.6249436140060425
vt 0.6725852489471436 0.632997453212738
vt 0.6529748439788818 0.6251047849655151
vt 0.6532571911811829 0.6250576972961426
vt 0.6725852489471436 0.632997453212738
vt 0.6308557987213135 0.6594518423080444
vt 0.6529748439788818 0.6251047849655151
vt 0.6725852489471436 0.632997453212738
vt 0.6299957036972046 0.6627652049064636
vt 0.6308557987213135 0.6594518423080444
vt 0.6298296451568604 0.6632620096206665
vt 0.6754246950149536 0.6659138202667236
vt 0.6176302433013916 0.6647918224334717
vt 0.6283374428749084 0.6670179963111877
vt 0.6287641525268555 0.6635105609893799
vt 0.6179927587509155 0.6612768173217773
vt 0.6176302433013916 0.6647918224334717
vt 0.6287641525268555 0.6635105609893799
vt 0.6288934350013733 0.6670179963111877
vt 0.6293966770172119 0.666770339012146
vt 0.6298296451568604 0.6632620096206665
vt 0.6283374428749084 0.6670179963111877
vt 0.6288934350013733 0.6670179963111877
vt 0.6293234825134277 0.6635105609893799
vt 0.6298296451568604 0.6632620096206665
vt 0.6293966770172119 0.666770339012146
vt 0.6299957036972046 0.6627652049064636
vt 0.6293234825134277 0.6635105609893799
vt 0.6288934350013733 0.6670179963111877
vt 0.6298296451568604 0.6632620096206665
vt 0.6287641525268555 0.6635105609893799
vt 0.6283374428749084 0.6670179963111877
vt 0.6293234825134277 0.6635105609893799
vt 0.6174845099449158 0.6610910296440125
vt 0.6179927587509155 0.6612768173217773
vt 0.6005023717880249 0.6937192678451538
vt 0.65379399061203 0.6816232204437256
vt 0.6287641525268555 0.6635105609893799
vt 0.605996310710907 0.6948885917663574
vt 0.6427926421165466 0.6896129846572876
vt 0.6293234825134277 0.6635105609893799
vt 0.6369944214820862 0.7102940678596497
vt 0.6335623264312744 0.710426926612854
vt 0.6002434492111206 0.6936218738555908
vt 0.6784065961837769 0.7004811763763428
vt 0.6372073292732239 0.7103902101516724
vt 0.6338515281677246 0.710426926612854
vt 0.63673335313797 0.710426926612854
vt 0.6338515281677246 0.710426926612854
vt 0.6293234825134277 0.6635105609893799
vt 0.63673335313797 0.710426926612854
vt 0.6005023717880249 0.6937192678451538
vt 0.5821658968925476 0.727730929851532
vt 0.6002434492111206 0.6936218738555908
vt 0.5821658968925476 0.727730929851532
vt 0.6562619209289551 0.7169930934906006
vt 0.5820330381393433 0.7275415658950806
vt 0.605996310710907 0.6948885917663574
vt 0.6335623264312744 0.710426926612854
vt 0.6101131439208984 0.7440072298049927
vt 0.681541919708252 0.7368267774581909
vt 0.5820111632347107 0.7312219738960266
vt 0.5820073485374451 0.7310041189193726
vt 0.5821658968925476 0.727730929851532
vt 0.5821658968925476 0.727730929851532
vt 0.5820073485374451 0.7310041189193726
vt 0.5820330381393433 0.7275415658950806
vt 0.582169771194458 0.7279496192932129
vt 0.6386992335319519 0.7606555819511414
vt 0.6446663737297058 0.7606555819511414
vt 0.6451084017753601 0.7608616948127747
vt 0.582169771194458 0.7279496192932129
vt 0.6061005592346191 0.7576910257339478
vt 0.6702677011489868 0.7454637289047241
vt 0.6101131439208984 0.7440072298049927
vt 0.6061005592346191 0.7576910257339478
vt 0.6386992335319519 0.7606555819511414
vt 0.6848427057266235 0.7750915288925171
vt 0.6441091895103455 0.763795018196106
vt 0.6381797790527344 0.763795018196106
vt 0.6386992335319519 0.7606555819511414
vt 0.6445483565330505 0.7640002965927124
vt 0.6441091895103455 0.763795018196106
vt 0.6446663737297058 0.7606555819511414
vt 0.6447127461433411 0.7643699049949646
vt 0.6445483565330505 0.7640002965927124
vt 0.6451084017753601 0.7608616948127747
vt 0.6386992335319519 0.7606555819511414
vt 0.6381797790527344 0.763795018196106
vt 0.6382776498794556 0.7607998847961426
vt 0.6446663737297058 0.7606555819511414
vt 0.6382776498794556 0.7607998847961426
vt 0.6451084017753601 0.7608616948127747
vt 0.6445483565330505 0.7640002965927124
vt 0.6446663737297058 0.7606555819511414
vt 0.6452739834785461 0.7612329125404358
vt 0.6447127461433411 0.7643699049949646
vt 0.6451084017753601 0.7608616948127747
vt 0.6452739834785461 0.7612329125404358
vt 0.6470614671707153 0.8040273785591125
vt 0.6447127461433411 0.7643699049949646
vt 0.6452739834785461 0.7612329125404358
vt 0.6476532220840454 0.8010647296905518
vt 0.6476532220840454 0.8010647296905518
vt 0.6470614671707153 0.8040273785591125
vt 0.6452739834785461 0.7612329125404358
vt 0.6469216346740723 0.804406464099884
vt 0.6470614671707153 0.8040273785591125
vt 0.6476532220840454 0.8010647296905518
vt 0.6848427057266235 0.7750915288925171
vt 0.681355893611908 0.8190126419067383
vt 0.6476532220840454 0.8010647296905518
vt 0.6475126147270203 0.8014456033706665
vt 0.6469216346740723 0.804406464099884
vt 0.6476532220840454 0.8010647296905518
vt 0.681355893611908 0.8190126419067383
vt 0.6848427057266235 0.7750915288925171
vt 0.6815103888511658 0.8190808296203613
vt 0.6815103888511658 0.8190808296203613
vt 0.6848427057266235 0.7750915288925171
vt 0.6816372871398926 0.8191869258880615
vt 0.6816372871398926 0.8191869258880615
vt 0.6848427057266235 0.7750915288925171
vt 0.6817241907119751 0.8193207383155823
vt 0.6817241907119751 0.8193207383155823
vt 0.6848427057266235 0.7750915288925171
vt 0.6817624568939209 0.8194690942764282
vt 0.6817624568939209 0.8194690942764282
vt 0.6848427057266235 0.7750915288925171
vt 0.6889404058456421 0.8225938081741333
vt 0.6475126147270203 0.8014456033706665
vt 0.6476532220840454 0.8010647296905518
vt 0.6516631841659546 0.835909903049469
vt 0.681355893611908 0.8190126419067383
vt 0.6623418927192688 0.8326617479324341
vt 0.6476532220840454 0.8010647296905518
vt 0.6621053814888 0.8326379060745239
vt 0.6476532220840454 0.8010647296905518
vt 0.6621736288070679 0.8326379060745239
vt 0.6619403958320618 0.8326617479324341
vt 0.6476532220840454 0.8010647296905518
vt 0.6621053814888 0.8326379060745239
vt 0.6621736288070679 0.8326379060745239
vt 0.6476532220840454 0.8010647296905518
vt 0.6623418927192688 0.8326617479324341
vt 0.6617948412895203 0.8327311277389526
vt 0.6476532220840454 0.8010647296905518
vt 0.6619403958320618 0.8326617479324341
vt 0.6617948412895203 0.8327311277389526
vt 0.6516631841659546 0.835909903049469
vt 0.6476532220840454 0.8010647296905518
vn -0.00000003038250184772551 -0 -1
vn -0.00000003038250184772551 -0 -1
vn -0.00000003038250184772551 -0 -1
vn -0.000000019896914338346505 -0.000000005378486100937607 -1
vn -0.000000019896914338346505 -0.000000005378486100937607 -1
vn -0.000000019896914338346505 -0.000000005378486100937607 -1
vn -0.000000018241360422166508 -0.000000008170514043115418 -1
vn -0.000000018241360422166508 -0.000000008170514043115418 -1
vn -0.000000018241360422166508 -0.000000008170514043115418 -1
vn -0.000000015101226935598788 -0.000000013657651010134941 -1
vn -0.000000015101226935598788 -0.000000013657651010134941 -1
vn -0.000000015101226935598788 -0.000000013657651010134941 -1
vn -0.000000011534163846249612 -0.00000002008026278588204 -1
vn -0.000000011534163846249612 -0.00000002008026278588204 -1
vn -0.000000011534163846249612 -0.00000002008026278588204 -1
vn -0.00000000627058049929019 -0.000000029826008329791875 -1
vn -0.00000000627058049929019 -0.000000029826008329791875 -1
vn -0.00000000627058049929019 -0.000000029826008329791875 -1
vn -0.00000001301191865366036 -0.000000017073961799951576 -1
vn -0.00000001301191865366036 -0.000000017073961799951576 -1
vn -0.00000001301191865366036 -0.000000017073961799951576 -1
vn 0 -0 -1
vn 0 -0 -1
vn 0 -0 -1
vn 0 -0 -1
vn 0 -0 -1
vn 0.25156790018081665 -0.9678395986557007 -0
vn 0.25156790018081665 -0.9678395986557007 -0
vn 0.25156790018081665 -0.9678395986557007 -0
vn 0.251568078994751 -0.9678395390510559 -0
vn 0.251568078994751 -0.9678395390510559 -0
vn 0.251568078994751 -0.9678395390510559 -0
vn -0.5103154182434082 -0.8599873781204224 -0
vn -0.5103154182434082 -0.8599873781204224 -0
vn -0.5103154182434082 -0.8599873781204224 -0
vn 0.000024552182367187925 -1 -0
vn 0.000024552182367187925 -1 -0
vn 0.000024552182367187925 -1 -0
vn -0.9544727802276611 -0.2982977628707886 -0
vn -0.9544727802276611 -0.2982977628707886 -0
vn -0.9544727802276611 -0.2982977628707886 -0
vn -0.5103276371955872 -0.859980046749115 -0
vn -0.5103276371955872 -0.859980046749115 -0
vn -0.5103276371955872 -0.859980046749115 -0
vn 0.00002455292451486457 -1 -0
vn 0.00002455292451486457 -1 -0
vn 0.00002455292451486457 -1 -0
vn 0 -0 -1
vn 0 -0 -1
vn 0 -0 -1
vn 0 -0 -1
vn 0 -0 -1
vn 0 -0 -1
vn 0 -0 -1
vn 0 -0 -1
vn 0 -0 -1
vn 0 -0 -1
vn 0 -0 -1
vn 0 -0 -1
vn 0 -0 -1
vn 0 -0 -1
vn 0 -0 -0.9999999403953552
vn 0 -0 -0.9999999403953552
vn 0 -0 -0.9999999403953552
vn 0 -0 -1
vn 0 -0 -0.9999999403953552
vn 0 -0 -0.9999999403953552
vn 0 -0 -0.9999999403953552
vn 0 -0 -1
vn 0 -0 -1
vn 0 -0 -1
vn 0 -0 -0.9999999403953552
vn 0 -0 -0.9999999403953552
vn 0 -0 -0.9999999403953552
vn 0 -0 -1
vn -1 -0.00005120338755659759 -0
vn -1 -0.00005120338755659759 -0
vn -1 -0.00005120338755659759 -0
vn -0.8660945892333984 0.49988019466400146 -0
vn -0.8660945892333984 0.49988019466400146 -0
vn -0.8660945892333984 0.49988019466400146 -0
vn -1 -0.00005120338755659759 -0
vn 0 -0 -1
vn 0 -0 -1
vn 0 -0 -1
vn 0 -0 -0.9999999403953552
vn 0 -0 -0.9999999403953552
vn 0 -0 -1
vn 0 -0 -1
vn 0 -0 -1
vn 0 -0 -0.9999999403953552
vn 0 -0 -1
vn 0 1 -0
vn 0 1 -0
vn 0 1 -0
vn -0.4856271743774414 0.8741660714149475 -0
vn -0.4856271743774414 0.8741660714149475 -0
vn -0.4856271743774414 0.8741660714149475 -0
vn -0.9486978650093079 0.3161841332912445 -0
vn -0.9486978650093079 0.3161841332912445 -0
vn -0.9486978650093079 0.3161841332912445 -0
vn 0.362438440322876 0.9320077300071716 -0
vn 0.362438440322876 0.9320077300071716 -0
vn 0.362438440322876 0.9320077300071716 -0
vn 0 1 -0
vn 0 -0 -0.9999999403953552
vn -0.48561152815818787 0.8741747140884399 -0
vn -0.48561152815818787 0.8741747140884399 -0
vn -0.48561152815818787 0.8741747140884399 -0
vn -0.9486858248710632 0.31622007489204407 -0
vn -0.9486858248710632 0.31622007489204407 -0
vn -0.9486858248710632 0.31622007489204407 -0
vn 0 -0 -1
vn -0.9999998807907104 -0.0004264466988388449 -0
vn -0.9999998807907104 -0.0004264466988388449 -0
vn -0.9999998807907104 -0.0004264466988388449 -0
vn 0 -0 -1
vn -0.9999998807907104 -0.00042684978689067066 -0
vn -0.9999998807907104 -0.00042684978689067066 -0
vn -0.9999998807907104 -0.00042684978689067066 -0
vn -0.9344769716262817 -0.3560236394405365 -0
vn -0.9344769716262817 -0.3560236394405365 -0
vn -0.9344769716262817 -0.3560236394405365 -0
vn -0.000000008040947463427983 -0.000000010644714443230896 -1
vn -0.000000008040947463427983 -0.000000010644714443230896 -1
vn -0.000000008040947463427983 -0.000000010644714443230896 -1
vn -0.9344635009765625 -0.3560590147972107 -0
vn -0.9344635009765625 -0.3560590147972107 -0
vn -0.9344635009765625 -0.3560590147972107 -0
vn 0.0000000045008237137267315 -0.00000000883307027521596 -1
vn 0.0000000045008237137267315 -0.00000000883307027521596 -1
vn 0.0000000045008237137267315 -0.00000000883307027521596 -1
vn 0.000000008296719755662707 -0.000000008296719755662707 -1
vn 0.000000008296719755662707 -0.000000008296719755662707 -1
vn 0.000000008296719755662707 -0.000000008296719755662707 -1
vn 0.000000014572648865396332 -0.000000007426848469549441 -1
vn 0.000000014572648865396332 -0.000000007426848469549441 -1
vn 0.000000014572648865396332 -0.000000007426848469549441 -1
vn 0.00000003193100539533589 -0.000000005053870655302717 -1
vn 0.00000003193100539533589 -0.000000005053870655302717 -1
vn 0.00000003193100539533589 -0.000000005053870655302717 -1
vn 0.00000006915981032307172 -0 -1
vn 0.00000006915981032307172 -0 -1
vn 0.00000006915981032307172 -0 -1
vn -0.00000002861552061972361 -0.000000010903069558310108 -1
vn -0.00000002861552061972361 -0.000000010903069558310108 -1
vn -0.00000002861552061972361 -0.000000010903069558310108 -1
vn -0.000000008040949239784823 -0.000000010644717107766155 -1
vn -0.000000008040949239784823 -0.000000010644717107766155 -1
vn -0.000000008040949239784823 -0.000000010644717107766155 -1
vn 0.00000000000612020156776083 -0.000000013544005916799051 -1
vn 0.00000000000612020156776083 -0.000000013544005916799051 -1
vn 0.00000000000612020156776083 -0.000000013544005916799051 -1
vn -0.0000000020322463711863747 -0.00000001282499351162869 -1
vn -0.0000000020322463711863747 -0.00000001282499351162869 -1
vn -0.0000000020322463711863747 -0.00000001282499351162869 -1
vn 0.000000002270779786428534 -0.00000001434707819214509 -1
vn 0.000000002270779786428534 -0.00000001434707819214509 -1
vn 0.000000002270779786428534 -0.00000001434707819214509 -1
vn -0.000000005857029083955467 -0.000000011494685203672361 -1
vn -0.000000005857029083955467 -0.000000011494685203672361 -1
vn -0.000000005857029083955467 -0.000000011494685203672361 -1
vn -0.000000004102150175100405 -0.000000012096422530305517 -0.9999999403953552
vn -0.000000004102150175100405 -0.000000012096422530305517 -0.9999999403953552
vn -0.000000004102150175100405 -0.000000012096422530305517 -0.9999999403953552
f 3/3/3 2/2/2 1/1/1
f 6/6/6 5/5/5 4/4/4
f 9/9/9 8/8/8 7/7/7
f 12/12/12 11/11/11 10/10/10
f 15/15/15 14/14/14 13/13/13
f 18/18/18 17/17/17 16/16/16
f 21/21/21 20/20/20 19/19/19
f 24/24/24 23/23/23 22/22/22
f 23/23/23 25/25/25 22/22/22
f 25/25/25 26/26/26 22/22/22
f 29/29/29 28/28/28 27/27/27
f 32/32/32 31/31/31 30/30/30
f 35/35/35 34/34/34 33/33/33
f 38/38/38 37/37/37 36/36/36
f 41/41/41 40/40/40 39/39/39
f 44/44/44 43/43/43 42/42/42
f 47/47/47 46/46/46 45/45/45
f 50/50/50 49/49/49 48/48/48
f 25/25/25 51/51/51 26/26/26
f 49/49/49 53/53/53 52/52/52
f 25/25/25 54/54/54 51/51/51
f 56/56/56 25/25/25 55/55/55
f 55/55/55 52/52/52 57/57/57
f 48/48/48 58/58/58 50/50/50
f 49/49/49 50/50/50 53/53/53
f 51/51/51 59/59/59 26/26/26
f 60/60/60 54/54/54 25/25/25
f 57/57/57 52/52/52 53/53/53
f 54/54/54 59/59/59 51/51/51
f 60/60/60 25/25/25 56/56/56
f 61/61/61 55/55/55 57/57/57
f 64/64/64 63/63/63 62/62/62
f 55/55/55 65/65/65 56/56/56
f 68/68/68 67/67/67 66/66/66
f 53/53/53 50/50/50 69/69/69
f 54/54/54 70/70/70 59/59/59
f 60/60/60 70/70/70 54/54/54
f 71/71/71 69/69/69 58/58/58
f 74/74/74 73/73/73 72/72/72
f 70/70/70 75/75/75 59/59/59
f 74/74/74 72/72/72 67/67/67
f 78/78/78 77/77/77 76/76/76
f 81/81/81 80/80/80 79/79/79
f 78/78/78 76/76/76 82/82/82
f 57/57/57 83/83/83 61/61/61
f 83/83/83 65/65/65 61/61/61
f 56/56/56 84/84/84 60/60/60
f 65/65/65 84/84/84 56/56/56
f 85/85/85 70/70/70 60/60/60
f 87/87/87 67/67/67 86/86/86
f 70/70/70 88/88/88 75/75/75
f 83/83/83 57/57/57 89/89/89
f 90/90/90 89/89/89 69/69/69
f 85/85/85 88/88/88 70/70/70
f 83/83/83 84/84/84 65/65/65
f 84/84/84 85/85/85 60/60/60
f 87/87/87 91/91/91 74/74/74
f 88/88/88 92/92/92 75/75/75
f 95/95/95 94/94/94 93/93/93
f 98/98/98 97/97/97 96/96/96
f 101/101/101 100/100/100 99/99/99
f 104/104/104 103/103/103 102/102/102
f 95/95/95 93/93/93 105/105/105
f 106/106/106 91/91/91 87/87/87
f 109/109/109 108/108/108 107/107/107
f 112/112/112 111/111/111 110/110/110
f 85/85/85 92/92/92 88/88/88
f 85/85/85 113/113/113 92/92/92
f 116/116/116 115/115/115 114/114/114
f 113/113/113 117/117/117 92/92/92
f 120/120/120 119/119/119 118/118/118
f 123/123/123 122/122/122 121/121/121
f 126/126/126 125/125/125 124/124/124
f 129/129/129 128/128/128 127/127/127
f 132/132/132 131/131/131 130/130/130
f 135/135/135 134/134/134 133/133/133
f 138/138/138 137/137/137 136/136/136
f 141/141/141 140/140/140 139/139/139
f 144/144/144 143/143/143 142/142/142
f 147/147/147 146/146/146 145/145/145
f 150/150/150 149/149/149 148/148/148
f 153/153/153 152/152/152 151/151/151
f 156/156/156 155/155/155 154/154/154
f 159/159/159 158/158/158 157/157/157
f 162/162/162 161/161/161 160/160/160
f 165/165/165 164/164/164 163/163/163
