# VPXTOOL table OBJ file
# VPXTOOL OBJ file
# numVerts: 129 numFaces: 207
o LM_L_LPR2_Playfield
v -13.428078651428223 251.45375061035156 0.000000862735134887771
v -119.22549438476563 224.31643676757813 0.000000862735134887771
v -95.88261413574219 109.65531921386719 0.000001294102730753366
v -95.88261413574219 109.65531921386719 0.000001294102730753366
v -13.428023338317871 250.95614624023438 0.000000862735134887771
v -13.428078651428223 251.45375061035156 0.000000862735134887771
v -142.56837463378906 338.9775390625 0.0000004313675674438855
v -225.02291870117188 197.1791229248047 0.000000862735134887771
v -142.56837463378906 338.9775390625 0.0000004313675674438855
v -119.22549438476563 224.31643676757813 0.000000862735134887771
v -13.428078651428223 251.45375061035156 0.000000862735134887771
v -225.02291870117188 197.1791229248047 0.000000862735134887771
v -142.56837463378906 338.9775390625 0.0000004313675674438855
v -271.70867919921875 426.5013427734375 -0
v 69.02648162841797 393.0033874511719 0.0000004313675674438855
v -60.11383819580078 480.7759704589844 -0
v 69.02648162841797 393.0033874511719 0.0000004313675674438855
v 69.02648162841797 393.2521667480469 0.0000004313675674438855
v -13.428078651428223 251.45375061035156 0.000000862735134887771
v -142.56837463378906 338.9775390625 0.0000004313675674438855
v -165.9112548828125 453.638671875 -0
v -271.70867919921875 426.5013427734375 -0
v -13.428078651428223 251.45375061035156 0.000000862735134887771
v 69.02648162841797 393.2521667480469 0.0000004313675674438855
v -60.11383819580078 480.7759704589844 -0
v -271.70867919921875 426.5013427734375 -0
v -241.9124755859375 473.0784606933594 -0
v -243.7411651611328 470.8194885253906 -0
v -240.9444122314453 475.76763916015625 23.52941131591797
v -241.9124755859375 473.0784606933594 23.52941131591797
v -241.9124755859375 473.0784606933594 -0
v -165.9112548828125 453.638671875 -0
v -240.5139923095703 479.102294921875 23.52941131591797
v -240.9444122314453 475.76763916015625 23.52941131591797
v -240.9444122314453 475.76763916015625 -0
v -60.11383819580078 480.7759704589844 -0
v -240.62152099609375 481.8990478515625 23.52941131591797
v -240.5139923095703 479.102294921875 23.52941131591797
v -240.5139923095703 479.102294921875 -0
v -241.9124755859375 473.0784606933594 -0
v -241.9124755859375 473.0784606933594 23.52941131591797
v -243.7411651611328 470.8194885253906 -0
v -240.9444122314453 475.76763916015625 -0
v -240.9444122314453 475.76763916015625 23.52941131591797
v -241.9124755859375 473.0784606933594 -0
v -240.5139923095703 479.102294921875 -0
v -240.5139923095703 479.102294921875 23.52941131591797
v -240.9444122314453 475.76763916015625 -0
v -240.62152099609375 481.8990478515625 -0
v -240.62152099609375 481.8990478515625 23.52941131591797
v -240.5139923095703 479.102294921875 -0
v -60.11383819580078 480.7759704589844 -0
v -240.5139923095703 479.102294921875 -0
v -233.8252410888672 532.7052612304688 -0
v -240.62152099609375 481.8990478515625 -0
v -240.9444122314453 475.76763916015625 -0
v -45.21574020385742 504.0645751953125 -0
v -240.5139923095703 479.102294921875 -0
v -240.9444122314453 475.76763916015625 -0
v -44.73169708251953 505.4091796875 -0
v -233.93276977539063 534.5339965820313 23.52941131591797
v -233.8252410888672 532.7052612304688 23.52941131591797
v -233.8252410888672 532.7052612304688 -0
v -240.62152099609375 481.8990478515625 -0
v -233.8252410888672 532.7052612304688 -0
v -234.578125 530.6616821289063 -0
v -233.8252410888672 532.7052612304688 -0
v -233.8252410888672 532.7052612304688 23.52941131591797
v -234.578125 530.6616821289063 -0
v 69.02648162841797 393.0033874511719 0.0000004313675674438855
v 151.48098754882813 535.0505981445313 -0
v 69.02648162841797 393.2521667480469 0.0000004313675674438855
v -244.15174865722656 563.1470947265625 23.52941131591797
v -233.93276977539063 534.5339965820313 23.52941131591797
v -233.93276977539063 534.5339965820313 -0
v -233.93276977539063 534.5339965820313 -0
v -233.93276977539063 534.5339965820313 23.52941131591797
v -233.8252410888672 532.7052612304688 -0
v -44.51649856567383 507.0764465332031 -0
v 69.02648162841797 393.2521667480469 0.0000004313675674438855
v 45.68355178833008 507.9132995605469 -0
v -60.11383819580078 480.7759704589844 -0
v -44.73169708251953 505.4091796875 -0
v -244.15174865722656 563.1470947265625 -0
v -244.15174865722656 563.1470947265625 23.52941131591797
v -233.93276977539063 534.5339965820313 -0
v -41.22587585449219 534.7922973632813 -0
v -233.93276977539063 534.5339965820313 -0
v 45.68355178833008 507.9132995605469 -0
v 151.48098754882813 535.0505981445313 -0
v 45.68355178833008 507.9132995605469 -0
v -41.172122955322266 533.8779296875 -0
v -41.22587585449219 534.7922973632813 -0
v 151.05087280273438 533.2221069335938 -0
v 151.48098754882813 535.0505981445313 -0
v 69.02648162841797 393.0033874511719 0.0000004313675674438855
v -233.93276977539063 534.5339965820313 -0
v -36.2238883972168 548.8837280273438 -0
v 151.48098754882813 535.0505981445313 -0
v -106.2380599975586 639.1170654296875 -0
v 151.05087280273438 533.2221069335938 23.52941131591797
v 151.48098754882813 535.0505981445313 23.52941131591797
v 151.48098754882813 535.0505981445313 -0
v -244.15174865722656 563.1470947265625 -0
v -176.25222778320313 729.3502807617188 -0
v 151.05087280273438 533.2221069335938 -0
v 151.05087280273438 533.2221069335938 23.52941131591797
v 151.48098754882813 535.0505981445313 -0
v 151.48098754882813 535.0505981445313 23.52941131591797
v 161.48497009277344 563.2334594726563 23.52941131591797
v 161.48497009277344 563.2334594726563 -0
v 151.48098754882813 535.0505981445313 -0
v 151.48098754882813 535.0505981445313 23.52941131591797
v 161.48497009277344 563.2334594726563 -0
v 161.48497009277344 563.2334594726563 -0
v 161.48497009277344 563.2334594726563 -0
v 161.48497009277344 563.2334594726563 23.52941131591797
v 163.42108154296875 566.1377563476563 -0
v 91.47079467773438 653.466796875 -0
v 163.42108154296875 566.1377563476563 -0
v 21.456623077392578 743.7000122070313 -0
v 92.43888092041016 654.9189453125 -0
v 91.47079467773438 653.466796875 -0
v 163.42108154296875 566.1377563476563 -0
v 21.456623077392578 743.7000122070313 -0
v 92.92289733886719 655.6448974609375 -0
v 92.43888092041016 654.9189453125 -0
v 22.42470932006836 745.1521606445313 -0
v -48.55752182006836 833.9331665039063 -0
vt 0.6843202114105225 0.7139092683792114
vt 0.6551612615585327 0.7071871757507324
vt 0.6620762348175049 0.6794244050979614
vt 0.6620762348175049 0.6794244050979614
vt 0.6843205094337463 0.7137854099273682
vt 0.6843202114105225 0.7139092683792114
vt 0.6479851603507996 0.7359985113143921
vt 0.626257061958313 0.7005239725112915
vt 0.6479851603507996 0.7359985113143921
vt 0.6551612615585327 0.7071871757507324
vt 0.6843202114105225 0.7139092683792114
vt 0.626257061958313 0.7005239725112915
vt 0.6479851603507996 0.7359985113143921
vt 0.6105871796607971 0.7587340474128723
vt 0.7076116800308228 0.749954342842102
vt 0.6707523465156555 0.773169755935669
vt 0.7076116800308228 0.749954342842102
vt 0.7076125144958496 0.7500191926956177
vt 0.6843202114105225 0.7139092683792114
vt 0.6479851603507996 0.7359985113143921
vt 0.6405327320098877 0.765919029712677
vt 0.6105871796607971 0.7587340474128723
vt 0.6843202114105225 0.7139092683792114
vt 0.7076125144958496 0.7500191926956177
vt 0.6707523465156555 0.773169755935669
vt 0.6105871796607971 0.7587340474128723
vt 0.6185417771339417 0.7711063623428345
vt 0.6180429458618164 0.7705017924308777
vt 0.6192597150802612 0.774415135383606
vt 0.619014322757721 0.773698627948761
vt 0.6185417771339417 0.7711063623428345
vt 0.6405327320098877 0.765919029712677
vt 0.6193443536758423 0.7753045558929443
vt 0.6192597150802612 0.774415135383606
vt 0.6187885999679565 0.7718265652656555
vt 0.6707523465156555 0.773169755935669
vt 0.619281530380249 0.7760512232780457
vt 0.6193443536758423 0.7753045558929443
vt 0.6188735961914063 0.7727206945419312
vt 0.6185417771339417 0.7711063623428345
vt 0.619014322757721 0.773698627948761
vt 0.6180429458618164 0.7705017924308777
vt 0.6187885999679565 0.7718265652656555
vt 0.6192597150802612 0.774415135383606
vt 0.6185417771339417 0.7711063623428345
vt 0.6188735961914063 0.7727206945419312
vt 0.6193443536758423 0.7753045558929443
vt 0.6187885999679565 0.7718265652656555
vt 0.6188101172447205 0.7734712362289429
vt 0.619281530380249 0.7760512232780457
vt 0.6188735961914063 0.7727206945419312
vt 0.6707523465156555 0.773169755935669
vt 0.6188735961914063 0.7727206945419312
vt 0.6201856732368469 0.7872312068939209
vt 0.6188101172447205 0.7734712362289429
vt 0.6187885999679565 0.7718265652656555
vt 0.6749877333641052 0.7794452905654907
vt 0.6188735961914063 0.7727206945419312
vt 0.6187885999679565 0.7718265652656555
vt 0.6751246452331543 0.7798091173171997
vt 0.6205999255180359 0.7902356386184692
vt 0.6206516623497009 0.7897385358810425
vt 0.6201856732368469 0.7872312068939209
vt 0.6188101172447205 0.7734712362289429
vt 0.6201856732368469 0.7872312068939209
vt 0.6199907660484314 0.7866731286048889
vt 0.6201856732368469 0.7872312068939209
vt 0.6206516623497009 0.7897385358810425
vt 0.6199907660484314 0.7866731286048889
vt 0.7076116800308228 0.749954342842102
vt 0.7320290207862854 0.7878721356391907
vt 0.7076125144958496 0.7500191926956177
vt 0.6173124313354492 0.7980528473854065
vt 0.6205999255180359 0.7902356386184692
vt 0.6201333999633789 0.7877309322357178
vt 0.6201333999633789 0.7877309322357178
vt 0.6205999255180359 0.7902356386184692
vt 0.6201856732368469 0.7872312068939209
vt 0.6751832365989685 0.7802605032920837
vt 0.7076125144958496 0.7500191926956177
vt 0.7012498378753662 0.7804871797561646
vt 0.6707523465156555 0.773169755935669
vt 0.6751246452331543 0.7798091173171997
vt 0.6168206930160522 0.7955904006958008
vt 0.6173124313354492 0.7980528473854065
vt 0.6201333999633789 0.7877309322357178
vt 0.676078736782074 0.7878015041351318
vt 0.6201333999633789 0.7877309322357178
vt 0.7012498378753662 0.7804871797561646
vt 0.7320290207862854 0.7878721356391907
vt 0.7012498378753662 0.7804871797561646
vt 0.6760962009429932 0.7875515818595886
vt 0.676078736782074 0.7878015041351318
vt 0.7318904399871826 0.7873724102973938
vt 0.7320290207862854 0.7878721356391907
vt 0.7076116800308228 0.749954342842102
vt 0.6201333999633789 0.7877309322357178
vt 0.677506148815155 0.7916629314422607
vt 0.7320290207862854 0.7878721356391907
vt 0.656649649143219 0.8168359994888306
vt 0.731587290763855 0.7898789644241333
vt 0.7317248582839966 0.7903760671615601
vt 0.7320290207862854 0.7878721356391907
vt 0.6168206930160522 0.7955904006958008
vt 0.6351305842399597 0.8428086638450623
vt 0.7318904399871826 0.7873724102973938
vt 0.731587290763855 0.7898789644241333
vt 0.7320290207862854 0.7878721356391907
vt 0.7317248582839966 0.7903760671615601
vt 0.7348331212997437 0.7980765700340271
vt 0.7351604700088501 0.7956142425537109
vt 0.7320290207862854 0.7878721356391907
vt 0.7317248582839966 0.7903760671615601
vt 0.7351604700088501 0.7956142425537109
vt 0.7351604700088501 0.7956142425537109
vt 0.7351604700088501 0.7956142425537109
vt 0.7348331212997437 0.7980765700340271
vt 0.7357491254806519 0.7964163422584534
vt 0.7151556015014648 0.8209120035171509
vt 0.7357491254806519 0.7964163422584534
vt 0.6945136785507202 0.8470153212547302
vt 0.7154493927955627 0.8213256001472473
vt 0.7151556015014648 0.8209120035171509
vt 0.7357491254806519 0.7964163422584534
vt 0.6945136785507202 0.8470153212547302
vt 0.7155963778495789 0.8215324282646179
vt 0.7154493927955627 0.8213256001472473
vt 0.6948068737983704 0.8474421501159668
vt 0.6732037663459778 0.8739633560180664
vn 0.0000000009171003401142741 -0.00000000357540352879937 -1
vn 0.0000000009171003401142741 -0.00000000357540352879937 -1
vn 0.0000000009171003401142741 -0.00000000357540352879937 -1
vn -0.000000005230555100155243 -0.0000000000005803989016825439 -1
vn -0.000000005230555100155243 -0.0000000000005803989016825439 -1
vn -0.000000005230555100155243 -0.0000000000005803989016825439 -1
vn 0.0000000009171003401142741 -0.00000000357540352879937 -1
vn 0.0000000009171003401142741 -0.00000000357540352879937 -1
vn 0.0000000009171003956254253 -0.00000000357540397288858 -1
vn 0.0000000009171003956254253 -0.00000000357540397288858 -1
vn 0.0000000009171003956254253 -0.00000000357540397288858 -1
vn 0.0000000009171002290919716 -0.0000000035754026406209505 -1
vn 0.0000000009171002290919716 -0.0000000035754026406209505 -1
vn 0.0000000009171002290919716 -0.0000000035754026406209505 -1
vn -0.000000005230555100155243 -0.0000000000005803989016825439 -1
vn 0.0000000009171003401142741 -0.00000000357540352879937 -1
vn -0.00000000523177767774996 -0 -1
vn -0.00000000523177767774996 -0 -1
vn -0.00000000523177767774996 -0 -1
vn 0.0000000009171005066477278 -0.00000000357540441697779 -1
vn 0.0000000009171005066477278 -0.00000000357540441697779 -1
vn 0.0000000009171005066477278 -0.00000000357540441697779 -1
vn 0.0000000009171001180696692 -0.00000000357540352879937 -1
vn 0.0000000009171001180696692 -0.00000000357540352879937 -1
vn 0.0000000009171001180696692 -0.00000000357540352879937 -1
vn 0 -0 -1
vn 0 -0 -1
vn 0 -0 -1
vn -0.9408963322639465 0.33869463205337524 -0
vn -0.9408963322639465 0.33869463205337524 -0
vn -0.9408963322639465 0.33869463205337524 -0
vn 0 -0 -1
vn -0.9917739033699036 0.12800180912017822 -0
vn -0.9917739033699036 0.12800180912017822 -0
vn -0.9917739033699036 0.12800180912017822 -0
vn 0.0000000009171005066477278 -0.00000000357540441697779 -1
vn -0.9992610812187195 -0.03843410313129425 -0
vn -0.9992610812187195 -0.03843410313129425 -0
vn -0.9992610812187195 -0.03843410313129425 -0
vn -0.777237057685852 0.6292079091072083 -0
vn -0.777237057685852 0.6292079091072083 -0
vn -0.777237057685852 0.6292079091072083 -0
vn -0.9408887624740601 0.33871570229530334 -0
vn -0.9408887624740601 0.33871570229530334 -0
vn -0.9408887624740601 0.33871570229530334 -0
vn -0.9917701482772827 0.1280316263437271 -0
vn -0.9917701482772827 0.1280316263437271 -0
vn -0.9917701482772827 0.1280316263437271 -0
vn -0.9992620944976807 -0.038409870117902756 -0
vn -0.9992620944976807 -0.038409870117902756 -0
vn -0.9992620944976807 -0.038409870117902756 -0
vn 0 -0 -1
vn 0 -0 -1
vn 0 -0 -1
vn 0 -0 -1
vn 0 -0 -1
vn 0 -0 -1
vn 0 -0 -0.9999999403953552
vn 0 -0 -0.9999999403953552
vn 0 -0 -0.9999999403953552
vn -0.9982743859291077 -0.05872107297182083 -0
vn -0.9982743859291077 -0.05872107297182083 -0
vn -0.9982743859291077 -0.05872107297182083 -0
vn 0 -0 -0.9999999403953552
vn 0 -0 -0.9999999403953552
vn 0 -0 -0.9999999403953552
vn -0.938341498374939 0.34570974111557007 -0
vn -0.938341498374939 0.34570974111557007 -0
vn -0.938341498374939 0.34570974111557007 -0
vn -0.0000000052309623299606756 -0 -1
vn -0.0000000052309623299606756 -0 -1
vn -0.0000000052309623299606756 -0 -1
vn -0.9417418837547302 -0.33633628487586975 -0
vn -0.9417418837547302 -0.33633628487586975 -0
vn -0.9417418837547302 -0.33633628487586975 -0
vn -0.9982765316963196 -0.05868411436676979 -0
vn -0.9982765316963196 -0.05868411436676979 -0
vn -0.9982765316963196 -0.05868411436676979 -0
vn 0 -0 -1
vn 0.0000000009171009507369376 -0.0000000035754050831116047 -0.9999999403953552
vn 0.0000000009171009507369376 -0.0000000035754050831116047 -0.9999999403953552
vn 0.0000000009171009507369376 -0.0000000035754050831116047 -0.9999999403953552
vn 0 -0 -1
vn -0.9417415857315063 -0.33633729815483093 -0
vn -0.9417415857315063 -0.33633729815483093 -0
vn -0.9417415857315063 -0.33633729815483093 -0
vn 0 -0 -0.9999999403953552
vn 0 -0 -0.9999999403953552
vn 0 -0 -1
vn 0.0000000009171001180696692 -0.00000000357540352879937 -1
vn 0.0000000009171001180696692 -0.00000000357540352879937 -1
vn 0 -0 -1
vn 0 -0 -1
vn -0.000000008796479988859573 0.0000000020692287883150584 -1
vn -0.000000008796479988859573 0.0000000020692287883150584 -1
vn -0.000000008796479988859573 0.0000000020692287883150584 -1
vn 0 -0 -1
vn 0 -0 -1
vn 0 -0 -1
vn 0 -0 -1
vn 0.9734320044517517 -0.22897638380527496 -0
vn 0.9734320044517517 -0.22897638380527496 -0
vn 0.9734320044517517 -0.22897638380527496 -0
vn 0 -0 -1
vn 0 -0 -1
vn 0.9734280109405518 -0.2289935201406479 -0
vn 0.9734280109405518 -0.2289935201406479 -0
vn 0.9734280109405518 -0.2289935201406479 -0
vn 0.942389965057373 -0.33451634645462036 -0
vn 0.942389965057373 -0.33451634645462036 -0
vn 0.942389965057373 -0.33451634645462036 -0
vn 0.9423896670341492 -0.33451738953590393 -0
vn 0.9423896670341492 -0.33451738953590393 -0
vn 0.9423896670341492 -0.33451738953590393 -0
vn 0 -0 -1
vn 0.8320609927177429 -0.5546842217445374 -0
vn 0.8320609927177429 -0.5546842217445374 -0
vn 0.8320609927177429 -0.5546842217445374 -0
vn 0 -0 -1
vn 0 -0 -1
vn 0 -0 -1
vn 0 -0 -0.9999999403953552
vn 0 -0 -0.9999999403953552
vn 0 -0 -0.9999999403953552
vn 0 -0 -0.9999999403953552
vn 0 -0 -1
vn 0 -0 -1
vn 0 -0 -1
vn 0 -0 -1
f 3/3/3 2/2/2 1/1/1
f 6/6/6 5/5/5 4/4/4
f 2/2/2 8/8/8 7/7/7
f 11/11/11 10/10/10 9/9/9
f 14/14/14 13/13/13 12/12/12
f 5/5/5 6/6/6 15/15/15
f 1/1/1 7/7/7 16/16/16
f 19/19/19 18/18/18 17/17/17
f 22/22/22 21/21/21 20/20/20
f 25/25/25 24/24/24 23/23/23
f 28/28/28 27/27/27 26/26/26
f 31/31/31 30/30/30 29/29/29
f 27/27/27 32/32/32 26/26/26
f 35/35/35 34/34/34 33/33/33
f 20/20/20 21/21/21 36/36/36
f 39/39/39 38/38/38 37/37/37
f 42/42/42 41/41/41 40/40/40
f 45/45/45 44/44/44 43/43/43
f 48/48/48 47/47/47 46/46/46
f 51/51/51 50/50/50 49/49/49
f 27/27/27 52/52/52 32/32/32
f 55/55/55 54/54/54 53/53/53
f 57/57/57 27/27/27 56/56/56
f 60/60/60 59/59/59 58/58/58
f 63/63/63 62/62/62 61/61/61
f 66/66/66 65/65/65 64/64/64
f 27/27/27 57/57/57 52/52/52
f 69/69/69 68/68/68 67/67/67
f 72/72/72 71/71/71 70/70/70
f 75/75/75 74/74/74 73/73/73
f 78/78/78 77/77/77 76/76/76
f 54/54/54 79/79/79 53/53/53
f 82/82/82 81/81/81 80/80/80
f 56/56/56 83/83/83 57/57/57
f 53/53/53 79/79/79 83/83/83
f 86/86/86 85/85/85 84/84/84
f 65/65/65 88/88/88 87/87/87
f 57/57/57 89/89/89 52/52/52
f 24/24/24 91/91/91 90/90/90
f 54/54/54 92/92/92 79/79/79
f 92/92/92 54/54/54 93/93/93
f 96/96/96 95/95/95 94/94/94
f 98/98/98 93/93/93 97/97/97
f 83/83/83 99/99/99 57/57/57
f 79/79/79 99/99/99 83/83/83
f 57/57/57 99/99/99 89/89/89
f 79/79/79 92/92/92 99/99/99
f 93/93/93 99/99/99 92/92/92
f 97/97/97 100/100/100 98/98/98
f 103/103/103 102/102/102 101/101/101
f 99/99/99 93/93/93 98/98/98
f 105/105/105 97/97/97 104/104/104
f 108/108/108 107/107/107 106/106/106
f 111/111/111 110/110/110 109/109/109
f 114/114/114 113/113/113 112/112/112
f 99/99/99 98/98/98 115/115/115
f 118/118/118 117/117/117 116/116/116
f 97/97/97 105/105/105 100/100/100
f 98/98/98 119/119/119 115/115/115
f 120/120/120 115/115/115 119/119/119
f 100/100/100 121/121/121 98/98/98
f 124/124/124 123/123/123 122/122/122
f 98/98/98 121/121/121 119/119/119
f 100/100/100 105/105/105 121/121/121
f 122/122/122 123/123/123 125/125/125
f 127/127/127 121/121/121 126/126/126
f 121/121/121 128/128/128 126/126/126
f 105/105/105 129/129/129 121/121/121
f 128/128/128 121/121/121 129/129/129
