# VPXTOOL table OBJ file
# VPXTOOL OBJ file
# numVerts: 27 numFaces: 27
o LM_F_FL5_BR4
v 31.308147430419922 4.705868244171143 10.981439590454102
v 31.308147430419922 4.705868244171143 -48.95855712890625
v 34.63568115234375 3.3275625705718994 -48.95855712890625
v 27.98055648803711 3.3275625705718994 10.981439590454102
v 27.98055648803711 3.3275625705718994 -48.95855712890625
v 31.308147430419922 4.705868244171143 -48.95855712890625
v 34.63568115234375 3.3275625705718994 10.981439590454102
v 34.63568115234375 3.3275625705718994 -48.95855712890625
v 36.014015197753906 -0 -48.95855712890625
v 36.014015197753906 -0 -48.95855712890625
v 34.63568115234375 -3.3275625705718994 -48.95855712890625
v 34.63568115234375 -3.3275625705718994 10.981439590454102
v 34.63568115234375 3.3275625705718994 10.981439590454102
v 31.308147430419922 4.705868244171143 10.981439590454102
v 34.63568115234375 3.3275625705718994 -48.95855712890625
v 31.308147430419922 4.705868244171143 10.981439590454102
v 27.98055648803711 3.3275625705718994 10.981439590454102
v 31.308147430419922 4.705868244171143 -48.95855712890625
v 36.014015197753906 -0 10.981439590454102
v 34.63568115234375 3.3275625705718994 10.981439590454102
v 36.014015197753906 -0 -48.95855712890625
v 27.98055648803711 3.3275625705718994 10.981439590454102
v 26.602279663085938 -0 10.981439590454102
v 27.98055648803711 3.3275625705718994 -48.95855712890625
v 36.014015197753906 -0 10.981439590454102
v 36.014015197753906 -0 -48.95855712890625
v 34.63568115234375 -3.3275625705718994 10.981439590454102
vt 0.3892088532447815 0.48063260316848755
vt 0.3904346823692322 0.47149068117141724
vt 0.39148208498954773 0.4712401032447815
vt 0.388144314289093 0.4803839325904846
vt 0.38935428857803345 0.4712401032447815
vt 0.3904346823692322 0.47149068117141724
vt 0.3902412950992584 0.4803839325904846
vt 0.39148208498954773 0.4712401032447815
vt 0.3918822407722473 0.4706355929374695
vt 0.3918822407722473 0.4706355929374695
vt 0.391401469707489 0.4700316786766052
vt 0.39016300439834595 0.47918450832366943
vt 0.3902412950992584 0.4803839325904846
vt 0.3892088532447815 0.48063260316848755
vt 0.39148208498954773 0.4712401032447815
vt 0.3892088532447815 0.48063260316848755
vt 0.388144314289093 0.4803839325904846
vt 0.3904346823692322 0.47149068117141724
vt 0.3906362056732178 0.47978395223617554
vt 0.3902412950992584 0.4803839325904846
vt 0.3918822407722473 0.4706355929374695
vt 0.388144314289093 0.4803839325904846
vt 0.3876720070838928 0.47978395223617554
vt 0.38935428857803345 0.4712401032447815
vt 0.3906362056732178 0.47978395223617554
vt 0.3918822407722473 0.4706355929374695
vt 0.39016300439834595 0.47918450832366943
vn 0.38268229365348816 0.9238799810409546 -0
vn 0.445890873670578 0.8622420430183411 0.2402498573064804
vn 0.13561668992042542 0.990761399269104 -0
vn -0.3826770782470703 0.9238821864128113 -0
vn -0.3826770782470703 0.9238821864128113 -0
vn -0.5930376648902893 0.8012935519218445 0.07896190881729126
vn 0.92387855052948 0.3826858103275299 -0
vn 0.8936148285865784 0.37015005946159363 0.25385329127311707
vn 0.584304690361023 0.8115344047546387 -0
vn 0.7735791802406311 -0.35458868741989136 0.5252068042755127
vn 0.9855550527572632 -0.14818841218948364 0.08198487758636475
vn 0.92387855052948 -0.3826858103275299 -0
vn 0.38268232345581055 0.9238799810409546 -0
vn 0.38268232345581055 0.9238799810409546 -0
vn 0.3560795485973358 0.8994429707527161 0.25339627265930176
vn -0.3826771080493927 0.9238821864128113 -0
vn -0.3826771080493927 0.9238821864128113 -0
vn -0.3812672197818756 0.8890100717544556 0.25356754660606384
vn 0.9571177363395691 0.10356473922729492 0.27055513858795166
vn 0.9238786101341248 0.3826858103275299 -0
vn 0.7735792994499207 0.35458871722221375 0.5252067446708679
vn -0.9238834381103516 0.3826739192008972 -0
vn -0.9601621627807617 0.09620559215545654 0.26236069202423096
vn -0.9238834381103516 0.3826739192008972 -0
vn 0.9571028351783752 -0.10360074043273926 0.2705940902233124
vn 0.7856565117835999 -0.3254319131374359 0.5261540412902832
vn 0.9238786101341248 -0.3826858103275299 -0
f 3/3/3 2/2/2 1/1/1
f 6/6/6 5/5/5 4/4/4
f 9/9/9 8/8/8 7/7/7
f 12/12/12 11/11/11 10/10/10
f 15/15/15 14/14/14 13/13/13
f 18/18/18 17/17/17 16/16/16
f 21/21/21 20/20/20 19/19/19
f 24/24/24 23/23/23 22/22/22
f 27/27/27 26/26/26 25/25/25
