# VPXTOOL table OBJ file
# VPXTOOL OBJ file
# numVerts: 48 numFaces: 51
o LM_GI_gi07_UnderPF
v 321.5293884277344 459.12396240234375 -32.3721809387207
v 319.7341003417969 468.1492919921875 -32.3721809387207
v 321.5293884277344 459.12396240234375 -26.567468643188477
v 321.5293884277344 459.12396240234375 -32.3721809387207
v 321.5293884277344 459.12396240234375 -26.567468643188477
v 319.7341003417969 450.0987243652344 -26.567468643188477
v 297.9451599121094 435.5398254394531 -26.567468643188477
v 321.5293884277344 459.12396240234375 -26.567468643188477
v 297.9451599121094 482.7081604003906 -26.567468643188477
v 319.7341003417969 450.0987243652344 -32.3721809387207
v 321.5293884277344 459.12396240234375 -32.3721809387207
v 319.7341003417969 450.0987243652344 -26.567468643188477
v 297.9451599121094 482.7081604003906 -26.567468643188477
v 274.3609924316406 459.12396240234375 -26.567468643188477
v 297.9451599121094 435.5398254394531 -26.567468643188477
v 314.6217041015625 442.44744873046875 -26.567468643188477
v 319.7341003417969 450.0987243652344 -26.567468643188477
v 321.5293884277344 459.12396240234375 -26.567468643188477
v 319.7341003417969 450.0987243652344 -32.3721809387207
v 319.7341003417969 450.0987243652344 -26.567468643188477
v 314.6217041015625 442.44744873046875 -26.567468643188477
v 314.6217041015625 442.44744873046875 -32.3721809387207
v 319.7341003417969 450.0987243652344 -32.3721809387207
v 314.6217041015625 442.44744873046875 -26.567468643188477
v 321.5293884277344 459.12396240234375 -26.567468643188477
v 306.9704284667969 437.3350830078125 -26.567468643188477
v 314.6217041015625 442.44744873046875 -26.567468643188477
v 297.9451599121094 435.5398254394531 -26.567468643188477
v 306.9704284667969 437.3350830078125 -32.3721809387207
v 314.6217041015625 442.44744873046875 -32.3721809387207
v 306.9704284667969 437.3350830078125 -26.567468643188477
v 314.6217041015625 442.44744873046875 -32.3721809387207
v 314.6217041015625 442.44744873046875 -26.567468643188477
v 306.9704284667969 437.3350830078125 -26.567468643188477
v 274.3609924316406 459.12396240234375 -26.567468643188477
v 288.91986083984375 437.3350830078125 -26.567468643188477
v 297.9451599121094 435.5398254394531 -32.3721809387207
v 306.9704284667969 437.3350830078125 -32.3721809387207
v 297.9451599121094 435.5398254394531 -26.567468643188477
v 288.91986083984375 437.3350830078125 -32.3721809387207
v 297.9451599121094 435.5398254394531 -32.3721809387207
v 288.91986083984375 437.3350830078125 -26.567468643188477
v 306.9704284667969 437.3350830078125 -32.3721809387207
v 306.9704284667969 437.3350830078125 -26.567468643188477
v 297.9451599121094 435.5398254394531 -26.567468643188477
v 297.9451599121094 435.5398254394531 -32.3721809387207
v 297.9451599121094 435.5398254394531 -26.567468643188477
v 288.91986083984375 437.3350830078125 -26.567468643188477
vt 0.9353051781654358 0.9354550838470459
vt 0.9384627342224121 0.9358320236206055
vt 0.9361725449562073 0.9355897903442383
vt 0.9353051781654358 0.9354550838470459
vt 0.9361725449562073 0.9355897903442383
vt 0.9330284595489502 0.9362062811851501
vt 0.9279765486717224 0.9424033164978027
vt 0.9361725449562073 0.9355897903442383
vt 0.944433331489563 0.9418236613273621
vt 0.9321571588516235 0.9360727667808533
vt 0.9353051781654358 0.9354550838470459
vt 0.9330284595489502 0.9362062811851501
vt 0.944433331489563 0.9418236613273621
vt 0.9361725449562073 0.9486395120620728
vt 0.9279765486717224 0.9424033164978027
vt 0.9303704500198364 0.9377180337905884
vt 0.9330284595489502 0.9362062811851501
vt 0.9361725449562073 0.9355897903442383
vt 0.9321571588516235 0.9360727667808533
vt 0.9330284595489502 0.9362062811851501
vt 0.9303704500198364 0.9377180337905884
vt 0.9294957518577576 0.9375872611999512
vt 0.9321571588516235 0.9360727667808533
vt 0.9303704500198364 0.9377180337905884
vt 0.9361725449562073 0.9355897903442383
vt 0.928598165512085 0.9398935437202454
vt 0.9303704500198364 0.9377180337905884
vt 0.9279765486717224 0.9424033164978027
vt 0.9277213215827942 0.9397664666175842
vt 0.9294957518577576 0.9375872611999512
vt 0.928598165512085 0.9398935437202454
vt 0.9294957518577576 0.9375872611999512
vt 0.9303704500198364 0.9377180337905884
vt 0.928598165512085 0.9398935437202454
vt 0.9361725449562073 0.9486395120620728
vt 0.928598165512085 0.944869339466095
vt 0.9270988702774048 0.9422805309295654
vt 0.9277213215827942 0.9397664666175842
vt 0.9279765486717224 0.9424033164978027
vt 0.9277213215827942 0.9447506666183472
vt 0.9270988702774048 0.9422805309295654
vt 0.928598165512085 0.944869339466095
vt 0.9277213215827942 0.9397664666175842
vt 0.928598165512085 0.9398935437202454
vt 0.9279765486717224 0.9424033164978027
vt 0.9270988702774048 0.9422805309295654
vt 0.9279765486717224 0.9424033164978027
vt 0.928598165512085 0.944869339466095
vn -0.9807844758033752 -0.1950942426919937 -0
vn -0.9807844758033752 -0.1950942426919937 -0
vn -0.9807844758033752 -0.1950942426919937 -0
vn -0.980783998966217 0.1950969249010086 -0
vn -0.980783998966217 0.1950969249010086 -0
vn -0.980783998966217 0.1950969249010086 -0
vn -0.00000008980336474451178 -0 -1
vn -0.00000008980336474451178 -0 -1
vn -0.00000008980336474451178 -0 -1
vn -0.9807854294776917 0.19508937001228333 -0
vn -0.9807854294776917 0.19508937001228333 -0
vn -0.9807854294776917 0.19508937001228333 -0
vn 0.00000008980362764532401 -0 -1
vn 0.00000008980362764532401 -0 -1
vn 0.00000008980362764532401 -0 -1
vn -0.0000007707200211370946 -0 -1
vn -0.0000007707200211370946 -0 -1
vn -0.0000007707200211370946 -0 -1
vn -0.831467866897583 0.5555727481842041 -0
vn -0.831467866897583 0.5555727481842041 -0
vn -0.831467866897583 0.5555727481842041 -0
vn -0.8314715623855591 0.5555674433708191 -0
vn -0.8314715623855591 0.5555674433708191 -0
vn -0.8314715623855591 0.5555674433708191 -0
vn 0 -0 -0.9999999403953552
vn 0 -0 -0.9999999403953552
vn 0 -0 -0.9999999403953552
vn 0 -0 -0.9999999403953552
vn -0.5555658936500549 0.8314725756645203 -0
vn -0.5555658936500549 0.8314725756645203 -0
vn -0.5555658936500549 0.8314725756645203 -0
vn -0.5555655360221863 0.8314726948738098 -0
vn -0.5555655360221863 0.8314726948738098 -0
vn -0.5555655360221863 0.8314726948738098 -0
vn 0 -0 -0.9999999403953552
vn 0 -0 -0.9999999403953552
vn -0.19509312510490417 0.9807847738265991 -0
vn -0.19509312510490417 0.9807847738265991 -0
vn -0.19509312510490417 0.9807847738265991 -0
vn 0.19509312510490417 0.9807847738265991 -0
vn 0.19509312510490417 0.9807847738265991 -0
vn 0.19509312510490417 0.9807847738265991 -0
vn -0.19509276747703552 0.9807847738265991 -0
vn -0.19509276747703552 0.9807847738265991 -0
vn -0.19509276747703552 0.9807847738265991 -0
vn 0.1950913369655609 0.980785071849823 -0
vn 0.1950913369655609 0.980785071849823 -0
vn 0.1950913369655609 0.980785071849823 -0
f 3/3/3 2/2/2 1/1/1
f 6/6/6 5/5/5 4/4/4
f 9/9/9 8/8/8 7/7/7
f 12/12/12 11/11/11 10/10/10
f 15/15/15 14/14/14 13/13/13
f 18/18/18 17/17/17 16/16/16
f 21/21/21 20/20/20 19/19/19
f 24/24/24 23/23/23 22/22/22
f 27/27/27 26/26/26 25/25/25
f 26/26/26 28/28/28 25/25/25
f 31/31/31 30/30/30 29/29/29
f 34/34/34 33/33/33 32/32/32
f 28/28/28 36/36/36 35/35/35
f 39/39/39 38/38/38 37/37/37
f 42/42/42 41/41/41 40/40/40
f 45/45/45 44/44/44 43/43/43
f 48/48/48 47/47/47 46/46/46
