# VPXTOOL table OBJ file
# VPXTOOL OBJ file
# numVerts: 78 numFaces: 81
o LM_GI_gi17_BR2
v 44.129634857177734 -29.486478805541992 -66.85748291015625
v 37.529170989990234 -37.529170989990234 -66.85748291015625
v 45.8121452331543 -30.61067008972168 -66.85748291015625
v 46.49526596069336 -31.0671329498291 -65.22623443603516
v 45.8121452331543 -30.61067008972168 -66.85748291015625
v 38.96001434326172 -38.96001434326172 -66.85748291015625
v 44.129634857177734 -29.486478805541992 -66.85748291015625
v 31.419626235961914 -20.993921279907227 -56.23046875
v 26.720218658447266 -26.720205307006836 -56.23046875
v 46.57809066772461 -31.122486114501953 -63.815757751464844
v 46.49526596069336 -31.0671329498291 -65.22623443603516
v 39.540985107421875 -39.540958404541016 -65.22623443603516
v 37.529170989990234 -37.529170989990234 -66.85748291015625
v 44.129634857177734 -29.486478805541992 -66.85748291015625
v 26.720218658447266 -26.720205307006836 -56.23046875
v 37.529170989990234 -37.529170989990234 -66.85748291015625
v 38.96001434326172 -38.96001434326172 -66.85748291015625
v 45.8121452331543 -30.61067008972168 -66.85748291015625
v 39.540985107421875 -39.540958404541016 -65.22623443603516
v 46.49526596069336 -31.0671329498291 -65.22623443603516
v 38.96001434326172 -38.96001434326172 -66.85748291015625
v 26.720218658447266 -26.720205307006836 -56.23046875
v 31.419626235961914 -20.993921279907227 -56.23046875
v 26.720218658447266 -26.720205307006836 -54.87119674682617
v 39.61144256591797 -39.611412048339844 -63.815757751464844
v 46.57809066772461 -31.122486114501953 -63.815757751464844
v 39.540985107421875 -39.540958404541016 -65.22623443603516
v 37.529170989990234 -37.529170989990234 -66.85748291015625
v 26.720218658447266 -26.720205307006836 -56.23046875
v 29.486492156982422 -44.12964630126953 -66.85748291015625
v 37.529170989990234 -37.529170989990234 -66.85748291015625
v 30.61067008972168 -45.8121337890625 -66.85748291015625
v 26.720218658447266 -26.720205307006836 -56.23046875
v 26.720218658447266 -26.720205307006836 -54.87119674682617
v 20.993921279907227 -31.419626235961914 -54.87119674682617
v 39.540985107421875 -39.540958404541016 -65.22623443603516
v 38.96001434326172 -38.96001434326172 -66.85748291015625
v 31.065643310546875 -46.49301528930664 -65.22623443603516
v 26.720218658447266 -26.720205307006836 -56.23046875
v 20.993921279907227 -31.419626235961914 -56.23046875
v 29.486492156982422 -44.12964630126953 -66.85748291015625
v 20.993921279907227 -31.419626235961914 -56.23046875
v 26.720218658447266 -26.720205307006836 -56.23046875
v 20.993921279907227 -31.419626235961914 -54.87119674682617
v 37.529170989990234 -37.529170989990234 -66.85748291015625
v 29.486492156982422 -44.12964630126953 -66.85748291015625
v 39.61144256591797 -39.611412048339844 -63.815757751464844
v 39.540985107421875 -39.540958404541016 -65.22623443603516
v 31.065643310546875 -46.49301528930664 -65.22623443603516
v 38.96001434326172 -38.96001434326172 -66.85748291015625
v 30.61067008972168 -45.8121337890625 -66.85748291015625
v 31.065643310546875 -46.49301528930664 -65.22623443603516
v 29.486492156982422 -44.12964630126953 -66.85748291015625
v 20.993921279907227 -31.419626235961914 -56.23046875
v 14.46087646484375 -34.91162109375 -56.23046875
v 31.122514724731445 -46.57811737060547 -63.815757751464844
v 39.61144256591797 -39.611412048339844 -63.815757751464844
v 31.065643310546875 -46.49301528930664 -65.22623443603516
v 29.486492156982422 -44.12964630126953 -66.85748291015625
v 21.085025787353516 -50.90372085571289 -66.85748291015625
v 20.31063461303711 -49.03423309326172 -66.85748291015625
v 29.486492156982422 -44.12964630126953 -66.85748291015625
v 14.46087646484375 -34.91162109375 -56.23046875
v 31.065643310546875 -46.49301528930664 -65.22623443603516
v 30.61067008972168 -45.8121337890625 -66.85748291015625
v 21.085025787353516 -50.90372085571289 -66.85748291015625
v 29.486492156982422 -44.12964630126953 -66.85748291015625
v 20.31063461303711 -49.03423309326172 -66.85748291015625
v 21.085025787353516 -50.90372085571289 -66.85748291015625
v 31.122514724731445 -46.57811737060547 -63.815757751464844
v 31.065643310546875 -46.49301528930664 -65.22623443603516
v 21.43757438659668 -51.754817962646484 -63.815757751464844
v 21.39837074279785 -51.66026306152344 -65.22623443603516
v 31.065643310546875 -46.49301528930664 -65.22623443603516
v 21.085025787353516 -50.90372085571289 -66.85748291015625
v 31.065643310546875 -46.49301528930664 -65.22623443603516
v 21.39837074279785 -51.66026306152344 -65.22623443603516
v 21.43757438659668 -51.754817962646484 -63.815757751464844
vt 0.13099992275238037 0.17859941720962524
vt 0.1295900046825409 0.18020808696746826
vt 0.13080266118049622 0.1782262921333313
vt 0.13098785281181335 0.17810821533203125
vt 0.13080266118049622 0.1782262921333313
vt 0.1293395459651947 0.17989641427993774
vt 0.13099992275238037 0.17859941720962524
vt 0.13421446084976196 0.1816309094429016
vt 0.13320913910865784 0.18277257680892944
vt 0.13120737671852112 0.17811870574951172
vt 0.13098785281181335 0.17810821533203125
vt 0.12950338423252106 0.1798025369644165
vt 0.1295900046825409 0.18020808696746826
vt 0.13099992275238037 0.17859941720962524
vt 0.13320913910865784 0.18277257680892944
vt 0.1295900046825409 0.18020808696746826
vt 0.1293395459651947 0.17989641427993774
vt 0.13080266118049622 0.1782262921333313
vt 0.12950338423252106 0.1798025369644165
vt 0.13098785281181335 0.17810821533203125
vt 0.1293395459651947 0.17989641427993774
vt 0.13320913910865784 0.18277257680892944
vt 0.13421446084976196 0.1816309094429016
vt 0.13342894613742828 0.18279880285263062
vt 0.12972047924995422 0.179815411567688
vt 0.13120737671852112 0.17811870574951172
vt 0.12950338423252106 0.1798025369644165
vt 0.1295900046825409 0.18020808696746826
vt 0.13320913910865784 0.18277257680892944
vt 0.12843525409698486 0.18212741613388062
vt 0.1295900046825409 0.18020808696746826
vt 0.12814126908779144 0.18188869953155518
vt 0.13320913910865784 0.18277257680892944
vt 0.13342894613742828 0.18279880285263062
vt 0.13260525465011597 0.1841621994972229
vt 0.12950338423252106 0.1798025369644165
vt 0.1293395459651947 0.17989641427993774
vt 0.12828810513019562 0.18182402849197388
vt 0.13320913910865784 0.18277257680892944
vt 0.1323852688074112 0.18413639068603516
vt 0.12843525409698486 0.18212741613388062
vt 0.1323852688074112 0.18413639068603516
vt 0.13320913910865784 0.18277257680892944
vt 0.13260525465011597 0.1841621994972229
vt 0.1295900046825409 0.18020808696746826
vt 0.12843525409698486 0.18212741613388062
vt 0.12972047924995422 0.179815411567688
vt 0.12950338423252106 0.1798025369644165
vt 0.12828810513019562 0.18182402849197388
vt 0.1293395459651947 0.17989641427993774
vt 0.12814126908779144 0.18188869953155518
vt 0.12828810513019562 0.18182402849197388
vt 0.12843525409698486 0.18212741613388062
vt 0.1323852688074112 0.18413639068603516
vt 0.13177379965782166 0.1856701374053955
vt 0.12850287556648254 0.18183952569961548
vt 0.12972047924995422 0.179815411567688
vt 0.12828810513019562 0.18182402849197388
vt 0.12843525409698486 0.18212741613388062
vt 0.12725237011909485 0.1841273307800293
vt 0.12757858633995056 0.18428421020507813
vt 0.12843525409698486 0.18212741613388062
vt 0.13177379965782166 0.1856701374053955
vt 0.12828810513019562 0.18182402849197388
vt 0.12814126908779144 0.18188869953155518
vt 0.12725237011909485 0.1841273307800293
vt 0.12843525409698486 0.18212741613388062
vt 0.12757858633995056 0.18428421020507813
vt 0.12725237011909485 0.1841273307800293
vt 0.12850287556648254 0.18183952569961548
vt 0.12828810513019562 0.18182402849197388
vt 0.12759961187839508 0.18411368131637573
vt 0.12738634645938873 0.1840948462486267
vt 0.12828810513019562 0.18182402849197388
vt 0.12725237011909485 0.1841273307800293
vt 0.12828810513019562 0.18182402849197388
vt 0.12738634645938873 0.1840948462486267
vt 0.12759961187839508 0.18411368131637573
vn -0.004519553855061531 -0.018089743331074715 -0.999826192855835
vn 0.013098957017064095 0.01320848148316145 -0.999826967716217
vn 0.00000476801233162405 -0 -1
vn 0.6902827024459839 -0.5678820013999939 -0.4483523666858673
vn 0.6910576224327087 -0.5671403408050537 -0.44809725880622864
vn 0.6910576224327087 -0.5671403408050537 -0.44809725880622864
vn -0.4563293159008026 0.37023136019706726 -0.8091306090354919
vn -0.4426839053630829 0.3632989227771759 -0.8197834491729736
vn -0.4426839053630829 0.3632989227771759 -0.8197834491729736
vn 0.7711101770401001 -0.6328296661376953 -0.07011257857084274
vn 0.7710962891578674 -0.6329668760299683 -0.0690186470746994
vn 0.7711101770401001 -0.6328296661376953 -0.07011257857084274
vn -0.44192516803741455 0.3803638517856598 -0.812419593334198
vn -0.4593125879764557 0.36059242486953735 -0.8117913603782654
vn -0.44268321990966797 0.3633005619049072 -0.8197831511497498
vn 0.018580347299575806 -0.0008330419659614563 -0.9998270273208618
vn 0 -0 -1
vn 0 -0 -1
vn 0.6910592317581177 -0.5671373605728149 -0.448098748922348
vn 0.6903549432754517 -0.5679855346679688 -0.44811001420021057
vn 0.6910592317581177 -0.5671373605728149 -0.448098748922348
vn -0.773013710975647 0.6343892216682434 -0
vn -0.773013710975647 0.6343892216682434 -0
vn -0.773013710975647 0.6343892216682434 -0
vn 0.771108090877533 -0.6328303813934326 -0.07012764364480972
vn 0.771108090877533 -0.6328303813934326 -0.07012764364480972
vn 0.771108090877533 -0.6328303813934326 -0.07012764364480972
vn -0.38036492466926575 0.44192618131637573 -0.8124184608459473
vn -0.3633018732070923 0.44268274307250977 -0.8197827339172363
vn -0.3562217056751251 0.4588697552680969 -0.8139684796333313
vn 0.0008313674479722977 -0.018580423668026924 -0.9998270273208618
vn 0 -0 -1
vn -0.6343913674354553 0.7730119824409485 -0
vn -0.6343913674354553 0.7730119824409485 -0
vn -0.6343913674354553 0.7730119824409485 -0
vn 0.5669729113578796 -0.6912010312080383 -0.44808781147003174
vn 0.5669729113578796 -0.6912010312080383 -0.44808781147003174
vn 0.5679671168327332 -0.6902511715888977 -0.44829294085502625
vn -0.3632983863353729 0.44268378615379333 -0.8197836875915527
vn -0.3632983863353729 0.44268378615379333 -0.8197836875915527
vn -0.3688212037086487 0.45706412196159363 -0.8093597888946533
vn -0.6343887448310852 0.7730141878128052 -0
vn -0.6343887448310852 0.7730141878128052 -0
vn -0.6343887448310852 0.7730141878128052 -0
vn -0.01320804562419653 -0.013094686903059483 -0.9998270273208618
vn 0.01839754730463028 -0.0027301209047436714 -0.9998270273208618
vn 0.6326414346694946 -0.7712632417678833 -0.07012683898210526
vn 0.6326414346694946 -0.7712632417678833 -0.07012683898210526
vn 0.6337156891822815 -0.7703808546066284 -0.07012677192687988
vn 0.5675089359283447 -0.6915150284767151 -0.4469233751296997
vn 0.5675089359283447 -0.6915150284767151 -0.4469233751296997
vn 0.5671618580818176 -0.6909957528114319 -0.4481653869152069
vn -0.28112927079200745 0.5156578421592712 -0.8093597888946533
vn -0.269957035779953 0.5050523281097412 -0.8197836875915527
vn -0.269957035779953 0.5050523281097412 -0.8197836875915527
vn 0.6326876282691956 -0.7709147334098816 -0.07346270978450775
vn 0.6327461004257202 -0.7710020542144775 -0.07202840596437454
vn 0.6338194608688354 -0.7701365351676941 -0.07185108214616776
vn -0.002810372505337 -0.01838545873761177 -0.9998270273208618
vn 0 -0 -1
vn -0.2699558436870575 0.5050535798072815 -0.8197833895683289
vn -0.287619948387146 0.5047078728675842 -0.8139685392379761
vn -0.2699558436870575 0.5050535798072815 -0.8197833895683289
vn 0.42044273018836975 -0.7894970774650574 -0.4471267759799957
vn 0.42170071601867676 -0.7889420986175537 -0.4469216465950012
vn 0.42170071601867676 -0.7889420986175537 -0.4469216465950012
vn -0.01551133394241333 -0.010266197845339775 -0.999826967716217
vn -0.0000023839947971282527 -0 -1
vn -0.0000023839947971282527 -0 -1
vn 0.46890127658843994 -0.8803088068962097 -0.07202845811843872
vn 0.4702255427837372 -0.8797146081924438 -0.0706418976187706
vn 0.47117114067077637 -0.8790839314460754 -0.07217518240213394
vn 0.4214879870414734 -0.7884337902069092 -0.4480178952217102
vn 0.4204758405685425 -0.7896055579185486 -0.44690391421318054
vn 0.4217022955417633 -0.7889509797096252 -0.44690433144569397
vn 0.46896126866340637 -0.8802905082702637 -0.07186033576726913
vn 0.4712705612182617 -0.8790419101715088 -0.07203760743141174
vn 0.4701395034790039 -0.8795525431632996 -0.07318511605262756
f 3/3/3 2/2/2 1/1/1
f 6/6/6 5/5/5 4/4/4
f 9/9/9 8/8/8 7/7/7
f 12/12/12 11/11/11 10/10/10
f 15/15/15 14/14/14 13/13/13
f 18/18/18 17/17/17 16/16/16
f 21/21/21 20/20/20 19/19/19
f 24/24/24 23/23/23 22/22/22
f 27/27/27 26/26/26 25/25/25
f 30/30/30 29/29/29 28/28/28
f 17/17/17 32/32/32 31/31/31
f 35/35/35 34/34/34 33/33/33
f 38/38/38 37/37/37 36/36/36
f 41/41/41 40/40/40 39/39/39
f 44/44/44 43/43/43 42/42/42
f 32/32/32 46/46/46 45/45/45
f 49/49/49 48/48/48 47/47/47
f 52/52/52 51/51/51 50/50/50
f 55/55/55 54/54/54 53/53/53
f 58/58/58 57/57/57 56/56/56
f 32/32/32 60/60/60 59/59/59
f 63/63/63 62/62/62 61/61/61
f 66/66/66 65/65/65 64/64/64
f 69/69/69 68/68/68 67/67/67
f 72/72/72 71/71/71 70/70/70
f 75/75/75 74/74/74 73/73/73
f 78/78/78 77/77/77 76/76/76
