# VPXTOOL table OBJ file
# VPXTOOL OBJ file
# numVerts: 72 numFaces: 72
o LM_L_LF2_swR1
v 2021.199462890625 10298.1767578125 -42271.38671875
v 457.4103088378906 9405.6904296875 -36906.8984375
v 2410.196044921875 31765.759765625 -34928.01171875
v -2135.523681640625 30667.974609375 -38229.765625
v -2571.901123046875 7738.2060546875 -40651.359375
v 2021.199462890625 10298.1767578125 -42271.38671875
v -2135.523681640625 30667.974609375 -38229.765625
v -1378.5633544921875 36018.48828125 -31905.767578125
v -2571.901123046875 7738.2060546875 -40651.359375
v 2410.196044921875 31765.759765625 -34928.01171875
v 920.8138427734375 25583.73828125 -40615.97265625
v 2021.199462890625 10298.1767578125 -42271.38671875
v 920.8138427734375 25583.73828125 -40615.97265625
v -2135.523681640625 30667.974609375 -38229.765625
v 2021.199462890625 10298.1767578125 -42271.38671875
v 2410.196044921875 31765.759765625 -34928.01171875
v 921.6054077148438 41305.734375 -35196.1171875
v 920.8138427734375 25583.73828125 -40615.97265625
v 921.6054077148438 41305.734375 -35196.1171875
v -2135.523681640625 30667.974609375 -38229.765625
v 920.8138427734375 25583.73828125 -40615.97265625
v -1378.5633544921875 36018.48828125 -31905.767578125
v -2135.523681640625 30667.974609375 -38229.765625
v -2553.35595703125 64436.33203125 -17882.72265625
v -368.416015625 55915.72265625 -27271.46484375
v -2135.523681640625 30667.974609375 -38229.765625
v 921.6054077148438 41305.734375 -35196.1171875
v 2410.196044921875 31765.759765625 -34928.01171875
v 2439.2578125 61828.69921875 -21033.90234375
v 921.6054077148438 41305.734375 -35196.1171875
v 2410.196044921875 31765.759765625 -34928.01171875
v 464.53436279296875 52255.421875 -22685.685546875
v 2439.2578125 61828.69921875 -21033.90234375
v -368.416015625 55915.72265625 -27271.46484375
v -2553.35595703125 64436.33203125 -17882.72265625
v -2135.523681640625 30667.974609375 -38229.765625
v -368.416015625 55915.72265625 -27271.46484375
v 921.6054077148438 41305.734375 -35196.1171875
v 2439.2578125 61828.69921875 -21033.90234375
v 464.53436279296875 52255.421875 -22685.685546875
v 467.0221252441406 63427.65625 -13491.9296875
v 2439.2578125 61828.69921875 -21033.90234375
v -368.416015625 55915.72265625 -27271.46484375
v 2439.2578125 61828.69921875 -21033.90234375
v 927.485595703125 67904.734375 -16966.427734375
v 927.485595703125 67904.734375 -16966.427734375
v -2553.35595703125 64436.33203125 -17882.72265625
v -368.416015625 55915.72265625 -27271.46484375
v 467.0221252441406 63427.65625 -13491.9296875
v -218.58445739746094 71979.9296875 -1921.51708984375
v 2439.2578125 61828.69921875 -21033.90234375
v 175.04849243164063 77888.4375 -3870.0673828125
v 927.485595703125 67904.734375 -16966.427734375
v 2439.2578125 61828.69921875 -21033.90234375
v 175.04849243164063 77888.4375 -3870.0673828125
v -2553.35595703125 64436.33203125 -17882.72265625
v 927.485595703125 67904.734375 -16966.427734375
v 175.04849243164063 77888.4375 -3870.0673828125
v 2439.2578125 61828.69921875 -21033.90234375
v 2056.25439453125 80082.1953125 12494.8515625
v -2522.371826171875 81608.3828125 11980.7666015625
v -2553.35595703125 64436.33203125 -17882.72265625
v 175.04849243164063 77888.4375 -3870.0673828125
v 2056.25439453125 80082.1953125 12494.8515625
v 72.25838470458984 84807.546875 10904.2578125
v 175.04849243164063 77888.4375 -3870.0673828125
v 72.25838470458984 84807.546875 10904.2578125
v -2522.371826171875 81608.3828125 11980.7666015625
v 175.04849243164063 77888.4375 -3870.0673828125
v -2522.371826171875 81608.3828125 11980.7666015625
v 72.25838470458984 84807.546875 10904.2578125
v 2056.25439453125 80082.1953125 12494.8515625
vt 0.5933588147163391 0.8488264083862305
vt 0.5932440161705017 0.8491652011871338
vt 0.592805027961731 0.8516629934310913
vt 0.5923832058906555 0.8511892557144165
vt 0.5929602980613708 0.8488539457321167
vt 0.5933588147163391 0.8488264083862305
vt 0.5923832058906555 0.8511892557144165
vt 0.5921946167945862 0.8521867394447327
vt 0.5929602980613708 0.8488539457321167
vt 0.592805027961731 0.8516629934310913
vt 0.5928820371627808 0.8504908084869385
vt 0.5933588147163391 0.8488264083862305
vt 0.5928820371627808 0.8504908084869385
vt 0.5923832058906555 0.8511892557144165
vt 0.5933588147163391 0.8488264083862305
vt 0.592805027961731 0.8516629934310913
vt 0.5923604369163513 0.8524590134620667
vt 0.5928820371627808 0.8504908084869385
vt 0.5923604369163513 0.8524590134620667
vt 0.5923832058906555 0.8511892557144165
vt 0.5928820371627808 0.8504908084869385
vt 0.5921946167945862 0.8521867394447327
vt 0.5923832058906555 0.8511892557144165
vt 0.5910909175872803 0.8562202453613281
vt 0.5917027592658997 0.8545219302177429
vt 0.5923832058906555 0.8511892557144165
vt 0.5923604369163513 0.8524590134620667
vt 0.592805027961731 0.8516629934310913
vt 0.5918091535568237 0.8556987047195435
vt 0.5923604369163513 0.8524590134620667
vt 0.592805027961731 0.8516629934310913
vt 0.5918104648590088 0.85456383228302
vt 0.5918091535568237 0.8556987047195435
vt 0.5917027592658997 0.8545219302177429
vt 0.5910909175872803 0.8562202453613281
vt 0.5923832058906555 0.8511892557144165
vt 0.5917027592658997 0.8545219302177429
vt 0.5923604369163513 0.8524590134620667
vt 0.5918091535568237 0.8556987047195435
vt 0.5918104648590088 0.85456383228302
vt 0.5913656949996948 0.8564278483390808
vt 0.5918091535568237 0.8556987047195435
vt 0.5917027592658997 0.8545219302177429
vt 0.5918091535568237 0.8556987047195435
vt 0.5913575887680054 0.8565542697906494
vt 0.5913575887680054 0.8565542697906494
vt 0.5910909175872803 0.8562202453613281
vt 0.5917027592658997 0.8545219302177429
vt 0.5913656949996948 0.8564278483390808
vt 0.5909024477005005 0.8582693338394165
vt 0.5918091535568237 0.8556987047195435
vt 0.5908151268959045 0.8584845066070557
vt 0.5913575887680054 0.8565542697906494
vt 0.5918091535568237 0.8556987047195435
vt 0.5908151268959045 0.8584845066070557
vt 0.5910909175872803 0.8562202453613281
vt 0.5913575887680054 0.8565542697906494
vt 0.5908151268959045 0.8584845066070557
vt 0.5918091535568237 0.8556987047195435
vt 0.5906748175621033 0.8602275848388672
vt 0.590194046497345 0.8602133393287659
vt 0.5910909175872803 0.8562202453613281
vt 0.5908151268959045 0.8584845066070557
vt 0.5906748175621033 0.8602275848388672
vt 0.5904116034507751 0.8604658842086792
vt 0.5908151268959045 0.8584845066070557
vt 0.5904116034507751 0.8604658842086792
vt 0.590194046497345 0.8602133393287659
vt 0.5908151268959045 0.8584845066070557
vt 0.590194046497345 0.8602133393287659
vt 0.5904116034507751 0.8604658842086792
vt 0.5906748175621033 0.8602275848388672
vn 0.996309220790863 0.03751913458108902 -0.07720261812210083
vn 0.856970489025116 -0.1065099686384201 0.5042392611503601
vn 0.9788651466369629 0.19829155504703522 0.05003519356250763
vn -0.5432210564613342 0.3096846044063568 -0.7803885340690613
vn -0.605798602104187 -0.0456940233707428 -0.7943047285079956
vn -0.08957932889461517 0.08249647915363312 -0.9925572872161865
vn -0.9662886261940002 -0.012100208550691605 -0.25717654824256897
vn -0.93746018409729 -0.05619385838508606 0.34352684020996094
vn -0.9441367983818054 -0.1413867026567459 0.2976835370063782
vn 0.962307333946228 0.26473501324653625 -0.06228967010974884
vn 0.8086097836494446 0.04575781524181366 -0.5865634679794312
vn 0.8037927150726318 0.05691906064748764 -0.5921804904937744
vn -0.2973182797431946 0.052653681486845016 -0.9533255100250244
vn -0.7461228370666504 0.18686527013778687 -0.6390478014945984
vn -0.38758739829063416 -0.18496212363243103 -0.9030863642692566
vn 0.9880383610725403 -0.08221924304962158 -0.13046087324619293
vn 0.7835004925727844 0.28737062215805054 -0.5509493350982666
vn 0.7776557207107544 0.17418457567691803 -0.6040788888931274
vn 0.013804018497467041 0.5128539204597473 -0.8583648800849915
vn -0.4263452887535095 0.14697915315628052 -0.8925395011901855
vn 0.021815940737724304 0.12988734245300293 -0.9912887215614319
vn -0.8580632209777832 -0.18101415038108826 0.48058438301086426
vn -0.9919426441192627 -0.07230883836746216 -0.10402490198612213
vn -0.9748871326446533 0.18602852523326874 0.12242710590362549
vn -0.6510970592498779 0.5229151248931885 -0.5501205325126648
vn -0.6999378800392151 0.14300866425037384 -0.6997397541999817
vn -0.26924169063568115 0.4815722405910492 -0.8340247273445129
vn 0.9977428317070007 -0.0258729737251997 -0.0619664341211319
vn 0.9990675449371338 0.016618773341178894 -0.03984999656677246
vn 0.7999093532562256 0.281187504529953 -0.5301685333251953
vn 0.638395369052887 -0.47399115562438965 0.6064519286155701
vn 0.6424195766448975 -0.48056232929229736 0.5969563722610474
vn 0.9151661396026611 0.05531692877411842 0.39926302433013916
vn -0.6922242045402527 0.2437194287776947 -0.6792837381362915
vn -0.9438194036483765 0.3093278706073761 -0.11627998948097229
vn -0.7664212584495544 0.0683629959821701 -0.6386899352073669
vn 0.36793971061706543 0.43642038106918335 -0.8210710287094116
vn 0.4567529559135437 0.26761677861213684 -0.8483855128288269
vn 0.7567654252052307 0.4775473177433014 -0.4463794529438019
vn 0.800778865814209 -0.45225855708122253 0.392702579498291
vn 0.7931376099586487 -0.41675031185150146 0.4441305100917816
vn 0.9795953035354614 -0.18365606665611267 -0.08163067698478699
vn 0.18450936675071716 0.45576211810112 -0.8707680702209473
vn 0.6064765453338623 0.574951708316803 -0.5491962432861328
vn 0.49511122703552246 0.7084636092185974 -0.5029353499412537
vn -0.2026130110025406 0.7808789610862732 -0.5909111499786377
vn -0.6824091076850891 0.4901864230632782 -0.5422500371932983
vn -0.2705293893814087 0.4687572121620178 -0.840880811214447
vn 0.7429797053337097 -0.44381779432296753 0.501006007194519
vn 0.7381768822669983 -0.518066942691803 0.43208974599838257
vn 0.768252968788147 -0.6333646178245544 0.09293350577354431
vn 0.7497096061706543 0.605269193649292 -0.26755279302597046
vn 0.7501407265663147 0.6105820536613464 -0.2539254426956177
vn 0.8091368079185486 0.2281201034784317 -0.5415336489677429
vn -0.6381468772888184 0.720107913017273 -0.2724207937717438
vn -0.723599910736084 0.4475993812084198 -0.5254119634628296
vn -0.2526535391807556 0.7323899269104004 -0.6322745680809021
vn 0.8051836490631104 0.5629563331604004 -0.18643881380558014
vn 0.9974126219749451 0.0023202896118164063 -0.07185135781764984
vn 0.7975800037384033 0.19813138246536255 0.5697456002235413
vn -0.7936316728591919 0.3572998046875 0.49242842197418213
vn -0.9675741791725159 0.14277924597263336 -0.20836113393306732
vn -0.6676175594329834 0.6891390085220337 -0.28173449635505676
vn 0.7459346055984497 -0.012819439172744751 0.6658957600593567
vn 0.5950291752815247 0.7161322236061096 0.3648218512535095
vn 0.9065942764282227 0.38130447268486023 -0.18081410229206085
vn -0.45400065183639526 0.8377138376235962 0.30351099371910095
vn -0.7828298211097717 0.1924251765012741 0.591734766960144
vn -0.748729944229126 0.5936986207962036 -0.294831246137619
vn -0.7670859098434448 0.010575056076049805 0.641457200050354
vn 0.0913894772529602 0.9534772634506226 0.28727883100509644
vn 0.5895776748657227 -0.2919771075248718 0.7530919909477234
f 3/3/3 2/2/2 1/1/1
f 6/6/6 5/5/5 4/4/4
f 9/9/9 8/8/8 7/7/7
f 12/12/12 11/11/11 10/10/10
f 15/15/15 14/14/14 13/13/13
f 18/18/18 17/17/17 16/16/16
f 21/21/21 20/20/20 19/19/19
f 24/24/24 23/23/23 22/22/22
f 27/27/27 26/26/26 25/25/25
f 30/30/30 29/29/29 28/28/28
f 33/33/33 32/32/32 31/31/31
f 36/36/36 35/35/35 34/34/34
f 39/39/39 38/38/38 37/37/37
f 42/42/42 41/41/41 40/40/40
f 45/45/45 44/44/44 43/43/43
f 48/48/48 47/47/47 46/46/46
f 51/51/51 50/50/50 49/49/49
f 54/54/54 53/53/53 52/52/52
f 57/57/57 56/56/56 55/55/55
f 60/60/60 59/59/59 58/58/58
f 63/63/63 62/62/62 61/61/61
f 66/66/66 65/65/65 64/64/64
f 69/69/69 68/68/68 67/67/67
f 72/72/72 71/71/71 70/70/70
