# VPXTOOL table OBJ file
# VPXTOOL OBJ file
# numVerts: 136 numFaces: 138
o LM_L_LMet4_UnderPF
v 173.72642517089844 154.37884521484375 -12.23087215423584
v 164.7011260986328 156.17410278320313 -12.23087215423584
v 173.72642517089844 154.37884521484375 -6.426158428192139
v 164.7011260986328 156.17410278320313 -12.23087215423584
v 155.67584228515625 154.37884521484375 -12.23087215423584
v 164.7011260986328 156.17410278320313 -6.426158428192139
v 164.7011260986328 156.17410278320313 -12.23087215423584
v 164.7011260986328 156.17410278320313 -6.426158428192139
v 173.72642517089844 154.37884521484375 -6.426158428192139
v 181.377685546875 149.2664794921875 -12.23087215423584
v 173.72642517089844 154.37884521484375 -12.23087215423584
v 181.377685546875 149.2664794921875 -6.426158428192139
v 155.67584228515625 154.37884521484375 -12.23087215423584
v 155.67584228515625 154.37884521484375 -6.426158428192139
v 164.7011260986328 156.17410278320313 -6.426158428192139
v 173.72642517089844 154.37884521484375 -12.23087215423584
v 173.72642517089844 154.37884521484375 -6.426158428192139
v 181.377685546875 149.2664794921875 -6.426158428192139
v 155.67584228515625 154.37884521484375 -12.23087215423584
v 148.0245819091797 149.2664794921875 -12.23087215423584
v 155.67584228515625 154.37884521484375 -6.426158428192139
v 148.0245819091797 149.2664794921875 -12.23087215423584
v 148.0245819091797 149.2664794921875 -6.426158428192139
v 155.67584228515625 154.37884521484375 -6.426158428192139
v 181.377685546875 149.2664794921875 -12.23087215423584
v 181.377685546875 149.2664794921875 -6.426158428192139
v 186.49009704589844 141.61521911621094 -6.426158428192139
v 186.49009704589844 141.61521911621094 -12.23087215423584
v 181.377685546875 149.2664794921875 -12.23087215423584
v 186.49009704589844 141.61521911621094 -6.426158428192139
v 188.28530883789063 132.5898895263672 -6.426158428192139
v 173.72642517089844 154.37884521484375 -6.426158428192139
v 164.7011260986328 156.17410278320313 -6.426158428192139
v 148.0245819091797 149.2664794921875 -12.23087215423584
v 142.9122314453125 141.61521911621094 -12.23087215423584
v 148.0245819091797 149.2664794921875 -6.426158428192139
v 188.28530883789063 132.5898895263672 -6.426158428192139
v 181.377685546875 149.2664794921875 -6.426158428192139
v 173.72642517089844 154.37884521484375 -6.426158428192139
v 141.11695861816406 132.5898895263672 -6.426158428192139
v 164.7011260986328 156.17410278320313 -6.426158428192139
v 155.67584228515625 154.37884521484375 -6.426158428192139
v 142.9122314453125 141.61521911621094 -12.23087215423584
v 142.9122314453125 141.61521911621094 -6.426158428192139
v 148.0245819091797 149.2664794921875 -6.426158428192139
v 188.28530883789063 132.5898895263672 -6.426158428192139
v 186.49009704589844 141.61521911621094 -6.426158428192139
v 181.377685546875 149.2664794921875 -6.426158428192139
v 186.49009704589844 141.61521911621094 -12.23087215423584
v 186.49009704589844 141.61521911621094 -6.426158428192139
v 188.28530883789063 132.5898895263672 -6.426158428192139
v 141.11695861816406 132.5898895263672 -6.426158428192139
v 155.67584228515625 154.37884521484375 -6.426158428192139
v 148.0245819091797 149.2664794921875 -6.426158428192139
v 188.28530883789063 132.5898895263672 -12.23087215423584
v 186.49009704589844 141.61521911621094 -12.23087215423584
v 188.28530883789063 132.5898895263672 -6.426158428192139
v 142.9122314453125 141.61521911621094 -12.23087215423584
v 141.11695861816406 132.5898895263672 -12.23087215423584
v 142.9122314453125 141.61521911621094 -6.426158428192139
v 148.0245819091797 149.2664794921875 -6.426158428192139
v 142.9122314453125 141.61521911621094 -6.426158428192139
v 141.11695861816406 132.5898895263672 -6.426158428192139
v 141.11695861816406 132.5898895263672 -12.23087215423584
v 141.11695861816406 132.5898895263672 -6.426158428192139
v 142.9122314453125 141.61521911621094 -6.426158428192139
v 188.28530883789063 132.5898895263672 -12.23087215423584
v 188.28530883789063 132.5898895263672 -6.426158428192139
v 186.49009704589844 123.56465148925781 -6.426158428192139
v 164.7011260986328 109.00576782226563 -6.426158428192139
v 188.28530883789063 132.5898895263672 -6.426158428192139
v 164.7011260986328 156.17410278320313 -6.426158428192139
v 186.49009704589844 123.56465148925781 -12.23087215423584
v 188.28530883789063 132.5898895263672 -12.23087215423584
v 186.49009704589844 123.56465148925781 -6.426158428192139
v 164.7011260986328 156.17410278320313 -6.426158428192139
v 141.11695861816406 132.5898895263672 -6.426158428192139
v 164.7011260986328 109.00576782226563 -6.426158428192139
v 141.11695861816406 132.5898895263672 -12.23087215423584
v 142.9122314453125 123.56465148925781 -12.23087215423584
v 141.11695861816406 132.5898895263672 -6.426158428192139
v 181.377685546875 115.91339111328125 -6.426158428192139
v 186.49009704589844 123.56465148925781 -6.426158428192139
v 188.28530883789063 132.5898895263672 -6.426158428192139
v 142.9122314453125 123.56465148925781 -12.23087215423584
v 142.9122314453125 123.56465148925781 -6.426158428192139
v 141.11695861816406 132.5898895263672 -6.426158428192139
v 186.49009704589844 123.56465148925781 -12.23087215423584
v 186.49009704589844 123.56465148925781 -6.426158428192139
v 181.377685546875 115.91339111328125 -6.426158428192139
v 181.377685546875 115.91339111328125 -12.23087215423584
v 186.49009704589844 123.56465148925781 -12.23087215423584
v 181.377685546875 115.91339111328125 -6.426158428192139
v 142.9122314453125 123.56465148925781 -12.23087215423584
v 148.0245819091797 115.91339111328125 -12.23087215423584
v 142.9122314453125 123.56465148925781 -6.426158428192139
v 188.28530883789063 132.5898895263672 -6.426158428192139
v 173.72642517089844 110.80103302001953 -6.426158428192139
v 181.377685546875 115.91339111328125 -6.426158428192139
v 164.7011260986328 109.00576782226563 -6.426158428192139
v 142.9122314453125 123.56465148925781 -6.426158428192139
v 188.28530883789063 132.5898895263672 -6.426158428192139
v 164.7011260986328 109.00576782226563 -6.426158428192139
v 173.72642517089844 110.80103302001953 -6.426158428192139
v 148.0245819091797 115.91339111328125 -12.23087215423584
v 148.0245819091797 115.91339111328125 -6.426158428192139
v 142.9122314453125 123.56465148925781 -6.426158428192139
v 173.72642517089844 110.80103302001953 -12.23087215423584
v 181.377685546875 115.91339111328125 -12.23087215423584
v 173.72642517089844 110.80103302001953 -6.426158428192139
v 181.377685546875 115.91339111328125 -12.23087215423584
v 181.377685546875 115.91339111328125 -6.426158428192139
v 173.72642517089844 110.80103302001953 -6.426158428192139
v 148.0245819091797 115.91339111328125 -12.23087215423584
v 155.67584228515625 110.80103302001953 -12.23087215423584
v 148.0245819091797 115.91339111328125 -6.426158428192139
v 164.7011260986328 109.00576782226563 -6.426158428192139
v 142.9122314453125 123.56465148925781 -6.426158428192139
v 148.0245819091797 115.91339111328125 -6.426158428192139
v 164.7011260986328 109.00576782226563 -12.23087215423584
v 173.72642517089844 110.80103302001953 -12.23087215423584
v 164.7011260986328 109.00576782226563 -6.426158428192139
v 155.67584228515625 110.80103302001953 -12.23087215423584
v 164.7011260986328 109.00576782226563 -12.23087215423584
v 155.67584228515625 110.80103302001953 -6.426158428192139
v 155.67584228515625 110.80103302001953 -12.23087215423584
v 155.67584228515625 110.80103302001953 -6.426158428192139
v 148.0245819091797 115.91339111328125 -6.426158428192139
v 173.72642517089844 110.80103302001953 -12.23087215423584
v 173.72642517089844 110.80103302001953 -6.426158428192139
v 164.7011260986328 109.00576782226563 -6.426158428192139
v 164.7011260986328 109.00576782226563 -12.23087215423584
v 164.7011260986328 109.00576782226563 -6.426158428192139
v 155.67584228515625 110.80103302001953 -6.426158428192139
v 148.0245819091797 115.91339111328125 -6.426158428192139
v 155.67584228515625 110.80103302001953 -6.426158428192139
vt 0.1703508049249649 0.34966468811035156
vt 0.1709318459033966 0.3520830273628235
vt 0.171396866440773 0.34973013401031494
vt 0.1709318459033966 0.3520830273628235
vt 0.1703508049249649 0.3545234203338623
vt 0.17197731137275696 0.35214465856552124
vt 0.1709318459033966 0.3520830273628235
vt 0.17197731137275696 0.35214465856552124
vt 0.171396866440773 0.34973013401031494
vt 0.16869787871837616 0.34764015674591064
vt 0.1703508049249649 0.34966468811035156
vt 0.1697457730770111 0.3477087616920471
vt 0.1703508049249649 0.3545234203338623
vt 0.171396866440773 0.35458117723464966
vt 0.17197731137275696 0.35214465856552124
vt 0.1703508049249649 0.34966468811035156
vt 0.171396866440773 0.34973013401031494
vt 0.1697457730770111 0.3477087616920471
vt 0.1703508049249649 0.3545234203338623
vt 0.16869787871837616 0.35661065578460693
vt 0.171396866440773 0.35458117723464966
vt 0.16869787871837616 0.35661065578460693
vt 0.1697457730770111 0.35666507482528687
vt 0.171396866440773 0.35458117723464966
vt 0.16869787871837616 0.34764015674591064
vt 0.1697457730770111 0.3477087616920471
vt 0.16727958619594574 0.34638965129852295
vt 0.16622908413410187 0.3463190197944641
vt 0.16869787871837616 0.34764015674591064
vt 0.16727958619594574 0.34638965129852295
vt 0.16437821090221405 0.3459720015525818
vt 0.171396866440773 0.34973013401031494
vt 0.17197731137275696 0.35214465856552124
vt 0.16869787871837616 0.35661065578460693
vt 0.16622908413410187 0.3580254316329956
vt 0.1697457730770111 0.35666507482528687
vt 0.16437821090221405 0.3459720015525818
vt 0.1697457730770111 0.3477087616920471
vt 0.171396866440773 0.34973013401031494
vt 0.16437821090221405 0.3586050271987915
vt 0.17197731137275696 0.35214465856552124
vt 0.171396866440773 0.35458117723464966
vt 0.16622908413410187 0.3580254316329956
vt 0.16727958619594574 0.3580775260925293
vt 0.1697457730770111 0.35666507482528687
vt 0.16437821090221405 0.3459720015525818
vt 0.16727958619594574 0.34638965129852295
vt 0.1697457730770111 0.3477087616920471
vt 0.16622908413410187 0.3463190197944641
vt 0.16727958619594574 0.34638965129852295
vt 0.16437821090221405 0.3459720015525818
vt 0.16437821090221405 0.3586050271987915
vt 0.171396866440773 0.35458117723464966
vt 0.1697457730770111 0.35666507482528687
vt 0.16332459449768066 0.34590083360671997
vt 0.16622908413410187 0.3463190197944641
vt 0.16437821090221405 0.3459720015525818
vt 0.16622908413410187 0.3580254316329956
vt 0.16332459449768066 0.35855382680892944
vt 0.16727958619594574 0.3580775260925293
vt 0.1697457730770111 0.35666507482528687
vt 0.16727958619594574 0.3580775260925293
vt 0.16437821090221405 0.3586050271987915
vt 0.16332459449768066 0.35855382680892944
vt 0.16437821090221405 0.3586050271987915
vt 0.16727958619594574 0.3580775260925293
vt 0.16332459449768066 0.34590083360671997
vt 0.16437821090221405 0.3459720015525818
vt 0.16148506104946136 0.34651583433151245
vt 0.15683519840240479 0.3524312973022461
vt 0.16437821090221405 0.3459720015525818
vt 0.17197731137275696 0.35214465856552124
vt 0.16042836010456085 0.34644562005996704
vt 0.16332459449768066 0.34590083360671997
vt 0.16148506104946136 0.34651583433151245
vt 0.17197731137275696 0.35214465856552124
vt 0.16437821090221405 0.3586050271987915
vt 0.15683519840240479 0.3524312973022461
vt 0.16332459449768066 0.35855382680892944
vt 0.16042836010456085 0.3581188917160034
vt 0.16437821090221405 0.3586050271987915
vt 0.1590387374162674 0.3479347825050354
vt 0.16148506104946136 0.34651583433151245
vt 0.16437821090221405 0.3459720015525818
vt 0.16042836010456085 0.3581188917160034
vt 0.16148506104946136 0.35817068815231323
vt 0.16437821090221405 0.3586050271987915
vt 0.16042836010456085 0.34644562005996704
vt 0.16148506104946136 0.34651583433151245
vt 0.1590387374162674 0.3479347825050354
vt 0.15797941386699677 0.34786689281463623
vt 0.16042836010456085 0.34644562005996704
vt 0.1590387374162674 0.3479347825050354
vt 0.16042836010456085 0.3581188917160034
vt 0.15797941386699677 0.3567904829978943
vt 0.16148506104946136 0.35817068815231323
vt 0.16437821090221405 0.3459720015525818
vt 0.15740743279457092 0.3500114679336548
vt 0.1590387374162674 0.3479347825050354
vt 0.15683519840240479 0.3524312973022461
vt 0.16148506104946136 0.35817068815231323
vt 0.16437821090221405 0.3459720015525818
vt 0.15683519840240479 0.3524312973022461
vt 0.15740743279457092 0.3500114679336548
vt 0.15797941386699677 0.3567904829978943
vt 0.1590387374162674 0.35684436559677124
vt 0.16148506104946136 0.35817068815231323
vt 0.156346395611763 0.34994691610336304
vt 0.15797941386699677 0.34786689281463623
vt 0.15740743279457092 0.3500114679336548
vt 0.15797941386699677 0.34786689281463623
vt 0.1590387374162674 0.3479347825050354
vt 0.15740743279457092 0.3500114679336548
vt 0.15797941386699677 0.3567904829978943
vt 0.156346395611763 0.3547724485397339
vt 0.1590387374162674 0.35684436559677124
vt 0.15683519840240479 0.3524312973022461
vt 0.16148506104946136 0.35817068815231323
vt 0.1590387374162674 0.35684436559677124
vt 0.15577355027198792 0.35237056016921997
vt 0.156346395611763 0.34994691610336304
vt 0.15683519840240479 0.3524312973022461
vt 0.156346395611763 0.3547724485397339
vt 0.15577355027198792 0.35237056016921997
vt 0.15740743279457092 0.35482943058013916
vt 0.156346395611763 0.3547724485397339
vt 0.15740743279457092 0.35482943058013916
vt 0.1590387374162674 0.35684436559677124
vt 0.156346395611763 0.34994691610336304
vt 0.15740743279457092 0.3500114679336548
vt 0.15683519840240479 0.3524312973022461
vt 0.15577355027198792 0.35237056016921997
vt 0.15683519840240479 0.3524312973022461
vt 0.15740743279457092 0.35482943058013916
vt 0.1590387374162674 0.35684436559677124
vt 0.15740743279457092 0.35482943058013916
vn -0.19509220123291016 -0.9807848334312439 -0
vn -0.19509220123291016 -0.9807848334312439 -0
vn -0.19509220123291016 -0.9807848334312439 -0
vn 0.19509294629096985 -0.9807847738265991 -0
vn 0.19509294629096985 -0.9807847738265991 -0
vn 0.19509294629096985 -0.9807847738265991 -0
vn -0.19509223103523254 -0.9807848334312439 -0
vn -0.19509223103523254 -0.9807848334312439 -0
vn -0.19509223103523254 -0.9807848334312439 -0
vn -0.5555657148361206 -0.831472635269165 -0
vn -0.5555657148361206 -0.831472635269165 -0
vn -0.5555657148361206 -0.831472635269165 -0
vn 0.19509223103523254 -0.9807848334312439 -0
vn 0.19509223103523254 -0.9807848334312439 -0
vn 0.19509223103523254 -0.9807848334312439 -0
vn -0.5555675029754639 -0.8314713835716248 -0
vn -0.5555675029754639 -0.8314713835716248 -0
vn -0.5555675029754639 -0.8314713835716248 -0
vn 0.5555673837661743 -0.8314713835716248 -0
vn 0.5555673837661743 -0.8314713835716248 -0
vn 0.5555673837661743 -0.8314713835716248 -0
vn 0.5555658340454102 -0.8314725756645203 -0
vn 0.5555658340454102 -0.8314725756645203 -0
vn 0.5555658340454102 -0.8314725756645203 -0
vn -0.8314697742462158 -0.5555700659751892 -0
vn -0.8314697742462158 -0.5555700659751892 -0
vn -0.8314697742462158 -0.5555700659751892 -0
vn -0.8314696550369263 -0.5555700659751892 -0
vn -0.8314696550369263 -0.5555700659751892 -0
vn -0.8314696550369263 -0.5555700659751892 -0
vn 0.0000001464677836793271 -0 -1
vn 0.0000001464677836793271 -0 -1
vn 0.0000001464677836793271 -0 -1
vn 0.8314731121063232 -0.5555648803710938 -0
vn 0.8314731121063232 -0.5555648803710938 -0
vn 0.8314731121063232 -0.5555648803710938 -0
vn 0 -0 -1
vn 0 -0 -1
vn 0 -0 -1
vn -0.00000014646812473984028 -0 -1
vn -0.00000014646812473984028 -0 -1
vn -0.00000014646812473984028 -0 -1
vn 0.8314714431762695 -0.5555674433708191 -0
vn 0.8314714431762695 -0.5555674433708191 -0
vn 0.8314714431762695 -0.5555674433708191 -0
vn -0.00000038534753343810735 -0 -0.9999999403953552
vn -0.00000038534753343810735 -0 -0.9999999403953552
vn -0.00000038534753343810735 -0 -0.9999999403953552
vn -0.9807859063148499 -0.195087268948555 -0
vn -0.9807859063148499 -0.195087268948555 -0
vn -0.9807859063148499 -0.195087268948555 -0
vn 0 -0 -1
vn 0 -0 -1
vn 0 -0 -1
vn -0.9807865619659424 -0.19508370757102966 -0
vn -0.9807865619659424 -0.19508370757102966 -0
vn -0.9807865619659424 -0.19508370757102966 -0
vn 0.9807851910591125 -0.1950909048318863 -0
vn 0.9807851910591125 -0.1950909048318863 -0
vn 0.9807851910591125 -0.1950909048318863 -0
vn 0.0000001926794084283756 -0 -0.9999999403953552
vn 0.0000001926794084283756 -0 -0.9999999403953552
vn 0.0000001926794084283756 -0 -0.9999999403953552
vn 0.9807848334312439 -0.19509266316890717 -0
vn 0.9807848334312439 -0.19509266316890717 -0
vn 0.9807848334312439 -0.19509266316890717 -0
vn -0.9807862043380737 0.19508595764636993 -0
vn -0.9807862043380737 0.19508595764636993 -0
vn -0.9807862043380737 0.19508595764636993 -0
vn -0.000000022450906911331003 -0 -1
vn -0.000000022450906911331003 -0 -1
vn -0.000000022450906911331003 -0 -1
vn -0.9807854294776917 0.19508959352970123 -0
vn -0.9807854294776917 0.19508959352970123 -0
vn -0.9807854294776917 0.19508959352970123 -0
vn 0.000000022450906911331003 -0 -1
vn 0.000000022450906911331003 -0 -1
vn 0.000000022450906911331003 -0 -1
vn 0.9807843565940857 0.1950949877500534 -0
vn 0.9807843565940857 0.1950949877500534 -0
vn 0.9807843565940857 0.1950949877500534 -0
vn -0.00000019267822892743425 -0 -1
vn -0.00000019267822892743425 -0 -1
vn -0.00000019267822892743425 -0 -1
vn 0.9807847142219543 0.19509314000606537 -0
vn 0.9807847142219543 0.19509314000606537 -0
vn 0.9807847142219543 0.19509314000606537 -0
vn -0.8314697742462158 0.5555700659751892 -0
vn -0.8314697742462158 0.5555700659751892 -0
vn -0.8314697742462158 0.5555700659751892 -0
vn -0.8314696550369263 0.5555700659751892 -0
vn -0.8314696550369263 0.5555700659751892 -0
vn -0.8314696550369263 0.5555700659751892 -0
vn 0.8314714431762695 0.5555675029754639 -0
vn 0.8314714431762695 0.5555675029754639 -0
vn 0.8314714431762695 0.5555675029754639 -0
vn 0.0000002706377415506722 -0 -0.9999999403953552
vn 0.0000002706377415506722 -0 -0.9999999403953552
vn 0.0000002706377415506722 -0 -0.9999999403953552
vn 0 -0 -1
vn 0 -0 -1
vn 0 -0 -0.9999999403953552
vn 0 -0 -0.9999999403953552
vn 0 -0 -0.9999999403953552
vn 0.831473171710968 0.555564820766449 -0
vn 0.831473171710968 0.555564820766449 -0
vn 0.831473171710968 0.555564820766449 -0
vn -0.5555673837661743 0.8314713835716248 -0
vn -0.5555673837661743 0.8314713835716248 -0
vn -0.5555673837661743 0.8314713835716248 -0
vn -0.5555658340454102 0.8314725756645203 -0
vn -0.5555658340454102 0.8314725756645203 -0
vn -0.5555658340454102 0.8314725756645203 -0
vn 0.5555657148361206 0.831472635269165 -0
vn 0.5555657148361206 0.831472635269165 -0
vn 0.5555657148361206 0.831472635269165 -0
vn -0.00000013531828813029279 -0 -1
vn -0.00000013531828813029279 -0 -1
vn -0.00000013531828813029279 -0 -1
vn -0.19509220123291016 0.9807848334312439 -0
vn -0.19509220123291016 0.9807848334312439 -0
vn -0.19509220123291016 0.9807848334312439 -0
vn 0.19509220123291016 0.9807848334312439 -0
vn 0.19509220123291016 0.9807848334312439 -0
vn 0.19509220123291016 0.9807848334312439 -0
vn 0.5555675029754639 0.8314713835716248 -0
vn 0.5555675029754639 0.8314713835716248 -0
vn 0.5555675029754639 0.8314713835716248 -0
vn -0.19509223103523254 0.9807848334312439 -0
vn -0.19509223103523254 0.9807848334312439 -0
vn -0.19509223103523254 0.9807848334312439 -0
vn 0.19509297609329224 0.9807847738265991 -0
vn 0.19509297609329224 0.9807847738265991 -0
vn 0.19509297609329224 0.9807847738265991 -0
vn 0 -0 -1
vn 0 -0 -1
f 3/3/3 2/2/2 1/1/1
f 6/6/6 5/5/5 4/4/4
f 9/9/9 8/8/8 7/7/7
f 12/12/12 11/11/11 10/10/10
f 15/15/15 14/14/14 13/13/13
f 18/18/18 17/17/17 16/16/16
f 21/21/21 20/20/20 19/19/19
f 24/24/24 23/23/23 22/22/22
f 27/27/27 26/26/26 25/25/25
f 30/30/30 29/29/29 28/28/28
f 33/33/33 32/32/32 31/31/31
f 36/36/36 35/35/35 34/34/34
f 39/39/39 38/38/38 37/37/37
f 42/42/42 41/41/41 40/40/40
f 45/45/45 44/44/44 43/43/43
f 48/48/48 47/47/47 46/46/46
f 51/51/51 50/50/50 49/49/49
f 54/54/54 53/53/53 52/52/52
f 57/57/57 56/56/56 55/55/55
f 60/60/60 59/59/59 58/58/58
f 63/63/63 62/62/62 61/61/61
f 66/66/66 65/65/65 64/64/64
f 69/69/69 68/68/68 67/67/67
f 72/72/72 71/71/71 70/70/70
f 75/75/75 74/74/74 73/73/73
f 78/78/78 77/77/77 76/76/76
f 81/81/81 80/80/80 79/79/79
f 84/84/84 83/83/83 82/82/82
f 87/87/87 86/86/86 85/85/85
f 90/90/90 89/89/89 88/88/88
f 93/93/93 92/92/92 91/91/91
f 96/96/96 95/95/95 94/94/94
f 99/99/99 98/98/98 97/97/97
f 101/101/101 52/52/52 100/100/100
f 104/104/104 103/103/103 102/102/102
f 107/107/107 106/106/106 105/105/105
f 110/110/110 109/109/109 108/108/108
f 113/113/113 112/112/112 111/111/111
f 116/116/116 115/115/115 114/114/114
f 119/119/119 118/118/118 117/117/117
f 122/122/122 121/121/121 120/120/120
f 125/125/125 124/124/124 123/123/123
f 128/128/128 127/127/127 126/126/126
f 131/131/131 130/130/130 129/129/129
f 134/134/134 133/133/133 132/132/132
f 100/100/100 136/136/136 135/135/135
