# VPXTOOL table OBJ file
# VPXTOOL OBJ file
# numVerts: 68 numFaces: 156
o BM_TMet1
v 24.39875602722168 -0.14124009013175964 -65.61187744140625
v -23.7717342376709 -0.14112965762615204 -65.61187744140625
v -23.77170753479004 -22.373689651489258 -65.61187744140625
v 24.39870262145996 -22.373689651489258 -65.61187744140625
v 24.39875602722168 -0.14124009013175964 -65.61187744140625
v 24.39870262145996 -22.373689651489258 -65.61187744140625
v 24.39870262145996 -14.962725639343262 -44.30571365356445
v 24.39875602722168 -0.14124009013175964 -65.61187744140625
v 24.39872932434082 -9.404779434204102 -11.883298873901367
v -23.7717342376709 -0.14112965762615204 -65.61187744140625
v -23.7717342376709 -0.14112965762615204 -65.61187744140625
v -23.77170753479004 -14.962836265563965 -44.30571365356445
v -23.77170753479004 -22.373689651489258 -65.61187744140625
v 14.208819389343262 -14.962836265563965 -44.30571365356445
v 24.39870262145996 -22.373689651489258 -65.61187744140625
v -23.77170753479004 -22.373689651489258 -65.61187744140625
v 16.987903594970703 -14.962836265563965 -44.30571365356445
v 24.39870262145996 -14.962725639343262 -44.30571365356445
v 24.39872932434082 -9.404779434204102 -11.883298873901367
v -23.77170753479004 -14.962836265563965 -44.30571365356445
v -23.7717342376709 -9.404668807983398 -11.883296966552734
v -23.7717342376709 -9.404668807983398 -11.883296966552734
v 24.39870262145996 -14.962725639343262 15.907317161560059
v 24.39872932434082 -9.404779434204102 4.791092395782471
v -23.77170753479004 -14.962836265563965 15.907379150390625
v -23.7717342376709 -9.404668807983398 4.791096210479736
v 24.39870262145996 -9.404779434204102 15.907344818115234
v 24.39872932434082 -9.404779434204102 -11.883298873901367
v -23.7717342376709 -9.404668807983398 4.791096210479736
v -23.7717342376709 -9.404668807983398 -11.883296966552734
v 24.39870262145996 -14.962725639343262 15.907317161560059
v 24.39872932434082 -9.404779434204102 4.791092395782471
v 6.79802131652832 -9.404779434204102 4.7910943031311035
v -5.244656562805176 -9.404668807983398 4.7910943031311035
v -23.7717342376709 -9.404668807983398 15.9073486328125
v 24.39870262145996 -3.846501111984253 14.054645538330078
v -23.77170753479004 -14.962836265563965 15.907379150390625
v 24.39870262145996 -3.846501111984253 15.907344818115234
v 24.39870262145996 -3.846501111984253 14.054645538330078
v 6.797994136810303 -3.846501111984253 14.054647445678711
v 24.39870262145996 -3.846501111984253 15.907344818115234
v 6.797994136810303 -3.846501111984253 15.907346725463867
v 6.79802131652832 -9.404779434204102 15.907346725463867
v -5.244601249694824 -3.846611499786377 14.054647445678711
v 6.79802131652832 -9.404779434204102 15.907346725463867
v 6.79802131652832 -9.404779434204102 4.7910943031311035
v 6.797994136810303 -3.846501111984253 14.054647445678711
v 6.797994136810303 -3.846501111984253 15.907346725463867
v 24.39870262145996 -3.846501111984253 15.907344818115234
v 6.79802131652832 -9.404779434204102 15.907346725463867
v -23.77170753479004 -3.846611499786377 14.054649353027344
v 6.797994136810303 -3.846501111984253 15.907346725463867
v -5.244601249694824 -3.846611499786377 14.054647445678711
v -5.244656562805176 -9.404668807983398 4.7910943031311035
v -5.244656562805176 -9.404668807983398 15.907346725463867
v 24.39870262145996 -9.404779434204102 15.907344818115234
v -5.244601249694824 -3.846611499786377 15.907346725463867
v -5.244656562805176 -9.404668807983398 15.907346725463867
v -5.244601249694824 -3.846611499786377 15.907346725463867
v -23.77170753479004 -3.846611499786377 15.9073486328125
v -23.77170753479004 -3.846611499786377 14.054649353027344
v -5.244601249694824 -3.846611499786377 15.907346725463867
v -5.244656562805176 -9.404668807983398 15.907346725463867
v -23.77170753479004 -3.846611499786377 15.9073486328125
v 24.39870262145996 -14.962725639343262 15.907317161560059
v -23.77170753479004 -3.846611499786377 15.9073486328125
v -23.7717342376709 -9.404668807983398 15.9073486328125
v -23.77170753479004 -14.962836265563965 15.907379150390625
vt 0.6568090319633484 0.10490453243255615
vt 0.6568090319633484 0.09743672609329224
vt 0.6606789827346802 0.09743672609329224
vt 0.6606789827346802 0.10490453243255615
vt 0.9818228483200073 0.8863909244537354
vt 0.988083004951477 0.8863909244537354
vt 0.9859963059425354 0.8917340040206909
vt 0.5154058933258057 0.9651661515235901
vt 0.5154058933258057 0.9995462894439697
vt 0.5539822578430176 0.9651661515235901
vt 0.9856374859809875 0.8606421947479248
vt 0.9816352725028992 0.8660881519317627
vt 0.9793798327445984 0.8607997298240662
vt 0.9628263711929321 0.2809169888496399
vt 0.9646000862121582 0.2843652367591858
vt 0.9562151432037354 0.2843652367591858
vt 0.9633101224899292 0.2809169888496399
vt 0.9646000862121582 0.2809169888496399
vt 0.984431266784668 0.899864912033081
vt 0.9562151432037354 0.2809169888496399
vt 0.9834576845169067 0.8741763830184937
vt 0.5539822578430176 0.9995462894439697
vt 0.9646000862121582 0.27171260118484497
vt 0.984431266784668 0.9040465354919434
vt 0.9562151432037354 0.27171260118484497
vt 0.9835903644561768 0.8783563375473022
vt 0.984431266784668 0.9068342447280884
vt 0.5935268402099609 0.7460841536521912
vt 0.5906357169151306 0.7386163473129272
vt 0.5935268402099609 0.7386163473129272
vt 0.9859963059425354 0.9068342447280884
vt 0.5906357169151306 0.7460841536521912
vt 0.5906357169151306 0.7433555126190186
vt 0.5906357169151306 0.7414885759353638
vt 0.9836788177490234 0.8811429142951965
vt 0.588944137096405 0.7460841536521912
vt 0.9821144342422485 0.8811823129653931
vt 0.9828662276268005 0.9068342447280884
vt 0.9828662276268005 0.9063695669174194
vt 0.588944137096405 0.7433555126190186
vt 0.5886229276657104 0.7460841536521912
vt 0.5886229276657104 0.7433555126190186
vt 0.5887082815170288 0.7433555126190186
vt 0.588944137096405 0.7414885759353638
vt 0.07027047872543335 0.11192959547042847
vt 0.07027047872543335 0.11365294456481934
vt 0.0693029835820198 0.11221683025360107
vt 0.6353681683540344 0.6757843494415283
vt 0.6353681683540344 0.6785129308700562
vt 0.6344006657600403 0.6757843494415283
vt 0.588944137096405 0.7386163473129272
vt 0.0693029835820198 0.11192959547042847
vt 0.06317432224750519 0.3277115821838379
vt 0.062206823378801346 0.32914769649505615
vt 0.062206823378801346 0.3274243474006653
vt 0.6344006657600403 0.6785129308700562
vt 0.5886229276657104 0.7414885759353638
vt 0.5887082815170288 0.7414885759353638
vt 0.06317432224750519 0.3274243474006653
vt 0.5886229276657104 0.7386163473129272
vt 0.9852285385131836 0.8806390762329102
vt 0.6353681683540344 0.673917293548584
vt 0.6344006657600403 0.673917293548584
vt 0.6353681683540344 0.6710451245307922
vt 0.6334331631660461 0.6785129308700562
vt 0.9852432608604431 0.881103515625
vt 0.6344006657600403 0.6710451245307922
vt 0.6334331631660461 0.6710451245307922
vn 0.5689055323600769 0.6290042996406555 -0.5298113822937012
vn -0.5688859224319458 0.6290190815925598 -0.5298147201538086
vn -0.5617560148239136 -0.674281656742096 -0.47934794425964355
vn 0.561760425567627 -0.674244225025177 -0.47939538955688477
vn 0.5689055323600769 0.6290042996406555 -0.5298113822937012
vn 0.561760425567627 -0.674244225025177 -0.47939538955688477
vn 0.746593177318573 -0.6559844017028809 0.11082909256219864
vn 0.5689055323600769 0.6290042996406555 -0.5298113822937012
vn 0.7268134951591492 0.6843333840370178 0.058565787971019745
vn -0.5688859224319458 0.6290190815925598 -0.5298147201538086
vn -0.5688859224319458 0.6290190815925598 -0.5298147201538086
vn -0.7465882897377014 -0.6559900045394897 0.11082862317562103
vn -0.5617560148239136 -0.674281656742096 -0.47934794425964355
vn 0.00000027027692794945324 -0.9860266447067261 0.16658757627010345
vn 0.561760425567627 -0.674244225025177 -0.47939538955688477
vn -0.5617560148239136 -0.674281656742096 -0.47934794425964355
vn 0.000006330444648483535 -0.9860262870788574 0.16658997535705566
vn 0.746593177318573 -0.6559844017028809 0.11082909256219864
vn 0.7268134951591492 0.6843333840370178 0.058565787971019745
vn -0.7465882897377014 -0.6559900045394897 0.11082862317562103
vn -0.7268117666244507 0.6843355298042297 0.05856258422136307
vn -0.7268117666244507 0.6843355298042297 0.05856258422136307
vn 0.5773674249649048 -0.5773569345474243 0.5773264765739441
vn 0.772415816783905 0.6120701432228088 -0.16954047977924347
vn -0.5773564577102661 -0.5773615837097168 0.5773327946662903
vn -0.7724192142486572 0.6120669841766357 -0.1695360541343689
vn 0.7071080803871155 -0.0000021435248527268413 0.7071053981781006
vn 0.7268134951591492 0.6843333840370178 0.058565787971019745
vn -0.7724192142486572 0.6120669841766357 -0.1695360541343689
vn -0.7268117666244507 0.6843355298042297 0.05856258422136307
vn 0.5773674249649048 -0.5773569345474243 0.5773264765739441
vn 0.772415816783905 0.6120701432228088 -0.16954047977924347
vn -0.08805873245000839 0.9873718619346619 -0.1316906362771988
vn 0.08806338906288147 0.987371563911438 -0.13169048726558685
vn -0.7071016430854797 0.0000019669007542688632 0.7071119546890259
vn 0.6516647338867188 0.7309839129447937 -0.20247365534305573
vn -0.5773564577102661 -0.5773615837097168 0.5773327946662903
vn 0.5773473978042603 0.577366292476654 0.5773370862007141
vn 0.6516647338867188 0.7309839129447937 -0.20247365534305573
vn -0.6516644358634949 0.7309836149215698 -0.20247597992420197
vn 0.5773473978042603 0.577366292476654 0.5773370862007141
vn -0.5773497819900513 0.5773530602455139 0.5773481130599976
vn -0.30149683356285095 0.3015271723270416 0.9045335650444031
vn 0.6516695618629456 0.730981171131134 -0.2024681568145752
vn -0.30149683356285095 0.3015271723270416 0.9045335650444031
vn -0.08805873245000839 0.9873718619346619 -0.1316906362771988
vn -0.6516644358634949 0.7309836149215698 -0.20247597992420197
vn -0.5773497819900513 0.5773530602455139 0.5773481130599976
vn 0.5773473978042603 0.577366292476654 0.5773370862007141
vn -0.30149683356285095 0.3015271723270416 0.9045335650444031
vn -0.6516602635383606 0.730989396572113 -0.20246802270412445
vn -0.5773497819900513 0.5773530602455139 0.5773481130599976
vn 0.6516695618629456 0.730981171131134 -0.2024681568145752
vn 0.08806338906288147 0.987371563911438 -0.13169048726558685
vn 0.30150824785232544 0.30151838064193726 0.9045327305793762
vn 0.7071080803871155 -0.0000021435248527268413 0.7071053981781006
vn 0.5773513317108154 0.5773520469665527 0.5773475170135498
vn 0.30150824785232544 0.30151838064193726 0.9045327305793762
vn 0.5773513317108154 0.5773520469665527 0.5773475170135498
vn -0.5773581266403198 0.5773609280586243 0.5773316621780396
vn -0.6516602635383606 0.730989396572113 -0.20246802270412445
vn 0.5773513317108154 0.5773520469665527 0.5773475170135498
vn 0.30150824785232544 0.30151838064193726 0.9045327305793762
vn -0.5773581266403198 0.5773609280586243 0.5773316621780396
vn 0.5773674249649048 -0.5773569345474243 0.5773264765739441
vn -0.5773581266403198 0.5773609280586243 0.5773316621780396
vn -0.7071016430854797 0.0000019669007542688632 0.7071119546890259
vn -0.5773564577102661 -0.5773615837097168 0.5773327946662903
f 3/3/3 2/2/2 1/1/1
f 3/3/3 1/1/1 4/4/4
f 7/7/7 6/6/6 5/5/5
f 10/10/10 9/9/9 8/8/8
f 13/13/13 12/12/12 11/11/11
f 16/16/16 15/15/15 14/14/14
f 15/15/15 18/18/18 17/17/17
f 15/15/15 17/17/17 14/14/14
f 7/7/7 5/5/5 19/19/19
f 14/14/14 20/20/20 16/16/16
f 12/12/12 21/21/21 11/11/11
f 10/10/10 22/22/22 9/9/9
f 18/18/18 23/23/23 17/17/17
f 17/17/17 23/23/23 14/14/14
f 7/7/7 19/19/19 24/24/24
f 25/25/25 20/20/20 14/14/14
f 12/12/12 26/26/26 21/21/21
f 7/7/7 24/24/24 27/27/27
f 30/30/30 29/29/29 28/28/28
f 27/27/27 31/31/31 7/7/7
f 33/33/33 32/32/32 28/28/28
f 34/34/34 33/33/33 28/28/28
f 12/12/12 35/35/35 26/26/26
f 29/29/29 34/34/34 28/28/28
f 23/23/23 25/25/25 14/14/14
f 33/33/33 36/36/36 32/32/32
f 35/35/35 12/12/12 37/37/37
f 24/24/24 39/39/39 38/38/38
f 33/33/33 40/40/40 36/36/36
f 24/24/24 38/38/38 27/27/27
f 42/42/42 41/41/41 36/36/36
f 42/42/42 36/36/36 40/40/40
f 34/34/34 43/43/43 33/33/33
f 29/29/29 44/44/44 34/34/34
f 47/47/47 46/46/46 45/45/45
f 50/50/50 49/49/49 48/48/48
f 29/29/29 51/51/51 44/44/44
f 45/45/45 52/52/52 47/47/47
f 55/55/55 54/54/54 53/53/53
f 50/50/50 56/56/56 49/49/49
f 51/51/51 57/57/57 44/44/44
f 34/34/34 58/58/58 43/43/43
f 53/53/53 59/59/59 55/55/55
f 51/51/51 60/60/60 57/57/57
f 35/35/35 61/61/61 26/26/26
f 64/64/64 63/63/63 62/62/62
f 65/65/65 56/56/56 50/50/50
f 35/35/35 66/66/66 61/61/61
f 50/50/50 63/63/63 65/65/65
f 64/64/64 67/67/67 63/63/63
f 68/68/68 65/65/65 63/63/63
f 63/63/63 67/67/67 68/68/68
