# VPXTOOL table OBJ file
# VPXTOOL OBJ file
# numVerts: 146 numFaces: 204
o BM_RArm
v 8.350282669067383 9.508030891418457 -72.88787841796875
v 6.7409844398498535 9.508030891418457 -76.33917999267578
v 11.450386047363281 9.508030891418457 -76.93648529052734
v 11.450386047363281 9.508030891418457 -76.93648529052734
v 6.7409844398498535 9.508030891418457 -76.33917999267578
v 11.450386047363281 3.8079609870910645 -76.93648529052734
v 11.450386047363281 9.508030891418457 -76.93648529052734
v 11.450386047363281 9.508030891418457 -73.13648986816406
v 8.350282669067383 9.508030891418457 -72.88787841796875
v 11.450386047363281 9.508030891418457 -73.13648986816406
v 11.450386047363281 9.508030891418457 -76.93648529052734
v 11.450386047363281 3.8079609870910645 -76.93648529052734
v 6.049360752105713 9.508030891418457 -71.19198608398438
v 6.049360752105713 9.508030891418457 -71.19198608398438
v 2.751365900039673 9.50792121887207 -73.09608459472656
v 6.7409844398498535 9.508030891418457 -76.33917999267578
v 6.741095066070557 3.8079609870910645 -76.33917999267578
v 2.751365900039673 9.50792121887207 -73.09608459472656
v 2.751476287841797 3.8080713748931885 -73.09608459472656
v 5.3745222091674805 9.50792121887207 -69.3404769897461
v 2.751365900039673 9.50792121887207 -73.09608459472656
v 6.049360752105713 9.508030891418457 -71.19198608398438
v -6.033679485321045 3.8079609870910645 -76.93648529052734
v 11.450386047363281 3.8079609870910645 -76.93648529052734
v 6.741095066070557 3.8079609870910645 -76.33917999267578
v 11.450386047363281 9.508030891418457 -73.13648986816406
v 11.450386047363281 3.8079609870910645 -76.93648529052734
v 11.450386047363281 -3.7919485569000244 -76.93648529052734
v 5.3745222091674805 9.50792121887207 -69.3404769897461
v 1.566340446472168 9.50792121887207 -69.3404769897461
v 2.751365900039673 9.50792121887207 -73.09608459472656
v 1.566340446472168 9.50792121887207 -69.3404769897461
v -6.033679485321045 3.8079609870910645 -76.93648529052734
v 6.741095066070557 3.8079609870910645 -76.33917999267578
v 2.751476287841797 3.8080713748931885 -73.09608459472656
v 11.450386047363281 3.8079609870910645 -76.93648529052734
v -6.033679485321045 3.8079609870910645 -76.93648529052734
v 11.450386047363281 -3.7919485569000244 -76.93648529052734
v 1.566230058670044 3.8079609870910645 -69.3404769897461
v -7.933629512786865 3.8080713748931885 -75.03788757324219
v -6.033679485321045 3.8079609870910645 -76.93648529052734
v -6.033679485321045 3.8079609870910645 -76.93648529052734
v 2.751476287841797 3.8080713748931885 -73.09608459472656
v 1.566230058670044 3.8079609870910645 -69.3404769897461
v 1.566230058670044 3.8079609870910645 -69.3404769897461
v -6.0335693359375 -3.7920591831207275 -76.93648529052734
v -7.933629512786865 3.8080713748931885 -75.03788757324219
v 11.450386047363281 -3.7919485569000244 -76.93648529052734
v 11.450386047363281 -9.489148139953613 -73.13648986816406
v 11.450386047363281 9.508030891418457 -73.13648986816406
v 6.049360752105713 9.508030891418457 -71.19198608398438
v 6.049360752105713 -9.489148139953613 -71.19198608398438
v 5.3745222091674805 9.50792121887207 -69.3404769897461
v 6.7409844398498535 -3.7919485569000244 -76.33917999267578
v 11.450386047363281 -3.7919485569000244 -76.93648529052734
v -6.0335693359375 -3.7920591831207275 -76.93648529052734
v -7.933629512786865 -3.7920591831207275 -75.03788757324219
v 11.450386047363281 -3.7919485569000244 -76.93648529052734
v 6.7409844398498535 -3.7919485569000244 -76.33917999267578
v 11.450386047363281 -9.489148139953613 -76.93648529052734
v 2.751476287841797 -3.7920591831207275 -73.09608459472656
v 6.7409844398498535 -3.7919485569000244 -76.33917999267578
v -6.0335693359375 -3.7920591831207275 -76.93648529052734
v 5.3745222091674805 9.50792121887207 -69.3404769897461
v 1.5664509534835815 9.508030891418457 -46.53248977661133
v 1.566340446472168 9.50792121887207 -69.3404769897461
v 2.751476287841797 -3.7920591831207275 -73.09608459472656
v 6.741095066070557 -9.489148139953613 -76.33917999267578
v 11.450386047363281 -3.7919485569000244 -76.93648529052734
v 11.450386047363281 -9.489148139953613 -76.93648529052734
v 11.450386047363281 -9.489148139953613 -73.13648986816406
v 1.566340446472168 -3.7920591831207275 -69.3404769897461
v -6.0335693359375 -3.7920591831207275 -76.93648529052734
v -7.933629512786865 -3.7920591831207275 -75.03788757324219
v 1.566340446472168 -3.7920591831207275 -69.3404769897461
v 2.751476287841797 -3.7920591831207275 -73.09608459472656
v -6.0335693359375 -3.7920591831207275 -76.93648529052734
v 5.3745222091674805 -9.489148139953613 -69.3404769897461
v 1.5664509534835815 3.8079609870910645 -46.53248977661133
v 8.35039234161377 -9.489148139953613 -72.88787841796875
v 11.450386047363281 -9.489148139953613 -76.93648529052734
v 6.741095066070557 -9.489148139953613 -76.33917999267578
v 2.751365900039673 -9.489148139953613 -73.09608459472656
v 11.450386047363281 -9.489148139953613 -73.13648986816406
v 1.566340446472168 -3.7920591831207275 -69.3404769897461
v 1.566230058670044 3.8079609870910645 -69.3404769897461
v -10.783498764038086 3.8080713748931885 -46.53248596191406
v -7.933629512786865 3.8080713748931885 -75.03788757324219
v 5.3745222091674805 9.50792121887207 -46.53248977661133
v 8.35039234161377 -9.489148139953613 -72.88787841796875
v 6.741095066070557 -9.489148139953613 -76.33917999267578
v 6.049360752105713 -9.489148139953613 -71.19198608398438
v 6.049360752105713 -9.489148139953613 -71.19198608398438
v 6.741095066070557 -9.489148139953613 -76.33917999267578
v 2.751365900039673 -9.489148139953613 -73.09608459472656
v 5.3745222091674805 9.50792121887207 -69.3404769897461
v 5.3745222091674805 9.50792121887207 -46.53248977661133
v 1.5664509534835815 9.508030891418457 -46.53248977661133
v 1.566340446472168 -9.489148139953613 -69.3404769897461
v -10.783609390258789 -1.8918883800506592 -46.53248596191406
v 2.751365900039673 -9.489148139953613 -73.09608459472656
v 5.3745222091674805 -9.489148139953613 -69.3404769897461
v 6.049360752105713 -9.489148139953613 -71.19198608398438
v 1.5664509534835815 9.508030891418457 -46.53248977661133
v 5.3745222091674805 -9.489148139953613 -69.3404769897461
v 2.751365900039673 -9.489148139953613 -73.09608459472656
v 1.566340446472168 -9.489148139953613 -69.3404769897461
v 1.566340446472168 -3.7920591831207275 -69.3404769897461
v -7.933629512786865 -3.7920591831207275 -75.03788757324219
v -10.783498764038086 -3.7920591831207275 -46.53248596191406
v 1.566230058670044 3.8079609870910645 -69.3404769897461
v 1.5664509534835815 3.8079609870910645 -46.53248977661133
v -10.783498764038086 3.8080713748931885 -46.53248596191406
v -10.783498764038086 3.8080713748931885 -46.53248596191406
v -10.783498764038086 1.9080111980438232 -46.53248596191406
v 1.5664509534835815 -9.489148139953613 -46.53248977661133
v 5.3745222091674805 -9.489148139953613 -69.3404769897461
v 1.566340446472168 -9.489148139953613 -69.3404769897461
v 1.5664509534835815 -9.489148139953613 -46.53248977661133
v 5.3745222091674805 -9.4892578125 -46.53248977661133
v -10.783498764038086 -3.7920591831207275 -46.53248596191406
v 1.566340446472168 -3.7920591831207275 -69.3404769897461
v -10.783498764038086 -3.7920591831207275 -46.53248596191406
v 1.5664509534835815 -3.7919485569000244 -46.53248977661133
v 1.5664509534835815 -3.7919485569000244 -46.53248977661133
v 1.5664509534835815 -9.489148139953613 -46.53248977661133
v 5.3745222091674805 -9.4892578125 -46.53248977661133
v 5.3745222091674805 -9.489148139953613 -69.3404769897461
v 1.5664509534835815 1.9080111980438232 -46.53248977661133
v 1.5664509534835815 1.9080111980438232 9.675098419189453
v -10.783498764038086 1.9080111980438232 -46.53248596191406
v 1.5664509534835815 1.9080111980438232 -46.53248977661133
v 1.5664509534835815 -1.8919988870620728 -46.53248977661133
v 1.5664509534835815 1.9080111980438232 9.675098419189453
v 1.5664509534835815 -1.8919988870620728 9.675098419189453
v 1.5664509534835815 -1.8919988870620728 -46.53248977661133
v -10.783609390258789 -1.8918883800506592 -46.53248596191406
v -15.151561737060547 1.9000602960586548 13.47509765625
v 1.5664509534835815 -1.8919988870620728 9.675098419189453
v 1.5664509534835815 1.9080111980438232 9.675098419189453
v -15.151561737060547 1.9000602960586548 13.47509765625
v -10.783498764038086 1.9080111980438232 -46.53248596191406
v -15.151561737060547 -1.9000602960586548 13.47509765625
v 1.5664509534835815 -1.8919988870620728 9.675098419189453
v -10.783609390258789 -1.8918883800506592 -46.53248596191406
v -15.151561737060547 -1.9000602960586548 13.47509765625
vt 0.9742299914360046 0.4676583409309387
vt 0.974755585193634 0.46742933988571167
vt 0.9733914136886597 0.46693331003189087
vt 0.9733914136886597 0.46693331003189087
vt 0.974755585193634 0.46742933988571167
vt 0.9728336334228516 0.4683477282524109
vt 0.9733914136886597 0.46693331003189087
vt 0.9733306765556335 0.4673479199409485
vt 0.9742299914360046 0.4676583409309387
vt 0.9733306765556335 0.4673479199409485
vt 0.9733914136886597 0.46693331003189087
vt 0.9728336334228516 0.4683477282524109
vt 0.9748728275299072 0.4680532217025757
vt 0.9748728275299072 0.4680532217025757
vt 0.9758656620979309 0.4681476354598999
vt 0.974755585193634 0.46742933988571167
vt 0.9741990566253662 0.46884429454803467
vt 0.9758656620979309 0.4681476354598999
vt 0.9753105640411377 0.469562292098999
vt 0.9750389456748962 0.46831613779067993
vt 0.9758656620979309 0.4681476354598999
vt 0.9748728275299072 0.4680532217025757
vt 0.977942705154419 0.4699513912200928
vt 0.9728336334228516 0.4683477282524109
vt 0.9741990566253662 0.46884429454803467
vt 0.9733306765556335 0.4673479199409485
vt 0.9728336334228516 0.4683477282524109
vt 0.9720884561538696 0.4702376127243042
vt 0.9750389456748962 0.46831613779067993
vt 0.9761481881141663 0.46866416931152344
vt 0.9758656620979309 0.4681476354598999
vt 0.9761481881141663 0.46866416931152344
vt 0.977942705154419 0.4699513912200928
vt 0.9741990566253662 0.46884429454803467
vt 0.9753105640411377 0.469562292098999
vt 0.9728336334228516 0.4683477282524109
vt 0.977942705154419 0.4699513912200928
vt 0.9720884561538696 0.4702376127243042
vt 0.9755939245223999 0.4700778126716614
vt 0.9784652590751648 0.4703317880630493
vt 0.977942705154419 0.4699513912200928
vt 0.977942705154419 0.4699513912200928
vt 0.9753105640411377 0.469562292098999
vt 0.9755939245223999 0.4700778126716614
vt 0.9755939245223999 0.4700778126716614
vt 0.9772029519081116 0.47184526920318604
vt 0.9784652590751648 0.4703317880630493
vt 0.9720884561538696 0.4702376127243042
vt 0.9714697599411011 0.4720679521560669
vt 0.9733306765556335 0.4673479199409485
vt 0.9748728275299072 0.4680532217025757
vt 0.9730170965194702 0.4727741479873657
vt 0.9750389456748962 0.46831613779067993
vt 0.9734553694725037 0.47073501348495483
vt 0.9720884561538696 0.4702376127243042
vt 0.9772029519081116 0.47184526920318604
vt 0.9777264595031738 0.47222524881362915
vt 0.9720884561538696 0.4702376127243042
vt 0.9734553694725037 0.47073501348495483
vt 0.9715285897254944 0.47165733575820923
vt 0.9745688438415527 0.471452534198761
vt 0.9734553694725037 0.47073501348495483
vt 0.9772029519081116 0.47184526920318604
vt 0.9750389456748962 0.46831613779067993
vt 0.9757678508758545 0.4711231589317322
vt 0.9761481881141663 0.46866416931152344
vt 0.9745688438415527 0.471452534198761
vt 0.9728967547416687 0.4721553921699524
vt 0.9720884561538696 0.4702376127243042
vt 0.9715285897254944 0.47165733575820923
vt 0.9714697599411011 0.4720679521560669
vt 0.9748532772064209 0.4719666838645935
vt 0.9772029519081116 0.47184526920318604
vt 0.9777264595031738 0.47222524881362915
vt 0.9748532772064209 0.4719666838645935
vt 0.9745688438415527 0.471452534198761
vt 0.9772029519081116 0.47184526920318604
vt 0.9731846451759338 0.4730355143547058
vt 0.9752169251441956 0.4725295305252075
vt 0.9723716378211975 0.47237980365753174
vt 0.9715285897254944 0.47165733575820923
vt 0.9728967547416687 0.4721553921699524
vt 0.9740116000175476 0.4728724956512451
vt 0.9714697599411011 0.4720679521560669
vt 0.9748532772064209 0.4719666838645935
vt 0.9755939245223999 0.4700778126716614
vt 0.9787962436676025 0.4736555218696594
vt 0.9784652590751648 0.4703317880630493
vt 0.9746661186218262 0.47077691555023193
vt 0.9723716378211975 0.47237980365753174
vt 0.9728967547416687 0.4721553921699524
vt 0.9730170965194702 0.4727741479873657
vt 0.9730170965194702 0.4727741479873657
vt 0.9728967547416687 0.4721553921699524
vt 0.9740116000175476 0.4728724956512451
vt 0.9750389456748962 0.46831613779067993
vt 0.9746661186218262 0.47077691555023193
vt 0.9757678508758545 0.4711231589317322
vt 0.9742969274520874 0.47338563203811646
vt 0.9782471656799316 0.47506654262542725
vt 0.9740116000175476 0.4728724956512451
vt 0.9731846451759338 0.4730355143547058
vt 0.9730170965194702 0.4727741479873657
vt 0.9757678508758545 0.4711231589317322
vt 0.9731846451759338 0.4730355143547058
vt 0.9740116000175476 0.4728724956512451
vt 0.9742969274520874 0.47338563203811646
vt 0.9748532772064209 0.4719666838645935
vt 0.9777264595031738 0.47222524881362915
vt 0.9780638813972473 0.47553741931915283
vt 0.9755939245223999 0.4700778126716614
vt 0.9752169251441956 0.4725295305252075
vt 0.9787962436676025 0.4736555218696594
vt 0.9787962436676025 0.4736555218696594
vt 0.9786133170127869 0.47412556409835815
vt 0.9739278554916382 0.4758203625679016
vt 0.9731846451759338 0.4730355143547058
vt 0.9742969274520874 0.47338563203811646
vt 0.9739278554916382 0.4758203625679016
vt 0.9728232026100159 0.47547203302383423
vt 0.9780638813972473 0.47553741931915283
vt 0.9748532772064209 0.4719666838645935
vt 0.9780638813972473 0.47553741931915283
vt 0.9744808077812195 0.47440868616104126
vt 0.9744808077812195 0.47440868616104126
vt 0.9739278554916382 0.4758203625679016
vt 0.9728232026100159 0.47547203302383423
vt 0.9731846451759338 0.4730355143547058
vt 0.9750330448150635 0.4729989171028137
vt 0.9741280674934387 0.4788969159126282
vt 0.9786133170127869 0.47412556409835815
vt 0.9750330448150635 0.4729989171028137
vt 0.9746650457382202 0.4739384651184082
vt 0.9741280674934387 0.4788969159126282
vt 0.97376549243927 0.4798247218132019
vt 0.9746650457382202 0.4739384651184082
vt 0.9782471656799316 0.47506654262542725
vt 0.9788298010826111 0.48079586029052734
vt 0.97376549243927 0.4798247218132019
vt 0.9741280674934387 0.4788969159126282
vt 0.9788298010826111 0.48079586029052734
vt 0.9786133170127869 0.47412556409835815
vt 0.9784700870513916 0.48172467947006226
vt 0.97376549243927 0.4798247218132019
vt 0.9782471656799316 0.47506654262542725
vt 0.9784700870513916 0.48172467947006226
vn 0 1 -0
vn 0 1 -0
vn 0 1 -0
vn 0.6611854434013367 -0.00003601392745622434 -0.7502226233482361
vn -0.39342716336250305 -0.000006933818440302275 -0.9193557500839233
vn 0.6852848529815674 0.000035983921407023445 -0.7282752394676208
vn 0 0.9999999403953552 -0
vn 0 0.9999999403953552 -0
vn 0 0.9999999403953552 -0
vn 0.7347559332847595 0.6653508543968201 0.1320679932832718
vn 1 -0 -0
vn 0.636260449886322 -0.6117007732391357 0.4701008200645447
vn 0 1 -0
vn -0.00003107335578533821 1 -0.00000409596987083205
vn -0.00003107335578533821 1 -0.00000409596987083205
vn -0.00003107335578533821 1 -0.00000409596987083205
vn -0.3934206962585449 -0.00000764482501836028 -0.9193585515022278
vn -0.8270552754402161 -0.000016050304111558944 -0.5621206760406494
vn -0.8270421624183655 -0.000004172378794464748 -0.5621398687362671
vn -0.0000561116321478039 1 0.00003928094884031452
vn -0.0000561116321478039 1 0.00003928094884031452
vn -0.0000561116321478039 1 0.00003928094884031452
vn 0 1 -0
vn 0 1 -0
vn 0 1 -0
vn 0.7347559332847595 0.5738089680671692 -0.3617692291736603
vn 0.636260449886322 -0.24827522039413452 -0.7304328083992004
vn 0.7282515168190002 -0.4462096095085144 0.520141065120697
vn 0 1 -0
vn 0 1 -0
vn 0 1 -0
vn -0.9883434772491455 0.000006110885806265287 -0.1522400826215744
vn 0.0000015054987443363643 1 -0.00003220711732865311
vn 0.0000015054987443363643 1 -0.00003220711732865311
vn 0.0000015054987443363643 1 -0.00003220711732865311
vn 0.6853099465370178 -0.00003289325468358584 -0.7282515168190002
vn -0.38253656029701233 -0.000005545150543184718 -0.9239403605461121
vn 0.6853099465370178 0.00003428887066547759 -0.7282515168190002
vn 0.000029064198315609246 1 -0.000028989146812818944
vn 0.000029064198315609246 1 -0.000028989146812818944
vn 0.000029064198315609246 1 -0.000028989146812818944
vn -0.00002234169005532749 1 0.000022283997168415226
vn -0.00002234169005532749 1 0.000022283997168415226
vn -0.00002234169005532749 1 0.000022283997168415226
vn -0.9883420467376709 0.000019149154468323104 -0.15224967896938324
vn -0.38249561190605164 -0.0000011990606481049326 -0.9239572286605835
vn -0.9005884528160095 0.004016746301203966 -0.43465423583984375
vn 0.7282515168190002 -0.5024846196174622 -0.4660031795501709
vn 0.7347559332847595 -0.5379043817520142 -0.4132705330848694
vn 0.7347559332847595 0.4416659474372864 -0.514844536781311
vn 0.939538836479187 -0 0.3424423933029175
vn 0.9395377039909363 -0 0.34244558215141296
vn 0.9847679734230042 -0 0.17387358844280243
vn 0.000006316082362900488 -1 0.00004902579530607909
vn 0.000006316082362900488 -1 0.00004902579530607909
vn 0.000006316082362900488 -1 0.00004902579530607909
vn -0.9052954912185669 -0.0070063211023807526 -0.42472463846206665
vn 0.6852884292602539 -0.000037028959923190996 -0.7282717823982239
vn -0.3934254050254822 -0.000006937351372471312 -0.9193565249443054
vn 0.6611855030059814 0.00003493958502076566 -0.7502224445343018
vn 0.000009679884897195734 -1 -0.00002201809002144728
vn 0.000009679884897195734 -1 -0.00002201809002144728
vn 0.000009679884897195734 -1 -0.00002201809002144728
vn 0 1 -0.000004816316049982561
vn 0 1 -0.000004816316049982561
vn 0 1 -0.000004816316049982561
vn -0.82704097032547 0.000009242447049473412 -0.5621417164802551
vn -0.39342984557151794 -0.0000008598929071013117 -0.9193546175956726
vn 0.7282515168190002 0.22043338418006897 -0.648890495300293
vn 0.6610665321350098 -0.7503272891044617 0.00003584399019018747
vn 0.7347559332847595 -0.6653410196304321 0.13211758434772491
vn 0 -0.9999999403953552 -0.0000002163306191960146
vn 0 -0.9999999403953552 -0.0000002163306191960146
vn 0 -0.9999999403953552 -0.0000002163306191960146
vn 0 -1 -0.00000004157555366646193
vn 0 -1 -0.00000004157555366646193
vn 0 -1 -0.00000004157555366646193
vn 0.9847691655158997 -0 0.17386691272258759
vn -1 0.00000301708996630623 0.000005596467872237554
vn 0 -1 -0
vn 0 -1 -0
vn 0 -1 -0
vn -0.8270511627197266 0.000010117415513377637 -0.5621265769004822
vn 0 -1 -0
vn -0.9883435368537903 0.000005757463895861292 -0.15223971009254456
vn 0.000010966828995151445 0.9999999403953552 0.0000010876302667384152
vn 0.000010966828995151445 0.9999999403953552 0.0000010876302667384152
vn 0.000010966828995151445 0.9999999403953552 0.0000010876302667384152
vn 1 -0 -0
vn 0 -1 0.00000029256327138682536
vn 0 -1 0.00000029256327138682536
vn 0 -1 0.00000029256327138682536
vn 0 -1 -0.00000008533173456726217
vn 0 -1 -0.00000008533173456726217
vn 0 -1 -0.00000008533173456726217
vn 0.000028998965717619285 1 -0
vn 0.000028998965717619285 1 -0
vn 0.000028998965717619285 1 -0
vn -0.9883455038070679 -0 -0.15222732722759247
vn -0.9958785176277161 0.005591749679297209 -0.09052437543869019
vn 0 -1 0.0000004223757912313886
vn 0 -1 0.0000004223757912313886
vn 0 -1 0.0000004223757912313886
vn -0.9999999403953552 -0 0.0000048417268772027455
vn 0 -1 0.00000021828176954841183
vn 0 -1 0.00000021828176954841183
vn 0 -1 0.00000021828176954841183
vn 0 -1 -0
vn 0 -1 -0
vn 0 -1 -0
vn 0.000008941742635215633 1 -0.00000001333439847428508
vn 0.000008941742635215633 1 -0.00000001333439847428508
vn 0.000008941742635215633 1 -0.00000001333439847428508
vn -0.9943342804908752 -0 -0.10629934817552567
vn -0.9954295754432678 0.004887943156063557 -0.09537314623594284
vn -1 -0 0.000004841728241444798
vn 0 -1 -0.00000007188531725432767
vn 0 -1 -0.00000007188531725432767
vn 0 -1 -0.00000007188531725432767
vn 1 -0 -0
vn -0.9945342540740967 0.004789633210748434 -0.10430137068033218
vn 0.000008941747182689141 -1 0.000004832247213926166
vn 0.000008941747182689141 -1 0.000004832247213926166
vn 0.000008941747182689141 -1 0.000004832247213926166
vn -1 -0 0.000004841727331950096
vn -0.000028998965717619285 -1 -0.000004816455657419283
vn -0.000028998965717619285 -1 -0.000004816455657419283
vn -0.000028998965717619285 -1 -0.000004816455657419283
vn 0.0007491491851396859 0.9999997019767761 -0.00016457689343951643
vn 0 1 -0
vn 0.0005601336597464979 0.9999998211860657 -0.00013105227844789624
vn 1 -0 -0
vn 1 -0 -0
vn 1 -0 -0
vn 0.0001944907271536067 -0.9999998807907104 0.00026687359786592424
vn -0.0005708035314455628 -0.9999997615814209 0.000123432808322832
vn -0.0007076036417856812 -0.9999996423721313 0.0003165146626997739
vn -0.998755693435669 0.000005605194473901065 -0.04987049475312233
vn 1 -0 -0
vn -0.00045297032920643687 0.9999998807907104 0.0000995280861388892
vn -0.000776221975684166 0.9999997019767761 0.000009447030606679618
vn -0.00017931568436324596 0.9999997615814209 0.0006055296980775893
vn -0.0004157611692789942 -0.9999997615814209 -0.0004956093616783619
vn 0.0007909187115728855 -0.9999997019767761 -0.00005453830090118572
vn -0.0002986304461956024 -0.9999999403953552 -0.00022342411102727056
vn -0.9987581968307495 0.00000006156173526505881 -0.04982255771756172
f 3/3/3 2/2/2 1/1/1
f 6/6/6 5/5/5 4/4/4
f 9/9/9 8/8/8 7/7/7
f 12/12/12 11/11/11 10/10/10
f 13/13/13 1/1/1 2/2/2
f 16/16/16 15/15/15 14/14/14
f 6/6/6 17/17/17 5/5/5
f 5/5/5 19/19/19 18/18/18
f 5/5/5 17/17/17 19/19/19
f 22/22/22 21/21/21 20/20/20
f 25/25/25 24/24/24 23/23/23
f 28/28/28 27/27/27 26/26/26
f 31/31/31 30/30/30 29/29/29
f 19/19/19 32/32/32 18/18/18
f 35/35/35 34/34/34 33/33/33
f 38/38/38 37/37/37 36/36/36
f 41/41/41 40/40/40 39/39/39
f 44/44/44 43/43/43 42/42/42
f 19/19/19 45/45/45 32/32/32
f 47/47/47 37/37/37 46/46/46
f 38/38/38 46/46/46 37/37/37
f 50/50/50 49/49/49 48/48/48
f 53/53/53 52/52/52 51/51/51
f 56/56/56 55/55/55 54/54/54
f 47/47/47 46/46/46 57/57/57
f 60/60/60 59/59/59 58/58/58
f 63/63/63 62/62/62 61/61/61
f 66/66/66 65/65/65 64/64/64
f 68/68/68 67/67/67 59/59/59
f 60/60/60 68/68/68 59/59/59
f 71/71/71 70/70/70 69/69/69
f 74/74/74 73/73/73 72/72/72
f 77/77/77 76/76/76 75/75/75
f 53/53/53 78/78/78 52/52/52
f 79/79/79 32/32/32 45/45/45
f 82/82/82 81/81/81 80/80/80
f 68/68/68 83/83/83 67/67/67
f 81/81/81 84/84/84 80/80/80
f 83/83/83 85/85/85 67/67/67
f 88/88/88 87/87/87 86/86/86
f 89/89/89 78/78/78 53/53/53
f 92/92/92 91/91/91 90/90/90
f 95/95/95 94/94/94 93/93/93
f 98/98/98 97/97/97 96/96/96
f 83/83/83 99/99/99 85/85/85
f 47/47/47 57/57/57 100/100/100
f 103/103/103 102/102/102 101/101/101
f 79/79/79 104/104/104 32/32/32
f 107/107/107 106/106/106 105/105/105
f 110/110/110 109/109/109 108/108/108
f 113/113/113 112/112/112 111/111/111
f 115/115/115 114/114/114 47/47/47
f 100/100/100 115/115/115 47/47/47
f 85/85/85 99/99/99 116/116/116
f 119/119/119 118/118/118 117/117/117
f 89/89/89 120/120/120 78/78/78
f 57/57/57 121/121/121 100/100/100
f 124/124/124 123/123/123 122/122/122
f 85/85/85 116/116/116 125/125/125
f 128/128/128 127/127/127 126/126/126
f 131/131/131 130/130/130 129/129/129
f 134/134/134 133/133/133 132/132/132
f 137/137/137 136/136/136 135/135/135
f 100/100/100 138/138/138 115/115/115
f 134/134/134 139/139/139 133/133/133
f 142/142/142 141/141/141 140/140/140
f 145/145/145 144/144/144 143/143/143
f 100/100/100 146/146/146 138/138/138
