# VPXTOOL table OBJ file
# VPXTOOL OBJ file
# numVerts: 120 numFaces: 138
o LM_L_LLO_UnderPF
v -381.1938781738281 556.9594116210938 -12.23087215423584
v -390.2191467285156 558.754638671875 -12.23087215423584
v -381.1938781738281 556.9594116210938 -6.426159381866455
v -373.5426025390625 551.8470458984375 -12.23087215423584
v -381.1938781738281 556.9594116210938 -12.23087215423584
v -373.5426025390625 551.8470458984375 -6.426159381866455
v -381.1938781738281 556.9594116210938 -12.23087215423584
v -381.1938781738281 556.9594116210938 -6.426159381866455
v -373.5426025390625 551.8470458984375 -6.426159381866455
v -390.2191467285156 558.754638671875 -12.23087215423584
v -399.2444152832031 556.9594116210938 -12.23087215423584
v -390.2191467285156 558.754638671875 -6.426159381866455
v -390.2191467285156 558.754638671875 -12.23087215423584
v -390.2191467285156 558.754638671875 -6.426159381866455
v -381.1938781738281 556.9594116210938 -6.426159381866455
v -368.4302062988281 544.1957397460938 -12.23087215423584
v -373.5426025390625 551.8470458984375 -12.23087215423584
v -368.4302062988281 544.1957397460938 -6.426159381866455
v -373.5426025390625 551.8470458984375 -12.23087215423584
v -373.5426025390625 551.8470458984375 -6.426159381866455
v -368.4302062988281 544.1957397460938 -6.426159381866455
v -399.2444152832031 556.9594116210938 -12.23087215423584
v -399.2444152832031 556.9594116210938 -6.426159381866455
v -390.2191467285156 558.754638671875 -6.426159381866455
v -399.2444152832031 556.9594116210938 -12.23087215423584
v -406.89569091796875 551.8470458984375 -12.23087215423584
v -399.2444152832031 556.9594116210938 -6.426159381866455
v -366.63494873046875 535.17041015625 -6.426159381866455
v -381.1938781738281 556.9594116210938 -6.426159381866455
v -390.2191467285156 558.754638671875 -6.426159381866455
v -366.63494873046875 535.17041015625 -6.426159381866455
v -373.5426025390625 551.8470458984375 -6.426159381866455
v -381.1938781738281 556.9594116210938 -6.426159381866455
v -368.4302062988281 544.1957397460938 -12.23087215423584
v -368.4302062988281 544.1957397460938 -6.426159381866455
v -366.63494873046875 535.17041015625 -6.426159381866455
v -366.63494873046875 535.17041015625 -12.23087215423584
v -368.4302062988281 544.1957397460938 -6.426159381866455
v -406.89569091796875 551.8470458984375 -12.23087215423584
v -406.89569091796875 551.8470458984375 -6.426159381866455
v -399.2444152832031 556.9594116210938 -6.426159381866455
v -406.89569091796875 551.8470458984375 -12.23087215423584
v -412.0080871582031 544.1957397460938 -12.23087215423584
v -406.89569091796875 551.8470458984375 -6.426159381866455
v -413.8033142089844 535.17041015625 -6.426159381866455
v -399.2444152832031 556.9594116210938 -6.426159381866455
v -366.63494873046875 535.17041015625 -12.23087215423584
v -366.63494873046875 535.17041015625 -6.426159381866455
v -368.4302062988281 526.1452026367188 -6.426159381866455
v -368.4302062988281 526.1452026367188 -12.23087215423584
v -406.89569091796875 551.8470458984375 -6.426159381866455
v -412.0080871582031 544.1957397460938 -12.23087215423584
v -412.0080871582031 544.1957397460938 -6.426159381866455
v -406.89569091796875 551.8470458984375 -6.426159381866455
v -390.2191467285156 511.5863037109375 -6.426159381866455
v -390.2191467285156 558.754638671875 -6.426159381866455
v -412.0080871582031 544.1957397460938 -12.23087215423584
v -413.8033142089844 535.17041015625 -12.23087215423584
v -412.0080871582031 544.1957397460938 -6.426159381866455
v -406.89569091796875 551.8470458984375 -6.426159381866455
v -412.0080871582031 544.1957397460938 -6.426159381866455
v -413.8033142089844 535.17041015625 -6.426159381866455
v -373.5426025390625 518.4939575195313 -6.426159381866455
v -368.4302062988281 526.1452026367188 -6.426159381866455
v -366.63494873046875 535.17041015625 -6.426159381866455
v -368.4302062988281 526.1452026367188 -12.23087215423584
v -368.4302062988281 526.1452026367188 -6.426159381866455
v -373.5426025390625 518.4939575195313 -6.426159381866455
v -373.5426025390625 518.4939575195313 -12.23087215423584
v -368.4302062988281 526.1452026367188 -12.23087215423584
v -373.5426025390625 518.4939575195313 -6.426159381866455
v -390.2191467285156 511.5863037109375 -6.426159381866455
v -413.8033142089844 535.17041015625 -6.426159381866455
v -381.1938781738281 513.381591796875 -6.426159381866455
v -373.5426025390625 518.4939575195313 -6.426159381866455
v -413.8033142089844 535.17041015625 -12.23087215423584
v -412.0080871582031 526.1452026367188 -12.23087215423584
v -413.8033142089844 535.17041015625 -6.426159381866455
v -373.5426025390625 518.4939575195313 -12.23087215423584
v -373.5426025390625 518.4939575195313 -6.426159381866455
v -381.1938781738281 513.381591796875 -6.426159381866455
v -381.1938781738281 513.381591796875 -12.23087215423584
v -373.5426025390625 518.4939575195313 -12.23087215423584
v -381.1938781738281 513.381591796875 -6.426159381866455
v -366.63494873046875 535.17041015625 -6.426159381866455
v -390.2191467285156 511.5863037109375 -6.426159381866455
v -381.1938781738281 513.381591796875 -6.426159381866455
v -412.0080871582031 526.1452026367188 -6.426159381866455
v -412.0080871582031 526.1452026367188 -12.23087215423584
v -406.89569091796875 518.4939575195313 -12.23087215423584
v -412.0080871582031 526.1452026367188 -6.426159381866455
v -390.2191467285156 511.5863037109375 -12.23087215423584
v -381.1938781738281 513.381591796875 -12.23087215423584
v -390.2191467285156 511.5863037109375 -6.426159381866455
v -413.8033142089844 535.17041015625 -6.426159381866455
v -412.0080871582031 526.1452026367188 -6.426159381866455
v -406.89569091796875 518.4939575195313 -6.426159381866455
v -381.1938781738281 513.381591796875 -12.23087215423584
v -381.1938781738281 513.381591796875 -6.426159381866455
v -390.2191467285156 511.5863037109375 -6.426159381866455
v -406.89569091796875 518.4939575195313 -12.23087215423584
v -406.89569091796875 518.4939575195313 -6.426159381866455
v -412.0080871582031 526.1452026367188 -6.426159381866455
v -406.89569091796875 518.4939575195313 -12.23087215423584
v -399.2444152832031 513.381591796875 -12.23087215423584
v -406.89569091796875 518.4939575195313 -6.426159381866455
v -406.89569091796875 518.4939575195313 -6.426159381866455
v -399.2444152832031 513.381591796875 -6.426159381866455
v -413.8033142089844 535.17041015625 -6.426159381866455
v -399.2444152832031 513.381591796875 -6.426159381866455
v -390.2191467285156 511.5863037109375 -6.426159381866455
v -399.2444152832031 513.381591796875 -12.23087215423584
v -390.2191467285156 511.5863037109375 -12.23087215423584
v -399.2444152832031 513.381591796875 -6.426159381866455
v -390.2191467285156 511.5863037109375 -12.23087215423584
v -390.2191467285156 511.5863037109375 -6.426159381866455
v -399.2444152832031 513.381591796875 -6.426159381866455
v -399.2444152832031 513.381591796875 -12.23087215423584
v -399.2444152832031 513.381591796875 -6.426159381866455
v -406.89569091796875 518.4939575195313 -6.426159381866455
vt 0.7975486516952515 0.7155680656433105
vt 0.7996878027915955 0.718124508857727
vt 0.800390362739563 0.7153729200363159
vt 0.7914640307426453 0.7133336067199707
vt 0.7975486516952515 0.7155680656433105
vt 0.7943136096000671 0.7131423950195313
vt 0.7975486516952515 0.7155680656433105
vt 0.800390362739563 0.7153729200363159
vt 0.7943136096000671 0.7131423950195313
vt 0.7996878027915955 0.718124508857727
vt 0.7975486516952515 0.7206095457077026
vt 0.8025267124176025 0.717924952507019
vt 0.7996878027915955 0.718124508857727
vt 0.8025267124176025 0.717924952507019
vt 0.800390362739563 0.7153729200363159
vt 0.782377302646637 0.7117632031440735
vt 0.7914640307426453 0.7133336067199707
vt 0.78523850440979 0.7115748524665833
vt 0.7914640307426453 0.7133336067199707
vt 0.7943136096000671 0.7131423950195313
vt 0.78523850440979 0.7115748524665833
vt 0.7975486516952515 0.7206095457077026
vt 0.800390362739563 0.7204058170318604
vt 0.8025267124176025 0.717924952507019
vt 0.7975486516952515 0.7206095457077026
vt 0.7914640307426453 0.7226409912109375
vt 0.800390362739563 0.7204058170318604
vt 0.7745636701583862 0.7109075784683228
vt 0.800390362739563 0.7153729200363159
vt 0.8025267124176025 0.717924952507019
vt 0.7745636701583862 0.7109075784683228
vt 0.7943136096000671 0.7131423950195313
vt 0.800390362739563 0.7153729200363159
vt 0.782377302646637 0.7117632031440735
vt 0.78523850440979 0.7115748524665833
vt 0.7745636701583862 0.7109075784683228
vt 0.7716888189315796 0.7110944986343384
vt 0.78523850440979 0.7115748524665833
vt 0.7914640307426453 0.7226409912109375
vt 0.7943136096000671 0.7224340438842773
vt 0.800390362739563 0.7204058170318604
vt 0.7914640307426453 0.7226409912109375
vt 0.782377302646637 0.7239083051681519
vt 0.7943136096000671 0.7224340438842773
vt 0.7745636701583862 0.7240113019943237
vt 0.800390362739563 0.7204058170318604
vt 0.7716888189315796 0.7110944986343384
vt 0.7745636701583862 0.7109075784683228
vt 0.7639211416244507 0.7112382650375366
vt 0.7610327005386353 0.7114255428314209
vt 0.7943136096000671 0.7224340438842773
vt 0.782377302646637 0.7239083051681519
vt 0.78523850440979 0.7236994504928589
vt 0.7943136096000671 0.7224340438842773
vt 0.7468209862709045 0.7169976234436035
vt 0.8025267124176025 0.717924952507019
vt 0.782377302646637 0.7239083051681519
vt 0.7716888189315796 0.724220335483551
vt 0.78523850440979 0.7236994504928589
vt 0.7943136096000671 0.7224340438842773
vt 0.78523850440979 0.7236994504928589
vt 0.7745636701583862 0.7240113019943237
vt 0.7549239993095398 0.7125125527381897
vt 0.7639211416244507 0.7112382650375366
vt 0.7745636701583862 0.7109075784683228
vt 0.7610327005386353 0.7114255428314209
vt 0.7639211416244507 0.7112382650375366
vt 0.7549239993095398 0.7125125527381897
vt 0.7520240545272827 0.712701678276062
vt 0.7610327005386353 0.7114255428314209
vt 0.7549239993095398 0.7125125527381897
vt 0.7468209862709045 0.7169976234436035
vt 0.7745636701583862 0.7240113019943237
vt 0.7489250302314758 0.7145345211029053
vt 0.7549239993095398 0.7125125527381897
vt 0.7716888189315796 0.724220335483551
vt 0.7610327005386353 0.7235338687896729
vt 0.7745636701583862 0.7240113019943237
vt 0.7520240545272827 0.712701678276062
vt 0.7549239993095398 0.7125125527381897
vt 0.7489250302314758 0.7145345211029053
vt 0.7460176348686218 0.7147268056869507
vt 0.7520240545272827 0.712701678276062
vt 0.7489250302314758 0.7145345211029053
vt 0.7745636701583862 0.7109075784683228
vt 0.7468209862709045 0.7169976234436035
vt 0.7489250302314758 0.7145345211029053
vt 0.7639211416244507 0.7233262062072754
vt 0.7610327005386353 0.7235338687896729
vt 0.7520240545272827 0.7219570875167847
vt 0.7639211416244507 0.7233262062072754
vt 0.7439107894897461 0.7171940803527832
vt 0.7460176348686218 0.7147268056869507
vt 0.7468209862709045 0.7169976234436035
vt 0.7745636701583862 0.7240113019943237
vt 0.7639211416244507 0.7233262062072754
vt 0.7549239993095398 0.721752405166626
vt 0.7460176348686218 0.7147268056869507
vt 0.7489250302314758 0.7145345211029053
vt 0.7468209862709045 0.7169976234436035
vt 0.7520240545272827 0.7219570875167847
vt 0.7549239993095398 0.721752405166626
vt 0.7639211416244507 0.7233262062072754
vt 0.7520240545272827 0.7219570875167847
vt 0.7460176348686218 0.7197315692901611
vt 0.7549239993095398 0.721752405166626
vt 0.7549239993095398 0.721752405166626
vt 0.7489250302314758 0.7195308208465576
vt 0.7745636701583862 0.7240113019943237
vt 0.7489250302314758 0.7195308208465576
vt 0.7468209862709045 0.7169976234436035
vt 0.7460176348686218 0.7197315692901611
vt 0.7439107894897461 0.7171940803527832
vt 0.7489250302314758 0.7195308208465576
vt 0.7439107894897461 0.7171940803527832
vt 0.7468209862709045 0.7169976234436035
vt 0.7489250302314758 0.7195308208465576
vt 0.7460176348686218 0.7197315692901611
vt 0.7489250302314758 0.7195308208465576
vt 0.7549239993095398 0.721752405166626
vn -0.19509294629096985 -0.9807847738265991 -0
vn -0.19509294629096985 -0.9807847738265991 -0
vn -0.19509294629096985 -0.9807847738265991 -0
vn -0.5555657148361206 -0.831472635269165 -0
vn -0.5555657148361206 -0.831472635269165 -0
vn -0.5555657148361206 -0.831472635269165 -0
vn -0.555565595626831 -0.831472635269165 -0
vn -0.555565595626831 -0.831472635269165 -0
vn -0.555565595626831 -0.831472635269165 -0
vn 0.19509294629096985 -0.9807847738265991 -0
vn 0.19509294629096985 -0.9807847738265991 -0
vn 0.19509294629096985 -0.9807847738265991 -0
vn -0.19509291648864746 -0.9807847738265991 -0
vn -0.19509291648864746 -0.9807847738265991 -0
vn -0.19509291648864746 -0.9807847738265991 -0
vn -0.8314679861068726 -0.5555726885795593 -0
vn -0.8314679861068726 -0.5555726885795593 -0
vn -0.8314679861068726 -0.5555726885795593 -0
vn -0.8314713835716248 -0.5555675625801086 -0
vn -0.8314713835716248 -0.5555675625801086 -0
vn -0.8314713835716248 -0.5555675625801086 -0
vn 0.19509291648864746 -0.9807847738265991 -0
vn 0.19509291648864746 -0.9807847738265991 -0
vn 0.19509291648864746 -0.9807847738265991 -0
vn 0.5555657148361206 -0.831472635269165 -0
vn 0.5555657148361206 -0.831472635269165 -0
vn 0.5555657148361206 -0.831472635269165 -0
vn 0 -0 -0.9999999403953552
vn 0 -0 -0.9999999403953552
vn 0 -0 -0.9999999403953552
vn 0 -0 -1
vn 0 -0 -1
vn 0 -0 -1
vn -0.9807858467102051 -0.19508729875087738 -0
vn -0.9807858467102051 -0.19508729875087738 -0
vn -0.9807858467102051 -0.19508729875087738 -0
vn -0.9807858467102051 -0.19508729875087738 -0
vn 0 -0 -1
vn 0.555569052696228 -0.8314703106880188 -0
vn 0.555569052696228 -0.8314703106880188 -0
vn 0.555569052696228 -0.8314703106880188 -0
vn 0.8314679861068726 -0.5555726885795593 -0
vn 0.8314679861068726 -0.5555726885795593 -0
vn 0.8314679861068726 -0.5555726885795593 -0
vn 0 -0 -0.9999999403953552
vn 0 -0 -0.9999999403953552
vn -0.9807854294776917 0.19508959352970123 -0
vn -0.9807854294776917 0.19508959352970123 -0
vn -0.9807854294776917 0.19508959352970123 -0
vn -0.9807854294776917 0.19508959352970123 -0
vn 0 -0 -0.9999999403953552
vn 0.831467866897583 -0.5555726885795593 -0
vn 0.831467866897583 -0.5555726885795593 -0
vn 0.831467866897583 -0.5555726885795593 -0
vn 0 -0 -1
vn 0 -0 -1
vn 0.9807858467102051 -0.19508729875087738 -0
vn 0.9807858467102051 -0.19508729875087738 -0
vn 0.9807858467102051 -0.19508729875087738 -0
vn 0.00000019268000528427365 -0 -1
vn 0.00000019268000528427365 -0 -1
vn 0.00000019268000528427365 -0 -1
vn -0.00000019268000528427365 -0 -1
vn -0.00000019268000528427365 -0 -1
vn -0.00000019268000528427365 -0 -1
vn -0.831467866897583 0.5555726885795593 -0
vn -0.831467866897583 0.5555726885795593 -0
vn -0.831467866897583 0.5555726885795593 -0
vn -0.8314714431762695 0.5555675029754639 -0
vn -0.8314714431762695 0.5555675029754639 -0
vn -0.8314714431762695 0.5555675029754639 -0
vn 0 -0 -0.9999999403953552
vn 0.9807858467102051 -0.19508729875087738 -0
vn 0 -0 -0.9999999403953552
vn 0 -0 -0.9999999403953552
vn 0.9807854294776917 0.19508959352970123 -0
vn 0.9807854294776917 0.19508959352970123 -0
vn 0.9807854294776917 0.19508959352970123 -0
vn -0.555565595626831 0.831472635269165 -0
vn -0.555565595626831 0.831472635269165 -0
vn -0.555565595626831 0.831472635269165 -0
vn -0.5555657148361206 0.831472635269165 -0
vn -0.5555657148361206 0.831472635269165 -0
vn -0.5555657148361206 0.831472635269165 -0
vn 0.0000001464688068608666 -0 -0.9999999403953552
vn 0.0000001464688068608666 -0 -0.9999999403953552
vn 0.0000001464688068608666 -0 -0.9999999403953552
vn 0.9807854294776917 0.19508959352970123 -0
vn 0.8314679861068726 0.5555726885795593 -0
vn 0.8314679861068726 0.5555726885795593 -0
vn 0.8314679861068726 0.5555726885795593 -0
vn -0.19509294629096985 0.9807847738265991 -0
vn -0.19509294629096985 0.9807847738265991 -0
vn -0.19509294629096985 0.9807847738265991 -0
vn 0 -0 -1
vn 0 -0 -1
vn 0 -0 -1
vn -0.19509291648864746 0.9807847738265991 -0
vn -0.19509291648864746 0.9807847738265991 -0
vn -0.19509291648864746 0.9807847738265991 -0
vn 0.831467866897583 0.5555726885795593 -0
vn 0.831467866897583 0.5555726885795593 -0
vn 0.831467866897583 0.5555726885795593 -0
vn 0.5555691719055176 0.8314703106880188 -0
vn 0.5555691719055176 0.8314703106880188 -0
vn 0.5555691719055176 0.8314703106880188 -0
vn 0 -0 -0.9999999403953552
vn 0 -0 -0.9999999403953552
vn -0.00000014647018531377398 -0 -1
vn -0.00000014647018531377398 -0 -1
vn -0.00000014647018531377398 -0 -1
vn 0.19509294629096985 0.9807847738265991 -0
vn 0.19509294629096985 0.9807847738265991 -0
vn 0.19509294629096985 0.9807847738265991 -0
vn 0.19509291648864746 0.9807847738265991 -0
vn 0.19509291648864746 0.9807847738265991 -0
vn 0.19509291648864746 0.9807847738265991 -0
vn 0.555565595626831 0.831472635269165 -0
vn 0.555565595626831 0.831472635269165 -0
vn 0.555565595626831 0.831472635269165 -0
f 3/3/3 2/2/2 1/1/1
f 6/6/6 5/5/5 4/4/4
f 9/9/9 8/8/8 7/7/7
f 12/12/12 11/11/11 10/10/10
f 15/15/15 14/14/14 13/13/13
f 18/18/18 17/17/17 16/16/16
f 21/21/21 20/20/20 19/19/19
f 24/24/24 23/23/23 22/22/22
f 27/27/27 26/26/26 25/25/25
f 30/30/30 29/29/29 28/28/28
f 33/33/33 32/32/32 31/31/31
f 36/36/36 35/35/35 34/34/34
f 36/36/36 34/34/34 37/37/37
f 32/32/32 38/38/38 31/31/31
f 41/41/41 40/40/40 39/39/39
f 44/44/44 43/43/43 42/42/42
f 46/46/46 30/30/30 45/45/45
f 49/49/49 48/48/48 47/47/47
f 49/49/49 47/47/47 50/50/50
f 51/51/51 46/46/46 45/45/45
f 54/54/54 53/53/53 52/52/52
f 56/56/56 31/31/31 55/55/55
f 59/59/59 58/58/58 57/57/57
f 62/62/62 61/61/61 60/60/60
f 65/65/65 64/64/64 63/63/63
f 68/68/68 67/67/67 66/66/66
f 71/71/71 70/70/70 69/69/69
f 72/72/72 45/45/45 30/30/30
f 59/59/59 73/73/73 58/58/58
f 75/75/75 74/74/74 28/28/28
f 78/78/78 77/77/77 76/76/76
f 81/81/81 80/80/80 79/79/79
f 84/84/84 83/83/83 82/82/82
f 87/87/87 86/86/86 85/85/85
f 78/78/78 88/88/88 77/77/77
f 91/91/91 90/90/90 89/89/89
f 94/94/94 93/93/93 92/92/92
f 97/97/97 96/96/96 95/95/95
f 100/100/100 99/99/99 98/98/98
f 103/103/103 102/102/102 101/101/101
f 106/106/106 105/105/105 104/104/104
f 108/108/108 107/107/107 45/45/45
f 111/111/111 110/110/110 109/109/109
f 114/114/114 113/113/113 112/112/112
f 117/117/117 116/116/116 115/115/115
f 120/120/120 119/119/119 118/118/118
