# VPXTOOL table OBJ file
# VPXTOOL OBJ file
# numVerts: 31 numFaces: 66
o LM_L_LC3_Playfield
v -244.15174865722656 563.1470947265625 23.52941131591797
v -233.93276977539063 534.5339965820313 23.52941131591797
v -233.93276977539063 534.5339965820313 -0
v -233.93276977539063 534.5339965820313 -0
v -233.93276977539063 534.5339965820313 23.52941131591797
v -233.8252410888672 532.7052612304688 -0
v -244.15174865722656 563.1470947265625 -0
v -244.15174865722656 563.1470947265625 23.52941131591797
v -233.93276977539063 534.5339965820313 -0
v -41.22587585449219 534.7922973632813 -0
v -233.93276977539063 534.5339965820313 -0
v -233.8252410888672 532.7052612304688 -0
v -233.93276977539063 534.5339965820313 -0
v -41.22587585449219 534.7922973632813 -0
v -36.2238883972168 548.8837280273438 -0
v -106.2380599975586 639.1170654296875 -0
v 151.48098754882813 535.0505981445313 -0
v -244.15174865722656 563.1470947265625 -0
v -176.25222778320313 729.3502807617188 -0
v 161.48497009277344 563.2334594726563 -0
v 91.47079467773438 653.466796875 -0
v -181.36172485351563 743.6567993164063 -0
v 21.456623077392578 743.7000122070313 -0
v 21.456623077392578 743.7000122070313 -0
v 91.47079467773438 653.466796875 -0
v 92.43888092041016 654.9189453125 -0
v 92.92289733886719 655.6448974609375 -0
v 92.43888092041016 654.9189453125 -0
v 22.42470932006836 745.1521606445313 -0
v -48.55752182006836 833.9331665039063 -0
v -118.57166290283203 924.16650390625 -0
vt 0.8728652596473694 0.3365449905395508
vt 0.8649864792823792 0.3332574963569641
vt 0.862462043762207 0.3337240219116211
vt 0.862462043762207 0.3337240219116211
vt 0.8649864792823792 0.3332574963569641
vt 0.8619584441184998 0.3336717486381531
vt 0.8703834414482117 0.33703672885894775
vt 0.8728652596473694 0.3365449905395508
vt 0.862462043762207 0.3337240219116211
vt 0.8625332713127136 0.277778685092926
vt 0.862462043762207 0.3337240219116211
vt 0.8619584441184998 0.3336717486381531
vt 0.862462043762207 0.3337240219116211
vt 0.8625332713127136 0.277778685092926
vt 0.8664250373840332 0.27635127305984497
vt 0.891796350479126 0.297207772731781
vt 0.8626044392585754 0.2218284010887146
vt 0.8703834414482117 0.33703672885894775
vt 0.917973518371582 0.3187268376350403
vt 0.8704074621200562 0.2186969518661499
vt 0.8959043622016907 0.23870182037353516
vt 0.9222004413604736 0.3203980326652527
vt 0.9222132563591003 0.2593437433242798
vt 0.9222132563591003 0.2593437433242798
vt 0.8959043622016907 0.23870182037353516
vt 0.8963212370872498 0.23840802907943726
vt 0.8965297341346741 0.23826104402542114
vt 0.8963212370872498 0.23840802907943726
vt 0.9226434826850891 0.25905054807662964
vt 0.9493734836578369 0.2806536555290222
vt 0.9774271249771118 0.30266451835632324
vn -0.9417418837547302 -0.33633628487586975 -0
vn -0.9417418837547302 -0.33633628487586975 -0
vn -0.9417418837547302 -0.33633628487586975 -0
vn -0.9982765316963196 -0.05868411436676979 -0
vn -0.9982765316963196 -0.05868411436676979 -0
vn -0.9982765316963196 -0.05868411436676979 -0
vn -0.9417415857315063 -0.33633729815483093 -0
vn -0.9417415857315063 -0.33633729815483093 -0
vn -0.9417415857315063 -0.33633729815483093 -0
vn 0 -0 -0.9999999403953552
vn 0 -0 -0.9999999403953552
vn 0 -0 -0.9999999403953552
vn 0 -0 -1
vn 0 -0 -1
vn 0 -0 -1
vn 0 -0 -1
vn 0 -0 -1
vn 0 -0 -1
vn 0 -0 -1
vn 0 -0 -1
vn 0 -0 -1
vn 0 -0 -1
vn 0 -0 -1
vn 0 -0 -0.9999999403953552
vn 0 -0 -0.9999999403953552
vn 0 -0 -0.9999999403953552
vn 0 -0 -1
vn 0 -0 -1
vn 0 -0 -1
vn 0 -0 -1
vn 0 -0 -1
f 3/3/3 2/2/2 1/1/1
f 6/6/6 5/5/5 4/4/4
f 9/9/9 8/8/8 7/7/7
f 12/12/12 11/11/11 10/10/10
f 15/15/15 14/14/14 13/13/13
f 13/13/13 16/16/16 15/15/15
f 17/17/17 14/14/14 15/15/15
f 19/19/19 13/13/13 18/18/18
f 17/17/17 15/15/15 20/20/20
f 13/13/13 19/19/19 16/16/16
f 15/15/15 21/21/21 20/20/20
f 19/19/19 18/18/18 22/22/22
f 16/16/16 23/23/23 15/15/15
f 15/15/15 23/23/23 21/21/21
f 16/16/16 19/19/19 23/23/23
f 26/26/26 25/25/25 24/24/24
f 28/28/28 23/23/23 27/27/27
f 23/23/23 29/29/29 27/27/27
f 19/19/19 30/30/30 23/23/23
f 31/31/31 19/19/19 22/22/22
f 29/29/29 23/23/23 30/30/30
f 19/19/19 31/31/31 30/30/30
