# VPXTOOL table OBJ file
# VPXTOOL OBJ file
# numVerts: 141 numFaces: 141
o LM_L_LCC3_Playfield
v 117.18080139160156 568.2944946289063 0.000014666497008875012
v 84.45162200927734 638.3048706054688 0.000008870838428265415
v 116.46273040771484 566.6127319335938 0.000014666497008875012
v 118.4449462890625 569.37890625 0.000014666497008875012
v 84.45162200927734 638.3048706054688 0.000008870838428265415
v 117.18080139160156 568.2944946289063 0.000014666497008875012
v 84.45162200927734 638.3048706054688 0.000008870838428265415
v 121.08058166503906 569.3438720703125 0.000014666497008875012
v 122.36515808105469 568.5997314453125 0.000014666497008875012
v 84.45162200927734 638.3048706054688 0.000008870838428265415
v 118.4449462890625 569.37890625 0.000014666497008875012
v 119.9164810180664 569.5752563476563 0.000014666497008875012
v 84.45162200927734 638.3048706054688 0.000008870838428265415
v 119.9164810180664 569.5752563476563 0.000014666497008875012
v 121.08058166503906 569.3438720703125 0.000014666497008875012
v 116.46273040771484 566.6127319335938 0.000014666497008875012
v 84.45162200927734 638.3048706054688 0.000008870838428265415
v 0 638.3048706054688 -0
v 84.45162200927734 638.3048706054688 0.000008870838428265415
v 122.36515808105469 568.5997314453125 0.000014666497008875012
v 298.48272705078125 612.96435546875 0.00003062709583900869
v 298.48272705078125 612.96435546875 23.529441833496094
v 299.9750061035156 614.4566040039063 23.529441833496094
v 299.9750061035156 614.4566040039063 0.00003062709583900869
v 298.48272705078125 612.96435546875 0.00003062709583900869
v 298.48272705078125 612.96435546875 23.529441833496094
v 299.9750061035156 614.4566040039063 0.00003062709583900869
v 299.9750061035156 614.4566040039063 0.00003062709583900869
v 299.9750061035156 614.4566040039063 23.529441833496094
v 302.0135498046875 615.0027465820313 0.00003062709583900869
v 84.45162200927734 638.3048706054688 0.000008870838428265415
v 298.48272705078125 612.96435546875 0.00003062709583900869
v 299.9750061035156 614.4566040039063 0.00003062709583900869
v 195.22235107421875 748.1151733398438 0.00002168970058846753
v 84.45162200927734 638.3048706054688 0.000008870838428265415
v 299.9750061035156 614.4566040039063 0.00003062709583900869
v 84.45162200927734 638.3048706054688 0.000008870838428265415
v 55.294151306152344 866.2637329101563 0.000006160468274174491
v 0 638.3048706054688 -0
v 194.34877014160156 748.8563232421875 0.00002168970058846753
v 84.45162200927734 638.3048706054688 0.000008870838428265415
v 195.22235107421875 748.1151733398438 0.00002168970058846753
v 305.99310302734375 857.9254760742188 0.00003450940494076349
v 299.9750061035156 614.4566040039063 0.00003062709583900869
v 302.0135498046875 615.0027465820313 0.00003062709583900869
v 194.34877014160156 748.8563232421875 0.00002168970058846753
v 121.55915832519531 800.4548950195313 0.000012769153727276716
v 84.45162200927734 638.3048706054688 0.000008870838428265415
v 305.99310302734375 857.9254760742188 0.00003450940494076349
v 195.22235107421875 748.1151733398438 0.00002168970058846753
v 299.9750061035156 614.4566040039063 0.00003062709583900869
v 121.55915832519531 800.4548950195313 0.000012769153727276716
v 115.4427490234375 870.1803588867188 0.000011983930562564638
v 84.45162200927734 638.3048706054688 0.000008870838428265415
v 76.40705108642578 866.2637329101563 0.000008377966878470033
v 55.294151306152344 866.2637329101563 0.000006160468274174491
v 84.45162200927734 638.3048706054688 0.000008870838428265415
v 76.40705108642578 866.2637329101563 0.000008377966878470033
v 84.45162200927734 638.3048706054688 0.000008870838428265415
v 76.70378112792969 866.2637329101563 0.000008377966878470033
v 76.70378112792969 866.2637329101563 0.000008377966878470033
v 84.45162200927734 638.3048706054688 0.000008870838428265415
v 77.0550308227539 866.3836669921875 0.000008377966878470033
v 77.0550308227539 866.3836669921875 0.000008377966878470033
v 84.45162200927734 638.3048706054688 0.000008870838428265415
v 77.31214904785156 866.7111206054688 0.000008377966878470033
v 77.31214904785156 866.7111206054688 0.000008377966878470033
v 84.45162200927734 638.3048706054688 0.000008870838428265415
v 77.40628051757813 867.1585083007813 0.000008377966878470033
v 84.45162200927734 638.3048706054688 0.000008870838428265415
v 115.4427490234375 870.1803588867188 0.000011983930562564638
v 77.40628051757813 867.1585083007813 0.000008377966878470033
v 302.0135498046875 615.0027465820313 0.00003062709583900869
v 349.95562744140625 846.4118041992188 0.00003968581586377695
v 305.99310302734375 857.9254760742188 0.00003450940494076349
v 195.22235107421875 748.1151733398438 0.00002168970058846753
v 304.2459411621094 859.4077758789063 0.00003450940494076349
v 194.34877014160156 748.8563232421875 0.00002168970058846753
v 194.34877014160156 748.8563232421875 0.00002168970058846753
v 304.2459411621094 859.4077758789063 0.00003450940494076349
v 121.55915832519531 800.4548950195313 0.000012769153727276716
v 195.22235107421875 748.1151733398438 0.00002168970058846753
v 305.99310302734375 857.9254760742188 0.00003450940494076349
v 304.2459411621094 859.4077758789063 0.00003450940494076349
v 305.99310302734375 857.9254760742188 23.52944564819336
v 304.2459411621094 859.4077758789063 23.52944564819336
v 304.2459411621094 859.4077758789063 0.00003450940494076349
v 305.99310302734375 857.9254760742188 23.52944564819336
v 305.99310302734375 857.9254760742188 0.00003450940494076349
v 349.95562744140625 846.4118041992188 0.00003968581586377695
v 305.99310302734375 857.9254760742188 0.00003450940494076349
v 305.99310302734375 857.9254760742188 23.52944564819336
v 304.2459411621094 859.4077758789063 0.00003450940494076349
v 121.55915832519531 800.4548950195313 0.000012769153727276716
v 158.66668701171875 962.6049194335938 0.000016666626834194176
v 115.4427490234375 870.1803588867188 0.000011983930562564638
v 304.2459411621094 859.4077758789063 0.00003450940494076349
v 304.2459411621094 859.4077758789063 23.52944564819336
v 309.7711181640625 880.5044555664063 0.000037097612221259624
v 304.2459411621094 859.4077758789063 0.00003450940494076349
v 158.66668701171875 962.6049194335938 0.000016666626834194176
v 121.55915832519531 800.4548950195313 0.000012769153727276716
v 158.66668701171875 962.6049194335938 0.000016666626834194176
v 304.2459411621094 859.4077758789063 0.00003450940494076349
v 309.7711181640625 880.5044555664063 0.000037097612221259624
v 115.4427490234375 870.1803588867188 0.000011983930562564638
v 70.36094665527344 1096.01220703125 0.000007885938430263195
v 77.40628051757813 867.1585083007813 0.000008377966878470033
v 243.91796875 1013.4741821289063 0.00002847026007657405
v 158.66668701171875 962.6049194335938 0.000016666626834194176
v 309.7711181640625 880.5044555664063 0.000037097612221259624
v 158.66668701171875 962.6049194335938 0.000016666626834194176
v 146.43386840820313 1102.055908203125 0.000015097864888957702
v 115.4427490234375 870.1803588867188 0.000011983930562564638
v 243.91796875 1013.4741821289063 0.00002847026007657405
v 242.1708221435547 1014.9564819335938 0.00002847026007657405
v 158.66668701171875 962.6049194335938 0.000016666626834194176
v 115.4427490234375 870.1803588867188 0.000011983930562564638
v 108.39740753173828 1099.0340576171875 0.000011491901204863098
v 70.36094665527344 1096.01220703125 0.000007885938430263195
v 115.4427490234375 870.1803588867188 0.000011983930562564638
v 146.43386840820313 1102.055908203125 0.000015097864888957702
v 108.39740753173828 1099.0340576171875 0.000011491901204863098
v 165.64437866210938 1095.5517578125 0.000016391966710216366
v 158.66668701171875 962.6049194335938 0.000016666626834194176
v 242.1708221435547 1014.9564819335938 0.00002847026007657405
v 163.8944854736328 1095.55810546875 0.000016391966710216366
v 158.66668701171875 962.6049194335938 0.000016666626834194176
v 165.64437866210938 1095.5517578125 0.000016391966710216366
v 163.8944854736328 1095.55810546875 0.000016391966710216366
v 158.66668701171875 1096.97900390625 0.000016666626834194176
v 158.66668701171875 962.6049194335938 0.000016666626834194176
v 158.66668701171875 962.6049194335938 0.000016666626834194176
v 158.66668701171875 1096.97900390625 0.000016666626834194176
v 148.815673828125 1099.6568603515625 0.000015097864888957702
v 158.66668701171875 962.6049194335938 0.000016666626834194176
v 148.815673828125 1099.6568603515625 0.000015097864888957702
v 147.30335998535156 1100.5372314453125 0.000015097864888957702
v 158.66668701171875 962.6049194335938 0.000016666626834194176
v 147.30335998535156 1100.5372314453125 0.000015097864888957702
v 146.43386840820313 1102.055908203125 0.000015097864888957702
vt 0.7886853814125061 0.4535156488418579
vt 0.7797935009002686 0.46713072061538696
vt 0.7885327935218811 0.45319199562072754
vt 0.7889776825904846 0.45372438430786133
vt 0.7797935009002686 0.46713072061538696
vt 0.7886853814125061 0.4535156488418579
vt 0.7797935009002686 0.46713072061538696
vt 0.7896161079406738 0.4537177085876465
vt 0.7899362444877625 0.45357435941696167
vt 0.7797935009002686 0.46713072061538696
vt 0.7889776825904846 0.45372438430786133
vt 0.7893314361572266 0.4537622332572937
vt 0.7797935009002686 0.46713072061538696
vt 0.7893314361572266 0.4537622332572937
vt 0.7896161079406738 0.4537177085876465
vt 0.7885327935218811 0.45319199562072754
vt 0.7797935009002686 0.46713072061538696
vt 0.759145975112915 0.46713072061538696
vt 0.7797935009002686 0.46713072061538696
vt 0.7899362444877625 0.45357435941696167
vt 0.8322821259498596 0.4621706008911133
vt 0.8325376510620117 0.4655759334564209
vt 0.8328897953033447 0.4658660292625427
vt 0.832636296749115 0.4624616503715515
vt 0.8322821259498596 0.4621706008911133
vt 0.8325376510620117 0.4655759334564209
vt 0.832636296749115 0.4624616503715515
vt 0.832636296749115 0.4624616503715515
vt 0.8328897953033447 0.4658660292625427
vt 0.8331296443939209 0.4625682830810547
vt 0.7797935009002686 0.46713072061538696
vt 0.8322821259498596 0.4621706008911133
vt 0.832636296749115 0.4624616503715515
vt 0.8057541847229004 0.48905712366104126
vt 0.7797935009002686 0.46713072061538696
vt 0.832636296749115 0.4624616503715515
vt 0.7797935009002686 0.46713072061538696
vt 0.7691138982772827 0.5134629011154175
vt 0.759145975112915 0.46713072061538696
vt 0.8055294156074524 0.48920756578445435
vt 0.7797935009002686 0.46713072061538696
vt 0.8057541847229004 0.48905712366104126
vt 0.8325772881507874 0.5117118954658508
vt 0.832636296749115 0.4624616503715515
vt 0.8331296443939209 0.4625682830810547
vt 0.8055294156074524 0.48920756578445435
vt 0.7867588996887207 0.4997621774673462
vt 0.7797935009002686 0.46713072061538696
vt 0.8325772881507874 0.5117118954658508
vt 0.8057541847229004 0.48905712366104126
vt 0.832636296749115 0.4624616503715515
vt 0.7867588996887207 0.4997621774673462
vt 0.784273087978363 0.5142869353294373
vt 0.7797935009002686 0.46713072061538696
vt 0.7744539380073547 0.5134629011154175
vt 0.7691138982772827 0.5134629011154175
vt 0.7797935009002686 0.46713072061538696
vt 0.7744539380073547 0.5134629011154175
vt 0.7797935009002686 0.46713072061538696
vt 0.7745290398597717 0.5134629011154175
vt 0.7745290398597717 0.5134629011154175
vt 0.7797935009002686 0.46713072061538696
vt 0.774616003036499 0.5134881734848022
vt 0.774616003036499 0.5134881734848022
vt 0.7797935009002686 0.46713072061538696
vt 0.7746760845184326 0.5135570168495178
vt 0.7746760845184326 0.5135570168495178
vt 0.7797935009002686 0.46713072061538696
vt 0.7746930122375488 0.5136511325836182
vt 0.7797935009002686 0.46713072061538696
vt 0.784273087978363 0.5142869353294373
vt 0.7746930122375488 0.5136511325836182
vt 0.8331296443939209 0.4625682830810547
vt 0.8437380194664001 0.5093013048171997
vt 0.8325772881507874 0.5117118954658508
vt 0.8057541847229004 0.48905712366104126
vt 0.8321262001991272 0.512022852897644
vt 0.8055294156074524 0.48920756578445435
vt 0.8055294156074524 0.48920756578445435
vt 0.8321262001991272 0.512022852897644
vt 0.7867588996887207 0.4997621774673462
vt 0.8057541847229004 0.48905712366104126
vt 0.8325772881507874 0.5117118954658508
vt 0.8321262001991272 0.512022852897644
vt 0.8328403830528259 0.5149391293525696
vt 0.8323920965194702 0.5152488946914673
vt 0.8321262001991272 0.512022852897644
vt 0.8328403830528259 0.5149391293525696
vt 0.8325772881507874 0.5117118954658508
vt 0.8437380194664001 0.5093013048171997
vt 0.8325772881507874 0.5117118954658508
vt 0.8328403830528259 0.5149391293525696
vt 0.8321262001991272 0.512022852897644
vt 0.7867588996887207 0.4997621774673462
vt 0.7940714955329895 0.534019947052002
vt 0.784273087978363 0.5142869353294373
vt 0.8321262001991272 0.512022852897644
vt 0.8323920965194702 0.5152488946914673
vt 0.8333877325057983 0.5164637565612793
vt 0.8321262001991272 0.512022852897644
vt 0.7940714955329895 0.534019947052002
vt 0.7867588996887207 0.4997621774673462
vt 0.7940714955329895 0.534019947052002
vt 0.8321262001991272 0.512022852897644
vt 0.8333877325057983 0.5164637565612793
vt 0.784273087978363 0.5142869353294373
vt 0.7692263126373291 0.5635122656822205
vt 0.7746930122375488 0.5136511325836182
vt 0.8154839277267456 0.5451219081878662
vt 0.7940714955329895 0.534019947052002
vt 0.8333877325057983 0.5164637565612793
vt 0.7940714955329895 0.534019947052002
vt 0.7890790104866028 0.5648776292800903
vt 0.784273087978363 0.5142869353294373
vt 0.8154839277267456 0.5451219081878662
vt 0.8150180578231812 0.5454480648040771
vt 0.7940714955329895 0.534019947052002
vt 0.784273087978363 0.5142869353294373
vt 0.7791479825973511 0.5641946196556091
vt 0.7692263126373291 0.5635122656822205
vt 0.784273087978363 0.5142869353294373
vt 0.7890790104866028 0.5648776292800903
vt 0.7791479825973511 0.5641946196556091
vt 0.7942008972167969 0.563408374786377
vt 0.7940714955329895 0.534019947052002
vt 0.8150180578231812 0.5454480648040771
vt 0.793742299079895 0.5634098052978516
vt 0.7940714955329895 0.534019947052002
vt 0.7942008972167969 0.563408374786377
vt 0.793742299079895 0.5634098052978516
vt 0.7923539280891418 0.5637305378913879
vt 0.7940714955329895 0.534019947052002
vt 0.7940714955329895 0.534019947052002
vt 0.7923539280891418 0.5637305378913879
vt 0.7897360920906067 0.5643353462219238
vt 0.7940714955329895 0.534019947052002
vt 0.7897360920906067 0.5643353462219238
vt 0.7893276214599609 0.5645343065261841
vt 0.7940714955329895 0.534019947052002
vt 0.7893276214599609 0.5645343065261841
vt 0.7890790104866028 0.5648776292800903
vn 0.00000009255067112690085 -0.000000039517502159469586 -1
vn 0.00000009255067112690085 -0.000000039517502159469586 -1
vn 0.00000009255067112690085 -0.000000039517502159469586 -1
vn 0.00000005068730501989194 -0.00000005908678701871395 -1
vn 0.00000005068730501989194 -0.00000005908678701871395 -1
vn 0.00000005068730501989194 -0.00000005908678701871395 -1
vn -0.00000007033000315459503 -0.0000001213981732917091 -1
vn -0.00000007033000315459503 -0.0000001213981732917091 -1
vn -0.00000007033000315459503 -0.0000001213981732917091 -1
vn 0.00000001052634690523746 -0.00000007889295972063337 -1
vn 0.00000001052634690523746 -0.00000007889295972063337 -1
vn 0.00000001052634690523746 -0.00000007889295972063337 -1
vn -0.00000001867405075017814 -0.00000009396070765887998 -0.9999999403953552
vn -0.00000001867405075017814 -0.00000009396070765887998 -0.9999999403953552
vn -0.00000001867405075017814 -0.00000009396070765887998 -0.9999999403953552
vn 0.00000010504049186010889 -0.00000003393956404806886 -0.9999999403953552
vn 0.00000010504049186010889 -0.00000003393956404806886 -0.9999999403953552
vn 0.00000010504049186010889 -0.00000003393956404806886 -0.9999999403953552
vn 0.0000000981247509912464 -0.000000029773936205401696 -1
vn 0.0000000981247509912464 -0.000000029773936205401696 -1
vn 0.0000000981247509912464 -0.000000029773936205401696 -1
vn 0.7071024775505066 -0.707111120223999 -0
vn 0.7071024775505066 -0.707111120223999 -0
vn 0.7071024775505066 -0.707111120223999 -0
vn 0.707086443901062 -0.7071271538734436 -0
vn 0.707086443901062 -0.7071271538734436 -0
vn 0.707086443901062 -0.7071271538734436 -0
vn 0.2587989270687103 -0.965931236743927 -0
vn 0.2587989270687103 -0.965931236743927 -0
vn 0.2587989270687103 -0.965931236743927 -0
vn 0.0000000908964494783504 -0.00000009090071273476497 -1
vn 0.0000000908964494783504 -0.00000009090071273476497 -1
vn 0.0000000908964494783504 -0.00000009090071273476497 -1
vn 0.00000010242998627063571 0.000000013410483390430272 -1
vn 0.00000010242998627063571 0.000000013410483390430272 -1
vn 0.00000010242998627063571 0.000000013410483390430272 -1
vn 0.00000010504044922754474 0.000000001545647720924137 -1
vn 0.00000010504044922754474 0.000000001545647720924137 -1
vn 0.00000010504044922754474 0.000000001545647720924137 -1
vn 0.000000053368893304650555 0.0000000629055492140651 -1
vn 0.000000053368893304650555 0.0000000629055492140651 -1
vn 0.000000053368893304650555 0.0000000629055492140651 -1
vn -0.000000004300662936884692 0.000000016052510432018607 -1
vn -0.000000004300662936884692 0.000000016052510432018607 -1
vn -0.000000004300662936884692 0.000000016052510432018607 -1
vn 0.0000001201101014203232 -0.0000000034454221697899357 -1
vn 0.0000001201101014203232 -0.0000000034454221697899357 -1
vn 0.0000001201101014203232 -0.0000000034454221697899357 -1
vn 0.00000010243439874102478 0.000000013413842481213578 -1
vn 0.00000010243439874102478 0.000000013413842481213578 -1
vn 0.00000010243439874102478 0.000000013413842481213578 -1
vn 0.00000011151801970754605 -0.0000000014791574631800586 -1
vn 0.00000011151801970754605 -0.0000000014791574631800586 -1
vn 0.00000011151801970754605 -0.0000000014791574631800586 -1
vn 0.00000010503052294552617 0.0000000015443787360069905 -0.9999999403953552
vn 0.00000010503052294552617 0.0000000015443787360069905 -0.9999999403953552
vn 0.00000010503052294552617 0.0000000015443787360069905 -0.9999999403953552
vn 0 -0.000000002162100720681792 -1
vn 0 -0.000000002162100720681792 -1
vn 0 -0.000000002162100720681792 -1
vn 0.0000000007292454418106331 -0.0000000021373067760066533 -0.9999999403953552
vn 0.0000000007292454418106331 -0.0000000021373067760066533 -0.9999999403953552
vn 0.0000000007292454418106331 -0.0000000021373067760066533 -0.9999999403953552
vn 0.000000002645974994663902 -0.0000000020752610740970567 -1
vn 0.000000002645974994663902 -0.0000000020752610740970567 -1
vn 0.000000002645974994663902 -0.0000000020752610740970567 -1
vn 0.000000008920344463092533 -0.0000000018787413846865775 -1
vn 0.000000008920344463092533 -0.0000000018787413846865775 -1
vn 0.000000008920344463092533 -0.0000000018787413846865775 -1
vn 0.00000009474226203565195 0.0000000007630264753366589 -1
vn 0.00000009474226203565195 0.0000000007630264753366589 -1
vn 0.00000009474226203565195 0.0000000007630264753366589 -1
vn 0.00000012141055094616604 0.000000013992706549004197 -1
vn 0.00000012141055094616604 0.000000013992706549004197 -1
vn 0.00000012141055094616604 0.000000013992706549004197 -1
vn 0.00000005337272668270998 0.00000006291006826586454 -1
vn 0.00000005337272668270998 0.00000006291006826586454 -1
vn 0.00000005337272668270998 0.00000006291006826586454 -1
vn 0.0000001201131141215228 -0.0000000034409584070971277 -1
vn 0.0000001201131141215228 -0.0000000034409584070971277 -1
vn 0.0000001201131141215228 -0.0000000034409584070971277 -1
vn 0.000000053368271579756765 0.0000000629053147349623 -1
vn 0.000000053368271579756765 0.0000000629053147349623 -1
vn 0.000000053368271579756765 0.0000000629053147349623 -1
vn 0.6469326019287109 0.7625471353530884 -0
vn 0.6469326019287109 0.7625471353530884 -0
vn 0.6469326019287109 0.7625471353530884 -0
vn 0.2533528804779053 0.9673739075660706 -0
vn 0.2533528804779053 0.9673739075660706 -0
vn 0.2533528804779053 0.9673739075660706 -0
vn 0.6469472050666809 0.7625347971916199 -0
vn 0.6469472050666809 0.7625347971916199 -0
vn 0.6469472050666809 0.7625347971916199 -0
vn 0.00000011150154222150377 -0.0000000014805653369975857 -1
vn 0.00000011150154222150377 -0.0000000014805653369975857 -1
vn 0.00000011150154222150377 -0.0000000014805653369975857 -1
vn 0.9673731327056885 -0.253356009721756 -0
vn 0.9673731327056885 -0.253356009721756 -0
vn 0.9673731327056885 -0.253356009721756 -0
vn 0.00000012011696526315063 -0.0000000034521605574155956 -1
vn 0.00000012011696526315063 -0.0000000034521605574155956 -1
vn 0.00000012011696526315063 -0.0000000034521605574155956 -1
vn 0.00000017672138596935838 0.00000007639960841743232 -1
vn 0.00000017672138596935838 0.00000007639960841743232 -1
vn 0.00000017672138596935838 0.00000007639960841743232 -1
vn 0.0000000947417504448822 0.000000000766687824338419 -1
vn 0.0000000947417504448822 0.000000000766687824338419 -1
vn 0.0000000947417504448822 0.000000000766687824338419 -1
vn 0.00000013675814614089177 0.0000000028472073587693103 -1
vn 0.00000013675814614089177 0.0000000028472073587693103 -1
vn 0.00000013675814614089177 0.0000000028472073587693103 -1
vn 0.00000011147997014404609 -0.0000000014704055750769385 -1
vn 0.00000011147997014404609 -0.0000000014704055750769385 -1
vn 0.00000011147997014404609 -0.0000000014704055750769385 -1
vn 0.0000000812857976484338 0.00000009580968907130227 -1
vn 0.0000000812857976484338 0.00000009580968907130227 -1
vn 0.0000000812857976484338 0.00000009580968907130227 -1
vn 0.00000009474191386971142 0.0000000007666908774517367 -1
vn 0.00000009474191386971142 0.0000000007666908774517367 -1
vn 0.00000009474191386971142 0.0000000007666908774517367 -1
vn 0.000000094741885448002 0.0000000007666889345614436 -1
vn 0.000000094741885448002 0.0000000007666889345614436 -1
vn 0.000000094741885448002 0.0000000007666889345614436 -1
vn 0.00000014750267496310698 -0.000000009807595624522492 -1
vn 0.00000014750267496310698 -0.000000009807595624522492 -1
vn 0.00000014750267496310698 -0.000000009807595624522492 -1
vn -0.0000000000065510635111065696 -0.000000002065504212112046 -1
vn -0.0000000000065510635111065696 -0.000000002065504212112046 -1
vn -0.0000000000065510635111065696 -0.000000002065504212112046 -1
vn -0.000000052538073447294664 -0 -1
vn -0.000000052538073447294664 -0 -1
vn -0.000000052538073447294664 -0 -1
vn 0.00000015924895535590622 -0 -1
vn 0.00000015924895535590622 -0 -1
vn 0.00000015924895535590622 -0 -1
vn -0.000000006954179010421058 -0.000000011946018396713498 -1
vn -0.000000006954179010421058 -0.000000011946018396713498 -1
vn -0.000000006954179010421058 -0.000000011946018396713498 -1
vn -0.000000023205307897455896 -0.000000013285428757114914 -1
vn -0.000000023205307897455896 -0.000000013285428757114914 -1
vn -0.000000023205307897455896 -0.000000013285428757114914 -1
f 3/3/3 2/2/2 1/1/1
f 6/6/6 5/5/5 4/4/4
f 9/9/9 8/8/8 7/7/7
f 12/12/12 11/11/11 10/10/10
f 15/15/15 14/14/14 13/13/13
f 18/18/18 17/17/17 16/16/16
f 21/21/21 20/20/20 19/19/19
f 24/24/24 23/23/23 22/22/22
f 27/27/27 26/26/26 25/25/25
f 30/30/30 29/29/29 28/28/28
f 33/33/33 32/32/32 31/31/31
f 36/36/36 35/35/35 34/34/34
f 39/39/39 38/38/38 37/37/37
f 42/42/42 41/41/41 40/40/40
f 45/45/45 44/44/44 43/43/43
f 48/48/48 47/47/47 46/46/46
f 51/51/51 50/50/50 49/49/49
f 54/54/54 53/53/53 52/52/52
f 57/57/57 56/56/56 55/55/55
f 60/60/60 59/59/59 58/58/58
f 63/63/63 62/62/62 61/61/61
f 66/66/66 65/65/65 64/64/64
f 69/69/69 68/68/68 67/67/67
f 72/72/72 71/71/71 70/70/70
f 75/75/75 74/74/74 73/73/73
f 78/78/78 77/77/77 76/76/76
f 81/81/81 80/80/80 79/79/79
f 84/84/84 83/83/83 82/82/82
f 87/87/87 86/86/86 85/85/85
f 90/90/90 89/89/89 88/88/88
f 93/93/93 92/92/92 91/91/91
f 96/96/96 95/95/95 94/94/94
f 99/99/99 98/98/98 97/97/97
f 102/102/102 101/101/101 100/100/100
f 105/105/105 104/104/104 103/103/103
f 108/108/108 107/107/107 106/106/106
f 111/111/111 110/110/110 109/109/109
f 114/114/114 113/113/113 112/112/112
f 117/117/117 116/116/116 115/115/115
f 120/120/120 119/119/119 118/118/118
f 123/123/123 122/122/122 121/121/121
f 126/126/126 125/125/125 124/124/124
f 129/129/129 128/128/128 127/127/127
f 132/132/132 131/131/131 130/130/130
f 135/135/135 134/134/134 133/133/133
f 138/138/138 137/137/137 136/136/136
f 141/141/141 140/140/140 139/139/139
