# VPXTOOL table OBJ file
# VPXTOOL OBJ file
# numVerts: 68 numFaces: 156
o BM_TMet4
v 24.39875602722168 -0.14124009013175964 -65.61187744140625
v -23.771678924560547 -0.14118488132953644 -65.61187744140625
v -23.771623611450195 -22.373855590820313 -65.61187744140625
v 24.39870262145996 -22.37380027770996 -65.61187744140625
v 24.39875602722168 -0.14124009013175964 -65.61187744140625
v 24.39870262145996 -22.37380027770996 -65.61187744140625
v 24.39875602722168 -14.962946891784668 -44.30571365356445
v 24.39875602722168 -0.14124009013175964 -65.61187744140625
v 24.39870262145996 -9.404779434204102 -11.883299827575684
v -23.771678924560547 -0.14118488132953644 -65.61187744140625
v -23.771678924560547 -0.14118488132953644 -65.61187744140625
v -23.7717342376709 -14.962946891784668 -44.30571365356445
v -23.771623611450195 -22.373855590820313 -65.61187744140625
v 14.208819389343262 -14.962946891784668 -44.30571365356445
v 24.39870262145996 -22.37380027770996 -65.61187744140625
v -23.771623611450195 -22.373855590820313 -65.61187744140625
v 16.987903594970703 -14.962946891784668 -44.30571365356445
v 24.39875602722168 -14.962946891784668 -44.30571365356445
v 24.39870262145996 -9.404779434204102 -11.883299827575684
v -23.7717342376709 -14.962946891784668 -44.30571365356445
v -23.771678924560547 -9.404779434204102 -11.88329792022705
v -23.771678924560547 -9.404779434204102 -11.88329792022705
v 24.39875602722168 -14.962946891784668 15.907317161560059
v 24.39870262145996 -9.404779434204102 4.7910919189453125
v -23.771678924560547 -14.962946891784668 15.907379150390625
v -23.771678924560547 -9.404779434204102 4.79109525680542
v 24.39870262145996 -9.404779434204102 15.907344818115234
v 24.39870262145996 -9.404779434204102 -11.883299827575684
v -23.771678924560547 -9.404779434204102 4.79109525680542
v -23.771678924560547 -9.404779434204102 -11.88329792022705
v 24.39875602722168 -14.962946891784668 15.907317161560059
v 24.39870262145996 -9.404779434204102 4.7910919189453125
v 6.797966480255127 -9.404890060424805 4.791093349456787
v -5.244545936584473 -9.404834747314453 4.791093349456787
v -23.771678924560547 -9.404779434204102 15.9073486328125
v -23.771678924560547 -14.962946891784668 15.907379150390625
v 24.39875602722168 -3.846721887588501 15.907344818115234
v 24.39875602722168 -3.846721887588501 14.054644584655762
v 6.79802131652832 -3.8466668128967285 14.054646492004395
v 24.39875602722168 -3.846721887588501 14.054644584655762
v 24.39875602722168 -3.846721887588501 15.907344818115234
v 6.79802131652832 -3.8466668128967285 15.907344818115234
v 6.797966480255127 -9.404890060424805 15.907344818115234
v -5.244545936584473 -3.846611499786377 14.054646492004395
v 6.797966480255127 -9.404890060424805 15.907344818115234
v 6.797966480255127 -9.404890060424805 4.791093349456787
v 6.79802131652832 -3.8466668128967285 14.054646492004395
v 24.39875602722168 -3.846721887588501 15.907344818115234
v 24.39870262145996 -9.404779434204102 15.907344818115234
v 6.79802131652832 -3.8466668128967285 15.907344818115234
v -23.771678924560547 -3.846721887588501 14.054648399353027
v 6.79802131652832 -3.8466668128967285 15.907344818115234
v -5.244545936584473 -3.846611499786377 14.054646492004395
v -5.244545936584473 -9.404834747314453 4.791093349456787
v -5.244545936584473 -9.404834747314453 15.907344818115234
v -5.244545936584473 -3.846611499786377 15.907344818115234
v 6.797966480255127 -9.404890060424805 15.907344818115234
v -5.244545936584473 -9.404834747314453 15.907344818115234
v -5.244545936584473 -3.846611499786377 15.907344818115234
v -23.771678924560547 -3.846721887588501 15.9073486328125
v -23.771678924560547 -3.846721887588501 14.054648399353027
v 24.39875602722168 -14.962946891784668 15.907317161560059
v -23.771678924560547 -9.404779434204102 15.9073486328125
v -23.771678924560547 -3.846721887588501 15.9073486328125
v -5.244545936584473 -3.846611499786377 15.907344818115234
v -23.771678924560547 -3.846721887588501 15.9073486328125
v -5.244545936584473 -9.404834747314453 15.907344818115234
v -23.771678924560547 -14.962946891784668 15.907379150390625
vt 0.5482178330421448 0.39372289180755615
vt 0.5482178330421448 0.38625508546829224
vt 0.5529112219810486 0.38625508546829224
vt 0.5529112219810486 0.39372289180755615
vt 0.9708077311515808 0.9700090885162354
vt 0.9783998727798462 0.9700090885162354
vt 0.9758691787719727 0.9753521680831909
vt 0.2553858458995819 0.1641407608985901
vt 0.2553858458995819 0.19852089881896973
vt 0.3021699786186218 0.1641407608985901
vt 0.9749353528022766 0.9368140697479248
vt 0.9700815677642822 0.9422600269317627
vt 0.9673462510108948 0.9369716048240662
vt 0.8777894377708435 0.4123867154121399
vt 0.8799405694007874 0.4158349633216858
vt 0.8697715997695923 0.4158349633216858
vt 0.8783760666847229 0.4123867154121399
vt 0.8799405694007874 0.4123867154121399
vt 0.9739711284637451 0.983483076095581
vt 0.8697715997695923 0.4123867154121399
vt 0.9722917675971985 0.9503482580184937
vt 0.3021699786186218 0.19852089881896973
vt 0.8799405694007874 0.40318232774734497
vt 0.9739711284637451 0.9876646995544434
vt 0.8697715997695923 0.40318232774734497
vt 0.972452700138092 0.9545282125473022
vt 0.9739711284637451 0.9904524087905884
vt 0.08018151670694351 0.009633958339691162
vt 0.07667521387338638 0.002166152000427246
vt 0.08018151670694351 0.002166152000427246
vt 0.9758691787719727 0.9904524087905884
vt 0.07667521387338638 0.009633958339691162
vt 0.07667521387338638 0.00690537691116333
vt 0.07667521387338638 0.0050383806228637695
vt 0.9725599884986877 0.9573147892951965
vt 0.9706627130508423 0.9573541879653931
vt 0.9720730781555176 0.9904524087905884
vt 0.9720730781555176 0.9899877309799194
vt 0.07462376356124878 0.00690537691116333
vt 0.07462376356124878 0.009633958339691162
vt 0.07423419505357742 0.009633958339691162
vt 0.07423419505357742 0.00690537691116333
vt 0.07433769851922989 0.00690537691116333
vt 0.07462376356124878 0.0050383806228637695
vt 0.013246910646557808 0.35619229078292847
vt 0.013246910646557808 0.35791563987731934
vt 0.012073567137122154 0.3564795255661011
vt 0.38075900077819824 0.22929418087005615
vt 0.3795856833457947 0.22929418087005615
vt 0.38075900077819824 0.22656553983688354
vt 0.07462376356124878 0.002166152000427246
vt 0.012073567137122154 0.35619229078292847
vt 0.025418855249881744 0.5757584571838379
vt 0.02424550987780094 0.5771945714950562
vt 0.02424550987780094 0.5754711627960205
vt 0.07423419505357742 0.0050383806228637695
vt 0.3795856833457947 0.22656553983688354
vt 0.07433769851922989 0.0050383806228637695
vt 0.025418855249881744 0.5754711627960205
vt 0.07423419505357742 0.002166152000427246
vt 0.9744393825531006 0.9568109512329102
vt 0.3784123361110687 0.22929418087005615
vt 0.3795856833457947 0.22182637453079224
vt 0.38075900077819824 0.22182637453079224
vt 0.38075900077819824 0.22469854354858398
vt 0.9744572639465332 0.957275390625
vt 0.3795856833457947 0.22469854354858398
vt 0.3784123361110687 0.22182637453079224
vn 0.56890469789505 0.6290050745010376 -0.5298113822937012
vn -0.5688855648040771 0.6290191411972046 -0.5298151969909668
vn -0.5617539286613464 -0.6742832660675049 -0.47934824228286743
vn 0.5617598295211792 -0.6742441058158875 -0.4793963134288788
vn 0.56890469789505 0.6290050745010376 -0.5298113822937012
vn 0.5617598295211792 -0.6742441058158875 -0.4793963134288788
vn 0.7465897798538208 -0.6559881567955017 0.1108291819691658
vn 0.56890469789505 0.6290050745010376 -0.5298113822937012
vn 0.7268073558807373 0.6843398213386536 0.05856648460030556
vn -0.5688855648040771 0.6290191411972046 -0.5298151969909668
vn -0.5688855648040771 0.6290191411972046 -0.5298151969909668
vn -0.7465910911560059 -0.6559868454933167 0.11082904785871506
vn -0.5617539286613464 -0.6742832660675049 -0.47934824228286743
vn 0.00000025983183604694204 -0.9860267043113708 0.16658729314804077
vn 0.5617598295211792 -0.6742441058158875 -0.4793963134288788
vn -0.5617539286613464 -0.6742832660675049 -0.47934824228286743
vn 0 -0.9860265254974365 0.1665884405374527
vn 0.7465897798538208 -0.6559881567955017 0.1108291819691658
vn 0.7268073558807373 0.6843398213386536 0.05856648460030556
vn -0.7465910911560059 -0.6559868454933167 0.11082904785871506
vn -0.7268073558807373 0.684340238571167 0.0585625059902668
vn -0.7268073558807373 0.684340238571167 0.0585625059902668
vn 0.5773700475692749 -0.5773554444313049 0.5773253440856934
vn 0.772400975227356 0.6120895147323608 -0.16953781247138977
vn -0.5773583650588989 -0.5773597359657288 0.5773327946662903
vn -0.7724160552024841 0.6120709776878357 -0.1695357710123062
vn 0.7071152925491333 -0.0000016406133909185883 0.7070982456207275
vn 0.7268073558807373 0.6843398213386536 0.05856648460030556
vn -0.7724160552024841 0.6120709776878357 -0.1695357710123062
vn -0.7268073558807373 0.684340238571167 0.0585625059902668
vn 0.5773700475692749 -0.5773554444313049 0.5773253440856934
vn 0.772400975227356 0.6120895147323608 -0.16953781247138977
vn -0.08806309103965759 0.9873718619346619 -0.13168801367282867
vn 0.08806608617305756 0.9873717427253723 -0.13168643414974213
vn -0.7071090340614319 0.000002291587406944018 0.707104504108429
vn -0.5773583650588989 -0.5773597359657288 0.5773327946662903
vn 0.5773419737815857 0.57735276222229 0.5773560404777527
vn 0.6516728401184082 0.7309783101081848 -0.20246747136116028
vn -0.6516591906547546 0.730989396572113 -0.20247173309326172
vn 0.6516728401184082 0.7309783101081848 -0.20246747136116028
vn 0.5773419737815857 0.57735276222229 0.5773560404777527
vn -0.5773541331291199 0.5773675441741943 0.577329158782959
vn -0.3014945089817047 0.3015282154083252 0.9045340418815613
vn 0.6516634225845337 0.730985701084137 -0.2024712711572647
vn -0.3014945089817047 0.3015282154083252 0.9045340418815613
vn -0.08806309103965759 0.9873718619346619 -0.13168801367282867
vn -0.6516591906547546 0.730989396572113 -0.20247173309326172
vn 0.5773419737815857 0.57735276222229 0.5773560404777527
vn 0.7071152925491333 -0.0000016406133909185883 0.7070982456207275
vn -0.5773541331291199 0.5773675441741943 0.577329158782959
vn -0.651664137840271 0.7309860587120056 -0.20246800780296326
vn -0.5773541331291199 0.5773675441741943 0.577329158782959
vn 0.6516634225845337 0.730985701084137 -0.2024712711572647
vn 0.08806608617305756 0.9873717427253723 -0.13168643414974213
vn 0.30150288343429565 0.30151769518852234 0.9045347571372986
vn 0.5773559808731079 0.5773659944534302 0.5773288011550903
vn -0.3014945089817047 0.3015282154083252 0.9045340418815613
vn 0.30150288343429565 0.30151769518852234 0.9045347571372986
vn 0.5773559808731079 0.5773659944534302 0.5773288011550903
vn -0.5773518085479736 0.5773484110832214 0.5773506760597229
vn -0.651664137840271 0.7309860587120056 -0.20246800780296326
vn 0.5773700475692749 -0.5773554444313049 0.5773253440856934
vn -0.7071090340614319 0.000002291587406944018 0.707104504108429
vn -0.5773518085479736 0.5773484110832214 0.5773506760597229
vn 0.5773559808731079 0.5773659944534302 0.5773288011550903
vn -0.5773518085479736 0.5773484110832214 0.5773506760597229
vn 0.30150288343429565 0.30151769518852234 0.9045347571372986
vn -0.5773583650588989 -0.5773597359657288 0.5773327946662903
f 3/3/3 2/2/2 1/1/1
f 3/3/3 1/1/1 4/4/4
f 7/7/7 6/6/6 5/5/5
f 10/10/10 9/9/9 8/8/8
f 13/13/13 12/12/12 11/11/11
f 16/16/16 15/15/15 14/14/14
f 15/15/15 18/18/18 17/17/17
f 17/17/17 14/14/14 15/15/15
f 7/7/7 5/5/5 19/19/19
f 14/14/14 20/20/20 16/16/16
f 12/12/12 21/21/21 11/11/11
f 10/10/10 22/22/22 9/9/9
f 18/18/18 23/23/23 17/17/17
f 17/17/17 23/23/23 14/14/14
f 7/7/7 19/19/19 24/24/24
f 25/25/25 20/20/20 14/14/14
f 12/12/12 26/26/26 21/21/21
f 7/7/7 24/24/24 27/27/27
f 30/30/30 29/29/29 28/28/28
f 27/27/27 31/31/31 7/7/7
f 33/33/33 32/32/32 28/28/28
f 34/34/34 33/33/33 28/28/28
f 12/12/12 35/35/35 26/26/26
f 29/29/29 34/34/34 28/28/28
f 23/23/23 25/25/25 14/14/14
f 35/35/35 12/12/12 36/36/36
f 24/24/24 38/38/38 37/37/37
f 39/39/39 32/32/32 33/33/33
f 39/39/39 40/40/40 32/32/32
f 24/24/24 37/37/37 27/27/27
f 42/42/42 41/41/41 40/40/40
f 42/42/42 40/40/40 39/39/39
f 34/34/34 43/43/43 33/33/33
f 29/29/29 44/44/44 34/34/34
f 47/47/47 46/46/46 45/45/45
f 50/50/50 49/49/49 48/48/48
f 29/29/29 51/51/51 44/44/44
f 45/45/45 52/52/52 47/47/47
f 55/55/55 54/54/54 53/53/53
f 51/51/51 56/56/56 44/44/44
f 50/50/50 57/57/57 49/49/49
f 34/34/34 58/58/58 43/43/43
f 53/53/53 59/59/59 55/55/55
f 51/51/51 60/60/60 56/56/56
f 35/35/35 61/61/61 26/26/26
f 62/62/62 49/49/49 57/57/57
f 65/65/65 64/64/64 63/63/63
f 35/35/35 66/66/66 61/61/61
f 65/65/65 63/63/63 67/67/67
f 62/62/62 57/57/57 67/67/67
f 67/67/67 68/68/68 62/62/62
f 67/67/67 63/63/63 68/68/68
