# VPXTOOL table OBJ file
# VPXTOOL OBJ file
# numVerts: 45 numFaces: 45
o LM_D_pf_seg10_Playfield
v 309.7615661621094 1688.6202392578125 0.000032317180739482865
v 343.08319091796875 1657.8350830078125 0.000035707460483536124
v 401.7850036621094 1750.1905517578125 0.00004220409391564317
v 343.08319091796875 1657.8350830078125 0.000035707460483536124
v 468.42822265625 1688.6202392578125 0.000048983809392666444
v 401.7850036621094 1750.1905517578125 0.00004220409391564317
v 401.7850036621094 1750.1905517578125 0.00004220409391564317
v 243.11831665039063 1750.1905517578125 0.00002553746526245959
v 309.7615661621094 1688.6202392578125 0.000032317180739482865
v 560.45166015625 1750.1905517578125 0.00005887071893084794
v 401.7850036621094 1750.1905517578125 0.00004220409391564317
v 468.42822265625 1688.6202392578125 0.000048983809392666444
v 243.11831665039063 1750.1905517578125 0.00002553746526245959
v 401.7850036621094 1750.1905517578125 0.00004220409391564317
v 311.89520263671875 1801.6668701171875 0.00003276202915003523
v 401.7850036621094 1750.1905517578125 0.00004220409391564317
v 560.45166015625 1750.1905517578125 0.00005887071893084794
v 470.5618591308594 1801.6668701171875 0.00004942865780321881
v 311.89520263671875 1801.6668701171875 0.00003276202915003523
v 401.7850036621094 1750.1905517578125 0.00004220409391564317
v 380.6720886230469 1853.1429443359375 0.000039985752664506435
v 380.6720886230469 1853.1429443359375 0.000039985752664506435
v 401.7850036621094 1750.1905517578125 0.00004220409391564317
v 470.5618591308594 1801.6668701171875 0.00004942865780321881
v 470.5618591308594 1801.6668701171875 0.00004942865780321881
v 560.45166015625 1750.1905517578125 0.00005887071893084794
v 539.3387451171875 1853.1429443359375 0.00005665237767971121
v 222.00540161132813 1853.1429443359375 0.000023319124011322856
v 311.89520263671875 1801.6668701171875 0.00003276202915003523
v 380.6720886230469 1853.1429443359375 0.000039985752664506435
v 380.6720886230469 1853.1429443359375 0.000039985752664506435
v 470.5618591308594 1801.6668701171875 0.00004942865780321881
v 539.3387451171875 1853.1429443359375 0.00005665237767971121
v 380.6720886230469 1853.1429443359375 0.000039985752664506435
v 290.78228759765625 1904.6192626953125 0.0000305436878988985
v 222.00540161132813 1853.1429443359375 0.000023319124011322856
v 380.6720886230469 1853.1429443359375 0.000039985752664506435
v 539.3387451171875 1853.1429443359375 0.00005665237767971121
v 449.448974609375 1904.6192626953125 0.00004721031655208208
v 290.78228759765625 1904.6192626953125 0.0000305436878988985
v 380.6720886230469 1853.1429443359375 0.000039985752664506435
v 359.5591735839844 1956.0953369140625 0.00003776825178647414
v 359.5591735839844 1956.0953369140625 0.00003776825178647414
v 380.6720886230469 1853.1429443359375 0.000039985752664506435
v 449.448974609375 1904.6192626953125 0.00004721031655208208
vt 0.016611026600003242 0.5420070290565491
vt 0.000797546876128763 0.5322535037994385
vt 0.048748742789030075 0.5158572793006897
vt 0.000797546876128763 0.5322535037994385
vt 0.016611026600003242 0.4965248107910156
vt 0.048748742789030075 0.5158572793006897
vt 0.048748742789030075 0.5158572793006897
vt 0.048748742789030075 0.561829149723053
vt 0.016611026600003242 0.5420070290565491
vt 0.048748742789030075 0.4698854088783264
vt 0.048748742789030075 0.5158572793006897
vt 0.016611026600003242 0.4965248107910156
vt 0.048748742789030075 0.561829149723053
vt 0.048748742789030075 0.5158572793006897
vt 0.07615353167057037 0.5423336625099182
vt 0.048748742789030075 0.5158572793006897
vt 0.048748742789030075 0.4698854088783264
vt 0.07615353167057037 0.4959442615509033
vt 0.07615353167057037 0.5423336625099182
vt 0.048748742789030075 0.5158572793006897
vt 0.10406066477298737 0.522480845451355
vt 0.10406066477298737 0.522480845451355
vt 0.048748742789030075 0.5158572793006897
vt 0.07615353167057037 0.4959442615509033
vt 0.07615353167057037 0.4959442615509033
vt 0.048748742789030075 0.4698854088783264
vt 0.10406066477298737 0.47566622495651245
vt 0.10406066477298737 0.5692954063415527
vt 0.07615353167057037 0.5423336625099182
vt 0.10406066477298737 0.522480845451355
vt 0.10406066477298737 0.522480845451355
vt 0.07615353167057037 0.4959442615509033
vt 0.10406066477298737 0.47566622495651245
vt 0.10406066477298737 0.522480845451355
vt 0.13248422741889954 0.5495083332061768
vt 0.10406066477298737 0.5692954063415527
vt 0.10406066477298737 0.522480845451355
vt 0.10406066477298737 0.47566622495651245
vt 0.13248422741889954 0.502260684967041
vt 0.13248422741889954 0.5495083332061768
vt 0.10406066477298737 0.522480845451355
vt 0.16143839061260223 0.5293517112731934
vt 0.16143839061260223 0.5293517112731934
vt 0.10406066477298737 0.522480845451355
vt 0.13248422741889954 0.502260684967041
vn 0.00000010504684411216658 0.0000000035749585514111004 -1
vn 0.00000010504684411216658 0.0000000035749585514111004 -1
vn 0.00000010504684411216658 0.0000000035749585514111004 -1
vn 0.00000010503939762429582 0.000000003580204577247059 -1
vn 0.00000010503939762429582 0.000000003580204577247059 -1
vn 0.00000010503939762429582 0.000000003580204577247059 -1
vn 0.0000001050418134695974 0.000000003583003893581349 -1
vn 0.0000001050418134695974 0.000000003583003893581349 -1
vn 0.0000001050418134695974 0.000000003583003893581349 -1
vn 0.00000010504185610216155 0.0000000035830818312376778 -1
vn 0.00000010504185610216155 0.0000000035830818312376778 -1
vn 0.00000010504185610216155 0.0000000035830818312376778 -1
vn 0.00000010504150083079367 0.0000000000023329285551987322 -0.9999999403953552
vn 0.00000010504150083079367 0.0000000000023329285551987322 -0.9999999403953552
vn 0.00000010504150083079367 0.0000000000023329285551987322 -0.9999999403953552
vn 0.00000010504216874096528 0.0000000000022396255856815817 -1
vn 0.00000010504216874096528 0.0000000000022396255856815817 -1
vn 0.00000010504216874096528 0.0000000000022396255856815817 -1
vn 0.00000010503671177275464 -0.000000000006905511752697269 -1
vn 0.00000010503671177275464 -0.000000000006905511752697269 -1
vn 0.00000010503671177275464 -0.000000000006905511752697269 -1
vn 0.00000010504705016955995 -0.000000000004805851463313138 -1
vn 0.00000010504705016955995 -0.000000000004805851463313138 -1
vn 0.00000010504705016955995 -0.000000000004805851463313138 -1
vn 0.00000010503637781766884 -0.000000000006998807783320515 -1
vn 0.00000010503637781766884 -0.000000000006998807783320515 -1
vn 0.00000010503637781766884 -0.000000000006998807783320515 -1
vn 0.00000010504191294558041 -0.000000000014044317792061278 -1
vn 0.00000010504191294558041 -0.000000000014044317792061278 -1
vn 0.00000010504191294558041 -0.000000000014044317792061278 -1
vn 0.00000010504193426186248 -0.00000000001399765893472793 -1
vn 0.00000010504193426186248 -0.00000000001399765893472793 -1
vn 0.00000010504193426186248 -0.00000000001399765893472793 -1
vn 0.0000001050417139936144 0.0000000000023329285551987322 -0.9999999403953552
vn 0.0000001050417139936144 0.0000000000023329285551987322 -0.9999999403953552
vn 0.0000001050417139936144 0.0000000000023329285551987322 -0.9999999403953552
vn 0.00000010504169267733232 0.000000000002239611274212905 -0.9999999403953552
vn 0.00000010504169267733232 0.000000000002239611274212905 -0.9999999403953552
vn 0.00000010504169267733232 0.000000000002239611274212905 -0.9999999403953552
vn 0.00000010504140846023802 0.0000000000022862699147058185 -0.9999999403953552
vn 0.00000010504140846023802 0.0000000000022862699147058185 -0.9999999403953552
vn 0.00000010504140846023802 0.0000000000022862699147058185 -0.9999999403953552
vn 0.00000010504150083079367 0.0000000000023795869788512114 -0.9999999403953552
vn 0.00000010504150083079367 0.0000000000023795869788512114 -0.9999999403953552
vn 0.00000010504150083079367 0.0000000000023795869788512114 -0.9999999403953552
f 3/3/3 2/2/2 1/1/1
f 6/6/6 5/5/5 4/4/4
f 9/9/9 8/8/8 7/7/7
f 12/12/12 11/11/11 10/10/10
f 15/15/15 14/14/14 13/13/13
f 18/18/18 17/17/17 16/16/16
f 21/21/21 20/20/20 19/19/19
f 24/24/24 23/23/23 22/22/22
f 27/27/27 26/26/26 25/25/25
f 30/30/30 29/29/29 28/28/28
f 33/33/33 32/32/32 31/31/31
f 36/36/36 35/35/35 34/34/34
f 39/39/39 38/38/38 37/37/37
f 42/42/42 41/41/41 40/40/40
f 45/45/45 44/44/44 43/43/43
