# VPXTOOL table OBJ file
# VPXTOOL OBJ file
# numVerts: 129 numFaces: 129
o LM_L_LRO_swRO
v 2406.8037109375 -27384.458984375 -28485.306640625
v 1026.31787109375 -4602.14697265625 -35424.08984375
v 2021.3125 10298.2333984375 -42271.33984375
v -2571.7880859375 7738.09326171875 -40651.33203125
v 457.52337646484375 9405.802734375 -36906.86328125
v -1764.8460693359375 -5397.10205078125 -36081.75
v 1026.31787109375 -4602.14697265625 -35424.08984375
v 457.52337646484375 9405.802734375 -36906.86328125
v 2021.3125 10298.2333984375 -42271.33984375
v -2023.6871337890625 -13566.484375 -37738.12890625
v -1764.8460693359375 -5397.10205078125 -36081.75
v -1387.60986328125 -22341.072265625 -29527.873046875
v -1764.8460693359375 -5397.10205078125 -36081.75
v -2023.6871337890625 -13566.484375 -37738.12890625
v -2571.7880859375 7738.09326171875 -40651.33203125
v 2406.8037109375 -27384.458984375 -28485.306640625
v 2021.3125 10298.2333984375 -42271.33984375
v 926.128662109375 -20816.974609375 -35777.87890625
v 458.993408203125 23665.244140625 -35122.4453125
v 457.52337646484375 9405.802734375 -36906.86328125
v -2571.7880859375 7738.09326171875 -40651.33203125
v -2023.6871337890625 -13566.484375 -37738.12890625
v 915.4990844726563 -5077.76318359375 -40925.40234375
v -2571.7880859375 7738.09326171875 -40651.33203125
v 2021.3125 10298.2333984375 -42271.33984375
v 915.4990844726563 -5077.76318359375 -40925.40234375
v 926.128662109375 -20816.974609375 -35777.87890625
v 2021.3125 10298.2333984375 -42271.33984375
v 457.52337646484375 9405.802734375 -36906.86328125
v 2410.30908203125 31764.96875 -34928.27734375
v 915.4990844726563 -5077.76318359375 -40925.40234375
v 2021.3125 10298.2333984375 -42271.33984375
v -2571.7880859375 7738.09326171875 -40651.33203125
v -1387.60986328125 -22341.072265625 -29527.873046875
v 2406.8037109375 -27384.458984375 -28485.306640625
v 463.9689636230469 -33223.02734375 -22608.087890625
v 926.128662109375 -20816.974609375 -35777.87890625
v 915.4990844726563 -5077.76318359375 -40925.40234375
v -2023.6871337890625 -13566.484375 -37738.12890625
v -2200.205810546875 -34393.18359375 -27120.37109375
v -2023.6871337890625 -13566.484375 -37738.12890625
v -1387.60986328125 -22341.072265625 -29527.873046875
v -2135.41064453125 30667.41015625 -38229.96484375
v -2571.7880859375 7738.09326171875 -40651.33203125
v 2021.3125 10298.2333984375 -42271.33984375
v 926.128662109375 -20816.974609375 -35777.87890625
v -2023.6871337890625 -13566.484375 -37738.12890625
v 927.9379272460938 -35569.671875 -27910.375
v -2135.41064453125 30667.41015625 -38229.96484375
v -1378.4503173828125 36017.921875 -31906.064453125
v -2571.7880859375 7738.09326171875 -40651.33203125
v 2406.8037109375 -27384.458984375 -28485.306640625
v 926.128662109375 -20816.974609375 -35777.87890625
v 927.9379272460938 -35569.671875 -27910.375
v -2023.6871337890625 -13566.484375 -37738.12890625
v -2200.205810546875 -34393.18359375 -27120.37109375
v 927.9379272460938 -35569.671875 -27910.375
v 2410.30908203125 31764.96875 -34928.27734375
v 920.9269409179688 25583.765625 -40615.9453125
v 2021.3125 10298.2333984375 -42271.33984375
v 568.7944946289063 -44682.14453125 -13132.9970703125
v 463.9689636230469 -33223.02734375 -22608.087890625
v 2406.8037109375 -27384.458984375 -28485.306640625
v 920.9269409179688 25583.765625 -40615.9453125
v -2135.41064453125 30667.41015625 -38229.96484375
v 2021.3125 10298.2333984375 -42271.33984375
v -2304.23974609375 -54873.1796875 -6629.74658203125
v -1387.60986328125 -22341.072265625 -29527.873046875
v 463.9689636230469 -33223.02734375 -22608.087890625
v -2200.205810546875 -34393.18359375 -27120.37109375
v -1387.60986328125 -22341.072265625 -29527.873046875
v -2304.23974609375 -54873.1796875 -6629.74658203125
v 2406.8037109375 -27384.458984375 -28485.306640625
v 927.9379272460938 -35569.671875 -27910.375
v 2444.45947265625 -53168.15234375 -9346.0546875
v 2444.45947265625 -53168.15234375 -9346.0546875
v 568.7944946289063 -44682.14453125 -13132.9970703125
v 2406.8037109375 -27384.458984375 -28485.306640625
v 927.9379272460938 -35569.671875 -27910.375
v -2200.205810546875 -34393.18359375 -27120.37109375
v -365.4759216308594 -47940.21875 -18029.1640625
v 568.7944946289063 -44682.14453125 -13132.9970703125
v -2304.23974609375 -54873.1796875 -6629.74658203125
v 463.9689636230469 -33223.02734375 -22608.087890625
v -2200.205810546875 -34393.18359375 -27120.37109375
v -2304.23974609375 -54873.1796875 -6629.74658203125
v -365.4759216308594 -47940.21875 -18029.1640625
v -365.4759216308594 -47940.21875 -18029.1640625
v 2444.45947265625 -53168.15234375 -9346.0546875
v 927.9379272460938 -35569.671875 -27910.375
v -1346.222412109375 -53519.37890625 -2135.8466796875
v 568.7944946289063 -44682.14453125 -13132.9970703125
v 1549.2017822265625 -54096.9921875 -1511.4923095703125
v 1549.2017822265625 -54096.9921875 -1511.4923095703125
v 568.7944946289063 -44682.14453125 -13132.9970703125
v 2444.45947265625 -53168.15234375 -9346.0546875
v -2304.23974609375 -54873.1796875 -6629.74658203125
v 568.7944946289063 -44682.14453125 -13132.9970703125
v -1346.222412109375 -53519.37890625 -2135.8466796875
v -365.4759216308594 -47940.21875 -18029.1640625
v 212.02578735351563 -57664.00390625 -5097.458984375
v 2444.45947265625 -53168.15234375 -9346.0546875
v -365.4759216308594 -47940.21875 -18029.1640625
v -2304.23974609375 -54873.1796875 -6629.74658203125
v 212.02578735351563 -57664.00390625 -5097.458984375
v 1549.2017822265625 -54096.9921875 -1511.4923095703125
v 728.01171875 -61350.42578125 14002.833984375
v -1346.222412109375 -53519.37890625 -2135.8466796875
v 2444.45947265625 -53168.15234375 -9346.0546875
v 1907.6666259765625 -64207.515625 9769.76171875
v 1549.2017822265625 -54096.9921875 -1511.4923095703125
v -2304.23974609375 -54873.1796875 -6629.74658203125
v -1346.222412109375 -53519.37890625 -2135.8466796875
v -2528.138916015625 -63154.9609375 11999.67578125
v 212.02578735351563 -57664.00390625 -5097.458984375
v 1907.6666259765625 -64207.515625 9769.76171875
v 2444.45947265625 -53168.15234375 -9346.0546875
v 212.02578735351563 -57664.00390625 -5097.458984375
v -2304.23974609375 -54873.1796875 -6629.74658203125
v 1907.6666259765625 -64207.515625 9769.76171875
v -1346.222412109375 -53519.37890625 -2135.8466796875
v 728.01171875 -61350.42578125 14002.833984375
v -2528.138916015625 -63154.9609375 11999.67578125
v 1907.6666259765625 -64207.515625 9769.76171875
v 728.01171875 -61350.42578125 14002.833984375
v 1549.2017822265625 -54096.9921875 -1511.4923095703125
v -2304.23974609375 -54873.1796875 -6629.74658203125
v -2528.138916015625 -63154.9609375 11999.67578125
v 1907.6666259765625 -64207.515625 9769.76171875
vt 0.39113450050354004 0.8524936437606812
vt 0.3912903964519501 0.8552687764167786
vt 0.3915945589542389 0.8569869995117188
vt 0.39096081256866455 0.8570274710655212
vt 0.39139434695243835 0.8572078943252563
vt 0.39078760147094727 0.8552289009094238
vt 0.3912903964519501 0.8552687764167786
vt 0.39139434695243835 0.8572078943252563
vt 0.3915945589542389 0.8569869995117188
vt 0.39070314168930054 0.8539785742759705
vt 0.39078760147094727 0.8552289009094238
vt 0.390510618686676 0.8531014919281006
vt 0.39078760147094727 0.8552289009094238
vt 0.39070314168930054 0.8539785742759705
vt 0.39096081256866455 0.8570274710655212
vt 0.39113450050354004 0.8524936437606812
vt 0.3915945589542389 0.8569869995117188
vt 0.3910505175590515 0.8529613018035889
vt 0.39153045415878296 0.8593770265579224
vt 0.39139434695243835 0.8572078943252563
vt 0.39096081256866455 0.8570274710655212
vt 0.39070314168930054 0.8539785742759705
vt 0.39135652780532837 0.8549149036407471
vt 0.39096081256866455 0.8570274710655212
vt 0.3915945589542389 0.8569869995117188
vt 0.39135652780532837 0.8549149036407471
vt 0.3910505175590515 0.8529613018035889
vt 0.3915945589542389 0.8569869995117188
vt 0.39139434695243835 0.8572078943252563
vt 0.39199894666671753 0.8606346249580383
vt 0.39135652780532837 0.8549149036407471
vt 0.3915945589542389 0.8569869995117188
vt 0.39096081256866455 0.8570274710655212
vt 0.390510618686676 0.8531014919281006
vt 0.39113450050354004 0.8524936437606812
vt 0.390554815530777 0.8518738746643066
vt 0.3910505175590515 0.8529613018035889
vt 0.39135652780532837 0.8549149036407471
vt 0.39070314168930054 0.8539785742759705
vt 0.3902507722377777 0.8515311479568481
vt 0.39070314168930054 0.8539785742759705
vt 0.390510618686676 0.8531014919281006
vt 0.39128991961479187 0.8602773547172546
vt 0.39096081256866455 0.8570274710655212
vt 0.3915945589542389 0.8569869995117188
vt 0.3910505175590515 0.8529613018035889
vt 0.39070314168930054 0.8539785742759705
vt 0.39070552587509155 0.8513270616531372
vt 0.39128991961479187 0.8602773547172546
vt 0.39128485321998596 0.8613602519035339
vt 0.39096081256866455 0.8570274710655212
vt 0.39113450050354004 0.8524936437606812
vt 0.3910505175590515 0.8529613018035889
vt 0.39070552587509155 0.8513270616531372
vt 0.39070314168930054 0.8539785742759705
vt 0.3902507722377777 0.8515311479568481
vt 0.39070552587509155 0.8513270616531372
vt 0.39199894666671753 0.8606346249580383
vt 0.39173415303230286 0.8593181371688843
vt 0.3915945589542389 0.8569869995117188
vt 0.39024829864501953 0.8508009314537048
vt 0.390554815530777 0.8518738746643066
vt 0.39113450050354004 0.8524936437606812
vt 0.39173415303230286 0.8593181371688843
vt 0.39128991961479187 0.8602773547172546
vt 0.3915945589542389 0.8569869995117188
vt 0.38947686553001404 0.8499439358711243
vt 0.390510618686676 0.8531014919281006
vt 0.390554815530777 0.8518738746643066
vt 0.3902507722377777 0.8515311479568481
vt 0.390510618686676 0.8531014919281006
vt 0.38947686553001404 0.8499439358711243
vt 0.39113450050354004 0.8524936437606812
vt 0.39070552587509155 0.8513270616531372
vt 0.3904387950897217 0.8500824570655823
vt 0.3904387950897217 0.8500824570655823
vt 0.39024829864501953 0.8508009314537048
vt 0.39113450050354004 0.8524936437606812
vt 0.39070552587509155 0.8513270616531372
vt 0.3902507722377777 0.8515311479568481
vt 0.39015302062034607 0.8501684069633484
vt 0.39024829864501953 0.8508009314537048
vt 0.38947686553001404 0.8499439358711243
vt 0.390554815530777 0.8518738746643066
vt 0.3902507722377777 0.8515311479568481
vt 0.38947686553001404 0.8499439358711243
vt 0.39015302062034607 0.8501684069633484
vt 0.39015302062034607 0.8501684069633484
vt 0.3904387950897217 0.8500824570655823
vt 0.39070552587509155 0.8513270616531372
vt 0.3895457983016968 0.8502100706100464
vt 0.39024829864501953 0.8508009314537048
vt 0.39009547233581543 0.8502038717269897
vt 0.39009547233581543 0.8502038717269897
vt 0.39024829864501953 0.8508009314537048
vt 0.3904387950897217 0.8500824570655823
vt 0.38947686553001404 0.8499439358711243
vt 0.39024829864501953 0.8508009314537048
vt 0.3895457983016968 0.8502100706100464
vt 0.39015302062034607 0.8501684069633484
vt 0.3898613154888153 0.8495174646377563
vt 0.3904387950897217 0.8500824570655823
vt 0.39015302062034607 0.8501684069633484
vt 0.38947686553001404 0.8499439358711243
vt 0.3898613154888153 0.8495174646377563
vt 0.39009547233581543 0.8502038717269897
vt 0.3895174562931061 0.8500319719314575
vt 0.3895457983016968 0.8502100706100464
vt 0.3904387950897217 0.8500824570655823
vt 0.3896889388561249 0.84951251745224
vt 0.39009547233581543 0.8502038717269897
vt 0.38947686553001404 0.8499439358711243
vt 0.3895457983016968 0.8502100706100464
vt 0.3889720141887665 0.8497121930122375
vt 0.3898613154888153 0.8495174646377563
vt 0.3896889388561249 0.84951251745224
vt 0.3904387950897217 0.8500824570655823
vt 0.3898613154888153 0.8495174646377563
vt 0.38947686553001404 0.8499439358711243
vt 0.3896889388561249 0.84951251745224
vt 0.3895457983016968 0.8502100706100464
vt 0.3895174562931061 0.8500319719314575
vt 0.3889720141887665 0.8497121930122375
vt 0.3896889388561249 0.84951251745224
vt 0.3895174562931061 0.8500319719314575
vt 0.39009547233581543 0.8502038717269897
vt 0.38947686553001404 0.8499439358711243
vt 0.3889720141887665 0.8497121930122375
vt 0.3896889388561249 0.84951251745224
vn 0.588172197341919 0.12418137490749359 0.799144983291626
vn 0.6040955185890198 0.09968821704387665 0.7906521558761597
vn 0.8846038579940796 0.36229628324508667 0.2936282157897949
vn -0.9280716776847839 -0.0004255324602127075 0.37240150570869446
vn -0.6427818536758423 0.07520586252212524 0.7623487710952759
vn -0.9254418015480042 0.0003055613487958908 0.37888991832733154
vn 0.8555374145507813 -0.020070679485797882 0.5173518657684326
vn 0.857033371925354 -0.019734786823391914 0.5148828625679016
vn 0.9964606761932373 0.017390400171279907 -0.08224161714315414
vn -0.9519245624542236 -0.2652151584625244 -0.15329837799072266
vn -0.9444075226783752 0.11309090256690979 0.30871471762657166
vn -0.9430172443389893 -0.003069669008255005 0.3327294588088989
vn -0.9257264137268066 0.152073472738266 0.34627172350883484
vn -0.9712617993354797 -0.17300409078598022 -0.16346263885498047
vn -0.972314715385437 0.15274564921855927 -0.17684100568294525
vn 0.9994161128997803 -0.03293830156326294 0.009084612131118774
vn 0.9999465942382813 0.008991442620754242 -0.005101263523101807
vn 0.8240163326263428 -0.1678788959980011 -0.5411227941513062
vn -0.569760262966156 -0.08341999351978302 0.8175660371780396
vn -0.5879932641983032 0.02391953021287918 0.8085119128227234
vn -0.9057435393333435 0.00992514193058014 0.4237097501754761
vn -0.6966831684112549 -0.29635438323020935 -0.6533043384552002
vn -0.2816978693008423 -0.05179356783628464 -0.9581043124198914
vn -0.672685980796814 0.1188998594880104 -0.7303125858306885
vn 0.964562714099884 0.21575239300727844 -0.1518874317407608
vn 0.8480144143104553 -0.2671360969543457 -0.45772242546081543
vn 0.8432472944259644 -0.21324008703231812 -0.4934194087982178
vn 0.9963093996047974 0.0375169962644577 -0.07720157504081726
vn 0.8569698929786682 -0.1065082848072052 0.5042407512664795
vn 0.9788655042648315 0.19828975200653076 0.050035372376441956
vn -0.11959733814001083 -0.2908283770084381 -0.9492709040641785
vn -0.04491950571537018 0.09398877620697021 -0.9945593476295471
vn -0.5713294744491577 -0.05248115956783295 -0.8190411329269409
vn 0.24136967957019806 0.5446867346763611 0.8031545281410217
vn 0.6711493134498596 0.2902945876121521 0.6821199655532837
vn 0.7223812937736511 0.3609316945075989 0.5898250937461853
vn 0.07623979449272156 -0.4942229092121124 -0.865985631942749
vn 0.07047097384929657 -0.10032971948385239 -0.9924553632736206
vn -0.3916836380958557 -0.3974596858024597 -0.8298250436782837
vn -0.9839193224906921 -0.1638372391462326 -0.07113370299339294
vn -0.9730271697044373 0.13698813319206238 -0.1856134533882141
vn -0.9029711484909058 0.3130526542663574 0.29434871673583984
vn -0.5432193875312805 0.3096785545349121 -0.7803921699523926
vn -0.60579514503479 -0.045702848583459854 -0.7943069338798523
vn -0.08957631886005402 0.08249412477016449 -0.9925576448440552
vn -0.23022939264774323 -0.4995412230491638 -0.8351364135742188
vn -0.6791515350341797 -0.18315604329109192 -0.7107791304588318
vn -0.3215233385562897 -0.6337575316429138 -0.7035439014434814
vn -0.9662889242172241 -0.012101840227842331 -0.2571755349636078
vn -0.9374598860740662 -0.056191250681877136 0.3435281217098236
vn -0.9441366791725159 -0.14138436317443848 0.29768529534339905
vn 0.9883406758308411 -0.14992158114910126 -0.02657487988471985
vn 0.7849349975585938 -0.2104697823524475 -0.5827343463897705
vn 0.7764800786972046 -0.3232249617576599 -0.5409290194511414
vn -0.5331581830978394 -0.1743750423192978 -0.8278500437736511
vn -0.61729896068573 -0.3933667540550232 -0.6813256144523621
vn -0.09920544922351837 -0.5327405333518982 -0.8404438495635986
vn 0.9623086452484131 0.2647302746772766 -0.06229102611541748
vn 0.8086066842079163 0.04576145112514496 -0.586567223072052
vn 0.8037903904914856 0.05691898614168167 -0.5921835899353027
vn 0.13407093286514282 0.5511232614517212 0.8235825300216675
vn 0.1746802181005478 0.49166572093963623 0.853083610534668
vn 0.6377383470535278 0.6299924254417419 0.4431697726249695
vn -0.2972725033760071 0.052662305533885956 -0.9533392190933228
vn -0.7460935115814209 0.1868659257888794 -0.6390816569328308
vn -0.38754501938819885 -0.1849578320980072 -0.9031054377555847
vn -0.0020493268966674805 0.503227949142456 0.8641512989997864
vn -0.0031533241271972656 0.6219266653060913 0.7830690145492554
vn 0.4386579394340515 0.36835721135139465 0.8196902275085449
vn -0.9638529419898987 -0.2384769171476364 -0.11881181597709656
vn -0.9358580708503723 0.23937350511550903 0.2585921585559845
vn -0.9400087594985962 0.1408836841583252 0.3107011914253235
vn 0.9671550393104553 0.14982712268829346 -0.20533637702465057
vn 0.8408536911010742 -0.40684932470321655 -0.356985479593277
vn 0.8349807262420654 -0.41056886315345764 -0.36638838052749634
vn 0.924069881439209 0.13936996459960938 0.35590842366218567
vn 0.5551542043685913 0.602952778339386 0.5729326009750366
vn 0.878648579120636 0.4353739619255066 0.19602634012699127
vn -0.1185958981513977 -0.5455458164215088 -0.8296473622322083
vn -0.6353931427001953 -0.3917505741119385 -0.6654375195503235
vn -0.2449105978012085 -0.7633042931556702 -0.5978171229362488
vn -0.26147544384002686 0.7355284690856934 0.6250028014183044
vn -0.6792604923248291 0.4267655611038208 0.5970563888549805
vn -0.2165776938199997 0.6472131013870239 0.7308962345123291
vn -0.9259281158447266 -0.04232173413038254 -0.37532132863998413
vn -0.9638711810112 -0.2567979097366333 -0.07076163589954376
vn -0.6653388738632202 -0.4701216220855713 -0.5799223780632019
vn 0.4680405557155609 -0.5693537592887878 -0.6758508682250977
vn 0.8268704414367676 -0.48930975794792175 -0.2772386968135834
vn 0.7951576709747314 -0.2306605577468872 -0.5608209371566772
vn -0.2655617892742157 0.8275217413902283 0.49465611577033997
vn -0.2744799852371216 0.7616519927978516 0.5869812369346619
vn 0.2835340201854706 0.7881982326507568 0.5462160706520081
vn 0.8281791806221008 0.44971397519111633 0.33447951078414917
vn 0.8536983132362366 0.4223531484603882 0.30465877056121826
vn 0.9826841950416565 -0.137173131108284 0.12455998361110687
vn -0.9592806100845337 0.07586637139320374 0.27207517623901367
vn -0.8340879678726196 0.48910972476005554 0.2550860047340393
vn -0.9547842741012573 0.28985127806663513 0.06613088399171829
vn 0.19995349645614624 -0.6279714703559875 -0.7521106600761414
vn 0.2142859846353531 -0.8824028372764587 -0.41886359453201294
vn 0.6115806102752686 -0.6866198182106018 -0.3930933475494385
vn -0.5763379335403442 -0.4715035855770111 -0.6674720048904419
vn -0.7077175378799438 -0.544268786907196 -0.4504522681236267
vn -0.26205816864967346 -0.8701947927474976 -0.4172366261482239
vn 0.29705044627189636 0.8158249855041504 0.4961758852005005
vn -0.2714037001132965 0.1429113745689392 0.9517964124679565
vn -0.25778529047966003 0.8361573815345764 0.4841358959674835
vn 0.9995757341384888 0.029109477996826172 -0.0009856484830379486
vn 0.5818691849708557 -0.061843305826187134 0.8109276294708252
vn 0.8972682952880859 0.2689853310585022 0.3500807285308838
vn -0.9936400055885315 0.09334529936313629 -0.06297781318426132
vn -0.6333844661712646 0.5632195472717285 0.5306674242019653
vn -0.46678245067596436 -0.0981893390417099 0.8789044618606567
vn 0.5119508504867554 -0.7567802667617798 -0.4064357876777649
vn 0.5524441599845886 -0.793077290058136 0.2565811574459076
vn 0.8198676705360413 -0.3554810881614685 -0.4488319754600525
vn -0.36427396535873413 -0.8674415349960327 -0.3388948142528534
vn -0.8002201318740845 -0.5233191251754761 -0.2928907573223114
vn -0.5291882753372192 -0.7787543535232544 0.33689987659454346
vn -0.21219810843467712 0.9148196578025818 0.3436233401298523
vn -0.15100747346878052 0.15570546686649323 0.9761929512023926
vn -0.692926287651062 -0.3568817377090454 0.6264891028404236
vn 0.7612152695655823 -0.5914627313613892 0.26593783497810364
vn 0.6134822964668274 -0.053868263959884644 0.7878690361976624
vn 0.8892265558242798 0.4202464818954468 0.18074548244476318
vn -0.5144936442375183 -0.6779316663742065 -0.5250762701034546
vn -0.5838756561279297 -0.7884700298309326 0.19340240955352783
vn 0.09406639635562897 -0.9933091402053833 -0.06699636578559875
f 3/3/3 2/2/2 1/1/1
f 6/6/6 5/5/5 4/4/4
f 9/9/9 8/8/8 7/7/7
f 12/12/12 11/11/11 10/10/10
f 15/15/15 14/14/14 13/13/13
f 18/18/18 17/17/17 16/16/16
f 21/21/21 20/20/20 19/19/19
f 24/24/24 23/23/23 22/22/22
f 27/27/27 26/26/26 25/25/25
f 30/30/30 29/29/29 28/28/28
f 33/33/33 32/32/32 31/31/31
f 36/36/36 35/35/35 34/34/34
f 39/39/39 38/38/38 37/37/37
f 42/42/42 41/41/41 40/40/40
f 45/45/45 44/44/44 43/43/43
f 48/48/48 47/47/47 46/46/46
f 51/51/51 50/50/50 49/49/49
f 54/54/54 53/53/53 52/52/52
f 57/57/57 56/56/56 55/55/55
f 60/60/60 59/59/59 58/58/58
f 63/63/63 62/62/62 61/61/61
f 66/66/66 65/65/65 64/64/64
f 69/69/69 68/68/68 67/67/67
f 72/72/72 71/71/71 70/70/70
f 75/75/75 74/74/74 73/73/73
f 78/78/78 77/77/77 76/76/76
f 81/81/81 80/80/80 79/79/79
f 84/84/84 83/83/83 82/82/82
f 87/87/87 86/86/86 85/85/85
f 90/90/90 89/89/89 88/88/88
f 93/93/93 92/92/92 91/91/91
f 96/96/96 95/95/95 94/94/94
f 99/99/99 98/98/98 97/97/97
f 102/102/102 101/101/101 100/100/100
f 105/105/105 104/104/104 103/103/103
f 108/108/108 107/107/107 106/106/106
f 111/111/111 110/110/110 109/109/109
f 114/114/114 113/113/113 112/112/112
f 117/117/117 116/116/116 115/115/115
f 120/120/120 119/119/119 118/118/118
f 123/123/123 122/122/122 121/121/121
f 126/126/126 125/125/125 124/124/124
f 129/129/129 128/128/128 127/127/127
