# VPXTOOL table OBJ file
# VPXTOOL OBJ file
# numVerts: 126 numFaces: 138
o LM_L_LM5_UnderPF
v 278.6857604980469 -322.6572570800781 -12.153261184692383
v 272.8798828125 -323.8121337890625 -12.153261184692383
v 278.6857604980469 -322.6572570800781 -5.324187755584717
v 284.4916076660156 -323.8121337890625 -12.153261184692383
v 278.6857604980469 -322.6572570800781 -12.153261184692383
v 284.4916076660156 -323.8121337890625 -5.324187755584717
v 278.6857604980469 -322.6572570800781 -12.153261184692383
v 278.6857604980469 -322.6572570800781 -5.324187755584717
v 284.4916076660156 -323.8121337890625 -5.324187755584717
v 272.8798828125 -323.8121337890625 -12.153261184692383
v 267.9579162597656 -327.1008605957031 -12.153261184692383
v 272.8798828125 -323.8121337890625 -5.324187755584717
v 289.4136047363281 -327.1008605957031 -12.153261184692383
v 284.4916076660156 -323.8121337890625 -12.153261184692383
v 289.4136047363281 -327.1008605957031 -5.324187755584717
v 272.8798828125 -323.8121337890625 -12.153261184692383
v 272.8798828125 -323.8121337890625 -5.324187755584717
v 278.6857604980469 -322.6572570800781 -5.324187755584717
v 284.4916076660156 -323.8121337890625 -12.153261184692383
v 284.4916076660156 -323.8121337890625 -5.324187755584717
v 289.4136047363281 -327.1008605957031 -5.324187755584717
v 267.9579162597656 -327.1008605957031 -12.153261184692383
v 267.9579162597656 -327.1008605957031 -5.324187755584717
v 272.8798828125 -323.8121337890625 -5.324187755584717
v 267.9579162597656 -327.1008605957031 -12.153261184692383
v 264.66912841796875 -332.0228271484375 -12.153261184692383
v 267.9579162597656 -327.1008605957031 -5.324187755584717
v 292.7023620605469 -332.0228271484375 -12.153261184692383
v 289.4136047363281 -327.1008605957031 -12.153261184692383
v 292.7023620605469 -332.0228271484375 -5.324187755584717
v 289.4136047363281 -327.1008605957031 -12.153261184692383
v 289.4136047363281 -327.1008605957031 -5.324187755584717
v 292.7023620605469 -332.0228271484375 -5.324187755584717
v 293.85723876953125 -337.8287353515625 -5.324187755584717
v 284.4916076660156 -323.8121337890625 -5.324187755584717
v 278.6857604980469 -322.6572570800781 -5.324187755584717
v 263.5142517089844 -337.8287353515625 -5.324187755584717
v 278.6857604980469 -322.6572570800781 -5.324187755584717
v 272.8798828125 -323.8121337890625 -5.324187755584717
v 293.85723876953125 -337.8287353515625 -5.324187755584717
v 289.4136047363281 -327.1008605957031 -5.324187755584717
v 284.4916076660156 -323.8121337890625 -5.324187755584717
v 264.66912841796875 -332.0228271484375 -12.153261184692383
v 264.66912841796875 -332.0228271484375 -5.324187755584717
v 267.9579162597656 -327.1008605957031 -5.324187755584717
v 263.5142517089844 -337.8287353515625 -5.324187755584717
v 272.8798828125 -323.8121337890625 -5.324187755584717
v 267.9579162597656 -327.1008605957031 -5.324187755584717
v 264.66912841796875 -332.0228271484375 -12.153261184692383
v 263.5142517089844 -337.8287353515625 -12.153261184692383
v 264.66912841796875 -332.0228271484375 -5.324187755584717
v 293.85723876953125 -337.8287353515625 -12.153261184692383
v 292.7023620605469 -332.0228271484375 -12.153261184692383
v 293.85723876953125 -337.8287353515625 -5.324187755584717
v 292.7023620605469 -332.0228271484375 -12.153261184692383
v 292.7023620605469 -332.0228271484375 -5.324187755584717
v 293.85723876953125 -337.8287353515625 -5.324187755584717
v 292.7023620605469 -332.0228271484375 -5.324187755584717
v 267.9579162597656 -327.1008605957031 -5.324187755584717
v 264.66912841796875 -332.0228271484375 -5.324187755584717
v 263.5142517089844 -337.8287353515625 -5.324187755584717
v 263.5142517089844 -337.8287353515625 -12.153261184692383
v 263.5142517089844 -337.8287353515625 -5.324187755584717
v 264.66912841796875 -332.0228271484375 -5.324187755584717
v 278.6857604980469 -322.6572570800781 -5.324187755584717
v 289.4136047363281 -348.55657958984375 -5.324187755584717
v 293.85723876953125 -337.8287353515625 -5.324187755584717
v 263.5142517089844 -337.8287353515625 -12.153261184692383
v 264.66912841796875 -343.6346130371094 -12.153261184692383
v 263.5142517089844 -337.8287353515625 -5.324187755584717
v 292.7023620605469 -343.6346130371094 -12.153261184692383
v 293.85723876953125 -337.8287353515625 -12.153261184692383
v 292.7023620605469 -343.6346130371094 -5.324187755584717
v 293.85723876953125 -337.8287353515625 -12.153261184692383
v 293.85723876953125 -337.8287353515625 -5.324187755584717
v 292.7023620605469 -343.6346130371094 -5.324187755584717
v 278.6857604980469 -322.6572570800781 -5.324187755584717
v 263.5142517089844 -337.8287353515625 -5.324187755584717
v 267.9579162597656 -348.55657958984375 -5.324187755584717
v 264.66912841796875 -343.6346130371094 -12.153261184692383
v 264.66912841796875 -343.6346130371094 -5.324187755584717
v 263.5142517089844 -337.8287353515625 -5.324187755584717
v 278.6857604980469 -322.6572570800781 -5.324187755584717
v 278.6857604980469 -353.00018310546875 -5.324187755584717
v 289.4136047363281 -348.55657958984375 -5.324187755584717
v 267.9579162597656 -348.55657958984375 -5.324187755584717
v 264.66912841796875 -343.6346130371094 -12.153261184692383
v 267.9579162597656 -348.55657958984375 -12.153261184692383
v 264.66912841796875 -343.6346130371094 -5.324187755584717
v 289.4136047363281 -348.55657958984375 -12.153261184692383
v 292.7023620605469 -343.6346130371094 -12.153261184692383
v 289.4136047363281 -348.55657958984375 -5.324187755584717
v 292.7023620605469 -343.6346130371094 -12.153261184692383
v 292.7023620605469 -343.6346130371094 -5.324187755584717
v 289.4136047363281 -348.55657958984375 -5.324187755584717
v 292.7023620605469 -343.6346130371094 -5.324187755584717
v 264.66912841796875 -343.6346130371094 -5.324187755584717
v 267.9579162597656 -348.55657958984375 -12.153261184692383
v 267.9579162597656 -348.55657958984375 -5.324187755584717
v 264.66912841796875 -343.6346130371094 -5.324187755584717
v 267.9579162597656 -348.55657958984375 -12.153261184692383
v 272.8798828125 -351.8453674316406 -12.153261184692383
v 267.9579162597656 -348.55657958984375 -5.324187755584717
v 284.4916076660156 -351.8453674316406 -12.153261184692383
v 289.4136047363281 -348.55657958984375 -12.153261184692383
v 284.4916076660156 -351.8453674316406 -5.324187755584717
v 289.4136047363281 -348.55657958984375 -5.324187755584717
v 272.8798828125 -351.8453674316406 -12.153261184692383
v 278.6857604980469 -353.00018310546875 -12.153261184692383
v 272.8798828125 -351.8453674316406 -5.324187755584717
v 278.6857604980469 -353.00018310546875 -12.153261184692383
v 284.4916076660156 -351.8453674316406 -12.153261184692383
v 278.6857604980469 -353.00018310546875 -5.324187755584717
v 272.8798828125 -351.8453674316406 -12.153261184692383
v 272.8798828125 -351.8453674316406 -5.324187755584717
v 267.9579162597656 -348.55657958984375 -5.324187755584717
v 284.4916076660156 -351.8453674316406 -12.153261184692383
v 284.4916076660156 -351.8453674316406 -5.324187755584717
v 278.6857604980469 -353.00018310546875 -5.324187755584717
v 278.6857604980469 -353.00018310546875 -12.153261184692383
v 278.6857604980469 -353.00018310546875 -5.324187755584717
v 272.8798828125 -351.8453674316406 -5.324187755584717
v 278.6857604980469 -353.00018310546875 -5.324187755584717
v 284.4916076660156 -351.8453674316406 -5.324187755584717
v 289.4136047363281 -348.55657958984375 -5.324187755584717
v 272.8798828125 -351.8453674316406 -5.324187755584717
vt 0.03120172955095768 0.004018723964691162
vt 0.030966943129897118 0.005482792854309082
vt 0.03221386671066284 0.004130840301513672
vt 0.030966943129897118 0.002576589584350586
vt 0.03120172955095768 0.004018723964691162
vt 0.03197930008172989 0.002691209316253662
vt 0.03120172955095768 0.004018723964691162
vt 0.03221386671066284 0.004130840301513672
vt 0.03197930008172989 0.002691209316253662
vt 0.030966943129897118 0.005482792854309082
vt 0.0302987489849329 0.0067446231842041016
vt 0.03197930008172989 0.00559234619140625
vt 0.0302987489849329 0.0013771653175354004
vt 0.030966943129897118 0.002576589584350586
vt 0.03131180256605148 0.0014938116073608398
vt 0.030966943129897118 0.005482792854309082
vt 0.03197930008172989 0.00559234619140625
vt 0.03221386671066284 0.004130840301513672
vt 0.030966943129897118 0.002576589584350586
vt 0.03197930008172989 0.002691209316253662
vt 0.03131180256605148 0.0014938116073608398
vt 0.0302987489849329 0.0067446231842041016
vt 0.03131180256605148 0.006851911544799805
vt 0.03197930008172989 0.00559234619140625
vt 0.0302987489849329 0.0067446231842041016
vt 0.029299970716238022 0.007611453533172607
vt 0.03131180256605148 0.006851911544799805
vt 0.029299970716238022 0.0006036162376403809
vt 0.0302987489849329 0.0013771653175354004
vt 0.030314048752188683 0.0007215142250061035
vt 0.0302987489849329 0.0013771653175354004
vt 0.03131180256605148 0.0014938116073608398
vt 0.030314048752188683 0.0007215142250061035
vt 0.029138945043087006 0.0004912614822387695
vt 0.03197930008172989 0.002691209316253662
vt 0.03221386671066284 0.004130840301513672
vt 0.029138945043087006 0.008056938648223877
vt 0.03221386671066284 0.004130840301513672
vt 0.03197930008172989 0.00559234619140625
vt 0.029138945043087006 0.0004912614822387695
vt 0.03131180256605148 0.0014938116073608398
vt 0.03197930008172989 0.002691209316253662
vt 0.029299970716238022 0.007611453533172607
vt 0.030314048752188683 0.00771719217300415
vt 0.03131180256605148 0.006851911544799805
vt 0.029138945043087006 0.008056938648223877
vt 0.03197930008172989 0.00559234619140625
vt 0.03131180256605148 0.006851911544799805
vt 0.029299970716238022 0.007611453533172607
vt 0.02812369540333748 0.007951855659484863
vt 0.030314048752188683 0.00771719217300415
vt 0.02812369540333748 0.0003730654716491699
vt 0.029299970716238022 0.0006036162376403809
vt 0.029138945043087006 0.0004912614822387695
vt 0.029299970716238022 0.0006036162376403809
vt 0.030314048752188683 0.0007215142250061035
vt 0.029138945043087006 0.0004912614822387695
vt 0.030314048752188683 0.0007215142250061035
vt 0.03131180256605148 0.006851911544799805
vt 0.030314048752188683 0.00771719217300415
vt 0.029138945043087006 0.008056938648223877
vt 0.02812369540333748 0.007951855659484863
vt 0.029138945043087006 0.008056938648223877
vt 0.030314048752188683 0.00771719217300415
vt 0.03221386671066284 0.004130840301513672
vt 0.026972860097885132 0.0017042756080627441
vt 0.029138945043087006 0.0004912614822387695
vt 0.02812369540333748 0.007951855659484863
vt 0.026949431747198105 0.007715284824371338
vt 0.029138945043087006 0.008056938648223877
vt 0.026949431747198105 0.0007193684577941895
vt 0.02812369540333748 0.0003730654716491699
vt 0.027965815737843513 0.0008368492126464844
vt 0.02812369540333748 0.0003730654716491699
vt 0.029138945043087006 0.0004912614822387695
vt 0.027965815737843513 0.0008368492126464844
vt 0.03221386671066284 0.004130840301513672
vt 0.029138945043087006 0.008056938648223877
vt 0.026972860097885132 0.007045626640319824
vt 0.026949431747198105 0.007715284824371338
vt 0.027965815737843513 0.007820665836334229
vt 0.029138945043087006 0.008056938648223877
vt 0.03221386671066284 0.004130840301513672
vt 0.026077603921294212 0.004416704177856445
vt 0.026972860097885132 0.0017042756080627441
vt 0.026972860097885132 0.007045626640319824
vt 0.026949431747198105 0.007715284824371338
vt 0.025955451652407646 0.00693899393081665
vt 0.027965815737843513 0.007820665836334229
vt 0.025955451652407646 0.0015884041786193848
vt 0.026949431747198105 0.0007193684577941895
vt 0.026972860097885132 0.0017042756080627441
vt 0.026949431747198105 0.0007193684577941895
vt 0.027965815737843513 0.0008368492126464844
vt 0.026972860097885132 0.0017042756080627441
vt 0.027965815737843513 0.0008368492126464844
vt 0.027965815737843513 0.007820665836334229
vt 0.025955451652407646 0.00693899393081665
vt 0.026972860097885132 0.007045626640319824
vt 0.027965815737843513 0.007820665836334229
vt 0.025955451652407646 0.00693899393081665
vt 0.025292126461863518 0.00574183464050293
vt 0.026972860097885132 0.007045626640319824
vt 0.025292126461863518 0.0028475522994995117
vt 0.025955451652407646 0.0015884041786193848
vt 0.026310157030820847 0.0029611587524414063
vt 0.026972860097885132 0.0017042756080627441
vt 0.025292126461863518 0.00574183464050293
vt 0.025059351697564125 0.004305541515350342
vt 0.026310157030820847 0.005850493907928467
vt 0.025059351697564125 0.004305541515350342
vt 0.025292126461863518 0.0028475522994995117
vt 0.026077603921294212 0.004416704177856445
vt 0.025292126461863518 0.00574183464050293
vt 0.026310157030820847 0.005850493907928467
vt 0.026972860097885132 0.007045626640319824
vt 0.025292126461863518 0.0028475522994995117
vt 0.026310157030820847 0.0029611587524414063
vt 0.026077603921294212 0.004416704177856445
vt 0.025059351697564125 0.004305541515350342
vt 0.026077603921294212 0.004416704177856445
vt 0.026310157030820847 0.005850493907928467
vt 0.026077603921294212 0.004416704177856445
vt 0.026310157030820847 0.0029611587524414063
vt 0.026972860097885132 0.0017042756080627441
vt 0.026310157030820847 0.005850493907928467
vn 0.19509360194206238 -0.9807846546173096 -0
vn 0.19509360194206238 -0.9807846546173096 -0
vn 0.19509360194206238 -0.9807846546173096 -0
vn -0.19509360194206238 -0.9807846546173096 -0
vn -0.19509360194206238 -0.9807846546173096 -0
vn -0.19509360194206238 -0.9807846546173096 -0
vn -0.19509363174438477 -0.9807846546173096 -0
vn -0.19509363174438477 -0.9807846546173096 -0
vn -0.19509363174438477 -0.9807846546173096 -0
vn 0.5555682182312012 -0.8314710259437561 -0
vn 0.5555682182312012 -0.8314710259437561 -0
vn 0.5555682182312012 -0.8314710259437561 -0
vn -0.5555636286735535 -0.8314740657806396 -0
vn -0.5555636286735535 -0.8314740657806396 -0
vn -0.5555636286735535 -0.8314740657806396 -0
vn 0.19509363174438477 -0.9807846546173096 -0
vn 0.19509363174438477 -0.9807846546173096 -0
vn 0.19509363174438477 -0.9807846546173096 -0
vn -0.5555635094642639 -0.8314740657806396 -0
vn -0.5555635094642639 -0.8314740657806396 -0
vn -0.5555635094642639 -0.8314740657806396 -0
vn 0.5555635094642639 -0.8314740657806396 -0
vn 0.5555635094642639 -0.8314740657806396 -0
vn 0.5555635094642639 -0.8314740657806396 -0
vn 0.8314707279205322 -0.5555683970451355 -0
vn 0.8314707279205322 -0.5555683970451355 -0
vn 0.8314707279205322 -0.5555683970451355 -0
vn -0.8314662575721741 -0.5555752515792847 -0
vn -0.8314662575721741 -0.5555752515792847 -0
vn -0.8314662575721741 -0.5555752515792847 -0
vn -0.8314709067344666 -0.5555683970451355 -0
vn -0.8314709067344666 -0.5555683970451355 -0
vn -0.8314709067344666 -0.5555683970451355 -0
vn 0.00000017697060172849888 -0 -1
vn 0.00000017697060172849888 -0 -1
vn 0.00000017697060172849888 -0 -1
vn -0.00000017696960696866881 -0 -1
vn -0.00000017696960696866881 -0 -1
vn -0.00000017696960696866881 -0 -1
vn 0 -0 -1
vn 0 -0 -1
vn 0 -0 -1
vn 0.8314662575721741 -0.5555751323699951 -0
vn 0.8314662575721741 -0.5555751323699951 -0
vn 0.8314662575721741 -0.5555751323699951 -0
vn 0.0000003269923070092773 -0 -1
vn 0.0000003269923070092773 -0 -1
vn 0.0000003269923070092773 -0 -1
vn 0.9807842969894409 -0.19509530067443848 -0
vn 0.9807842969894409 -0.19509530067443848 -0
vn 0.9807842969894409 -0.19509530067443848 -0
vn -0.9807842969894409 -0.19509530067443848 -0
vn -0.9807842969894409 -0.19509530067443848 -0
vn -0.9807842969894409 -0.19509530067443848 -0
vn -0.980786144733429 -0.195085808634758 -0
vn -0.980786144733429 -0.195085808634758 -0
vn -0.980786144733429 -0.195085808634758 -0
vn 0 -0 -1
vn 0 -0 -1
vn 0 -0 -1
vn 0 -0 -1
vn 0.980786144733429 -0.195085808634758 -0
vn 0.980786144733429 -0.195085808634758 -0
vn 0.980786144733429 -0.195085808634758 -0
vn -0.0000001085046861248884 -0 -1
vn -0.0000001085046861248884 -0 -1
vn -0.0000001085046861248884 -0 -1
vn 0.9807857871055603 0.19508758187294006 -0
vn 0.9807857871055603 0.19508758187294006 -0
vn 0.9807857871055603 0.19508758187294006 -0
vn -0.9807857871055603 0.19508758187294006 -0
vn -0.9807857871055603 0.19508758187294006 -0
vn -0.9807857871055603 0.19508758187294006 -0
vn -0.9807839393615723 0.19509713351726532 -0
vn -0.9807839393615723 0.19509713351726532 -0
vn -0.9807839393615723 0.19509713351726532 -0
vn 0.0000000542523430624442 -0 -1
vn 0.0000000542523430624442 -0 -1
vn 0.0000000542523430624442 -0 -1
vn 0.9807839393615723 0.19509713351726532 -0
vn 0.9807839393615723 0.19509713351726532 -0
vn 0.9807839393615723 0.19509713351726532 -0
vn 0 -0 -1
vn 0 -0 -1
vn 0 -0 -1
vn 0 -0 -1
vn 0.8314662575721741 0.5555752515792847 -0
vn 0.8314662575721741 0.5555752515792847 -0
vn 0.8314662575721741 0.5555752515792847 -0
vn -0.8314707279205322 0.5555683970451355 -0
vn -0.8314707279205322 0.5555683970451355 -0
vn -0.8314707279205322 0.5555683970451355 -0
vn -0.8314662575721741 0.5555751323699951 -0
vn -0.8314662575721741 0.5555751323699951 -0
vn -0.8314662575721741 0.5555751323699951 -0
vn 0 -0 -1
vn 0 -0 -1
vn 0.8314709067344666 0.5555683970451355 -0
vn 0.8314709067344666 0.5555683970451355 -0
vn 0.8314709067344666 0.5555683970451355 -0
vn 0.5555700063705444 0.831469714641571 -0
vn 0.5555700063705444 0.831469714641571 -0
vn 0.5555700063705444 0.831469714641571 -0
vn -0.5555700063705444 0.831469714641571 -0
vn -0.5555700063705444 0.831469714641571 -0
vn -0.5555700063705444 0.831469714641571 -0
vn -0.5555700063705444 0.831469714641571 -0
vn 0.1950846165418625 0.9807864427566528 -0
vn 0.1950846165418625 0.9807864427566528 -0
vn 0.1950846165418625 0.9807864427566528 -0
vn -0.1950846165418625 0.9807864427566528 -0
vn -0.1950846165418625 0.9807864427566528 -0
vn -0.1950846165418625 0.9807864427566528 -0
vn 0.5555745959281921 0.8314667344093323 -0
vn 0.5555745959281921 0.8314667344093323 -0
vn 0.5555745959281921 0.8314667344093323 -0
vn -0.19508464634418488 0.9807863831520081 -0
vn -0.19508464634418488 0.9807863831520081 -0
vn -0.19508464634418488 0.9807863831520081 -0
vn 0.19508464634418488 0.9807863831520081 -0
vn 0.19508464634418488 0.9807863831520081 -0
vn 0.19508464634418488 0.9807863831520081 -0
vn 0.00000011640294417247787 -0 -1
vn 0.00000011640294417247787 -0 -1
vn 0.00000011640294417247787 -0 -1
vn 0 -0 -1
f 3/3/3 2/2/2 1/1/1
f 6/6/6 5/5/5 4/4/4
f 9/9/9 8/8/8 7/7/7
f 12/12/12 11/11/11 10/10/10
f 15/15/15 14/14/14 13/13/13
f 18/18/18 17/17/17 16/16/16
f 21/21/21 20/20/20 19/19/19
f 24/24/24 23/23/23 22/22/22
f 27/27/27 26/26/26 25/25/25
f 30/30/30 29/29/29 28/28/28
f 33/33/33 32/32/32 31/31/31
f 36/36/36 35/35/35 34/34/34
f 39/39/39 38/38/38 37/37/37
f 42/42/42 41/41/41 40/40/40
f 45/45/45 44/44/44 43/43/43
f 48/48/48 47/47/47 46/46/46
f 51/51/51 50/50/50 49/49/49
f 54/54/54 53/53/53 52/52/52
f 57/57/57 56/56/56 55/55/55
f 41/41/41 58/58/58 40/40/40
f 61/61/61 60/60/60 59/59/59
f 64/64/64 63/63/63 62/62/62
f 67/67/67 66/66/66 65/65/65
f 70/70/70 69/69/69 68/68/68
f 73/73/73 72/72/72 71/71/71
f 76/76/76 75/75/75 74/74/74
f 79/79/79 78/78/78 77/77/77
f 82/82/82 81/81/81 80/80/80
f 85/85/85 84/84/84 83/83/83
f 84/84/84 86/86/86 83/83/83
f 89/89/89 88/88/88 87/87/87
f 92/92/92 91/91/91 90/90/90
f 95/95/95 94/94/94 93/93/93
f 40/40/40 96/96/96 85/85/85
f 86/86/86 97/97/97 61/61/61
f 100/100/100 99/99/99 98/98/98
f 103/103/103 102/102/102 101/101/101
f 106/106/106 105/105/105 104/104/104
f 106/106/106 107/107/107 105/105/105
f 110/110/110 109/109/109 108/108/108
f 113/113/113 112/112/112 111/111/111
f 116/116/116 115/115/115 114/114/114
f 119/119/119 118/118/118 117/117/117
f 122/122/122 121/121/121 120/120/120
f 125/125/125 124/124/124 123/123/123
f 84/84/84 126/126/126 86/86/86
