# VPXTOOL table OBJ file
# VPXTOOL OBJ file
# numVerts: 76 numFaces: 87
o LM_F_FL5f_UnderPF
v -381.1938781738281 556.9594116210938 -12.23087215423584
v -390.2191467285156 558.754638671875 -12.23087215423584
v -381.1938781738281 556.9594116210938 -6.426159381866455
v -373.5426025390625 551.8470458984375 -12.23087215423584
v -381.1938781738281 556.9594116210938 -12.23087215423584
v -373.5426025390625 551.8470458984375 -6.426159381866455
v -381.1938781738281 556.9594116210938 -12.23087215423584
v -381.1938781738281 556.9594116210938 -6.426159381866455
v -373.5426025390625 551.8470458984375 -6.426159381866455
v -390.2191467285156 558.754638671875 -12.23087215423584
v -399.2444152832031 556.9594116210938 -12.23087215423584
v -390.2191467285156 558.754638671875 -6.426159381866455
v -390.2191467285156 558.754638671875 -12.23087215423584
v -390.2191467285156 558.754638671875 -6.426159381866455
v -381.1938781738281 556.9594116210938 -6.426159381866455
v -368.4302062988281 544.1957397460938 -12.23087215423584
v -373.5426025390625 551.8470458984375 -12.23087215423584
v -368.4302062988281 544.1957397460938 -6.426159381866455
v -373.5426025390625 551.8470458984375 -12.23087215423584
v -373.5426025390625 551.8470458984375 -6.426159381866455
v -368.4302062988281 544.1957397460938 -6.426159381866455
v -399.2444152832031 556.9594116210938 -12.23087215423584
v -399.2444152832031 556.9594116210938 -6.426159381866455
v -390.2191467285156 558.754638671875 -6.426159381866455
v -366.63494873046875 535.17041015625 -6.426159381866455
v -381.1938781738281 556.9594116210938 -6.426159381866455
v -390.2191467285156 558.754638671875 -6.426159381866455
v -366.63494873046875 535.17041015625 -6.426159381866455
v -373.5426025390625 551.8470458984375 -6.426159381866455
v -381.1938781738281 556.9594116210938 -6.426159381866455
v -368.4302062988281 544.1957397460938 -12.23087215423584
v -368.4302062988281 544.1957397460938 -6.426159381866455
v -366.63494873046875 535.17041015625 -6.426159381866455
v -366.63494873046875 535.17041015625 -12.23087215423584
v -368.4302062988281 544.1957397460938 -6.426159381866455
v -413.8033142089844 535.17041015625 -6.426159381866455
v -399.2444152832031 556.9594116210938 -6.426159381866455
v -366.63494873046875 535.17041015625 -12.23087215423584
v -366.63494873046875 535.17041015625 -6.426159381866455
v -368.4302062988281 526.1452026367188 -6.426159381866455
v -368.4302062988281 526.1452026367188 -12.23087215423584
v -390.2191467285156 511.5863037109375 -6.426159381866455
v -390.2191467285156 558.754638671875 -6.426159381866455
v -373.5426025390625 518.4939575195313 -6.426159381866455
v -368.4302062988281 526.1452026367188 -6.426159381866455
v -366.63494873046875 535.17041015625 -6.426159381866455
v -368.4302062988281 526.1452026367188 -12.23087215423584
v -368.4302062988281 526.1452026367188 -6.426159381866455
v -373.5426025390625 518.4939575195313 -6.426159381866455
v -373.5426025390625 518.4939575195313 -12.23087215423584
v -368.4302062988281 526.1452026367188 -12.23087215423584
v -373.5426025390625 518.4939575195313 -6.426159381866455
v -390.2191467285156 511.5863037109375 -6.426159381866455
v -381.1938781738281 513.381591796875 -6.426159381866455
v -373.5426025390625 518.4939575195313 -6.426159381866455
v -373.5426025390625 518.4939575195313 -12.23087215423584
v -373.5426025390625 518.4939575195313 -6.426159381866455
v -381.1938781738281 513.381591796875 -6.426159381866455
v -381.1938781738281 513.381591796875 -12.23087215423584
v -373.5426025390625 518.4939575195313 -12.23087215423584
v -381.1938781738281 513.381591796875 -6.426159381866455
v -366.63494873046875 535.17041015625 -6.426159381866455
v -390.2191467285156 511.5863037109375 -6.426159381866455
v -381.1938781738281 513.381591796875 -6.426159381866455
v -390.2191467285156 511.5863037109375 -12.23087215423584
v -381.1938781738281 513.381591796875 -12.23087215423584
v -390.2191467285156 511.5863037109375 -6.426159381866455
v -381.1938781738281 513.381591796875 -12.23087215423584
v -381.1938781738281 513.381591796875 -6.426159381866455
v -390.2191467285156 511.5863037109375 -6.426159381866455
v -413.8033142089844 535.17041015625 -6.426159381866455
v -399.2444152832031 513.381591796875 -6.426159381866455
v -390.2191467285156 511.5863037109375 -6.426159381866455
v -390.2191467285156 511.5863037109375 -12.23087215423584
v -390.2191467285156 511.5863037109375 -6.426159381866455
v -399.2444152832031 513.381591796875 -6.426159381866455
vt 0.9420295357704163 0.08019214868545532
vt 0.9425371289253235 0.08274853229522705
vt 0.9427038431167603 0.07999694347381592
vt 0.940585732460022 0.0779576301574707
vt 0.9420295357704163 0.08019214868545532
vt 0.941261887550354 0.07776641845703125
vt 0.9420295357704163 0.08019214868545532
vt 0.9427038431167603 0.07999694347381592
vt 0.941261887550354 0.07776641845703125
vt 0.9425371289253235 0.08274853229522705
vt 0.9420295357704163 0.08523356914520264
vt 0.943210780620575 0.08254897594451904
vt 0.9425371289253235 0.08274853229522705
vt 0.943210780620575 0.08254897594451904
vt 0.9427038431167603 0.07999694347381592
vt 0.938429594039917 0.07638722658157349
vt 0.940585732460022 0.0779576301574707
vt 0.9391084909439087 0.07619887590408325
vt 0.940585732460022 0.0779576301574707
vt 0.941261887550354 0.07776641845703125
vt 0.9391084909439087 0.07619887590408325
vt 0.9420295357704163 0.08523356914520264
vt 0.9427038431167603 0.08502990007400513
vt 0.943210780620575 0.08254897594451904
vt 0.9365754723548889 0.07553160190582275
vt 0.9427038431167603 0.07999694347381592
vt 0.943210780620575 0.08254897594451904
vt 0.9365754723548889 0.07553160190582275
vt 0.941261887550354 0.07776641845703125
vt 0.9427038431167603 0.07999694347381592
vt 0.938429594039917 0.07638722658157349
vt 0.9391084909439087 0.07619887590408325
vt 0.9365754723548889 0.07553160190582275
vt 0.9358932971954346 0.07571858167648315
vt 0.9391084909439087 0.07619887590408325
vt 0.9365754723548889 0.08863532543182373
vt 0.9427038431167603 0.08502990007400513
vt 0.9358932971954346 0.07571858167648315
vt 0.9365754723548889 0.07553160190582275
vt 0.9340501427650452 0.0758623480796814
vt 0.933364748954773 0.0760495662689209
vt 0.9299924969673157 0.08162164688110352
vt 0.943210780620575 0.08254897594451904
vt 0.9319152235984802 0.0771365761756897
vt 0.9340501427650452 0.0758623480796814
vt 0.9365754723548889 0.07553160190582275
vt 0.933364748954773 0.0760495662689209
vt 0.9340501427650452 0.0758623480796814
vt 0.9319152235984802 0.0771365761756897
vt 0.9312270879745483 0.07732570171356201
vt 0.933364748954773 0.0760495662689209
vt 0.9319152235984802 0.0771365761756897
vt 0.9299924969673157 0.08162164688110352
vt 0.9304917454719543 0.0791584849357605
vt 0.9319152235984802 0.0771365761756897
vt 0.9312270879745483 0.07732570171356201
vt 0.9319152235984802 0.0771365761756897
vt 0.9304917454719543 0.0791584849357605
vt 0.9298018217086792 0.07935088872909546
vt 0.9312270879745483 0.07732570171356201
vt 0.9304917454719543 0.0791584849357605
vt 0.9365754723548889 0.07553160190582275
vt 0.9299924969673157 0.08162164688110352
vt 0.9304917454719543 0.0791584849357605
vt 0.929301917552948 0.08181804418563843
vt 0.9298018217086792 0.07935088872909546
vt 0.9299924969673157 0.08162164688110352
vt 0.9298018217086792 0.07935088872909546
vt 0.9304917454719543 0.0791584849357605
vt 0.9299924969673157 0.08162164688110352
vt 0.9365754723548889 0.08863532543182373
vt 0.9304917454719543 0.08415478467941284
vt 0.9299924969673157 0.08162164688110352
vt 0.929301917552948 0.08181804418563843
vt 0.9299924969673157 0.08162164688110352
vt 0.9304917454719543 0.08415478467941284
vn -0.19509294629096985 -0.9807847738265991 -0
vn -0.19509294629096985 -0.9807847738265991 -0
vn -0.19509294629096985 -0.9807847738265991 -0
vn -0.5555657148361206 -0.831472635269165 -0
vn -0.5555657148361206 -0.831472635269165 -0
vn -0.5555657148361206 -0.831472635269165 -0
vn -0.555565595626831 -0.831472635269165 -0
vn -0.555565595626831 -0.831472635269165 -0
vn -0.555565595626831 -0.831472635269165 -0
vn 0.19509294629096985 -0.9807847738265991 -0
vn 0.19509294629096985 -0.9807847738265991 -0
vn 0.19509294629096985 -0.9807847738265991 -0
vn -0.19509291648864746 -0.9807847738265991 -0
vn -0.19509291648864746 -0.9807847738265991 -0
vn -0.19509291648864746 -0.9807847738265991 -0
vn -0.8314679861068726 -0.5555726885795593 -0
vn -0.8314679861068726 -0.5555726885795593 -0
vn -0.8314679861068726 -0.5555726885795593 -0
vn -0.8314713835716248 -0.5555675625801086 -0
vn -0.8314713835716248 -0.5555675625801086 -0
vn -0.8314713835716248 -0.5555675625801086 -0
vn 0.19509291648864746 -0.9807847738265991 -0
vn 0.19509291648864746 -0.9807847738265991 -0
vn 0.19509291648864746 -0.9807847738265991 -0
vn 0 -0 -0.9999999403953552
vn 0 -0 -0.9999999403953552
vn 0 -0 -0.9999999403953552
vn 0 -0 -1
vn 0 -0 -1
vn 0 -0 -1
vn -0.9807858467102051 -0.19508729875087738 -0
vn -0.9807858467102051 -0.19508729875087738 -0
vn -0.9807858467102051 -0.19508729875087738 -0
vn -0.9807858467102051 -0.19508729875087738 -0
vn 0 -0 -1
vn 0 -0 -0.9999999403953552
vn 0 -0 -0.9999999403953552
vn -0.9807854294776917 0.19508959352970123 -0
vn -0.9807854294776917 0.19508959352970123 -0
vn -0.9807854294776917 0.19508959352970123 -0
vn -0.9807854294776917 0.19508959352970123 -0
vn 0 -0 -1
vn 0 -0 -1
vn -0.00000019268000528427365 -0 -1
vn -0.00000019268000528427365 -0 -1
vn -0.00000019268000528427365 -0 -1
vn -0.831467866897583 0.5555726885795593 -0
vn -0.831467866897583 0.5555726885795593 -0
vn -0.831467866897583 0.5555726885795593 -0
vn -0.8314714431762695 0.5555675029754639 -0
vn -0.8314714431762695 0.5555675029754639 -0
vn -0.8314714431762695 0.5555675029754639 -0
vn 0 -0 -0.9999999403953552
vn 0 -0 -0.9999999403953552
vn 0 -0 -0.9999999403953552
vn -0.555565595626831 0.831472635269165 -0
vn -0.555565595626831 0.831472635269165 -0
vn -0.555565595626831 0.831472635269165 -0
vn -0.5555657148361206 0.831472635269165 -0
vn -0.5555657148361206 0.831472635269165 -0
vn -0.5555657148361206 0.831472635269165 -0
vn 0.0000001464688068608666 -0 -0.9999999403953552
vn 0.0000001464688068608666 -0 -0.9999999403953552
vn 0.0000001464688068608666 -0 -0.9999999403953552
vn -0.19509294629096985 0.9807847738265991 -0
vn -0.19509294629096985 0.9807847738265991 -0
vn -0.19509294629096985 0.9807847738265991 -0
vn -0.19509291648864746 0.9807847738265991 -0
vn -0.19509291648864746 0.9807847738265991 -0
vn -0.19509291648864746 0.9807847738265991 -0
vn -0.00000014647018531377398 -0 -1
vn -0.00000014647018531377398 -0 -1
vn -0.00000014647018531377398 -0 -1
vn 0.19509291648864746 0.9807847738265991 -0
vn 0.19509291648864746 0.9807847738265991 -0
vn 0.19509291648864746 0.9807847738265991 -0
f 3/3/3 2/2/2 1/1/1
f 6/6/6 5/5/5 4/4/4
f 9/9/9 8/8/8 7/7/7
f 12/12/12 11/11/11 10/10/10
f 15/15/15 14/14/14 13/13/13
f 18/18/18 17/17/17 16/16/16
f 21/21/21 20/20/20 19/19/19
f 24/24/24 23/23/23 22/22/22
f 27/27/27 26/26/26 25/25/25
f 30/30/30 29/29/29 28/28/28
f 33/33/33 32/32/32 31/31/31
f 33/33/33 31/31/31 34/34/34
f 29/29/29 35/35/35 28/28/28
f 37/37/37 27/27/27 36/36/36
f 40/40/40 39/39/39 38/38/38
f 40/40/40 38/38/38 41/41/41
f 43/43/43 28/28/28 42/42/42
f 46/46/46 45/45/45 44/44/44
f 49/49/49 48/48/48 47/47/47
f 52/52/52 51/51/51 50/50/50
f 53/53/53 36/36/36 27/27/27
f 55/55/55 54/54/54 25/25/25
f 58/58/58 57/57/57 56/56/56
f 61/61/61 60/60/60 59/59/59
f 64/64/64 63/63/63 62/62/62
f 67/67/67 66/66/66 65/65/65
f 70/70/70 69/69/69 68/68/68
f 73/73/73 72/72/72 71/71/71
f 76/76/76 75/75/75 74/74/74
