# VPXTOOL table OBJ file
# VPXTOOL OBJ file
# numVerts: 125 numFaces: 138
o LM_L_LM3_UnderPF
v -18.32040786743164 -567.7855224609375 -12.153261184692383
v -24.126298904418945 -566.6306762695313 -12.153261184692383
v -18.32040786743164 -567.7855224609375 -5.324187755584717
v -24.126298904418945 -566.6306762695313 -12.153261184692383
v -29.932161331176758 -567.7855224609375 -12.153261184692383
v -24.126298904418945 -566.6306762695313 -5.324187755584717
v -13.398427963256836 -571.0743408203125 -12.153261184692383
v -18.32040786743164 -567.7855224609375 -12.153261184692383
v -13.398427963256836 -571.0743408203125 -5.324187755584717
v -24.126298904418945 -566.6306762695313 -12.153261184692383
v -24.126298904418945 -566.6306762695313 -5.324187755584717
v -18.32040786743164 -567.7855224609375 -5.324187755584717
v -18.32040786743164 -567.7855224609375 -12.153261184692383
v -18.32040786743164 -567.7855224609375 -5.324187755584717
v -13.398427963256836 -571.0743408203125 -5.324187755584717
v -29.932161331176758 -567.7855224609375 -12.153261184692383
v -29.932161331176758 -567.7855224609375 -5.324187755584717
v -24.126298904418945 -566.6306762695313 -5.324187755584717
v -29.932161331176758 -567.7855224609375 -12.153261184692383
v -34.85414123535156 -571.0743408203125 -12.153261184692383
v -29.932161331176758 -567.7855224609375 -5.324187755584717
v -13.398427963256836 -571.0743408203125 -5.324187755584717
v -18.32040786743164 -567.7855224609375 -5.324187755584717
v -24.126298904418945 -566.6306762695313 -5.324187755584717
v -10.109682083129883 -575.996337890625 -12.153261184692383
v -13.398427963256836 -571.0743408203125 -12.153261184692383
v -10.109682083129883 -575.996337890625 -5.324187755584717
v -13.398427963256836 -571.0743408203125 -12.153261184692383
v -13.398427963256836 -571.0743408203125 -5.324187755584717
v -10.109682083129883 -575.996337890625 -5.324187755584717
v -24.126298904418945 -566.6306762695313 -5.324187755584717
v -29.932161331176758 -567.7855224609375 -5.324187755584717
v -34.85414123535156 -571.0743408203125 -5.324187755584717
v -34.85414123535156 -571.0743408203125 -12.153261184692383
v -34.85414123535156 -571.0743408203125 -5.324187755584717
v -29.932161331176758 -567.7855224609375 -5.324187755584717
v -24.126298904418945 -566.6306762695313 -5.324187755584717
v -10.109682083129883 -575.996337890625 -5.324187755584717
v -13.398427963256836 -571.0743408203125 -5.324187755584717
v -34.85414123535156 -571.0743408203125 -12.153261184692383
v -38.142913818359375 -575.996337890625 -12.153261184692383
v -34.85414123535156 -571.0743408203125 -5.324187755584717
v -8.954804420471191 -581.8021850585938 -5.324187755584717
v -8.954804420471191 -581.8021850585938 -12.153261184692383
v -10.109682083129883 -575.996337890625 -12.153261184692383
v -8.954804420471191 -581.8021850585938 -5.324187755584717
v -10.109682083129883 -575.996337890625 -12.153261184692383
v -10.109682083129883 -575.996337890625 -5.324187755584717
v -8.954804420471191 -581.8021850585938 -5.324187755584717
v -38.142913818359375 -575.996337890625 -12.153261184692383
v -38.142913818359375 -575.996337890625 -5.324187755584717
v -34.85414123535156 -571.0743408203125 -5.324187755584717
v -38.142913818359375 -575.996337890625 -12.153261184692383
v -39.29776382446289 -581.8021850585938 -12.153261184692383
v -38.142913818359375 -575.996337890625 -5.324187755584717
v -34.85414123535156 -571.0743408203125 -5.324187755584717
v -38.142913818359375 -575.996337890625 -5.324187755584717
v -39.29776382446289 -581.8021850585938 -5.324187755584717
v -24.126298904418945 -596.9736328125 -5.324187755584717
v -8.954804420471191 -581.8021850585938 -12.153261184692383
v -8.954804420471191 -581.8021850585938 -5.324187755584717
v -10.109682083129883 -587.6080322265625 -5.324187755584717
v -10.109682083129883 -587.6080322265625 -12.153261184692383
v -8.954804420471191 -581.8021850585938 -12.153261184692383
v -10.109682083129883 -587.6080322265625 -5.324187755584717
v -39.29776382446289 -581.8021850585938 -12.153261184692383
v -39.29776382446289 -581.8021850585938 -5.324187755584717
v -38.142913818359375 -575.996337890625 -5.324187755584717
v -39.29776382446289 -581.8021850585938 -12.153261184692383
v -38.142913818359375 -587.6080322265625 -12.153261184692383
v -39.29776382446289 -581.8021850585938 -5.324187755584717
v -13.398427963256836 -592.530029296875 -12.153261184692383
v -10.109682083129883 -587.6080322265625 -12.153261184692383
v -13.398427963256836 -592.530029296875 -5.324187755584717
v -10.109682083129883 -587.6080322265625 -12.153261184692383
v -10.109682083129883 -587.6080322265625 -5.324187755584717
v -13.398427963256836 -592.530029296875 -5.324187755584717
v -38.142913818359375 -587.6080322265625 -12.153261184692383
v -38.142913818359375 -587.6080322265625 -5.324187755584717
v -39.29776382446289 -581.8021850585938 -5.324187755584717
v -24.126298904418945 -596.9736328125 -5.324187755584717
v -10.109682083129883 -587.6080322265625 -5.324187755584717
v -8.954804420471191 -581.8021850585938 -5.324187755584717
v -38.142913818359375 -587.6080322265625 -12.153261184692383
v -34.85414123535156 -592.530029296875 -12.153261184692383
v -38.142913818359375 -587.6080322265625 -5.324187755584717
v -38.142913818359375 -587.6080322265625 -5.324187755584717
v -34.85414123535156 -592.530029296875 -5.324187755584717
v -18.32040786743164 -595.8187255859375 -12.153261184692383
v -13.398427963256836 -592.530029296875 -12.153261184692383
v -18.32040786743164 -595.8187255859375 -5.324187755584717
v -13.398427963256836 -592.530029296875 -12.153261184692383
v -13.398427963256836 -592.530029296875 -5.324187755584717
v -18.32040786743164 -595.8187255859375 -5.324187755584717
v -34.85414123535156 -592.530029296875 -12.153261184692383
v -34.85414123535156 -592.530029296875 -5.324187755584717
v -38.142913818359375 -587.6080322265625 -5.324187755584717
v -24.126298904418945 -596.9736328125 -5.324187755584717
v -13.398427963256836 -592.530029296875 -5.324187755584717
v -10.109682083129883 -587.6080322265625 -5.324187755584717
v -34.85414123535156 -592.530029296875 -12.153261184692383
v -29.932161331176758 -595.8187255859375 -12.153261184692383
v -34.85414123535156 -592.530029296875 -5.324187755584717
v -39.29776382446289 -581.8021850585938 -5.324187755584717
v -34.85414123535156 -592.530029296875 -5.324187755584717
v -24.126298904418945 -596.9736328125 -5.324187755584717
v -24.126298904418945 -596.9736328125 -12.153261184692383
v -18.32040786743164 -595.8187255859375 -12.153261184692383
v -24.126298904418945 -596.9736328125 -5.324187755584717
v -29.932161331176758 -595.8187255859375 -12.153261184692383
v -24.126298904418945 -596.9736328125 -12.153261184692383
v -29.932161331176758 -595.8187255859375 -5.324187755584717
v -18.32040786743164 -595.8187255859375 -12.153261184692383
v -18.32040786743164 -595.8187255859375 -5.324187755584717
v -24.126298904418945 -596.9736328125 -5.324187755584717
v -29.932161331176758 -595.8187255859375 -12.153261184692383
v -29.932161331176758 -595.8187255859375 -5.324187755584717
v -34.85414123535156 -592.530029296875 -5.324187755584717
v -24.126298904418945 -596.9736328125 -5.324187755584717
v -18.32040786743164 -595.8187255859375 -5.324187755584717
v -13.398427963256836 -592.530029296875 -5.324187755584717
v -24.126298904418945 -596.9736328125 -12.153261184692383
v -24.126298904418945 -596.9736328125 -5.324187755584717
v -29.932161331176758 -595.8187255859375 -5.324187755584717
v -29.932161331176758 -595.8187255859375 -5.324187755584717
vt 0.10577037930488586 0.0033252835273742676
vt 0.1059892401099205 0.004729926586151123
vt 0.10682794451713562 0.0033097267150878906
vt 0.1059892401099205 0.004729926586151123
vt 0.10577037930488586 0.006131112575531006
vt 0.10704658925533295 0.004712045192718506
vt 0.10514761507511139 0.0021321773529052734
vt 0.10577037930488586 0.0033252835273742676
vt 0.10620569437742233 0.0021186470985412598
vt 0.1059892401099205 0.004729926586151123
vt 0.10704658925533295 0.004712045192718506
vt 0.10682794451713562 0.0033097267150878906
vt 0.10577037930488586 0.0033252835273742676
vt 0.10682794451713562 0.0033097267150878906
vt 0.10620569437742233 0.0021186470985412598
vt 0.10577037930488586 0.006131112575531006
vt 0.10682794451713562 0.006110846996307373
vt 0.10704658925533295 0.004712045192718506
vt 0.10577037930488586 0.006131112575531006
vt 0.10514761507511139 0.007314205169677734
vt 0.10682794451713562 0.006110846996307373
vt 0.10620569437742233 0.0021186470985412598
vt 0.10682794451713562 0.0033097267150878906
vt 0.10704658925533295 0.004712045192718506
vt 0.10421662777662277 0.0013328194618225098
vt 0.10514761507511139 0.0021321773529052734
vt 0.10527554899454117 0.0013206005096435547
vt 0.10514761507511139 0.0021321773529052734
vt 0.10620569437742233 0.0021186470985412598
vt 0.10527554899454117 0.0013206005096435547
vt 0.10704658925533295 0.004712045192718506
vt 0.10682794451713562 0.006110846996307373
vt 0.10620569437742233 0.007291972637176514
vt 0.10514761507511139 0.007314205169677734
vt 0.10620569437742233 0.007291972637176514
vt 0.10682794451713562 0.006110846996307373
vt 0.10704658925533295 0.004712045192718506
vt 0.10527554899454117 0.0013206005096435547
vt 0.10620569437742233 0.0021186470985412598
vt 0.10514761507511139 0.007314205169677734
vt 0.10421662777662277 0.008098721504211426
vt 0.10620569437742233 0.007291972637176514
vt 0.1041799858212471 0.0010365843772888184
vt 0.1031201183795929 0.001048266887664795
vt 0.10421662777662277 0.0013328194618225098
vt 0.1041799858212471 0.0010365843772888184
vt 0.10421662777662277 0.0013328194618225098
vt 0.10527554899454117 0.0013206005096435547
vt 0.1041799858212471 0.0010365843772888184
vt 0.10421662777662277 0.008098721504211426
vt 0.10527554899454117 0.008075177669525146
vt 0.10620569437742233 0.007291972637176514
vt 0.10421662777662277 0.008098721504211426
vt 0.1031201183795929 0.0083656907081604
vt 0.10527554899454117 0.008075177669525146
vt 0.10620569437742233 0.007291972637176514
vt 0.10527554899454117 0.008075177669525146
vt 0.1041799858212471 0.008341729640960693
vt 0.1013256162405014 0.004666328430175781
vt 0.1031201183795929 0.001048266887664795
vt 0.1041799858212471 0.0010365843772888184
vt 0.10308621823787689 0.0013086199760437012
vt 0.10202539712190628 0.0013207793235778809
vt 0.1031201183795929 0.001048266887664795
vt 0.10308621823787689 0.0013086199760437012
vt 0.1031201183795929 0.0083656907081604
vt 0.1041799858212471 0.008341729640960693
vt 0.10527554899454117 0.008075177669525146
vt 0.1031201183795929 0.0083656907081604
vt 0.10202539712190628 0.00807565450668335
vt 0.1041799858212471 0.008341729640960693
vt 0.10109873116016388 0.0021076202392578125
vt 0.10202539712190628 0.0013207793235778809
vt 0.10216036438941956 0.0020941495895385742
vt 0.10202539712190628 0.0013207793235778809
vt 0.10308621823787689 0.0013086199760437012
vt 0.10216036438941956 0.0020941495895385742
vt 0.10202539712190628 0.00807565450668335
vt 0.10308621823787689 0.008052170276641846
vt 0.1041799858212471 0.008341729640960693
vt 0.1013256162405014 0.004666328430175781
vt 0.10308621823787689 0.0013086199760437012
vt 0.1041799858212471 0.0010365843772888184
vt 0.10202539712190628 0.00807565450668335
vt 0.10109873116016388 0.007273972034454346
vt 0.10308621823787689 0.008052170276641846
vt 0.10308621823787689 0.008052170276641846
vt 0.10216036438941956 0.007251858711242676
vt 0.10048028826713562 0.0032885074615478516
vt 0.10109873116016388 0.0021076202392578125
vt 0.10154246538877487 0.0032730698585510254
vt 0.10109873116016388 0.0021076202392578125
vt 0.10216036438941956 0.0020941495895385742
vt 0.10154246538877487 0.0032730698585510254
vt 0.10109873116016388 0.007273972034454346
vt 0.10216036438941956 0.007251858711242676
vt 0.10308621823787689 0.008052170276641846
vt 0.1013256162405014 0.004666328430175781
vt 0.10216036438941956 0.0020941495895385742
vt 0.10308621823787689 0.0013086199760437012
vt 0.10109873116016388 0.007273972034454346
vt 0.10048028826713562 0.006083190441131592
vt 0.10216036438941956 0.007251858711242676
vt 0.1041799858212471 0.008341729640960693
vt 0.10216036438941956 0.007251858711242676
vt 0.1013256162405014 0.004666328430175781
vt 0.10026325285434723 0.004684090614318848
vt 0.10048028826713562 0.0032885074615478516
vt 0.1013256162405014 0.004666328430175781
vt 0.10048028826713562 0.006083190441131592
vt 0.10026325285434723 0.004684090614318848
vt 0.10154246538877487 0.006063103675842285
vt 0.10048028826713562 0.0032885074615478516
vt 0.10154246538877487 0.0032730698585510254
vt 0.1013256162405014 0.004666328430175781
vt 0.10048028826713562 0.006083190441131592
vt 0.10154246538877487 0.006063103675842285
vt 0.10216036438941956 0.007251858711242676
vt 0.1013256162405014 0.004666328430175781
vt 0.10154246538877487 0.0032730698585510254
vt 0.10216036438941956 0.0020941495895385742
vt 0.10026325285434723 0.004684090614318848
vt 0.1013256162405014 0.004666328430175781
vt 0.10154246538877487 0.006063103675842285
vt 0.10154246538877487 0.006063103675842285
vn -0.19508367776870728 -0.9807866215705872 -0
vn -0.19508367776870728 -0.9807866215705872 -0
vn -0.19508367776870728 -0.9807866215705872 -0
vn 0.1950846165418625 -0.9807864427566528 -0
vn 0.1950846165418625 -0.9807864427566528 -0
vn 0.1950846165418625 -0.9807864427566528 -0
vn -0.5555782318115234 -0.8314642310142517 -0
vn -0.5555782318115234 -0.8314642310142517 -0
vn -0.5555782318115234 -0.8314642310142517 -0
vn -0.19508370757102966 -0.9807866215705872 -0
vn -0.19508370757102966 -0.9807866215705872 -0
vn -0.19508370757102966 -0.9807866215705872 -0
vn -0.5555780529975891 -0.8314643502235413 -0
vn -0.5555780529975891 -0.8314643502235413 -0
vn -0.5555780529975891 -0.8314643502235413 -0
vn 0.19508464634418488 -0.9807863831520081 -0
vn 0.19508464634418488 -0.9807863831520081 -0
vn 0.19508464634418488 -0.9807863831520081 -0
vn 0.5555782318115234 -0.8314642310142517 -0
vn 0.5555782318115234 -0.8314642310142517 -0
vn 0.5555782318115234 -0.8314642310142517 -0
vn -0.0000002327920185507537 -0 -1
vn -0.0000002327920185507537 -0 -1
vn -0.0000002327920185507537 -0 -1
vn -0.8314707279205322 -0.5555683970451355 -0
vn -0.8314707279205322 -0.5555683970451355 -0
vn -0.8314707279205322 -0.5555683970451355 -0
vn -0.8314707279205322 -0.5555685758590698 -0
vn -0.8314707279205322 -0.5555685758590698 -0
vn -0.8314707279205322 -0.5555685758590698 -0
vn 0.00000011639947672392736 -0 -1
vn 0.00000011639947672392736 -0 -1
vn 0.00000011639947672392736 -0 -1
vn 0.5555780529975891 -0.8314643502235413 -0
vn 0.5555780529975891 -0.8314643502235413 -0
vn 0.5555780529975891 -0.8314643502235413 -0
vn 0 -0 -1
vn 0 -0 -1
vn 0 -0 -1
vn 0.8314685225486755 -0.5555718541145325 -0
vn 0.8314685225486755 -0.5555718541145325 -0
vn 0.8314685225486755 -0.5555718541145325 -0
vn 0 -0 -1
vn -0.9807846546173096 -0.1950935274362564 -0
vn -0.9807846546173096 -0.1950935274362564 -0
vn -0.9807846546173096 -0.1950935274362564 -0
vn -0.9807846546173096 -0.19509357213974 -0
vn -0.9807846546173096 -0.19509357213974 -0
vn -0.9807846546173096 -0.19509357213974 -0
vn 0.8314686417579651 -0.5555717945098877 -0
vn 0.8314686417579651 -0.5555717945098877 -0
vn 0.8314686417579651 -0.5555717945098877 -0
vn 0.980785608291626 -0.19508878886699677 -0
vn 0.980785608291626 -0.19508878886699677 -0
vn 0.980785608291626 -0.19508878886699677 -0
vn 0 -0 -1
vn 0 -0 -1
vn 0 -0 -1
vn 0 -0 -1
vn -0.9807846546173096 0.19509357213974 -0
vn -0.9807846546173096 0.19509357213974 -0
vn -0.9807846546173096 0.19509357213974 -0
vn -0.9807846546173096 0.1950935274362564 -0
vn -0.9807846546173096 0.1950935274362564 -0
vn -0.9807846546173096 0.1950935274362564 -0
vn 0.9807853698730469 -0.19509001076221466 -0
vn 0.9807853698730469 -0.19509001076221466 -0
vn 0.9807853698730469 -0.19509001076221466 -0
vn 0.9807853698730469 0.19508996605873108 -0
vn 0.9807853698730469 0.19508996605873108 -0
vn 0.9807853698730469 0.19508996605873108 -0
vn -0.8314707279205322 0.5555686950683594 -0
vn -0.8314707279205322 0.5555686950683594 -0
vn -0.8314707279205322 0.5555686950683594 -0
vn -0.8314709067344666 0.5555683970451355 -0
vn -0.8314709067344666 0.5555683970451355 -0
vn -0.8314709067344666 0.5555683970451355 -0
vn 0.9807856678962708 0.19508881866931915 -0
vn 0.9807856678962708 0.19508881866931915 -0
vn 0.9807856678962708 0.19508881866931915 -0
vn -0.00000008848480348433441 -0 -1
vn -0.00000008848480348433441 -0 -1
vn -0.00000008848480348433441 -0 -1
vn 0.8314685225486755 0.5555718541145325 -0
vn 0.8314685225486755 0.5555718541145325 -0
vn 0.8314685225486755 0.5555718541145325 -0
vn 0 -0 -1
vn 0 -0 -1
vn -0.5555652976036072 0.8314728140830994 -0
vn -0.5555652976036072 0.8314728140830994 -0
vn -0.5555652976036072 0.8314728140830994 -0
vn -0.5555651783943176 0.8314728736877441 -0
vn -0.5555651783943176 0.8314728736877441 -0
vn -0.5555651783943176 0.8314728736877441 -0
vn 0.8314686417579651 0.5555717945098877 -0
vn 0.8314686417579651 0.5555717945098877 -0
vn 0.8314686417579651 0.5555717945098877 -0
vn -0.00000008174978205488515 -0 -0.9999999403953552
vn -0.00000008174978205488515 -0 -0.9999999403953552
vn -0.00000008174978205488515 -0 -0.9999999403953552
vn 0.5555652976036072 0.8314728140830994 -0
vn 0.5555652976036072 0.8314728140830994 -0
vn 0.5555652976036072 0.8314728140830994 -0
vn 0.00000013097563567043835 -0 -1
vn 0.00000013097563567043835 -0 -1
vn 0.00000013097563567043835 -0 -1
vn -0.19509264826774597 0.9807848334312439 -0
vn -0.19509264826774597 0.9807848334312439 -0
vn -0.19509264826774597 0.9807848334312439 -0
vn 0.19509360194206238 0.9807846546173096 -0
vn 0.19509360194206238 0.9807846546173096 -0
vn 0.19509360194206238 0.9807846546173096 -0
vn -0.19509267807006836 0.9807848334312439 -0
vn -0.19509267807006836 0.9807848334312439 -0
vn -0.19509267807006836 0.9807848334312439 -0
vn 0.5555651783943176 0.8314728736877441 -0
vn 0.5555651783943176 0.8314728736877441 -0
vn 0.5555651783943176 0.8314728736877441 -0
vn 0.000000058204939534789446 -0 -1
vn 0.000000058204939534789446 -0 -1
vn 0.000000058204939534789446 -0 -1
vn 0.19509363174438477 0.9807846546173096 -0
vn 0.19509363174438477 0.9807846546173096 -0
vn 0.19509363174438477 0.9807846546173096 -0
vn 0 -0 -1
f 3/3/3 2/2/2 1/1/1
f 6/6/6 5/5/5 4/4/4
f 9/9/9 8/8/8 7/7/7
f 12/12/12 11/11/11 10/10/10
f 15/15/15 14/14/14 13/13/13
f 18/18/18 17/17/17 16/16/16
f 21/21/21 20/20/20 19/19/19
f 24/24/24 23/23/23 22/22/22
f 27/27/27 26/26/26 25/25/25
f 30/30/30 29/29/29 28/28/28
f 33/33/33 32/32/32 31/31/31
f 36/36/36 35/35/35 34/34/34
f 39/39/39 38/38/38 37/37/37
f 42/42/42 41/41/41 40/40/40
f 38/38/38 43/43/43 37/37/37
f 46/46/46 45/45/45 44/44/44
f 49/49/49 48/48/48 47/47/47
f 52/52/52 51/51/51 50/50/50
f 55/55/55 54/54/54 53/53/53
f 58/58/58 57/57/57 56/56/56
f 56/56/56 37/37/37 59/59/59
f 62/62/62 61/61/61 60/60/60
f 65/65/65 64/64/64 63/63/63
f 68/68/68 67/67/67 66/66/66
f 37/37/37 43/43/43 59/59/59
f 71/71/71 70/70/70 69/69/69
f 58/58/58 56/56/56 59/59/59
f 74/74/74 73/73/73 72/72/72
f 77/77/77 76/76/76 75/75/75
f 80/80/80 79/79/79 78/78/78
f 83/83/83 82/82/82 81/81/81
f 86/86/86 85/85/85 84/84/84
f 88/88/88 87/87/87 58/58/58
f 91/91/91 90/90/90 89/89/89
f 94/94/94 93/93/93 92/92/92
f 97/97/97 96/96/96 95/95/95
f 100/100/100 99/99/99 98/98/98
f 103/103/103 102/102/102 101/101/101
f 106/106/106 105/105/105 104/104/104
f 109/109/109 108/108/108 107/107/107
f 112/112/112 111/111/111 110/110/110
f 115/115/115 114/114/114 113/113/113
f 118/118/118 117/117/117 116/116/116
f 121/121/121 120/120/120 119/119/119
f 124/124/124 123/123/123 122/122/122
f 59/59/59 125/125/125 88/88/88
