# VPXTOOL table OBJ file
# VPXTOOL OBJ file
# numVerts: 93 numFaces: 93
o LM_GI_gi20_swL2
v 2406.845947265625 -27384.091796875 -28485.365234375
v -211.94097900390625 -5156.91943359375 -34845.51171875
v 2021.2559814453125 10298.48828125 -42271.36328125
v -2571.74560546875 7738.1494140625 -40651.3046875
v 457.48095703125 9405.9443359375 -36906.875
v -211.94097900390625 -5156.91943359375 -34845.51171875
v -211.94097900390625 -5156.91943359375 -34845.51171875
v 457.48095703125 9405.9443359375 -36906.875
v 2021.2559814453125 10298.48828125 -42271.36328125
v -211.94097900390625 -5156.91943359375 -34845.51171875
v -2023.7154541015625 -13566.5126953125 -37737.98828125
v -2571.74560546875 7738.1494140625 -40651.3046875
v 2406.845947265625 -27384.091796875 -28485.365234375
v 2021.2559814453125 10298.48828125 -42271.36328125
v 929.53515625 -29094.9140625 -32221.11328125
v 458.9792785644531 23665.130859375 -35122.46875
v 457.48095703125 9405.9443359375 -36906.875
v -2571.74560546875 7738.1494140625 -40651.3046875
v 2021.2559814453125 10298.48828125 -42271.36328125
v 915.52734375 -5077.64990234375 -40925.41796875
v 929.53515625 -29094.9140625 -32221.11328125
v -2023.7154541015625 -13566.5126953125 -37737.98828125
v 915.52734375 -5077.64990234375 -40925.41796875
v -2571.74560546875 7738.1494140625 -40651.3046875
v 2021.2559814453125 10298.48828125 -42271.36328125
v 457.48095703125 9405.9443359375 -36906.875
v 2410.33740234375 31765.392578125 -34928.140625
v 915.52734375 -5077.64990234375 -40925.41796875
v 2021.2559814453125 10298.48828125 -42271.36328125
v -2571.74560546875 7738.1494140625 -40651.3046875
v -2135.38232421875 30667.6640625 -38229.87890625
v -2571.74560546875 7738.1494140625 -40651.3046875
v 2021.2559814453125 10298.48828125 -42271.36328125
v -2135.38232421875 30667.6640625 -38229.87890625
v -1378.4644775390625 36018.17578125 -31906.025390625
v -2571.74560546875 7738.1494140625 -40651.3046875
v 2410.33740234375 31765.392578125 -34928.140625
v 923.7256469726563 32973.2890625 -38873.1171875
v 2021.2559814453125 10298.48828125 -42271.36328125
v 923.7256469726563 32973.2890625 -38873.1171875
v -2135.38232421875 30667.6640625 -38229.87890625
v 2021.2559814453125 10298.48828125 -42271.36328125
v 2410.33740234375 31765.392578125 -34928.140625
v 2439.314208984375 61828.953125 -21033.76171875
v 923.7256469726563 32973.2890625 -38873.1171875
v -1378.4644775390625 36018.17578125 -31906.025390625
v -2135.38232421875 30667.6640625 -38229.87890625
v -2553.32763671875 64436.6171875 -17882.58984375
v -368.3312072753906 55915.78125 -27271.51171875
v -2135.38232421875 30667.6640625 -38229.87890625
v 923.7256469726563 32973.2890625 -38873.1171875
v 2410.33740234375 31765.392578125 -34928.140625
v 464.60504150390625 52255.53515625 -22685.673828125
v 2439.314208984375 61828.953125 -21033.76171875
v -368.3312072753906 55915.78125 -27271.51171875
v -2553.32763671875 64436.6171875 -17882.58984375
v -2135.38232421875 30667.6640625 -38229.87890625
v -368.3312072753906 55915.78125 -27271.51171875
v 923.7256469726563 32973.2890625 -38873.1171875
v 2439.314208984375 61828.953125 -21033.76171875
v 464.60504150390625 52255.53515625 -22685.673828125
v 467.0221252441406 63427.8515625 -13491.783203125
v 2439.314208984375 61828.953125 -21033.76171875
v -368.3312072753906 55915.78125 -27271.51171875
v 2439.314208984375 61828.953125 -21033.76171875
v 927.5138549804688 67904.90625 -16966.35546875
v 927.5138549804688 67904.90625 -16966.35546875
v -2553.32763671875 64436.6171875 -17882.58984375
v -368.3312072753906 55915.78125 -27271.51171875
v 467.0221252441406 63427.8515625 -13491.783203125
v -218.55618286132813 71979.9296875 -1921.71533203125
v 2439.314208984375 61828.953125 -21033.76171875
v 175.0908966064453 77888.40625 -3870.31689453125
v 927.5138549804688 67904.90625 -16966.35546875
v 2439.314208984375 61828.953125 -21033.76171875
v 175.0908966064453 77888.40625 -3870.31689453125
v -2553.32763671875 64436.6171875 -17882.58984375
v 927.5138549804688 67904.90625 -16966.35546875
v 175.0908966064453 77888.40625 -3870.31689453125
v 2439.314208984375 61828.953125 -21033.76171875
v 2056.409912109375 80082.390625 12494.8486328125
v -2522.329345703125 81608.4140625 11980.7744140625
v -2553.32763671875 64436.6171875 -17882.58984375
v 175.0908966064453 77888.40625 -3870.31689453125
v 2056.409912109375 80082.390625 12494.8486328125
v 72.21598052978516 84807.6875 10904.263671875
v 175.0908966064453 77888.40625 -3870.31689453125
v 72.21598052978516 84807.6875 10904.263671875
v -2522.329345703125 81608.4140625 11980.7744140625
v 175.0908966064453 77888.40625 -3870.31689453125
v -2522.329345703125 81608.4140625 11980.7744140625
v 72.21598052978516 84807.6875 10904.263671875
v 2056.409912109375 80082.390625 12494.8486328125
vt 0.7664511799812317 0.08201700448989868
vt 0.7652506232261658 0.08275055885314941
vt 0.765094518661499 0.08316898345947266
vt 0.7643460035324097 0.08322346210479736
vt 0.7651007771492004 0.08335238695144653
vt 0.7652506232261658 0.08275055885314941
vt 0.7652506232261658 0.08275055885314941
vt 0.7651007771492004 0.08335238695144653
vt 0.765094518661499 0.08316898345947266
vt 0.7652506232261658 0.08275055885314941
vt 0.7649253606796265 0.08230233192443848
vt 0.7643460035324097 0.08322346210479736
vt 0.7664511799812317 0.08201700448989868
vt 0.765094518661499 0.08316898345947266
vt 0.7660073637962341 0.08182477951049805
vt 0.7649144530296326 0.08410513401031494
vt 0.7651007771492004 0.08335238695144653
vt 0.7643460035324097 0.08322346210479736
vt 0.765094518661499 0.08316898345947266
vt 0.7653678059577942 0.08253127336502075
vt 0.7660073637962341 0.08182477951049805
vt 0.7649253606796265 0.08230233192443848
vt 0.7653678059577942 0.08253127336502075
vt 0.7643460035324097 0.08322346210479736
vt 0.765094518661499 0.08316898345947266
vt 0.7651007771492004 0.08335238695144653
vt 0.7653331160545349 0.08454042673110962
vt 0.7653678059577942 0.08253127336502075
vt 0.765094518661499 0.08316898345947266
vt 0.7643460035324097 0.08322346210479736
vt 0.7642306685447693 0.08434885740280151
vt 0.7643460035324097 0.08322346210479736
vt 0.765094518661499 0.08316898345947266
vt 0.7642306685447693 0.08434885740280151
vt 0.7643917798995972 0.08484405279159546
vt 0.7643460035324097 0.08322346210479736
vt 0.7653331160545349 0.08454042673110962
vt 0.7648345232009888 0.08441495895385742
vt 0.765094518661499 0.08316898345947266
vt 0.7648345232009888 0.08441495895385742
vt 0.7642306685447693 0.08434885740280151
vt 0.765094518661499 0.08316898345947266
vt 0.7653331160545349 0.08454042673110962
vt 0.7653473019599915 0.08652865886688232
vt 0.7648345232009888 0.08441495895385742
vt 0.7643917798995972 0.08484405279159546
vt 0.7642306685447693 0.08434885740280151
vt 0.7641774415969849 0.08683818578720093
vt 0.7644913196563721 0.08597123622894287
vt 0.7642306685447693 0.08434885740280151
vt 0.7648345232009888 0.08441495895385742
vt 0.7653331160545349 0.08454042673110962
vt 0.7647995352745056 0.08599650859832764
vt 0.7653473019599915 0.08652865886688232
vt 0.7644913196563721 0.08597123622894287
vt 0.7641774415969849 0.08683818578720093
vt 0.7642306685447693 0.08434885740280151
vt 0.7644913196563721 0.08597123622894287
vt 0.7648345232009888 0.08441495895385742
vt 0.7653473019599915 0.08652865886688232
vt 0.7647995352745056 0.08599650859832764
vt 0.7648808360099792 0.08692264556884766
vt 0.7653473019599915 0.08652865886688232
vt 0.7644913196563721 0.08597123622894287
vt 0.7653473019599915 0.08652865886688232
vt 0.7648598551750183 0.08696901798248291
vt 0.7648598551750183 0.08696901798248291
vt 0.7641774415969849 0.08683818578720093
vt 0.7644913196563721 0.08597123622894287
vt 0.7648808360099792 0.08692264556884766
vt 0.764965832233429 0.08785063028335571
vt 0.7653473019599915 0.08652865886688232
vt 0.7648411989212036 0.08794790506362915
vt 0.7648598551750183 0.08696901798248291
vt 0.7653473019599915 0.08652865886688232
vt 0.7648411989212036 0.08794790506362915
vt 0.7641774415969849 0.08683818578720093
vt 0.7648598551750183 0.08696901798248291
vt 0.7648411989212036 0.08794790506362915
vt 0.7653473019599915 0.08652865886688232
vt 0.7656208872795105 0.0888216495513916
vt 0.764649510383606 0.0888562798500061
vt 0.7641774415969849 0.08683818578720093
vt 0.7648411989212036 0.08794790506362915
vt 0.7656208872795105 0.0888216495513916
vt 0.765172004699707 0.08894842863082886
vt 0.7648411989212036 0.08794790506362915
vt 0.765172004699707 0.08894842863082886
vt 0.764649510383606 0.0888562798500061
vt 0.7648411989212036 0.08794790506362915
vt 0.764649510383606 0.0888562798500061
vt 0.765172004699707 0.08894842863082886
vt 0.7656208872795105 0.0888216495513916
vn 0.38472285866737366 0.15512356162071228 0.9099038243293762
vn 0.40282806754112244 0.135162353515625 0.9052407145500183
vn 0.766524612903595 0.4233107566833496 0.4829576313495636
vn -0.9164791107177734 -0.053997233510017395 0.3964218497276306
vn -0.629869818687439 0.06661616265773773 0.7738386392593384
vn -0.9107676148414612 -0.06058318167924881 0.4084506630897522
vn 0.8565368056297302 -0.07912616431713104 0.5099839568138123
vn 0.8581691384315491 -0.08074095845222473 0.5069777965545654
vn 0.9938316941261292 -0.05998340994119644 -0.09327583760023117
vn -0.7782025933265686 0.19427764415740967 0.5972076058387756
vn -0.9859123229980469 -0.11445846408605576 0.12196794152259827
vn -0.9779719114303589 0.1784864068031311 0.10822904109954834
vn 0.9963756203651428 0.041022948920726776 -0.07451687753200531
vn 0.9984970092773438 -0.005605064332485199 -0.05451801419258118
vn 0.8054262399673462 -0.31597983837127686 -0.5014432668685913
vn -0.5697675943374634 -0.08341935276985168 0.8175610303878784
vn -0.5880008339881897 0.0239212978631258 0.8085064888000488
vn -0.9057477116584778 0.009924739599227905 0.42370110750198364
vn 0.9669927358627319 0.22182448208332062 -0.12537536025047302
vn 0.8654059767723083 -0.269380122423172 -0.4225008189678192
vn 0.8616107702255249 -0.21946686506271362 -0.45766931772232056
vn -0.6966952085494995 -0.29635384678840637 -0.6532918214797974
vn -0.281713604927063 -0.051795706152915955 -0.9580996036529541
vn -0.6726975440979004 0.11889931559562683 -0.730302095413208
vn 0.9963090419769287 0.03751726448535919 -0.07720637321472168
vn 0.856972336769104 -0.10651350766420364 0.5042353272438049
vn 0.9788661599159241 0.19828788936138153 0.050030842423439026
vn -0.11960949748754501 -0.2908279001712799 -0.9492696523666382
vn -0.044935762882232666 0.09399355947971344 -0.9945581555366516
vn -0.5713405609130859 -0.05248598754405975 -0.8190330862998962
vn -0.5432369709014893 0.3096786439418793 -0.7803798317909241
vn -0.6058103442192078 -0.04570675641298294 -0.794295072555542
vn -0.0895976573228836 0.08249954879283905 -0.9925553798675537
vn -0.9662875533103943 -0.01210237666964531 -0.25718098878860474
vn -0.9374618530273438 -0.05619104951620102 0.3435230255126953
vn -0.9441382884979248 -0.14138460159301758 0.297680139541626
vn 0.9936963319778442 0.1118842214345932 0.007030695676803589
vn 0.8190276026725769 0.13890966773033142 -0.5566847324371338
vn 0.8230687379837036 0.05555862933397293 -0.5652176141738892
vn -0.05061742663383484 0.29221323132514954 -0.9550127387046814
vn -0.5608958005905151 0.09220030158758163 -0.8227362632751465
vn -0.11688552051782608 -0.11339818686246872 -0.9866502285003662
vn 0.996788501739502 0.07507987320423126 -0.027855373919010162
vn 0.998589038848877 0.02436266839504242 -0.04718540608882904
vn 0.8030222058296204 0.12658953666687012 -0.5823490619659424
vn -0.8580616116523743 -0.18101687729358673 0.4805864691734314
vn -0.9919425249099731 -0.07231436669826508 -0.10402306914329529
vn -0.9748876690864563 0.1860247254371643 0.12242920696735382
vn -0.5896569490432739 0.5426084399223328 -0.5982311964035034
vn -0.6790021657943726 0.21963991224765778 -0.7005099058151245
vn -0.1851089894771576 0.4026244580745697 -0.8964529633522034
vn 0.6383844017982483 -0.4739929139614105 0.6064620018005371
vn 0.642409086227417 -0.4805644452571869 0.5969660878181458
vn 0.9151601791381836 0.05531429126858711 0.39927735924720764
vn -0.6922261714935303 0.24371469020843506 -0.6792834997177124
vn -0.9438207149505615 0.3093240559101105 -0.11627951264381409
vn -0.7664223313331604 0.06835834681987762 -0.6386891007423401
vn 0.43552297353744507 0.39301544427871704 -0.8098509311676025
vn 0.5184679627418518 0.21490146219730377 -0.8276523351669312
vn 0.8022862672805786 0.428611695766449 -0.41548627614974976
vn 0.8007773756980896 -0.45225903391838074 0.39270520210266113
vn 0.7931357026100159 -0.41675084829330444 0.444133460521698
vn 0.9795964360237122 -0.18365226686000824 -0.08162533491849899
vn 0.1845139116048813 0.4557623863220215 -0.8707669973373413
vn 0.6064782738685608 0.5749540328979492 -0.5491921305656433
vn 0.4951125383377075 0.7084649801254272 -0.5029321908950806
vn -0.2026033103466034 0.7808787822723389 -0.590914785861969
vn -0.6824023723602295 0.4901914596557617 -0.5422540903091431
vn -0.27052003145217896 0.46875807642936707 -0.8408833742141724
vn 0.742975115776062 -0.44382157921791077 0.5010093450546265
vn 0.7381724119186401 -0.5180702805519104 0.4320935010910034
vn 0.7682507038116455 -0.633367121219635 0.09293486922979355
vn 0.7496982216835022 0.6052790880203247 -0.2675626873970032
vn 0.7501294016838074 0.6105920672416687 -0.25393539667129517
vn 0.8091281056404114 0.22812965512275696 -0.5415427684783936
vn -0.6381380558013916 0.7201136946678162 -0.27242663502693176
vn -0.7235931158065796 0.4476059079170227 -0.5254160165786743
vn -0.2526426315307617 0.7323898077011108 -0.6322791576385498
vn 0.805174708366394 0.5629658102989197 -0.1864490956068039
vn 0.9974119067192078 0.002332627773284912 -0.07186098396778107
vn 0.7975823879241943 0.19814443588256836 0.5697379112243652
vn -0.7936305999755859 0.3572995066642761 0.4924301505088806
vn -0.9675742387771606 0.14278094470500946 -0.20835955440998077
vn -0.6676168441772461 0.6891402006149292 -0.28173303604125977
vn 0.7459427714347839 -0.012789011001586914 0.6658873558044434
vn 0.5950075387954712 0.7161546945571899 0.3648128807544708
vn 0.9065783023834229 0.3813369870185852 -0.18082602322101593
vn -0.4540249705314636 0.8376992344856262 0.3035149872303009
vn -0.7828320264816284 0.19240066409111023 0.5917398929595947
vn -0.7487499713897705 0.5936757922172546 -0.294826477766037
vn -0.7670855522155762 0.010545462369918823 0.6414581537246704
vn 0.09135514497756958 0.953480064868927 0.28728049993515015
vn 0.5895910859107971 -0.2919546961784363 0.7530902028083801
f 3/3/3 2/2/2 1/1/1
f 6/6/6 5/5/5 4/4/4
f 9/9/9 8/8/8 7/7/7
f 12/12/12 11/11/11 10/10/10
f 15/15/15 14/14/14 13/13/13
f 18/18/18 17/17/17 16/16/16
f 21/21/21 20/20/20 19/19/19
f 24/24/24 23/23/23 22/22/22
f 27/27/27 26/26/26 25/25/25
f 30/30/30 29/29/29 28/28/28
f 33/33/33 32/32/32 31/31/31
f 36/36/36 35/35/35 34/34/34
f 39/39/39 38/38/38 37/37/37
f 42/42/42 41/41/41 40/40/40
f 45/45/45 44/44/44 43/43/43
f 48/48/48 47/47/47 46/46/46
f 51/51/51 50/50/50 49/49/49
f 54/54/54 53/53/53 52/52/52
f 57/57/57 56/56/56 55/55/55
f 60/60/60 59/59/59 58/58/58
f 63/63/63 62/62/62 61/61/61
f 66/66/66 65/65/65 64/64/64
f 69/69/69 68/68/68 67/67/67
f 72/72/72 71/71/71 70/70/70
f 75/75/75 74/74/74 73/73/73
f 78/78/78 77/77/77 76/76/76
f 81/81/81 80/80/80 79/79/79
f 84/84/84 83/83/83 82/82/82
f 87/87/87 86/86/86 85/85/85
f 90/90/90 89/89/89 88/88/88
f 93/93/93 92/92/92 91/91/91
