# VPXTOOL table OBJ file
# VPXTOOL OBJ file
# numVerts: 124 numFaces: 138
o LM_L_LW6_UnderPF
v -11.306495666503906 44.36451721191406 -12.23087215423584
v -20.3317813873291 46.1597785949707 -12.23087215423584
v -11.306495666503906 44.36451721191406 -6.426159381866455
v -20.3317813873291 46.1597785949707 -12.23087215423584
v -29.357040405273438 44.36451721191406 -12.23087215423584
v -20.3317813873291 46.1597785949707 -6.426159381866455
v -20.3317813873291 46.1597785949707 -12.23087215423584
v -20.3317813873291 46.1597785949707 -6.426159381866455
v -11.306495666503906 44.36451721191406 -6.426159381866455
v -3.65523624420166 39.25215530395508 -12.23087215423584
v -11.306495666503906 44.36451721191406 -12.23087215423584
v -3.65523624420166 39.25215530395508 -6.426159381866455
v -11.306495666503906 44.36451721191406 -12.23087215423584
v -11.306495666503906 44.36451721191406 -6.426159381866455
v -3.65523624420166 39.25215530395508 -6.426159381866455
v -29.357040405273438 44.36451721191406 -12.23087215423584
v -29.357040405273438 44.36451721191406 -6.426159381866455
v -20.3317813873291 46.1597785949707 -6.426159381866455
v -29.357040405273438 44.36451721191406 -12.23087215423584
v -37.00830078125 39.25215530395508 -12.23087215423584
v -29.357040405273438 44.36451721191406 -6.426159381866455
v -3.65523624420166 39.25215530395508 -12.23087215423584
v -3.65523624420166 39.25215530395508 -6.426159381866455
v 1.457180380821228 31.60089683532715 -6.426159381866455
v 1.457180380821228 31.60089683532715 -12.23087215423584
v -3.65523624420166 39.25215530395508 -12.23087215423584
v 1.457180380821228 31.60089683532715 -6.426159381866455
v -37.00830078125 39.25215530395508 -12.23087215423584
v -37.00830078125 39.25215530395508 -6.426159381866455
v -29.357040405273438 44.36451721191406 -6.426159381866455
v 3.2524147033691406 22.5755558013916 -6.426159381866455
v -11.306495666503906 44.36451721191406 -6.426159381866455
v -20.3317813873291 46.1597785949707 -6.426159381866455
v 3.2524147033691406 22.5755558013916 -6.426159381866455
v -3.65523624420166 39.25215530395508 -6.426159381866455
v -11.306495666503906 44.36451721191406 -6.426159381866455
v -37.00830078125 39.25215530395508 -12.23087215423584
v -42.1207160949707 31.60089683532715 -12.23087215423584
v -37.00830078125 39.25215530395508 -6.426159381866455
v -43.915950775146484 22.5755558013916 -6.426159381866455
v -20.3317813873291 46.1597785949707 -6.426159381866455
v -29.357040405273438 44.36451721191406 -6.426159381866455
v 1.457180380821228 31.60089683532715 -6.426159381866455
v -3.65523624420166 39.25215530395508 -6.426159381866455
v 1.457180380821228 31.60089683532715 -12.23087215423584
v 1.457180380821228 31.60089683532715 -6.426159381866455
v 3.2524147033691406 22.5755558013916 -6.426159381866455
v 3.2524147033691406 22.5755558013916 -12.23087215423584
v -42.1207160949707 31.60089683532715 -12.23087215423584
v -42.1207160949707 31.60089683532715 -6.426159381866455
v -37.00830078125 39.25215530395508 -6.426159381866455
v -43.915950775146484 22.5755558013916 -6.426159381866455
v -29.357040405273438 44.36451721191406 -6.426159381866455
v -37.00830078125 39.25215530395508 -6.426159381866455
v -42.1207160949707 31.60089683532715 -12.23087215423584
v -43.915950775146484 22.5755558013916 -12.23087215423584
v -42.1207160949707 31.60089683532715 -6.426159381866455
v -37.00830078125 39.25215530395508 -6.426159381866455
v -42.1207160949707 31.60089683532715 -6.426159381866455
v -43.915950775146484 22.5755558013916 -6.426159381866455
v 3.2524147033691406 22.5755558013916 -12.23087215423584
v 3.2524147033691406 22.5755558013916 -6.426159381866455
v 1.457180380821228 13.550325393676758 -6.426159381866455
v 1.457180380821228 13.550325393676758 -12.23087215423584
v -20.3317813873291 -1.0085580348968506 -6.426159381866455
v -43.915950775146484 22.5755558013916 -12.23087215423584
v -43.915950775146484 22.5755558013916 -6.426159381866455
v -42.1207160949707 31.60089683532715 -6.426159381866455
v -43.915950775146484 22.5755558013916 -12.23087215423584
v -42.1207160949707 13.550325393676758 -12.23087215423584
v -43.915950775146484 22.5755558013916 -6.426159381866455
v -3.65523624420166 5.8990654945373535 -6.426159381866455
v 1.457180380821228 13.550325393676758 -6.426159381866455
v 3.2524147033691406 22.5755558013916 -6.426159381866455
v 1.457180380821228 13.550325393676758 -12.23087215423584
v 1.457180380821228 13.550325393676758 -6.426159381866455
v -3.65523624420166 5.8990654945373535 -6.426159381866455
v -3.65523624420166 5.8990654945373535 -12.23087215423584
v 1.457180380821228 13.550325393676758 -12.23087215423584
v -3.65523624420166 5.8990654945373535 -6.426159381866455
v -42.1207160949707 13.550325393676758 -12.23087215423584
v -42.1207160949707 13.550325393676758 -6.426159381866455
v -43.915950775146484 22.5755558013916 -6.426159381866455
v -11.306495666503906 0.7867040038108826 -6.426159381866455
v -3.65523624420166 5.8990654945373535 -6.426159381866455
v -42.1207160949707 13.550325393676758 -12.23087215423584
v -37.00830078125 5.8990654945373535 -12.23087215423584
v -42.1207160949707 13.550325393676758 -6.426159381866455
v -42.1207160949707 13.550325393676758 -6.426159381866455
v -37.00830078125 5.8990654945373535 -6.426159381866455
v 3.2524147033691406 22.5755558013916 -6.426159381866455
v -20.3317813873291 -1.0085580348968506 -6.426159381866455
v -11.306495666503906 0.7867040038108826 -6.426159381866455
v -3.65523624420166 5.8990654945373535 -12.23087215423584
v -3.65523624420166 5.8990654945373535 -6.426159381866455
v -11.306495666503906 0.7867040038108826 -6.426159381866455
v -11.306495666503906 0.7867040038108826 -12.23087215423584
v -3.65523624420166 5.8990654945373535 -12.23087215423584
v -11.306495666503906 0.7867040038108826 -6.426159381866455
v -37.00830078125 5.8990654945373535 -12.23087215423584
v -37.00830078125 5.8990654945373535 -6.426159381866455
v -42.1207160949707 13.550325393676758 -6.426159381866455
v -29.357040405273438 0.7867040038108826 -6.426159381866455
v -37.00830078125 5.8990654945373535 -12.23087215423584
v -29.357040405273438 0.7867040038108826 -12.23087215423584
v -37.00830078125 5.8990654945373535 -6.426159381866455
v -43.915950775146484 22.5755558013916 -6.426159381866455
v -29.357040405273438 0.7867040038108826 -6.426159381866455
v -20.3317813873291 -1.0085580348968506 -6.426159381866455
v -20.3317813873291 -1.0085580348968506 -12.23087215423584
v -11.306495666503906 0.7867040038108826 -12.23087215423584
v -20.3317813873291 -1.0085580348968506 -6.426159381866455
v -11.306495666503906 0.7867040038108826 -12.23087215423584
v -11.306495666503906 0.7867040038108826 -6.426159381866455
v -20.3317813873291 -1.0085580348968506 -6.426159381866455
v -29.357040405273438 0.7867040038108826 -12.23087215423584
v -20.3317813873291 -1.0085580348968506 -12.23087215423584
v -29.357040405273438 0.7867040038108826 -6.426159381866455
v -29.357040405273438 0.7867040038108826 -12.23087215423584
v -29.357040405273438 0.7867040038108826 -6.426159381866455
v -37.00830078125 5.8990654945373535 -6.426159381866455
v -20.3317813873291 -1.0085580348968506 -12.23087215423584
v -20.3317813873291 -1.0085580348968506 -6.426159381866455
v -29.357040405273438 0.7867040038108826 -6.426159381866455
vt 0.6491855382919312 0.3605075478553772
vt 0.6497856974601746 0.36289846897125244
vt 0.6503430008888245 0.36049455404281616
vt 0.6497856974601746 0.36289846897125244
vt 0.6491855382919312 0.36528337001800537
vt 0.6509425044059753 0.36288172006607056
vt 0.6497856974601746 0.36289846897125244
vt 0.6509425044059753 0.36288172006607056
vt 0.6503430008888245 0.36049455404281616
vt 0.6474784016609192 0.3584781885147095
vt 0.6491855382919312 0.3605075478553772
vt 0.648637592792511 0.35846835374832153
vt 0.6491855382919312 0.3605075478553772
vt 0.6503430008888245 0.36049455404281616
vt 0.648637592792511 0.35846835374832153
vt 0.6491855382919312 0.36528337001800537
vt 0.6503430008888245 0.3652629852294922
vt 0.6509425044059753 0.36288172006607056
vt 0.6491855382919312 0.36528337001800537
vt 0.6474784016609192 0.3672957420349121
vt 0.6503430008888245 0.3652629852294922
vt 0.6474784016609192 0.3584781885147095
vt 0.648637592792511 0.35846835374832153
vt 0.6460903286933899 0.3571130633354187
vt 0.6449285745620728 0.3571207523345947
vt 0.6474784016609192 0.3584781885147095
vt 0.6460903286933899 0.3571130633354187
vt 0.6474784016609192 0.3672957420349121
vt 0.648637592792511 0.36727219820022583
vt 0.6503430008888245 0.3652629852294922
vt 0.6430932879447937 0.3566335439682007
vt 0.6503430008888245 0.36049455404281616
vt 0.6509425044059753 0.36288172006607056
vt 0.6430932879447937 0.3566335439682007
vt 0.648637592792511 0.35846835374832153
vt 0.6503430008888245 0.36049455404281616
vt 0.6474784016609192 0.3672957420349121
vt 0.6449285745620728 0.3686278462409973
vt 0.648637592792511 0.36727219820022583
vt 0.6430932879447937 0.369051992893219
vt 0.6509425044059753 0.36288172006607056
vt 0.6503430008888245 0.3652629852294922
vt 0.6460903286933899 0.3571130633354187
vt 0.648637592792511 0.35846835374832153
vt 0.6449285745620728 0.3571207523345947
vt 0.6460903286933899 0.3571130633354187
vt 0.6430932879447937 0.3566335439682007
vt 0.641928493976593 0.35664045810699463
vt 0.6449285745620728 0.3686278462409973
vt 0.6460903286933899 0.36860227584838867
vt 0.648637592792511 0.36727219820022583
vt 0.6430932879447937 0.369051992893219
vt 0.6503430008888245 0.3652629852294922
vt 0.648637592792511 0.36727219820022583
vt 0.6449285745620728 0.3686278462409973
vt 0.641928493976593 0.36907821893692017
vt 0.6460903286933899 0.36860227584838867
vt 0.648637592792511 0.36727219820022583
vt 0.6460903286933899 0.36860227584838867
vt 0.6430932879447937 0.369051992893219
vt 0.641928493976593 0.35664045810699463
vt 0.6430932879447937 0.3566335439682007
vt 0.6401046514511108 0.3570992946624756
vt 0.6389368176460266 0.35710692405700684
vt 0.6353010535240173 0.3628040552139282
vt 0.641928493976593 0.36907821893692017
vt 0.6430932879447937 0.369051992893219
vt 0.6460903286933899 0.36860227584838867
vt 0.641928493976593 0.36907821893692017
vt 0.6389368176460266 0.36858195066452026
vt 0.6430932879447937 0.369051992893219
vt 0.6375775337219238 0.35843604803085327
vt 0.6401046514511108 0.3570992946624756
vt 0.6430932879447937 0.3566335439682007
vt 0.6389368176460266 0.35710692405700684
vt 0.6401046514511108 0.3570992946624756
vt 0.6375775337219238 0.35843604803085327
vt 0.6364071369171143 0.35844576358795166
vt 0.6389368176460266 0.35710692405700684
vt 0.6375775337219238 0.35843604803085327
vt 0.6389368176460266 0.36858195066452026
vt 0.6401046514511108 0.36855655908584595
vt 0.6430932879447937 0.369051992893219
vt 0.6358922719955444 0.36043882369995117
vt 0.6375775337219238 0.35843604803085327
vt 0.6389368176460266 0.36858195066452026
vt 0.6364071369171143 0.3672179579734802
vt 0.6401046514511108 0.36855655908584595
vt 0.6401046514511108 0.36855655908584595
vt 0.6375775337219238 0.3671947121620178
vt 0.6430932879447937 0.3566335439682007
vt 0.6353010535240173 0.3628040552139282
vt 0.6358922719955444 0.36043882369995117
vt 0.6364071369171143 0.35844576358795166
vt 0.6375775337219238 0.35843604803085327
vt 0.6358922719955444 0.36043882369995117
vt 0.6347201466560364 0.3604515790939331
vt 0.6364071369171143 0.35844576358795166
vt 0.6358922719955444 0.36043882369995117
vt 0.6364071369171143 0.3672179579734802
vt 0.6375775337219238 0.3671947121620178
vt 0.6401046514511108 0.36855655908584595
vt 0.6358922719955444 0.3651752471923828
vt 0.6364071369171143 0.3672179579734802
vt 0.6347201466560364 0.3651953339576721
vt 0.6375775337219238 0.3671947121620178
vt 0.6430932879447937 0.369051992893219
vt 0.6358922719955444 0.3651752471923828
vt 0.6353010535240173 0.3628040552139282
vt 0.6341283917427063 0.362820565700531
vt 0.6347201466560364 0.3604515790939331
vt 0.6353010535240173 0.3628040552139282
vt 0.6347201466560364 0.3604515790939331
vt 0.6358922719955444 0.36043882369995117
vt 0.6353010535240173 0.3628040552139282
vt 0.6347201466560364 0.3651953339576721
vt 0.6341283917427063 0.362820565700531
vt 0.6358922719955444 0.3651752471923828
vt 0.6347201466560364 0.3651953339576721
vt 0.6358922719955444 0.3651752471923828
vt 0.6375775337219238 0.3671947121620178
vt 0.6341283917427063 0.362820565700531
vt 0.6353010535240173 0.3628040552139282
vt 0.6358922719955444 0.3651752471923828
vn -0.19509252905845642 -0.9807848334312439 -0
vn -0.19509252905845642 -0.9807848334312439 -0
vn -0.19509252905845642 -0.9807848334312439 -0
vn 0.19509312510490417 -0.9807847738265991 -0
vn 0.19509312510490417 -0.9807847738265991 -0
vn 0.19509312510490417 -0.9807847738265991 -0
vn -0.19509249925613403 -0.9807848334312439 -0
vn -0.19509249925613403 -0.9807848334312439 -0
vn -0.19509249925613403 -0.9807848334312439 -0
vn -0.5555667281150818 -0.8314719200134277 -0
vn -0.5555667281150818 -0.8314719200134277 -0
vn -0.5555667281150818 -0.8314719200134277 -0
vn -0.5555666089057922 -0.8314719796180725 -0
vn -0.5555666089057922 -0.8314719796180725 -0
vn -0.5555666089057922 -0.8314719796180725 -0
vn 0.19509318470954895 -0.9807847738265991 -0
vn 0.19509318470954895 -0.9807847738265991 -0
vn 0.19509318470954895 -0.9807847738265991 -0
vn 0.5555665493011475 -0.8314719796180725 -0
vn 0.5555665493011475 -0.8314719796180725 -0
vn 0.5555665493011475 -0.8314719796180725 -0
vn -0.8314691185951233 -0.5555708408355713 -0
vn -0.8314691185951233 -0.5555708408355713 -0
vn -0.8314691185951233 -0.5555708408355713 -0
vn -0.8314691781997681 -0.5555707812309265 -0
vn -0.8314691781997681 -0.5555707812309265 -0
vn -0.8314691781997681 -0.5555707812309265 -0
vn 0.5555664896965027 -0.8314720988273621 -0
vn 0.5555664896965027 -0.8314720988273621 -0
vn 0.5555664896965027 -0.8314720988273621 -0
vn 0 -0 -1
vn 0 -0 -1
vn 0 -0 -1
vn 0 -0 -0.9999999403953552
vn 0 -0 -0.9999999403953552
vn 0 -0 -0.9999999403953552
vn 0.8314692378044128 -0.5555707216262817 -0
vn 0.8314692378044128 -0.5555707216262817 -0
vn 0.8314692378044128 -0.5555707216262817 -0
vn 0 -0 -0.9999999403953552
vn 0 -0 -0.9999999403953552
vn 0 -0 -0.9999999403953552
vn 0 -0 -1
vn 0 -0 -1
vn -0.9807856678962708 -0.1950884908437729 -0
vn -0.9807856678962708 -0.1950884908437729 -0
vn -0.9807856678962708 -0.1950884908437729 -0
vn -0.9807856678962708 -0.1950884908437729 -0
vn 0.8314692378044128 -0.5555707812309265 -0
vn 0.8314692378044128 -0.5555707812309265 -0
vn 0.8314692378044128 -0.5555707812309265 -0
vn 0 -0 -1
vn 0 -0 -1
vn 0 -0 -1
vn 0.9807856678962708 -0.195088192820549 -0
vn 0.9807856678962708 -0.195088192820549 -0
vn 0.9807856678962708 -0.195088192820549 -0
vn 0.00000019267525885879877 -0 -1
vn 0.00000019267525885879877 -0 -1
vn 0.00000019267525885879877 -0 -1
vn -0.9807851910591125 0.19509077072143555 -0
vn -0.9807851910591125 0.19509077072143555 -0
vn -0.9807851910591125 0.19509077072143555 -0
vn -0.9807851910591125 0.19509077072143555 -0
vn 0 -0 -1
vn 0.9807855486869812 -0.19508911669254303 -0
vn 0.9807855486869812 -0.19508911669254303 -0
vn 0.9807855486869812 -0.19508911669254303 -0
vn 0.980785071849823 0.1950913816690445 -0
vn 0.980785071849823 0.1950913816690445 -0
vn 0.980785071849823 0.1950913816690445 -0
vn -0.000000192678740518204 -0 -0.9999999403953552
vn -0.000000192678740518204 -0 -0.9999999403953552
vn -0.000000192678740518204 -0 -0.9999999403953552
vn -0.8314691185951233 0.5555708408355713 -0
vn -0.8314691185951233 0.5555708408355713 -0
vn -0.8314691185951233 0.5555708408355713 -0
vn -0.8314691781997681 0.5555707812309265 -0
vn -0.8314691781997681 0.5555707812309265 -0
vn -0.8314691781997681 0.5555707812309265 -0
vn 0.9807853102684021 0.19509050250053406 -0
vn 0.9807853102684021 0.19509050250053406 -0
vn 0.9807853102684021 0.19509050250053406 -0
vn 0 -0 -1
vn 0 -0 -1
vn 0.8314692378044128 0.5555707216262817 -0
vn 0.8314692378044128 0.5555707216262817 -0
vn 0.8314692378044128 0.5555707216262817 -0
vn 0 -0 -1
vn 0 -0 -1
vn 0.0000001464690910779609 -0 -1
vn 0.0000001464690910779609 -0 -1
vn 0.0000001464690910779609 -0 -1
vn -0.555566668510437 0.8314720392227173 -0
vn -0.555566668510437 0.8314720392227173 -0
vn -0.555566668510437 0.8314720392227173 -0
vn -0.5555667281150818 0.8314719796180725 -0
vn -0.5555667281150818 0.8314719796180725 -0
vn -0.5555667281150818 0.8314719796180725 -0
vn 0.8314692378044128 0.5555707812309265 -0
vn 0.8314692378044128 0.5555707812309265 -0
vn 0.8314692378044128 0.5555707812309265 -0
vn 0 -0 -1
vn 0.5555665493011475 0.8314719796180725 -0
vn 0.5555665493011475 0.8314719796180725 -0
vn 0.5555665493011475 0.8314719796180725 -0
vn -0.0000001464695600361665 -0 -1
vn -0.0000001464695600361665 -0 -1
vn -0.0000001464695600361665 -0 -1
vn -0.19509252905845642 0.9807848334312439 -0
vn -0.19509252905845642 0.9807848334312439 -0
vn -0.19509252905845642 0.9807848334312439 -0
vn -0.19509249925613403 0.9807848334312439 -0
vn -0.19509249925613403 0.9807848334312439 -0
vn -0.19509249925613403 0.9807848334312439 -0
vn 0.19509321451187134 0.9807847738265991 -0
vn 0.19509321451187134 0.9807847738265991 -0
vn 0.19509321451187134 0.9807847738265991 -0
vn 0.5555664896965027 0.8314720988273621 -0
vn 0.5555664896965027 0.8314720988273621 -0
vn 0.5555664896965027 0.8314720988273621 -0
vn 0.1950930953025818 0.9807847738265991 -0
vn 0.1950930953025818 0.9807847738265991 -0
vn 0.1950930953025818 0.9807847738265991 -0
f 3/3/3 2/2/2 1/1/1
f 6/6/6 5/5/5 4/4/4
f 9/9/9 8/8/8 7/7/7
f 12/12/12 11/11/11 10/10/10
f 15/15/15 14/14/14 13/13/13
f 18/18/18 17/17/17 16/16/16
f 21/21/21 20/20/20 19/19/19
f 24/24/24 23/23/23 22/22/22
f 27/27/27 26/26/26 25/25/25
f 30/30/30 29/29/29 28/28/28
f 33/33/33 32/32/32 31/31/31
f 36/36/36 35/35/35 34/34/34
f 39/39/39 38/38/38 37/37/37
f 42/42/42 41/41/41 40/40/40
f 44/44/44 43/43/43 31/31/31
f 47/47/47 46/46/46 45/45/45
f 47/47/47 45/45/45 48/48/48
f 51/51/51 50/50/50 49/49/49
f 54/54/54 53/53/53 52/52/52
f 57/57/57 56/56/56 55/55/55
f 60/60/60 59/59/59 58/58/58
f 63/63/63 62/62/62 61/61/61
f 63/63/63 61/61/61 64/64/64
f 33/33/33 31/31/31 65/65/65
f 68/68/68 67/67/67 66/66/66
f 65/65/65 52/52/52 33/33/33
f 71/71/71 70/70/70 69/69/69
f 74/74/74 73/73/73 72/72/72
f 77/77/77 76/76/76 75/75/75
f 80/80/80 79/79/79 78/78/78
f 83/83/83 82/82/82 81/81/81
f 85/85/85 84/84/84 31/31/31
f 88/88/88 87/87/87 86/86/86
f 90/90/90 89/89/89 52/52/52
f 93/93/93 92/92/92 91/91/91
f 96/96/96 95/95/95 94/94/94
f 99/99/99 98/98/98 97/97/97
f 102/102/102 101/101/101 100/100/100
f 103/103/103 90/90/90 52/52/52
f 106/106/106 105/105/105 104/104/104
f 109/109/109 108/108/108 107/107/107
f 112/112/112 111/111/111 110/110/110
f 115/115/115 114/114/114 113/113/113
f 118/118/118 117/117/117 116/116/116
f 121/121/121 120/120/120 119/119/119
f 124/124/124 123/123/123 122/122/122
