# VPXTOOL table OBJ file
# VPXTOOL OBJ file
# numVerts: 68 numFaces: 156
o BM_TMet2
v 24.39874267578125 -0.14124009013175964 -65.61187744140625
v -23.77172088623047 -0.14135052263736725 -65.61187744140625
v 24.39871597290039 -22.37374496459961 -65.61187744140625
v 24.39874267578125 -0.14124009013175964 -65.61187744140625
v 24.39871597290039 -22.37374496459961 -65.61187744140625
v 24.39872932434082 -14.962946891784668 -44.30571365356445
v -23.77169418334961 -22.37380027770996 -65.61187744140625
v 24.39874267578125 -0.14124009013175964 -65.61187744140625
v 24.3986873626709 -9.404779434204102 -11.883298873901367
v -23.77172088623047 -0.14135052263736725 -65.61187744140625
v -23.77172088623047 -0.14135052263736725 -65.61187744140625
v -23.77170753479004 -14.962946891784668 -44.30571365356445
v -23.77169418334961 -22.37380027770996 -65.61187744140625
v 14.208833694458008 -14.96300220489502 -44.30571365356445
v 24.39871597290039 -22.37374496459961 -65.61187744140625
v -23.77169418334961 -22.37380027770996 -65.61187744140625
v 16.987890243530273 -14.962946891784668 -44.30571365356445
v 24.39872932434082 -14.962946891784668 -44.30571365356445
v 24.3986873626709 -9.404779434204102 -11.883298873901367
v -23.77170753479004 -14.962946891784668 -44.30571365356445
v -23.77172088623047 -9.404834747314453 -11.883296966552734
v -23.77172088623047 -9.404834747314453 -11.883296966552734
v 24.39872932434082 -14.962946891784668 15.907317161560059
v 24.3986873626709 -9.404779434204102 4.791092395782471
v -23.77170753479004 -14.962946891784668 15.907379150390625
v -23.77172088623047 -9.404834747314453 4.791096210479736
v 24.39870262145996 -9.404834747314453 15.907344818115234
v 24.3986873626709 -9.404779434204102 -11.883298873901367
v -23.77172088623047 -9.404834747314453 4.791096210479736
v -23.77172088623047 -9.404834747314453 -11.883296966552734
v 24.39872932434082 -14.962946891784668 15.907317161560059
v 24.3986873626709 -9.404779434204102 4.791092395782471
v 6.797994136810303 -9.404779434204102 4.7910943031311035
v -5.244642734527588 -9.404779434204102 4.7910943031311035
v -23.77172088623047 -9.404834747314453 15.9073486328125
v 24.39871597290039 -3.846611499786377 14.054645538330078
v -23.77170753479004 -14.962946891784668 15.907379150390625
v 24.39871597290039 -3.846611499786377 15.907344818115234
v 24.39871597290039 -3.846611499786377 14.054645538330078
v 6.797994136810303 -3.846611499786377 14.054647445678711
v 24.39871597290039 -3.846611499786377 15.907344818115234
v 6.797994136810303 -3.846611499786377 15.907346725463867
v 6.797994136810303 -9.404779434204102 15.907346725463867
v -5.24462890625 -3.846721887588501 14.054647445678711
v 6.797994136810303 -9.404779434204102 15.907346725463867
v 6.797994136810303 -9.404779434204102 4.7910943031311035
v 6.797994136810303 -3.846611499786377 14.054647445678711
v 6.797994136810303 -3.846611499786377 15.907346725463867
v 24.39871597290039 -3.846611499786377 15.907344818115234
v 6.797994136810303 -9.404779434204102 15.907346725463867
v -23.77172088623047 -3.846611499786377 14.054649353027344
v 6.797994136810303 -3.846611499786377 15.907346725463867
v -5.24462890625 -3.846721887588501 14.054647445678711
v -5.244642734527588 -9.404779434204102 4.7910943031311035
v -5.244642734527588 -9.404779434204102 15.907346725463867
v 24.39870262145996 -9.404834747314453 15.907344818115234
v -5.24462890625 -3.846721887588501 15.907346725463867
v -5.244642734527588 -9.404779434204102 15.907346725463867
v -5.24462890625 -3.846721887588501 15.907346725463867
v -23.77172088623047 -3.846611499786377 15.9073486328125
v -23.77172088623047 -3.846611499786377 14.054649353027344
v -5.24462890625 -3.846721887588501 15.907346725463867
v -5.244642734527588 -9.404779434204102 15.907346725463867
v -23.77172088623047 -3.846611499786377 15.9073486328125
v 24.39872932434082 -14.962946891784668 15.907317161560059
v -23.77172088623047 -3.846611499786377 15.9073486328125
v -23.77172088623047 -9.404834747314453 15.9073486328125
v -23.77170753479004 -14.962946891784668 15.907379150390625
vt 0.5842882990837097 0.07011449337005615
vt 0.5842882990837097 0.06264668703079224
vt 0.5889816880226135 0.07011449337005615
vt 0.9714726209640503 0.47818779945373535
vt 0.9790647625923157 0.47818779945373535
vt 0.9765340685844421 0.4835308790206909
vt 0.5889816880226135 0.06264668703079224
vt 0.5429523587226868 0.3148975968360901
vt 0.5429523587226868 0.3492777347564697
vt 0.5897364616394043 0.3148975968360901
vt 0.9762651324272156 0.15141361951828003
vt 0.9714113473892212 0.1568596363067627
vt 0.9686760306358337 0.15157121419906616
vt 0.9476032257080078 0.6261317729949951
vt 0.9497543573379517 0.6295800805091858
vt 0.9395854473114014 0.6295800805091858
vt 0.948189914226532 0.6261317729949951
vt 0.9497543573379517 0.6261317729949951
vt 0.9746360182762146 0.49166178703308105
vt 0.9395854473114014 0.6261317729949951
vt 0.9736215472221375 0.16494786739349365
vt 0.5897364616394043 0.3492777347564697
vt 0.9497543573379517 0.616927444934845
vt 0.9746360182762146 0.49584341049194336
vt 0.9395854473114014 0.616927444934845
vt 0.973782479763031 0.16912782192230225
vt 0.9746360182762146 0.4986311197280884
vt 0.4084727466106415 0.9996241927146912
vt 0.40496644377708435 0.9921563863754272
vt 0.4084727466106415 0.9921563863754272
vt 0.9765340685844421 0.4986311197280884
vt 0.40496644377708435 0.9996241927146912
vt 0.40496644377708435 0.9968956112861633
vt 0.40496644377708435 0.9950286149978638
vt 0.9738897681236267 0.17191439867019653
vt 0.40291497111320496 0.9996241927146912
vt 0.9719924926757813 0.17195379734039307
vt 0.9727379679679871 0.4986311197280884
vt 0.9727379679679871 0.49816644191741943
vt 0.40291497111320496 0.9968956112861633
vt 0.4025254249572754 0.9996241927146912
vt 0.4025254249572754 0.9968956112861633
vt 0.40262892842292786 0.9968956112861633
vt 0.40291497111320496 0.9950286149978638
vt 0.08605276048183441 0.35509365797042847
vt 0.08605276048183441 0.35681700706481934
vt 0.08487942069768906 0.3553808927536011
vt 0.4831526279449463 0.42138975858688354
vt 0.4831526279449463 0.42411839962005615
vt 0.48197928071022034 0.42138975858688354
vt 0.40291497111320496 0.9921563863754272
vt 0.08487942069768906 0.35509365797042847
vt 0.07561832666397095 0.2846207618713379
vt 0.074444979429245 0.28605687618255615
vt 0.074444979429245 0.2843335270881653
vt 0.48197928071022034 0.42411839962005615
vt 0.4025254249572754 0.9950286149978638
vt 0.40262892842292786 0.9950286149978638
vt 0.07561832666397095 0.2843335270881653
vt 0.4025254249572754 0.9921563863754272
vt 0.9757691621780396 0.17141056060791016
vt 0.4831526279449463 0.419522762298584
vt 0.48197928071022034 0.419522762298584
vt 0.4831526279449463 0.41665059328079224
vt 0.4808059334754944 0.42411839962005615
vt 0.9757870435714722 0.171875
vt 0.48197928071022034 0.41665059328079224
vt 0.4808059334754944 0.41665059328079224
vn 0.5688958168029785 0.6289976239204407 -0.5298296809196472
vn -0.5688947439193726 0.6290263533592224 -0.529796838760376
vn 0.5617688298225403 -0.674251914024353 -0.4793747663497925
vn 0.5688958168029785 0.6289976239204407 -0.5298296809196472
vn 0.5617688298225403 -0.674251914024353 -0.4793747663497925
vn 0.7465888261795044 -0.655989408493042 0.11082875728607178
vn -0.5617479681968689 -0.674272358417511 -0.47937044501304626
vn 0.5688958168029785 0.6289976239204407 -0.5298296809196472
vn 0.7268083691596985 0.6843389272689819 0.058565039187669754
vn -0.5688947439193726 0.6290263533592224 -0.529796838760376
vn -0.5688947439193726 0.6290263533592224 -0.529796838760376
vn -0.746589183807373 -0.6559890508651733 0.11082851141691208
vn -0.5617479681968689 -0.674272358417511 -0.47937044501304626
vn 0.000007793300937919412 -0.9860268235206604 0.16658653318881989
vn 0.5617688298225403 -0.674251914024353 -0.4793747663497925
vn -0.5617479681968689 -0.674272358417511 -0.47937044501304626
vn 0.000011015406926162541 -0.9860264658927917 0.16658836603164673
vn 0.7465888261795044 -0.655989408493042 0.11082875728607178
vn 0.7268083691596985 0.6843389272689819 0.058565039187669754
vn -0.746589183807373 -0.6559890508651733 0.11082851141691208
vn -0.7268126606941223 0.6843346357345581 0.05856213718652725
vn -0.7268126606941223 0.6843346357345581 0.05856213718652725
vn 0.5773683190345764 -0.5773566961288452 0.5773257613182068
vn 0.7723990678787231 0.6120918393135071 -0.16953794658184052
vn -0.5773578882217407 -0.577360212802887 0.5773327946662903
vn -0.7724205851554871 0.612064778804779 -0.169538214802742
vn 0.7071079611778259 -0.0000005885509040126635 0.7071055769920349
vn 0.7268083691596985 0.6843389272689819 0.058565039187669754
vn -0.7724205851554871 0.612064778804779 -0.169538214802742
vn -0.7268126606941223 0.6843346357345581 0.05856213718652725
vn 0.5773683190345764 -0.5773566961288452 0.5773257613182068
vn 0.7723990678787231 0.6120918393135071 -0.16953794658184052
vn -0.0880630612373352 0.9873712658882141 -0.13169196248054504
vn 0.08805834501981735 0.9873719215393066 -0.13169066607952118
vn -0.7071008086204529 0.0000012790510481863748 0.7071127891540527
vn 0.6516691446304321 0.7309808135032654 -0.20247071981430054
vn -0.5773578882217407 -0.577360212802887 0.5773327946662903
vn 0.577349066734314 0.5773653388023376 0.5773363709449768
vn 0.6516691446304321 0.7309808135032654 -0.20247071981430054
vn -0.6516634225845337 0.7309854626655579 -0.20247232913970947
vn 0.577349066734314 0.5773653388023376 0.5773363709449768
vn -0.5773482322692871 0.5773541927337646 0.5773482918739319
vn -0.30149999260902405 0.3015291392803192 0.9045318961143494
vn 0.6516680717468262 0.7309821844100952 -0.20246931910514832
vn -0.30149999260902405 0.3015291392803192 0.9045318961143494
vn -0.0880630612373352 0.9873712658882141 -0.13169196248054504
vn -0.6516634225845337 0.7309854626655579 -0.20247232913970947
vn -0.5773482322692871 0.5773541927337646 0.5773482918739319
vn 0.577349066734314 0.5773653388023376 0.5773363709449768
vn -0.30149999260902405 0.3015291392803192 0.9045318961143494
vn -0.6516587734222412 0.7309892773628235 -0.20247367024421692
vn -0.5773482322692871 0.5773541927337646 0.5773482918739319
vn 0.6516680717468262 0.7309821844100952 -0.20246931910514832
vn 0.08805834501981735 0.9873719215393066 -0.13169066607952118
vn 0.3015054166316986 0.30152061581611633 0.9045329093933105
vn 0.7071079611778259 -0.0000005885509040126635 0.7071055769920349
vn 0.5773504972457886 0.5773521065711975 0.5773481726646423
vn 0.3015054166316986 0.30152061581611633 0.9045329093933105
vn 0.5773504972457886 0.5773521065711975 0.5773481726646423
vn -0.5773581862449646 0.5773616433143616 0.577331006526947
vn -0.6516587734222412 0.7309892773628235 -0.20247367024421692
vn 0.5773504972457886 0.5773521065711975 0.5773481726646423
vn 0.3015054166316986 0.30152061581611633 0.9045329093933105
vn -0.5773581862449646 0.5773616433143616 0.577331006526947
vn 0.5773683190345764 -0.5773566961288452 0.5773257613182068
vn -0.5773581862449646 0.5773616433143616 0.577331006526947
vn -0.7071008086204529 0.0000012790510481863748 0.7071127891540527
vn -0.5773578882217407 -0.577360212802887 0.5773327946662903
f 3/3/3 2/2/2 1/1/1
f 6/6/6 5/5/5 4/4/4
f 3/3/3 7/7/7 2/2/2
f 10/10/10 9/9/9 8/8/8
f 13/13/13 12/12/12 11/11/11
f 16/16/16 15/15/15 14/14/14
f 15/15/15 18/18/18 17/17/17
f 14/14/14 15/15/15 17/17/17
f 6/6/6 4/4/4 19/19/19
f 14/14/14 20/20/20 16/16/16
f 12/12/12 21/21/21 11/11/11
f 10/10/10 22/22/22 9/9/9
f 18/18/18 23/23/23 17/17/17
f 17/17/17 23/23/23 14/14/14
f 6/6/6 19/19/19 24/24/24
f 25/25/25 20/20/20 14/14/14
f 12/12/12 26/26/26 21/21/21
f 6/6/6 24/24/24 27/27/27
f 30/30/30 29/29/29 28/28/28
f 27/27/27 31/31/31 6/6/6
f 33/33/33 32/32/32 28/28/28
f 34/34/34 33/33/33 28/28/28
f 12/12/12 35/35/35 26/26/26
f 29/29/29 34/34/34 28/28/28
f 23/23/23 25/25/25 14/14/14
f 33/33/33 36/36/36 32/32/32
f 35/35/35 12/12/12 37/37/37
f 24/24/24 39/39/39 38/38/38
f 33/33/33 40/40/40 36/36/36
f 24/24/24 38/38/38 27/27/27
f 42/42/42 41/41/41 36/36/36
f 42/42/42 36/36/36 40/40/40
f 34/34/34 43/43/43 33/33/33
f 29/29/29 44/44/44 34/34/34
f 47/47/47 46/46/46 45/45/45
f 50/50/50 49/49/49 48/48/48
f 29/29/29 51/51/51 44/44/44
f 45/45/45 52/52/52 47/47/47
f 55/55/55 54/54/54 53/53/53
f 50/50/50 56/56/56 49/49/49
f 51/51/51 57/57/57 44/44/44
f 34/34/34 58/58/58 43/43/43
f 53/53/53 59/59/59 55/55/55
f 51/51/51 60/60/60 57/57/57
f 35/35/35 61/61/61 26/26/26
f 64/64/64 63/63/63 62/62/62
f 65/65/65 56/56/56 50/50/50
f 35/35/35 66/66/66 61/61/61
f 50/50/50 63/63/63 65/65/65
f 64/64/64 67/67/67 63/63/63
f 68/68/68 65/65/65 63/63/63
f 63/63/63 67/67/67 68/68/68
