# VPXTOOL table OBJ file
# VPXTOOL OBJ file
# numVerts: 94 numFaces: 96
o LM_GI_gi02_UnderPF
v -370.34515380859375 756.5330810546875 -8.083456993103027
v -370.34515380859375 756.5330810546875 -12.789339065551758
v -374.3017883300781 758.2637329101563 -12.789339065551758
v -367.7029113769531 753.092529296875 -8.083457946777344
v -367.7029113769531 753.092529296875 -12.78934097290039
v -370.34515380859375 756.5330810546875 -12.789339065551758
v -374.3017883300781 758.2637329101563 -8.083456039428711
v -370.34515380859375 756.5330810546875 -8.083456993103027
v -374.3017883300781 758.2637329101563 -12.789339065551758
v -370.34515380859375 756.5330810546875 -8.083456993103027
v -367.7029113769531 753.092529296875 -8.083457946777344
v -370.34515380859375 756.5330810546875 -12.789339065551758
v -374.3017883300781 758.2637329101563 -8.083456039428711
v -374.3017883300781 758.2637329101563 -12.789339065551758
v -406.2428283691406 758.2698974609375 -12.789339065551758
v -367.0911865234375 748.8238525390625 -8.083457946777344
v -367.0911865234375 748.8238525390625 -12.78934097290039
v -367.7029113769531 753.092529296875 -12.78934097290039
v -367.7029113769531 753.092529296875 -8.083457946777344
v -367.0911865234375 748.8238525390625 -8.083457946777344
v -370.34515380859375 756.5330810546875 -8.083456993103027
v -374.3017883300781 758.2637329101563 -8.083456039428711
v -367.0911865234375 748.8238525390625 -8.083457946777344
v -367.7029113769531 753.092529296875 -8.083457946777344
v -370.34515380859375 756.5330810546875 -8.083456993103027
v -406.2428283691406 758.2698974609375 -8.083456039428711
v -374.3017883300781 758.2637329101563 -8.083456039428711
v -406.2428283691406 758.2698974609375 -12.789339065551758
v -367.0911865234375 748.8238525390625 -8.083457946777344
v -374.3017883300781 758.2637329101563 -8.083456039428711
v -413.45709228515625 748.832763671875 -8.083457946777344
v -406.2428283691406 758.2698974609375 -12.789339065551758
v -410.20013427734375 756.5408325195313 -12.789339065551758
v -410.20013427734375 756.5408325195313 -8.083456993103027
v -406.2428283691406 758.2698974609375 -8.083456039428711
v -406.2428283691406 758.2698974609375 -12.789339065551758
v -410.20013427734375 756.5408325195313 -8.083456993103027
v -413.45709228515625 748.832763671875 -8.083457946777344
v -374.3017883300781 758.2637329101563 -8.083456039428711
v -406.2428283691406 758.2698974609375 -8.083456039428711
v -410.20013427734375 756.5408325195313 -12.789339065551758
v -412.84368896484375 753.1012573242188 -12.78934097290039
v -412.84368896484375 753.1012573242188 -8.083457946777344
v -410.20013427734375 756.5408325195313 -8.083456993103027
v -410.20013427734375 756.5408325195313 -12.789339065551758
v -412.84368896484375 753.1012573242188 -8.083457946777344
v -412.84368896484375 753.1012573242188 -8.083457946777344
v -412.84368896484375 753.1012573242188 -12.78934097290039
v -413.45709228515625 748.832763671875 -12.78934097290039
v -413.45709228515625 748.832763671875 -8.083457946777344
v -406.2428283691406 758.2698974609375 -8.083456039428711
v -410.20013427734375 756.5408325195313 -8.083456993103027
v -410.20013427734375 756.5408325195313 -8.083456993103027
v -412.84368896484375 753.1012573242188 -8.083457946777344
v -413.45709228515625 748.832763671875 -8.083457946777344
v -413.45709228515625 748.832763671875 -8.083457946777344
v -412.84368896484375 753.1012573242188 -8.083457946777344
v -413.45709228515625 748.832763671875 -12.78934097290039
v -367.0911865234375 748.8238525390625 -8.083457946777344
v -382.2414855957031 670.2278442382813 -8.083455085754395
v -367.0911865234375 748.8238525390625 -12.78934097290039
v -367.0911865234375 748.8238525390625 -8.083457946777344
v -413.45709228515625 748.832763671875 -8.083457946777344
v -398.337158203125 670.2310791015625 -8.083455085754395
v -413.45709228515625 748.832763671875 -8.083457946777344
v -413.45709228515625 748.832763671875 -12.78934097290039
v -398.337158203125 670.2310791015625 -12.789337158203125
v -382.2414855957031 670.2278442382813 -8.083455085754395
v -382.2414855957031 670.2278442382813 -12.789337158203125
v -367.0911865234375 748.8238525390625 -12.78934097290039
v -398.337158203125 670.2310791015625 -8.083455085754395
v -382.2414855957031 670.2278442382813 -8.083455085754395
v -367.0911865234375 748.8238525390625 -8.083457946777344
v -398.337158203125 670.2310791015625 -8.083455085754395
v -413.45709228515625 748.832763671875 -8.083457946777344
v -398.337158203125 670.2310791015625 -12.789337158203125
v -383.98577880859375 667.0904541015625 -12.789337158203125
v -382.2414855957031 670.2278442382813 -12.789337158203125
v -382.2414855957031 670.2278442382813 -8.083455085754395
v -383.98577880859375 667.0904541015625 -8.083455085754395
v -383.98577880859375 667.0904541015625 -12.789337158203125
v -382.2414855957031 670.2278442382813 -8.083455085754395
v -398.337158203125 670.2310791015625 -8.083455085754395
v -398.337158203125 670.2310791015625 -12.789337158203125
v -396.59405517578125 667.0928955078125 -12.789337158203125
v -398.337158203125 670.2310791015625 -8.083455085754395
v -383.98577880859375 667.0904541015625 -8.083455085754395
v -382.2414855957031 670.2278442382813 -8.083455085754395
v -396.59405517578125 667.0928955078125 -8.083455085754395
v -398.337158203125 670.2310791015625 -8.083455085754395
v -396.59405517578125 667.0928955078125 -12.789337158203125
v -396.59405517578125 667.0928955078125 -8.083455085754395
v -383.98577880859375 667.0904541015625 -8.083455085754395
v -398.337158203125 670.2310791015625 -8.083455085754395
vt 0.7447091937065125 0.9990556240081787
vt 0.7445301413536072 0.998610258102417
vt 0.7432509660720825 0.9990933537483215
vt 0.7456114888191223 0.9980971217155457
vt 0.7454338073730469 0.997650682926178
vt 0.7445301413536072 0.998610258102417
vt 0.7434319257736206 0.9995381832122803
vt 0.7447091937065125 0.9990556240081787
vt 0.7432509660720825 0.9990933537483215
vt 0.7447091937065125 0.9990556240081787
vt 0.7456114888191223 0.9980971217155457
vt 0.7445301413536072 0.998610258102417
vt 0.7434319257736206 0.9995381832122803
vt 0.7432509660720825 0.9990933537483215
vt 0.7332322001457214 0.99909508228302
vt 0.7458956241607666 0.9969095587730408
vt 0.7457184791564941 0.9964617490768433
vt 0.7454338073730469 0.997650682926178
vt 0.7456114888191223 0.9980971217155457
vt 0.7458956241607666 0.9969095587730408
vt 0.7447091937065125 0.9990556240081787
vt 0.7434319257736206 0.9995381832122803
vt 0.7458956241607666 0.9969095587730408
vt 0.7456114888191223 0.9980971217155457
vt 0.7447091937065125 0.9990556240081787
vt 0.7334274053573608 0.9995399117469788
vt 0.7434319257736206 0.9995381832122803
vt 0.7332322001457214 0.99909508228302
vt 0.7458956241607666 0.9969095587730408
vt 0.7434319257736206 0.9995381832122803
vt 0.7313967943191528 0.9969120621681213
vt 0.7332322001457214 0.99909508228302
vt 0.7320327758789063 0.9986124038696289
vt 0.7322295904159546 0.9990577697753906
vt 0.7334274053573608 0.9995399117469788
vt 0.7332322001457214 0.99909508228302
vt 0.7322295904159546 0.9990577697753906
vt 0.7313967943191528 0.9969120621681213
vt 0.7434319257736206 0.9995381832122803
vt 0.7334274053573608 0.9995399117469788
vt 0.7320327758789063 0.9986124038696289
vt 0.7312874794006348 0.9976531267166138
vt 0.7314852476119995 0.9980995655059814
vt 0.7322295904159546 0.9990577697753906
vt 0.7320327758789063 0.9986124038696289
vt 0.7314852476119995 0.9980995655059814
vt 0.7314852476119995 0.9980995655059814
vt 0.7312874794006348 0.9976531267166138
vt 0.7311990261077881 0.9964642524719238
vt 0.7313967943191528 0.9969120621681213
vt 0.7334274053573608 0.9995399117469788
vt 0.7322295904159546 0.9990577697753906
vt 0.7322295904159546 0.9990577697753906
vt 0.7314852476119995 0.9980995655059814
vt 0.7313967943191528 0.9969120621681213
vt 0.7313967943191528 0.9969120621681213
vt 0.7314852476119995 0.9980995655059814
vt 0.7311990261077881 0.9964642524719238
vt 0.7458956241607666 0.9969095587730408
vt 0.7429049015045166 0.9753545522689819
vt 0.7457184791564941 0.9964617490768433
vt 0.7458956241607666 0.9969095587730408
vt 0.7313967943191528 0.9969120621681213
vt 0.7379395961761475 0.9753553867340088
vt 0.7313967943191528 0.9969120621681213
vt 0.7311990261077881 0.9964642524719238
vt 0.737753689289093 0.9748833775520325
vt 0.7429049015045166 0.9753545522689819
vt 0.7427259683609009 0.9748825430870056
vt 0.7457184791564941 0.9964617490768433
vt 0.7379395961761475 0.9753553867340088
vt 0.7429049015045166 0.9753545522689819
vt 0.7458956241607666 0.9969095587730408
vt 0.7379395961761475 0.9753553867340088
vt 0.7313967943191528 0.9969120621681213
vt 0.737753689289093 0.9748833775520325
vt 0.7422563433647156 0.9740332365036011
vt 0.7427259683609009 0.9748825430870056
vt 0.7429049015045166 0.9753545522689819
vt 0.742435872554779 0.974506139755249
vt 0.7422563433647156 0.9740332365036011
vt 0.7429049015045166 0.9753545522689819
vt 0.7379395961761475 0.9753553867340088
vt 0.737753689289093 0.9748833775520325
vt 0.73836350440979 0.9740338921546936
vt 0.7379395961761475 0.9753553867340088
vt 0.742435872554779 0.974506139755249
vt 0.7429049015045166 0.9753545522689819
vt 0.7385484576225281 0.9745067954063416
vt 0.7379395961761475 0.9753553867340088
vt 0.73836350440979 0.9740338921546936
vt 0.7385484576225281 0.9745067954063416
vt 0.742435872554779 0.974506139755249
vt 0.7379395961761475 0.9753553867340088
vn -0.4007495939731598 -0.916187584400177 -0
vn -0.4007495939731598 -0.916187584400177 -0
vn -0.4007495939731598 -0.916187584400177 -0
vn -0.7931110262870789 -0.6090770959854126 -0
vn -0.7931110262870789 -0.6090770959854126 -0
vn -0.7931110262870789 -0.6090770959854126 -0
vn -0.4007469117641449 -0.9161888360977173 -0
vn -0.4007469117641449 -0.9161888360977173 -0
vn -0.4007469117641449 -0.9161888360977173 -0
vn -0.7930976748466492 -0.6090945601463318 -0
vn -0.7930976748466492 -0.6090945601463318 -0
vn -0.7930976748466492 -0.6090945601463318 -0
vn -0.0001936097105499357 -0.9999999403953552 -0
vn -0.0001936097105499357 -0.9999999403953552 -0
vn -0.0001936097105499357 -0.9999999403953552 -0
vn -0.9898872375488281 -0.14185674488544464 -0
vn -0.9898872375488281 -0.14185674488544464 -0
vn -0.9898872375488281 -0.14185674488544464 -0
vn -0.9898872375488281 -0.14185674488544464 -0
vn 0.00000050209678192914 0.000000024376623386501706 -1
vn 0.00000050209678192914 0.000000024376623386501706 -1
vn 0.00000050209678192914 0.000000024376623386501706 -1
vn -0.000001361151589662768 -0.00000005752639253842062 -0.9999999403953552
vn -0.000001361151589662768 -0.00000005752639253842062 -0.9999999403953552
vn -0.000001361151589662768 -0.00000005752639253842062 -0.9999999403953552
vn -0.00019360927399247885 -0.9999999403953552 -0
vn -0.00019360927399247885 -0.9999999403953552 -0
vn -0.00019360927399247885 -0.9999999403953552 -0
vn -0.000000028534591578477375 0.0000001828112630164469 -1
vn -0.000000028534591578477375 0.0000001828112630164469 -1
vn -0.000000028534591578477375 0.0000001828112630164469 -1
vn 0.4003841280937195 -0.9163473844528198 -0
vn 0.4003841280937195 -0.9163473844528198 -0
vn 0.4003841280937195 -0.9163473844528198 -0
vn 0.4003913700580597 -0.9163442254066467 -0
vn 0.4003913700580597 -0.9163442254066467 -0
vn 0.4003913700580597 -0.9163442254066467 -0
vn 0 0.00000018281092195593374 -1
vn 0 0.00000018281092195593374 -1
vn 0 0.00000018281092195593374 -1
vn 0.7928705215454102 -0.6093901991844177 -0
vn 0.7928705215454102 -0.6093901991844177 -0
vn 0.7928705215454102 -0.6093901991844177 -0
vn 0.7928839921951294 -0.6093724966049194 -0
vn 0.7928839921951294 -0.6093724966049194 -0
vn 0.7928839921951294 -0.6093724966049194 -0
vn 0.9898308515548706 -0.14224989712238312 -0
vn 0.9898308515548706 -0.14224989712238312 -0
vn 0.9898308515548706 -0.14224989712238312 -0
vn 0 0.000000024293091982485748 -1
vn 0 0.000000024293091982485748 -1
vn 0 0.000000024293091982485748 -1
vn 0.0000006805906309637066 -0.00000005768861299770833 -1
vn 0.0000006805906309637066 -0.00000005768861299770833 -1
vn 0.0000006805906309637066 -0.00000005768861299770833 -1
vn 0.9898308515548706 -0.14224980771541595 -0
vn 0.9898308515548706 -0.14224980771541595 -0
vn 0.9898308515548706 -0.14224980771541595 -0
vn -0.9819234609603882 0.18927797675132751 -0
vn -0.9819234609603882 0.18927797675132751 -0
vn -0.9819234609603882 0.18927797675132751 -0
vn 0.00000001222389123256562 -0.000000032929353466215616 -1
vn 0.00000001222389123256562 -0.000000032929353466215616 -1
vn 0.00000001222389123256562 -0.000000032929353466215616 -1
vn 0.9819966554641724 0.18889839947223663 -0
vn 0.9819966554641724 0.18889839947223663 -0
vn 0.9819966554641724 0.18889839947223663 -0
vn -0.9819238185882568 0.18927688896656036 -0
vn -0.9819238185882568 0.18927688896656036 -0
vn -0.9819238185882568 0.18927688896656036 -0
vn 0.00000002052705738719851 -0.000000032929172277818 -1
vn 0.00000002052705738719851 -0.000000032929172277818 -1
vn 0.00000002052705738719851 -0.000000032929172277818 -1
vn 0.9819966554641724 0.18889862298965454 -0
vn 0.9819966554641724 0.18889862298965454 -0
vn 0.9819966554641724 0.18889862298965454 -0
vn -0.8740029335021973 0.4859207272529602 -0
vn -0.8740029335021973 0.4859207272529602 -0
vn -0.8740029335021973 0.4859207272529602 -0
vn -0.8740128874778748 0.48590269684791565 -0
vn -0.8740128874778748 0.48590269684791565 -0
vn -0.8740128874778748 0.48590269684791565 -0
vn 0.8741942644119263 0.485576331615448 -0
vn 0.8741942644119263 0.485576331615448 -0
vn 0.8741942644119263 0.485576331615448 -0
vn 0 -0 -1
vn 0 -0 -1
vn 0 -0 -1
vn 0.8742044568061829 0.4855581223964691 -0
vn 0.8742044568061829 0.4855581223964691 -0
vn 0.8742044568061829 0.4855581223964691 -0
vn 0.000000016336374031311607 -0 -1
vn 0.000000016336374031311607 -0 -1
vn 0.000000016336374031311607 -0 -1
f 3/3/3 2/2/2 1/1/1
f 6/6/6 5/5/5 4/4/4
f 9/9/9 8/8/8 7/7/7
f 12/12/12 11/11/11 10/10/10
f 15/15/15 14/14/14 13/13/13
f 18/18/18 17/17/17 16/16/16
f 18/18/18 16/16/16 19/19/19
f 22/22/22 21/21/21 20/20/20
f 25/25/25 24/24/24 23/23/23
f 28/28/28 27/27/27 26/26/26
f 31/31/31 30/30/30 29/29/29
f 34/34/34 33/33/33 32/32/32
f 37/37/37 36/36/36 35/35/35
f 40/40/40 39/39/39 38/38/38
f 43/43/43 42/42/42 41/41/41
f 46/46/46 45/45/45 44/44/44
f 49/49/49 48/48/48 47/47/47
f 52/52/52 51/51/51 50/50/50
f 55/55/55 54/54/54 53/53/53
f 58/58/58 57/57/57 56/56/56
f 61/61/61 60/60/60 59/59/59
f 64/64/64 63/63/63 62/62/62
f 67/67/67 66/66/66 65/65/65
f 70/70/70 69/69/69 68/68/68
f 73/73/73 72/72/72 71/71/71
f 76/76/76 75/75/75 74/74/74
f 79/79/79 78/78/78 77/77/77
f 82/82/82 81/81/81 80/80/80
f 85/85/85 84/84/84 83/83/83
f 88/88/88 87/87/87 86/86/86
f 91/91/91 90/90/90 89/89/89
f 94/94/94 93/93/93 92/92/92
