# VPXTOOL table OBJ file
# VPXTOOL OBJ file
# numVerts: 71 numFaces: 72
o LM_L_LH2_Parts
v -1255.245849609375 482.3724670410156 -56.72552490234375
v -1256.620361328125 484.93743896484375 -53.81549835205078
v -1256.573486328125 484.8499755859375 -54.568660736083984
v -1256.620361328125 484.93743896484375 -53.81549835205078
v -1255.245849609375 482.3724670410156 -56.72552490234375
v -1252.4967041015625 477.2426452636719 -56.72552490234375
v -1255.7587890625 482.09759521484375 -56.72552490234375
v -1257.0865478515625 484.5749816894531 -54.568660736083984
v -1257.13330078125 484.6624450683594 -53.81549835205078
v -1257.13330078125 484.6624450683594 -53.81549835205078
v -1257.0865478515625 484.5749816894531 -54.568660736083984
v -1256.573486328125 484.8499755859375 -54.568660736083984
v -1256.620361328125 484.93743896484375 -53.81549835205078
v -1257.13330078125 484.6624450683594 -53.81549835205078
v -1256.573486328125 484.8499755859375 -54.568660736083984
v -1255.7587890625 482.09759521484375 -56.72552490234375
v -1257.13330078125 484.6624450683594 -53.81549835205078
v -1251.6351318359375 474.4027404785156 -53.81549835205078
v -1251.6351318359375 474.4027404785156 -53.81549835205078
v -1253.0096435546875 476.9676818847656 -56.72552490234375
v -1255.7587890625 482.09759521484375 -56.72552490234375
v -1252.4967041015625 477.2426452636719 -56.72552490234375
v -1251.1221923828125 474.6775817871094 -53.81549835205078
v -1256.620361328125 484.93743896484375 -53.81549835205078
v -1251.1221923828125 474.6775817871094 -53.81549835205078
v -1252.4967041015625 477.2426452636719 -56.72552490234375
v -1251.8094482421875 475.9601135253906 -56.335670471191406
v -1251.1221923828125 474.6775817871094 -53.81549835205078
v -1251.8094482421875 475.9601135253906 -56.335670471191406
v -1251.5247802734375 475.428955078125 -55.87318801879883
v -1253.0096435546875 476.9676818847656 -56.72552490234375
v -1251.6351318359375 474.4027404785156 -53.81549835205078
v -1251.8193359375 474.7464904785156 -55.2705078125
v -1251.1221923828125 474.6775817871094 -53.81549835205078
v -1251.5247802734375 475.428955078125 -55.87318801879883
v -1251.3062744140625 475.021240234375 -55.2705078125
v -1251.3062744140625 475.021240234375 -55.2705078125
v -1251.1690673828125 474.7651672363281 -54.568660736083984
v -1251.1221923828125 474.6775817871094 -53.81549835205078
v -1251.1221923828125 474.6775817871094 -53.81549835205078
v -1251.1690673828125 474.7651672363281 -54.568660736083984
v -1251.6820068359375 474.49017333984375 -54.568660736083984
v -1251.6351318359375 474.4027404785156 -53.81549835205078
v -1251.6820068359375 474.49017333984375 -54.568660736083984
v -1251.8193359375 474.7464904785156 -55.2705078125
v -1251.6351318359375 474.4027404785156 -53.81549835205078
v -1251.1221923828125 474.6775817871094 -53.81549835205078
v -1251.6820068359375 474.49017333984375 -54.568660736083984
v -1257.13330078125 484.6624450683594 -53.81549835205078
v -1256.620361328125 484.93743896484375 -53.81549835205078
v -1256.620361328125 484.93743896484375 45.422298431396484
v -1251.1221923828125 474.6775817871094 -53.81549835205078
v -1256.620361328125 484.93743896484375 45.422298431396484
v -1256.620361328125 484.93743896484375 -53.81549835205078
v -1251.6351318359375 474.4027404785156 -53.81549835205078
v -1257.13330078125 484.6624450683594 -53.81549835205078
v -1257.13330078125 484.6624450683594 45.422298431396484
v -1251.1221923828125 474.6775817871094 -53.81549835205078
v -1251.6351318359375 474.4027404785156 -53.81549835205078
v -1251.6351318359375 474.40283203125 45.422298431396484
v -1257.13330078125 484.6624450683594 45.422298431396484
v -1257.13330078125 484.6624450683594 -53.81549835205078
v -1251.1221923828125 474.6775817871094 -53.81549835205078
v -1251.1221923828125 474.6775817871094 45.422298431396484
v -1256.620361328125 484.93743896484375 45.422298431396484
v -1257.13330078125 484.6624450683594 45.422298431396484
v -1251.6351318359375 474.40283203125 45.422298431396484
v -1251.6351318359375 474.4027404785156 -53.81549835205078
v -1251.1221923828125 474.6775817871094 45.422298431396484
v -1251.1221923828125 474.6775817871094 -53.81549835205078
v -1251.6351318359375 474.40283203125 45.422298431396484
vt 0.05188560113310814 0.2678287625312805
vt 0.05220894142985344 0.2688941955566406
vt 0.05218370631337166 0.2687872052192688
vt 0.05220894142985344 0.2688941955566406
vt 0.05188560113310814 0.2678287625312805
vt 0.051366277039051056 0.2663295269012451
vt 0.05172349512577057 0.26788413524627686
vt 0.05202163755893707 0.26884257793426514
vt 0.05204690247774124 0.26894962787628174
vt 0.05204690247774124 0.26894962787628174
vt 0.05202163755893707 0.26884257793426514
vt 0.05218370631337166 0.2687872052192688
vt 0.05220894142985344 0.2688941955566406
vt 0.05204690247774124 0.26894962787628174
vt 0.05218370631337166 0.2687872052192688
vt 0.05172349512577057 0.26788413524627686
vt 0.05204690247774124 0.26894962787628174
vt 0.05100926756858826 0.2659528851509094
vt 0.05100926756858826 0.2659528851509094
vt 0.05120429769158363 0.2663847804069519
vt 0.05172349512577057 0.26788413524627686
vt 0.051366277039051056 0.2663295269012451
vt 0.05117103457450867 0.2658976912498474
vt 0.05220894142985344 0.2688941955566406
vt 0.05117103457450867 0.2658976912498474
vt 0.051366277039051056 0.2663295269012451
vt 0.05124516785144806 0.26599758863449097
vt 0.05117103457450867 0.2658976912498474
vt 0.05124516785144806 0.26599758863449097
vt 0.05120164901018143 0.2658929228782654
vt 0.05120429769158363 0.2663847804069519
vt 0.05100926756858826 0.2659528851509094
vt 0.05101188272237778 0.2658947706222534
vt 0.05117103457450867 0.2658976912498474
vt 0.05120164901018143 0.2658929228782654
vt 0.05117373913526535 0.2658395767211914
vt 0.05117373913526535 0.2658395767211914
vt 0.051163289695978165 0.2658412456512451
vt 0.05117103457450867 0.2658976912498474
vt 0.05117103457450867 0.2658976912498474
vt 0.051163289695978165 0.2658412456512451
vt 0.05100148916244507 0.26589643955230713
vt 0.05100926756858826 0.2659528851509094
vt 0.05100148916244507 0.26589643955230713
vt 0.05101188272237778 0.2658947706222534
vt 0.05100926756858826 0.2659528851509094
vt 0.05117103457450867 0.2658976912498474
vt 0.05100148916244507 0.26589643955230713
vt 0.05204690247774124 0.26894962787628174
vt 0.05220894142985344 0.2688941955566406
vt 0.05430403724312782 0.2793130874633789
vt 0.05117103457450867 0.2658976912498474
vt 0.05430403724312782 0.2793130874633789
vt 0.05220894142985344 0.2688941955566406
vt 0.05100926756858826 0.2659528851509094
vt 0.05204690247774124 0.26894962787628174
vt 0.05414670705795288 0.27936726808547974
vt 0.05117103457450867 0.2658976912498474
vt 0.05100926756858826 0.2659528851509094
vt 0.05313488095998764 0.2764371633529663
vt 0.05414670705795288 0.27936726808547974
vt 0.05204690247774124 0.26894962787628174
vt 0.05117103457450867 0.2658976912498474
vt 0.05329195037484169 0.2763832211494446
vt 0.05430403724312782 0.2793130874633789
vt 0.05414670705795288 0.27936726808547974
vt 0.05313488095998764 0.2764371633529663
vt 0.05100926756858826 0.2659528851509094
vt 0.05329195037484169 0.2763832211494446
vt 0.05117103457450867 0.2658976912498474
vt 0.05313488095998764 0.2764371633529663
vn 0.8559179902076721 0.5156511664390564 0.03883735090494156
vn 0.8836609721183777 0.46386614441871643 -0.06302019208669662
vn 0.8815377354621887 0.47211357951164246 0.00010500747157493606
vn 0.9008694887161255 0.43174466490745544 -0.04506238177418709
vn 0.8583734631538391 0.5110501646995544 0.04497349634766579
vn 0.8511131405830383 0.52459716796875 0.02010386995971203
vn -0.9034125208854675 -0.42701470851898193 0.03878528252243996
vn -0.8813540935516357 -0.47245627641677856 0.00005249514288152568
vn -0.8756409287452698 -0.4788270592689514 -0.06306810677051544
vn -0.4301370680332184 0.8845427632331848 -0.18046092987060547
vn -0.4683341979980469 0.8738425970077515 -0.13062173128128052
vn -0.4683341979980469 0.8738425970077515 -0.13062173128128052
vn -0.5235025882720947 0.8419992923736572 -0.1303161382675171
vn -0.4112696647644043 0.9021504521369934 -0.1303146779537201
vn -0.4683340787887573 0.8738489747047424 -0.130580335855484
vn -0.900874674320221 -0.43174242973327637 0.04498166963458061
vn -0.8583577871322632 -0.5110722780227661 -0.04502294212579727
vn -0.9081459045410156 -0.418167382478714 -0.020177409052848816
vn -0.9008736610412598 -0.4317360520362854 -0.04506222903728485
vn -0.858378529548645 -0.5110419392585754 0.04497358202934265
vn -0.851118266582489 -0.5245890617370605 0.020103694871068
vn 0.900876522064209 0.4317361116409302 0.04500382021069527
vn 0.8583604097366333 0.5110698938369751 -0.04499782249331474
vn 0.9081481695175171 0.41816332936286926 -0.020154042169451714
vn 0.8645968437194824 0.49943533539772034 -0.05510520935058594
vn 0.9086592197418213 0.41721248626708984 0.01649622619152069
vn 0.881419837474823 0.4723336696624756 0.00003222800660296343
vn 0.8680614829063416 0.4929533302783966 -0.05887387692928314
vn 0.881363570690155 0.4724385142326355 -0.00005905481521040201
vn 0.881363570690155 0.4724385142326355 -0.00005905481521040201
vn -0.8535710573196411 -0.5200063586235046 0.031777918338775635
vn -0.8873588442802429 -0.45695433020591736 -0.061540499329566956
vn -0.8813821077346802 -0.4724040925502777 -0.0000322328123729676
vn 0.8717700839042664 0.4860542118549347 -0.061385031789541245
vn 0.8813377022743225 0.4724867343902588 0.00011401707160985097
vn 0.8813377022743225 0.4724867343902588 0.00011401707160985097
vn 0.8811168670654297 0.47289854288101196 0.00016745699394959956
vn 0.8811168670654297 0.47289854288101196 0.00016745699394959956
vn 0.875403106212616 0.4792769253253937 -0.06295187026262283
vn 0.43032753467559814 -0.88443922996521 -0.18051469326019287
vn 0.4685196280479431 -0.8737366199493408 -0.13066639006137848
vn 0.4685196280479431 -0.8737366199493408 -0.13066639006137848
vn -0.8841454982757568 -0.46292033791542053 -0.0631789043545723
vn -0.882042407989502 -0.47116997838020325 -0.00006274458428379148
vn -0.882042407989502 -0.47116997838020325 -0.00006274458428379148
vn 0.5233606100082397 -0.842092752456665 -0.1302824169397354
vn 0.4111173152923584 -0.9022182822227478 -0.1303263157606125
vn 0.46818527579307556 -0.8739269971847534 -0.1305919885635376
vn -0.4712486267089844 0.8796994686126709 0.06366769969463348
vn -0.47157779335975647 0.8795232772827148 0.06366520375013351
vn -0.47253644466400146 0.8813111782073975 -0
vn 0.8495426177978516 0.5275201201438904 -0
vn 0.881404459476471 0.4723624289035797 -0
vn 0.9096903204917908 0.4152873754501343 -0.000036612160329241306
vn -0.9097042083740234 -0.41525667905807495 -0.00004001054912805557
vn -0.8495602607727051 -0.5274914503097534 -0
vn -0.8814206719398499 -0.4723319411277771 -0
vn 0.4711014926433563 -0.8797781467437744 0.06366856396198273
vn 0.47139036655426025 -0.8796235918998718 0.06366605311632156
vn 0.47238901257514954 -0.8813901543617249 0.0000008650578706692613
vn -0.47253644466400146 0.8813111782073975 -0
vn -0.4715777635574341 0.8795231580734253 0.06366700679063797
vn 0.8761312365531921 0.47790729999542236 0.06323352456092834
vn 0.881422758102417 0.4723280072212219 -0
vn 0.881422758102417 0.4723280072212219 -0
vn -0.8814002275466919 -0.47237035632133484 0.0000003459311415099364
vn -0.8814002275466919 -0.47237035632133484 0.0000003459311415099364
vn -0.8831371665000916 -0.4648343324661255 0.06322850286960602
vn 0.4722415506839752 -0.881469190120697 -0
vn 0.4712834656238556 -0.879680871963501 0.06366700679063797
vn 0.4722415506839752 -0.881469190120697 -0
f 3/3/3 2/2/2 1/1/1
f 6/6/6 5/5/5 4/4/4
f 9/9/9 8/8/8 7/7/7
f 12/12/12 11/11/11 10/10/10
f 15/15/15 14/14/14 13/13/13
f 18/18/18 17/17/17 16/16/16
f 21/21/21 20/20/20 19/19/19
f 24/24/24 23/23/23 22/22/22
f 27/27/27 26/26/26 25/25/25
f 30/30/30 29/29/29 28/28/28
f 33/33/33 32/32/32 31/31/31
f 36/36/36 35/35/35 34/34/34
f 39/39/39 38/38/38 37/37/37
f 42/42/42 41/41/41 40/40/40
f 45/45/45 44/44/44 43/43/43
f 48/48/48 47/47/47 46/46/46
f 51/51/51 50/50/50 49/49/49
f 54/54/54 53/53/53 52/52/52
f 57/57/57 56/56/56 55/55/55
f 60/60/60 59/59/59 58/58/58
f 51/51/51 62/62/62 61/61/61
f 65/65/65 64/64/64 63/63/63
f 68/68/68 67/67/67 66/66/66
f 71/71/71 70/70/70 69/69/69
