# VPXTOOL table OBJ file
# VPXTOOL OBJ file
# numVerts: 112 numFaces: 183
o LM_L_LPR5_Playfield
v -60.11383819580078 480.7759704589844 -0
v -142.56837463378906 338.9775390625 0.0000004313675674438855
v -13.428078651428223 251.45375061035156 0.000000862735134887771
v -13.428078651428223 251.45375061035156 0.000000862735134887771
v 69.02648162841797 393.2521667480469 0.0000004313675674438855
v -60.11383819580078 480.7759704589844 -0
v -271.70867919921875 426.5013427734375 -0
v -241.9124755859375 473.0784606933594 -0
v -243.7411651611328 470.8194885253906 -0
v -240.9444122314453 475.76763916015625 23.52941131591797
v -241.9124755859375 473.0784606933594 23.52941131591797
v -241.9124755859375 473.0784606933594 -0
v -165.9112548828125 453.638671875 -0
v -240.5139923095703 479.102294921875 23.52941131591797
v -240.9444122314453 475.76763916015625 23.52941131591797
v -240.9444122314453 475.76763916015625 -0
v -60.11383819580078 480.7759704589844 -0
v -165.9112548828125 453.638671875 -0
v -142.56837463378906 338.9775390625 0.0000004313675674438855
v -240.62152099609375 481.8990478515625 23.52941131591797
v -240.5139923095703 479.102294921875 23.52941131591797
v -240.5139923095703 479.102294921875 -0
v -241.9124755859375 473.0784606933594 -0
v -241.9124755859375 473.0784606933594 23.52941131591797
v -243.7411651611328 470.8194885253906 -0
v -240.9444122314453 475.76763916015625 -0
v -240.9444122314453 475.76763916015625 23.52941131591797
v -241.9124755859375 473.0784606933594 -0
v -240.5139923095703 479.102294921875 -0
v -240.5139923095703 479.102294921875 23.52941131591797
v -240.9444122314453 475.76763916015625 -0
v -240.62152099609375 481.8990478515625 -0
v -240.62152099609375 481.8990478515625 23.52941131591797
v -240.5139923095703 479.102294921875 -0
v -60.11383819580078 480.7759704589844 -0
v -240.5139923095703 479.102294921875 -0
v -233.8252410888672 532.7052612304688 -0
v -240.62152099609375 481.8990478515625 -0
v -240.9444122314453 475.76763916015625 -0
v -45.21574020385742 504.0645751953125 -0
v -240.5139923095703 479.102294921875 -0
v -240.9444122314453 475.76763916015625 -0
v -44.73169708251953 505.4091796875 -0
v -233.93276977539063 534.5339965820313 23.52941131591797
v -233.8252410888672 532.7052612304688 23.52941131591797
v -233.8252410888672 532.7052612304688 -0
v -240.62152099609375 481.8990478515625 -0
v -233.8252410888672 532.7052612304688 -0
v -234.578125 530.6616821289063 -0
v -233.8252410888672 532.7052612304688 -0
v -233.8252410888672 532.7052612304688 23.52941131591797
v -234.578125 530.6616821289063 -0
v 69.02648162841797 393.0033874511719 0.0000004313675674438855
v 151.48098754882813 535.0505981445313 -0
v 69.02648162841797 393.2521667480469 0.0000004313675674438855
v -244.15174865722656 563.1470947265625 23.52941131591797
v -233.93276977539063 534.5339965820313 23.52941131591797
v -233.93276977539063 534.5339965820313 -0
v -233.93276977539063 534.5339965820313 -0
v -233.93276977539063 534.5339965820313 23.52941131591797
v -233.8252410888672 532.7052612304688 -0
v -44.51649856567383 507.0764465332031 -0
v 69.02648162841797 393.2521667480469 0.0000004313675674438855
v 45.68355178833008 507.9132995605469 -0
v -60.11383819580078 480.7759704589844 -0
v -44.73169708251953 505.4091796875 -0
v -244.15174865722656 563.1470947265625 -0
v -244.15174865722656 563.1470947265625 23.52941131591797
v -233.93276977539063 534.5339965820313 -0
v -41.22587585449219 534.7922973632813 -0
v -233.93276977539063 534.5339965820313 -0
v 45.68355178833008 507.9132995605469 -0
v 151.48098754882813 535.0505981445313 -0
v 45.68355178833008 507.9132995605469 -0
v -41.172122955322266 533.8779296875 -0
v -41.22587585449219 534.7922973632813 -0
v 151.05087280273438 533.2221069335938 -0
v 151.48098754882813 535.0505981445313 -0
v 69.02648162841797 393.0033874511719 0.0000004313675674438855
v -233.93276977539063 534.5339965820313 -0
v -36.2238883972168 548.8837280273438 -0
v 151.48098754882813 535.0505981445313 -0
v -106.2380599975586 639.1170654296875 -0
v 151.05087280273438 533.2221069335938 23.52941131591797
v 151.48098754882813 535.0505981445313 23.52941131591797
v 151.48098754882813 535.0505981445313 -0
v -244.15174865722656 563.1470947265625 -0
v -176.25222778320313 729.3502807617188 -0
v 151.05087280273438 533.2221069335938 -0
v 151.05087280273438 533.2221069335938 23.52941131591797
v 151.48098754882813 535.0505981445313 -0
v 151.48098754882813 535.0505981445313 23.52941131591797
v 161.48497009277344 563.2334594726563 23.52941131591797
v 161.48497009277344 563.2334594726563 -0
v 151.48098754882813 535.0505981445313 -0
v 151.48098754882813 535.0505981445313 23.52941131591797
v 161.48497009277344 563.2334594726563 -0
v 161.48497009277344 563.2334594726563 -0
v 161.48497009277344 563.2334594726563 -0
v 161.48497009277344 563.2334594726563 23.52941131591797
v 163.42108154296875 566.1377563476563 -0
v 91.47079467773438 653.466796875 -0
v 163.42108154296875 566.1377563476563 -0
v 21.456623077392578 743.7000122070313 -0
v 92.43888092041016 654.9189453125 -0
v 91.47079467773438 653.466796875 -0
v 163.42108154296875 566.1377563476563 -0
v 21.456623077392578 743.7000122070313 -0
v 92.92289733886719 655.6448974609375 -0
v 92.43888092041016 654.9189453125 -0
v 22.42470932006836 745.1521606445313 -0
v -48.55752182006836 833.9331665039063 -0
vt 0.6857669949531555 0.656836748123169
vt 0.6629998087882996 0.6196655035018921
vt 0.6993348598480225 0.5975762605667114
vt 0.6993348598480225 0.5975762605667114
vt 0.7226271629333496 0.6336861848831177
vt 0.6857669949531555 0.656836748123169
vt 0.6256018280982971 0.6424010396003723
vt 0.6335564255714417 0.6547733545303345
vt 0.6330575942993164 0.6541687846183777
vt 0.6342743635177612 0.658082127571106
vt 0.634028971195221 0.657365620136261
vt 0.6335564255714417 0.6547733545303345
vt 0.6555473804473877 0.6495859622955322
vt 0.6343590021133423 0.6589715480804443
vt 0.6342743635177612 0.658082127571106
vt 0.6338032484054565 0.6554936170578003
vt 0.6857669949531555 0.656836748123169
vt 0.6555473804473877 0.6495859622955322
vt 0.6629998087882996 0.6196655035018921
vt 0.634296178817749 0.6597182154655457
vt 0.6343590021133423 0.6589715480804443
vt 0.6338882446289063 0.6563876867294312
vt 0.6335564255714417 0.6547733545303345
vt 0.634028971195221 0.657365620136261
vt 0.6330575942993164 0.6541687846183777
vt 0.6338032484054565 0.6554936170578003
vt 0.6342743635177612 0.658082127571106
vt 0.6335564255714417 0.6547733545303345
vt 0.6338882446289063 0.6563876867294312
vt 0.6343590021133423 0.6589715480804443
vt 0.6338032484054565 0.6554936170578003
vt 0.6338247656822205 0.6571382284164429
vt 0.634296178817749 0.6597182154655457
vt 0.6338882446289063 0.6563876867294312
vt 0.6857669949531555 0.656836748123169
vt 0.6338882446289063 0.6563876867294312
vt 0.6352003216743469 0.6708981990814209
vt 0.6338247656822205 0.6571382284164429
vt 0.6338032484054565 0.6554936170578003
vt 0.6900023818016052 0.6631122827529907
vt 0.6338882446289063 0.6563876867294312
vt 0.6338032484054565 0.6554936170578003
vt 0.6901392936706543 0.6634761095046997
vt 0.6356145739555359 0.6739026308059692
vt 0.6356663107872009 0.6734055280685425
vt 0.6352003216743469 0.6708981990814209
vt 0.6338247656822205 0.6571382284164429
vt 0.6352003216743469 0.6708981990814209
vt 0.6350054144859314 0.6703401207923889
vt 0.6352003216743469 0.6708981990814209
vt 0.6356663107872009 0.6734055280685425
vt 0.6350054144859314 0.6703401207923889
vt 0.7226263284683228 0.633621335029602
vt 0.7470436692237854 0.6715391278266907
vt 0.7226271629333496 0.6336861848831177
vt 0.6323270797729492 0.6817198991775513
vt 0.6356145739555359 0.6739026308059692
vt 0.6351480484008789 0.6713979244232178
vt 0.6351480484008789 0.6713979244232178
vt 0.6356145739555359 0.6739026308059692
vt 0.6352003216743469 0.6708981990814209
vt 0.6901978850364685 0.6639274954795837
vt 0.7226271629333496 0.6336861848831177
vt 0.7162644863128662 0.6641541719436646
vt 0.6857669949531555 0.656836748123169
vt 0.6901392936706543 0.6634761095046997
vt 0.6318353414535522 0.6792573928833008
vt 0.6323270797729492 0.6817198991775513
vt 0.6351480484008789 0.6713979244232178
vt 0.691093385219574 0.6714684963226318
vt 0.6351480484008789 0.6713979244232178
vt 0.7162644863128662 0.6641541719436646
vt 0.7470436692237854 0.6715391278266907
vt 0.7162644863128662 0.6641541719436646
vt 0.6911108493804932 0.6712185740470886
vt 0.691093385219574 0.6714684963226318
vt 0.7469050884246826 0.671039342880249
vt 0.7470436692237854 0.6715391278266907
vt 0.7226263284683228 0.633621335029602
vt 0.6351480484008789 0.6713979244232178
vt 0.692520797252655 0.6753299236297607
vt 0.7470436692237854 0.6715391278266907
vt 0.671664297580719 0.7005029916763306
vt 0.746601939201355 0.6735459566116333
vt 0.7467395067214966 0.6740430593490601
vt 0.7470436692237854 0.6715391278266907
vt 0.6318353414535522 0.6792573928833008
vt 0.6501452326774597 0.7264756560325623
vt 0.7469050884246826 0.671039342880249
vt 0.746601939201355 0.6735459566116333
vt 0.7470436692237854 0.6715391278266907
vt 0.7467395067214966 0.6740430593490601
vt 0.7498477697372437 0.6817435622215271
vt 0.7501751184463501 0.6792812347412109
vt 0.7470436692237854 0.6715391278266907
vt 0.7467395067214966 0.6740430593490601
vt 0.7501751184463501 0.6792812347412109
vt 0.7501751184463501 0.6792812347412109
vt 0.7501751184463501 0.6792812347412109
vt 0.7498477697372437 0.6817435622215271
vt 0.7507637739181519 0.6800833344459534
vt 0.7301702499389648 0.7045789957046509
vt 0.7507637739181519 0.6800833344459534
vt 0.7095283269882202 0.7306823134422302
vt 0.7304640412330627 0.7049925923347473
vt 0.7301702499389648 0.7045789957046509
vt 0.7507637739181519 0.6800833344459534
vt 0.7095283269882202 0.7306823134422302
vt 0.7306110262870789 0.7051994800567627
vt 0.7304640412330627 0.7049925923347473
vt 0.7098215222358704 0.7311091423034668
vt 0.6882184147834778 0.7576303482055664
vn 0.0000000009171003401142741 -0.00000000357540352879937 -1
vn 0.0000000009171003401142741 -0.00000000357540352879937 -1
vn 0.0000000009171003401142741 -0.00000000357540352879937 -1
vn 0.0000000009171001180696692 -0.00000000357540352879937 -1
vn 0.0000000009171001180696692 -0.00000000357540352879937 -1
vn 0.0000000009171001180696692 -0.00000000357540352879937 -1
vn 0 -0 -1
vn 0 -0 -1
vn 0 -0 -1
vn -0.9408963322639465 0.33869463205337524 -0
vn -0.9408963322639465 0.33869463205337524 -0
vn -0.9408963322639465 0.33869463205337524 -0
vn 0 -0 -1
vn -0.9917739033699036 0.12800180912017822 -0
vn -0.9917739033699036 0.12800180912017822 -0
vn -0.9917739033699036 0.12800180912017822 -0
vn 0.0000000009171005066477278 -0.00000000357540441697779 -1
vn 0.0000000009171005066477278 -0.00000000357540441697779 -1
vn 0.0000000009171005066477278 -0.00000000357540441697779 -1
vn -0.9992610812187195 -0.03843410313129425 -0
vn -0.9992610812187195 -0.03843410313129425 -0
vn -0.9992610812187195 -0.03843410313129425 -0
vn -0.777237057685852 0.6292079091072083 -0
vn -0.777237057685852 0.6292079091072083 -0
vn -0.777237057685852 0.6292079091072083 -0
vn -0.9408887624740601 0.33871570229530334 -0
vn -0.9408887624740601 0.33871570229530334 -0
vn -0.9408887624740601 0.33871570229530334 -0
vn -0.9917701482772827 0.1280316263437271 -0
vn -0.9917701482772827 0.1280316263437271 -0
vn -0.9917701482772827 0.1280316263437271 -0
vn -0.9992620944976807 -0.038409870117902756 -0
vn -0.9992620944976807 -0.038409870117902756 -0
vn -0.9992620944976807 -0.038409870117902756 -0
vn 0 -0 -1
vn 0 -0 -1
vn 0 -0 -1
vn 0 -0 -1
vn 0 -0 -1
vn 0 -0 -1
vn 0 -0 -0.9999999403953552
vn 0 -0 -0.9999999403953552
vn 0 -0 -0.9999999403953552
vn -0.9982743859291077 -0.05872107297182083 -0
vn -0.9982743859291077 -0.05872107297182083 -0
vn -0.9982743859291077 -0.05872107297182083 -0
vn 0 -0 -0.9999999403953552
vn 0 -0 -0.9999999403953552
vn 0 -0 -0.9999999403953552
vn -0.938341498374939 0.34570974111557007 -0
vn -0.938341498374939 0.34570974111557007 -0
vn -0.938341498374939 0.34570974111557007 -0
vn -0.0000000052309623299606756 -0 -1
vn -0.0000000052309623299606756 -0 -1
vn -0.0000000052309623299606756 -0 -1
vn -0.9417418837547302 -0.33633628487586975 -0
vn -0.9417418837547302 -0.33633628487586975 -0
vn -0.9417418837547302 -0.33633628487586975 -0
vn -0.9982765316963196 -0.05868411436676979 -0
vn -0.9982765316963196 -0.05868411436676979 -0
vn -0.9982765316963196 -0.05868411436676979 -0
vn 0 -0 -1
vn 0.0000000009171009507369376 -0.0000000035754050831116047 -0.9999999403953552
vn 0.0000000009171009507369376 -0.0000000035754050831116047 -0.9999999403953552
vn 0.0000000009171009507369376 -0.0000000035754050831116047 -0.9999999403953552
vn 0 -0 -1
vn -0.9417415857315063 -0.33633729815483093 -0
vn -0.9417415857315063 -0.33633729815483093 -0
vn -0.9417415857315063 -0.33633729815483093 -0
vn 0 -0 -0.9999999403953552
vn 0 -0 -0.9999999403953552
vn 0 -0 -1
vn 0.0000000009171001180696692 -0.00000000357540352879937 -1
vn 0.0000000009171001180696692 -0.00000000357540352879937 -1
vn 0 -0 -1
vn 0 -0 -1
vn -0.000000008796479988859573 0.0000000020692287883150584 -1
vn -0.000000008796479988859573 0.0000000020692287883150584 -1
vn -0.000000008796479988859573 0.0000000020692287883150584 -1
vn 0 -0 -1
vn 0 -0 -1
vn 0 -0 -1
vn 0 -0 -1
vn 0.9734320044517517 -0.22897638380527496 -0
vn 0.9734320044517517 -0.22897638380527496 -0
vn 0.9734320044517517 -0.22897638380527496 -0
vn 0 -0 -1
vn 0 -0 -1
vn 0.9734280109405518 -0.2289935201406479 -0
vn 0.9734280109405518 -0.2289935201406479 -0
vn 0.9734280109405518 -0.2289935201406479 -0
vn 0.942389965057373 -0.33451634645462036 -0
vn 0.942389965057373 -0.33451634645462036 -0
vn 0.942389965057373 -0.33451634645462036 -0
vn 0.9423896670341492 -0.33451738953590393 -0
vn 0.9423896670341492 -0.33451738953590393 -0
vn 0.9423896670341492 -0.33451738953590393 -0
vn 0 -0 -1
vn 0.8320609927177429 -0.5546842217445374 -0
vn 0.8320609927177429 -0.5546842217445374 -0
vn 0.8320609927177429 -0.5546842217445374 -0
vn 0 -0 -1
vn 0 -0 -1
vn 0 -0 -1
vn 0 -0 -0.9999999403953552
vn 0 -0 -0.9999999403953552
vn 0 -0 -0.9999999403953552
vn 0 -0 -0.9999999403953552
vn 0 -0 -1
vn 0 -0 -1
vn 0 -0 -1
vn 0 -0 -1
f 3/3/3 2/2/2 1/1/1
f 6/6/6 5/5/5 4/4/4
f 9/9/9 8/8/8 7/7/7
f 12/12/12 11/11/11 10/10/10
f 8/8/8 13/13/13 7/7/7
f 16/16/16 15/15/15 14/14/14
f 19/19/19 18/18/18 17/17/17
f 22/22/22 21/21/21 20/20/20
f 25/25/25 24/24/24 23/23/23
f 28/28/28 27/27/27 26/26/26
f 31/31/31 30/30/30 29/29/29
f 34/34/34 33/33/33 32/32/32
f 8/8/8 35/35/35 13/13/13
f 38/38/38 37/37/37 36/36/36
f 40/40/40 8/8/8 39/39/39
f 43/43/43 42/42/42 41/41/41
f 46/46/46 45/45/45 44/44/44
f 49/49/49 48/48/48 47/47/47
f 8/8/8 40/40/40 35/35/35
f 52/52/52 51/51/51 50/50/50
f 55/55/55 54/54/54 53/53/53
f 58/58/58 57/57/57 56/56/56
f 61/61/61 60/60/60 59/59/59
f 37/37/37 62/62/62 36/36/36
f 65/65/65 64/64/64 63/63/63
f 39/39/39 66/66/66 40/40/40
f 36/36/36 62/62/62 66/66/66
f 69/69/69 68/68/68 67/67/67
f 48/48/48 71/71/71 70/70/70
f 40/40/40 72/72/72 35/35/35
f 5/5/5 74/74/74 73/73/73
f 37/37/37 75/75/75 62/62/62
f 75/75/75 37/37/37 76/76/76
f 79/79/79 78/78/78 77/77/77
f 81/81/81 76/76/76 80/80/80
f 66/66/66 82/82/82 40/40/40
f 62/62/62 82/82/82 66/66/66
f 40/40/40 82/82/82 72/72/72
f 62/62/62 75/75/75 82/82/82
f 76/76/76 82/82/82 75/75/75
f 80/80/80 83/83/83 81/81/81
f 86/86/86 85/85/85 84/84/84
f 82/82/82 76/76/76 81/81/81
f 88/88/88 80/80/80 87/87/87
f 91/91/91 90/90/90 89/89/89
f 94/94/94 93/93/93 92/92/92
f 97/97/97 96/96/96 95/95/95
f 82/82/82 81/81/81 98/98/98
f 101/101/101 100/100/100 99/99/99
f 80/80/80 88/88/88 83/83/83
f 81/81/81 102/102/102 98/98/98
f 103/103/103 98/98/98 102/102/102
f 83/83/83 104/104/104 81/81/81
f 107/107/107 106/106/106 105/105/105
f 81/81/81 104/104/104 102/102/102
f 83/83/83 88/88/88 104/104/104
f 105/105/105 106/106/106 108/108/108
f 110/110/110 104/104/104 109/109/109
f 104/104/104 111/111/111 109/109/109
f 88/88/88 112/112/112 104/104/104
f 111/111/111 104/104/104 112/112/112
