# VPXTOOL table OBJ file
# VPXTOOL OBJ file
# numVerts: 77 numFaces: 81
o LM_GI_gi13_UnderPF
v 403.2818908691406 -467.67108154296875 -28.486501693725586
v 395.94110107421875 -463.75738525390625 -28.486501693725586
v 362.1776428222656 -474.03863525390625 -28.486501693725586
v 362.1776428222656 -474.03863525390625 -33.192386627197266
v 362.1776428222656 -474.03863525390625 -28.486501693725586
v 395.94110107421875 -463.75738525390625 -28.486501693725586
v 362.1776428222656 -474.03863525390625 -28.486501693725586
v 362.1776428222656 -474.03863525390625 -33.192386627197266
v 360.9683837890625 -474.56103515625 -33.192386627197266
v 360.9683837890625 -474.56103515625 -28.486501693725586
v 360.9683837890625 -474.56103515625 -33.192386627197266
v 359.90576171875 -475.3393859863281 -33.192386627197266
v 359.90576171875 -475.3393859863281 -28.486501693725586
v 359.90576171875 -475.3393859863281 -33.192386627197266
v 359.04290771484375 -476.3346862792969 -33.192386627197266
v 360.9683837890625 -474.56103515625 -28.486501693725586
v 362.1776428222656 -474.03863525390625 -28.486501693725586
v 360.9683837890625 -474.56103515625 -33.192386627197266
v 359.90576171875 -475.3393859863281 -28.486501693725586
v 360.9683837890625 -474.56103515625 -28.486501693725586
v 359.90576171875 -475.3393859863281 -33.192386627197266
v 359.04290771484375 -476.3346862792969 -28.486501693725586
v 359.04290771484375 -476.3346862792969 -33.192386627197266
v 358.4232482910156 -477.4970397949219 -33.192386627197266
v 362.1776428222656 -474.03863525390625 -28.486501693725586
v 360.9683837890625 -474.56103515625 -28.486501693725586
v 359.90576171875 -475.3393859863281 -28.486501693725586
v 359.04290771484375 -476.3346862792969 -28.486501693725586
v 359.90576171875 -475.3393859863281 -28.486501693725586
v 359.04290771484375 -476.3346862792969 -33.192386627197266
v 358.4232482910156 -477.4970397949219 -28.486501693725586
v 358.4232482910156 -477.4970397949219 -33.192386627197266
v 358.07769775390625 -478.76812744140625 -33.192386627197266
v 362.1776428222656 -474.03863525390625 -28.486501693725586
v 359.90576171875 -475.3393859863281 -28.486501693725586
v 358.4232482910156 -477.4970397949219 -28.486501693725586
v 358.4232482910156 -477.4970397949219 -28.486501693725586
v 359.04290771484375 -476.3346862792969 -28.486501693725586
v 358.4232482910156 -477.4970397949219 -33.192386627197266
v 359.90576171875 -475.3393859863281 -28.486501693725586
v 359.04290771484375 -476.3346862792969 -28.486501693725586
v 358.4232482910156 -477.4970397949219 -28.486501693725586
v 358.07769775390625 -478.76812744140625 -28.486501693725586
v 358.07769775390625 -478.76812744140625 -33.192386627197266
v 358.0237121582031 -480.08428955078125 -33.192386627197266
v 358.07769775390625 -478.76812744140625 -28.486501693725586
v 358.4232482910156 -477.4970397949219 -28.486501693725586
v 358.07769775390625 -478.76812744140625 -33.192386627197266
v 362.1776428222656 -474.03863525390625 -28.486501693725586
v 358.4232482910156 -477.4970397949219 -28.486501693725586
v 358.0237121582031 -480.08428955078125 -28.486501693725586
v 358.0237121582031 -480.08428955078125 -33.192386627197266
v 358.2639465332031 -481.3794250488281 -33.192386627197266
v 358.2639465332031 -481.3794250488281 -28.486501693725586
v 358.0237121582031 -480.08428955078125 -28.486501693725586
v 362.1776428222656 -474.03863525390625 -28.486501693725586
v 358.0237121582031 -480.08428955078125 -28.486501693725586
v 358.2639465332031 -481.3794250488281 -28.486501693725586
v 358.4232482910156 -477.4970397949219 -28.486501693725586
v 358.07769775390625 -478.76812744140625 -28.486501693725586
v 358.0237121582031 -480.08428955078125 -28.486501693725586
v 358.0237121582031 -480.08428955078125 -28.486501693725586
v 358.0237121582031 -480.08428955078125 -33.192386627197266
v 358.2639465332031 -481.3794250488281 -28.486501693725586
v 409.6493835449219 -508.7752990722656 -28.486501693725586
v 403.2818908691406 -467.67108154296875 -28.486501693725586
v 362.1776428222656 -474.03863525390625 -28.486501693725586
v 358.2639465332031 -481.3794250488281 -28.486501693725586
v 358.2639465332031 -481.3794250488281 -33.192386627197266
v 368.545166015625 -515.1428833007813 -33.192386627197266
v 362.1776428222656 -474.03863525390625 -28.486501693725586
v 358.2639465332031 -481.3794250488281 -28.486501693725586
v 368.545166015625 -515.1428833007813 -28.486501693725586
v 368.545166015625 -515.1428833007813 -28.486501693725586
v 368.545166015625 -515.1428833007813 -28.486501693725586
v 358.2639465332031 -481.3794250488281 -28.486501693725586
v 368.545166015625 -515.1428833007813 -33.192386627197266
vt 0.6330682039260864 0.32318127155303955
vt 0.6344849467277527 0.32489144802093506
vt 0.6307666301727295 0.33310699462890625
vt 0.6294657588005066 0.33301371335983276
vt 0.6307666301727295 0.33310699462890625
vt 0.6344849467277527 0.32489144802093506
vt 0.6307666301727295 0.33310699462890625
vt 0.6294657588005066 0.33301371335983276
vt 0.6292770504951477 0.3333095908164978
vt 0.6305779814720154 0.33340251445770264
vt 0.6292770504951477 0.3333095908164978
vt 0.6289958357810974 0.33357322216033936
vt 0.6302969455718994 0.3336658477783203
vt 0.6289958357810974 0.33357322216033936
vt 0.628636360168457 0.3337913751602173
vt 0.6305779814720154 0.33340251445770264
vt 0.6307666301727295 0.33310699462890625
vt 0.6292770504951477 0.3333095908164978
vt 0.6302969455718994 0.3336658477783203
vt 0.6305779814720154 0.33340251445770264
vt 0.6289958357810974 0.33357322216033936
vt 0.6299377083778381 0.33388370275497437
vt 0.628636360168457 0.3337913751602173
vt 0.6282166838645935 0.33395302295684814
vt 0.6307666301727295 0.33310699462890625
vt 0.6305779814720154 0.33340251445770264
vt 0.6302969455718994 0.3336658477783203
vt 0.6299377083778381 0.33388370275497437
vt 0.6302969455718994 0.3336658477783203
vt 0.628636360168457 0.3337913751602173
vt 0.6295183300971985 0.3340451717376709
vt 0.6282166838645935 0.33395302295684814
vt 0.6277579069137573 0.3340502381324768
vt 0.6307666301727295 0.33310699462890625
vt 0.6302969455718994 0.3336658477783203
vt 0.6295183300971985 0.3340451717376709
vt 0.6295183300971985 0.3340451717376709
vt 0.6299377083778381 0.33388370275497437
vt 0.6282166838645935 0.33395302295684814
vt 0.6302969455718994 0.3336658477783203
vt 0.6299377083778381 0.33388370275497437
vt 0.6295183300971985 0.3340451717376709
vt 0.6290598511695862 0.33414220809936523
vt 0.6277579069137573 0.3340502381324768
vt 0.627282977104187 0.33407801389694214
vt 0.6290598511695862 0.33414220809936523
vt 0.6295183300971985 0.3340451717376709
vt 0.6277579069137573 0.3340502381324768
vt 0.6307666301727295 0.33310699462890625
vt 0.6295183300971985 0.3340451717376709
vt 0.6285852789878845 0.33416998386383057
vt 0.627282977104187 0.33407801389694214
vt 0.6268158555030823 0.33403509855270386
vt 0.6281184554100037 0.33412712812423706
vt 0.6285852789878845 0.33416998386383057
vt 0.6307666301727295 0.33310699462890625
vt 0.6285852789878845 0.33416998386383057
vt 0.6281184554100037 0.33412712812423706
vt 0.6295183300971985 0.3340451717376709
vt 0.6290598511695862 0.33414220809936523
vt 0.6285852789878845 0.33416998386383057
vt 0.6285852789878845 0.33416998386383057
vt 0.627282977104187 0.33407801389694214
vt 0.6281184554100037 0.33412712812423706
vt 0.6182849407196045 0.3221901059150696
vt 0.6330682039260864 0.32318127155303955
vt 0.6307666301727295 0.33310699462890625
vt 0.6281184554100037 0.33412712812423706
vt 0.6268158555030823 0.33403509855270386
vt 0.6146999597549438 0.3319641947746277
vt 0.6307666301727295 0.33310699462890625
vt 0.6281184554100037 0.33412712812423706
vt 0.6160103678703308 0.3320581316947937
vt 0.6160103678703308 0.3320581316947937
vt 0.6160103678703308 0.3320581316947937
vt 0.6281184554100037 0.33412712812423706
vt 0.6146999597549438 0.3319641947746277
vn -0.0000001202968746838451 -0 -1
vn -0.0000001202968746838451 -0 -1
vn -0.0000001202968746838451 -0 -1
vn 0.2913021147251129 -0.9566311240196228 -0
vn 0.2913021147251129 -0.9566311240196228 -0
vn 0.2913021147251129 -0.9566311240196228 -0
vn 0.3965659439563751 -0.9180062413215637 -0
vn 0.3965659439563751 -0.9180062413215637 -0
vn 0.3965659439563751 -0.9180062413215637 -0
vn 0.5909542441368103 -0.8067049980163574 -0
vn 0.5909542441368103 -0.8067049980163574 -0
vn 0.5909542441368103 -0.8067049980163574 -0
vn 0.7555739283561707 -0.6550634503364563 -0
vn 0.7555739283561707 -0.6550634503364563 -0
vn 0.7555739283561707 -0.6550634503364563 -0
vn 0.396566778421402 -0.9180058240890503 -0
vn 0.396566778421402 -0.9180058240890503 -0
vn 0.396566778421402 -0.9180058240890503 -0
vn 0.5909236073493958 -0.8067275881767273 -0
vn 0.5909236073493958 -0.8067275881767273 -0
vn 0.5909236073493958 -0.8067275881767273 -0
vn 0.8824164867401123 -0.47046902775764465 -0
vn 0.8824164867401123 -0.47046902775764465 -0
vn 0.8824164867401123 -0.47046902775764465 -0
vn -0.000008083290595095605 -0 -1
vn -0.000008083290595095605 -0 -1
vn -0.000008083290595095605 -0 -1
vn 0.7556062340736389 -0.6550261378288269 -0
vn 0.7556062340736389 -0.6550261378288269 -0
vn 0.7556062340736389 -0.6550261378288269 -0
vn 0.9649843573570251 -0.26230719685554504 -0
vn 0.9649843573570251 -0.26230719685554504 -0
vn 0.9649843573570251 -0.26230719685554504 -0
vn 0.000004199140221317066 -0 -1
vn 0.000004199140221317066 -0 -1
vn 0.000004199140221317066 -0 -1
vn 0.8824432492256165 -0.4704188406467438 -0
vn 0.8824432492256165 -0.4704188406467438 -0
vn 0.8824432492256165 -0.4704188406467438 -0
vn 0 -0 -1
vn 0 -0 -1
vn 0 -0 -1
vn 0.9991592168807983 -0.04099833592772484 -0
vn 0.9991592168807983 -0.04099833592772484 -0
vn 0.9991592168807983 -0.04099833592772484 -0
vn 0.964968204498291 -0.26236698031425476 -0
vn 0.964968204498291 -0.26236698031425476 -0
vn 0.964968204498291 -0.26236698031425476 -0
vn -0.000001498872848060273 -0 -1
vn -0.000001498872848060273 -0 -1
vn -0.000001498872848060273 -0 -1
vn 0.983229398727417 0.18237300217151642 -0
vn 0.983229398727417 0.18237300217151642 -0
vn 0.983229398727417 0.18237300217151642 -0
vn 0.9991592168807983 -0.04099833592772484 -0
vn 0 -0 -0.9999999403953552
vn 0 -0 -0.9999999403953552
vn 0 -0 -0.9999999403953552
vn -0.00001617076304682996 -0 -1
vn -0.00001617076304682996 -0 -1
vn -0.00001617076304682996 -0 -1
vn 0.9832178354263306 0.18243496119976044 -0
vn 0.9832178354263306 0.18243496119976044 -0
vn 0.9832178354263306 0.18243496119976044 -0
vn 0 -0 -1
vn 0 -0 -1
vn 0 -0 -1
vn 0.9566313624382019 0.2913016676902771 -0
vn 0.9566313624382019 0.2913016676902771 -0
vn 0.9566313624382019 0.2913016676902771 -0
vn -0.0000007217798838610179 -0 -1
vn -0.0000007217798838610179 -0 -1
vn -0.0000007217798838610179 -0 -1
vn 0 -0 -1
vn 0.9566318988800049 0.29129940271377563 -0
vn 0.9566318988800049 0.29129940271377563 -0
vn 0.9566318988800049 0.29129940271377563 -0
f 3/3/3 2/2/2 1/1/1
f 6/6/6 5/5/5 4/4/4
f 9/9/9 8/8/8 7/7/7
f 12/12/12 11/11/11 10/10/10
f 15/15/15 14/14/14 13/13/13
f 18/18/18 17/17/17 16/16/16
f 21/21/21 20/20/20 19/19/19
f 24/24/24 23/23/23 22/22/22
f 27/27/27 26/26/26 25/25/25
f 30/30/30 29/29/29 28/28/28
f 33/33/33 32/32/32 31/31/31
f 36/36/36 35/35/35 34/34/34
f 39/39/39 38/38/38 37/37/37
f 42/42/42 41/41/41 40/40/40
f 45/45/45 44/44/44 43/43/43
f 48/48/48 47/47/47 46/46/46
f 51/51/51 50/50/50 49/49/49
f 54/54/54 53/53/53 52/52/52
f 45/45/45 43/43/43 55/55/55
f 58/58/58 57/57/57 56/56/56
f 61/61/61 60/60/60 59/59/59
f 64/64/64 63/63/63 62/62/62
f 67/67/67 66/66/66 65/65/65
f 70/70/70 69/69/69 68/68/68
f 73/73/73 72/72/72 71/71/71
f 74/74/74 67/67/67 65/65/65
f 77/77/77 76/76/76 75/75/75
