# VPXTOOL table OBJ file
# VPXTOOL OBJ file
# numVerts: 91 numFaces: 93
o LM_L_LB3_UnderPF
v 101.39051055908203 -762.1155395507813 -33.11201477050781
v 101.37140655517578 -730.636474609375 -33.11200714111328
v 71.42717742919922 -720.9271850585938 -33.112022399902344
v 101.39051055908203 -762.1155395507813 -33.11201477050781
v 105.17936706542969 -738.0989990234375 -33.11200714111328
v 101.37140655517578 -730.636474609375 -33.11200714111328
v 71.42717742919922 -720.9271850585938 -33.112022399902344
v 52.93974685668945 -746.4053955078125 -33.11203384399414
v 101.39051055908203 -762.1155395507813 -33.11201477050781
v 106.49503326416016 -746.3729248046875 -33.11200714111328
v 106.16788482666016 -750.5620727539063 -33.11200714111328
v 106.49503326416016 -746.3729248046875 -33.28255081176758
v 101.39051055908203 -762.1155395507813 -33.11201477050781
v 106.49503326416016 -746.3729248046875 -33.11200714111328
v 105.17936706542969 -738.0989990234375 -33.11200714111328
v 106.16788482666016 -750.5620727539063 -33.11200714111328
v 106.16788482666016 -750.5620727539063 -33.28255081176758
v 106.49503326416016 -746.3729248046875 -33.28255081176758
v 106.16788482666016 -750.5620727539063 -33.28255081176758
v 106.16788482666016 -750.5620727539063 -33.11200714111328
v 105.18946838378906 -754.6484985351563 -33.282554626464844
v 101.39051055908203 -762.1155395507813 -33.11201477050781
v 106.16788482666016 -750.5620727539063 -33.11200714111328
v 106.49503326416016 -746.3729248046875 -33.11200714111328
v 106.16788482666016 -750.5620727539063 -33.11200714111328
v 105.18946838378906 -754.6484985351563 -33.11201095581055
v 105.18946838378906 -754.6484985351563 -33.282554626464844
v 101.39051055908203 -762.1155395507813 -33.11201477050781
v 105.18946838378906 -754.6484985351563 -33.11201095581055
v 106.16788482666016 -750.5620727539063 -33.11200714111328
v 105.18946838378906 -754.6484985351563 -33.282554626464844
v 105.18946838378906 -754.6484985351563 -33.11201095581055
v 103.58381652832031 -758.531494140625 -33.282554626464844
v 105.18946838378906 -754.6484985351563 -33.11201095581055
v 103.58381652832031 -758.531494140625 -33.11201095581055
v 103.58381652832031 -758.531494140625 -33.282554626464844
v 101.39051055908203 -762.1155395507813 -33.11201477050781
v 103.58381652832031 -758.531494140625 -33.11201095581055
v 105.18946838378906 -754.6484985351563 -33.11201095581055
v 103.58381652832031 -758.531494140625 -33.282554626464844
v 103.58381652832031 -758.531494140625 -33.11201095581055
v 101.39051055908203 -762.1155395507813 -33.28255844116211
v 103.58381652832031 -758.531494140625 -33.11201095581055
v 101.39051055908203 -762.1155395507813 -33.11201477050781
v 101.39051055908203 -762.1155395507813 -33.28255844116211
v 52.93974685668945 -746.4053955078125 -33.11203384399414
v 88.00759887695313 -771.8511352539063 -33.112022399902344
v 101.39051055908203 -762.1155395507813 -33.11201477050781
v 101.39051055908203 -762.1155395507813 -33.28255844116211
v 101.39051055908203 -762.1155395507813 -33.11201477050781
v 98.6635513305664 -765.3123168945313 -33.28255844116211
v 98.6635513305664 -765.3123168945313 -33.11201477050781
v 95.47002410888672 -768.043212890625 -33.11201858520508
v 98.6635513305664 -765.3123168945313 -33.11201477050781
v 101.39051055908203 -762.1155395507813 -33.11201477050781
v 98.6635513305664 -765.3123168945313 -33.28255844116211
v 98.6635513305664 -765.3123168945313 -33.11201477050781
v 95.47002410888672 -768.043212890625 -33.282562255859375
v 52.93974685668945 -746.4053955078125 -33.11203384399414
v 71.45809936523438 -771.8612670898438 -33.112030029296875
v 88.00759887695313 -771.8511352539063 -33.112022399902344
v 98.6635513305664 -765.3123168945313 -33.11201477050781
v 95.47002410888672 -768.043212890625 -33.11201858520508
v 95.47002410888672 -768.043212890625 -33.282562255859375
v 88.00759887695313 -771.8511352539063 -33.112022399902344
v 95.47002410888672 -768.043212890625 -33.11201858520508
v 101.39051055908203 -762.1155395507813 -33.11201477050781
v 95.47002410888672 -768.043212890625 -33.282562255859375
v 95.47002410888672 -768.043212890625 -33.11201858520508
v 91.88866424560547 -770.2408447265625 -33.282562255859375
v 95.47002410888672 -768.043212890625 -33.11201858520508
v 91.88866424560547 -770.2408447265625 -33.11201858520508
v 91.88866424560547 -770.2408447265625 -33.282562255859375
v 88.00759887695313 -771.8511352539063 -33.112022399902344
v 91.88866424560547 -770.2408447265625 -33.11201858520508
v 95.47002410888672 -768.043212890625 -33.11201858520508
v 91.88866424560547 -770.2408447265625 -33.282562255859375
v 91.88866424560547 -770.2408447265625 -33.11201858520508
v 88.00759887695313 -771.8511352539063 -33.28256607055664
v 91.88866424560547 -770.2408447265625 -33.11201858520508
v 88.00759887695313 -771.8511352539063 -33.112022399902344
v 88.00759887695313 -771.8511352539063 -33.28256607055664
v 88.00759887695313 -771.8511352539063 -33.28256607055664
v 88.00759887695313 -771.8511352539063 -33.112022399902344
v 83.92240142822266 -772.8345336914063 -33.28256607055664
v 88.00759887695313 -771.8511352539063 -33.112022399902344
v 83.92240142822266 -772.8345336914063 -33.112022399902344
v 83.92240142822266 -772.8345336914063 -33.28256607055664
v 71.45809936523438 -771.8612670898438 -33.112030029296875
v 83.92240142822266 -772.8345336914063 -33.112022399902344
v 88.00759887695313 -771.8511352539063 -33.112022399902344
vt 0.9165977239608765 0.972211480140686
vt 0.9336484670639038 0.97217857837677
vt 0.9389378428459167 0.9756343364715576
vt 0.9165977239608765 0.972211480140686
vt 0.9295929074287415 0.9717471599578857
vt 0.9336484670639038 0.97217857837677
vt 0.9389378428459167 0.9756343364715576
vt 0.9250884056091309 0.9777832627296448
vt 0.9165977239608765 0.972211480140686
vt 0.9251060485839844 0.971605122089386
vt 0.9228383898735046 0.9716478586196899
vt 0.9250262975692749 0.9716047644615173
vt 0.9165977239608765 0.972211480140686
vt 0.9251060485839844 0.971605122089386
vt 0.9295929074287415 0.9717471599578857
vt 0.9228383898735046 0.9716478586196899
vt 0.9227585196495056 0.9716475009918213
vt 0.9250262975692749 0.9716047644615173
vt 0.9227585196495056 0.9716475009918213
vt 0.9228383898735046 0.9716478586196899
vt 0.9205489158630371 0.9717651009559631
vt 0.9165977239608765 0.972211480140686
vt 0.9228383898735046 0.9716478586196899
vt 0.9251060485839844 0.971605122089386
vt 0.9228383898735046 0.9716478586196899
vt 0.9206287860870361 0.9717654585838318
vt 0.9205489158630371 0.9717651009559631
vt 0.9165977239608765 0.972211480140686
vt 0.9206287860870361 0.9717654585838318
vt 0.9228383898735046 0.9716478586196899
vt 0.9205489158630371 0.9717651009559631
vt 0.9206287860870361 0.9717654585838318
vt 0.9184516072273254 0.9719545841217041
vt 0.9206287860870361 0.9717654585838318
vt 0.918531596660614 0.9719549417495728
vt 0.9184516072273254 0.9719545841217041
vt 0.9165977239608765 0.972211480140686
vt 0.918531596660614 0.9719549417495728
vt 0.9206287860870361 0.9717654585838318
vt 0.9184516072273254 0.9719545841217041
vt 0.918531596660614 0.9719549417495728
vt 0.9165177345275879 0.9722111821174622
vt 0.918531596660614 0.9719549417495728
vt 0.9165977239608765 0.972211480140686
vt 0.9165177345275879 0.9722111821174622
vt 0.9250884056091309 0.9777832627296448
vt 0.9113545417785645 0.973760724067688
vt 0.9165977239608765 0.972211480140686
vt 0.9165177345275879 0.9722111821174622
vt 0.9165977239608765 0.972211480140686
vt 0.9147944450378418 0.9725285172462463
vt 0.9148745536804199 0.9725288152694702
vt 0.9134037494659424 0.9728990197181702
vt 0.9148745536804199 0.9725288152694702
vt 0.9165977239608765 0.972211480140686
vt 0.9147944450378418 0.9725285172462463
vt 0.9148745536804199 0.9725288152694702
vt 0.9133236408233643 0.9728987216949463
vt 0.9250884056091309 0.9777832627296448
vt 0.9113491177558899 0.9756631255149841
vt 0.9113545417785645 0.973760724067688
vt 0.9148745536804199 0.9725288152694702
vt 0.9134037494659424 0.9728990197181702
vt 0.9133236408233643 0.9728987216949463
vt 0.9113545417785645 0.973760724067688
vt 0.9134037494659424 0.9728990197181702
vt 0.9165977239608765 0.972211480140686
vt 0.9133236408233643 0.9728987216949463
vt 0.9134037494659424 0.9728990197181702
vt 0.9121406674385071 0.9733127355575562
vt 0.9134037494659424 0.9728990197181702
vt 0.9122207760810852 0.97331303358078
vt 0.9121406674385071 0.9733127355575562
vt 0.9113545417785645 0.973760724067688
vt 0.9122207760810852 0.97331303358078
vt 0.9134037494659424 0.9728990197181702
vt 0.9121406674385071 0.9733127355575562
vt 0.9122207760810852 0.97331303358078
vt 0.9112744331359863 0.9737604260444641
vt 0.9122207760810852 0.97331303358078
vt 0.9113545417785645 0.973760724067688
vt 0.9112744331359863 0.9737604260444641
vt 0.9112744331359863 0.9737604260444641
vt 0.9113545417785645 0.973760724067688
vt 0.9107455015182495 0.9742308855056763
vt 0.9113545417785645 0.973760724067688
vt 0.9108257293701172 0.9742311239242554
vt 0.9107455015182495 0.9742308855056763
vt 0.9113491177558899 0.9756631255149841
vt 0.9108257293701172 0.9742311239242554
vt 0.9113545417785645 0.973760724067688
vn 0.00000042400887423355016 0.0000002195757957679234 -1
vn 0.00000042400887423355016 0.0000002195757957679234 -1
vn 0.00000042400887423355016 0.0000002195757957679234 -1
vn 0 0.00000021951433382128016 -1
vn 0 0.00000021951433382128016 -1
vn 0 0.00000021951433382128016 -1
vn 0.0000005241079179540975 0.00000011975210156833782 -1
vn 0.0000005241079179540975 0.00000011975210156833782 -1
vn 0.0000005241079179540975 0.00000011975210156833782 -1
vn -0.9969644546508789 0.07785844057798386 -0
vn -0.9969644546508789 0.07785844057798386 -0
vn -0.9969644546508789 0.07785844057798386 -0
vn 0.0000015870798506512074 0.00000014426017003188463 -0.9999999403953552
vn 0.0000015870798506512074 0.00000014426017003188463 -0.9999999403953552
vn 0.0000015870798506512074 0.00000014426017003188463 -0.9999999403953552
vn -0.9969645738601685 0.07785681635141373 -0
vn -0.9969645738601685 0.07785681635141373 -0
vn -0.9969645738601685 0.07785681635141373 -0
vn -0.9725133180618286 0.23284731805324554 -0
vn -0.9725133180618286 0.23284731805324554 -0
vn -0.9725133180618286 0.23284731805324554 -0
vn 0 -0.0000001390863104688833 -1
vn 0 -0.0000001390863104688833 -1
vn 0 -0.0000001390863104688833 -1
vn -0.9725149273872375 0.23284058272838593 -0
vn -0.9725149273872375 0.23284058272838593 -0
vn -0.9725149273872375 0.23284058272838593 -0
vn 0 0.0000011844527989524067 -0.9999999403953552
vn 0 0.0000011844527989524067 -0.9999999403953552
vn 0 0.0000011844527989524067 -0.9999999403953552
vn -0.924113929271698 0.38211706280708313 -0
vn -0.924113929271698 0.38211706280708313 -0
vn -0.924113929271698 0.38211706280708313 -0
vn -0.9241088032722473 0.38212937116622925 -0
vn -0.9241088032722473 0.38212937116622925 -0
vn -0.9241088032722473 0.38212937116622925 -0
vn 0.0000180871084012324 -0.0000020064283035026165 -1
vn 0.0000180871084012324 -0.0000020064283035026165 -1
vn 0.0000180871084012324 -0.0000020064283035026165 -1
vn -0.85295170545578 0.5219898819923401 -0
vn -0.85295170545578 0.5219898819923401 -0
vn -0.85295170545578 0.5219898819923401 -0
vn -0.8529604077339172 0.5219756960868835 -0
vn -0.8529604077339172 0.5219756960868835 -0
vn -0.8529604077339172 0.5219756960868835 -0
vn 0.0000005859658926965494 0.00000015174606460277573 -1
vn 0.0000005859658926965494 0.00000015174606460277573 -1
vn 0.0000005859658926965494 0.00000015174606460277573 -1
vn -0.7607948184013367 0.6489924192428589 -0
vn -0.7607948184013367 0.6489924192428589 -0
vn -0.7607948184013367 0.6489924192428589 -0
vn -0.7607948184013367 0.6489924192428589 -0
vn 0 -0.0000034081092508131405 -1
vn 0 -0.0000034081092508131405 -1
vn 0 -0.0000034081092508131405 -1
vn -0.649910569190979 0.7600107789039612 -0
vn -0.649910569190979 0.7600107789039612 -0
vn -0.649910569190979 0.7600107789039612 -0
vn 0 0.00000016774583855294622 -1
vn 0 0.00000016774583855294622 -1
vn 0 0.00000016774583855294622 -1
vn -0.6499218344688416 0.760001003742218 -0
vn -0.6499218344688416 0.760001003742218 -0
vn -0.6499218344688416 0.760001003742218 -0
vn 0 0.0000002453324441376026 -1
vn 0 0.0000002453324441376026 -1
vn 0 0.0000002453324441376026 -1
vn -0.5230236649513245 0.8523182272911072 -0
vn -0.5230236649513245 0.8523182272911072 -0
vn -0.5230236649513245 0.8523182272911072 -0
vn -0.5230109691619873 0.852325975894928 -0
vn -0.5230109691619873 0.852325975894928 -0
vn -0.5230109691619873 0.852325975894928 -0
vn 0 -0.000004473978151509073 -1
vn 0 -0.000004473978151509073 -1
vn 0 -0.000004473978151509073 -1
vn -0.3832191824913025 0.9236573576927185 -0
vn -0.3832191824913025 0.9236573576927185 -0
vn -0.3832191824913025 0.9236573576927185 -0
vn -0.38322052359580994 0.9236568808555603 -0
vn -0.38322052359580994 0.9236568808555603 -0
vn -0.38322052359580994 0.9236568808555603 -0
vn -0.23402340710163116 0.9722309112548828 -0
vn -0.23402340710163116 0.9722309112548828 -0
vn -0.23402340710163116 0.9722309112548828 -0
vn -0.23403987288475037 0.9722269773483276 -0
vn -0.23403987288475037 0.9722269773483276 -0
vn -0.23403987288475037 0.9722269773483276 -0
vn 0.0000007693254815421824 -0.0000017370631439916906 -1
vn 0.0000007693254815421824 -0.0000017370631439916906 -1
vn 0.0000007693254815421824 -0.0000017370631439916906 -1
f 3/3/3 2/2/2 1/1/1
f 6/6/6 5/5/5 4/4/4
f 9/9/9 8/8/8 7/7/7
f 12/12/12 11/11/11 10/10/10
f 15/15/15 14/14/14 13/13/13
f 18/18/18 17/17/17 16/16/16
f 21/21/21 20/20/20 19/19/19
f 24/24/24 23/23/23 22/22/22
f 27/27/27 26/26/26 25/25/25
f 30/30/30 29/29/29 28/28/28
f 33/33/33 32/32/32 31/31/31
f 36/36/36 35/35/35 34/34/34
f 39/39/39 38/38/38 37/37/37
f 42/42/42 41/41/41 40/40/40
f 45/45/45 44/44/44 43/43/43
f 48/48/48 47/47/47 46/46/46
f 51/51/51 50/50/50 49/49/49
f 51/51/51 52/52/52 50/50/50
f 55/55/55 54/54/54 53/53/53
f 58/58/58 57/57/57 56/56/56
f 61/61/61 60/60/60 59/59/59
f 64/64/64 63/63/63 62/62/62
f 67/67/67 66/66/66 65/65/65
f 70/70/70 69/69/69 68/68/68
f 73/73/73 72/72/72 71/71/71
f 76/76/76 75/75/75 74/74/74
f 79/79/79 78/78/78 77/77/77
f 82/82/82 81/81/81 80/80/80
f 85/85/85 84/84/84 83/83/83
f 88/88/88 87/87/87 86/86/86
f 91/91/91 90/90/90 89/89/89
