# VPXTOOL table OBJ file
# VPXTOOL OBJ file
# numVerts: 20 numFaces: 30
o VR_Asteroid_Floor
v -1.5 0.06663099676370621 1.4999979734420776
v -4.500001907348633 0.06663099676370621 1.4999979734420776
v -1.5 0.06663200259208679 -1.4999979734420776
v -1.5 0.06663200259208679 -1.4999979734420776
v -4.500001907348633 0.06663200259208679 -1.4999979734420776
v -1.5 0 -1.4999979734420776
v -4.500001907348633 0.06663099676370621 1.4999979734420776
v -4.500001907348633 -0 1.4999979734420776
v -4.500001907348633 0.06663200259208679 -1.4999979734420776
v -4.500001907348633 0.06663099676370621 1.4999979734420776
v -1.5 0.06663099676370621 1.4999979734420776
v -4.500001907348633 -0 1.4999979734420776
v -1.5 0.06663099676370621 1.4999979734420776
v -1.5 0.06663200259208679 -1.4999979734420776
v -1.5 -0.0000009999999974752427 1.4999979734420776
v -4.500001907348633 0.06663200259208679 -1.4999979734420776
v -4.500001907348633 0.0000009999999974752427 -1.4999979734420776
v -4.500001907348633 0.0000009999999974752427 -1.4999979734420776
v -1.5 -0.0000009999999974752427 1.4999979734420776
v -1.5 0 -1.4999979734420776
vt 0.021371999755501747 0.9786329865455627
vt 0.021376000717282295 0.021393001079559326
vt 0.9786069989204407 0.9785900115966797
vt 0.9786069989204407 0.9785900115966797
vt 0.9786069989204407 0.021363019943237305
vt 0.9998660087585449 0.9785940051078796
vt 0.021376000717282295 0.021393001079559326
vt 0.021376000717282295 0.0001379847526550293
vt 0.9786069989204407 0.021363019943237305
vt 0.021376000717282295 0.021393001079559326
vt 0.021371999755501747 0.9786329865455627
vt 0.00012099999730708078 0.021389007568359375
vt 0.021371999755501747 0.9786329865455627
vt 0.9786069989204407 0.9785900115966797
vt 0.021371999755501747 0.9998999834060669
vt 0.9786069989204407 0.021363019943237305
vt 0.9998660087585449 0.021367013454437256
vt 0.9786109924316406 0.00010001659393310547
vt 0.00009999999747378752 0.9786199927330017
vt 0.9786030054092407 0.9998329877853394
vn 0 1 0
vn 0 1 0
vn 0 1 0
vn 0 0 -1
vn 0 0 -1
vn 0 0 -1
vn -1 0 0
vn -1 0 0
vn -1 0 0
vn 0 0 1
vn 0 0 1
vn 0 0 1
vn 1 0 0
vn 1 0 0
vn 1 0 0
vn 0 1 0
vn 0 0 -1
vn -1 0 0
vn 0 0 1
vn 1 0 0
f 3/3/3 2/2/2 1/1/1
f 3/3/3 16/16/16 2/2/2
f 6/6/6 5/5/5 4/4/4
f 6/6/6 17/17/17 5/5/5
f 9/9/9 8/8/8 7/7/7
f 9/9/9 18/18/18 8/8/8
f 12/12/12 11/11/11 10/10/10
f 12/12/12 19/19/19 11/11/11
f 15/15/15 14/14/14 13/13/13
f 15/15/15 20/20/20 14/14/14
