# VPXTOOL table OBJ file
# VPXTOOL OBJ file
# numVerts: 125 numFaces: 138
o LM_L_LM3_UnderPF
v -8.386503219604492 -585.5059204101563 -12.153261184692383
v -14.19239330291748 -584.35107421875 -12.153261184692383
v -8.386503219604492 -585.5059204101563 -5.324187755584717
v -14.19239330291748 -584.35107421875 -12.153261184692383
v -19.998254776000977 -585.5059204101563 -12.153261184692383
v -14.19239330291748 -584.35107421875 -5.324187755584717
v -3.4645233154296875 -588.7947387695313 -12.153261184692383
v -8.386503219604492 -585.5059204101563 -12.153261184692383
v -3.4645233154296875 -588.7947387695313 -5.324187755584717
v -14.19239330291748 -584.35107421875 -12.153261184692383
v -14.19239330291748 -584.35107421875 -5.324187755584717
v -8.386503219604492 -585.5059204101563 -5.324187755584717
v -8.386503219604492 -585.5059204101563 -12.153261184692383
v -8.386503219604492 -585.5059204101563 -5.324187755584717
v -3.4645233154296875 -588.7947387695313 -5.324187755584717
v -19.998254776000977 -585.5059204101563 -12.153261184692383
v -19.998254776000977 -585.5059204101563 -5.324187755584717
v -14.19239330291748 -584.35107421875 -5.324187755584717
v -19.998254776000977 -585.5059204101563 -12.153261184692383
v -24.92023468017578 -588.7947387695313 -12.153261184692383
v -19.998254776000977 -585.5059204101563 -5.324187755584717
v -3.4645233154296875 -588.7947387695313 -5.324187755584717
v -8.386503219604492 -585.5059204101563 -5.324187755584717
v -14.19239330291748 -584.35107421875 -5.324187755584717
v -0.1757771074771881 -593.7166748046875 -12.153261184692383
v -3.4645233154296875 -588.7947387695313 -12.153261184692383
v -0.1757771074771881 -593.7166748046875 -5.324187755584717
v -3.4645233154296875 -588.7947387695313 -12.153261184692383
v -3.4645233154296875 -588.7947387695313 -5.324187755584717
v -0.1757771074771881 -593.7166748046875 -5.324187755584717
v -14.19239330291748 -584.35107421875 -5.324187755584717
v -19.998254776000977 -585.5059204101563 -5.324187755584717
v -24.92023468017578 -588.7947387695313 -5.324187755584717
v -24.92023468017578 -588.7947387695313 -12.153261184692383
v -24.92023468017578 -588.7947387695313 -5.324187755584717
v -19.998254776000977 -585.5059204101563 -5.324187755584717
v -14.19239330291748 -584.35107421875 -5.324187755584717
v -0.1757771074771881 -593.7166748046875 -5.324187755584717
v -3.4645233154296875 -588.7947387695313 -5.324187755584717
v -24.92023468017578 -588.7947387695313 -12.153261184692383
v -28.209009170532227 -593.7166748046875 -12.153261184692383
v -24.92023468017578 -588.7947387695313 -5.324187755584717
v 0.9791008234024048 -599.5225830078125 -5.324187755584717
v 0.9791008234024048 -599.5225830078125 -12.153261184692383
v -0.1757771074771881 -593.7166748046875 -12.153261184692383
v 0.9791008234024048 -599.5225830078125 -5.324187755584717
v -0.1757771074771881 -593.7166748046875 -12.153261184692383
v -0.1757771074771881 -593.7166748046875 -5.324187755584717
v 0.9791008234024048 -599.5225830078125 -5.324187755584717
v -28.209009170532227 -593.7166748046875 -12.153261184692383
v -28.209009170532227 -593.7166748046875 -5.324187755584717
v -24.92023468017578 -588.7947387695313 -5.324187755584717
v -28.209009170532227 -593.7166748046875 -12.153261184692383
v -29.363859176635742 -599.5225830078125 -12.153261184692383
v -28.209009170532227 -593.7166748046875 -5.324187755584717
v -24.92023468017578 -588.7947387695313 -5.324187755584717
v -28.209009170532227 -593.7166748046875 -5.324187755584717
v -29.363859176635742 -599.5225830078125 -5.324187755584717
v -14.19239330291748 -614.6940307617188 -5.324187755584717
v 0.9791008234024048 -599.5225830078125 -12.153261184692383
v 0.9791008234024048 -599.5225830078125 -5.324187755584717
v -0.1757771074771881 -605.3284301757813 -5.324187755584717
v -0.1757771074771881 -605.3284301757813 -12.153261184692383
v 0.9791008234024048 -599.5225830078125 -12.153261184692383
v -0.1757771074771881 -605.3284301757813 -5.324187755584717
v -29.363859176635742 -599.5225830078125 -12.153261184692383
v -29.363859176635742 -599.5225830078125 -5.324187755584717
v -28.209009170532227 -593.7166748046875 -5.324187755584717
v -29.363859176635742 -599.5225830078125 -12.153261184692383
v -28.209009170532227 -605.3284301757813 -12.153261184692383
v -29.363859176635742 -599.5225830078125 -5.324187755584717
v -3.4645233154296875 -610.2504272460938 -12.153261184692383
v -0.1757771074771881 -605.3284301757813 -12.153261184692383
v -3.4645233154296875 -610.2504272460938 -5.324187755584717
v -0.1757771074771881 -605.3284301757813 -12.153261184692383
v -0.1757771074771881 -605.3284301757813 -5.324187755584717
v -3.4645233154296875 -610.2504272460938 -5.324187755584717
v -28.209009170532227 -605.3284301757813 -12.153261184692383
v -28.209009170532227 -605.3284301757813 -5.324187755584717
v -29.363859176635742 -599.5225830078125 -5.324187755584717
v -14.19239330291748 -614.6940307617188 -5.324187755584717
v -0.1757771074771881 -605.3284301757813 -5.324187755584717
v 0.9791008234024048 -599.5225830078125 -5.324187755584717
v -28.209009170532227 -605.3284301757813 -12.153261184692383
v -24.92023468017578 -610.2504272460938 -12.153261184692383
v -28.209009170532227 -605.3284301757813 -5.324187755584717
v -28.209009170532227 -605.3284301757813 -5.324187755584717
v -24.92023468017578 -610.2504272460938 -5.324187755584717
v -8.386503219604492 -613.5391235351563 -12.153261184692383
v -3.4645233154296875 -610.2504272460938 -12.153261184692383
v -8.386503219604492 -613.5391235351563 -5.324187755584717
v -3.4645233154296875 -610.2504272460938 -12.153261184692383
v -3.4645233154296875 -610.2504272460938 -5.324187755584717
v -8.386503219604492 -613.5391235351563 -5.324187755584717
v -24.92023468017578 -610.2504272460938 -12.153261184692383
v -24.92023468017578 -610.2504272460938 -5.324187755584717
v -28.209009170532227 -605.3284301757813 -5.324187755584717
v -14.19239330291748 -614.6940307617188 -5.324187755584717
v -3.4645233154296875 -610.2504272460938 -5.324187755584717
v -0.1757771074771881 -605.3284301757813 -5.324187755584717
v -24.92023468017578 -610.2504272460938 -12.153261184692383
v -19.998254776000977 -613.5391235351563 -12.153261184692383
v -24.92023468017578 -610.2504272460938 -5.324187755584717
v -29.363859176635742 -599.5225830078125 -5.324187755584717
v -24.92023468017578 -610.2504272460938 -5.324187755584717
v -14.19239330291748 -614.6940307617188 -5.324187755584717
v -14.19239330291748 -614.6940307617188 -12.153261184692383
v -8.386503219604492 -613.5391235351563 -12.153261184692383
v -14.19239330291748 -614.6940307617188 -5.324187755584717
v -19.998254776000977 -613.5391235351563 -12.153261184692383
v -14.19239330291748 -614.6940307617188 -12.153261184692383
v -19.998254776000977 -613.5391235351563 -5.324187755584717
v -8.386503219604492 -613.5391235351563 -12.153261184692383
v -8.386503219604492 -613.5391235351563 -5.324187755584717
v -14.19239330291748 -614.6940307617188 -5.324187755584717
v -19.998254776000977 -613.5391235351563 -12.153261184692383
v -19.998254776000977 -613.5391235351563 -5.324187755584717
v -24.92023468017578 -610.2504272460938 -5.324187755584717
v -14.19239330291748 -614.6940307617188 -5.324187755584717
v -8.386503219604492 -613.5391235351563 -5.324187755584717
v -3.4645233154296875 -610.2504272460938 -5.324187755584717
v -14.19239330291748 -614.6940307617188 -12.153261184692383
v -14.19239330291748 -614.6940307617188 -5.324187755584717
v -19.998254776000977 -613.5391235351563 -5.324187755584717
v -19.998254776000977 -613.5391235351563 -5.324187755584717
vt 0.005780152510851622 0.8295971751213074
vt 0.005991791374981403 0.8309586644172668
vt 0.006809971760958433 0.8295814394950867
vt 0.005991791374981403 0.8309586644172668
vt 0.005780152510851622 0.8323166370391846
vt 0.007021397352218628 0.8309406042098999
vt 0.005177877843379974 0.8284406065940857
vt 0.005780152510851622 0.8295971751213074
vt 0.006208194885402918 0.8284268379211426
vt 0.005991791374981403 0.8309586644172668
vt 0.007021397352218628 0.8309406042098999
vt 0.006809971760958433 0.8295814394950867
vt 0.005780152510851622 0.8295971751213074
vt 0.006809971760958433 0.8295814394950867
vt 0.006208194885402918 0.8284268379211426
vt 0.005780152510851622 0.8323166370391846
vt 0.006809971760958433 0.8322963118553162
vt 0.007021397352218628 0.8309406042098999
vt 0.005780152510851622 0.8323166370391846
vt 0.005177877843379974 0.8334631323814392
vt 0.006809971760958433 0.8322963118553162
vt 0.006208194885402918 0.8284268379211426
vt 0.006809971760958433 0.8295814394950867
vt 0.007021397352218628 0.8309406042098999
vt 0.00427752360701561 0.8276655673980713
vt 0.005177877843379974 0.8284406065940857
vt 0.005308658815920353 0.8276530504226685
vt 0.005177877843379974 0.8284406065940857
vt 0.006208194885402918 0.8284268379211426
vt 0.005308658815920353 0.8276530504226685
vt 0.007021397352218628 0.8309406042098999
vt 0.006809971760958433 0.8322963118553162
vt 0.006208194885402918 0.8334409594535828
vt 0.005177877843379974 0.8334631323814392
vt 0.006208194885402918 0.8334409594535828
vt 0.006809971760958433 0.8322963118553162
vt 0.007021397352218628 0.8309406042098999
vt 0.005308658815920353 0.8276530504226685
vt 0.006208194885402918 0.8284268379211426
vt 0.005177877843379974 0.8334631323814392
vt 0.00427752360701561 0.834223210811615
vt 0.006208194885402918 0.8334409594535828
vt 0.004249184392392635 0.827377438545227
vt 0.0032171248458325863 0.8273894786834717
vt 0.00427752360701561 0.8276655673980713
vt 0.004249184392392635 0.827377438545227
vt 0.00427752360701561 0.8276655673980713
vt 0.005308658815920353 0.8276530504226685
vt 0.004249184392392635 0.827377438545227
vt 0.00427752360701561 0.834223210811615
vt 0.005308658815920353 0.8341997861862183
vt 0.006208194885402918 0.8334409594535828
vt 0.00427752360701561 0.834223210811615
vt 0.0032171248458325863 0.8344815969467163
vt 0.005308658815920353 0.8341997861862183
vt 0.006208194885402918 0.8334409594535828
vt 0.005308658815920353 0.8341997861862183
vt 0.004249184392392635 0.8344577550888062
vt 0.0014888119185343385 0.8308947086334229
vt 0.0032171248458325863 0.8273894786834717
vt 0.004249184392392635 0.827377438545227
vt 0.0031914522405713797 0.8276407718658447
vt 0.0021584683563560247 0.8276532888412476
vt 0.0032171248458325863 0.8273894786834717
vt 0.0031914522405713797 0.8276407718658447
vt 0.0032171248458325863 0.8344815969467163
vt 0.004249184392392635 0.8344577550888062
vt 0.005308658815920353 0.8341997861862183
vt 0.0032171248458325863 0.8344815969467163
vt 0.0021584683563560247 0.8342002034187317
vt 0.004249184392392635 0.8344577550888062
vt 0.0012623099610209465 0.8284156322479248
vt 0.0021584683563560247 0.8276532888412476
vt 0.0022960761561989784 0.8284018635749817
vt 0.0021584683563560247 0.8276532888412476
vt 0.0031914522405713797 0.8276407718658447
vt 0.0022960761561989784 0.8284018635749817
vt 0.0021584683563560247 0.8342002034187317
vt 0.0031914522405713797 0.8341768383979797
vt 0.004249184392392635 0.8344577550888062
vt 0.0014888119185343385 0.8308947086334229
vt 0.0031914522405713797 0.8276407718658447
vt 0.004249184392392635 0.827377438545227
vt 0.0021584683563560247 0.8342002034187317
vt 0.0012623099610209465 0.8334228992462158
vt 0.0031914522405713797 0.8341768383979797
vt 0.0031914522405713797 0.8341768383979797
vt 0.0022960761561989784 0.8334008455276489
vt 0.0006642666412517428 0.8295599222183228
vt 0.0012623099610209465 0.8284156322479248
vt 0.0016984951216727495 0.8295443058013916
vt 0.0012623099610209465 0.8284156322479248
vt 0.0022960761561989784 0.8284018635749817
vt 0.0016984951216727495 0.8295443058013916
vt 0.0012623099610209465 0.8334228992462158
vt 0.0022960761561989784 0.8334008455276489
vt 0.0031914522405713797 0.8341768383979797
vt 0.0014888119185343385 0.8308947086334229
vt 0.0022960761561989784 0.8284018635749817
vt 0.0031914522405713797 0.8276407718658447
vt 0.0012623099610209465 0.8334228992462158
vt 0.0006642666412517428 0.8322685956954956
vt 0.0022960761561989784 0.8334008455276489
vt 0.004249184392392635 0.8344577550888062
vt 0.0022960761561989784 0.8334008455276489
vt 0.0014888119185343385 0.8308947086334229
vt 0.0004543700779322535 0.8309125304222107
vt 0.0006642666412517428 0.8295599222183228
vt 0.0014888119185343385 0.8308947086334229
vt 0.0006642666412517428 0.8322685956954956
vt 0.0004543700779322535 0.8309125304222107
vt 0.0016984951216727495 0.8322485089302063
vt 0.0006642666412517428 0.8295599222183228
vt 0.0016984951216727495 0.8295443058013916
vt 0.0014888119185343385 0.8308947086334229
vt 0.0006642666412517428 0.8322685956954956
vt 0.0016984951216727495 0.8322485089302063
vt 0.0022960761561989784 0.8334008455276489
vt 0.0014888119185343385 0.8308947086334229
vt 0.0016984951216727495 0.8295443058013916
vt 0.0022960761561989784 0.8284018635749817
vt 0.0004543700779322535 0.8309125304222107
vt 0.0014888119185343385 0.8308947086334229
vt 0.0016984951216727495 0.8322485089302063
vt 0.0016984951216727495 0.8322485089302063
vn -0.19508367776870728 -0.9807866215705872 -0
vn -0.19508367776870728 -0.9807866215705872 -0
vn -0.19508367776870728 -0.9807866215705872 -0
vn 0.1950846165418625 -0.9807864427566528 -0
vn 0.1950846165418625 -0.9807864427566528 -0
vn 0.1950846165418625 -0.9807864427566528 -0
vn -0.5555781722068787 -0.8314643502235413 -0
vn -0.5555781722068787 -0.8314643502235413 -0
vn -0.5555781722068787 -0.8314643502235413 -0
vn -0.19508375227451324 -0.9807865023612976 -0
vn -0.19508375227451324 -0.9807865023612976 -0
vn -0.19508375227451324 -0.9807865023612976 -0
vn -0.5555780529975891 -0.8314643502235413 -0
vn -0.5555780529975891 -0.8314643502235413 -0
vn -0.5555780529975891 -0.8314643502235413 -0
vn 0.19508454203605652 -0.9807864427566528 -0
vn 0.19508454203605652 -0.9807864427566528 -0
vn 0.19508454203605652 -0.9807864427566528 -0
vn 0.5555782318115234 -0.8314642310142517 -0
vn 0.5555782318115234 -0.8314642310142517 -0
vn 0.5555782318115234 -0.8314642310142517 -0
vn -0.00000023279895344785473 -0 -1
vn -0.00000023279895344785473 -0 -1
vn -0.00000023279895344785473 -0 -1
vn -0.8314707279205322 -0.5555684566497803 -0
vn -0.8314707279205322 -0.5555684566497803 -0
vn -0.8314707279205322 -0.5555684566497803 -0
vn -0.8314709067344666 -0.5555684566497803 -0
vn -0.8314709067344666 -0.5555684566497803 -0
vn -0.8314709067344666 -0.5555684566497803 -0
vn 0.00000011639600927537685 -0 -1
vn 0.00000011639600927537685 -0 -1
vn 0.00000011639600927537685 -0 -1
vn 0.5555780529975891 -0.8314643502235413 -0
vn 0.5555780529975891 -0.8314643502235413 -0
vn 0.5555780529975891 -0.8314643502235413 -0
vn 0 -0 -1
vn 0 -0 -1
vn 0 -0 -1
vn 0.8314685225486755 -0.5555718541145325 -0
vn 0.8314685225486755 -0.5555718541145325 -0
vn 0.8314685225486755 -0.5555718541145325 -0
vn 0 -0 -1
vn -0.9807846546173096 -0.19509357213974 -0
vn -0.9807846546173096 -0.19509357213974 -0
vn -0.9807846546173096 -0.19509357213974 -0
vn -0.9807846546173096 -0.19509363174438477 -0
vn -0.9807846546173096 -0.19509363174438477 -0
vn -0.9807846546173096 -0.19509363174438477 -0
vn 0.8314688205718994 -0.5555713176727295 -0
vn 0.8314688205718994 -0.5555713176727295 -0
vn 0.8314688205718994 -0.5555713176727295 -0
vn 0.9807854294776917 -0.19508937001228333 -0
vn 0.9807854294776917 -0.19508937001228333 -0
vn 0.9807854294776917 -0.19508937001228333 -0
vn 0 -0 -1
vn 0 -0 -1
vn 0 -0 -1
vn 0 -0 -1
vn -0.9807846546173096 0.19509360194206238 -0
vn -0.9807846546173096 0.19509360194206238 -0
vn -0.9807846546173096 0.19509360194206238 -0
vn -0.9807846546173096 0.19509358704090118 -0
vn -0.9807846546173096 0.19509358704090118 -0
vn -0.9807846546173096 0.19509358704090118 -0
vn 0.9807856678962708 -0.19508881866931915 -0
vn 0.9807856678962708 -0.19508881866931915 -0
vn 0.9807856678962708 -0.19508881866931915 -0
vn 0.980785608291626 0.19508878886699677 -0
vn 0.980785608291626 0.19508878886699677 -0
vn 0.980785608291626 0.19508878886699677 -0
vn -0.8314707279205322 0.5555684566497803 -0
vn -0.8314707279205322 0.5555684566497803 -0
vn -0.8314707279205322 0.5555684566497803 -0
vn -0.8314709067344666 0.5555684566497803 -0
vn -0.8314709067344666 0.5555684566497803 -0
vn -0.8314709067344666 0.5555684566497803 -0
vn 0.9807854890823364 0.1950893998146057 -0
vn 0.9807854890823364 0.1950893998146057 -0
vn 0.9807854890823364 0.1950893998146057 -0
vn -0.00000008848480348433441 -0 -1
vn -0.00000008848480348433441 -0 -1
vn -0.00000008848480348433441 -0 -1
vn 0.8314687609672546 0.5555713772773743 -0
vn 0.8314687609672546 0.5555713772773743 -0
vn 0.8314687609672546 0.5555713772773743 -0
vn 0 -0 -1
vn 0 -0 -1
vn -0.5555652976036072 0.8314728140830994 -0
vn -0.5555652976036072 0.8314728140830994 -0
vn -0.5555652976036072 0.8314728140830994 -0
vn -0.5555651187896729 0.8314730525016785 -0
vn -0.5555651187896729 0.8314730525016785 -0
vn -0.5555651187896729 0.8314730525016785 -0
vn 0.8314686417579651 0.5555717945098877 -0
vn 0.8314686417579651 0.5555717945098877 -0
vn 0.8314686417579651 0.5555717945098877 -0
vn -0.00000008175149446287833 -0 -1
vn -0.00000008175149446287833 -0 -1
vn -0.00000008175149446287833 -0 -1
vn 0.5555652976036072 0.8314728140830994 -0
vn 0.5555652976036072 0.8314728140830994 -0
vn 0.5555652976036072 0.8314728140830994 -0
vn 0.0000001309778241420645 -0 -0.9999999403953552
vn 0.0000001309778241420645 -0 -0.9999999403953552
vn 0.0000001309778241420645 -0 -0.9999999403953552
vn -0.19509270787239075 0.9807847738265991 -0
vn -0.19509270787239075 0.9807847738265991 -0
vn -0.19509270787239075 0.9807847738265991 -0
vn 0.19509348273277283 0.9807846546173096 -0
vn 0.19509348273277283 0.9807846546173096 -0
vn 0.19509348273277283 0.9807846546173096 -0
vn -0.19509267807006836 0.9807848334312439 -0
vn -0.19509267807006836 0.9807848334312439 -0
vn -0.19509267807006836 0.9807848334312439 -0
vn 0.5555651783943176 0.8314728736877441 -0
vn 0.5555651783943176 0.8314728736877441 -0
vn 0.5555651783943176 0.8314728736877441 -0
vn 0.00000005820147208623894 -0 -1
vn 0.00000005820147208623894 -0 -1
vn 0.00000005820147208623894 -0 -1
vn 0.19509363174438477 0.9807846546173096 -0
vn 0.19509363174438477 0.9807846546173096 -0
vn 0.19509363174438477 0.9807846546173096 -0
vn 0 -0 -1
f 3/3/3 2/2/2 1/1/1
f 6/6/6 5/5/5 4/4/4
f 9/9/9 8/8/8 7/7/7
f 12/12/12 11/11/11 10/10/10
f 15/15/15 14/14/14 13/13/13
f 18/18/18 17/17/17 16/16/16
f 21/21/21 20/20/20 19/19/19
f 24/24/24 23/23/23 22/22/22
f 27/27/27 26/26/26 25/25/25
f 30/30/30 29/29/29 28/28/28
f 33/33/33 32/32/32 31/31/31
f 36/36/36 35/35/35 34/34/34
f 39/39/39 38/38/38 37/37/37
f 42/42/42 41/41/41 40/40/40
f 38/38/38 43/43/43 37/37/37
f 46/46/46 45/45/45 44/44/44
f 49/49/49 48/48/48 47/47/47
f 52/52/52 51/51/51 50/50/50
f 55/55/55 54/54/54 53/53/53
f 58/58/58 57/57/57 56/56/56
f 56/56/56 37/37/37 59/59/59
f 62/62/62 61/61/61 60/60/60
f 65/65/65 64/64/64 63/63/63
f 68/68/68 67/67/67 66/66/66
f 37/37/37 43/43/43 59/59/59
f 71/71/71 70/70/70 69/69/69
f 58/58/58 56/56/56 59/59/59
f 74/74/74 73/73/73 72/72/72
f 77/77/77 76/76/76 75/75/75
f 80/80/80 79/79/79 78/78/78
f 83/83/83 82/82/82 81/81/81
f 86/86/86 85/85/85 84/84/84
f 88/88/88 87/87/87 58/58/58
f 91/91/91 90/90/90 89/89/89
f 94/94/94 93/93/93 92/92/92
f 97/97/97 96/96/96 95/95/95
f 100/100/100 99/99/99 98/98/98
f 103/103/103 102/102/102 101/101/101
f 106/106/106 105/105/105 104/104/104
f 109/109/109 108/108/108 107/107/107
f 112/112/112 111/111/111 110/110/110
f 115/115/115 114/114/114 113/113/113
f 118/118/118 117/117/117 116/116/116
f 121/121/121 120/120/120 119/119/119
f 124/124/124 123/123/123 122/122/122
f 59/59/59 125/125/125 88/88/88
