# VPXTOOL table OBJ file
# VPXTOOL OBJ file
# numVerts: 75 numFaces: 75
o LM_GI_gi01_swLI
v 2021.2559814453125 10298.2333984375 -42271.35546875
v 457.4668273925781 9405.802734375 -36906.8671875
v 2410.33740234375 31765.419921875 -34928.0625
v -2135.35400390625 30667.861328125 -38229.88671875
v -2571.7314453125 7738.09326171875 -40651.296875
v 2021.2559814453125 10298.2333984375 -42271.35546875
v -2135.35400390625 30667.861328125 -38229.88671875
v -1378.4503173828125 36018.1484375 -31905.9765625
v -2571.7314453125 7738.09326171875 -40651.296875
v 2410.33740234375 31765.419921875 -34928.0625
v 920.9834594726563 25583.541015625 -40615.96484375
v 2021.2559814453125 10298.2333984375 -42271.35546875
v 920.9834594726563 25583.541015625 -40615.96484375
v -2135.35400390625 30667.861328125 -38229.88671875
v 2021.2559814453125 10298.2333984375 -42271.35546875
v 2410.33740234375 31765.419921875 -34928.0625
v 921.5771484375 41305.7890625 -35196.03125
v 920.9834594726563 25583.541015625 -40615.96484375
v 921.5771484375 41305.7890625 -35196.03125
v -2135.35400390625 30667.861328125 -38229.88671875
v 920.9834594726563 25583.541015625 -40615.96484375
v -1378.4503173828125 36018.1484375 -31905.9765625
v -2135.35400390625 30667.861328125 -38229.88671875
v -2553.35595703125 64436.1640625 -17882.791015625
v -368.30291748046875 55916.00390625 -27271.31640625
v -2135.35400390625 30667.861328125 -38229.88671875
v 921.5771484375 41305.7890625 -35196.03125
v 2410.33740234375 31765.419921875 -34928.0625
v 2439.314208984375 61828.52734375 -21033.95703125
v 921.5771484375 41305.7890625 -35196.03125
v 2410.33740234375 31765.419921875 -34928.0625
v 464.5626220703125 52255.59375 -22685.5234375
v 2439.314208984375 61828.52734375 -21033.95703125
v -368.30291748046875 55916.00390625 -27271.31640625
v -2553.35595703125 64436.1640625 -17882.791015625
v -2135.35400390625 30667.861328125 -38229.88671875
v -368.30291748046875 55916.00390625 -27271.31640625
v 921.5771484375 41305.7890625 -35196.03125
v 2439.314208984375 61828.52734375 -21033.95703125
v 464.5626220703125 52255.59375 -22685.5234375
v 466.9938659667969 63427.484375 -13491.78515625
v 2439.314208984375 61828.52734375 -21033.95703125
v -368.30291748046875 55916.00390625 -27271.31640625
v 2439.314208984375 61828.52734375 -21033.95703125
v 927.4573364257813 67904.5625 -16966.43359375
v 927.4573364257813 67904.5625 -16966.43359375
v -2553.35595703125 64436.1640625 -17882.791015625
v -368.30291748046875 55916.00390625 -27271.31640625
v 466.9938659667969 63427.484375 -13491.78515625
v 1517.3978271484375 72652.359375 -2463.802001953125
v 2439.314208984375 61828.52734375 -21033.95703125
v -1371.63720703125 72886.890625 -1754.4625244140625
v 466.9938659667969 63427.484375 -13491.78515625
v -2553.35595703125 64436.1640625 -17882.791015625
v 175.04849243164063 77888.4375 -3870.277587890625
v 927.4573364257813 67904.5625 -16966.43359375
v 2439.314208984375 61828.52734375 -21033.95703125
v 175.04849243164063 77888.4375 -3870.277587890625
v -2553.35595703125 64436.1640625 -17882.791015625
v 927.4573364257813 67904.5625 -16966.43359375
v 2439.314208984375 61828.52734375 -21033.95703125
v 1517.3978271484375 72652.359375 -2463.802001953125
v 2056.395751953125 80082.421875 12494.818359375
v 175.04849243164063 77888.4375 -3870.277587890625
v 2439.314208984375 61828.52734375 -21033.95703125
v 2056.395751953125 80082.421875 12494.818359375
v -2522.343505859375 81608.1015625 11980.8134765625
v -2553.35595703125 64436.1640625 -17882.791015625
v 175.04849243164063 77888.4375 -3870.277587890625
v 2056.395751953125 80082.421875 12494.818359375
v 72.17357635498047 84807.375 10904.2587890625
v 175.04849243164063 77888.4375 -3870.277587890625
v 72.17357635498047 84807.375 10904.2587890625
v -2522.343505859375 81608.1015625 11980.8134765625
v 175.04849243164063 77888.4375 -3870.277587890625
vt 0.6769498586654663 0.16916489601135254
vt 0.6769623160362244 0.16927683353424072
vt 0.6772384643554688 0.1709820032119751
vt 0.6758778691291809 0.17080295085906982
vt 0.6760298609733582 0.1691858172416687
vt 0.6769498586654663 0.16916489601135254
vt 0.6758778691291809 0.17080295085906982
vt 0.6760793328285217 0.17134398221969604
vt 0.6760298609733582 0.1691858172416687
vt 0.6772384643554688 0.1709820032119751
vt 0.6766818761825562 0.17032486200332642
vt 0.6769498586654663 0.16916489601135254
vt 0.6766818761825562 0.17032486200332642
vt 0.6758778691291809 0.17080295085906982
vt 0.6769498586654663 0.16916489601135254
vt 0.6772384643554688 0.1709820032119751
vt 0.6765477657318115 0.17160063982009888
vt 0.6766818761825562 0.17032486200332642
vt 0.6765477657318115 0.17160063982009888
vt 0.6758778691291809 0.17080295085906982
vt 0.6766818761825562 0.17032486200332642
vt 0.6760793328285217 0.17134398221969604
vt 0.6758778691291809 0.17080295085906982
vt 0.675812840461731 0.17385566234588623
vt 0.6761955618858337 0.17288291454315186
vt 0.6758778691291809 0.17080295085906982
vt 0.6765477657318115 0.17160063982009888
vt 0.6772384643554688 0.1709820032119751
vt 0.6772546768188477 0.17346149682998657
vt 0.6765477657318115 0.17160063982009888
vt 0.6772384643554688 0.1709820032119751
vt 0.6765807271003723 0.17278379201889038
vt 0.6772546768188477 0.17346149682998657
vt 0.6761955618858337 0.17288291454315186
vt 0.675812840461731 0.17385566234588623
vt 0.6758778691291809 0.17080295085906982
vt 0.6761955618858337 0.17288291454315186
vt 0.6765477657318115 0.17160063982009888
vt 0.6772546768188477 0.17346149682998657
vt 0.6765807271003723 0.17278379201889038
vt 0.6766836047172546 0.17386043071746826
vt 0.6772546768188477 0.17346149682998657
vt 0.6761955618858337 0.17288291454315186
vt 0.6772546768188477 0.17346149682998657
vt 0.6766528487205505 0.17403626441955566
vt 0.6766528487205505 0.17403626441955566
vt 0.675812840461731 0.17385566234588623
vt 0.6761955618858337 0.17288291454315186
vt 0.6766836047172546 0.17386043071746826
vt 0.6773001551628113 0.1748495101928711
vt 0.6772546768188477 0.17346149682998657
vt 0.6764418482780457 0.1748480200767517
vt 0.6766836047172546 0.17386043071746826
vt 0.675812840461731 0.17385566234588623
vt 0.6766369938850403 0.17507123947143555
vt 0.6766528487205505 0.17403626441955566
vt 0.6772546768188477 0.17346149682998657
vt 0.6766369938850403 0.17507123947143555
vt 0.675812840461731 0.17385566234588623
vt 0.6766528487205505 0.17403626441955566
vt 0.6772546768188477 0.17346149682998657
vt 0.6773001551628113 0.1748495101928711
vt 0.6776111721992493 0.1758090853691101
vt 0.6766369938850403 0.17507123947143555
vt 0.6772546768188477 0.17346149682998657
vt 0.6776111721992493 0.1758090853691101
vt 0.6764142513275146 0.1758737564086914
vt 0.675812840461731 0.17385566234588623
vt 0.6766369938850403 0.17507123947143555
vt 0.6776111721992493 0.1758090853691101
vt 0.6770551204681396 0.17604607343673706
vt 0.6766369938850403 0.17507123947143555
vt 0.6770551204681396 0.17604607343673706
vt 0.6764142513275146 0.1758737564086914
vt 0.6766369938850403 0.17507123947143555
vn 0.9963093996047974 0.03751382231712341 -0.07720240950584412
vn 0.8569698333740234 -0.10651326179504395 0.5042396187782288
vn 0.9788659811019897 0.1982867270708084 0.05003567039966583
vn -0.5432325601577759 0.3096780776977539 -0.7803831100463867
vn -0.6058081388473511 -0.045704636722803116 -0.79429692029953
vn -0.08959333598613739 0.0824931263923645 -0.9925562143325806
vn -0.9662864804267883 -0.01209854707121849 -0.25718480348587036
vn -0.9374632835388184 -0.05619192123413086 0.3435189127922058
vn -0.9441395998001099 -0.14138364791870117 0.2976764738559723
vn 0.9623100161552429 0.26472756266593933 -0.062279775738716125
vn 0.8086155652999878 0.04575292766094208 -0.5865556001663208
vn 0.8037986755371094 0.05691399425268173 -0.5921726226806641
vn -0.2972780466079712 0.052658624947071075 -0.9533377885818481
vn -0.7460935711860657 0.18687662482261658 -0.639078676700592
vn -0.38755184412002563 -0.18495510518550873 -0.9031030535697937
vn 0.9880377054214478 -0.08220596611499786 -0.13047565519809723
vn 0.7834891080856323 0.2873844802379608 -0.5509583950042725
vn 0.777645468711853 0.17419806122779846 -0.604088306427002
vn 0.013842374086380005 0.5128538608551025 -0.8583643436431885
vn -0.42630642652511597 0.14698100090026855 -0.8925579190254211
vn 0.02185879647731781 0.12988488376140594 -0.9912881851196289
vn -0.8580690026283264 -0.18101441860198975 0.48057395219802856
vn -0.9919416904449463 -0.07230538129806519 -0.10403616726398468
vn -0.974888265132904 0.18603011965751648 0.12241615355014801
vn -0.6511011719703674 0.5229148268699646 -0.5501155853271484
vn -0.69994056224823 0.14300629496574402 -0.6997373104095459
vn -0.26924794912338257 0.4815738797187805 -0.8340216279029846
vn 0.9977415800094604 -0.02585936151444912 -0.06199288368225098
vn 0.999066174030304 0.016633152961730957 -0.039876073598861694
vn 0.7998915910720825 0.2812004089355469 -0.5301885604858398
vn 0.6383902430534363 -0.473990261554718 0.6064577698707581
vn 0.6424140930175781 -0.48056086897850037 0.5969634056091309
vn 0.915164053440094 0.05531573295593262 0.3992679715156555
vn -0.6922157406806946 0.2437237799167633 -0.679290771484375
vn -0.9438182711601257 0.3093279004096985 -0.11628975719213486
vn -0.7664138078689575 0.06836576759815216 -0.6386985778808594
vn 0.36797255277633667 0.43641233444213867 -0.8210606575012207
vn 0.456782728433609 0.26760467886924744 -0.8483733534812927
vn 0.7567901611328125 0.47752684354782104 -0.44635945558547974
vn 0.8007753491401672 -0.4522632360458374 0.39270442724227905
vn 0.7931341528892517 -0.4167567491531372 0.44413065910339355
vn 0.9795939922332764 -0.1836642324924469 -0.08162789791822433
vn 0.18452173471450806 0.45577213168144226 -0.8707603812217712
vn 0.6064865589141846 0.5749545693397522 -0.5491824746131897
vn 0.4951198101043701 0.7084678411483765 -0.5029213428497314
vn -0.20261326432228088 0.7808845639228821 -0.5909036993980408
vn -0.6824082732200623 0.49018821120262146 -0.542249321937561
vn -0.27052614092826843 0.4687659740447998 -0.8408769965171814
vn 0.6640546321868896 -0.5426310300827026 0.5143764615058899
vn 0.6475291848182678 -0.6127287745475769 0.4530668258666992
vn 0.6657283902168274 -0.7398091554641724 0.0974077582359314
vn -0.5316705703735352 -0.6865899562835693 0.4959039092063904
vn -0.5660753846168518 -0.6083248853683472 0.5563268065452576
vn -0.8904895186424255 -0.3818683624267578 0.24739661812782288
vn 0.7496751546859741 0.6052959561347961 -0.26758909225463867
vn 0.7501067519187927 0.610609233379364 -0.25396108627319336
vn 0.8091074228286743 0.22814707458019257 -0.5415664315223694
vn -0.6381372213363647 0.7201107740402222 -0.27243611216545105
vn -0.7235901355743408 0.44759848713874817 -0.52542644739151
vn -0.2526406943798065 0.7323850989341736 -0.6322853565216064
vn -0.3108908534049988 -0.8841248154640198 0.348812460899353
vn -0.7920332551002502 -0.4767516851425171 0.3813018798828125
vn -0.6788453459739685 -0.043116599321365356 0.7330142855644226
vn 0.8051750659942627 0.5629644989967346 -0.1864520013332367
vn 0.9974120855331421 0.002332061529159546 -0.07186056673526764
vn 0.7975828647613525 0.19814682006835938 0.5697364807128906
vn -0.7936347723007202 0.35727351903915405 0.4924422800540924
vn -0.9675813913345337 0.14275524020195007 -0.2083437740802765
vn -0.6676400899887085 0.6891229748725891 -0.2817203402519226
vn 0.7459446787834167 -0.012764185667037964 0.6658856272697449
vn 0.5949899554252625 0.7161707282066345 0.3648099899291992
vn 0.9065669775009155 0.38136181235313416 -0.18082967400550842
vn -0.4540252089500427 0.8376951813697815 0.30352583527565
vn -0.7828267812728882 0.1923922896385193 0.5917496085166931
vn -0.7487558722496033 0.5936748385429382 -0.29481321573257446
f 3/3/3 2/2/2 1/1/1
f 6/6/6 5/5/5 4/4/4
f 9/9/9 8/8/8 7/7/7
f 12/12/12 11/11/11 10/10/10
f 15/15/15 14/14/14 13/13/13
f 18/18/18 17/17/17 16/16/16
f 21/21/21 20/20/20 19/19/19
f 24/24/24 23/23/23 22/22/22
f 27/27/27 26/26/26 25/25/25
f 30/30/30 29/29/29 28/28/28
f 33/33/33 32/32/32 31/31/31
f 36/36/36 35/35/35 34/34/34
f 39/39/39 38/38/38 37/37/37
f 42/42/42 41/41/41 40/40/40
f 45/45/45 44/44/44 43/43/43
f 48/48/48 47/47/47 46/46/46
f 51/51/51 50/50/50 49/49/49
f 54/54/54 53/53/53 52/52/52
f 57/57/57 56/56/56 55/55/55
f 60/60/60 59/59/59 58/58/58
f 63/63/63 62/62/62 61/61/61
f 66/66/66 65/65/65 64/64/64
f 69/69/69 68/68/68 67/67/67
f 72/72/72 71/71/71 70/70/70
f 75/75/75 74/74/74 73/73/73
