# VPXTOOL table OBJ file
# VPXTOOL OBJ file
# numVerts: 72 numFaces: 72
o LM_GI_gi02_swLI
v 2021.2701416015625 10298.6865234375 -42271.3515625
v 457.5092468261719 9406.255859375 -36906.87109375
v 2410.3515625 31765.646484375 -34928.1015625
v -2135.33984375 30668.087890625 -38229.875
v -2571.71728515625 7738.771484375 -40651.30078125
v 2021.2701416015625 10298.6865234375 -42271.3515625
v -2135.33984375 30668.087890625 -38229.875
v -1378.4503173828125 36018.1484375 -31906.095703125
v -2571.71728515625 7738.771484375 -40651.30078125
v 2410.3515625 31765.646484375 -34928.1015625
v 921.02587890625 25583.9921875 -40615.953125
v 2021.2701416015625 10298.6865234375 -42271.3515625
v 921.02587890625 25583.9921875 -40615.953125
v -2135.33984375 30668.087890625 -38229.875
v 2021.2701416015625 10298.6865234375 -42271.3515625
v 2410.3515625 31765.646484375 -34928.1015625
v 921.6054077148438 41306.46875 -35196.03125
v 921.02587890625 25583.9921875 -40615.953125
v 921.6054077148438 41306.46875 -35196.03125
v -2135.33984375 30668.087890625 -38229.875
v 921.02587890625 25583.9921875 -40615.953125
v -1378.4503173828125 36018.1484375 -31906.095703125
v -2135.33984375 30668.087890625 -38229.875
v -2553.32763671875 64436.6171875 -17882.6953125
v -368.2605285644531 55916.00390625 -27271.578125
v -2135.33984375 30668.087890625 -38229.875
v 921.6054077148438 41306.46875 -35196.03125
v 2410.3515625 31765.646484375 -34928.1015625
v 2439.328369140625 61828.98046875 -21033.919921875
v 921.6054077148438 41306.46875 -35196.03125
v 2410.3515625 31765.646484375 -34928.1015625
v 464.5626220703125 52255.59375 -22685.7890625
v 2439.328369140625 61828.98046875 -21033.919921875
v -368.2605285644531 55916.00390625 -27271.578125
v -2553.32763671875 64436.6171875 -17882.6953125
v -2135.33984375 30668.087890625 -38229.875
v -368.2605285644531 55916.00390625 -27271.578125
v 921.6054077148438 41306.46875 -35196.03125
v 2439.328369140625 61828.98046875 -21033.919921875
v 464.5626220703125 52255.59375 -22685.7890625
v 467.0221252441406 63428.1640625 -13491.490234375
v 2439.328369140625 61828.98046875 -21033.919921875
v -368.2605285644531 55916.00390625 -27271.578125
v 2439.328369140625 61828.98046875 -21033.919921875
v 927.471435546875 67905.015625 -16966.486328125
v 927.471435546875 67905.015625 -16966.486328125
v -2553.32763671875 64436.6171875 -17882.6953125
v -368.2605285644531 55916.00390625 -27271.578125
v 467.0221252441406 63428.1640625 -13491.490234375
v -218.5279083251953 71979.984375 -1922.0029296875
v 2439.328369140625 61828.98046875 -21033.919921875
v -218.5279083251953 71979.984375 -1922.0029296875
v 467.0221252441406 63428.1640625 -13491.490234375
v -2553.32763671875 64436.6171875 -17882.6953125
v 175.04849243164063 77888.890625 -3869.820556640625
v 927.471435546875 67905.015625 -16966.486328125
v 2439.328369140625 61828.98046875 -21033.919921875
v 175.04849243164063 77888.890625 -3869.820556640625
v -2553.32763671875 64436.6171875 -17882.6953125
v 927.471435546875 67905.015625 -16966.486328125
v 175.04849243164063 77888.890625 -3869.820556640625
v 2439.328369140625 61828.98046875 -21033.919921875
v 2056.46630859375 80082.421875 12494.8779296875
v -2522.357666015625 81608.5546875 11980.7607421875
v -2553.32763671875 64436.6171875 -17882.6953125
v 175.04849243164063 77888.890625 -3869.820556640625
v 2056.46630859375 80082.421875 12494.8779296875
v 72.13117218017578 84808.0546875 10904.2158203125
v 175.04849243164063 77888.890625 -3869.820556640625
v 72.13117218017578 84808.0546875 10904.2158203125
v -2522.357666015625 81608.5546875 11980.7607421875
v 175.04849243164063 77888.890625 -3869.820556640625
vt 0.06686128675937653 0.38093727827072144
vt 0.06686928868293762 0.3811681866645813
vt 0.0670052096247673 0.38467490673065186
vt 0.06631682068109512 0.38430631160736084
vt 0.06639709323644638 0.38098055124282837
vt 0.06686128675937653 0.38093727827072144
vt 0.06631682068109512 0.38430631160736084
vt 0.06641965359449387 0.3854197859764099
vt 0.06639709323644638 0.38098055124282837
vt 0.0670052096247673 0.38467490673065186
vt 0.06672340631484985 0.3833227753639221
vt 0.06686128675937653 0.38093727827072144
vt 0.06672340631484985 0.3833227753639221
vt 0.06631682068109512 0.38430631160736084
vt 0.06686128675937653 0.38093727827072144
vt 0.0670052096247673 0.38467490673065186
vt 0.06665433198213577 0.38594698905944824
vt 0.06672340631484985 0.3833227753639221
vt 0.06665433198213577 0.38594698905944824
vt 0.06631682068109512 0.38430631160736084
vt 0.06672340631484985 0.3833227753639221
vt 0.06641965359449387 0.3854197859764099
vt 0.06631682068109512 0.38430631160736084
vt 0.0662841796875 0.3905869722366333
vt 0.06647613644599915 0.38858509063720703
vt 0.06631682068109512 0.38430631160736084
vt 0.06665433198213577 0.38594698905944824
vt 0.0670052096247673 0.38467490673065186
vt 0.0670129656791687 0.3897761106491089
vt 0.06665433198213577 0.38594698905944824
vt 0.0670052096247673 0.38467490673065186
vt 0.06667274236679077 0.3883819580078125
vt 0.0670129656791687 0.3897761106491089
vt 0.06647613644599915 0.38858509063720703
vt 0.0662841796875 0.3905869722366333
vt 0.06631682068109512 0.38430631160736084
vt 0.06647613644599915 0.38858509063720703
vt 0.06665433198213577 0.38594698905944824
vt 0.0670129656791687 0.3897761106491089
vt 0.06667274236679077 0.3883819580078125
vt 0.06672567129135132 0.390597403049469
vt 0.0670129656791687 0.3897761106491089
vt 0.06647613644599915 0.38858509063720703
vt 0.0670129656791687 0.3897761106491089
vt 0.06670835614204407 0.39095842838287354
vt 0.06670835614204407 0.39095842838287354
vt 0.0662841796875 0.3905869722366333
vt 0.06647613644599915 0.38858509063720703
vt 0.06672567129135132 0.390597403049469
vt 0.06678418070077896 0.392631471157074
vt 0.0670129656791687 0.3897761106491089
vt 0.06678418070077896 0.392631471157074
vt 0.06672567129135132 0.390597403049469
vt 0.0662841796875 0.3905869722366333
vt 0.06670290231704712 0.39308881759643555
vt 0.06670835614204407 0.39095842838287354
vt 0.0670129656791687 0.3897761106491089
vt 0.06670290231704712 0.39308881759643555
vt 0.0662841796875 0.3905869722366333
vt 0.06670835614204407 0.39095842838287354
vt 0.06670290231704712 0.39308881759643555
vt 0.0670129656791687 0.3897761106491089
vt 0.06720016151666641 0.39460885524749756
vt 0.06659500300884247 0.39474183320999146
vt 0.0662841796875 0.3905869722366333
vt 0.06670290231704712 0.39308881759643555
vt 0.06720016151666641 0.39460885524749756
vt 0.06691798567771912 0.3950960040092468
vt 0.06670290231704712 0.39308881759643555
vt 0.06691798567771912 0.3950960040092468
vt 0.06659500300884247 0.39474183320999146
vt 0.06670290231704712 0.39308881759643555
vn 0.9963091611862183 0.037515051662921906 -0.07720676064491272
vn 0.8569722771644592 -0.10651254653930664 0.5042357444763184
vn 0.9788661599159241 0.19828779995441437 0.05003152787685394
vn -0.5432297587394714 0.30968040227890015 -0.7803841829299927
vn -0.6058073043823242 -0.04569850116968155 -0.794297993183136
vn -0.08959028124809265 0.0824916809797287 -0.9925567507743835
vn -0.9662866592407227 -0.012096475809812546 -0.25718429684638977
vn -0.9374629855155945 -0.056193023920059204 0.3435191512107849
vn -0.944139301776886 -0.141384094953537 0.29767659306526184
vn 0.9623116254806519 0.26472362875938416 -0.06227172911167145
vn 0.8086198568344116 0.04575240612030029 -0.5865498185157776
vn 0.8038032650947571 0.05691257864236832 -0.5921666622161865
vn -0.29727399349212646 0.05266299098730087 -0.9533387422561646
vn -0.7460920810699463 0.18687549233436584 -0.6390807032585144
vn -0.3875482976436615 -0.1849532276391983 -0.9031050205230713
vn 0.988038182258606 -0.08221407234668732 -0.13046616315841675
vn 0.7834969758987427 0.28738003969192505 -0.5509493350982666
vn 0.7776533961296082 0.1741938441991806 -0.6040791869163513
vn 0.013811424374580383 0.5128504037857056 -0.8583669066429138
vn -0.4263315200805664 0.14696846902370453 -0.8925478458404541
vn 0.021830305457115173 0.1298823058605194 -0.9912890791893005
vn -0.8580729961395264 -0.18101105093955994 0.48056796193122864
vn -0.991941511631012 -0.07229971885681152 -0.10404273867607117
vn -0.9748882055282593 0.18603482842445374 0.12240932881832123
vn -0.6511346101760864 0.5229014158248901 -0.5500891804695129
vn -0.6999728679656982 0.14299190044403076 -0.6997080445289612
vn -0.2692926824092865 0.48156866431236267 -0.8340103626251221
vn 0.9977420568466187 -0.025865843519568443 -0.06198062002658844
vn 0.9990668296813965 0.01662679761648178 -0.03986363112926483
vn 0.7998999357223511 0.2811972498893738 -0.5301774144172668
vn 0.6383740901947021 -0.4739953875541687 0.6064708828926086
vn 0.6423985958099365 -0.4805668294429779 0.5969753265380859
vn 0.9151555895805359 0.05530950054526329 0.3992883563041687
vn -0.6922214031219482 0.24371886253356934 -0.6792868375778198
vn -0.9438197612762451 0.30932551622390747 -0.11628407984972
vn -0.7664186358451843 0.06836175918579102 -0.6386932134628296
vn 0.367968887090683 0.4364153742790222 -0.8210606575012207
vn 0.45677894353866577 0.2676111161708832 -0.8483733534812927
vn 0.7567856907844543 0.47753453254699707 -0.44635897874832153
vn 0.8007781505584717 -0.45226335525512695 0.39269861578941345
vn 0.7931367754936218 -0.41675472259521484 0.4441278576850891
vn 0.979594349861145 -0.18366016447544098 -0.08163225650787354
vn 0.18453019857406616 0.4557626247406006 -0.8707635402679443
vn 0.6064908504486084 0.5749502778053284 -0.5491822361946106
vn 0.4951247274875641 0.7084625959396362 -0.5029237866401672
vn -0.2026316076517105 0.780876100063324 -0.5909086465835571
vn -0.6824226379394531 0.4901764392852783 -0.5422420501708984
vn -0.2705443501472473 0.46875491738319397 -0.84087735414505
vn 0.7429862022399902 -0.44380509853363037 0.5010074973106384
vn 0.7381834983825684 -0.5180560946464539 0.4320913851261139
vn 0.7682584524154663 -0.6333574056625366 0.09293676912784576
vn -0.5422870516777039 -0.6788873672485352 0.49501174688339233
vn -0.5711193084716797 -0.5978829264640808 0.562457799911499
vn -0.896878719329834 -0.34924352169036865 0.27136218547821045
vn 0.7496939301490784 0.6052839756011963 -0.2675640881061554
vn 0.7501250505447388 0.6105966567993164 -0.25393763184547424
vn 0.8091249465942383 0.2281341403722763 -0.5415457487106323
vn -0.6381607055664063 0.7200994491577148 -0.2724110186100006
vn -0.7236130833625793 0.4475909471511841 -0.52540123462677
vn -0.2526719272136688 0.732387125492096 -0.6322705149650574
vn 0.805172860622406 0.5629695653915405 -0.1864461749792099
vn 0.997411847114563 0.002335861325263977 -0.07186414301395416
vn 0.7975854277610779 0.1981392502784729 0.5697354674339294
vn -0.7936339378356934 0.35728803277015686 0.4924331605434418
vn -0.9675765037536621 0.142770454287529 -0.20835590362548828
vn -0.667625904083252 0.6891337633132935 -0.28172749280929565
vn 0.7459465861320496 -0.012799233198165894 0.6658828854560852
vn 0.5950073599815369 0.7161550521850586 0.36481255292892456
vn 0.9065778255462646 0.38133764266967773 -0.18082666397094727
vn -0.4540567398071289 0.8376806974411011 0.303518682718277
vn -0.7828373908996582 0.192363902926445 0.5917447805404663
vn -0.7487772107124329 0.5936446189880371 -0.2948201298713684
f 3/3/3 2/2/2 1/1/1
f 6/6/6 5/5/5 4/4/4
f 9/9/9 8/8/8 7/7/7
f 12/12/12 11/11/11 10/10/10
f 15/15/15 14/14/14 13/13/13
f 18/18/18 17/17/17 16/16/16
f 21/21/21 20/20/20 19/19/19
f 24/24/24 23/23/23 22/22/22
f 27/27/27 26/26/26 25/25/25
f 30/30/30 29/29/29 28/28/28
f 33/33/33 32/32/32 31/31/31
f 36/36/36 35/35/35 34/34/34
f 39/39/39 38/38/38 37/37/37
f 42/42/42 41/41/41 40/40/40
f 45/45/45 44/44/44 43/43/43
f 48/48/48 47/47/47 46/46/46
f 51/51/51 50/50/50 49/49/49
f 54/54/54 53/53/53 52/52/52
f 57/57/57 56/56/56 55/55/55
f 60/60/60 59/59/59 58/58/58
f 63/63/63 62/62/62 61/61/61
f 66/66/66 65/65/65 64/64/64
f 69/69/69 68/68/68 67/67/67
f 72/72/72 71/71/71 70/70/70
