# VPXTOOL table OBJ file
# VPXTOOL OBJ file
# numVerts: 76 numFaces: 87
o LM_GI_gi02_UnderPF
v -391.0531311035156 513.7115478515625 -12.23087215423584
v -400.0783996582031 515.5067749023438 -12.23087215423584
v -391.0531311035156 513.7115478515625 -6.426159381866455
v -383.40185546875 508.59918212890625 -12.23087215423584
v -391.0531311035156 513.7115478515625 -12.23087215423584
v -383.40185546875 508.59918212890625 -6.426159381866455
v -391.0531311035156 513.7115478515625 -12.23087215423584
v -391.0531311035156 513.7115478515625 -6.426159381866455
v -383.40185546875 508.59918212890625 -6.426159381866455
v -400.0783996582031 515.5067749023438 -12.23087215423584
v -409.1036682128906 513.7115478515625 -12.23087215423584
v -400.0783996582031 515.5067749023438 -6.426159381866455
v -400.0783996582031 515.5067749023438 -12.23087215423584
v -400.0783996582031 515.5067749023438 -6.426159381866455
v -391.0531311035156 513.7115478515625 -6.426159381866455
v -378.2894592285156 500.9479064941406 -12.23087215423584
v -383.40185546875 508.59918212890625 -12.23087215423584
v -378.2894592285156 500.9479064941406 -6.426159381866455
v -383.40185546875 508.59918212890625 -12.23087215423584
v -383.40185546875 508.59918212890625 -6.426159381866455
v -378.2894592285156 500.9479064941406 -6.426159381866455
v -409.1036682128906 513.7115478515625 -12.23087215423584
v -409.1036682128906 513.7115478515625 -6.426159381866455
v -400.0783996582031 515.5067749023438 -6.426159381866455
v -376.49420166015625 491.9225769042969 -6.426159381866455
v -391.0531311035156 513.7115478515625 -6.426159381866455
v -400.0783996582031 515.5067749023438 -6.426159381866455
v -383.40185546875 508.59918212890625 -6.426159381866455
v -378.2894592285156 500.9479064941406 -12.23087215423584
v -378.2894592285156 500.9479064941406 -6.426159381866455
v -376.49420166015625 491.9225769042969 -6.426159381866455
v -376.49420166015625 491.9225769042969 -12.23087215423584
v -376.49420166015625 491.9225769042969 -6.426159381866455
v -378.2894592285156 500.9479064941406 -6.426159381866455
v -383.40185546875 508.59918212890625 -6.426159381866455
v -423.6625671386719 491.9225769042969 -6.426159381866455
v -400.0783996582031 515.5067749023438 -6.426159381866455
v -409.1036682128906 513.7115478515625 -6.426159381866455
v -376.49420166015625 491.9225769042969 -12.23087215423584
v -376.49420166015625 491.9225769042969 -6.426159381866455
v -378.2894592285156 482.8973388671875 -6.426159381866455
v -378.2894592285156 482.8973388671875 -12.23087215423584
v -400.0783996582031 468.3384704589844 -6.426159381866455
v -383.40185546875 475.24609375 -6.426159381866455
v -378.2894592285156 482.8973388671875 -6.426159381866455
v -376.49420166015625 491.9225769042969 -6.426159381866455
v -378.2894592285156 482.8973388671875 -12.23087215423584
v -378.2894592285156 482.8973388671875 -6.426159381866455
v -383.40185546875 475.24609375 -6.426159381866455
v -383.40185546875 475.24609375 -12.23087215423584
v -378.2894592285156 482.8973388671875 -12.23087215423584
v -383.40185546875 475.24609375 -6.426159381866455
v -423.6625671386719 491.9225769042969 -6.426159381866455
v -391.0531311035156 470.13372802734375 -6.426159381866455
v -383.40185546875 475.24609375 -6.426159381866455
v -383.40185546875 475.24609375 -12.23087215423584
v -383.40185546875 475.24609375 -6.426159381866455
v -391.0531311035156 470.13372802734375 -6.426159381866455
v -391.0531311035156 470.13372802734375 -12.23087215423584
v -383.40185546875 475.24609375 -12.23087215423584
v -391.0531311035156 470.13372802734375 -6.426159381866455
v -376.49420166015625 491.9225769042969 -6.426159381866455
v -400.0783996582031 468.3384704589844 -6.426159381866455
v -391.0531311035156 470.13372802734375 -6.426159381866455
v -400.0783996582031 468.3384704589844 -12.23087215423584
v -391.0531311035156 470.13372802734375 -12.23087215423584
v -400.0783996582031 468.3384704589844 -6.426159381866455
v -391.0531311035156 470.13372802734375 -12.23087215423584
v -391.0531311035156 470.13372802734375 -6.426159381866455
v -400.0783996582031 468.3384704589844 -6.426159381866455
v -423.6625671386719 491.9225769042969 -6.426159381866455
v -409.1036682128906 470.13372802734375 -6.426159381866455
v -400.0783996582031 468.3384704589844 -6.426159381866455
v -400.0783996582031 468.3384704589844 -12.23087215423584
v -400.0783996582031 468.3384704589844 -6.426159381866455
v -409.1036682128906 470.13372802734375 -6.426159381866455
vt 0.9371665716171265 0.8003338575363159
vt 0.9376992583274841 0.8029452562332153
vt 0.9379023909568787 0.8001368045806885
vt 0.9356512427330017 0.7980521321296692
vt 0.9371665716171265 0.8003338575363159
vt 0.9363889694213867 0.7978590726852417
vt 0.9371665716171265 0.8003338575363159
vt 0.9379023909568787 0.8001368045806885
vt 0.9363889694213867 0.7978590726852417
vt 0.9376992583274841 0.8029452562332153
vt 0.9371665716171265 0.8054845929145813
vt 0.9384344220161438 0.8027437925338745
vt 0.9376992583274841 0.8029452562332153
vt 0.9384344220161438 0.8027437925338745
vt 0.9379023909568787 0.8001368045806885
vt 0.9333882331848145 0.7964494228363037
vt 0.9356512427330017 0.7980521321296692
vt 0.9341288208961487 0.796259343624115
vt 0.9356512427330017 0.7980521321296692
vt 0.9363889694213867 0.7978590726852417
vt 0.9341288208961487 0.796259343624115
vt 0.9371665716171265 0.8054845929145813
vt 0.9379023909568787 0.8052788972854614
vt 0.9384344220161438 0.8027437925338745
vt 0.9314701557159424 0.7955796718597412
vt 0.9379023909568787 0.8001368045806885
vt 0.9384344220161438 0.8027437925338745
vt 0.9363889694213867 0.7978590726852417
vt 0.9333882331848145 0.7964494228363037
vt 0.9341288208961487 0.796259343624115
vt 0.9314701557159424 0.7955796718597412
vt 0.9307262897491455 0.7957683801651001
vt 0.9314701557159424 0.7955796718597412
vt 0.9341288208961487 0.796259343624115
vt 0.9363889694213867 0.7978590726852417
vt 0.9314701557159424 0.8089679479598999
vt 0.9384344220161438 0.8027437925338745
vt 0.9379023909568787 0.8052788972854614
vt 0.9307262897491455 0.7957683801651001
vt 0.9314701557159424 0.7955796718597412
vt 0.928819477558136 0.79591965675354
vt 0.9280722737312317 0.796108603477478
vt 0.9245603680610657 0.8018075823783875
vt 0.9265785813331604 0.7972233891487122
vt 0.928819477558136 0.79591965675354
vt 0.9314701557159424 0.7955796718597412
vt 0.9280722737312317 0.796108603477478
vt 0.928819477558136 0.79591965675354
vt 0.9265785813331604 0.7972233891487122
vt 0.9258285760879517 0.797414243221283
vt 0.9280722737312317 0.796108603477478
vt 0.9265785813331604 0.7972233891487122
vt 0.9314701557159424 0.8089679479598999
vt 0.9250844120979309 0.7992904186248779
vt 0.9265785813331604 0.7972233891487122
vt 0.9258285760879517 0.797414243221283
vt 0.9265785813331604 0.7972233891487122
vt 0.9250844120979309 0.7992904186248779
vt 0.9243325591087341 0.7994846105575562
vt 0.9258285760879517 0.797414243221283
vt 0.9250844120979309 0.7992904186248779
vt 0.9314701557159424 0.7955796718597412
vt 0.9245603680610657 0.8018075823783875
vt 0.9250844120979309 0.7992904186248779
vt 0.9238078594207764 0.8020058870315552
vt 0.9243325591087341 0.7994846105575562
vt 0.9245603680610657 0.8018075823783875
vt 0.9243325591087341 0.7994846105575562
vt 0.9250844120979309 0.7992904186248779
vt 0.9245603680610657 0.8018075823783875
vt 0.9314701557159424 0.8089679479598999
vt 0.9250844120979309 0.8043954372406006
vt 0.9245603680610657 0.8018075823783875
vt 0.9238078594207764 0.8020058870315552
vt 0.9245603680610657 0.8018075823783875
vt 0.9250844120979309 0.8043954372406006
vn -0.19509294629096985 -0.9807847738265991 -0
vn -0.19509294629096985 -0.9807847738265991 -0
vn -0.19509294629096985 -0.9807847738265991 -0
vn -0.5555657148361206 -0.831472635269165 -0
vn -0.5555657148361206 -0.831472635269165 -0
vn -0.5555657148361206 -0.831472635269165 -0
vn -0.555569052696228 -0.8314703106880188 -0
vn -0.555569052696228 -0.8314703106880188 -0
vn -0.555569052696228 -0.8314703106880188 -0
vn 0.19509294629096985 -0.9807847738265991 -0
vn 0.19509294629096985 -0.9807847738265991 -0
vn 0.19509294629096985 -0.9807847738265991 -0
vn -0.19509291648864746 -0.9807847738265991 -0
vn -0.19509291648864746 -0.9807847738265991 -0
vn -0.19509291648864746 -0.9807847738265991 -0
vn -0.8314714431762695 -0.5555675029754639 -0
vn -0.8314714431762695 -0.5555675029754639 -0
vn -0.8314714431762695 -0.5555675029754639 -0
vn -0.831467866897583 -0.5555726885795593 -0
vn -0.831467866897583 -0.5555726885795593 -0
vn -0.831467866897583 -0.5555726885795593 -0
vn 0.19509148597717285 -0.980785071849823 -0
vn 0.19509148597717285 -0.980785071849823 -0
vn 0.19509148597717285 -0.980785071849823 -0
vn 0 -0 -0.9999999403953552
vn 0 -0 -0.9999999403953552
vn 0 -0 -0.9999999403953552
vn 0 -0 -0.9999999403953552
vn -0.9807844758033752 -0.1950945109128952 -0
vn -0.9807844758033752 -0.1950945109128952 -0
vn -0.9807844758033752 -0.1950945109128952 -0
vn -0.9807844758033752 -0.1950945109128952 -0
vn 0 -0 -1
vn 0 -0 -1
vn 0 -0 -1
vn 0 -0 -1
vn 0 -0 -1
vn 0 -0 -1
vn -0.9807840585708618 0.19509679079055786 -0
vn -0.9807840585708618 0.19509679079055786 -0
vn -0.9807840585708618 0.19509679079055786 -0
vn -0.9807840585708618 0.19509679079055786 -0
vn 0 -0 -0.9999999403953552
vn -0.00000019268000528427365 -0 -1
vn -0.00000019268000528427365 -0 -1
vn -0.00000019268000528427365 -0 -1
vn -0.8314713835716248 0.5555675625801086 -0
vn -0.8314713835716248 0.5555675625801086 -0
vn -0.8314713835716248 0.5555675625801086 -0
vn -0.8314679861068726 0.5555726885795593 -0
vn -0.8314679861068726 0.5555726885795593 -0
vn -0.8314679861068726 0.5555726885795593 -0
vn 0 -0 -0.9999999403953552
vn 0 -0 -0.9999999403953552
vn 0 -0 -0.9999999403953552
vn -0.555565595626831 0.831472635269165 -0
vn -0.555565595626831 0.831472635269165 -0
vn -0.555565595626831 0.831472635269165 -0
vn -0.5555691719055176 0.8314703106880188 -0
vn -0.5555691719055176 0.8314703106880188 -0
vn -0.5555691719055176 0.8314703106880188 -0
vn 0.00000014647018531377398 -0 -1
vn 0.00000014647018531377398 -0 -1
vn 0.00000014647018531377398 -0 -1
vn -0.19509294629096985 0.9807847738265991 -0
vn -0.19509294629096985 0.9807847738265991 -0
vn -0.19509294629096985 0.9807847738265991 -0
vn -0.19509291648864746 0.9807847738265991 -0
vn -0.19509291648864746 0.9807847738265991 -0
vn -0.19509291648864746 0.9807847738265991 -0
vn -0.00000014647018531377398 -0 -1
vn -0.00000014647018531377398 -0 -1
vn -0.00000014647018531377398 -0 -1
vn 0.19509291648864746 0.9807847738265991 -0
vn 0.19509291648864746 0.9807847738265991 -0
vn 0.19509291648864746 0.9807847738265991 -0
f 3/3/3 2/2/2 1/1/1
f 6/6/6 5/5/5 4/4/4
f 9/9/9 8/8/8 7/7/7
f 12/12/12 11/11/11 10/10/10
f 15/15/15 14/14/14 13/13/13
f 18/18/18 17/17/17 16/16/16
f 21/21/21 20/20/20 19/19/19
f 24/24/24 23/23/23 22/22/22
f 27/27/27 26/26/26 25/25/25
f 26/26/26 28/28/28 25/25/25
f 31/31/31 30/30/30 29/29/29
f 31/31/31 29/29/29 32/32/32
f 35/35/35 34/34/34 33/33/33
f 38/38/38 37/37/37 36/36/36
f 41/41/41 40/40/40 39/39/39
f 41/41/41 39/39/39 42/42/42
f 27/27/27 25/25/25 43/43/43
f 46/46/46 45/45/45 44/44/44
f 49/49/49 48/48/48 47/47/47
f 52/52/52 51/51/51 50/50/50
f 43/43/43 53/53/53 27/27/27
f 55/55/55 54/54/54 25/25/25
f 58/58/58 57/57/57 56/56/56
f 61/61/61 60/60/60 59/59/59
f 64/64/64 63/63/63 62/62/62
f 67/67/67 66/66/66 65/65/65
f 70/70/70 69/69/69 68/68/68
f 73/73/73 72/72/72 71/71/71
f 76/76/76 75/75/75 74/74/74
