# VPXTOOL table OBJ file
# VPXTOOL OBJ file
# numVerts: 132 numFaces: 132
o LM_GI_gi07_swRI
v 2406.8037109375 -27384.685546875 -28485.107421875
v 1026.204833984375 -4602.14697265625 -35424.06640625
v 2021.199462890625 10298.4599609375 -42271.34765625
v -2571.7880859375 7738.09326171875 -40651.35546875
v 457.52337646484375 9405.802734375 -36906.86328125
v -1764.8460693359375 -5397.10205078125 -36081.76171875
v 1026.204833984375 -4602.14697265625 -35424.06640625
v 457.52337646484375 9405.802734375 -36906.86328125
v 2021.199462890625 10298.4599609375 -42271.34765625
v -2023.6871337890625 -13566.484375 -37738.15625
v -1764.8460693359375 -5397.10205078125 -36081.76171875
v -1387.60986328125 -22341.525390625 -29527.759765625
v -1764.8460693359375 -5397.10205078125 -36081.76171875
v -2023.6871337890625 -13566.484375 -37738.15625
v -2571.7880859375 7738.09326171875 -40651.35546875
v 2406.8037109375 -27384.685546875 -28485.107421875
v 2021.199462890625 10298.4599609375 -42271.34765625
v 926.0155639648438 -20816.521484375 -35777.921875
v 458.8803405761719 23665.244140625 -35122.47265625
v 457.52337646484375 9405.802734375 -36906.86328125
v -2571.7880859375 7738.09326171875 -40651.35546875
v -2023.6871337890625 -13566.484375 -37738.15625
v 915.4990844726563 -5077.9892578125 -40925.38671875
v -2571.7880859375 7738.09326171875 -40651.35546875
v 2021.199462890625 10298.4599609375 -42271.34765625
v 915.4990844726563 -5077.9892578125 -40925.38671875
v 926.0155639648438 -20816.521484375 -35777.921875
v 2021.199462890625 10298.4599609375 -42271.34765625
v 457.52337646484375 9405.802734375 -36906.86328125
v 2410.30908203125 31764.96875 -34928.30859375
v 915.4990844726563 -5077.9892578125 -40925.38671875
v 2021.199462890625 10298.4599609375 -42271.34765625
v -2571.7880859375 7738.09326171875 -40651.35546875
v -1387.60986328125 -22341.525390625 -29527.759765625
v 2406.8037109375 -27384.685546875 -28485.107421875
v 464.08203125 -33222.80078125 -22608.056640625
v 926.0155639648438 -20816.521484375 -35777.921875
v 915.4990844726563 -5077.9892578125 -40925.38671875
v -2023.6871337890625 -13566.484375 -37738.15625
v -2200.31884765625 -34392.95703125 -27120.5390625
v -2023.6871337890625 -13566.484375 -37738.15625
v -1387.60986328125 -22341.525390625 -29527.759765625
v -2135.41064453125 30667.18359375 -38230.02734375
v -2571.7880859375 7738.09326171875 -40651.35546875
v 2021.199462890625 10298.4599609375 -42271.34765625
v 926.0155639648438 -20816.521484375 -35777.921875
v -2023.6871337890625 -13566.484375 -37738.15625
v 927.8248291015625 -35569.671875 -27910.275390625
v -2135.41064453125 30667.18359375 -38230.02734375
v -1378.4503173828125 36018.375 -31905.890625
v -2571.7880859375 7738.09326171875 -40651.35546875
v 2406.8037109375 -27384.685546875 -28485.107421875
v 926.0155639648438 -20816.521484375 -35777.921875
v 927.8248291015625 -35569.671875 -27910.275390625
v -2023.6871337890625 -13566.484375 -37738.15625
v -2200.31884765625 -34392.95703125 -27120.5390625
v 927.8248291015625 -35569.671875 -27910.275390625
v 2410.30908203125 31764.96875 -34928.30859375
v 920.8138427734375 25583.541015625 -40616.046875
v 2021.199462890625 10298.4599609375 -42271.34765625
v 568.568359375 -44681.69140625 -13133.173828125
v 464.08203125 -33222.80078125 -22608.056640625
v 2406.8037109375 -27384.685546875 -28485.107421875
v 920.8138427734375 25583.541015625 -40616.046875
v -2135.41064453125 30667.18359375 -38230.02734375
v 2021.199462890625 10298.4599609375 -42271.34765625
v 2410.30908203125 31764.96875 -34928.30859375
v 921.4923095703125 41306.2421875 -35195.96875
v 920.8138427734375 25583.541015625 -40616.046875
v 2406.8037109375 -27384.685546875 -28485.107421875
v 927.8248291015625 -35569.671875 -27910.275390625
v 2444.346435546875 -53167.47265625 -9346.9345703125
v 921.4923095703125 41306.2421875 -35195.96875
v -2135.41064453125 30667.18359375 -38230.02734375
v 920.8138427734375 25583.541015625 -40616.046875
v 2444.346435546875 -53167.47265625 -9346.9345703125
v 568.568359375 -44681.69140625 -13133.173828125
v 2406.8037109375 -27384.685546875 -28485.107421875
v -1378.4503173828125 36018.375 -31905.890625
v -2135.41064453125 30667.18359375 -38230.02734375
v -2553.35595703125 64436.390625 -17882.650390625
v -368.416015625 55915.78125 -27271.478515625
v -2135.41064453125 30667.18359375 -38230.02734375
v 921.4923095703125 41306.2421875 -35195.96875
v 2410.30908203125 31764.96875 -34928.30859375
v 2439.370849609375 61828.75390625 -21033.806640625
v 921.4923095703125 41306.2421875 -35195.96875
v -368.416015625 55915.78125 -27271.478515625
v -2553.35595703125 64436.390625 -17882.650390625
v -2135.41064453125 30667.18359375 -38230.02734375
v -368.416015625 55915.78125 -27271.478515625
v 921.4923095703125 41306.2421875 -35195.96875
v 2439.370849609375 61828.75390625 -21033.806640625
v 464.53436279296875 52255.3671875 -22685.568359375
v 466.9090576171875 63427.7109375 -13491.8125
v 2439.370849609375 61828.75390625 -21033.806640625
v 466.9090576171875 63427.7109375 -13491.8125
v 464.53436279296875 52255.3671875 -22685.568359375
v -2553.35595703125 64436.390625 -17882.650390625
v -368.416015625 55915.78125 -27271.478515625
v 2439.370849609375 61828.75390625 -21033.806640625
v 927.3724975585938 67905.015625 -16966.208984375
v 927.3724975585938 67905.015625 -16966.208984375
v -2553.35595703125 64436.390625 -17882.650390625
v -368.416015625 55915.78125 -27271.478515625
v 466.9090576171875 63427.7109375 -13491.8125
v -218.58445739746094 71979.7578125 -1921.59765625
v 2439.370849609375 61828.75390625 -21033.806640625
v -218.58445739746094 71979.7578125 -1921.59765625
v 466.9090576171875 63427.7109375 -13491.8125
v -2553.35595703125 64436.390625 -17882.650390625
v 174.93540954589844 77888.4375 -3870.565185546875
v 927.3724975585938 67905.015625 -16966.208984375
v 2439.370849609375 61828.75390625 -21033.806640625
v 174.93540954589844 77888.4375 -3870.565185546875
v -2553.35595703125 64436.390625 -17882.650390625
v 927.3724975585938 67905.015625 -16966.208984375
v -218.58445739746094 71979.7578125 -1921.59765625
v -2553.35595703125 64436.390625 -17882.650390625
v -2522.2587890625 81608.5546875 11980.7392578125
v 174.93540954589844 77888.4375 -3870.565185546875
v 2439.370849609375 61828.75390625 -21033.806640625
v 2056.367431640625 80082.421875 12494.849609375
v -2522.2587890625 81608.5546875 11980.7392578125
v -2553.35595703125 64436.390625 -17882.650390625
v 174.93540954589844 77888.4375 -3870.565185546875
v 2056.367431640625 80082.421875 12494.849609375
v 72.0322265625 84807.6015625 10904.283203125
v 174.93540954589844 77888.4375 -3870.565185546875
v 72.0322265625 84807.6015625 10904.283203125
v -2522.2587890625 81608.5546875 11980.7392578125
v 174.93540954589844 77888.4375 -3870.565185546875
vt 0.2013140171766281 0.35777872800827026
vt 0.20135757327079773 0.360532283782959
vt 0.2015385776758194 0.3622351884841919
vt 0.20104315876960754 0.36227697134017944
vt 0.20139934122562408 0.36245888471603394
vt 0.20095615088939667 0.36049216985702515
vt 0.20135757327079773 0.360532283782959
vt 0.20139934122562408 0.36245888471603394
vt 0.2015385776758194 0.3622351884841919
vt 0.20090459287166595 0.3592480421066284
vt 0.20095615088939667 0.36049216985702515
vt 0.20080378651618958 0.3583824038505554
vt 0.20095615088939667 0.36049216985702515
vt 0.20090459287166595 0.3592480421066284
vt 0.20104315876960754 0.36227697134017944
vt 0.2013140171766281 0.35777872800827026
vt 0.2015385776758194 0.3622351884841919
vt 0.20120656490325928 0.358238160610199
vt 0.20148099958896637 0.36461734771728516
vt 0.20139934122562408 0.36245888471603394
vt 0.20104315876960754 0.36227697134017944
vt 0.20090459287166595 0.3592480421066284
vt 0.20139193534851074 0.3601762652397156
vt 0.20104315876960754 0.36227697134017944
vt 0.2015385776758194 0.3622351884841919
vt 0.20139193534851074 0.3601762652397156
vt 0.20120656490325928 0.358238160610199
vt 0.2015385776758194 0.3622351884841919
vt 0.20139934122562408 0.36245888471603394
vt 0.20183762907981873 0.3658686876296997
vt 0.20139193534851074 0.3601762652397156
vt 0.2015385776758194 0.3622351884841919
vt 0.20104315876960754 0.36227697134017944
vt 0.20080378651618958 0.3583824038505554
vt 0.2013140171766281 0.35777872800827026
vt 0.20089076459407806 0.35716718435287476
vt 0.20120656490325928 0.358238160610199
vt 0.20139193534851074 0.3601762652397156
vt 0.20090459287166595 0.3592480421066284
vt 0.20063313841819763 0.3568227291107178
vt 0.20090459287166595 0.3592480421066284
vt 0.20080378651618958 0.3583824038505554
vt 0.20126453042030334 0.3655107021331787
vt 0.20104315876960754 0.36227697134017944
vt 0.2015385776758194 0.3622351884841919
vt 0.20120656490325928 0.358238160610199
vt 0.20090459287166595 0.3592480421066284
vt 0.20099814236164093 0.35661983489990234
vt 0.20126453042030334 0.3655107021331787
vt 0.20127245783805847 0.3665926456451416
vt 0.20104315876960754 0.36227697134017944
vt 0.2013140171766281 0.35777872800827026
vt 0.20120656490325928 0.358238160610199
vt 0.20099814236164093 0.35661983489990234
vt 0.20090459287166595 0.3592480421066284
vt 0.20063313841819763 0.3568227291107178
vt 0.20099814236164093 0.35661983489990234
vt 0.20183762907981873 0.3658686876296997
vt 0.20162083208560944 0.364554762840271
vt 0.2015385776758194 0.3622351884841919
vt 0.2007109522819519 0.35610824823379517
vt 0.20089076459407806 0.35716718435287476
vt 0.2013140171766281 0.35777872800827026
vt 0.20162083208560944 0.364554762840271
vt 0.20126453042030334 0.3655107021331787
vt 0.2015385776758194 0.3622351884841919
vt 0.20183762907981873 0.3658686876296997
vt 0.20166875422000885 0.3671059012413025
vt 0.20162083208560944 0.364554762840271
vt 0.2013140171766281 0.35777872800827026
vt 0.20099814236164093 0.35661983489990234
vt 0.20089533925056458 0.3553975224494934
vt 0.20166875422000885 0.3671059012413025
vt 0.20126453042030334 0.3655107021331787
vt 0.20162083208560944 0.364554762840271
vt 0.20089533925056458 0.3553975224494934
vt 0.2007109522819519 0.35610824823379517
vt 0.2013140171766281 0.35777872800827026
vt 0.20127245783805847 0.3665926456451416
vt 0.20126453042030334 0.3655107021331787
vt 0.20121565461158752 0.3716152310371399
vt 0.20151810348033905 0.369670033454895
vt 0.20126453042030334 0.3655107021331787
vt 0.20166875422000885 0.3671059012413025
vt 0.20183762907981873 0.3658686876296997
vt 0.2018837034702301 0.37082695960998535
vt 0.20166875422000885 0.3671059012413025
vt 0.20151810348033905 0.369670033454895
vt 0.20121565461158752 0.3716152310371399
vt 0.20126453042030334 0.3655107021331787
vt 0.20151810348033905 0.369670033454895
vt 0.20166875422000885 0.3671059012413025
vt 0.2018837034702301 0.37082695960998535
vt 0.20153585076332092 0.36947178840637207
vt 0.20150311291217804 0.3716247081756592
vt 0.2018837034702301 0.37082695960998535
vt 0.20150311291217804 0.3716247081756592
vt 0.20153585076332092 0.36947178840637207
vt 0.20121565461158752 0.3716152310371399
vt 0.20151810348033905 0.369670033454895
vt 0.2018837034702301 0.37082695960998535
vt 0.20163877308368683 0.3719763159751892
vt 0.20163877308368683 0.3719763159751892
vt 0.20121565461158752 0.3716152310371399
vt 0.20151810348033905 0.369670033454895
vt 0.20150311291217804 0.3716247081756592
vt 0.2013600468635559 0.37360072135925293
vt 0.2018837034702301 0.37082695960998535
vt 0.2013600468635559 0.37360072135925293
vt 0.20150311291217804 0.3716247081756592
vt 0.20121565461158752 0.3716152310371399
vt 0.2014150619506836 0.37404584884643555
vt 0.20163877308368683 0.3719763159751892
vt 0.2018837034702301 0.37082695960998535
vt 0.2014150619506836 0.37404584884643555
vt 0.20121565461158752 0.3716152310371399
vt 0.20163877308368683 0.3719763159751892
vt 0.2013600468635559 0.37360072135925293
vt 0.20121565461158752 0.3716152310371399
vt 0.2009100764989853 0.3756505846977234
vt 0.2014150619506836 0.37404584884643555
vt 0.2018837034702301 0.37082695960998535
vt 0.2014501541852951 0.375521183013916
vt 0.2009100764989853 0.3756505846977234
vt 0.20121565461158752 0.3716152310371399
vt 0.2014150619506836 0.37404584884643555
vt 0.2014501541852951 0.375521183013916
vt 0.2012883722782135 0.3759951591491699
vt 0.2014150619506836 0.37404584884643555
vt 0.2012883722782135 0.3759951591491699
vt 0.2009100764989853 0.3756505846977234
vt 0.2014150619506836 0.37404584884643555
vn 0.5881376266479492 0.12419243156909943 0.799168586730957
vn 0.6040619015693665 0.09969934076070786 0.7906765341758728
vn 0.8845854997634888 0.3623122572898865 0.2936636805534363
vn -0.9280731081962585 -0.0004262998700141907 0.37239789962768555
vn -0.642784833908081 0.07520531117916107 0.7623462677001953
vn -0.925443172454834 0.0003048749640583992 0.3788864016532898
vn 0.8555467128753662 -0.020078636705875397 0.5173361897468567
vn 0.8570429682731628 -0.019744884222745895 0.5148664712905884
vn 0.9964591860771179 0.017388075590133667 -0.08226083219051361
vn -0.9519246816635132 -0.2652123272418976 -0.15330252051353455
vn -0.9444077610969543 0.11309032142162323 0.3087140917778015
vn -0.9430175423622131 -0.0030715614557266235 0.33272844552993774
vn -0.9257265329360962 0.15207335352897644 0.3462716341018677
vn -0.9712618589401245 -0.17300401628017426 -0.16346287727355957
vn -0.9723147749900818 0.15274551510810852 -0.1768411546945572
vn 0.9994159936904907 -0.03294481337070465 0.009067714214324951
vn 0.9999465346336365 0.008987851440906525 -0.005118876695632935
vn 0.824006199836731 -0.16787777841091156 -0.5411384105682373
vn -0.5697625875473022 -0.08342292904853821 0.8175642490386963
vn -0.5879963040351868 0.023916035890579224 0.8085100054740906
vn -0.9057450890541077 0.009920135140419006 0.42370671033859253
vn -0.6966838836669922 -0.2963535189628601 -0.653303861618042
vn -0.28169751167297363 -0.05179525166749954 -0.9581041932106018
vn -0.6726856827735901 0.11890046298503876 -0.7303126454353333
vn 0.9645707607269287 0.21576745808124542 -0.1518138200044632
vn 0.8480542302131653 -0.26712486147880554 -0.45765525102615356
vn 0.843288779258728 -0.2132292091846466 -0.49335306882858276
vn 0.9963074922561646 0.03752359002828598 -0.07722330093383789
vn 0.856981635093689 -0.1065099835395813 0.504220187664032
vn 0.9788662195205688 0.19829192757606506 0.05001264810562134
vn -0.11959758400917053 -0.2908293604850769 -0.9492706656455994
vn -0.04492446780204773 0.09399347752332687 -0.9945586919784546
vn -0.5713304877281189 -0.052487388253211975 -0.8190400004386902
vn 0.24135707318782806 0.5447085499763489 0.8031435012817383
vn 0.6711406707763672 0.29032135009765625 0.6821171641349792
vn 0.72237229347229 0.3609566390514374 0.5898208618164063
vn 0.07625435292720795 -0.4942302703857422 -0.8659802079200745
vn 0.07048732042312622 -0.10033921897411346 -0.9924532771110535
vn -0.3916695713996887 -0.3974688649177551 -0.8298273682594299
vn -0.9839230179786682 -0.1638219654560089 -0.0711175948381424
vn -0.9730281829833984 0.1370043158531189 -0.1855960190296173
vn -0.902961015701294 0.3130636513233185 0.2943679392337799
vn -0.5432282090187073 0.3096775412559509 -0.7803863286972046
vn -0.6058014631271362 -0.0457085557281971 -0.7943017482757568
vn -0.08958674967288971 0.0824991762638092 -0.9925563335418701
vn -0.2301863729953766 -0.4995420277118683 -0.8351478576660156
vn -0.679118812084198 -0.18316538631916046 -0.7108079195022583
vn -0.3214832842350006 -0.6337609887123108 -0.7035590410232544
vn -0.9662874341011047 -0.012107037007808685 -0.25718075037002563
vn -0.9374617338180542 -0.0561877116560936 0.34352347254753113
vn -0.9441384077072144 -0.14138364791870117 0.2976797819137573
vn 0.9883365631103516 -0.14994339644908905 -0.026604801416397095
vn 0.7849142551422119 -0.21047738194465637 -0.5827597379684448
vn 0.7764582633972168 -0.3232341408729553 -0.5409548878669739
vn -0.5331273078918457 -0.17438070476055145 -0.8278687000274658
vn -0.6172721982002258 -0.3933645486831665 -0.6813511848449707
vn -0.09917344152927399 -0.532749593257904 -0.840441882610321
vn 0.9623064994812012 0.26473313570022583 -0.06230977177619934
vn 0.8085955381393433 0.04576166719198227 -0.5865824818611145
vn 0.8037787675857544 0.05692017823457718 -0.5921989679336548
vn 0.1341940313577652 0.5511094331741333 0.8235716819763184
vn 0.174800306558609 0.49164754152297974 0.8530693650245667
vn 0.6378356218338013 0.6299321055412292 0.4431154727935791
vn -0.2973078787326813 0.05265412479639053 -0.9533286094665527
vn -0.7461178302764893 0.1868589222431183 -0.6390554904937744
vn -0.3875771760940552 -0.18496516346931458 -0.9030901789665222
vn 0.9880331158638 -0.08221057057380676 -0.1305069625377655
vn 0.7834744453430176 0.2873891294002533 -0.5509766340255737
vn 0.7776293158531189 0.17420248687267303 -0.6041077375411987
vn 0.9671539664268494 0.14981089532375336 -0.20535311102867126
vn 0.8408392667770386 -0.4068617820739746 -0.3570053279399872
vn 0.8349660634994507 -0.4105812907218933 -0.36640793085098267
vn 0.013782843947410583 0.5128558874130249 -0.8583640456199646
vn -0.4263542592525482 0.14696547389030457 -0.8925374746322632
vn 0.0218031108379364 0.12988853454589844 -0.9912889003753662
vn 0.9240870475769043 0.13934339582920074 0.35587430000305176
vn 0.5551906824111938 0.6029304265975952 0.5729208588600159
vn 0.8786688446998596 0.4353441596031189 0.19600127637386322
vn -0.8580478429794312 -0.18102537095546722 0.48060768842697144
vn -0.9919434785842896 -0.07233303785324097 -0.10400031507015228
vn -0.9748874306678772 0.18601100146770477 0.12245234847068787
vn -0.6511539220809937 0.5228921175003052 -0.5500749945640564
vn -0.6999891996383667 0.14298102259635925 -0.6996939182281494
vn -0.2693179249763489 0.48156630992889404 -0.8340034484863281
vn 0.9977409243583679 -0.025860700756311417 -0.062002524733543396
vn 0.9990658760070801 0.016633719205856323 -0.03988417983055115
vn 0.7998872399330139 0.28120696544647217 -0.5301915407180786
vn -0.6922388076782227 0.24370840191841125 -0.6792728900909424
vn -0.9438257217407227 0.3093142807483673 -0.11626528203487396
vn -0.7664328813552856 0.06835045665502548 -0.6386774778366089
vn 0.3679395318031311 0.4364229440689087 -0.8210696578025818
vn 0.4567517042160034 0.2676190733909607 -0.8483854532241821
vn 0.7567672729492188 0.4775446057319641 -0.44637924432754517
vn 0.8007627725601196 -0.4522658884525299 0.3927268385887146
vn 0.7931206226348877 -0.4167580008506775 0.44415345788002014
vn 0.9795951843261719 -0.18366797268390656 -0.08160339295864105
vn -0.6277206540107727 -0.5404009819030762 0.5602978467941284
vn -0.6306037902832031 -0.49397343397140503 0.5986059904098511
vn -0.8091243505477905 -0.11822963505983353 0.5756210088729858
vn 0.18450629711151123 0.45576757192611694 -0.8707659840583801
vn 0.6064726114273071 0.5749591588973999 -0.5491930246353149
vn 0.4951041638851166 0.7084709405899048 -0.5029321312904358
vn -0.20263969898223877 0.7808790802955627 -0.5909020304679871
vn -0.6824260950088501 0.4901708960533142 -0.5422427654266357
vn -0.2705501317977905 0.46875396370887756 -0.8408759832382202
vn 0.7429344654083252 -0.44386765360832214 0.5010288953781128
vn 0.7381297945976257 -0.5181154012680054 0.4321119785308838
vn 0.7682124972343445 -0.6334106922149658 0.0929536372423172
vn -0.5422924757003784 -0.6788907647132874 0.49500128626823425
vn -0.571122944355011 -0.5978899002075195 0.5624468326568604
vn -0.8968814611434937 -0.34924009442329407 0.27135801315307617
vn 0.7496681809425354 0.6053040027618408 -0.26759058237075806
vn 0.7500996589660645 0.6106172800064087 -0.25396284461021423
vn 0.8091053366661072 0.22815310955047607 -0.5415669679641724
vn -0.6381638050079346 0.7200921773910522 -0.2724228501319885
vn -0.7236128449440002 0.447576105594635 -0.525414228439331
vn -0.2526746988296509 0.7323806285858154 -0.6322768926620483
vn -0.353632390499115 -0.7455431222915649 0.564897894859314
vn -0.7972031831741333 -0.5798593163490295 0.16801917552947998
vn -0.19466149806976318 -0.31712862849235535 0.9281898736953735
vn 0.8051666021347046 0.5629754066467285 -0.1864548921585083
vn 0.9974116683006287 0.002345547080039978 -0.071864053606987
vn 0.797582745552063 0.198155015707016 0.5697335004806519
vn -0.7936314940452576 0.35727599263191223 0.49244585633277893
vn -0.9675842523574829 0.14274470508098602 -0.2083376944065094
vn -0.6676479578018188 0.6891138553619385 -0.28172385692596436
vn 0.7459478378295898 -0.012766629457473755 0.6658821105957031
vn 0.5949884057044983 0.7161715030670166 0.36481112241744995
vn 0.9065648913383484 0.3813658356666565 -0.18083159625530243
vn -0.45403212308883667 0.8376920819282532 0.30352428555488586
vn -0.7828248143196106 0.19239482283592224 0.5917513370513916
vn -0.7487600445747375 0.5936686396598816 -0.29481565952301025
f 3/3/3 2/2/2 1/1/1
f 6/6/6 5/5/5 4/4/4
f 9/9/9 8/8/8 7/7/7
f 12/12/12 11/11/11 10/10/10
f 15/15/15 14/14/14 13/13/13
f 18/18/18 17/17/17 16/16/16
f 21/21/21 20/20/20 19/19/19
f 24/24/24 23/23/23 22/22/22
f 27/27/27 26/26/26 25/25/25
f 30/30/30 29/29/29 28/28/28
f 33/33/33 32/32/32 31/31/31
f 36/36/36 35/35/35 34/34/34
f 39/39/39 38/38/38 37/37/37
f 42/42/42 41/41/41 40/40/40
f 45/45/45 44/44/44 43/43/43
f 48/48/48 47/47/47 46/46/46
f 51/51/51 50/50/50 49/49/49
f 54/54/54 53/53/53 52/52/52
f 57/57/57 56/56/56 55/55/55
f 60/60/60 59/59/59 58/58/58
f 63/63/63 62/62/62 61/61/61
f 66/66/66 65/65/65 64/64/64
f 69/69/69 68/68/68 67/67/67
f 72/72/72 71/71/71 70/70/70
f 75/75/75 74/74/74 73/73/73
f 78/78/78 77/77/77 76/76/76
f 81/81/81 80/80/80 79/79/79
f 84/84/84 83/83/83 82/82/82
f 87/87/87 86/86/86 85/85/85
f 90/90/90 89/89/89 88/88/88
f 93/93/93 92/92/92 91/91/91
f 96/96/96 95/95/95 94/94/94
f 99/99/99 98/98/98 97/97/97
f 102/102/102 101/101/101 100/100/100
f 105/105/105 104/104/104 103/103/103
f 108/108/108 107/107/107 106/106/106
f 111/111/111 110/110/110 109/109/109
f 114/114/114 113/113/113 112/112/112
f 117/117/117 116/116/116 115/115/115
f 120/120/120 119/119/119 118/118/118
f 123/123/123 122/122/122 121/121/121
f 126/126/126 125/125/125 124/124/124
f 129/129/129 128/128/128 127/127/127
f 132/132/132 131/131/131 130/130/130
