# VPXTOOL table OBJ file
# VPXTOOL OBJ file
# numVerts: 76 numFaces: 195
o LM_L_LH7_Playfield
v -233.93276977539063 534.5339965820313 -0
v -41.22587585449219 534.7922973632813 -0
v -36.2238883972168 548.8837280273438 -0
v -106.2380599975586 639.1170654296875 -0
v 151.48098754882813 535.0505981445313 -0
v -244.15174865722656 563.1470947265625 -0
v -176.25222778320313 729.3502807617188 -0
v 151.48098754882813 535.0505981445313 23.52941131591797
v 161.48497009277344 563.2334594726563 23.52941131591797
v 161.48497009277344 563.2334594726563 -0
v 151.48098754882813 535.0505981445313 -0
v 151.48098754882813 535.0505981445313 23.52941131591797
v 161.48497009277344 563.2334594726563 -0
v 161.48497009277344 563.2334594726563 -0
v 161.48497009277344 563.2334594726563 23.52941131591797
v 163.42108154296875 566.1377563476563 23.52941131591797
v 163.42108154296875 566.1377563476563 -0
v 163.42108154296875 566.1377563476563 23.52941131591797
v 165.67999267578125 567.9664916992188 23.52941131591797
v 165.67999267578125 567.9664916992188 -0
v 165.67999267578125 567.9664916992188 23.52941131591797
v 168.6919708251953 569.14990234375 23.52941131591797
v 168.6919708251953 569.14990234375 -0
v 161.48497009277344 563.2334594726563 -0
v 163.42108154296875 566.1377563476563 -0
v 163.42108154296875 566.1377563476563 23.52941131591797
v 165.67999267578125 567.9664916992188 -0
v 165.67999267578125 567.9664916992188 -0
v 165.67999267578125 567.9664916992188 23.52941131591797
v 168.6919708251953 569.14990234375 -0
v 168.6919708251953 569.14990234375 -0
v 168.6919708251953 569.14990234375 23.52941131591797
v 172.56436157226563 569.580078125 -0
v 91.47079467773438 653.466796875 -0
v 163.42108154296875 566.1377563476563 -0
v -181.36172485351563 743.6567993164063 -0
v 92.92289733886719 655.6448974609375 -0
v 165.67999267578125 567.9664916992188 -0
v 168.6919708251953 569.14990234375 -0
v 96.8760757446289 657.9041137695313 -0
v 21.456623077392578 743.7000122070313 -0
v 200.3537139892578 680.413818359375 -0
v 172.56436157226563 569.580078125 -0
v 92.43888092041016 654.9189453125 -0
v 91.47079467773438 653.466796875 -0
v 163.42108154296875 566.1377563476563 -0
v 92.43888092041016 654.9189453125 -0
v 94.05237579345703 656.5592651367188 -0
v 94.61705780029297 657.0164794921875 -0
v 95.37007904052734 657.3123779296875 -0
v 96.8760757446289 657.9041137695313 -0
v 168.6919708251953 569.14990234375 -0
v 200.3537139892578 680.413818359375 -0
v 202.28988647460938 680.6289672851563 -0
v 21.456623077392578 743.7000122070313 -0
v 22.42470932006836 745.1521606445313 -0
v 94.61705780029297 657.0164794921875 -0
v 95.37007904052734 657.3123779296875 -0
v 25.060178756713867 746.658203125 -0
v 25.060178756713867 746.658203125 -0
v 23.55413246154785 746.0665283203125 -0
v 128.53781127929688 769.1679077148438 -0
v 128.53781127929688 769.1679077148438 -0
v -48.55752182006836 833.9331665039063 -0
v -118.57166290283203 924.16650390625 -0
v 232.0154571533203 791.6777954101563 -0
v -48.07347869873047 834.6593627929688 -0
v -46.75574493408203 835.4122924804688 -0
v -47.508766174316406 835.1165771484375 -0
v -46.75574493408203 835.4122924804688 -0
v -47.508766174316406 835.1165771484375 -0
v 23.55413246154785 746.0665283203125 -0
v 56.721923828125 857.922119140625 -0
v 160.19955444335938 880.4320068359375 -0
v -15.093999862670898 946.6763916015625 -0
v 88.3836669921875 969.1859741210938 -0
vt 0.5289236903190613 0.8491048812866211
vt 0.5289948582649231 0.793159544467926
vt 0.5328866243362427 0.791732132434845
vt 0.5582579374313354 0.8125886917114258
vt 0.5290660262107849 0.7372092008590698
vt 0.5368450284004211 0.8524175882339478
vt 0.5844351053237915 0.8341076970100403
vt 0.531589686870575 0.7375134229660034
vt 0.5393508076667786 0.7344051599502563
vt 0.5368690490722656 0.7340778112411499
vt 0.5290660262107849 0.7372092008590698
vt 0.531589686870575 0.7375134229660034
vt 0.5368690490722656 0.7340778112411499
vt 0.5368690490722656 0.7340778112411499
vt 0.5393508076667786 0.7344051599502563
vt 0.5401548743247986 0.7338207960128784
vt 0.5376774668693542 0.7334891557693481
vt 0.5401548743247986 0.7338207960128784
vt 0.5406615138053894 0.7331510186195374
vt 0.5381869077682495 0.7328146696090698
vt 0.5406615138053894 0.7331510186195374
vt 0.5409895181655884 0.7322677969932556
vt 0.5385167002677917 0.7319251894950867
vt 0.5368690490722656 0.7340778112411499
vt 0.5376774668693542 0.7334891557693481
vt 0.5401548743247986 0.7338207960128784
vt 0.5381869077682495 0.7328146696090698
vt 0.5381869077682495 0.7328146696090698
vt 0.5406615138053894 0.7331510186195374
vt 0.5385167002677917 0.7319251894950867
vt 0.5385167002677917 0.7319251894950867
vt 0.5409895181655884 0.7322677969932556
vt 0.5386366248130798 0.7307906150817871
vt 0.5623660087585449 0.7540826797485352
vt 0.5376774668693542 0.7334891557693481
vt 0.5886620879173279 0.8357788920402527
vt 0.5629913806915283 0.7536419034004211
vt 0.5381869077682495 0.7328146696090698
vt 0.5385167002677917 0.7319251894950867
vt 0.5636404752731323 0.7524587512016296
vt 0.5886749029159546 0.7747246026992798
vt 0.5701360702514648 0.7215391397476196
vt 0.5386366248130798 0.7307906150817871
vt 0.562782883644104 0.7537888884544373
vt 0.5623660087585449 0.7540826797485352
vt 0.5376774668693542 0.7334891557693481
vt 0.562782883644104 0.7537888884544373
vt 0.5632539987564087 0.7533026337623596
vt 0.5633853673934937 0.7531329989433289
vt 0.5634704232215881 0.7529082298278809
vt 0.5636404752731323 0.7524587512016296
vt 0.5385167002677917 0.7319251894950867
vt 0.5701360702514648 0.7215391397476196
vt 0.5701983571052551 0.7209604978561401
vt 0.5886749029159546 0.7747246026992798
vt 0.5891051292419434 0.7744314074516296
vt 0.5633853673934937 0.7531329989433289
vt 0.5634704232215881 0.7529082298278809
vt 0.589551568031311 0.7736358046531677
vt 0.589551568031311 0.7736358046531677
vt 0.5893761515617371 0.7740901708602905
vt 0.5962527394294739 0.7423142790794373
vt 0.5962527394294739 0.7423142790794373
vt 0.6158350706100464 0.7960345149040222
vt 0.6438887715339661 0.8180453777313232
vt 0.6030076146125793 0.7107417583465576
vt 0.6160572171211243 0.795888364315033
vt 0.6162876486778259 0.795487105846405
vt 0.6161971688270569 0.7957167625427246
vt 0.6162876486778259 0.795487105846405
vt 0.6161971688270569 0.7957167625427246
vt 0.5893761515617371 0.7740901708602905
vt 0.6232043504714966 0.7637535333633423
vt 0.6301773190498352 0.7317615747451782
vt 0.651031494140625 0.7858892679214478
vt 0.6582332253456116 0.7534670829772949
vn 0 -0 -1
vn 0 -0 -1
vn 0 -0 -1
vn 0 -0 -1
vn 0 -0 -1
vn 0 -0 -1
vn 0 -0 -1
vn 0.942389965057373 -0.33451634645462036 -0
vn 0.942389965057373 -0.33451634645462036 -0
vn 0.942389965057373 -0.33451634645462036 -0
vn 0.9423896670341492 -0.33451738953590393 -0
vn 0.9423896670341492 -0.33451738953590393 -0
vn 0.9423896670341492 -0.33451738953590393 -0
vn 0 -0 -1
vn 0.8320609927177429 -0.5546842217445374 -0
vn 0.8320609927177429 -0.5546842217445374 -0
vn 0.8320609927177429 -0.5546842217445374 -0
vn 0.6292157769203186 -0.7772306203842163 -0
vn 0.6292157769203186 -0.7772306203842163 -0
vn 0.6292157769203186 -0.7772306203842163 -0
vn 0.3656783401966095 -0.9307411909103394 -0
vn 0.3656783401966095 -0.9307411909103394 -0
vn 0.3656783401966095 -0.9307411909103394 -0
vn 0.8320609927177429 -0.5546842217445374 -0
vn 0.629221498966217 -0.7772259712219238 -0
vn 0.629221498966217 -0.7772259712219238 -0
vn 0.629221498966217 -0.7772259712219238 -0
vn 0.36567479372024536 -0.9307426810264587 -0
vn 0.36567479372024536 -0.9307426810264587 -0
vn 0.36567479372024536 -0.9307426810264587 -0
vn 0.11042298376560211 -0.9938846826553345 -0
vn 0.11042298376560211 -0.9938846826553345 -0
vn 0.11042298376560211 -0.9938846826553345 -0
vn 0 -0 -1
vn 0 -0 -1
vn 0 -0 -1
vn 0 -0 -1
vn 0 -0 -1
vn 0 -0 -1
vn 0 -0 -1
vn 0 -0 -1
vn 0 -0 -1
vn 0 -0 -1
vn 0 -0 -0.9999999403953552
vn 0 -0 -0.9999999403953552
vn 0 -0 -0.9999999403953552
vn 0 -0 -1
vn 0 -0 -1
vn 0 -0 -1
vn 0 -0 -1
vn 0 -0 -0.9999999403953552
vn 0 -0 -0.9999999403953552
vn 0 -0 -0.9999999403953552
vn 0 -0 -1
vn 0 -0 -0.9999999403953552
vn 0 -0 -1
vn 0 -0 -0.9999999403953552
vn 0 -0 -0.9999999403953552
vn 0 -0 -0.9999999403953552
vn 0 -0 -1
vn 0 -0 -1
vn 0 -0 -1
vn 0 -0 -0.9999999403953552
vn 0 -0 -1
vn 0 -0 -1
vn 0 -0 -1
vn 0 -0 -1
vn 0 -0 -1
vn 0 -0 -1
vn 0 -0 -0.9999999403953552
vn 0 -0 -0.9999999403953552
vn 0 -0 -0.9999999403953552
vn 0 -0 -1
vn 0 -0 -1
vn 0 -0 -1
vn 0 -0 -1
f 3/3/3 2/2/2 1/1/1
f 1/1/1 4/4/4 3/3/3
f 5/5/5 2/2/2 3/3/3
f 7/7/7 1/1/1 6/6/6
f 10/10/10 9/9/9 8/8/8
f 13/13/13 12/12/12 11/11/11
f 5/5/5 3/3/3 14/14/14
f 17/17/17 16/16/16 15/15/15
f 20/20/20 19/19/19 18/18/18
f 23/23/23 22/22/22 21/21/21
f 17/17/17 15/15/15 24/24/24
f 27/27/27 26/26/26 25/25/25
f 1/1/1 7/7/7 4/4/4
f 30/30/30 29/29/29 28/28/28
f 33/33/33 32/32/32 31/31/31
f 3/3/3 34/34/34 14/14/14
f 35/35/35 14/14/14 34/34/34
f 7/7/7 6/6/6 36/36/36
f 38/38/38 35/35/35 37/37/37
f 40/40/40 39/39/39 38/38/38
f 4/4/4 41/41/41 3/3/3
f 43/43/43 39/39/39 42/42/42
f 46/46/46 45/45/45 44/44/44
f 37/37/37 35/35/35 47/47/47
f 38/38/38 37/37/37 48/48/48
f 49/49/49 38/38/38 48/48/48
f 50/50/50 38/38/38 49/49/49
f 40/40/40 38/38/38 50/50/50
f 3/3/3 41/41/41 34/34/34
f 53/53/53 52/52/52 51/51/51
f 43/43/43 42/42/42 54/54/54
f 4/4/4 7/7/7 41/41/41
f 44/44/44 45/45/45 55/55/55
f 47/47/47 41/41/41 37/37/37
f 48/48/48 37/37/37 56/56/56
f 49/49/49 48/48/48 56/56/56
f 59/59/59 58/58/58 57/57/57
f 60/60/60 40/40/40 50/50/50
f 41/41/41 56/56/56 37/37/37
f 56/56/56 61/61/61 49/49/49
f 61/61/61 60/60/60 49/49/49
f 62/62/62 42/42/42 40/40/40
f 63/63/63 51/51/51 59/59/59
f 7/7/7 64/64/64 41/41/41
f 65/65/65 7/7/7 36/36/36
f 54/54/54 42/42/42 66/66/66
f 56/56/56 41/41/41 64/64/64
f 61/61/61 56/56/56 67/67/67
f 60/60/60 61/61/61 68/68/68
f 66/66/66 42/42/42 62/62/62
f 7/7/7 65/65/65 64/64/64
f 64/64/64 67/67/67 56/56/56
f 67/67/67 69/69/69 61/61/61
f 72/72/72 71/71/71 70/70/70
f 73/73/73 62/62/62 60/60/60
f 73/73/73 60/60/60 68/68/68
f 64/64/64 65/65/65 67/67/67
f 67/67/67 65/65/65 69/69/69
f 69/69/69 65/65/65 68/68/68
f 74/74/74 66/66/66 62/62/62
f 73/73/73 74/74/74 62/62/62
f 75/75/75 73/73/73 68/68/68
f 75/75/75 68/68/68 65/65/65
f 76/76/76 74/74/74 73/73/73
f 76/76/76 73/73/73 75/75/75
