# VPXTOOL table OBJ file
# VPXTOOL OBJ file
# numVerts: 76 numFaces: 87
o LM_F_FL5a_UnderPF
v -391.0531311035156 513.7115478515625 -12.23087215423584
v -400.0783996582031 515.5067749023438 -12.23087215423584
v -391.0531311035156 513.7115478515625 -6.426159381866455
v -383.40185546875 508.59918212890625 -12.23087215423584
v -391.0531311035156 513.7115478515625 -12.23087215423584
v -383.40185546875 508.59918212890625 -6.426159381866455
v -391.0531311035156 513.7115478515625 -12.23087215423584
v -391.0531311035156 513.7115478515625 -6.426159381866455
v -383.40185546875 508.59918212890625 -6.426159381866455
v -400.0783996582031 515.5067749023438 -12.23087215423584
v -409.1036682128906 513.7115478515625 -12.23087215423584
v -400.0783996582031 515.5067749023438 -6.426159381866455
v -400.0783996582031 515.5067749023438 -12.23087215423584
v -400.0783996582031 515.5067749023438 -6.426159381866455
v -391.0531311035156 513.7115478515625 -6.426159381866455
v -378.2894592285156 500.9479064941406 -12.23087215423584
v -383.40185546875 508.59918212890625 -12.23087215423584
v -378.2894592285156 500.9479064941406 -6.426159381866455
v -383.40185546875 508.59918212890625 -12.23087215423584
v -383.40185546875 508.59918212890625 -6.426159381866455
v -378.2894592285156 500.9479064941406 -6.426159381866455
v -409.1036682128906 513.7115478515625 -12.23087215423584
v -409.1036682128906 513.7115478515625 -6.426159381866455
v -400.0783996582031 515.5067749023438 -6.426159381866455
v -376.49420166015625 491.9225769042969 -6.426159381866455
v -391.0531311035156 513.7115478515625 -6.426159381866455
v -400.0783996582031 515.5067749023438 -6.426159381866455
v -383.40185546875 508.59918212890625 -6.426159381866455
v -378.2894592285156 500.9479064941406 -12.23087215423584
v -378.2894592285156 500.9479064941406 -6.426159381866455
v -376.49420166015625 491.9225769042969 -6.426159381866455
v -376.49420166015625 491.9225769042969 -12.23087215423584
v -376.49420166015625 491.9225769042969 -6.426159381866455
v -378.2894592285156 500.9479064941406 -6.426159381866455
v -383.40185546875 508.59918212890625 -6.426159381866455
v -423.6625671386719 491.9225769042969 -6.426159381866455
v -400.0783996582031 515.5067749023438 -6.426159381866455
v -409.1036682128906 513.7115478515625 -6.426159381866455
v -376.49420166015625 491.9225769042969 -12.23087215423584
v -376.49420166015625 491.9225769042969 -6.426159381866455
v -378.2894592285156 482.8973388671875 -6.426159381866455
v -378.2894592285156 482.8973388671875 -12.23087215423584
v -400.0783996582031 468.3384704589844 -6.426159381866455
v -383.40185546875 475.24609375 -6.426159381866455
v -378.2894592285156 482.8973388671875 -6.426159381866455
v -376.49420166015625 491.9225769042969 -6.426159381866455
v -378.2894592285156 482.8973388671875 -12.23087215423584
v -378.2894592285156 482.8973388671875 -6.426159381866455
v -383.40185546875 475.24609375 -6.426159381866455
v -383.40185546875 475.24609375 -12.23087215423584
v -378.2894592285156 482.8973388671875 -12.23087215423584
v -383.40185546875 475.24609375 -6.426159381866455
v -423.6625671386719 491.9225769042969 -6.426159381866455
v -391.0531311035156 470.13372802734375 -6.426159381866455
v -383.40185546875 475.24609375 -6.426159381866455
v -383.40185546875 475.24609375 -12.23087215423584
v -383.40185546875 475.24609375 -6.426159381866455
v -391.0531311035156 470.13372802734375 -6.426159381866455
v -391.0531311035156 470.13372802734375 -12.23087215423584
v -383.40185546875 475.24609375 -12.23087215423584
v -391.0531311035156 470.13372802734375 -6.426159381866455
v -376.49420166015625 491.9225769042969 -6.426159381866455
v -400.0783996582031 468.3384704589844 -6.426159381866455
v -391.0531311035156 470.13372802734375 -6.426159381866455
v -400.0783996582031 468.3384704589844 -12.23087215423584
v -391.0531311035156 470.13372802734375 -12.23087215423584
v -400.0783996582031 468.3384704589844 -6.426159381866455
v -391.0531311035156 470.13372802734375 -12.23087215423584
v -391.0531311035156 470.13372802734375 -6.426159381866455
v -400.0783996582031 468.3384704589844 -6.426159381866455
v -423.6625671386719 491.9225769042969 -6.426159381866455
v -409.1036682128906 470.13372802734375 -6.426159381866455
v -400.0783996582031 468.3384704589844 -6.426159381866455
v -400.0783996582031 468.3384704589844 -12.23087215423584
v -400.0783996582031 468.3384704589844 -6.426159381866455
v -409.1036682128906 470.13372802734375 -6.426159381866455
vt 0.9452531933784485 0.8125408887863159
vt 0.9457859396934509 0.8151522874832153
vt 0.9459890127182007 0.8123438358306885
vt 0.9437378644943237 0.8102591633796692
vt 0.9452531933784485 0.8125408887863159
vt 0.9444755911827087 0.8100661039352417
vt 0.9452531933784485 0.8125408887863159
vt 0.9459890127182007 0.8123438358306885
vt 0.9444755911827087 0.8100661039352417
vt 0.9457859396934509 0.8151522874832153
vt 0.9452531933784485 0.8176916241645813
vt 0.9465210437774658 0.8149508237838745
vt 0.9457859396934509 0.8151522874832153
vt 0.9465210437774658 0.8149508237838745
vt 0.9459890127182007 0.8123438358306885
vt 0.9414748549461365 0.8086564540863037
vt 0.9437378644943237 0.8102591633796692
vt 0.9422154426574707 0.808466374874115
vt 0.9437378644943237 0.8102591633796692
vt 0.9444755911827087 0.8100661039352417
vt 0.9422154426574707 0.808466374874115
vt 0.9452531933784485 0.8176916241645813
vt 0.9459890127182007 0.8174859285354614
vt 0.9465210437774658 0.8149508237838745
vt 0.9395567774772644 0.8077867031097412
vt 0.9459890127182007 0.8123438358306885
vt 0.9465210437774658 0.8149508237838745
vt 0.9444755911827087 0.8100661039352417
vt 0.9414748549461365 0.8086564540863037
vt 0.9422154426574707 0.808466374874115
vt 0.9395567774772644 0.8077867031097412
vt 0.9388129115104675 0.8079754114151001
vt 0.9395567774772644 0.8077867031097412
vt 0.9422154426574707 0.808466374874115
vt 0.9444755911827087 0.8100661039352417
vt 0.9395567774772644 0.8211749792098999
vt 0.9465210437774658 0.8149508237838745
vt 0.9459890127182007 0.8174859285354614
vt 0.9388129115104675 0.8079754114151001
vt 0.9395567774772644 0.8077867031097412
vt 0.936906099319458 0.80812668800354
vt 0.9361588954925537 0.808315634727478
vt 0.9326469898223877 0.8140146136283875
vt 0.9346652030944824 0.8094304203987122
vt 0.936906099319458 0.80812668800354
vt 0.9395567774772644 0.8077867031097412
vt 0.9361588954925537 0.808315634727478
vt 0.936906099319458 0.80812668800354
vt 0.9346652030944824 0.8094304203987122
vt 0.9339151978492737 0.809621274471283
vt 0.9361588954925537 0.808315634727478
vt 0.9346652030944824 0.8094304203987122
vt 0.9395567774772644 0.8211749792098999
vt 0.9331710338592529 0.8114974498748779
vt 0.9346652030944824 0.8094304203987122
vt 0.9339151978492737 0.809621274471283
vt 0.9346652030944824 0.8094304203987122
vt 0.9331710338592529 0.8114974498748779
vt 0.9324191808700562 0.8116916418075562
vt 0.9339151978492737 0.809621274471283
vt 0.9331710338592529 0.8114974498748779
vt 0.9395567774772644 0.8077867031097412
vt 0.9326469898223877 0.8140146136283875
vt 0.9331710338592529 0.8114974498748779
vt 0.9318944811820984 0.8142129182815552
vt 0.9324191808700562 0.8116916418075562
vt 0.9326469898223877 0.8140146136283875
vt 0.9324191808700562 0.8116916418075562
vt 0.9331710338592529 0.8114974498748779
vt 0.9326469898223877 0.8140146136283875
vt 0.9395567774772644 0.8211749792098999
vt 0.9331710338592529 0.8166024684906006
vt 0.9326469898223877 0.8140146136283875
vt 0.9318944811820984 0.8142129182815552
vt 0.9326469898223877 0.8140146136283875
vt 0.9331710338592529 0.8166024684906006
vn -0.19509294629096985 -0.9807847738265991 -0
vn -0.19509294629096985 -0.9807847738265991 -0
vn -0.19509294629096985 -0.9807847738265991 -0
vn -0.5555657148361206 -0.831472635269165 -0
vn -0.5555657148361206 -0.831472635269165 -0
vn -0.5555657148361206 -0.831472635269165 -0
vn -0.555569052696228 -0.8314703106880188 -0
vn -0.555569052696228 -0.8314703106880188 -0
vn -0.555569052696228 -0.8314703106880188 -0
vn 0.19509294629096985 -0.9807847738265991 -0
vn 0.19509294629096985 -0.9807847738265991 -0
vn 0.19509294629096985 -0.9807847738265991 -0
vn -0.19509291648864746 -0.9807847738265991 -0
vn -0.19509291648864746 -0.9807847738265991 -0
vn -0.19509291648864746 -0.9807847738265991 -0
vn -0.8314714431762695 -0.5555675029754639 -0
vn -0.8314714431762695 -0.5555675029754639 -0
vn -0.8314714431762695 -0.5555675029754639 -0
vn -0.831467866897583 -0.5555726885795593 -0
vn -0.831467866897583 -0.5555726885795593 -0
vn -0.831467866897583 -0.5555726885795593 -0
vn 0.19509148597717285 -0.980785071849823 -0
vn 0.19509148597717285 -0.980785071849823 -0
vn 0.19509148597717285 -0.980785071849823 -0
vn 0 -0 -0.9999999403953552
vn 0 -0 -0.9999999403953552
vn 0 -0 -0.9999999403953552
vn 0 -0 -0.9999999403953552
vn -0.9807844758033752 -0.1950945109128952 -0
vn -0.9807844758033752 -0.1950945109128952 -0
vn -0.9807844758033752 -0.1950945109128952 -0
vn -0.9807844758033752 -0.1950945109128952 -0
vn 0 -0 -1
vn 0 -0 -1
vn 0 -0 -1
vn 0 -0 -1
vn 0 -0 -1
vn 0 -0 -1
vn -0.9807840585708618 0.19509679079055786 -0
vn -0.9807840585708618 0.19509679079055786 -0
vn -0.9807840585708618 0.19509679079055786 -0
vn -0.9807840585708618 0.19509679079055786 -0
vn 0 -0 -0.9999999403953552
vn -0.00000019268000528427365 -0 -1
vn -0.00000019268000528427365 -0 -1
vn -0.00000019268000528427365 -0 -1
vn -0.8314713835716248 0.5555675625801086 -0
vn -0.8314713835716248 0.5555675625801086 -0
vn -0.8314713835716248 0.5555675625801086 -0
vn -0.8314679861068726 0.5555726885795593 -0
vn -0.8314679861068726 0.5555726885795593 -0
vn -0.8314679861068726 0.5555726885795593 -0
vn 0 -0 -0.9999999403953552
vn 0 -0 -0.9999999403953552
vn 0 -0 -0.9999999403953552
vn -0.555565595626831 0.831472635269165 -0
vn -0.555565595626831 0.831472635269165 -0
vn -0.555565595626831 0.831472635269165 -0
vn -0.5555691719055176 0.8314703106880188 -0
vn -0.5555691719055176 0.8314703106880188 -0
vn -0.5555691719055176 0.8314703106880188 -0
vn 0.00000014647018531377398 -0 -1
vn 0.00000014647018531377398 -0 -1
vn 0.00000014647018531377398 -0 -1
vn -0.19509294629096985 0.9807847738265991 -0
vn -0.19509294629096985 0.9807847738265991 -0
vn -0.19509294629096985 0.9807847738265991 -0
vn -0.19509291648864746 0.9807847738265991 -0
vn -0.19509291648864746 0.9807847738265991 -0
vn -0.19509291648864746 0.9807847738265991 -0
vn -0.00000014647018531377398 -0 -1
vn -0.00000014647018531377398 -0 -1
vn -0.00000014647018531377398 -0 -1
vn 0.19509291648864746 0.9807847738265991 -0
vn 0.19509291648864746 0.9807847738265991 -0
vn 0.19509291648864746 0.9807847738265991 -0
f 3/3/3 2/2/2 1/1/1
f 6/6/6 5/5/5 4/4/4
f 9/9/9 8/8/8 7/7/7
f 12/12/12 11/11/11 10/10/10
f 15/15/15 14/14/14 13/13/13
f 18/18/18 17/17/17 16/16/16
f 21/21/21 20/20/20 19/19/19
f 24/24/24 23/23/23 22/22/22
f 27/27/27 26/26/26 25/25/25
f 26/26/26 28/28/28 25/25/25
f 31/31/31 30/30/30 29/29/29
f 31/31/31 29/29/29 32/32/32
f 35/35/35 34/34/34 33/33/33
f 38/38/38 37/37/37 36/36/36
f 41/41/41 40/40/40 39/39/39
f 41/41/41 39/39/39 42/42/42
f 27/27/27 25/25/25 43/43/43
f 46/46/46 45/45/45 44/44/44
f 49/49/49 48/48/48 47/47/47
f 52/52/52 51/51/51 50/50/50
f 43/43/43 53/53/53 27/27/27
f 55/55/55 54/54/54 25/25/25
f 58/58/58 57/57/57 56/56/56
f 61/61/61 60/60/60 59/59/59
f 64/64/64 63/63/63 62/62/62
f 67/67/67 66/66/66 65/65/65
f 70/70/70 69/69/69 68/68/68
f 73/73/73 72/72/72 71/71/71
f 76/76/76 75/75/75 74/74/74
