# VPXTOOL table OBJ file
# VPXTOOL OBJ file
# numVerts: 105 numFaces: 114
o VRMinRoom
v 4.761229991912842 -12.424259185791016 -33.8242073059082
v 4.761240005493164 -8.160235404968262 20.388242721557617
v -131.62796020507813 127.80902099609375 9.693695068359375
v 4.7643327713012695 -8.160235404968262 20.388242721557617
v 4.764341831207275 -12.424259185791016 -33.8242073059082
v 141.15354919433594 127.80902862548828 9.693695068359375
v 141.15818786621094 198.73245239257813 4.11714506149292
v -131.6308135986328 127.81427001953125 9.695141792297363
v 141.15557861328125 127.81380462646484 9.695178031921387
v -131.6326141357422 127.81365966796875 9.693330764770508
v -131.6326141357422 123.54963684082031 -44.519065856933594
v -131.62796020507813 127.80902099609375 9.693695068359375
v -131.6326141357422 194.46823120117188 -50.0977668762207
v 141.15640258789063 123.55005645751953 -44.51976776123047
v -131.6300048828125 123.5495834350586 -44.51973342895508
v 141.15818786621094 194.46824645996094 -50.0977668762207
v 141.15640258789063 123.55005645751953 -44.51976776123047
v 141.15818786621094 123.54964447021484 -44.519065856933594
v 141.15557861328125 123.54959106445313 -44.51973342895508
v 4.762785911560059 -12.423246383666992 -33.82490921020508
v -131.6326141357422 198.73245239257813 4.11714506149292
v -131.6308135986328 127.81427001953125 9.695141792297363
v 4.761240005493164 -8.160235404968262 20.388242721557617
v 4.7643327713012695 -8.160235404968262 20.388242721557617
v 4.762785911560059 -8.15902042388916 20.390003204345703
v 141.15354919433594 127.80902862548828 9.693695068359375
v 141.15818786621094 127.81366729736328 9.693330764770508
v 141.15557861328125 127.81380462646484 9.695178031921387
v 4.764341831207275 -12.424259185791016 -33.8242073059082
v 4.761229991912842 -12.424259185791016 -33.8242073059082
v 4.762785911560059 -12.423246383666992 -33.82490921020508
v 141.15557861328125 123.54959106445313 -44.51973342895508
v 141.15640258789063 123.55005645751953 -44.51976776123047
v 141.15818786621094 123.54964447021484 -44.519065856933594
v -131.6326141357422 123.55142974853516 -44.51987838745117
v -131.6300048828125 123.5495834350586 -44.51973342895508
v -131.6326141357422 123.54963684082031 -44.519065856933594
v -131.6308135986328 127.81427001953125 9.695141792297363
v -131.6326141357422 127.81564331054688 9.695032119750977
v -131.62796020507813 127.80902099609375 9.693695068359375
v 141.15354919433594 127.80902862548828 9.693695068359375
v 141.15557861328125 127.81380462646484 9.695178031921387
v 4.7643327713012695 -8.160235404968262 20.388242721557617
v 141.15818786621094 123.54964447021484 -44.519065856933594
v 4.764341831207275 -12.424259185791016 -33.8242073059082
v 141.15557861328125 123.54959106445313 -44.51973342895508
v 4.7643327713012695 -8.160235404968262 20.388242721557617
v 4.761240005493164 -8.160235404968262 20.388242721557617
v 4.764341831207275 -12.424259185791016 -33.8242073059082
v 4.762785911560059 -8.15902042388916 20.390003204345703
v -131.6300048828125 127.81379699707031 9.695178031921387
v 4.761240005493164 -8.160235404968262 20.388242721557617
v 4.761229991912842 -12.424259185791016 -33.8242073059082
v -131.6326141357422 123.54963684082031 -44.519065856933594
v 4.762785911560059 -12.423246383666992 -33.82490921020508
v -131.6300048828125 127.81379699707031 9.695178031921387
v 4.762785911560059 -8.15902042388916 20.390003204345703
v 141.15557861328125 127.81380462646484 9.695178031921387
v 141.15818786621094 127.8156509399414 9.695032119750977
v 141.15818786621094 198.73245239257813 4.11714506149292
v -131.6308135986328 127.81427001953125 9.695141792297363
v -131.6300048828125 127.81379699707031 9.695178031921387
v 141.15557861328125 127.81380462646484 9.695178031921387
v -131.6326141357422 123.54963684082031 -44.519065856933594
v -131.6300048828125 123.5495834350586 -44.51973342895508
v -131.6326141357422 123.55142974853516 -44.51987838745117
v -131.6326141357422 194.46823120117188 -50.0977668762207
v 141.15640258789063 123.55005645751953 -44.51976776123047
v 141.15557861328125 123.54959106445313 -44.51973342895508
v -131.6300048828125 123.5495834350586 -44.51973342895508
v 141.15818786621094 194.46824645996094 -50.0977668762207
v 141.15818786621094 123.55143737792969 -44.51987838745117
v 141.15640258789063 123.55005645751953 -44.51976776123047
v 141.15818786621094 123.54964447021484 -44.519065856933594
v 141.15818786621094 127.81366729736328 9.693330764770508
v 141.15354919433594 127.80902862548828 9.693695068359375
v -131.6326141357422 198.73245239257813 4.11714506149292
v -131.6326141357422 127.81564331054688 9.695032119750977
v -131.6308135986328 127.81427001953125 9.695141792297363
v 141.15818786621094 127.81366729736328 9.693330764770508
v 141.15818786621094 127.8156509399414 9.695032119750977
v 141.15557861328125 127.81380462646484 9.695178031921387
v 141.15640258789063 123.55005645751953 -44.51976776123047
v 141.15818786621094 123.55143737792969 -44.51987838745117
v 141.15818786621094 123.54964447021484 -44.519065856933594
v -131.62796020507813 127.80902099609375 9.693695068359375
v -131.6300048828125 127.81379699707031 9.695178031921387
v -131.6308135986328 127.81427001953125 9.695141792297363
v -131.6326141357422 127.81564331054688 9.695032119750977
v -131.6326141357422 127.81365966796875 9.693330764770508
v -131.62796020507813 127.80902099609375 9.693695068359375
v 141.15557861328125 127.81380462646484 9.695178031921387
v 4.762785911560059 -8.15902042388916 20.390003204345703
v 4.7643327713012695 -8.160235404968262 20.388242721557617
v 4.764341831207275 -12.424259185791016 -33.8242073059082
v 4.762785911560059 -12.423246383666992 -33.82490921020508
v 141.15557861328125 123.54959106445313 -44.51973342895508
v 4.761240005493164 -8.160235404968262 20.388242721557617
v 4.761229991912842 -12.424259185791016 -33.8242073059082
v -131.6300048828125 127.81379699707031 9.695178031921387
v -131.62796020507813 127.80902099609375 9.693695068359375
v 4.761240005493164 -8.160235404968262 20.388242721557617
v -131.6326141357422 123.54963684082031 -44.519065856933594
v -131.6300048828125 123.5495834350586 -44.51973342895508
v 4.762785911560059 -12.423246383666992 -33.82490921020508
vt 0.6376910209655762 0.008064985275268555
vt 0.6376910209655762 0.19567102193832397
vt 0.044589001685380936 0.19567102193832397
vt 0.04278799891471863 0.401528000831604
vt 0.04278799891471863 0.21349602937698364
vt 0.637237012386322 0.401528000831604
vt 0.01527899969369173 0.984749972820282
vt 0.18143099546432495 0.4168679714202881
vt 0.18143099546432495 0.9847450256347656
vt 0.044569000601768494 0.19567102193832397
vt 0.044569000601768494 0.008065998554229736
vt 0.044589001685380936 0.19567102193832397
vt 0.510079026222229 0.984749972820282
vt 0.6762310266494751 0.4168679714202881
vt 0.6762310266494751 0.9847450256347656
vt 0.510079026222229 0.41686397790908813
vt 0.6762300133705139 0.4168679714202881
vt 0.6372569799423218 0.21349602937698364
vt 0.6762310266494751 0.41686999797821045
vt 0.9947940111160278 0.7008069753646851
vt 0.01527899969369173 0.41686397790908813
vt 0.18142999708652496 0.4168679714202881
vt 0.49999600648880005 0.7008039951324463
vt 0.49999600648880005 0.7008099555969238
vt 0.4999940097332001 0.7008069753646851
vt 0.637237012386322 0.401528000831604
vt 0.6372560262680054 0.4015340209007263
vt 0.6372510194778442 0.4015340209007263
vt 0.9947969913482666 0.7008039951324463
vt 0.9947969913482666 0.7008099555969238
vt 0.9947940111160278 0.7008069753646851
vt 0.6762290000915527 0.41686898469924927
vt 0.6762300133705139 0.4168679714202881
vt 0.6762310266494751 0.41686397790908813
vt 0.6762310266494751 0.984749972820282
vt 0.6762310266494751 0.9847450256347656
vt 0.6762310266494751 0.984749972820282
vt 0.18142999708652496 0.4168679714202881
vt 0.181426003575325 0.41686397790908813
vt 0.18142899870872498 0.41687101125717163
vt 0.18144099414348602 0.9847400188446045
vt 0.18143099546432495 0.9847450256347656
vt 0.49999600648880005 0.7008099555969238
vt 0.6762310266494751 0.41686397790908813
vt 0.9947969913482666 0.7008039951324463
vt 0.6762310266494751 0.41686999797821045
vt 0.04278799891471863 0.401528000831604
vt 0.04278099909424782 0.401528000831604
vt 0.04278799891471863 0.21349602937698364
vt 0.4999940097332001 0.7008069753646851
vt 0.18143099546432495 0.41686999797821045
vt 0.49999600648880005 0.7008039951324463
vt 0.9947969913482666 0.7008099555969238
vt 0.6762310266494751 0.984749972820282
vt 0.9947940111160278 0.7008069753646851
vt 0.18143099546432495 0.41686999797821045
vt 0.4999940097332001 0.7008069753646851
vt 0.18143099546432495 0.9847450256347656
vt 0.181426003575325 0.984749972820282
vt 0.01527899969369173 0.984749972820282
vt 0.18143099546432495 0.4168679714202881
vt 0.18143099546432495 0.41686999797821045
vt 0.18143099546432495 0.9847450256347656
vt 0.044569000601768494 0.008065998554229736
vt 0.6762310266494751 0.9847450256347656
vt 0.676226019859314 0.984749972820282
vt 0.510079026222229 0.984749972820282
vt 0.6762310266494751 0.4168679714202881
vt 0.6762310266494751 0.41686999797821045
vt 0.6762310266494751 0.9847450256347656
vt 0.510079026222229 0.41686397790908813
vt 0.676226019859314 0.41686397790908813
vt 0.6762300133705139 0.4168679714202881
vt 0.6372569799423218 0.21349602937698364
vt 0.6372569799423218 0.401528000831604
vt 0.637237012386322 0.401528000831604
vt 0.01527899969369173 0.41686397790908813
vt 0.181426003575325 0.41686397790908813
vt 0.18142999708652496 0.4168679714202881
vt 0.6372560262680054 0.4015340209007263
vt 0.6372569799423218 0.4015340209007263
vt 0.6372510194778442 0.4015340209007263
vt 0.6762300133705139 0.4168679714202881
vt 0.676226019859314 0.41686397790908813
vt 0.6762310266494751 0.41686397790908813
vt 0.18142899870872498 0.41687101125717163
vt 0.18142899870872498 0.41686898469924927
vt 0.18142999708652496 0.4168679714202881
vt 0.181426003575325 0.41686397790908813
vt 0.18143099546432495 0.41686397790908813
vt 0.18142899870872498 0.41687101125717163
vt 0.18143099546432495 0.9847450256347656
vt 0.4999940097332001 0.7008069753646851
vt 0.49999600648880005 0.7008099555969238
vt 0.9947969913482666 0.7008039951324463
vt 0.9947940111160278 0.7008069753646851
vt 0.6762310266494751 0.41686999797821045
vt 0.04278099909424782 0.401528000831604
vt 0.04278099909424782 0.21349602937698364
vt 0.18143099546432495 0.41686999797821045
vt 0.18144099414348602 0.4168739914894104
vt 0.49999600648880005 0.7008039951324463
vt 0.6762310266494751 0.984749972820282
vt 0.6762310266494751 0.9847450256347656
vt 0.9947940111160278 0.7008069753646851
vn 0.707099974155426 0.7049000263214111 -0.055399999022483826
vn 0.707099974155426 0.7049000263214111 -0.055399999022483826
vn 0.707099974155426 0.7049000263214111 -0.055399999022483826
vn -0.707099974155426 0.7049000263214111 -0.055399999022483826
vn -0.707099974155426 0.7049000263214111 -0.055399999022483826
vn -0.707099974155426 0.7049000263214111 -0.055399999022483826
vn -0 -0.07840000092983246 -0.9969000220298767
vn -0 -0.07840000092983246 -0.9969000220298767
vn -0 -0.07840000092983246 -0.9969000220298767
vn 0.7081999778747559 0.7038000226020813 -0.05550000071525574
vn 0.7081999778747559 0.7038000226020813 -0.05550000071525574
vn 0.7081999778747559 0.7038000226020813 -0.05550000071525574
vn -0 0.07840000092983246 0.9969000220298767
vn -0 0.07840000092983246 0.9969000220298767
vn -0 0.07840000092983246 0.9969000220298767
vn -0 0.07840000092983246 0.9969000220298767
vn -0 0.07840000092983246 0.9969000220298767
vn -0.707099974155426 0.7049000263214111 -0.055399999022483826
vn -0 0.07840000092983246 0.9969000220298767
vn -0 0.07840000092983246 0.9969000220298767
vn -0 -0.07840000092983246 -0.9969000220298767
vn -0 -0.07840000092983246 -0.9969000220298767
vn 0.707099974155426 0.7049000263214111 -0.05559999868273735
vn -0.707099974155426 0.7049000263214111 -0.05559999868273735
vn -0 -0.07850000262260437 -0.9969000220298767
vn -0.7276999950408936 0.6833000183105469 -0.05920000001788139
vn -0.9466000199317932 0.2084999978542328 -0.24570000171661377
vn -0.21299999952316284 -0.2320999950170517 -0.9491000175476074
vn -0.7071999907493591 0.7049000263214111 -0.054999999701976776
vn 0.7071999907493591 0.7049000263214111 -0.054999999701976776
vn -0 0.07779999822378159 0.996999979019165
vn 0.007199999876320362 0.13420000672340393 0.9908999800682068
vn -0.17739999294281006 0.043299999088048935 0.9832000136375427
vn -0.9585999846458435 0.275299996137619 0.07240000367164612
vn -0.00009999999747378752 0.08320000022649765 0.9965000152587891
vn 0.0007999999797903001 0.08449999988079071 0.996399998664856
vn 0.7060999870300293 0.7057999968528748 -0.0575999990105629
vn -0.2816999852657318 -0.039799999445676804 -0.9587000012397766
vn 0.3125999867916107 -0.4027999937534332 -0.8601999878883362
vn 0.6644999980926514 0.7239999771118164 -0.18479999899864197
vn -0.7070000171661377 0.7050999999046326 -0.05420000106096268
vn -0.0007999999797903001 -0.07739999890327454 -0.996999979019165
vn 0.2513999938964844 0.5813000202178955 -0.7738999724388123
vn -0.7073000073432922 0.7041000127792358 -0.06310000270605087
vn 0.8324999809265137 0.2842000126838684 0.475600004196167
vn -0.00860000029206276 0.08540000021457672 0.9962999820709229
vn -0.707099974155426 0.7049000263214111 -0.05550000071525574
vn 0.707099974155426 0.7049000263214111 -0.055399999022483826
vn -0 0.7603999972343445 0.6495000123977661
vn -0.00019999999494757503 -0.07890000194311142 -0.9969000220298767
vn 0.8535000085830688 -0.18549999594688416 -0.4869999885559082
vn 0.7071999907493591 0.704800009727478 -0.05590000003576279
vn 0.7071999907493591 0.7053999900817871 -0.04780000075697899
vn 0.741599977016449 -0.565500020980835 0.3610000014305115
vn -0.007699999958276749 0.07020000368356705 0.9975000023841858
vn -0 -0.07840000092983246 -0.9969000220298767
vn -0 -0.07840000092983246 -0.9969000220298767
vn -0.00019999999494757503 -0.0786999985575676 -0.9969000220298767
vn -0.00019999999494757503 -0.0786999985575676 -0.9969000220298767
vn -0.00019999999494757503 -0.0786999985575676 -0.9969000220298767
vn -0 -0.07599999755620956 -0.9970999956130981
vn -0 -0.07599999755620956 -0.9970999956130981
vn -0 -0.07599999755620956 -0.9970999956130981
vn 0.707099974155426 0.7049000263214111 -0.055399999022483826
vn -0.00039999998989515007 0.07779999822378159 0.996999979019165
vn -0.00039999998989515007 0.07779999822378159 0.996999979019165
vn -0.00039999998989515007 0.07779999822378159 0.996999979019165
vn -0 0.07270000129938126 0.9973999857902527
vn -0 0.07270000129938126 0.9973999857902527
vn -0 0.07270000129938126 0.9973999857902527
vn 0.005100000184029341 0.07829999923706055 0.9969000220298767
vn 0.005100000184029341 0.07829999923706055 0.9969000220298767
vn 0.005100000184029341 0.07829999923706055 0.9969000220298767
vn -0.7081999778747559 0.7038000226020813 -0.05550000071525574
vn -0.7081999778747559 0.7038000226020813 -0.05550000071525574
vn -0.7081999778747559 0.7038000226020813 -0.05550000071525574
vn 0.0006000000284984708 -0.07829999923706055 -0.9969000220298767
vn 0.0006000000284984708 -0.07829999923706055 -0.9969000220298767
vn 0.0006000000284984708 -0.07829999923706055 -0.9969000220298767
vn -0.5194000005722046 0.8539999723434448 -0.030500000342726707
vn 0.03269999846816063 -0.029100000858306885 -0.9990000128746033
vn 0.3109000027179718 0.5746999979019165 -0.7570000290870667
vn 0.19059999287128448 0.4578999876976013 0.8683000206947327
vn -0.003000000026077032 0.061900001019239426 0.9980999827384949
vn -0.6207000017166138 0.7813000082969666 -0.06639999896287918
vn 0.6636999845504761 0.6747000217437744 -0.3228999972343445
vn -0.20360000431537628 -0.21089999377727509 -0.9560999870300293
vn 0.6862000226974487 -0.2904999852180481 -0.6668999791145325
vn 0.06109999865293503 -0.012000000104308128 -0.9980999827384949
vn 0.7257999777793884 0.6862999796867371 0.04749999940395355
vn 0.6273000240325928 0.7736999988555908 0.08869999647140503
vn -0.8535000085830688 -0.18559999763965607 -0.4869000017642975
vn 0.00019999999494757503 -0.0786999985575676 -0.9969000220298767
vn -0.707099974155426 0.7049000263214111 -0.05590000003576279
vn -0.7067000269889832 0.7059000134468079 -0.047600001096725464
vn 0.008500000461935997 0.07180000096559525 0.9973999857902527
vn -0.3027999997138977 0.5781000256538391 0.7577000260353088
vn -0 0.6495000123977661 -0.7603999972343445
vn 0.707099974155426 0.7049000263214111 -0.055399999022483826
vn 0.0010000000474974513 -0.07739999890327454 -0.996999979019165
vn 0.707099974155426 0.7049999833106995 -0.054099999368190765
vn -0.2515000104904175 0.5813999772071838 -0.7736999988555908
vn 0.7070000171661377 0.7042999863624573 -0.06379999965429306
vn 0.007499999832361937 0.08609999716281891 0.9962999820709229
vn -0.004900000058114529 0.5281999707221985 0.8490999937057495
f 12/12/12 11/11/11 10/10/10
f 3/3/3 2/2/2 1/1/1
f 3/3/3 1/1/1 64/64/64
f 6/6/6 5/5/5 4/4/4
f 6/6/6 18/18/18 5/5/5
f 5/5/5 99/99/99 98/98/98
f 9/9/9 8/8/8 7/7/7
f 22/22/22 21/21/21 7/7/7
f 57/57/57 56/56/56 9/9/9
f 15/15/15 14/14/14 13/13/13
f 17/17/17 16/16/16 13/13/13
f 20/20/20 19/19/19 15/15/15
f 25/25/25 24/24/24 23/23/23
f 28/28/28 27/27/27 26/26/26
f 31/31/31 30/30/30 29/29/29
f 34/34/34 33/33/33 32/32/32
f 37/37/37 36/36/36 35/35/35
f 40/40/40 39/39/39 38/38/38
f 43/43/43 42/42/42 41/41/41
f 46/46/46 45/45/45 44/44/44
f 49/49/49 48/48/48 47/47/47
f 52/52/52 51/51/51 50/50/50
f 55/55/55 54/54/54 53/53/53
f 60/60/60 59/59/59 58/58/58
f 63/63/63 62/62/62 61/61/61
f 67/67/67 66/66/66 65/65/65
f 70/70/70 69/69/69 68/68/68
f 73/73/73 72/72/72 71/71/71
f 76/76/76 75/75/75 74/74/74
f 79/79/79 78/78/78 77/77/77
f 82/82/82 81/81/81 80/80/80
f 85/85/85 84/84/84 83/83/83
f 88/88/88 87/87/87 86/86/86
f 91/91/91 90/90/90 89/89/89
f 94/94/94 93/93/93 92/92/92
f 97/97/97 96/96/96 95/95/95
f 102/102/102 101/101/101 100/100/100
f 105/105/105 104/104/104 103/103/103
