# VPXTOOL table OBJ file
# VPXTOOL OBJ file
# numVerts: 126 numFaces: 138
o LM_L_LW7_UnderPF
v -9.655649185180664 119.10394287109375 -12.153261184692383
v -20.27361297607422 121.21591186523438 -12.153261184692383
v -9.655649185180664 119.10394287109375 -5.324187755584717
v -20.27361297607422 121.21591186523438 -12.153261184692383
v -30.891605377197266 119.10394287109375 -12.153261184692383
v -20.27361297607422 121.21591186523438 -5.324187755584717
v -20.27361297607422 121.21591186523438 -12.153261184692383
v -20.27361297607422 121.21591186523438 -5.324187755584717
v -9.655649185180664 119.10394287109375 -5.324187755584717
v -0.6541602611541748 113.0892562866211 -12.153261184692383
v -9.655649185180664 119.10394287109375 -12.153261184692383
v -0.6541602611541748 113.0892562866211 -5.324187755584717
v -9.655649185180664 119.10394287109375 -12.153261184692383
v -9.655649185180664 119.10394287109375 -5.324187755584717
v -0.6541602611541748 113.0892562866211 -5.324187755584717
v -30.891605377197266 119.10394287109375 -12.153261184692383
v -30.891605377197266 119.10394287109375 -5.324187755584717
v -20.27361297607422 121.21591186523438 -5.324187755584717
v -0.6541602611541748 113.0892562866211 -5.324187755584717
v -9.655649185180664 119.10394287109375 -5.324187755584717
v -20.27361297607422 121.21591186523438 -5.324187755584717
v -30.891605377197266 119.10394287109375 -12.153261184692383
v -39.89309310913086 113.0892562866211 -12.153261184692383
v -30.891605377197266 119.10394287109375 -5.324187755584717
v -0.6541602611541748 113.0892562866211 -12.153261184692383
v -0.6541602611541748 113.0892562866211 -5.324187755584717
v 5.360414981842041 104.0877685546875 -5.324187755584717
v 5.360414981842041 104.0877685546875 -12.153261184692383
v -0.6541602611541748 113.0892562866211 -12.153261184692383
v 5.360414981842041 104.0877685546875 -5.324187755584717
v -20.27361297607422 121.21591186523438 -5.324187755584717
v -30.891605377197266 119.10394287109375 -5.324187755584717
v -39.89309310913086 113.0892562866211 -5.324187755584717
v -39.89309310913086 113.0892562866211 -12.153261184692383
v -39.89309310913086 113.0892562866211 -5.324187755584717
v -30.891605377197266 119.10394287109375 -5.324187755584717
v -39.89309310913086 113.0892562866211 -12.153261184692383
v -45.90766906738281 104.0877685546875 -12.153261184692383
v -39.89309310913086 113.0892562866211 -5.324187755584717
v -20.27361297607422 121.21591186523438 -5.324187755584717
v -39.89309310913086 113.0892562866211 -5.324187755584717
v -45.90766906738281 104.0877685546875 -5.324187755584717
v 7.47247314453125 93.46980285644531 -5.324187755584717
v 5.360414981842041 104.0877685546875 -5.324187755584717
v -0.6541602611541748 113.0892562866211 -5.324187755584717
v 5.360414981842041 104.0877685546875 -12.153261184692383
v 5.360414981842041 104.0877685546875 -5.324187755584717
v 7.47247314453125 93.46980285644531 -5.324187755584717
v 7.47247314453125 93.46980285644531 -12.153261184692383
v 5.360414981842041 104.0877685546875 -12.153261184692383
v 7.47247314453125 93.46980285644531 -5.324187755584717
v -45.90766906738281 104.0877685546875 -12.153261184692383
v -45.90766906738281 104.0877685546875 -5.324187755584717
v -39.89309310913086 113.0892562866211 -5.324187755584717
v -48.01972579956055 93.46980285644531 -5.324187755584717
v -20.27361297607422 65.72380065917969 -5.324187755584717
v -45.90766906738281 104.0877685546875 -12.153261184692383
v -48.01972579956055 93.46980285644531 -12.153261184692383
v -45.90766906738281 104.0877685546875 -5.324187755584717
v 7.47247314453125 93.46980285644531 -12.153261184692383
v 7.47247314453125 93.46980285644531 -5.324187755584717
v 5.360414981842041 82.85183715820313 -5.324187755584717
v 5.360414981842041 82.85183715820313 -12.153261184692383
v 7.47247314453125 93.46980285644531 -12.153261184692383
v 5.360414981842041 82.85183715820313 -5.324187755584717
v -48.01972579956055 93.46980285644531 -12.153261184692383
v -48.01972579956055 93.46980285644531 -5.324187755584717
v -45.90766906738281 104.0877685546875 -5.324187755584717
v -20.27361297607422 65.72380065917969 -5.324187755584717
v 7.47247314453125 93.46980285644531 -5.324187755584717
v -0.6541602611541748 113.0892562866211 -5.324187755584717
v -20.27361297607422 121.21591186523438 -5.324187755584717
v -48.01972579956055 93.46980285644531 -5.324187755584717
v -20.27361297607422 65.72380065917969 -5.324187755584717
v -48.01972579956055 93.46980285644531 -12.153261184692383
v -45.90766906738281 82.85183715820313 -12.153261184692383
v -48.01972579956055 93.46980285644531 -5.324187755584717
v 5.360414981842041 82.85183715820313 -12.153261184692383
v 5.360414981842041 82.85183715820313 -5.324187755584717
v -0.6541602611541748 73.85034942626953 -5.324187755584717
v -0.6541602611541748 73.85034942626953 -12.153261184692383
v 5.360414981842041 82.85183715820313 -12.153261184692383
v -0.6541602611541748 73.85034942626953 -5.324187755584717
v 5.360414981842041 82.85183715820313 -5.324187755584717
v -45.90766906738281 82.85183715820313 -12.153261184692383
v -45.90766906738281 82.85183715820313 -5.324187755584717
v -48.01972579956055 93.46980285644531 -5.324187755584717
v -45.90766906738281 82.85183715820313 -12.153261184692383
v -39.89309310913086 73.85034942626953 -12.153261184692383
v -45.90766906738281 82.85183715820313 -5.324187755584717
v -0.6541602611541748 73.85034942626953 -12.153261184692383
v -0.6541602611541748 73.85034942626953 -5.324187755584717
v -9.655649185180664 67.83576965332031 -5.324187755584717
v -45.90766906738281 82.85183715820313 -5.324187755584717
v -9.655649185180664 67.83576965332031 -12.153261184692383
v -20.27361297607422 65.72380065917969 -5.324187755584717
v -0.6541602611541748 73.85034942626953 -5.324187755584717
v 5.360414981842041 82.85183715820313 -5.324187755584717
v -39.89309310913086 73.85034942626953 -12.153261184692383
v -39.89309310913086 73.85034942626953 -5.324187755584717
v -45.90766906738281 82.85183715820313 -5.324187755584717
v -39.89309310913086 73.85034942626953 -12.153261184692383
v -30.891605377197266 67.83576965332031 -12.153261184692383
v -39.89309310913086 73.85034942626953 -5.324187755584717
v -20.27361297607422 65.72380065917969 -12.153261184692383
v -9.655649185180664 67.83576965332031 -12.153261184692383
v -20.27361297607422 65.72380065917969 -5.324187755584717
v -20.27361297607422 65.72380065917969 -5.324187755584717
v -45.90766906738281 82.85183715820313 -5.324187755584717
v -39.89309310913086 73.85034942626953 -5.324187755584717
v -20.27361297607422 65.72380065917969 -5.324187755584717
v -9.655649185180664 67.83576965332031 -5.324187755584717
v -0.6541602611541748 73.85034942626953 -5.324187755584717
v -9.655649185180664 67.83576965332031 -12.153261184692383
v -9.655649185180664 67.83576965332031 -5.324187755584717
v -20.27361297607422 65.72380065917969 -5.324187755584717
v -30.891605377197266 67.83576965332031 -12.153261184692383
v -20.27361297607422 65.72380065917969 -12.153261184692383
v -30.891605377197266 67.83576965332031 -5.324187755584717
v -30.891605377197266 67.83576965332031 -5.324187755584717
v -20.27361297607422 65.72380065917969 -12.153261184692383
v -20.27361297607422 65.72380065917969 -5.324187755584717
v -30.891605377197266 67.83576965332031 -5.324187755584717
v -39.89309310913086 73.85034942626953 -5.324187755584717
v -30.891605377197266 67.83576965332031 -5.324187755584717
v -20.27361297607422 65.72380065917969 -5.324187755584717
vt 0.3003111481666565 0.7838692665100098
vt 0.30098721385002136 0.786715030670166
vt 0.30155572295188904 0.7838544845581055
vt 0.30098721385002136 0.786715030670166
vt 0.3003111481666565 0.7895536422729492
vt 0.30223092436790466 0.7866950035095215
vt 0.30098721385002136 0.786715030670166
vt 0.30223092436790466 0.7866950035095215
vt 0.30155572295188904 0.7838544845581055
vt 0.2983883321285248 0.7814545035362244
vt 0.3003111481666565 0.7838692665100098
vt 0.29963526129722595 0.7814441919326782
vt 0.3003111481666565 0.7838692665100098
vt 0.30155572295188904 0.7838544845581055
vt 0.29963526129722595 0.7814441919326782
vt 0.3003111481666565 0.7895536422729492
vt 0.30155572295188904 0.7895283102989197
vt 0.30223092436790466 0.7866950035095215
vt 0.29963526129722595 0.7814441919326782
vt 0.30155572295188904 0.7838544845581055
vt 0.30223092436790466 0.7866950035095215
vt 0.3003111481666565 0.7895536422729492
vt 0.2983883321285248 0.7919479608535767
vt 0.30155572295188904 0.7895283102989197
vt 0.2983883321285248 0.7814545035362244
vt 0.29963526129722595 0.7814441919326782
vt 0.29676786065101624 0.7798331379890442
vt 0.29551732540130615 0.7798404693603516
vt 0.2983883321285248 0.7814545035362244
vt 0.29676786065101624 0.7798331379890442
vt 0.30223092436790466 0.7866950035095215
vt 0.30155572295188904 0.7895283102989197
vt 0.29963526129722595 0.7919182777404785
vt 0.2983883321285248 0.7919479608535767
vt 0.29963526129722595 0.7919182777404785
vt 0.30155572295188904 0.7895283102989197
vt 0.2983883321285248 0.7919479608535767
vt 0.29551732540130615 0.7935315370559692
vt 0.29963526129722595 0.7919182777404785
vt 0.30223092436790466 0.7866950035095215
vt 0.29963526129722595 0.7919182777404785
vt 0.29676786065101624 0.7934988737106323
vt 0.2933958172798157 0.7792645692825317
vt 0.29676786065101624 0.7798331379890442
vt 0.29963526129722595 0.7814441919326782
vt 0.29551732540130615 0.7798404693603516
vt 0.29676786065101624 0.7798331379890442
vt 0.2933958172798157 0.7792645692825317
vt 0.2921411693096161 0.7792708277702332
vt 0.29551732540130615 0.7798404693603516
vt 0.2933958172798157 0.7792645692825317
vt 0.29551732540130615 0.7935315370559692
vt 0.29676786065101624 0.7934988737106323
vt 0.29963526129722595 0.7919182777404785
vt 0.2933958172798157 0.7940317392349243
vt 0.28463688492774963 0.7866017818450928
vt 0.29551732540130615 0.7935315370559692
vt 0.2921411693096161 0.7940653562545776
vt 0.29676786065101624 0.7934988737106323
vt 0.2921411693096161 0.7792708277702332
vt 0.2933958172798157 0.7792645692825317
vt 0.2900349497795105 0.7798200845718384
vt 0.2887762188911438 0.779827356338501
vt 0.2921411693096161 0.7792708277702332
vt 0.2900349497795105 0.7798200845718384
vt 0.2921411693096161 0.7940653562545776
vt 0.2933958172798157 0.7940317392349243
vt 0.29676786065101624 0.7934988737106323
vt 0.28463688492774963 0.7866017818450928
vt 0.2933958172798157 0.7792645692825317
vt 0.29963526129722595 0.7814441919326782
vt 0.30223092436790466 0.7866950035095215
vt 0.2933958172798157 0.7940317392349243
vt 0.28463688492774963 0.7866017818450928
vt 0.2921411693096161 0.7940653562545776
vt 0.2887762188911438 0.7934730648994446
vt 0.2933958172798157 0.7940317392349243
vt 0.2887762188911438 0.779827356338501
vt 0.2900349497795105 0.7798200845718384
vt 0.28719449043273926 0.7814102172851563
vt 0.2859322428703308 0.7814204096794128
vt 0.2887762188911438 0.779827356338501
vt 0.28719449043273926 0.7814102172851563
vt 0.2900349497795105 0.7798200845718384
vt 0.2887762188911438 0.7934730648994446
vt 0.2900349497795105 0.7934406399726868
vt 0.2933958172798157 0.7940317392349243
vt 0.2887762188911438 0.7934730648994446
vt 0.2859322428703308 0.7918497323989868
vt 0.2900349497795105 0.7934406399726868
vt 0.2859322428703308 0.7814204096794128
vt 0.28719449043273926 0.7814102172851563
vt 0.28530097007751465 0.7837909460067749
vt 0.2900349497795105 0.7934406399726868
vt 0.28403642773628235 0.7838054895401001
vt 0.28463688492774963 0.7866017818450928
vt 0.28719449043273926 0.7814102172851563
vt 0.2900349497795105 0.7798200845718384
vt 0.2859322428703308 0.7918497323989868
vt 0.28719449043273926 0.7918203473091125
vt 0.2900349497795105 0.7934406399726868
vt 0.2859322428703308 0.7918497323989868
vt 0.28403642773628235 0.7894445657730103
vt 0.28719449043273926 0.7918203473091125
vt 0.28337153792381287 0.7866214513778687
vt 0.28403642773628235 0.7838054895401001
vt 0.28463688492774963 0.7866017818450928
vt 0.28463688492774963 0.7866017818450928
vt 0.2900349497795105 0.7934406399726868
vt 0.28719449043273926 0.7918203473091125
vt 0.28463688492774963 0.7866017818450928
vt 0.28530097007751465 0.7837909460067749
vt 0.28719449043273926 0.7814102172851563
vt 0.28403642773628235 0.7838054895401001
vt 0.28530097007751465 0.7837909460067749
vt 0.28463688492774963 0.7866017818450928
vt 0.28403642773628235 0.7894445657730103
vt 0.28337153792381287 0.7866214513778687
vt 0.28530097007751465 0.7894195914268494
vt 0.28530097007751465 0.7894195914268494
vt 0.28337153792381287 0.7866214513778687
vt 0.28463688492774963 0.7866017818450928
vt 0.28530097007751465 0.7894195914268494
vt 0.28719449043273926 0.7918203473091125
vt 0.28530097007751465 0.7894195914268494
vt 0.28463688492774963 0.7866017818450928
vn -0.19508418440818787 -0.9807865023612976 -0
vn -0.19508418440818787 -0.9807865023612976 -0
vn -0.19508418440818787 -0.9807865023612976 -0
vn 0.19508367776870728 -0.9807866215705872 -0
vn 0.19508367776870728 -0.9807866215705872 -0
vn 0.19508367776870728 -0.9807866215705872 -0
vn -0.19508424401283264 -0.9807865023612976 -0
vn -0.19508424401283264 -0.9807865023612976 -0
vn -0.19508424401283264 -0.9807865023612976 -0
vn -0.5555756688117981 -0.8314660787582397 -0
vn -0.5555756688117981 -0.8314660787582397 -0
vn -0.5555756688117981 -0.8314660787582397 -0
vn -0.5555755496025085 -0.8314661383628845 -0
vn -0.5555755496025085 -0.8314661383628845 -0
vn -0.5555755496025085 -0.8314661383628845 -0
vn 0.1950838267803192 -0.9807866215705872 -0
vn 0.1950838267803192 -0.9807866215705872 -0
vn 0.1950838267803192 -0.9807866215705872 -0
vn 0 -0 -0.9999999403953552
vn 0 -0 -0.9999999403953552
vn 0 -0 -0.9999999403953552
vn 0.5555756688117981 -0.8314660787582397 -0
vn 0.5555756688117981 -0.8314660787582397 -0
vn 0.5555756688117981 -0.8314660787582397 -0
vn -0.8314707279205322 -0.555568516254425 -0
vn -0.8314707279205322 -0.555568516254425 -0
vn -0.8314707279205322 -0.555568516254425 -0
vn -0.8314708471298218 -0.5555684566497803 -0
vn -0.8314708471298218 -0.5555684566497803 -0
vn -0.8314708471298218 -0.5555684566497803 -0
vn -0.000000034801260540007206 -0 -1
vn -0.000000034801260540007206 -0 -1
vn -0.000000034801260540007206 -0 -1
vn 0.5555755496025085 -0.8314661383628845 -0
vn 0.5555755496025085 -0.8314661383628845 -0
vn 0.5555755496025085 -0.8314661383628845 -0
vn 0.8314708471298218 -0.5555684566497803 -0
vn 0.8314708471298218 -0.5555684566497803 -0
vn 0.8314708471298218 -0.5555684566497803 -0
vn 0 -0 -1
vn 0 -0 -1
vn 0 -0 -1
vn 0.0000002784224761853693 -0 -1
vn 0.0000002784224761853693 -0 -1
vn 0.0000002784224761853693 -0 -1
vn -0.9807850122451782 -0.19509157538414001 -0
vn -0.9807850122451782 -0.19509157538414001 -0
vn -0.9807850122451782 -0.19509157538414001 -0
vn -0.980785071849823 -0.19509153068065643 -0
vn -0.980785071849823 -0.19509153068065643 -0
vn -0.980785071849823 -0.19509153068065643 -0
vn 0.8314707279205322 -0.555568516254425 -0
vn 0.8314707279205322 -0.555568516254425 -0
vn 0.8314707279205322 -0.555568516254425 -0
vn 0 -0 -1
vn 0 -0 -0.9999999403953552
vn 0.980785071849823 -0.19509145617485046 -0
vn 0.980785071849823 -0.19509145617485046 -0
vn 0.980785071849823 -0.19509145617485046 -0
vn -0.980785071849823 0.19509150087833405 -0
vn -0.980785071849823 0.19509150087833405 -0
vn -0.980785071849823 0.19509150087833405 -0
vn -0.980785071849823 0.1950916200876236 -0
vn -0.980785071849823 0.1950916200876236 -0
vn -0.980785071849823 0.1950916200876236 -0
vn 0.9807848930358887 -0.1950920671224594 -0
vn 0.9807848930358887 -0.1950920671224594 -0
vn 0.9807848930358887 -0.1950920671224594 -0
vn 0 -0 -1
vn 0 -0 -1
vn 0 -0 -1
vn -0.00000001622076872820344 -0 -1
vn -0.00000001622076872820344 -0 -1
vn -0.00000001622076872820344 -0 -1
vn 0.9807848930358887 0.1950920969247818 -0
vn 0.9807848930358887 0.1950920969247818 -0
vn 0.9807848930358887 0.1950920969247818 -0
vn -0.8314707279205322 0.555568516254425 -0
vn -0.8314707279205322 0.555568516254425 -0
vn -0.8314707279205322 0.555568516254425 -0
vn -0.8314708471298218 0.5555684566497803 -0
vn -0.8314708471298218 0.5555684566497803 -0
vn -0.8314708471298218 0.5555684566497803 -0
vn 0 -0 -1
vn 0.980785071849823 0.19509142637252808 -0
vn 0.980785071849823 0.19509142637252808 -0
vn 0.980785071849823 0.19509142637252808 -0
vn 0.8314708471298218 0.5555684566497803 -0
vn 0.8314708471298218 0.5555684566497803 -0
vn 0.8314708471298218 0.5555684566497803 -0
vn -0.555568516254425 0.8314707279205322 -0
vn -0.555568516254425 0.8314707279205322 -0
vn -0.555568516254425 0.8314707279205322 -0
vn 0 -0 -1
vn -0.555568516254425 0.8314707279205322 -0
vn 0.00000004888365268129746 -0 -1
vn 0.00000004888365268129746 -0 -1
vn 0.00000004888365268129746 -0 -1
vn 0.8314707279205322 0.555568516254425 -0
vn 0.8314707279205322 0.555568516254425 -0
vn 0.8314707279205322 0.555568516254425 -0
vn 0.555568516254425 0.8314708471298218 -0
vn 0.555568516254425 0.8314708471298218 -0
vn 0.555568516254425 0.8314708471298218 -0
vn -0.19508421421051025 0.9807865023612976 -0
vn -0.19508421421051025 0.9807865023612976 -0
vn -0.19508421421051025 0.9807865023612976 -0
vn -0.00000009776715614862042 -0 -1
vn -0.00000009776715614862042 -0 -1
vn -0.00000009776715614862042 -0 -1
vn -0.00000010440679432122124 -0 -0.9999999403953552
vn -0.00000010440679432122124 -0 -0.9999999403953552
vn -0.00000010440679432122124 -0 -0.9999999403953552
vn -0.19508419930934906 0.9807865023612976 -0
vn -0.19508419930934906 0.9807865023612976 -0
vn -0.19508419930934906 0.9807865023612976 -0
vn 0.19508381187915802 0.9807866215705872 -0
vn 0.19508381187915802 0.9807866215705872 -0
vn 0.19508381187915802 0.9807866215705872 -0
vn 0.555568516254425 0.8314708471298218 -0
vn 0.19508369266986847 0.9807866215705872 -0
vn 0.19508369266986847 0.9807866215705872 -0
vn 0.19508369266986847 0.9807866215705872 -0
vn 0.00000013920814012635674 -0 -1
vn 0.00000013920814012635674 -0 -1
vn 0.00000013920814012635674 -0 -1
f 3/3/3 2/2/2 1/1/1
f 6/6/6 5/5/5 4/4/4
f 9/9/9 8/8/8 7/7/7
f 12/12/12 11/11/11 10/10/10
f 15/15/15 14/14/14 13/13/13
f 18/18/18 17/17/17 16/16/16
f 21/21/21 20/20/20 19/19/19
f 24/24/24 23/23/23 22/22/22
f 27/27/27 26/26/26 25/25/25
f 30/30/30 29/29/29 28/28/28
f 33/33/33 32/32/32 31/31/31
f 36/36/36 35/35/35 34/34/34
f 39/39/39 38/38/38 37/37/37
f 42/42/42 41/41/41 40/40/40
f 45/45/45 44/44/44 43/43/43
f 48/48/48 47/47/47 46/46/46
f 51/51/51 50/50/50 49/49/49
f 54/54/54 53/53/53 52/52/52
f 55/55/55 42/42/42 40/40/40
f 21/21/21 19/19/19 56/56/56
f 59/59/59 58/58/58 57/57/57
f 62/62/62 61/61/61 60/60/60
f 65/65/65 64/64/64 63/63/63
f 68/68/68 67/67/67 66/66/66
f 71/71/71 70/70/70 69/69/69
f 74/74/74 73/73/73 72/72/72
f 77/77/77 76/76/76 75/75/75
f 80/80/80 79/79/79 78/78/78
f 83/83/83 82/82/82 81/81/81
f 70/70/70 84/84/84 69/69/69
f 87/87/87 86/86/86 85/85/85
f 90/90/90 89/89/89 88/88/88
f 93/93/93 92/92/92 91/91/91
f 94/94/94 55/55/55 69/69/69
f 93/93/93 91/91/91 95/95/95
f 98/98/98 97/97/97 96/96/96
f 101/101/101 100/100/100 99/99/99
f 104/104/104 103/103/103 102/102/102
f 107/107/107 106/106/106 105/105/105
f 110/110/110 109/109/109 108/108/108
f 113/113/113 112/112/112 111/111/111
f 116/116/116 115/115/115 114/114/114
f 119/119/119 118/118/118 117/117/117
f 104/104/104 120/120/120 103/103/103
f 123/123/123 122/122/122 121/121/121
f 126/126/126 125/125/125 124/124/124
