# VPXTOOL table OBJ file
# VPXTOOL OBJ file
# numVerts: 30 numFaces: 33
o LM_L_LB2_Layer1
v 13.048419952392578 -55.82217788696289 -4.451409816741943
v 13.048419952392578 -55.82217788696289 -0.46317142248153687
v 46.254695892333984 -30.692720413208008 -0.46317142248153687
v -33.02505874633789 -32.03665542602539 -4.451409816741943
v 13.048419952392578 -55.82217788696289 -4.451409816741943
v 46.254695892333984 -30.692720413208008 -4.451409816741943
v 46.254695892333984 -30.692720413208008 -4.451409816741943
v 13.048419952392578 -55.82217788696289 -4.451409816741943
v 46.254695892333984 -30.692720413208008 -0.46317142248153687
v -33.02505874633789 -32.03665542602539 -4.451409816741943
v -28.316043853759766 73.21063995361328 -4.451409816741943
v -33.02505874633789 -32.03665542602539 -0.46317142248153687
v -33.02505874633789 -32.03665542602539 -4.451409816741943
v 46.254695892333984 -30.692720413208008 -4.451409816741943
v -28.316043853759766 73.21063995361328 -4.451409816741943
v 46.254695892333984 -30.692720413208008 -4.451409816741943
v 46.254695892333984 -30.692720413208008 -0.46317142248153687
v 51.21830749511719 71.25801849365234 -0.46317142248153687
v -28.316043853759766 73.21063995361328 -0.46317142248153687
v -28.316043853759766 73.21063995361328 -4.451409816741943
v 51.21830749511719 71.25801849365234 -4.451409816741943
v 51.21830749511719 71.25801849365234 -4.451409816741943
v 46.254695892333984 -30.692720413208008 -4.451409816741943
v 51.21830749511719 71.25801849365234 -0.46317142248153687
v -28.316043853759766 73.21063995361328 -4.451409816741943
v 51.21830749511719 71.25801849365234 -4.451409816741943
v -28.316043853759766 73.21063995361328 -0.46317142248153687
v 51.21830749511719 71.25801849365234 -4.451409816741943
v 51.21830749511719 71.25801849365234 -0.46317142248153687
v -28.316043853759766 73.21063995361328 -0.46317142248153687
vt 0.20999914407730103 0.0003914833068847656
vt 0.20995354652404785 0.001052558422088623
vt 0.21705661714076996 0.007143974304199219
vt 0.19627541303634644 0.00233614444732666
vt 0.20999914407730103 0.0003914833068847656
vt 0.21710939705371857 0.006485879421234131
vt 0.21710939705371857 0.006485879421234131
vt 0.20999914407730103 0.0003914833068847656
vt 0.21705661714076996 0.007143974304199219
vt 0.19627541303634644 0.00233614444732666
vt 0.19024918973445892 0.021489083766937256
vt 0.19624318182468414 0.0029963254928588867
vt 0.19627541303634644 0.00233614444732666
vt 0.21710939705371857 0.006485879421234131
vt 0.19024918973445892 0.021489083766937256
vt 0.21710939705371857 0.006485879421234131
vt 0.21705661714076996 0.007143974304199219
vt 0.21161456406116486 0.02581954002380371
vt 0.19022248685359955 0.02213996648788452
vt 0.19024918973445892 0.021489083766937256
vt 0.2116626799106598 0.025170564651489258
vt 0.2116626799106598 0.025170564651489258
vt 0.21710939705371857 0.006485879421234131
vt 0.21161456406116486 0.02581954002380371
vt 0.19024918973445892 0.021489083766937256
vt 0.2116626799106598 0.025170564651489258
vt 0.19022248685359955 0.02213996648788452
vt 0.2116626799106598 0.025170564651489258
vt 0.21161456406116486 0.02581954002380371
vt 0.19022248685359955 0.02213996648788452
vn 0.6034485697746277 -0.7974019050598145 -0
vn 0.6034485697746277 -0.7974019050598145 -0
vn 0.6034485697746277 -0.7974019050598145 -0
vn 0 -0 -1
vn 0 -0 -1
vn 0 -0 -1
vn 0.6034485101699829 -0.7974019646644592 -0
vn 0.6034485101699829 -0.7974019646644592 -0
vn 0.6034485101699829 -0.7974019646644592 -0
vn -0.9990005493164063 0.04469766467809677 -0
vn -0.9990005493164063 0.04469766467809677 -0
vn -0.9990005493164063 0.04469766467809677 -0
vn 0.0000000001872152155524276 -0 -1
vn 0.0000000001872152155524276 -0 -1
vn 0.0000000001872152155524276 -0 -1
vn 0.9988168478012085 -0.04862874373793602 -0
vn 0.9988168478012085 -0.04862874373793602 -0
vn 0.9988168478012085 -0.04862874373793602 -0
vn -0.9990005493164063 0.04469766467809677 -0
vn 0 -0 -1
vn 0 -0 -1
vn 0.9988168478012085 -0.048628803342580795 -0
vn 0.9988168478012085 -0.048628803342580795 -0
vn 0.9988168478012085 -0.048628803342580795 -0
vn 0.024543315172195435 0.99969881772995 -0
vn 0.024543315172195435 0.99969881772995 -0
vn 0.024543315172195435 0.99969881772995 -0
vn 0.024543318897485733 0.99969881772995 -0
vn 0.024543318897485733 0.99969881772995 -0
vn 0.024543318897485733 0.99969881772995 -0
f 3/3/3 2/2/2 1/1/1
f 6/6/6 5/5/5 4/4/4
f 9/9/9 8/8/8 7/7/7
f 12/12/12 11/11/11 10/10/10
f 15/15/15 14/14/14 13/13/13
f 18/18/18 17/17/17 16/16/16
f 12/12/12 19/19/19 11/11/11
f 21/21/21 6/6/6 20/20/20
f 24/24/24 23/23/23 22/22/22
f 27/27/27 26/26/26 25/25/25
f 30/30/30 29/29/29 28/28/28
