# VPXTOOL table OBJ file
# VPXTOOL OBJ file
# numVerts: 58 numFaces: 60
o LM_F_FL1_RArm
v 8.350282669067383 9.508030891418457 -72.88787841796875
v 6.7409844398498535 9.508030891418457 -76.33917999267578
v 11.450386047363281 9.508030891418457 -76.93648529052734
v 11.450386047363281 9.508030891418457 -76.93648529052734
v 6.7409844398498535 9.508030891418457 -76.33917999267578
v 11.450386047363281 3.8079609870910645 -76.93648529052734
v 11.450386047363281 9.508030891418457 -76.93648529052734
v 11.450386047363281 9.508030891418457 -73.13648986816406
v 8.350282669067383 9.508030891418457 -72.88787841796875
v 11.450386047363281 9.508030891418457 -73.13648986816406
v 11.450386047363281 9.508030891418457 -76.93648529052734
v 11.450386047363281 3.8079609870910645 -76.93648529052734
v 6.049360752105713 9.508030891418457 -71.19198608398438
v 6.049360752105713 9.508030891418457 -71.19198608398438
v 2.751365900039673 9.50792121887207 -73.09608459472656
v 6.7409844398498535 9.508030891418457 -76.33917999267578
v 6.7409844398498535 9.508030891418457 -76.33917999267578
v 6.741095066070557 3.8079609870910645 -76.33917999267578
v 11.450386047363281 3.8079609870910645 -76.93648529052734
v 2.751365900039673 9.50792121887207 -73.09608459472656
v 2.751476287841797 3.8080713748931885 -73.09608459472656
v 6.7409844398498535 9.508030891418457 -76.33917999267578
v 2.751476287841797 3.8080713748931885 -73.09608459472656
v 6.741095066070557 3.8079609870910645 -76.33917999267578
v 6.7409844398498535 9.508030891418457 -76.33917999267578
v 5.3745222091674805 9.50792121887207 -69.3404769897461
v 2.751365900039673 9.50792121887207 -73.09608459472656
v 6.049360752105713 9.508030891418457 -71.19198608398438
v -6.033679485321045 3.8079609870910645 -76.93648529052734
v 11.450386047363281 3.8079609870910645 -76.93648529052734
v 6.741095066070557 3.8079609870910645 -76.33917999267578
v 11.450386047363281 9.508030891418457 -73.13648986816406
v 11.450386047363281 3.8079609870910645 -76.93648529052734
v 11.450386047363281 -3.7919485569000244 -76.93648529052734
v 5.3745222091674805 9.50792121887207 -69.3404769897461
v 1.566340446472168 9.50792121887207 -69.3404769897461
v 2.751365900039673 9.50792121887207 -73.09608459472656
v 2.751365900039673 9.50792121887207 -73.09608459472656
v 1.566340446472168 9.50792121887207 -69.3404769897461
v 2.751476287841797 3.8080713748931885 -73.09608459472656
v -6.033679485321045 3.8079609870910645 -76.93648529052734
v 6.741095066070557 3.8079609870910645 -76.33917999267578
v 2.751476287841797 3.8080713748931885 -73.09608459472656
v 11.450386047363281 3.8079609870910645 -76.93648529052734
v -6.033679485321045 3.8079609870910645 -76.93648529052734
v 11.450386047363281 -3.7919485569000244 -76.93648529052734
v -6.033679485321045 3.8079609870910645 -76.93648529052734
v 2.751476287841797 3.8080713748931885 -73.09608459472656
v 1.566230058670044 3.8079609870910645 -69.3404769897461
v 1.566340446472168 9.50792121887207 -69.3404769897461
v 1.566230058670044 3.8079609870910645 -69.3404769897461
v 2.751476287841797 3.8080713748931885 -73.09608459472656
v 11.450386047363281 -3.7919485569000244 -76.93648529052734
v 11.450386047363281 -9.489148139953613 -73.13648986816406
v 11.450386047363281 9.508030891418457 -73.13648986816406
v 6.049360752105713 9.508030891418457 -71.19198608398438
v 6.049360752105713 -9.489148139953613 -71.19198608398438
v 5.3745222091674805 9.50792121887207 -69.3404769897461
vt 0.3902648091316223 0.5652788877487183
vt 0.3897412419319153 0.5650365352630615
vt 0.3886072635650635 0.5656654834747314
vt 0.3886072635650635 0.5656654834747314
vt 0.3897412419319153 0.5650365352630615
vt 0.3918408155441284 0.5659226179122925
vt 0.3886072635650635 0.5656654834747314
vt 0.3895551264286041 0.5656934976577759
vt 0.3902648091316223 0.5652788877487183
vt 0.3895551264286041 0.5656934976577759
vt 0.3886072635650635 0.5656654834747314
vt 0.3918408155441284 0.5659226179122925
vt 0.39116761088371277 0.564982533454895
vt 0.39116761088371277 0.564982533454895
vt 0.39138349890708923 0.56452476978302
vt 0.3897412419319153 0.5650365352630615
vt 0.3897412419319153 0.5650365352630615
vt 0.39297619462013245 0.5652931332588196
vt 0.3918408155441284 0.5659226179122925
vt 0.39138349890708923 0.56452476978302
vt 0.39461761713027954 0.5647807121276855
vt 0.3897412419319153 0.5650365352630615
vt 0.39461761713027954 0.5647807121276855
vt 0.39297619462013245 0.5652931332588196
vt 0.3897412419319153 0.5650365352630615
vt 0.3917686343193054 0.5649058818817139
vt 0.39138349890708923 0.56452476978302
vt 0.39116761088371277 0.564982533454895
vt 0.39550718665122986 0.5635671615600586
vt 0.3918408155441284 0.5659226179122925
vt 0.39297619462013245 0.5652931332588196
vt 0.3895551264286041 0.5656934976577759
vt 0.3918408155441284 0.5659226179122925
vt 0.3961615264415741 0.5662661790847778
vt 0.3917686343193054 0.5649058818817139
vt 0.3925642669200897 0.564394474029541
vt 0.39138349890708923 0.56452476978302
vt 0.39138349890708923 0.56452476978302
vt 0.3925642669200897 0.564394474029541
vt 0.39461761713027954 0.5647807121276855
vt 0.39550718665122986 0.5635671615600586
vt 0.39297619462013245 0.5652931332588196
vt 0.39461761713027954 0.5647807121276855
vt 0.3918408155441284 0.5659226179122925
vt 0.39550718665122986 0.5635671615600586
vt 0.3961615264415741 0.5662661790847778
vt 0.39550718665122986 0.5635671615600586
vt 0.39461761713027954 0.5647807121276855
vt 0.39579612016677856 0.5646500587463379
vt 0.3925642669200897 0.564394474029541
vt 0.39579612016677856 0.5646500587463379
vt 0.39461761713027954 0.5647807121276855
vt 0.3961615264415741 0.5662661790847778
vt 0.40034592151641846 0.5665513873100281
vt 0.3895551264286041 0.5656934976577759
vt 0.39116761088371277 0.564982533454895
vt 0.4019605219364166 0.5658380389213562
vt 0.3917686343193054 0.5649058818817139
vn 0 1 -0
vn 0 1 -0
vn 0 1 -0
vn 0.6611854434013367 -0.00003601392745622434 -0.7502226233482361
vn -0.1258247047662735 -0 -0.9920525550842285
vn 0.6528687477111816 -0.2221495807170868 -0.7241629362106323
vn 0 0.9999999403953552 -0
vn 0 0.9999999403953552 -0
vn 0 0.9999999403953552 -0
vn 0.7347559332847595 0.6653508543968201 0.1320679932832718
vn 1 -0 -0
vn 0.636260449886322 -0.6117007732391357 0.4701008200645447
vn 0 1 -0
vn -0.00003107335578533821 1 -0.00000409596987083205
vn -0.00003107335578533821 1 -0.00000409596987083205
vn -0.00003107335578533821 1 -0.00000409596987083205
vn -0.1258275955915451 -0.000002451729187669116 -0.9920521378517151
vn -0.1258275955915451 -0.000002451729187669116 -0.9920521378517151
vn 0.6047089695930481 0.34455808997154236 -0.7180576920509338
vn -0.6307731866836548 -0.00001225071264343569 -0.7759672403335571
vn -0.6307731866836548 -0.00001225071264343569 -0.7759672403335571
vn -0.6307731866836548 -0.00001225071264343569 -0.7759672403335571
vn -0.6307713389396667 -0.000012250257896084804 -0.775968611240387
vn -0.6307713389396667 -0.000012250257896084804 -0.775968611240387
vn -0.6307713389396667 -0.000012250257896084804 -0.775968611240387
vn -0.0000561116321478039 1 0.00003928094884031452
vn -0.0000561116321478039 1 0.00003928094884031452
vn -0.0000561116321478039 1 0.00003928094884031452
vn 0 1 -0
vn 0 1 -0
vn 0 1 -0
vn 0.7347559332847595 0.5738089680671692 -0.3617692291736603
vn 0.636260449886322 -0.24827522039413452 -0.7304328083992004
vn 0.7282515168190002 -0.4462096095085144 0.520141065120697
vn 0 1 -0
vn 0 1 -0
vn 0 1 -0
vn -0.9536521434783936 -0.000018497543351259083 -0.3009113669395447
vn -0.9536521434783936 -0.000018497543351259083 -0.3009113669395447
vn -0.9536521434783936 -0.000018497543351259083 -0.3009113669395447
vn 0.0000015054987443363643 1 -0.00003220711732865311
vn 0.0000015054987443363643 1 -0.00003220711732865311
vn 0.0000015054987443363643 1 -0.00003220711732865311
vn 0.6853099465370178 -0.00003289325468358584 -0.7282515168190002
vn 0 -0 -1
vn 0.6789262890815735 -0.09332144260406494 -0.7282515168190002
vn -0.00002234169005532749 1 0.000022283997168415226
vn -0.00002234169005532749 1 0.000022283997168415226
vn -0.00002234169005532749 1 0.000022283997168415226
vn -0.953636109828949 0.00001849684485932812 -0.3009619116783142
vn -0.953636109828949 0.00001849684485932812 -0.3009619116783142
vn -0.953636109828949 0.00001849684485932812 -0.3009619116783142
vn 0.7282515168190002 -0.5024846196174622 -0.4660031795501709
vn 0.7347559332847595 -0.5379043817520142 -0.4132705330848694
vn 0.7347559332847595 0.4416659474372864 -0.514844536781311
vn 0.939538836479187 -0 0.3424423933029175
vn 0.939538836479187 -0 0.3424423933029175
vn 0.939538836479187 -0 0.3424423933029175
f 3/3/3 2/2/2 1/1/1
f 6/6/6 5/5/5 4/4/4
f 9/9/9 8/8/8 7/7/7
f 12/12/12 11/11/11 10/10/10
f 13/13/13 1/1/1 2/2/2
f 16/16/16 15/15/15 14/14/14
f 19/19/19 18/18/18 17/17/17
f 22/22/22 21/21/21 20/20/20
f 25/25/25 24/24/24 23/23/23
f 28/28/28 27/27/27 26/26/26
f 31/31/31 30/30/30 29/29/29
f 34/34/34 33/33/33 32/32/32
f 37/37/37 36/36/36 35/35/35
f 40/40/40 39/39/39 38/38/38
f 43/43/43 42/42/42 41/41/41
f 46/46/46 45/45/45 44/44/44
f 49/49/49 48/48/48 47/47/47
f 52/52/52 51/51/51 50/50/50
f 55/55/55 54/54/54 53/53/53
f 58/58/58 57/57/57 56/56/56
