# VPXTOOL table OBJ file
# VPXTOOL OBJ file
# numVerts: 57 numFaces: 57
o LM_L_LW7_Parts
v -455.50616455078125 -255.79177856445313 -241.0796661376953
v -415.9321594238281 -230.69615173339844 -241.0796661376953
v -418.0376892089844 -227.3759002685547 -241.7497100830078
v -415.9321594238281 -230.69615173339844 -241.0796661376953
v -421.0942077636719 -222.5559539794922 -184.52230834960938
v -418.0376892089844 -227.3759002685547 -241.7497100830078
v -457.6116943359375 -252.47152709960938 -241.7497100830078
v -455.50616455078125 -255.79177856445313 -241.0796661376953
v -418.0376892089844 -227.3759002685547 -241.7497100830078
v -457.6116943359375 -252.47152709960938 -241.7497100830078
v -418.0376892089844 -227.3759002685547 -241.7497100830078
v -423.1997375488281 -219.2357635498047 -185.19236755371094
v -421.0942077636719 -222.5559539794922 -184.52230834960938
v -423.1997375488281 -219.2357635498047 -185.19236755371094
v -418.0376892089844 -227.3759002685547 -241.7497100830078
v -455.0377197265625 -256.5305480957031 -246.21237182617188
v -455.50616455078125 -255.79177856445313 -241.0796661376953
v -457.1431884765625 -253.21029663085938 -246.8824462890625
v -455.50616455078125 -255.79177856445313 -241.0796661376953
v -457.6116943359375 -252.47152709960938 -241.7497100830078
v -457.1431884765625 -253.21029663085938 -246.8824462890625
v -497.5589904785156 -278.8397521972656 -246.88241577148438
v -457.1431884765625 -253.21029663085938 -246.8824462890625
v -457.6116943359375 -252.47152709960938 -241.7497100830078
v -495.4534606933594 -282.1600036621094 -246.21237182617188
v -455.0377197265625 -256.5305480957031 -246.21237182617188
v -457.1431884765625 -253.21029663085938 -246.8824462890625
v -497.5589904785156 -278.8397521972656 -246.88241577148438
v -495.4534606933594 -282.1600036621094 -246.21237182617188
v -457.1431884765625 -253.21029663085938 -246.8824462890625
v -498.958251953125 -276.6909484863281 -231.83755493164063
v -497.5589904785156 -278.8397521972656 -246.88241577148438
v -457.6116943359375 -252.47152709960938 -241.7497100830078
v -457.6116943359375 -252.47152709960938 -241.7497100830078
v -423.1997375488281 -219.2357635498047 -185.19236755371094
v -506.0704345703125 -271.78778076171875 -185.19236755371094
v -496.852783203125 -280.0111389160156 -231.16751098632813
v -495.4534606933594 -282.1600036621094 -246.21237182617188
v -497.5589904785156 -278.8397521972656 -246.88241577148438
v -457.6116943359375 -252.47152709960938 -241.7497100830078
v -506.0704345703125 -271.78778076171875 -185.19236755371094
v -498.958251953125 -276.6909484863281 -231.83755493164063
v -498.958251953125 -276.6909484863281 -231.83755493164063
v -496.852783203125 -280.0111389160156 -231.16751098632813
v -497.5589904785156 -278.8397521972656 -246.88241577148438
v -496.852783203125 -280.0111389160156 -231.16751098632813
v -498.958251953125 -276.6909484863281 -231.83755493164063
v -501.8553161621094 -278.4923400878906 -231.66053771972656
v -498.958251953125 -276.6909484863281 -231.83755493164063
v -506.0704345703125 -271.78778076171875 -185.19236755371094
v -501.8553161621094 -278.4923400878906 -231.66053771972656
v -499.749755859375 -281.8125915527344 -230.99049377441406
v -501.8553161621094 -278.4923400878906 -231.66053771972656
v -506.0704345703125 -271.78778076171875 -185.19236755371094
v -503.9649658203125 -275.10797119140625 -184.52230834960938
v -499.749755859375 -281.8125915527344 -230.99049377441406
v -506.0704345703125 -271.78778076171875 -185.19236755371094
vt 0.8127956986427307 0.5513612031936646
vt 0.8089861273765564 0.5396173000335693
vt 0.8099275231361389 0.5393809080123901
vt 0.8089861273765564 0.5396173000335693
vt 0.8256323933601379 0.5381605625152588
vt 0.8099275231361389 0.5393809080123901
vt 0.8137418031692505 0.5511330366134644
vt 0.8127956986427307 0.5513612031936646
vt 0.8099275231361389 0.5393809080123901
vt 0.8137418031692505 0.5511330366134644
vt 0.8099275231361389 0.5393809080123901
vt 0.8265736699104309 0.5379261374473572
vt 0.8256323933601379 0.5381605625152588
vt 0.8265736699104309 0.5379261374473572
vt 0.8099275231361389 0.5393809080123901
vt 0.8112645149230957 0.5515099167823792
vt 0.8127956986427307 0.5513612031936646
vt 0.8122106790542603 0.5512815713882446
vt 0.8127956986427307 0.5513612031936646
vt 0.8137418031692505 0.5511330366134644
vt 0.8122106790542603 0.5512815713882446
vt 0.8161232471466064 0.5633465051651001
vt 0.8122106790542603 0.5512815713882446
vt 0.8137418031692505 0.5511330366134644
vt 0.8151722550392151 0.563566267490387
vt 0.8112645149230957 0.5515099167823792
vt 0.8122106790542603 0.5512815713882446
vt 0.8161232471466064 0.5633465051651001
vt 0.8151722550392151 0.563566267490387
vt 0.8122106790542603 0.5512815713882446
vt 0.8205982446670532 0.5628758668899536
vt 0.8161232471466064 0.5633465051651001
vt 0.8137418031692505 0.5511330366134644
vt 0.8137418031692505 0.5511330366134644
vt 0.8265736699104309 0.5379261374473572
vt 0.8345394730567932 0.5622553825378418
vt 0.8196473717689514 0.563095211982727
vt 0.8151722550392151 0.563566267490387
vt 0.8161232471466064 0.5633465051651001
vt 0.8137418031692505 0.5511330366134644
vt 0.8345394730567932 0.5622553825378418
vt 0.8205982446670532 0.5628758668899536
vt 0.8205982446670532 0.5628758668899536
vt 0.8196473717689514 0.563095211982727
vt 0.8161232471466064 0.5633465051651001
vt 0.8196473717689514 0.563095211982727
vt 0.8205982446670532 0.5628758668899536
vt 0.8209298849105835 0.563728928565979
vt 0.8205982446670532 0.5628758668899536
vt 0.8345394730567932 0.5622553825378418
vt 0.8209298849105835 0.563728928565979
vt 0.8199785947799683 0.5639476180076599
vt 0.8209298849105835 0.563728928565979
vt 0.8345394730567932 0.5622553825378418
vt 0.8335885405540466 0.5624727606773376
vt 0.8199785947799683 0.5639476180076599
vt 0.8345394730567932 0.5622553825378418
vn 0.08996457606554031 -0.14187926054000854 -0.9857873320579529
vn 0.08996457606554031 -0.14187926054000854 -0.9857873320579529
vn 0.08996457606554031 -0.14187926054000854 -0.9857873320579529
vn 0.844505786895752 0.5355463624000549 -0
vn 0.844505786895752 0.5355463624000549 -0
vn 0.844505786895752 0.5355463624000549 -0
vn 0.08997522294521332 -0.14187945425510406 -0.9857863187789917
vn 0.08997522294521332 -0.14187945425510406 -0.9857863187789917
vn 0.08997522294521332 -0.14187945425510406 -0.9857863187789917
vn -0.527928352355957 0.8325058221817017 -0.16800495982170105
vn -0.527928352355957 0.8325058221817017 -0.16800495982170105
vn -0.527928352355957 0.8325058221817017 -0.16800495982170105
vn 0.8445086479187012 0.5355420708656311 -0.000001309793560722028
vn 0.8445086479187012 0.5355420708656311 -0.000001309793560722028
vn 0.8445086479187012 0.5355420708656311 -0.000001309793560722028
vn 0.8445185422897339 0.5355262756347656 -0.000007216298399725929
vn 0.8445185422897339 0.5355262756347656 -0.000007216298399725929
vn 0.8445185422897339 0.5355262756347656 -0.000007216298399725929
vn 0.8444973826408386 0.5355596542358398 -0
vn 0.8444973826408386 0.5355596542358398 -0
vn 0.8444973826408386 0.5355596542358398 -0
vn -0.5279326438903809 0.8325018286705017 -0.16801166534423828
vn -0.5279326438903809 0.8325018286705017 -0.16801166534423828
vn -0.5279326438903809 0.8325018286705017 -0.16801166534423828
vn 0.08997543156147003 -0.14188596606254578 -0.9857853651046753
vn 0.08997543156147003 -0.14188596606254578 -0.9857853651046753
vn 0.08997543156147003 -0.14188596606254578 -0.9857853651046753
vn 0.08997835218906403 -0.14187903702259064 -0.9857861399650574
vn 0.08997835218906403 -0.14187903702259064 -0.9857861399650574
vn 0.08997835218906403 -0.14187903702259064 -0.9857861399650574
vn -0.5279286503791809 0.8325057029724121 -0.16800464689731598
vn -0.5279286503791809 0.8325057029724121 -0.16800464689731598
vn -0.5279286503791809 0.8325057029724121 -0.16800464689731598
vn -0.5279290080070496 0.8325057029724121 -0.1680038720369339
vn -0.5279290080070496 0.8325057029724121 -0.1680038720369339
vn -0.5279290080070496 0.8325057029724121 -0.1680038720369339
vn -0.844333827495575 -0.5358138680458069 -0.0019990603905171156
vn -0.844333827495575 -0.5358138680458069 -0.0019990603905171156
vn -0.844333827495575 -0.5358138680458069 -0.0019990603905171156
vn -0.5279303193092346 0.832504391670227 -0.1680057793855667
vn -0.5279303193092346 0.832504391670227 -0.1680057793855667
vn -0.5279303193092346 0.832504391670227 -0.1680057793855667
vn -0.8443283438682556 -0.5358223915100098 -0.0019974447786808014
vn -0.8443283438682556 -0.5358223915100098 -0.0019974447786808014
vn -0.8443283438682556 -0.5358223915100098 -0.0019974447786808014
vn 0.04545576125383377 -0.16984131932258606 -0.9844226241111755
vn 0.04545576125383377 -0.16984131932258606 -0.9844226241111755
vn 0.04545576125383377 -0.16984131932258606 -0.9844226241111755
vn -0.5279277563095093 0.8325060606002808 -0.16800659894943237
vn -0.5279277563095093 0.8325060606002808 -0.16800659894943237
vn -0.5279277563095093 0.8325060606002808 -0.16800659894943237
vn -0.844560980796814 -0.5354589223861694 0.0006466897903010249
vn -0.844560980796814 -0.5354589223861694 0.0006466897903010249
vn -0.844560980796814 -0.5354589223861694 0.0006466897903010249
vn -0.8445719480514526 -0.5354416370391846 0.000644050189293921
vn -0.8445719480514526 -0.5354416370391846 0.000644050189293921
vn -0.8445719480514526 -0.5354416370391846 0.000644050189293921
f 3/3/3 2/2/2 1/1/1
f 6/6/6 5/5/5 4/4/4
f 9/9/9 8/8/8 7/7/7
f 12/12/12 11/11/11 10/10/10
f 15/15/15 14/14/14 13/13/13
f 18/18/18 17/17/17 16/16/16
f 21/21/21 20/20/20 19/19/19
f 24/24/24 23/23/23 22/22/22
f 27/27/27 26/26/26 25/25/25
f 30/30/30 29/29/29 28/28/28
f 33/33/33 32/32/32 31/31/31
f 36/36/36 35/35/35 34/34/34
f 39/39/39 38/38/38 37/37/37
f 42/42/42 41/41/41 40/40/40
f 45/45/45 44/44/44 43/43/43
f 48/48/48 47/47/47 46/46/46
f 51/51/51 50/50/50 49/49/49
f 54/54/54 53/53/53 52/52/52
f 57/57/57 56/56/56 55/55/55
