# VPXTOOL table OBJ file
# VPXTOOL OBJ file
# numVerts: 135 numFaces: 138
o LM_L_LMet1_UnderPF
v -160.9695281982422 122.7862319946289 -12.23087215423584
v -169.9948272705078 124.58148956298828 -12.23087215423584
v -160.9695281982422 122.7862319946289 -6.426158428192139
v -169.9948272705078 124.58148956298828 -12.23087215423584
v -179.02011108398438 122.7862319946289 -12.23087215423584
v -169.9948272705078 124.58148956298828 -6.426158428192139
v -153.31826782226563 117.67386627197266 -12.23087215423584
v -160.9695281982422 122.7862319946289 -12.23087215423584
v -153.31826782226563 117.67386627197266 -6.426158428192139
v -169.9948272705078 124.58148956298828 -12.23087215423584
v -169.9948272705078 124.58148956298828 -6.426158428192139
v -160.9695281982422 122.7862319946289 -6.426158428192139
v -160.9695281982422 122.7862319946289 -12.23087215423584
v -160.9695281982422 122.7862319946289 -6.426158428192139
v -153.31826782226563 117.67386627197266 -6.426158428192139
v -179.02011108398438 122.7862319946289 -12.23087215423584
v -179.02011108398438 122.7862319946289 -6.426158428192139
v -169.9948272705078 124.58148956298828 -6.426158428192139
v -179.02011108398438 122.7862319946289 -12.23087215423584
v -186.67137145996094 117.67386627197266 -12.23087215423584
v -179.02011108398438 122.7862319946289 -6.426158428192139
v -153.31826782226563 117.67386627197266 -12.23087215423584
v -153.31826782226563 117.67386627197266 -6.426158428192139
v -148.2058563232422 110.02261352539063 -6.426158428192139
v -148.2058563232422 110.02261352539063 -12.23087215423584
v -153.31826782226563 117.67386627197266 -12.23087215423584
v -148.2058563232422 110.02261352539063 -6.426158428192139
v -146.41064453125 100.99726867675781 -6.426158428192139
v -160.9695281982422 122.7862319946289 -6.426158428192139
v -169.9948272705078 124.58148956298828 -6.426158428192139
v -146.41064453125 100.99726867675781 -6.426158428192139
v -153.31826782226563 117.67386627197266 -6.426158428192139
v -160.9695281982422 122.7862319946289 -6.426158428192139
v -186.67137145996094 117.67386627197266 -12.23087215423584
v -186.67137145996094 117.67386627197266 -6.426158428192139
v -179.02011108398438 122.7862319946289 -6.426158428192139
v -146.41064453125 100.99726867675781 -6.426158428192139
v -148.2058563232422 110.02261352539063 -6.426158428192139
v -153.31826782226563 117.67386627197266 -6.426158428192139
v -148.2058563232422 110.02261352539063 -12.23087215423584
v -148.2058563232422 110.02261352539063 -6.426158428192139
v -146.41064453125 100.99726867675781 -6.426158428192139
v -186.67137145996094 117.67386627197266 -12.23087215423584
v -191.78378295898438 110.02261352539063 -12.23087215423584
v -186.67137145996094 117.67386627197266 -6.426158428192139
v -146.41064453125 100.99726867675781 -12.23087215423584
v -148.2058563232422 110.02261352539063 -12.23087215423584
v -146.41064453125 100.99726867675781 -6.426158428192139
v -193.57899475097656 100.99726867675781 -6.426158428192139
v -169.9948272705078 124.58148956298828 -6.426158428192139
v -179.02011108398438 122.7862319946289 -6.426158428192139
v -193.57899475097656 100.99726867675781 -6.426158428192139
v -179.02011108398438 122.7862319946289 -6.426158428192139
v -186.67137145996094 117.67386627197266 -6.426158428192139
v -191.78378295898438 110.02261352539063 -12.23087215423584
v -191.78378295898438 110.02261352539063 -6.426158428192139
v -186.67137145996094 117.67386627197266 -6.426158428192139
v -146.41064453125 100.99726867675781 -12.23087215423584
v -146.41064453125 100.99726867675781 -6.426158428192139
v -148.2058563232422 91.97203826904297 -6.426158428192139
v -191.78378295898438 110.02261352539063 -12.23087215423584
v -193.57899475097656 100.99726867675781 -12.23087215423584
v -191.78378295898438 110.02261352539063 -6.426158428192139
v -148.2058563232422 91.97203826904297 -12.23087215423584
v -146.41064453125 100.99726867675781 -12.23087215423584
v -148.2058563232422 91.97203826904297 -6.426158428192139
v -186.67137145996094 117.67386627197266 -6.426158428192139
v -191.78378295898438 110.02261352539063 -6.426158428192139
v -193.57899475097656 100.99726867675781 -6.426158428192139
v -169.9948272705078 77.41315460205078 -6.426158428192139
v -146.41064453125 100.99726867675781 -6.426158428192139
v -169.9948272705078 124.58148956298828 -6.426158428192139
v -193.57899475097656 100.99726867675781 -12.23087215423584
v -193.57899475097656 100.99726867675781 -6.426158428192139
v -191.78378295898438 110.02261352539063 -6.426158428192139
v -169.9948272705078 124.58148956298828 -6.426158428192139
v -193.57899475097656 100.99726867675781 -6.426158428192139
v -169.9948272705078 77.41315460205078 -6.426158428192139
v -153.31826782226563 84.3207778930664 -6.426158428192139
v -148.2058563232422 91.97203826904297 -6.426158428192139
v -146.41064453125 100.99726867675781 -6.426158428192139
v -148.2058563232422 91.97203826904297 -12.23087215423584
v -148.2058563232422 91.97203826904297 -6.426158428192139
v -153.31826782226563 84.3207778930664 -6.426158428192139
v -193.57899475097656 100.99726867675781 -12.23087215423584
v -191.78378295898438 91.97203826904297 -12.23087215423584
v -193.57899475097656 100.99726867675781 -6.426158428192139
v -153.31826782226563 84.3207778930664 -12.23087215423584
v -148.2058563232422 91.97203826904297 -12.23087215423584
v -153.31826782226563 84.3207778930664 -6.426158428192139
v -146.41064453125 100.99726867675781 -6.426158428192139
v -160.9695281982422 79.20841979980469 -6.426158428192139
v -153.31826782226563 84.3207778930664 -6.426158428192139
v -191.78378295898438 91.97203826904297 -12.23087215423584
v -191.78378295898438 91.97203826904297 -6.426158428192139
v -193.57899475097656 100.99726867675781 -6.426158428192139
v -169.9948272705078 77.41315460205078 -6.426158428192139
v -160.9695281982422 79.20841979980469 -6.426158428192139
v -191.78378295898438 91.97203826904297 -12.23087215423584
v -186.67137145996094 84.3207778930664 -12.23087215423584
v -191.78378295898438 91.97203826904297 -6.426158428192139
v -153.31826782226563 84.3207778930664 -12.23087215423584
v -153.31826782226563 84.3207778930664 -6.426158428192139
v -160.9695281982422 79.20841979980469 -6.426158428192139
v -160.9695281982422 79.20841979980469 -12.23087215423584
v -153.31826782226563 84.3207778930664 -12.23087215423584
v -160.9695281982422 79.20841979980469 -6.426158428192139
v -193.57899475097656 100.99726867675781 -6.426158428192139
v -191.78378295898438 91.97203826904297 -6.426158428192139
v -186.67137145996094 84.3207778930664 -6.426158428192139
v -186.67137145996094 84.3207778930664 -12.23087215423584
v -186.67137145996094 84.3207778930664 -6.426158428192139
v -191.78378295898438 91.97203826904297 -6.426158428192139
v -193.57899475097656 100.99726867675781 -6.426158428192139
v -186.67137145996094 84.3207778930664 -6.426158428192139
v -179.02011108398438 79.20841979980469 -6.426158428192139
v -186.67137145996094 84.3207778930664 -12.23087215423584
v -179.02011108398438 79.20841979980469 -12.23087215423584
v -186.67137145996094 84.3207778930664 -6.426158428192139
v -179.02011108398438 79.20841979980469 -6.426158428192139
v -169.9948272705078 77.41315460205078 -12.23087215423584
v -160.9695281982422 79.20841979980469 -12.23087215423584
v -169.9948272705078 77.41315460205078 -6.426158428192139
v -160.9695281982422 79.20841979980469 -12.23087215423584
v -160.9695281982422 79.20841979980469 -6.426158428192139
v -169.9948272705078 77.41315460205078 -6.426158428192139
v -179.02011108398438 79.20841979980469 -12.23087215423584
v -169.9948272705078 77.41315460205078 -12.23087215423584
v -179.02011108398438 79.20841979980469 -6.426158428192139
v -179.02011108398438 79.20841979980469 -12.23087215423584
v -179.02011108398438 79.20841979980469 -6.426158428192139
v -186.67137145996094 84.3207778930664 -6.426158428192139
v -169.9948272705078 77.41315460205078 -12.23087215423584
v -169.9948272705078 77.41315460205078 -6.426158428192139
v -179.02011108398438 79.20841979980469 -6.426158428192139
vt 0.5607731342315674 0.9910276532173157
vt 0.5613881349563599 0.9934593439102173
vt 0.5619029998779297 0.9909511804580688
vt 0.5613881349563599 0.9934593439102173
vt 0.5607731342315674 0.9958623051643372
vt 0.5625173449516296 0.9933789968490601
vt 0.5590237379074097 0.9889410734176636
vt 0.5607731342315674 0.9910276532173157
vt 0.5601553916931152 0.988867998123169
vt 0.5613881349563599 0.9934593439102173
vt 0.5625173449516296 0.9933789968490601
vt 0.5619029998779297 0.9909511804580688
vt 0.5607731342315674 0.9910276532173157
vt 0.5619029998779297 0.9909511804580688
vt 0.5601553916931152 0.988867998123169
vt 0.5607731342315674 0.9958623051643372
vt 0.5619029998779297 0.9957782030105591
vt 0.5625173449516296 0.9933789968490601
vt 0.5607731342315674 0.9958623051643372
vt 0.5590237379074097 0.9978671669960022
vt 0.5619029998779297 0.9957782030105591
vt 0.5590237379074097 0.9889410734176636
vt 0.5601553916931152 0.988867998123169
vt 0.5575452446937561 0.9874480366706848
vt 0.5564107298851013 0.987518846988678
vt 0.5590237379074097 0.9889410734176636
vt 0.5575452446937561 0.9874480366706848
vt 0.5544742941856384 0.9869062304496765
vt 0.5619029998779297 0.9909511804580688
vt 0.5625173449516296 0.9933789968490601
vt 0.5544742941856384 0.9869062304496765
vt 0.5601553916931152 0.988867998123169
vt 0.5619029998779297 0.9909511804580688
vt 0.5590237379074097 0.9978671669960022
vt 0.5601553916931152 0.9977799654006958
vt 0.5619029998779297 0.9957782030105591
vt 0.5544742941856384 0.9869062304496765
vt 0.5575452446937561 0.9874480366706848
vt 0.5601553916931152 0.988867998123169
vt 0.5564107298851013 0.987518846988678
vt 0.5575452446937561 0.9874480366706848
vt 0.5544742941856384 0.9869062304496765
vt 0.5590237379074097 0.9978671669960022
vt 0.5564107298851013 0.9991673231124878
vt 0.5601553916931152 0.9977799654006958
vt 0.5533365607261658 0.9869760870933533
vt 0.5564107298851013 0.987518846988678
vt 0.5544742941856384 0.9869062304496765
vt 0.5544742941856384 0.9994768500328064
vt 0.5625173449516296 0.9933789968490601
vt 0.5619029998779297 0.9957782030105591
vt 0.5544742941856384 0.9994768500328064
vt 0.5619029998779297 0.9957782030105591
vt 0.5601553916931152 0.9977799654006958
vt 0.5564107298851013 0.9991673231124878
vt 0.5575452446937561 0.9990782141685486
vt 0.5601553916931152 0.9977799654006958
vt 0.5533365607261658 0.9869760870933533
vt 0.5544742941856384 0.9869062304496765
vt 0.5514119863510132 0.9873214960098267
vt 0.5564107298851013 0.9991673231124878
vt 0.5533365607261658 0.9995664954185486
vt 0.5575452446937561 0.9990782141685486
vt 0.5502710938453674 0.9873918890953064
vt 0.5533365607261658 0.9869760870933533
vt 0.5514119863510132 0.9873214960098267
vt 0.5601553916931152 0.9977799654006958
vt 0.5575452446937561 0.9990782141685486
vt 0.5544742941856384 0.9994768500328064
vt 0.5464903116226196 0.9930055141448975
vt 0.5544742941856384 0.9869062304496765
vt 0.5625173449516296 0.9933789968490601
vt 0.5533365607261658 0.9995664954185486
vt 0.5544742941856384 0.9994768500328064
vt 0.5575452446937561 0.9990782141685486
vt 0.5625173449516296 0.9933789968490601
vt 0.5544742941856384 0.9994768500328064
vt 0.5464903116226196 0.9930055141448975
vt 0.5488227009773254 0.988627016544342
vt 0.5514119863510132 0.9873214960098267
vt 0.5544742941856384 0.9869062304496765
vt 0.5502710938453674 0.9873918890953064
vt 0.5514119863510132 0.9873214960098267
vt 0.5488227009773254 0.988627016544342
vt 0.5533365607261658 0.9995664954185486
vt 0.5502710938453674 0.999007523059845
vt 0.5544742941856384 0.9994768500328064
vt 0.5476791262626648 0.9886993765830994
vt 0.5502710938453674 0.9873918890953064
vt 0.5488227009773254 0.988627016544342
vt 0.5544742941856384 0.9869062304496765
vt 0.5470960140228271 0.9906225204467773
vt 0.5488227009773254 0.988627016544342
vt 0.5502710938453674 0.999007523059845
vt 0.5514119863510132 0.998918890953064
vt 0.5544742941856384 0.9994768500328064
vt 0.5464903116226196 0.9930055141448975
vt 0.5470960140228271 0.9906225204467773
vt 0.5502710938453674 0.999007523059845
vt 0.5476791262626648 0.9975789785385132
vt 0.5514119863510132 0.998918890953064
vt 0.5476791262626648 0.9886993765830994
vt 0.5488227009773254 0.988627016544342
vt 0.5470960140228271 0.9906225204467773
vt 0.5459505915641785 0.9906979203224182
vt 0.5476791262626648 0.9886993765830994
vt 0.5470960140228271 0.9906225204467773
vt 0.5544742941856384 0.9994768500328064
vt 0.5514119863510132 0.998918890953064
vt 0.5488227009773254 0.9974926710128784
vt 0.5476791262626648 0.9975789785385132
vt 0.5488227009773254 0.9974926710128784
vt 0.5514119863510132 0.998918890953064
vt 0.5544742941856384 0.9994768500328064
vt 0.5488227009773254 0.9974926710128784
vt 0.5470960140228271 0.9954167604446411
vt 0.5476791262626648 0.9975789785385132
vt 0.5459505915641785 0.9954997301101685
vt 0.5488227009773254 0.9974926710128784
vt 0.5470960140228271 0.9954167604446411
vt 0.5453442931175232 0.9930846691131592
vt 0.5459505915641785 0.9906979203224182
vt 0.5464903116226196 0.9930055141448975
vt 0.5459505915641785 0.9906979203224182
vt 0.5470960140228271 0.9906225204467773
vt 0.5464903116226196 0.9930055141448975
vt 0.5459505915641785 0.9954997301101685
vt 0.5453442931175232 0.9930846691131592
vt 0.5470960140228271 0.9954167604446411
vt 0.5459505915641785 0.9954997301101685
vt 0.5470960140228271 0.9954167604446411
vt 0.5488227009773254 0.9974926710128784
vt 0.5453442931175232 0.9930846691131592
vt 0.5464903116226196 0.9930055141448975
vt 0.5470960140228271 0.9954167604446411
vn -0.19509294629096985 -0.9807847738265991 -0
vn -0.19509294629096985 -0.9807847738265991 -0
vn -0.19509294629096985 -0.9807847738265991 -0
vn 0.19509294629096985 -0.9807847738265991 -0
vn 0.19509294629096985 -0.9807847738265991 -0
vn 0.19509294629096985 -0.9807847738265991 -0
vn -0.5555673837661743 -0.8314713835716248 -0
vn -0.5555673837661743 -0.8314713835716248 -0
vn -0.5555673837661743 -0.8314713835716248 -0
vn -0.19509223103523254 -0.9807848334312439 -0
vn -0.19509223103523254 -0.9807848334312439 -0
vn -0.19509223103523254 -0.9807848334312439 -0
vn -0.5555658340454102 -0.8314725756645203 -0
vn -0.5555658340454102 -0.8314725756645203 -0
vn -0.5555658340454102 -0.8314725756645203 -0
vn 0.19509223103523254 -0.9807848334312439 -0
vn 0.19509223103523254 -0.9807848334312439 -0
vn 0.19509223103523254 -0.9807848334312439 -0
vn 0.5555657148361206 -0.831472635269165 -0
vn 0.5555657148361206 -0.831472635269165 -0
vn 0.5555657148361206 -0.831472635269165 -0
vn -0.8314697742462158 -0.5555700659751892 -0
vn -0.8314697742462158 -0.5555700659751892 -0
vn -0.8314697742462158 -0.5555700659751892 -0
vn -0.8314679861068726 -0.5555726885795593 -0
vn -0.8314679861068726 -0.5555726885795593 -0
vn -0.8314679861068726 -0.5555726885795593 -0
vn 0.0000001464679542095837 -0 -1
vn 0.0000001464679542095837 -0 -1
vn 0.0000001464679542095837 -0 -1
vn 0 -0 -1
vn 0 -0 -1
vn 0 -0 -1
vn 0.5555675029754639 -0.8314713835716248 -0
vn 0.5555675029754639 -0.8314713835716248 -0
vn 0.5555675029754639 -0.8314713835716248 -0
vn -0.0000003853481302940054 -0 -1
vn -0.0000003853481302940054 -0 -1
vn -0.0000003853481302940054 -0 -1
vn -0.9807865619659424 -0.1950836479663849 -0
vn -0.9807865619659424 -0.1950836479663849 -0
vn -0.9807865619659424 -0.1950836479663849 -0
vn 0.8314696550369263 -0.5555700659751892 -0
vn 0.8314696550369263 -0.5555700659751892 -0
vn 0.8314696550369263 -0.5555700659751892 -0
vn -0.9807858467102051 -0.19508729875087738 -0
vn -0.9807858467102051 -0.19508729875087738 -0
vn -0.9807858467102051 -0.19508729875087738 -0
vn -0.00000014646812473984028 -0 -1
vn -0.00000014646812473984028 -0 -1
vn -0.00000014646812473984028 -0 -1
vn 0 -0 -1
vn 0 -0 -1
vn 0 -0 -1
vn 0.8314680457115173 -0.5555726289749146 -0
vn 0.8314680457115173 -0.5555726289749146 -0
vn 0.8314680457115173 -0.5555726289749146 -0
vn -0.9807854294776917 0.19508954882621765 -0
vn -0.9807854294776917 0.19508954882621765 -0
vn -0.9807854294776917 0.19508954882621765 -0
vn 0.9807865619659424 -0.19508370757102966 -0
vn 0.9807865619659424 -0.19508370757102966 -0
vn 0.9807865619659424 -0.19508370757102966 -0
vn -0.9807862043380737 0.19508600234985352 -0
vn -0.9807862043380737 0.19508600234985352 -0
vn -0.9807862043380737 0.19508600234985352 -0
vn 0.0000001926740651470027 -0 -1
vn 0.0000001926740651470027 -0 -1
vn 0.0000001926740651470027 -0 -1
vn -0.000000022450898029546806 -0 -1
vn -0.000000022450898029546806 -0 -1
vn -0.000000022450898029546806 -0 -1
vn 0.9807859063148499 -0.195087268948555 -0
vn 0.9807859063148499 -0.195087268948555 -0
vn 0.9807859063148499 -0.195087268948555 -0
vn 0.000000022450898029546806 -0 -1
vn 0.000000022450898029546806 -0 -1
vn 0.000000022450898029546806 -0 -1
vn -0.0000001926776320715362 -0 -1
vn -0.0000001926776320715362 -0 -1
vn -0.0000001926776320715362 -0 -1
vn -0.8314680457115173 0.5555726289749146 -0
vn -0.8314680457115173 0.5555726289749146 -0
vn -0.8314680457115173 0.5555726289749146 -0
vn 0.9807854294776917 0.19508959352970123 -0
vn 0.9807854294776917 0.19508959352970123 -0
vn 0.9807854294776917 0.19508959352970123 -0
vn -0.8314696550369263 0.5555700659751892 -0
vn -0.8314696550369263 0.5555700659751892 -0
vn -0.8314696550369263 0.5555700659751892 -0
vn 0.0000002706377415506722 -0 -0.9999999403953552
vn 0.0000002706377415506722 -0 -0.9999999403953552
vn 0.0000002706377415506722 -0 -0.9999999403953552
vn 0.9807862043380737 0.19508595764636993 -0
vn 0.9807862043380737 0.19508595764636993 -0
vn 0.9807862043380737 0.19508595764636993 -0
vn 0 -0 -1
vn 0 -0 -1
vn 0.8314679861068726 0.5555726885795593 -0
vn 0.8314679861068726 0.5555726885795593 -0
vn 0.8314679861068726 0.5555726885795593 -0
vn -0.5555675029754639 0.8314713835716248 -0
vn -0.5555675029754639 0.8314713835716248 -0
vn -0.5555675029754639 0.8314713835716248 -0
vn -0.5555657148361206 0.831472635269165 -0
vn -0.5555657148361206 0.831472635269165 -0
vn -0.5555657148361206 0.831472635269165 -0
vn 0.0000003853552641430724 -0 -1
vn 0.0000003853552641430724 -0 -1
vn 0.0000003853552641430724 -0 -1
vn 0.8314697742462158 0.5555700659751892 -0
vn 0.8314697742462158 0.5555700659751892 -0
vn 0.8314697742462158 0.5555700659751892 -0
vn -0.0000002706374573335779 -0 -1
vn -0.0000002706374573335779 -0 -1
vn -0.0000002706374573335779 -0 -1
vn 0.5555673837661743 0.8314713835716248 -0
vn 0.5555673837661743 0.8314713835716248 -0
vn 0.5555673837661743 0.8314713835716248 -0
vn 0 -0 -1
vn -0.19509220123291016 0.9807848334312439 -0
vn -0.19509220123291016 0.9807848334312439 -0
vn -0.19509220123291016 0.9807848334312439 -0
vn -0.19509297609329224 0.9807847738265991 -0
vn -0.19509297609329224 0.9807847738265991 -0
vn -0.19509297609329224 0.9807847738265991 -0
vn 0.19509220123291016 0.9807848334312439 -0
vn 0.19509220123291016 0.9807848334312439 -0
vn 0.19509220123291016 0.9807848334312439 -0
vn 0.5555658340454102 0.8314725756645203 -0
vn 0.5555658340454102 0.8314725756645203 -0
vn 0.5555658340454102 0.8314725756645203 -0
vn 0.19509297609329224 0.9807847738265991 -0
vn 0.19509297609329224 0.9807847738265991 -0
vn 0.19509297609329224 0.9807847738265991 -0
f 3/3/3 2/2/2 1/1/1
f 6/6/6 5/5/5 4/4/4
f 9/9/9 8/8/8 7/7/7
f 12/12/12 11/11/11 10/10/10
f 15/15/15 14/14/14 13/13/13
f 18/18/18 17/17/17 16/16/16
f 21/21/21 20/20/20 19/19/19
f 24/24/24 23/23/23 22/22/22
f 27/27/27 26/26/26 25/25/25
f 30/30/30 29/29/29 28/28/28
f 33/33/33 32/32/32 31/31/31
f 36/36/36 35/35/35 34/34/34
f 39/39/39 38/38/38 37/37/37
f 42/42/42 41/41/41 40/40/40
f 45/45/45 44/44/44 43/43/43
f 48/48/48 47/47/47 46/46/46
f 51/51/51 50/50/50 49/49/49
f 54/54/54 53/53/53 52/52/52
f 57/57/57 56/56/56 55/55/55
f 60/60/60 59/59/59 58/58/58
f 63/63/63 62/62/62 61/61/61
f 66/66/66 65/65/65 64/64/64
f 69/69/69 68/68/68 67/67/67
f 72/72/72 71/71/71 70/70/70
f 75/75/75 74/74/74 73/73/73
f 78/78/78 77/77/77 76/76/76
f 81/81/81 80/80/80 79/79/79
f 84/84/84 83/83/83 82/82/82
f 87/87/87 86/86/86 85/85/85
f 90/90/90 89/89/89 88/88/88
f 93/93/93 92/92/92 91/91/91
f 96/96/96 95/95/95 94/94/94
f 98/98/98 97/97/97 31/31/31
f 101/101/101 100/100/100 99/99/99
f 104/104/104 103/103/103 102/102/102
f 107/107/107 106/106/106 105/105/105
f 110/110/110 109/109/109 108/108/108
f 113/113/113 112/112/112 111/111/111
f 116/116/116 115/115/115 114/114/114
f 119/119/119 118/118/118 117/117/117
f 97/97/97 120/120/120 52/52/52
f 123/123/123 122/122/122 121/121/121
f 126/126/126 125/125/125 124/124/124
f 129/129/129 128/128/128 127/127/127
f 132/132/132 131/131/131 130/130/130
f 135/135/135 134/134/134 133/133/133
