# VPXTOOL table OBJ file
# VPXTOOL OBJ file
# numVerts: 129 numFaces: 129
o LM_L_LRI_swRI
v 2406.8037109375 -27384.685546875 -28485.107421875
v 1026.204833984375 -4602.14697265625 -35424.06640625
v 2021.199462890625 10298.4599609375 -42271.34765625
v -2571.7880859375 7738.09326171875 -40651.35546875
v 457.52337646484375 9405.802734375 -36906.86328125
v -1764.8460693359375 -5397.10205078125 -36081.76171875
v 1026.204833984375 -4602.14697265625 -35424.06640625
v 457.52337646484375 9405.802734375 -36906.86328125
v 2021.199462890625 10298.4599609375 -42271.34765625
v -2023.6871337890625 -13566.484375 -37738.15625
v -1764.8460693359375 -5397.10205078125 -36081.76171875
v -1387.60986328125 -22341.525390625 -29527.759765625
v -1764.8460693359375 -5397.10205078125 -36081.76171875
v -2023.6871337890625 -13566.484375 -37738.15625
v -2571.7880859375 7738.09326171875 -40651.35546875
v 2406.8037109375 -27384.685546875 -28485.107421875
v 2021.199462890625 10298.4599609375 -42271.34765625
v 926.0155639648438 -20816.521484375 -35777.921875
v 458.8803405761719 23665.244140625 -35122.47265625
v 457.52337646484375 9405.802734375 -36906.86328125
v -2571.7880859375 7738.09326171875 -40651.35546875
v -2023.6871337890625 -13566.484375 -37738.15625
v 915.4990844726563 -5077.9892578125 -40925.38671875
v -2571.7880859375 7738.09326171875 -40651.35546875
v 2021.199462890625 10298.4599609375 -42271.34765625
v 915.4990844726563 -5077.9892578125 -40925.38671875
v 926.0155639648438 -20816.521484375 -35777.921875
v 2021.199462890625 10298.4599609375 -42271.34765625
v 457.52337646484375 9405.802734375 -36906.86328125
v 2410.30908203125 31764.96875 -34928.30859375
v 915.4990844726563 -5077.9892578125 -40925.38671875
v 2021.199462890625 10298.4599609375 -42271.34765625
v -2571.7880859375 7738.09326171875 -40651.35546875
v -1387.60986328125 -22341.525390625 -29527.759765625
v 2406.8037109375 -27384.685546875 -28485.107421875
v 464.08203125 -33222.80078125 -22608.056640625
v 926.0155639648438 -20816.521484375 -35777.921875
v 915.4990844726563 -5077.9892578125 -40925.38671875
v -2023.6871337890625 -13566.484375 -37738.15625
v -2200.31884765625 -34392.95703125 -27120.5390625
v -2023.6871337890625 -13566.484375 -37738.15625
v -1387.60986328125 -22341.525390625 -29527.759765625
v -2135.41064453125 30667.18359375 -38230.02734375
v -2571.7880859375 7738.09326171875 -40651.35546875
v 2021.199462890625 10298.4599609375 -42271.34765625
v 926.0155639648438 -20816.521484375 -35777.921875
v -2023.6871337890625 -13566.484375 -37738.15625
v 927.8248291015625 -35569.671875 -27910.275390625
v -2135.41064453125 30667.18359375 -38230.02734375
v -1378.4503173828125 36018.375 -31905.890625
v -2571.7880859375 7738.09326171875 -40651.35546875
v 2406.8037109375 -27384.685546875 -28485.107421875
v 926.0155639648438 -20816.521484375 -35777.921875
v 927.8248291015625 -35569.671875 -27910.275390625
v -2023.6871337890625 -13566.484375 -37738.15625
v -2200.31884765625 -34392.95703125 -27120.5390625
v 927.8248291015625 -35569.671875 -27910.275390625
v 2410.30908203125 31764.96875 -34928.30859375
v 920.8138427734375 25583.541015625 -40616.046875
v 2021.199462890625 10298.4599609375 -42271.34765625
v 568.568359375 -44681.69140625 -13133.173828125
v 464.08203125 -33222.80078125 -22608.056640625
v 2406.8037109375 -27384.685546875 -28485.107421875
v 920.8138427734375 25583.541015625 -40616.046875
v -2135.41064453125 30667.18359375 -38230.02734375
v 2021.199462890625 10298.4599609375 -42271.34765625
v -2304.23974609375 -54873.1796875 -6629.396484375
v -1387.60986328125 -22341.525390625 -29527.759765625
v 464.08203125 -33222.80078125 -22608.056640625
v -2200.31884765625 -34392.95703125 -27120.5390625
v -1387.60986328125 -22341.525390625 -29527.759765625
v -2304.23974609375 -54873.1796875 -6629.396484375
v 2406.8037109375 -27384.685546875 -28485.107421875
v 927.8248291015625 -35569.671875 -27910.275390625
v 2444.346435546875 -53167.47265625 -9346.9345703125
v 2444.346435546875 -53167.47265625 -9346.9345703125
v 568.568359375 -44681.69140625 -13133.173828125
v 2406.8037109375 -27384.685546875 -28485.107421875
v 927.8248291015625 -35569.671875 -27910.275390625
v -2200.31884765625 -34392.95703125 -27120.5390625
v -365.4759216308594 -47940.4453125 -18029.060546875
v 568.568359375 -44681.69140625 -13133.173828125
v -2304.23974609375 -54873.1796875 -6629.396484375
v 464.08203125 -33222.80078125 -22608.056640625
v -2200.31884765625 -34392.95703125 -27120.5390625
v -2304.23974609375 -54873.1796875 -6629.396484375
v -365.4759216308594 -47940.4453125 -18029.060546875
v -365.4759216308594 -47940.4453125 -18029.060546875
v 2444.346435546875 -53167.47265625 -9346.9345703125
v 927.8248291015625 -35569.671875 -27910.275390625
v -1346.4486083984375 -53520.28515625 -2134.2314453125
v 568.568359375 -44681.69140625 -13133.173828125
v 1549.088623046875 -54097.21875 -1510.957275390625
v 1549.088623046875 -54097.21875 -1510.957275390625
v 568.568359375 -44681.69140625 -13133.173828125
v 2444.346435546875 -53167.47265625 -9346.9345703125
v -2304.23974609375 -54873.1796875 -6629.396484375
v 568.568359375 -44681.69140625 -13133.173828125
v -1346.4486083984375 -53520.28515625 -2134.2314453125
v -365.4759216308594 -47940.4453125 -18029.060546875
v 211.79962158203125 -57664.23046875 -5097.30859375
v 2444.346435546875 -53167.47265625 -9346.9345703125
v -365.4759216308594 -47940.4453125 -18029.060546875
v -2304.23974609375 -54873.1796875 -6629.396484375
v 211.79962158203125 -57664.23046875 -5097.30859375
v 1549.088623046875 -54097.21875 -1510.957275390625
v 728.01171875 -61350.42578125 14002.5556640625
v -1346.4486083984375 -53520.28515625 -2134.2314453125
v 2444.346435546875 -53167.47265625 -9346.9345703125
v 1907.4405517578125 -64207.515625 9769.7880859375
v 1549.088623046875 -54097.21875 -1510.957275390625
v -2304.23974609375 -54873.1796875 -6629.396484375
v -1346.4486083984375 -53520.28515625 -2134.2314453125
v -2528.138916015625 -63154.9609375 11999.580078125
v 211.79962158203125 -57664.23046875 -5097.30859375
v 1907.4405517578125 -64207.515625 9769.7880859375
v 2444.346435546875 -53167.47265625 -9346.9345703125
v 211.79962158203125 -57664.23046875 -5097.30859375
v -2304.23974609375 -54873.1796875 -6629.396484375
v 1907.4405517578125 -64207.515625 9769.7880859375
v -1346.4486083984375 -53520.28515625 -2134.2314453125
v 728.01171875 -61350.42578125 14002.5556640625
v -2528.138916015625 -63154.9609375 11999.580078125
v 1907.4405517578125 -64207.515625 9769.7880859375
v 728.01171875 -61350.42578125 14002.5556640625
v 1549.088623046875 -54097.21875 -1510.957275390625
v -2304.23974609375 -54873.1796875 -6629.396484375
v -2528.138916015625 -63154.9609375 11999.580078125
v 1907.4405517578125 -64207.515625 9769.7880859375
vt 0.3961641490459442 0.8983060717582703
vt 0.39621883630752563 0.901059627532959
vt 0.39644601941108704 0.9027625322341919
vt 0.3958241045475006 0.9028043150901794
vt 0.3962712287902832 0.9029862284660339
vt 0.3957149088382721 0.9010195136070251
vt 0.39621883630752563 0.901059627532959
vt 0.3962712287902832 0.9029862284660339
vt 0.39644601941108704 0.9027625322341919
vt 0.395650178194046 0.8997753858566284
vt 0.3957149088382721 0.9010195136070251
vt 0.39552363753318787 0.8989097476005554
vt 0.3957149088382721 0.9010195136070251
vt 0.395650178194046 0.8997753858566284
vt 0.3958241045475006 0.9028043150901794
vt 0.3961641490459442 0.8983060717582703
vt 0.39644601941108704 0.9027625322341919
vt 0.3960292637348175 0.898765504360199
vt 0.3963737487792969 0.9051446914672852
vt 0.3962712287902832 0.9029862284660339
vt 0.3958241045475006 0.9028043150901794
vt 0.395650178194046 0.8997753858566284
vt 0.39626196026802063 0.9007036089897156
vt 0.3958241045475006 0.9028043150901794
vt 0.39644601941108704 0.9027625322341919
vt 0.39626196026802063 0.9007036089897156
vt 0.3960292637348175 0.898765504360199
vt 0.39644601941108704 0.9027625322341919
vt 0.3962712287902832 0.9029862284660339
vt 0.39682143926620483 0.9063960313796997
vt 0.39626196026802063 0.9007036089897156
vt 0.39644601941108704 0.9027625322341919
vt 0.3958241045475006 0.9028043150901794
vt 0.39552363753318787 0.8989097476005554
vt 0.3961641490459442 0.8983060717582703
vt 0.3956328332424164 0.8976945281028748
vt 0.3960292637348175 0.898765504360199
vt 0.39626196026802063 0.9007036089897156
vt 0.395650178194046 0.8997753858566284
vt 0.3953094184398651 0.8973500728607178
vt 0.395650178194046 0.8997753858566284
vt 0.39552363753318787 0.8989097476005554
vt 0.39610201120376587 0.9060380458831787
vt 0.3958241045475006 0.9028043150901794
vt 0.39644601941108704 0.9027625322341919
vt 0.3960292637348175 0.898765504360199
vt 0.395650178194046 0.8997753858566284
vt 0.3957676291465759 0.8971471786499023
vt 0.39610201120376587 0.9060380458831787
vt 0.39611196517944336 0.9071199893951416
vt 0.3958241045475006 0.9028043150901794
vt 0.3961641490459442 0.8983060717582703
vt 0.3960292637348175 0.898765504360199
vt 0.3957676291465759 0.8971471786499023
vt 0.395650178194046 0.8997753858566284
vt 0.3953094184398651 0.8973500728607178
vt 0.3957676291465759 0.8971471786499023
vt 0.39682143926620483 0.9063960313796997
vt 0.3965492844581604 0.905082106590271
vt 0.39644601941108704 0.9027625322341919
vt 0.395407110452652 0.8966355919837952
vt 0.3956328332424164 0.8976945281028748
vt 0.3961641490459442 0.8983060717582703
vt 0.3965492844581604 0.905082106590271
vt 0.39610201120376587 0.9060380458831787
vt 0.39644601941108704 0.9027625322341919
vt 0.39469683170318604 0.8957892060279846
vt 0.39552363753318787 0.8989097476005554
vt 0.3956328332424164 0.8976945281028748
vt 0.3953094184398651 0.8973500728607178
vt 0.39552363753318787 0.8989097476005554
vt 0.39469683170318604 0.8957892060279846
vt 0.3961641490459442 0.8983060717582703
vt 0.3957676291465759 0.8971471786499023
vt 0.3956385850906372 0.8959248661994934
vt 0.3956385850906372 0.8959248661994934
vt 0.395407110452652 0.8966355919837952
vt 0.3961641490459442 0.8983060717582703
vt 0.3957676291465759 0.8971471786499023
vt 0.3953094184398651 0.8973500728607178
vt 0.39530110359191895 0.8960033059120178
vt 0.395407110452652 0.8966355919837952
vt 0.39469683170318604 0.8957892060279846
vt 0.3956328332424164 0.8976945281028748
vt 0.3953094184398651 0.8973500728607178
vt 0.39469683170318604 0.8957892060279846
vt 0.39530110359191895 0.8960033059120178
vt 0.39530110359191895 0.8960033059120178
vt 0.3956385850906372 0.8959248661994934
vt 0.3957676291465759 0.8971471786499023
vt 0.39479151368141174 0.8960580229759216
vt 0.395407110452652 0.8966355919837952
vt 0.3953392207622528 0.896051824092865
vt 0.3953392207622528 0.896051824092865
vt 0.395407110452652 0.8966355919837952
vt 0.3956385850906372 0.8959248661994934
vt 0.39469683170318604 0.8957892060279846
vt 0.395407110452652 0.8966355919837952
vt 0.39479151368141174 0.8960580229759216
vt 0.39530110359191895 0.8960033059120178
vt 0.3951011598110199 0.8953666687011719
vt 0.3956385850906372 0.8959248661994934
vt 0.39530110359191895 0.8960033059120178
vt 0.39469683170318604 0.8957892060279846
vt 0.3951011598110199 0.8953666687011719
vt 0.3953392207622528 0.896051824092865
vt 0.39486169815063477 0.895893931388855
vt 0.39479151368141174 0.8960580229759216
vt 0.3956385850906372 0.8959248661994934
vt 0.39502254128456116 0.8953745365142822
vt 0.3953392207622528 0.896051824092865
vt 0.39469683170318604 0.8957892060279846
vt 0.39479151368141174 0.8960580229759216
vt 0.3943135142326355 0.8955744504928589
vt 0.3951011598110199 0.8953666687011719
vt 0.39502254128456116 0.8953745365142822
vt 0.3956385850906372 0.8959248661994934
vt 0.3951011598110199 0.8953666687011719
vt 0.39469683170318604 0.8957892060279846
vt 0.39502254128456116 0.8953745365142822
vt 0.39479151368141174 0.8960580229759216
vt 0.39486169815063477 0.895893931388855
vt 0.3943135142326355 0.8955744504928589
vt 0.39502254128456116 0.8953745365142822
vt 0.39486169815063477 0.895893931388855
vt 0.3953392207622528 0.896051824092865
vt 0.39469683170318604 0.8957892060279846
vt 0.3943135142326355 0.8955744504928589
vt 0.39502254128456116 0.8953745365142822
vn 0.5881376266479492 0.12419243156909943 0.799168586730957
vn 0.6040619015693665 0.09969934076070786 0.7906765341758728
vn 0.8845854997634888 0.3623122572898865 0.2936636805534363
vn -0.9280731081962585 -0.0004262998700141907 0.37239789962768555
vn -0.642784833908081 0.07520531117916107 0.7623462677001953
vn -0.925443172454834 0.0003048749640583992 0.3788864016532898
vn 0.8555467128753662 -0.020078636705875397 0.5173361897468567
vn 0.8570429682731628 -0.019744884222745895 0.5148664712905884
vn 0.9964591860771179 0.017388075590133667 -0.08226083219051361
vn -0.9519246816635132 -0.2652123272418976 -0.15330252051353455
vn -0.9444077610969543 0.11309032142162323 0.3087140917778015
vn -0.9430175423622131 -0.0030715614557266235 0.33272844552993774
vn -0.9257265329360962 0.15207335352897644 0.3462716341018677
vn -0.9712618589401245 -0.17300401628017426 -0.16346287727355957
vn -0.9723147749900818 0.15274551510810852 -0.1768411546945572
vn 0.9994159936904907 -0.03294481337070465 0.009067714214324951
vn 0.9999465346336365 0.008987851440906525 -0.005118876695632935
vn 0.824006199836731 -0.16787777841091156 -0.5411384105682373
vn -0.5697625875473022 -0.08342292904853821 0.8175642490386963
vn -0.5879963040351868 0.023916035890579224 0.8085100054740906
vn -0.9057450890541077 0.009920135140419006 0.42370671033859253
vn -0.6966838836669922 -0.2963535189628601 -0.653303861618042
vn -0.28169751167297363 -0.05179525166749954 -0.9581041932106018
vn -0.6726856827735901 0.11890046298503876 -0.7303126454353333
vn 0.9645707607269287 0.21576745808124542 -0.1518138200044632
vn 0.8480542302131653 -0.26712486147880554 -0.45765525102615356
vn 0.843288779258728 -0.2132292091846466 -0.49335306882858276
vn 0.9963074922561646 0.03752359002828598 -0.07722330093383789
vn 0.856981635093689 -0.1065099835395813 0.504220187664032
vn 0.9788662195205688 0.19829192757606506 0.05001264810562134
vn -0.11959758400917053 -0.2908293604850769 -0.9492706656455994
vn -0.04492446780204773 0.09399347752332687 -0.9945586919784546
vn -0.5713304877281189 -0.052487388253211975 -0.8190400004386902
vn 0.24135707318782806 0.5447085499763489 0.8031435012817383
vn 0.6711406707763672 0.29032135009765625 0.6821171641349792
vn 0.72237229347229 0.3609566390514374 0.5898208618164063
vn 0.07625435292720795 -0.4942302703857422 -0.8659802079200745
vn 0.07048732042312622 -0.10033921897411346 -0.9924532771110535
vn -0.3916695713996887 -0.3974688649177551 -0.8298273682594299
vn -0.9839230179786682 -0.1638219654560089 -0.0711175948381424
vn -0.9730281829833984 0.1370043158531189 -0.1855960190296173
vn -0.902961015701294 0.3130636513233185 0.2943679392337799
vn -0.5432282090187073 0.3096775412559509 -0.7803863286972046
vn -0.6058014631271362 -0.0457085557281971 -0.7943017482757568
vn -0.08958674967288971 0.0824991762638092 -0.9925563335418701
vn -0.2301863729953766 -0.4995420277118683 -0.8351478576660156
vn -0.679118812084198 -0.18316538631916046 -0.7108079195022583
vn -0.3214832842350006 -0.6337609887123108 -0.7035590410232544
vn -0.9662874341011047 -0.012107037007808685 -0.25718075037002563
vn -0.9374617338180542 -0.0561877116560936 0.34352347254753113
vn -0.9441384077072144 -0.14138364791870117 0.2976797819137573
vn 0.9883365631103516 -0.14994339644908905 -0.026604801416397095
vn 0.7849142551422119 -0.21047738194465637 -0.5827597379684448
vn 0.7764582633972168 -0.3232341408729553 -0.5409548878669739
vn -0.5331273078918457 -0.17438070476055145 -0.8278687000274658
vn -0.6172721982002258 -0.3933645486831665 -0.6813511848449707
vn -0.09917344152927399 -0.532749593257904 -0.840441882610321
vn 0.9623064994812012 0.26473313570022583 -0.06230977177619934
vn 0.8085955381393433 0.04576166719198227 -0.5865824818611145
vn 0.8037787675857544 0.05692017823457718 -0.5921989679336548
vn 0.1341940313577652 0.5511094331741333 0.8235716819763184
vn 0.174800306558609 0.49164754152297974 0.8530693650245667
vn 0.6378356218338013 0.6299321055412292 0.4431154727935791
vn -0.2973078787326813 0.05265412479639053 -0.9533286094665527
vn -0.7461178302764893 0.1868589222431183 -0.6390554904937744
vn -0.3875771760940552 -0.18496516346931458 -0.9030901789665222
vn -0.0021379292011260986 0.5032393932342529 0.8641444444656372
vn -0.003242403268814087 0.6219364404678345 0.7830609679222107
vn 0.438579797744751 0.3683911859989166 0.8197169303894043
vn -0.9638592004776001 -0.23846128582954407 -0.11879196763038635
vn -0.9358488917350769 0.23938928544521332 0.25861093401908875
vn -0.9399999976158142 0.14090117812156677 0.31071996688842773
vn 0.9671539664268494 0.14981089532375336 -0.20535311102867126
vn 0.8408392667770386 -0.4068617820739746 -0.3570053279399872
vn 0.8349660634994507 -0.4105812907218933 -0.36640793085098267
vn 0.9240870475769043 0.13934339582920074 0.35587430000305176
vn 0.5551906824111938 0.6029304265975952 0.5729208588600159
vn 0.8786688446998596 0.4353441596031189 0.19600127637386322
vn -0.118573397397995 -0.5455529689788818 -0.8296458721160889
vn -0.635374128818512 -0.39174845814704895 -0.6654568314552307
vn -0.2448892444372177 -0.763305127620697 -0.5978248119354248
vn -0.2615036368370056 0.7355280518531799 0.6249914169311523
vn -0.6792833805084229 0.42675650119781494 0.5970367789268494
vn -0.216607928276062 0.6472122669219971 0.7308878898620605
vn -0.9259357452392578 -0.04231268912553787 -0.3753034472465515
vn -0.9638760089874268 -0.25678473711013794 -0.070743128657341
vn -0.6653551459312439 -0.47011798620224 -0.5799065828323364
vn 0.46806177496910095 -0.5693423748016357 -0.6758458018302917
vn 0.8268862366676331 -0.48928725719451904 -0.27723121643066406
vn 0.7951706051826477 -0.23063957691192627 -0.5608110427856445
vn -0.26553061604499817 0.8275083899497986 0.49469515681266785
vn -0.2744312882423401 0.7616585493087769 0.5869954228401184
vn 0.2835747003555298 0.788205087184906 0.5461850166320801
vn 0.8281728029251099 0.44971656799316406 0.3344919979572296
vn 0.8536920547485352 0.42235904932022095 0.3046683371067047
vn 0.982689380645752 -0.13716071844100952 0.12453386187553406
vn -0.959298312664032 0.07580870389938354 0.27202939987182617
vn -0.834101676940918 0.4890874922275543 0.25508442521095276
vn -0.9547907710075378 0.289832204580307 0.0661211609840393
vn 0.19998034834861755 -0.627972424030304 -0.7521026730537415
vn 0.21431593596935272 -0.8824014067649841 -0.41885140538215637
vn 0.611607551574707 -0.6866001486778259 -0.39308589696884155
vn -0.5764358639717102 -0.4714432954788208 -0.6674301624298096
vn -0.7078089714050293 -0.5441931486129761 -0.4504002630710602
vn -0.26218321919441223 -0.8701678514480591 -0.41721442341804504
vn 0.29700741171836853 0.8158470988273621 0.4961654245853424
vn -0.2714211344718933 0.1428893804550171 0.9517947435379028
vn -0.2578292489051819 0.8361210227012634 0.48417532444000244
vn 0.999576210975647 0.029094934463500977 -0.000995539128780365
vn 0.5818732380867004 -0.061860933899879456 0.8109234571456909
vn 0.8972761631011963 0.26896002888679504 0.35008013248443604
vn -0.9936394691467285 0.09332999587059021 -0.06300864368677139
vn -0.6334171891212463 0.5631589889526367 0.5306926965713501
vn -0.4667920768260956 -0.0982125848531723 0.8788967132568359
vn 0.5119951963424683 -0.756758987903595 -0.40641963481903076
vn 0.5524734258651733 -0.7930527329444885 0.25659415125846863
vn 0.8198921084403992 -0.35544371604919434 -0.4488172233104706
vn -0.36439239978790283 -0.8674055933952332 -0.33885934948921204
vn -0.8002971410751343 -0.5232332944869995 -0.29283326864242554
vn -0.5292596220970154 -0.7786862254142761 0.33694514632225037
vn -0.2121869921684265 0.9148191809654236 0.343631386756897
vn -0.1509748101234436 0.15571099519729614 0.9761970043182373
vn -0.6929100751876831 -0.35688111186027527 0.6265075206756592
vn 0.7611986994743347 -0.5914865732192993 0.26593267917633057
vn 0.6134925484657288 -0.05388084053993225 0.7878602147102356
vn 0.8892435431480408 0.4202161431312561 0.18073222041130066
vn -0.5145025849342346 -0.6779215335845947 -0.5250804424285889
vn -0.5838854908943176 -0.788463830947876 0.1933971643447876
vn 0.09405286610126495 -0.9933100342750549 -0.0670015811920166
f 3/3/3 2/2/2 1/1/1
f 6/6/6 5/5/5 4/4/4
f 9/9/9 8/8/8 7/7/7
f 12/12/12 11/11/11 10/10/10
f 15/15/15 14/14/14 13/13/13
f 18/18/18 17/17/17 16/16/16
f 21/21/21 20/20/20 19/19/19
f 24/24/24 23/23/23 22/22/22
f 27/27/27 26/26/26 25/25/25
f 30/30/30 29/29/29 28/28/28
f 33/33/33 32/32/32 31/31/31
f 36/36/36 35/35/35 34/34/34
f 39/39/39 38/38/38 37/37/37
f 42/42/42 41/41/41 40/40/40
f 45/45/45 44/44/44 43/43/43
f 48/48/48 47/47/47 46/46/46
f 51/51/51 50/50/50 49/49/49
f 54/54/54 53/53/53 52/52/52
f 57/57/57 56/56/56 55/55/55
f 60/60/60 59/59/59 58/58/58
f 63/63/63 62/62/62 61/61/61
f 66/66/66 65/65/65 64/64/64
f 69/69/69 68/68/68 67/67/67
f 72/72/72 71/71/71 70/70/70
f 75/75/75 74/74/74 73/73/73
f 78/78/78 77/77/77 76/76/76
f 81/81/81 80/80/80 79/79/79
f 84/84/84 83/83/83 82/82/82
f 87/87/87 86/86/86 85/85/85
f 90/90/90 89/89/89 88/88/88
f 93/93/93 92/92/92 91/91/91
f 96/96/96 95/95/95 94/94/94
f 99/99/99 98/98/98 97/97/97
f 102/102/102 101/101/101 100/100/100
f 105/105/105 104/104/104 103/103/103
f 108/108/108 107/107/107 106/106/106
f 111/111/111 110/110/110 109/109/109
f 114/114/114 113/113/113 112/112/112
f 117/117/117 116/116/116 115/115/115
f 120/120/120 119/119/119 118/118/118
f 123/123/123 122/122/122 121/121/121
f 126/126/126 125/125/125 124/124/124
f 129/129/129 128/128/128 127/127/127
