# VPXTOOL table OBJ file
# VPXTOOL OBJ file
# numVerts: 124 numFaces: 138
o LM_GI_gi08_UnderPF
v 295.1871643066406 537.2084350585938 -12.23087215423584
v 286.161865234375 539.003662109375 -12.23087215423584
v 295.1871643066406 537.2084350585938 -6.426159381866455
v 286.161865234375 539.003662109375 -12.23087215423584
v 277.1365966796875 537.2084350585938 -12.23087215423584
v 286.161865234375 539.003662109375 -6.426159381866455
v 286.161865234375 539.003662109375 -12.23087215423584
v 286.161865234375 539.003662109375 -6.426159381866455
v 295.1871643066406 537.2084350585938 -6.426159381866455
v 302.8384094238281 532.0960693359375 -12.23087215423584
v 295.1871643066406 537.2084350585938 -12.23087215423584
v 302.8384094238281 532.0960693359375 -6.426159381866455
v 277.1365966796875 537.2084350585938 -12.23087215423584
v 277.1365966796875 537.2084350585938 -6.426159381866455
v 286.161865234375 539.003662109375 -6.426159381866455
v 277.1365966796875 537.2084350585938 -12.23087215423584
v 269.4853210449219 532.0960693359375 -12.23087215423584
v 277.1365966796875 537.2084350585938 -6.426159381866455
v 295.1871643066406 537.2084350585938 -12.23087215423584
v 295.1871643066406 537.2084350585938 -6.426159381866455
v 302.8384094238281 532.0960693359375 -6.426159381866455
v 269.4853210449219 532.0960693359375 -12.23087215423584
v 269.4853210449219 532.0960693359375 -6.426159381866455
v 277.1365966796875 537.2084350585938 -6.426159381866455
v 307.9508361816406 524.4447631835938 -12.23087215423584
v 302.8384094238281 532.0960693359375 -12.23087215423584
v 307.9508361816406 524.4447631835938 -6.426159381866455
v 302.8384094238281 532.0960693359375 -12.23087215423584
v 302.8384094238281 532.0960693359375 -6.426159381866455
v 307.9508361816406 524.4447631835938 -6.426159381866455
v 269.4853210449219 532.0960693359375 -12.23087215423584
v 264.3729553222656 524.4447631835938 -12.23087215423584
v 269.4853210449219 532.0960693359375 -6.426159381866455
v 309.74609375 515.41943359375 -6.426159381866455
v 295.1871643066406 537.2084350585938 -6.426159381866455
v 286.161865234375 539.003662109375 -6.426159381866455
v 302.8384094238281 532.0960693359375 -6.426159381866455
v 262.57769775390625 515.41943359375 -6.426159381866455
v 277.1365966796875 537.2084350585938 -6.426159381866455
v 264.3729553222656 524.4447631835938 -12.23087215423584
v 264.3729553222656 524.4447631835938 -6.426159381866455
v 269.4853210449219 532.0960693359375 -6.426159381866455
v 262.57769775390625 515.41943359375 -6.426159381866455
v 277.1365966796875 537.2084350585938 -6.426159381866455
v 269.4853210449219 532.0960693359375 -6.426159381866455
v 307.9508361816406 524.4447631835938 -12.23087215423584
v 307.9508361816406 524.4447631835938 -6.426159381866455
v 309.74609375 515.41943359375 -6.426159381866455
v 307.9508361816406 524.4447631835938 -6.426159381866455
v 309.74609375 515.41943359375 -12.23087215423584
v 307.9508361816406 524.4447631835938 -12.23087215423584
v 309.74609375 515.41943359375 -6.426159381866455
v 264.3729553222656 524.4447631835938 -12.23087215423584
v 262.57769775390625 515.41943359375 -12.23087215423584
v 264.3729553222656 524.4447631835938 -6.426159381866455
v 269.4853210449219 532.0960693359375 -6.426159381866455
v 264.3729553222656 524.4447631835938 -6.426159381866455
v 262.57769775390625 515.41943359375 -6.426159381866455
v 262.57769775390625 515.41943359375 -6.426159381866455
v 309.74609375 515.41943359375 -12.23087215423584
v 309.74609375 515.41943359375 -6.426159381866455
v 307.9508361816406 506.39422607421875 -6.426159381866455
v 307.9508361816406 506.39422607421875 -12.23087215423584
v 309.74609375 515.41943359375 -12.23087215423584
v 307.9508361816406 506.39422607421875 -6.426159381866455
v 286.161865234375 491.8353271484375 -6.426159381866455
v 309.74609375 515.41943359375 -6.426159381866455
v 286.161865234375 539.003662109375 -6.426159381866455
v 262.57769775390625 515.41943359375 -12.23087215423584
v 264.3729553222656 506.39422607421875 -12.23087215423584
v 262.57769775390625 515.41943359375 -6.426159381866455
v 286.161865234375 491.8353271484375 -6.426159381866455
v 264.3729553222656 506.39422607421875 -6.426159381866455
v 302.8384094238281 498.7429504394531 -6.426159381866455
v 307.9508361816406 506.39422607421875 -6.426159381866455
v 309.74609375 515.41943359375 -6.426159381866455
v 307.9508361816406 506.39422607421875 -12.23087215423584
v 307.9508361816406 506.39422607421875 -6.426159381866455
v 302.8384094238281 498.7429504394531 -6.426159381866455
v 302.8384094238281 498.7429504394531 -12.23087215423584
v 307.9508361816406 506.39422607421875 -12.23087215423584
v 302.8384094238281 498.7429504394531 -6.426159381866455
v 264.3729553222656 506.39422607421875 -12.23087215423584
v 269.4853210449219 498.7429504394531 -12.23087215423584
v 264.3729553222656 506.39422607421875 -6.426159381866455
v 264.3729553222656 506.39422607421875 -6.426159381866455
v 269.4853210449219 498.7429504394531 -6.426159381866455
v 295.1871643066406 493.6305847167969 -6.426159381866455
v 302.8384094238281 498.7429504394531 -6.426159381866455
v 269.4853210449219 498.7429504394531 -12.23087215423584
v 269.4853210449219 498.7429504394531 -6.426159381866455
v 264.3729553222656 506.39422607421875 -6.426159381866455
v 309.74609375 515.41943359375 -6.426159381866455
v 286.161865234375 491.8353271484375 -6.426159381866455
v 295.1871643066406 493.6305847167969 -6.426159381866455
v 295.1871643066406 493.6305847167969 -12.23087215423584
v 302.8384094238281 498.7429504394531 -12.23087215423584
v 295.1871643066406 493.6305847167969 -6.426159381866455
v 269.4853210449219 498.7429504394531 -6.426159381866455
v 277.1365966796875 493.6305847167969 -6.426159381866455
v 302.8384094238281 498.7429504394531 -12.23087215423584
v 302.8384094238281 498.7429504394531 -6.426159381866455
v 295.1871643066406 493.6305847167969 -6.426159381866455
v 269.4853210449219 498.7429504394531 -12.23087215423584
v 277.1365966796875 493.6305847167969 -12.23087215423584
v 269.4853210449219 498.7429504394531 -6.426159381866455
v 262.57769775390625 515.41943359375 -6.426159381866455
v 277.1365966796875 493.6305847167969 -6.426159381866455
v 286.161865234375 491.8353271484375 -6.426159381866455
v 286.161865234375 491.8353271484375 -12.23087215423584
v 295.1871643066406 493.6305847167969 -12.23087215423584
v 286.161865234375 491.8353271484375 -6.426159381866455
v 277.1365966796875 493.6305847167969 -12.23087215423584
v 286.161865234375 491.8353271484375 -12.23087215423584
v 277.1365966796875 493.6305847167969 -6.426159381866455
v 277.1365966796875 493.6305847167969 -12.23087215423584
v 277.1365966796875 493.6305847167969 -6.426159381866455
v 269.4853210449219 498.7429504394531 -6.426159381866455
v 295.1871643066406 493.6305847167969 -12.23087215423584
v 295.1871643066406 493.6305847167969 -6.426159381866455
v 286.161865234375 491.8353271484375 -6.426159381866455
v 286.161865234375 491.8353271484375 -12.23087215423584
v 286.161865234375 491.8353271484375 -6.426159381866455
v 277.1365966796875 493.6305847167969 -6.426159381866455
vt 0.5162339210510254 0.8357715010643005
vt 0.5168920755386353 0.8383340835571289
vt 0.5171248912811279 0.8359043002128601
vt 0.5168920755386353 0.8383340835571289
vt 0.5162339210510254 0.8409426212310791
vt 0.5177822709083557 0.8384625911712646
vt 0.5168920755386353 0.8383340835571289
vt 0.5177822709083557 0.8384625911712646
vt 0.5171248912811279 0.8359043002128601
vt 0.5143617391586304 0.8336490392684937
vt 0.5162339210510254 0.8357715010643005
vt 0.5152551531791687 0.8337852954864502
vt 0.5162339210510254 0.8409426212310791
vt 0.5171248912811279 0.8410666584968567
vt 0.5177822709083557 0.8384625911712646
vt 0.5162339210510254 0.8409426212310791
vt 0.5143617391586304 0.8431957960128784
vt 0.5171248912811279 0.8410666584968567
vt 0.5162339210510254 0.8357715010643005
vt 0.5171248912811279 0.8359043002128601
vt 0.5152551531791687 0.8337852954864502
vt 0.5143617391586304 0.8431957960128784
vt 0.5152551531791687 0.8433159589767456
vt 0.5171248912811279 0.8410666584968567
vt 0.5115658044815063 0.8322913646697998
vt 0.5143617391586304 0.8336490392684937
vt 0.5124627947807312 0.8324297070503235
vt 0.5143617391586304 0.8336490392684937
vt 0.5152551531791687 0.8337852954864502
vt 0.5124627947807312 0.8324297070503235
vt 0.5143617391586304 0.8431957960128784
vt 0.5115658044815063 0.8447487354278564
vt 0.5152551531791687 0.8433159589767456
vt 0.5091781616210938 0.8320419192314148
vt 0.5171248912811279 0.8359043002128601
vt 0.5177822709083557 0.8384625911712646
vt 0.5152551531791687 0.8337852954864502
vt 0.5091781616210938 0.8454827666282654
vt 0.5171248912811279 0.8410666584968567
vt 0.5115658044815063 0.8447487354278564
vt 0.5124627947807312 0.844866156578064
vt 0.5152551531791687 0.8433159589767456
vt 0.5091781616210938 0.8454827666282654
vt 0.5171248912811279 0.8410666584968567
vt 0.5152551531791687 0.8433159589767456
vt 0.5115658044815063 0.8322913646697998
vt 0.5124627947807312 0.8324297070503235
vt 0.5091781616210938 0.8320419192314148
vt 0.5124627947807312 0.8324297070503235
vt 0.5082769989967346 0.8319031000137329
vt 0.5115658044815063 0.8322913646697998
vt 0.5091781616210938 0.8320419192314148
vt 0.5115658044815063 0.8447487354278564
vt 0.5082769989967346 0.8453665971755981
vt 0.5124627947807312 0.844866156578064
vt 0.5152551531791687 0.8433159589767456
vt 0.5124627947807312 0.844866156578064
vt 0.5091781616210938 0.8454827666282654
vt 0.5091781616210938 0.8454827666282654
vt 0.5082769989967346 0.8319031000137329
vt 0.5091781616210938 0.8320419192314148
vt 0.505903422832489 0.832676887512207
vt 0.5049981474876404 0.8325393795967102
vt 0.5082769989967346 0.8319031000137329
vt 0.505903422832489 0.832676887512207
vt 0.5006415843963623 0.8390597701072693
vt 0.5091781616210938 0.8320419192314148
vt 0.5177822709083557 0.8384625911712646
vt 0.5082769989967346 0.8453665971755981
vt 0.5049981474876404 0.8449592590332031
vt 0.5091781616210938 0.8454827666282654
vt 0.5006415843963623 0.8390597701072693
vt 0.505903422832489 0.8450759649276733
vt 0.5031349658966064 0.8342339992523193
vt 0.505903422832489 0.832676887512207
vt 0.5091781616210938 0.8320419192314148
vt 0.5049981474876404 0.8325393795967102
vt 0.505903422832489 0.832676887512207
vt 0.5031349658966064 0.8342339992523193
vt 0.5022261738777161 0.834099292755127
vt 0.5049981474876404 0.8325393795967102
vt 0.5031349658966064 0.8342339992523193
vt 0.5049981474876404 0.8449592590332031
vt 0.5022261738777161 0.8435928821563721
vt 0.505903422832489 0.8450759649276733
vt 0.505903422832489 0.8450759649276733
vt 0.5031349658966064 0.8437117338180542
vt 0.5012890696525574 0.8364747166633606
vt 0.5031349658966064 0.8342339992523193
vt 0.5022261738777161 0.8435928821563721
vt 0.5031349658966064 0.8437117338180542
vt 0.505903422832489 0.8450759649276733
vt 0.5091781616210938 0.8320419192314148
vt 0.5006415843963623 0.8390597701072693
vt 0.5012890696525574 0.8364747166633606
vt 0.5003779530525208 0.8363438844680786
vt 0.5022261738777161 0.834099292755127
vt 0.5012890696525574 0.8364747166633606
vt 0.5031349658966064 0.8437117338180542
vt 0.5012890696525574 0.8415996432304382
vt 0.5022261738777161 0.834099292755127
vt 0.5031349658966064 0.8342339992523193
vt 0.5012890696525574 0.8364747166633606
vt 0.5022261738777161 0.8435928821563721
vt 0.5003779530525208 0.8414773941040039
vt 0.5031349658966064 0.8437117338180542
vt 0.5091781616210938 0.8454827666282654
vt 0.5012890696525574 0.8415996432304382
vt 0.5006415843963623 0.8390597701072693
vt 0.4997296929359436 0.8389332294464111
vt 0.5003779530525208 0.8363438844680786
vt 0.5006415843963623 0.8390597701072693
vt 0.5003779530525208 0.8414773941040039
vt 0.4997296929359436 0.8389332294464111
vt 0.5012890696525574 0.8415996432304382
vt 0.5003779530525208 0.8414773941040039
vt 0.5012890696525574 0.8415996432304382
vt 0.5031349658966064 0.8437117338180542
vt 0.5003779530525208 0.8363438844680786
vt 0.5012890696525574 0.8364747166633606
vt 0.5006415843963623 0.8390597701072693
vt 0.4997296929359436 0.8389332294464111
vt 0.5006415843963623 0.8390597701072693
vt 0.5012890696525574 0.8415996432304382
vn -0.19509294629096985 -0.9807847738265991 -0
vn -0.19509294629096985 -0.9807847738265991 -0
vn -0.19509294629096985 -0.9807847738265991 -0
vn 0.19509294629096985 -0.9807847738265991 -0
vn 0.19509294629096985 -0.9807847738265991 -0
vn 0.19509294629096985 -0.9807847738265991 -0
vn -0.19509217143058777 -0.9807848334312439 -0
vn -0.19509217143058777 -0.9807848334312439 -0
vn -0.19509217143058777 -0.9807848334312439 -0
vn -0.5555657148361206 -0.831472635269165 -0
vn -0.5555657148361206 -0.831472635269165 -0
vn -0.5555657148361206 -0.831472635269165 -0
vn 0.19509217143058777 -0.9807848334312439 -0
vn 0.19509217143058777 -0.9807848334312439 -0
vn 0.19509217143058777 -0.9807848334312439 -0
vn 0.5555673837661743 -0.8314713835716248 -0
vn 0.5555673837661743 -0.8314713835716248 -0
vn 0.5555673837661743 -0.8314713835716248 -0
vn -0.555565595626831 -0.831472635269165 -0
vn -0.555565595626831 -0.831472635269165 -0
vn -0.555565595626831 -0.831472635269165 -0
vn 0.555565595626831 -0.831472635269165 -0
vn 0.555565595626831 -0.831472635269165 -0
vn 0.555565595626831 -0.831472635269165 -0
vn -0.8314679861068726 -0.5555726885795593 -0
vn -0.8314679861068726 -0.5555726885795593 -0
vn -0.8314679861068726 -0.5555726885795593 -0
vn -0.8314713835716248 -0.5555675625801086 -0
vn -0.8314713835716248 -0.5555675625801086 -0
vn -0.8314713835716248 -0.5555675625801086 -0
vn 0.8314731121063232 -0.5555648803710938 -0
vn 0.8314731121063232 -0.5555648803710938 -0
vn 0.8314731121063232 -0.5555648803710938 -0
vn 0 -0 -1
vn 0 -0 -1
vn 0 -0 -1
vn 0 -0 -1
vn 0 -0 -1
vn 0 -0 -1
vn 0.8314713835716248 -0.5555675625801086 -0
vn 0.8314713835716248 -0.5555675625801086 -0
vn 0.8314713835716248 -0.5555675625801086 -0
vn 0 -0 -0.9999999403953552
vn 0 -0 -0.9999999403953552
vn 0 -0 -0.9999999403953552
vn -0.9807844758033752 -0.1950945109128952 -0
vn -0.9807844758033752 -0.1950945109128952 -0
vn -0.9807844758033752 -0.1950945109128952 -0
vn 0 -0 -1
vn -0.9807858467102051 -0.19508729875087738 -0
vn -0.9807858467102051 -0.19508729875087738 -0
vn -0.9807858467102051 -0.19508729875087738 -0
vn 0.9807851910591125 -0.1950909048318863 -0
vn 0.9807851910591125 -0.1950909048318863 -0
vn 0.9807851910591125 -0.1950909048318863 -0
vn 0.00000019268000528427365 -0 -1
vn 0.00000019268000528427365 -0 -1
vn 0.00000019268000528427365 -0 -1
vn 0.9807851910591125 -0.1950909048318863 -0
vn -0.9807854294776917 0.19508959352970123 -0
vn -0.9807854294776917 0.19508959352970123 -0
vn -0.9807854294776917 0.19508959352970123 -0
vn -0.9807840585708618 0.19509679079055786 -0
vn -0.9807840585708618 0.19509679079055786 -0
vn -0.9807840585708618 0.19509679079055786 -0
vn 0 -0 -0.9999999403953552
vn 0 -0 -0.9999999403953552
vn 0 -0 -0.9999999403953552
vn 0.9807847142219543 0.19509318470954895 -0
vn 0.9807847142219543 0.19509318470954895 -0
vn 0.9807847142219543 0.19509318470954895 -0
vn 0 -0 -1
vn 0.9807847142219543 0.19509318470954895 -0
vn -0.00000019268237849701109 -0 -0.9999999403953552
vn -0.00000019268237849701109 -0 -0.9999999403953552
vn -0.00000019268237849701109 -0 -0.9999999403953552
vn -0.831467866897583 0.5555726885795593 -0
vn -0.831467866897583 0.5555726885795593 -0
vn -0.831467866897583 0.5555726885795593 -0
vn -0.8314714431762695 0.5555675029754639 -0
vn -0.8314714431762695 0.5555675029754639 -0
vn -0.8314714431762695 0.5555675029754639 -0
vn 0.8314714431762695 0.5555675029754639 -0
vn 0.8314714431762695 0.5555675029754639 -0
vn 0.8314714431762695 0.5555675029754639 -0
vn 0 -0 -1
vn 0 -0 -1
vn 0 -0 -0.9999999403953552
vn 0 -0 -0.9999999403953552
vn 0.8314731121063232 0.5555649995803833 -0
vn 0.8314731121063232 0.5555649995803833 -0
vn 0.8314731121063232 0.5555649995803833 -0
vn 0.00000014646744261881395 -0 -1
vn 0.00000014646744261881395 -0 -1
vn 0.00000014646744261881395 -0 -1
vn -0.5555657148361206 0.831472635269165 -0
vn -0.5555657148361206 0.831472635269165 -0
vn -0.5555657148361206 0.831472635269165 -0
vn 0 -0 -0.9999999403953552
vn 0 -0 -0.9999999403953552
vn -0.555565595626831 0.831472635269165 -0
vn -0.555565595626831 0.831472635269165 -0
vn -0.555565595626831 0.831472635269165 -0
vn 0.5555657148361206 0.831472635269165 -0
vn 0.5555657148361206 0.831472635269165 -0
vn 0.5555657148361206 0.831472635269165 -0
vn -0.00000014646744261881395 -0 -1
vn -0.00000014646744261881395 -0 -1
vn -0.00000014646744261881395 -0 -1
vn -0.19509220123291016 0.9807848334312439 -0
vn -0.19509220123291016 0.9807848334312439 -0
vn -0.19509220123291016 0.9807848334312439 -0
vn 0.19509220123291016 0.9807848334312439 -0
vn 0.19509220123291016 0.9807848334312439 -0
vn 0.19509220123291016 0.9807848334312439 -0
vn 0.5555673837661743 0.8314715027809143 -0
vn 0.5555673837661743 0.8314715027809143 -0
vn 0.5555673837661743 0.8314715027809143 -0
vn -0.19509291648864746 0.9807847738265991 -0
vn -0.19509291648864746 0.9807847738265991 -0
vn -0.19509291648864746 0.9807847738265991 -0
vn 0.19509291648864746 0.9807847738265991 -0
vn 0.19509291648864746 0.9807847738265991 -0
vn 0.19509291648864746 0.9807847738265991 -0
f 3/3/3 2/2/2 1/1/1
f 6/6/6 5/5/5 4/4/4
f 9/9/9 8/8/8 7/7/7
f 12/12/12 11/11/11 10/10/10
f 15/15/15 14/14/14 13/13/13
f 18/18/18 17/17/17 16/16/16
f 21/21/21 20/20/20 19/19/19
f 24/24/24 23/23/23 22/22/22
f 27/27/27 26/26/26 25/25/25
f 30/30/30 29/29/29 28/28/28
f 33/33/33 32/32/32 31/31/31
f 36/36/36 35/35/35 34/34/34
f 35/35/35 37/37/37 34/34/34
f 39/39/39 36/36/36 38/38/38
f 42/42/42 41/41/41 40/40/40
f 45/45/45 44/44/44 43/43/43
f 48/48/48 47/47/47 46/46/46
f 37/37/37 49/49/49 34/34/34
f 52/52/52 51/51/51 50/50/50
f 55/55/55 54/54/54 53/53/53
f 58/58/58 57/57/57 56/56/56
f 55/55/55 59/59/59 54/54/54
f 62/62/62 61/61/61 60/60/60
f 65/65/65 64/64/64 63/63/63
f 68/68/68 67/67/67 66/66/66
f 71/71/71 70/70/70 69/69/69
f 72/72/72 38/38/38 36/36/36
f 71/71/71 73/73/73 70/70/70
f 76/76/76 75/75/75 74/74/74
f 79/79/79 78/78/78 77/77/77
f 82/82/82 81/81/81 80/80/80
f 85/85/85 84/84/84 83/83/83
f 87/87/87 86/86/86 38/38/38
f 89/89/89 88/88/88 67/67/67
f 92/92/92 91/91/91 90/90/90
f 95/95/95 94/94/94 93/93/93
f 98/98/98 97/97/97 96/96/96
f 100/100/100 99/99/99 43/43/43
f 103/103/103 102/102/102 101/101/101
f 106/106/106 105/105/105 104/104/104
f 109/109/109 108/108/108 107/107/107
f 112/112/112 111/111/111 110/110/110
f 115/115/115 114/114/114 113/113/113
f 118/118/118 117/117/117 116/116/116
f 121/121/121 120/120/120 119/119/119
f 124/124/124 123/123/123 122/122/122
