# VPXTOOL table OBJ file
# VPXTOOL OBJ file
# numVerts: 132 numFaces: 138
o LM_L_LW2_UnderPF
v -14.324936866760254 -204.48379516601563 -12.153261184692383
v -20.130826950073242 -203.32891845703125 -12.153261184692383
v -14.324936866760254 -204.48379516601563 -5.324187755584717
v -20.130826950073242 -203.32891845703125 -12.153261184692383
v -25.936689376831055 -204.48379516601563 -12.153261184692383
v -20.130826950073242 -203.32891845703125 -5.324187755584717
v -9.40295696258545 -207.77252197265625 -12.153261184692383
v -14.324936866760254 -204.48379516601563 -12.153261184692383
v -9.40295696258545 -207.77252197265625 -5.324187755584717
v -20.130826950073242 -203.32891845703125 -12.153261184692383
v -20.130826950073242 -203.32891845703125 -5.324187755584717
v -14.324936866760254 -204.48379516601563 -5.324187755584717
v -14.324936866760254 -204.48379516601563 -12.153261184692383
v -14.324936866760254 -204.48379516601563 -5.324187755584717
v -9.40295696258545 -207.77252197265625 -5.324187755584717
v -25.936689376831055 -204.48379516601563 -12.153261184692383
v -30.85866928100586 -207.77252197265625 -12.153261184692383
v -25.936689376831055 -204.48379516601563 -5.324187755584717
v -25.936689376831055 -204.48379516601563 -12.153261184692383
v -25.936689376831055 -204.48379516601563 -5.324187755584717
v -20.130826950073242 -203.32891845703125 -5.324187755584717
v -6.114210605621338 -212.69448852539063 -12.153261184692383
v -9.40295696258545 -207.77252197265625 -12.153261184692383
v -6.114210605621338 -212.69448852539063 -5.324187755584717
v -9.40295696258545 -207.77252197265625 -12.153261184692383
v -9.40295696258545 -207.77252197265625 -5.324187755584717
v -6.114210605621338 -212.69448852539063 -5.324187755584717
v -30.85866928100586 -207.77252197265625 -12.153261184692383
v -30.85866928100586 -207.77252197265625 -5.324187755584717
v -25.936689376831055 -204.48379516601563 -5.324187755584717
v -30.85866928100586 -207.77252197265625 -12.153261184692383
v -34.14744186401367 -212.69448852539063 -12.153261184692383
v -30.85866928100586 -207.77252197265625 -5.324187755584717
v -4.9593329429626465 -218.5004119873047 -5.324187755584717
v -14.324936866760254 -204.48379516601563 -5.324187755584717
v -20.130826950073242 -203.32891845703125 -5.324187755584717
v -4.9593329429626465 -218.5004119873047 -5.324187755584717
v -9.40295696258545 -207.77252197265625 -5.324187755584717
v -14.324936866760254 -204.48379516601563 -5.324187755584717
v -4.9593329429626465 -218.5004119873047 -12.153261184692383
v -6.114210605621338 -212.69448852539063 -12.153261184692383
v -4.9593329429626465 -218.5004119873047 -5.324187755584717
v -35.30229187011719 -218.5004119873047 -5.324187755584717
v -20.130826950073242 -203.32891845703125 -5.324187755584717
v -25.936689376831055 -204.48379516601563 -5.324187755584717
v -6.114210605621338 -212.69448852539063 -12.153261184692383
v -6.114210605621338 -212.69448852539063 -5.324187755584717
v -4.9593329429626465 -218.5004119873047 -5.324187755584717
v -6.114210605621338 -212.69448852539063 -5.324187755584717
v -34.14744186401367 -212.69448852539063 -12.153261184692383
v -34.14744186401367 -212.69448852539063 -5.324187755584717
v -30.85866928100586 -207.77252197265625 -5.324187755584717
v -35.30229187011719 -218.5004119873047 -5.324187755584717
v -25.936689376831055 -204.48379516601563 -5.324187755584717
v -30.85866928100586 -207.77252197265625 -5.324187755584717
v -34.14744186401367 -212.69448852539063 -12.153261184692383
v -35.30229187011719 -218.5004119873047 -12.153261184692383
v -34.14744186401367 -212.69448852539063 -5.324187755584717
v -30.85866928100586 -207.77252197265625 -5.324187755584717
v -34.14744186401367 -212.69448852539063 -5.324187755584717
v -35.30229187011719 -218.5004119873047 -5.324187755584717
v -6.114210605621338 -224.3062744140625 -12.153261184692383
v -4.9593329429626465 -218.5004119873047 -12.153261184692383
v -6.114210605621338 -224.3062744140625 -5.324187755584717
v -4.9593329429626465 -218.5004119873047 -12.153261184692383
v -4.9593329429626465 -218.5004119873047 -5.324187755584717
v -6.114210605621338 -224.3062744140625 -5.324187755584717
v -35.30229187011719 -218.5004119873047 -12.153261184692383
v -35.30229187011719 -218.5004119873047 -5.324187755584717
v -34.14744186401367 -212.69448852539063 -5.324187755584717
v -20.130826950073242 -233.67184448242188 -5.324187755584717
v -20.130826950073242 -203.32891845703125 -5.324187755584717
v -35.30229187011719 -218.5004119873047 -12.153261184692383
v -34.14744186401367 -224.3062744140625 -12.153261184692383
v -35.30229187011719 -218.5004119873047 -5.324187755584717
v -20.130826950073242 -203.32891845703125 -5.324187755584717
v -35.30229187011719 -218.5004119873047 -5.324187755584717
v -20.130826950073242 -233.67184448242188 -5.324187755584717
v -9.40295696258545 -229.22825622558594 -12.153261184692383
v -6.114210605621338 -224.3062744140625 -12.153261184692383
v -9.40295696258545 -229.22825622558594 -5.324187755584717
v -6.114210605621338 -224.3062744140625 -12.153261184692383
v -6.114210605621338 -224.3062744140625 -5.324187755584717
v -9.40295696258545 -229.22825622558594 -5.324187755584717
v -34.14744186401367 -224.3062744140625 -12.153261184692383
v -34.14744186401367 -224.3062744140625 -5.324187755584717
v -35.30229187011719 -218.5004119873047 -5.324187755584717
v -20.130826950073242 -233.67184448242188 -5.324187755584717
v -6.114210605621338 -224.3062744140625 -5.324187755584717
v -4.9593329429626465 -218.5004119873047 -5.324187755584717
v -34.14744186401367 -224.3062744140625 -12.153261184692383
v -30.85866928100586 -229.22825622558594 -12.153261184692383
v -34.14744186401367 -224.3062744140625 -5.324187755584717
v -14.324936866760254 -232.51702880859375 -12.153261184692383
v -9.40295696258545 -229.22825622558594 -12.153261184692383
v -14.324936866760254 -232.51702880859375 -5.324187755584717
v -34.14744186401367 -224.3062744140625 -5.324187755584717
v -30.85866928100586 -229.22825622558594 -5.324187755584717
v -9.40295696258545 -229.22825622558594 -12.153261184692383
v -9.40295696258545 -229.22825622558594 -5.324187755584717
v -14.324936866760254 -232.51702880859375 -5.324187755584717
v -30.85866928100586 -229.22825622558594 -12.153261184692383
v -30.85866928100586 -229.22825622558594 -5.324187755584717
v -34.14744186401367 -224.3062744140625 -5.324187755584717
v -30.85866928100586 -229.22825622558594 -12.153261184692383
v -25.936689376831055 -232.51702880859375 -12.153261184692383
v -30.85866928100586 -229.22825622558594 -5.324187755584717
v -20.130826950073242 -233.67184448242188 -5.324187755584717
v -9.40295696258545 -229.22825622558594 -5.324187755584717
v -6.114210605621338 -224.3062744140625 -5.324187755584717
v -35.30229187011719 -218.5004119873047 -5.324187755584717
v -30.85866928100586 -229.22825622558594 -5.324187755584717
v -20.130826950073242 -233.67184448242188 -5.324187755584717
v -20.130826950073242 -233.67184448242188 -12.153261184692383
v -14.324936866760254 -232.51702880859375 -12.153261184692383
v -20.130826950073242 -233.67184448242188 -5.324187755584717
v -25.936689376831055 -232.51702880859375 -12.153261184692383
v -20.130826950073242 -233.67184448242188 -12.153261184692383
v -25.936689376831055 -232.51702880859375 -5.324187755584717
v -14.324936866760254 -232.51702880859375 -12.153261184692383
v -14.324936866760254 -232.51702880859375 -5.324187755584717
v -20.130826950073242 -233.67184448242188 -5.324187755584717
v -25.936689376831055 -232.51702880859375 -12.153261184692383
v -25.936689376831055 -232.51702880859375 -5.324187755584717
v -30.85866928100586 -229.22825622558594 -5.324187755584717
v -20.130826950073242 -233.67184448242188 -5.324187755584717
v -14.324936866760254 -232.51702880859375 -5.324187755584717
v -9.40295696258545 -229.22825622558594 -5.324187755584717
v -20.130826950073242 -233.67184448242188 -12.153261184692383
v -20.130826950073242 -233.67184448242188 -5.324187755584717
v -25.936689376831055 -232.51702880859375 -5.324187755584717
v -25.936689376831055 -232.51702880859375 -5.324187755584717
vt 0.052236273884773254 0.050297677516937256
vt 0.05247948318719864 0.051778435707092285
vt 0.05322311818599701 0.050282180309295654
vt 0.05247948318719864 0.051778435707092285
vt 0.052236273884773254 0.053255677223205566
vt 0.053466103971004486 0.05176037549972534
vt 0.05154407024383545 0.049040138721466064
vt 0.052236273884773254 0.050297677516937256
vt 0.05253168195486069 0.04902684688568115
vt 0.05247948318719864 0.051778435707092285
vt 0.053466103971004486 0.05176037549972534
vt 0.05322311818599701 0.050282180309295654
vt 0.052236273884773254 0.050297677516937256
vt 0.05322311818599701 0.050282180309295654
vt 0.05253168195486069 0.04902684688568115
vt 0.052236273884773254 0.053255677223205566
vt 0.05154407024383545 0.05450314283370972
vt 0.05322311818599701 0.053234994411468506
vt 0.052236273884773254 0.053255677223205566
vt 0.05322311818599701 0.053234994411468506
vt 0.053466103971004486 0.05176037549972534
vt 0.05050941929221153 0.04819786548614502
vt 0.05154407024383545 0.049040138721466064
vt 0.05149812996387482 0.04818606376647949
vt 0.05154407024383545 0.049040138721466064
vt 0.05253168195486069 0.04902684688568115
vt 0.05149812996387482 0.04818606376647949
vt 0.05154407024383545 0.05450314283370972
vt 0.05253168195486069 0.05448025465011597
vt 0.05322311818599701 0.053234994411468506
vt 0.05154407024383545 0.05450314283370972
vt 0.05050941929221153 0.05533039569854736
vt 0.05253168195486069 0.05448025465011597
vt 0.05028092861175537 0.047887206077575684
vt 0.05322311818599701 0.050282180309295654
vt 0.053466103971004486 0.05176037549972534
vt 0.05028092861175537 0.047887206077575684
vt 0.05253168195486069 0.04902684688568115
vt 0.05322311818599701 0.050282180309295654
vt 0.049290936440229416 0.04789847135543823
vt 0.05050941929221153 0.04819786548614502
vt 0.05028092861175537 0.047887206077575684
vt 0.05028092861175537 0.055587172508239746
vt 0.053466103971004486 0.05176037549972534
vt 0.05322311818599701 0.053234994411468506
vt 0.05050941929221153 0.04819786548614502
vt 0.05149812996387482 0.04818606376647949
vt 0.05028092861175537 0.047887206077575684
vt 0.05149812996387482 0.04818606376647949
vt 0.05050941929221153 0.05533039569854736
vt 0.05149812996387482 0.05530601739883423
vt 0.05253168195486069 0.05448025465011597
vt 0.05028092861175537 0.055587172508239746
vt 0.05322311818599701 0.053234994411468506
vt 0.05253168195486069 0.05448025465011597
vt 0.05050941929221153 0.05533039569854736
vt 0.049290936440229416 0.05561196804046631
vt 0.05149812996387482 0.05530601739883423
vt 0.05253168195486069 0.05448025465011597
vt 0.05149812996387482 0.05530601739883423
vt 0.05028092861175537 0.055587172508239746
vt 0.04807450249791145 0.048186302185058594
vt 0.049290936440229416 0.04789847135543823
vt 0.049065813422203064 0.048174500465393066
vt 0.049290936440229416 0.04789847135543823
vt 0.05028092861175537 0.047887206077575684
vt 0.049065813422203064 0.048174500465393066
vt 0.049290936440229416 0.05561196804046631
vt 0.05028092861175537 0.055587172508239746
vt 0.05149812996387482 0.05530601739883423
vt 0.04711006209254265 0.051714181900024414
vt 0.053466103971004486 0.05176037549972534
vt 0.049290936440229416 0.05561196804046631
vt 0.04807450249791145 0.05530649423599243
vt 0.05028092861175537 0.055587172508239746
vt 0.053466103971004486 0.05176037549972534
vt 0.05028092861175537 0.055587172508239746
vt 0.04711006209254265 0.051714181900024414
vt 0.047044944018125534 0.04901611804962158
vt 0.04807450249791145 0.048186302185058594
vt 0.04803731292486191 0.049002885818481445
vt 0.04807450249791145 0.048186302185058594
vt 0.049065813422203064 0.048174500465393066
vt 0.04803731292486191 0.049002885818481445
vt 0.04807450249791145 0.05530649423599243
vt 0.049065813422203064 0.05528223514556885
vt 0.05028092861175537 0.055587172508239746
vt 0.04711006209254265 0.051714181900024414
vt 0.049065813422203064 0.048174500465393066
vt 0.05028092861175537 0.047887206077575684
vt 0.04807450249791145 0.05530649423599243
vt 0.047044944018125534 0.054461658000946045
vt 0.049065813422203064 0.05528223514556885
vt 0.046357858926057816 0.05026102066040039
vt 0.047044944018125534 0.04901611804962158
vt 0.0473509281873703 0.05024564266204834
vt 0.049065813422203064 0.05528223514556885
vt 0.04803731292486191 0.054438889026641846
vt 0.047044944018125534 0.04901611804962158
vt 0.04803731292486191 0.049002885818481445
vt 0.0473509281873703 0.05024564266204834
vt 0.047044944018125534 0.054461658000946045
vt 0.04803731292486191 0.054438889026641846
vt 0.049065813422203064 0.05528223514556885
vt 0.047044944018125534 0.054461658000946045
vt 0.046357858926057816 0.05320674180984497
vt 0.04803731292486191 0.054438889026641846
vt 0.04711006209254265 0.051714181900024414
vt 0.04803731292486191 0.049002885818481445
vt 0.049065813422203064 0.048174500465393066
vt 0.05028092861175537 0.055587172508239746
vt 0.04803731292486191 0.054438889026641846
vt 0.04711006209254265 0.051714181900024414
vt 0.04611673951148987 0.05173212289810181
vt 0.046357858926057816 0.05026102066040039
vt 0.04711006209254265 0.051714181900024414
vt 0.046357858926057816 0.05320674180984497
vt 0.04611673951148987 0.05173212289810181
vt 0.0473509281873703 0.05318617820739746
vt 0.046357858926057816 0.05026102066040039
vt 0.0473509281873703 0.05024564266204834
vt 0.04711006209254265 0.051714181900024414
vt 0.046357858926057816 0.05320674180984497
vt 0.0473509281873703 0.05318617820739746
vt 0.04803731292486191 0.054438889026641846
vt 0.04711006209254265 0.051714181900024414
vt 0.0473509281873703 0.05024564266204834
vt 0.04803731292486191 0.049002885818481445
vt 0.04611673951148987 0.05173212289810181
vt 0.04711006209254265 0.051714181900024414
vt 0.0473509281873703 0.05318617820739746
vt 0.0473509281873703 0.05318617820739746
vn -0.19509264826774597 -0.9807848334312439 -0
vn -0.19509264826774597 -0.9807848334312439 -0
vn -0.19509264826774597 -0.9807848334312439 -0
vn 0.19509360194206238 -0.9807846546173096 -0
vn 0.19509360194206238 -0.9807846546173096 -0
vn 0.19509360194206238 -0.9807846546173096 -0
vn -0.5555652976036072 -0.8314728140830994 -0
vn -0.5555652976036072 -0.8314728140830994 -0
vn -0.5555652976036072 -0.8314728140830994 -0
vn -0.1950927972793579 -0.9807848334312439 -0
vn -0.1950927972793579 -0.9807848334312439 -0
vn -0.1950927972793579 -0.9807848334312439 -0
vn -0.5555650591850281 -0.8314730525016785 -0
vn -0.5555650591850281 -0.8314730525016785 -0
vn -0.5555650591850281 -0.8314730525016785 -0
vn 0.5555652976036072 -0.8314728140830994 -0
vn 0.5555652976036072 -0.8314728140830994 -0
vn 0.5555652976036072 -0.8314728140830994 -0
vn 0.19509349763393402 -0.9807846546173096 -0
vn 0.19509349763393402 -0.9807846546173096 -0
vn 0.19509349763393402 -0.9807846546173096 -0
vn -0.8314707279205322 -0.5555683970451355 -0
vn -0.8314707279205322 -0.5555683970451355 -0
vn -0.8314707279205322 -0.5555683970451355 -0
vn -0.8314707279205322 -0.5555685758590698 -0
vn -0.8314707279205322 -0.5555685758590698 -0
vn -0.8314707279205322 -0.5555685758590698 -0
vn 0.5555649399757385 -0.8314731121063232 -0
vn 0.5555649399757385 -0.8314731121063232 -0
vn 0.5555649399757385 -0.8314731121063232 -0
vn 0.8314691781997681 -0.5555710196495056 -0
vn 0.8314691781997681 -0.5555710196495056 -0
vn 0.8314691781997681 -0.5555710196495056 -0
vn 0.00000017697060172849888 -0 -1
vn 0.00000017697060172849888 -0 -1
vn 0.00000017697060172849888 -0 -1
vn 0 -0 -1
vn 0 -0 -1
vn 0 -0 -1
vn -0.9807849526405334 -0.1950918734073639 -0
vn -0.9807849526405334 -0.1950918734073639 -0
vn -0.9807849526405334 -0.1950918734073639 -0
vn -0.00000017697060172849888 -0 -1
vn -0.00000017697060172849888 -0 -1
vn -0.00000017697060172849888 -0 -1
vn -0.9807849526405334 -0.19509175419807434 -0
vn -0.9807849526405334 -0.19509175419807434 -0
vn -0.9807849526405334 -0.19509175419807434 -0
vn 0 -0 -1
vn 0.8314686417579651 -0.5555717945098877 -0
vn 0.8314686417579651 -0.5555717945098877 -0
vn 0.8314686417579651 -0.5555717945098877 -0
vn 0.00000032699571761440893 -0 -1
vn 0.00000032699571761440893 -0 -1
vn 0.00000032699571761440893 -0 -1
vn 0.9807857275009155 -0.19508817791938782 -0
vn 0.9807857275009155 -0.19508817791938782 -0
vn 0.9807857275009155 -0.19508817791938782 -0
vn 0 -0 -1
vn 0 -0 -1
vn 0 -0 -1
vn -0.9807846546173096 0.1950935274362564 -0
vn -0.9807846546173096 0.1950935274362564 -0
vn -0.9807846546173096 0.1950935274362564 -0
vn -0.9807846546173096 0.19509372115135193 -0
vn -0.9807846546173096 0.19509372115135193 -0
vn -0.9807846546173096 0.19509372115135193 -0
vn 0.9807859659194946 -0.1950870156288147 -0
vn 0.9807859659194946 -0.1950870156288147 -0
vn 0.9807859659194946 -0.1950870156288147 -0
vn 0 -0 -1
vn 0 -0 -1
vn 0.980785608291626 0.19508878886699677 -0
vn 0.980785608291626 0.19508878886699677 -0
vn 0.980785608291626 0.19508878886699677 -0
vn 0 -0 -0.9999999403953552
vn 0 -0 -0.9999999403953552
vn 0 -0 -0.9999999403953552
vn -0.8314707279205322 0.5555686950683594 -0
vn -0.8314707279205322 0.5555686950683594 -0
vn -0.8314707279205322 0.5555686950683594 -0
vn -0.8314709067344666 0.5555683970451355 -0
vn -0.8314709067344666 0.5555683970451355 -0
vn -0.8314709067344666 0.5555683970451355 -0
vn 0.9807853698730469 0.19509001076221466 -0
vn 0.9807853698730469 0.19509001076221466 -0
vn 0.9807853698730469 0.19509001076221466 -0
vn -0.00000008848480348433441 -0 -1
vn -0.00000008848480348433441 -0 -1
vn -0.00000008848480348433441 -0 -1
vn 0.8314685225486755 0.5555718541145325 -0
vn 0.8314685225486755 0.5555718541145325 -0
vn 0.8314685225486755 0.5555718541145325 -0
vn -0.5555716156959534 0.8314687013626099 -0
vn -0.5555716156959534 0.8314687013626099 -0
vn -0.5555716156959534 0.8314687013626099 -0
vn 0 -0 -1
vn 0 -0 -1
vn -0.5555717349052429 0.8314686417579651 -0
vn -0.5555717349052429 0.8314686417579651 -0
vn -0.5555717349052429 0.8314686417579651 -0
vn 0.8314691781997681 0.5555709004402161 -0
vn 0.8314691781997681 0.5555709004402161 -0
vn 0.8314691781997681 0.5555709004402161 -0
vn 0.5555714964866638 0.8314688205718994 -0
vn 0.5555714964866638 0.8314688205718994 -0
vn 0.5555714964866638 0.8314688205718994 -0
vn -0.00000008174892940360223 -0 -1
vn -0.00000008174892940360223 -0 -1
vn -0.00000008174892940360223 -0 -1
vn 0.00000013097728412958531 -0 -1
vn 0.00000013097728412958531 -0 -1
vn 0.00000013097728412958531 -0 -1
vn -0.19508379697799683 0.9807866215705872 -0
vn -0.19508379697799683 0.9807866215705872 -0
vn -0.19508379697799683 0.9807866215705872 -0
vn 0.19508449733257294 0.9807864427566528 -0
vn 0.19508449733257294 0.9807864427566528 -0
vn 0.19508449733257294 0.9807864427566528 -0
vn -0.19508370757102966 0.9807866215705872 -0
vn -0.19508370757102966 0.9807866215705872 -0
vn -0.19508370757102966 0.9807866215705872 -0
vn 0.5555717349052429 0.8314686417579651 -0
vn 0.5555717349052429 0.8314686417579651 -0
vn 0.5555717349052429 0.8314686417579651 -0
vn 0.00000011639947672392736 -0 -1
vn 0.00000011639947672392736 -0 -1
vn 0.00000011639947672392736 -0 -1
vn 0.19508464634418488 0.9807863831520081 -0
vn 0.19508464634418488 0.9807863831520081 -0
vn 0.19508464634418488 0.9807863831520081 -0
vn 0 -0 -1
f 3/3/3 2/2/2 1/1/1
f 6/6/6 5/5/5 4/4/4
f 9/9/9 8/8/8 7/7/7
f 12/12/12 11/11/11 10/10/10
f 15/15/15 14/14/14 13/13/13
f 18/18/18 17/17/17 16/16/16
f 21/21/21 20/20/20 19/19/19
f 24/24/24 23/23/23 22/22/22
f 27/27/27 26/26/26 25/25/25
f 30/30/30 29/29/29 28/28/28
f 33/33/33 32/32/32 31/31/31
f 36/36/36 35/35/35 34/34/34
f 39/39/39 38/38/38 37/37/37
f 42/42/42 41/41/41 40/40/40
f 45/45/45 44/44/44 43/43/43
f 48/48/48 47/47/47 46/46/46
f 38/38/38 49/49/49 37/37/37
f 52/52/52 51/51/51 50/50/50
f 55/55/55 54/54/54 53/53/53
f 58/58/58 57/57/57 56/56/56
f 61/61/61 60/60/60 59/59/59
f 64/64/64 63/63/63 62/62/62
f 67/67/67 66/66/66 65/65/65
f 70/70/70 69/69/69 68/68/68
f 72/72/72 37/37/37 71/71/71
f 75/75/75 74/74/74 73/73/73
f 78/78/78 77/77/77 76/76/76
f 81/81/81 80/80/80 79/79/79
f 84/84/84 83/83/83 82/82/82
f 87/87/87 86/86/86 85/85/85
f 90/90/90 89/89/89 88/88/88
f 93/93/93 92/92/92 91/91/91
f 96/96/96 95/95/95 94/94/94
f 98/98/98 97/97/97 61/61/61
f 101/101/101 100/100/100 99/99/99
f 104/104/104 103/103/103 102/102/102
f 107/107/107 106/106/106 105/105/105
f 110/110/110 109/109/109 108/108/108
f 113/113/113 112/112/112 111/111/111
f 116/116/116 115/115/115 114/114/114
f 119/119/119 118/118/118 117/117/117
f 122/122/122 121/121/121 120/120/120
f 125/125/125 124/124/124 123/123/123
f 128/128/128 127/127/127 126/126/126
f 131/131/131 130/130/130 129/129/129
f 71/71/71 132/132/132 98/98/98
