# VPXTOOL table OBJ file
# VPXTOOL OBJ file
# numVerts: 103 numFaces: 138
o LM_L_LW9_UnderPF
v -2.8842685222625732 211.18287658691406 -32.29457092285156
v -13.502232551574707 213.2948455810547 -32.29457092285156
v -2.8842685222625732 211.18287658691406 -25.465497970581055
v -13.502232551574707 213.2948455810547 -32.29457092285156
v -24.120223999023438 211.18287658691406 -32.29457092285156
v -13.502232551574707 213.2948455810547 -25.465497970581055
v -13.502232551574707 213.2948455810547 -32.29457092285156
v -13.502232551574707 213.2948455810547 -25.465497970581055
v -2.8842685222625732 211.18287658691406 -25.465497970581055
v 6.117219924926758 205.16818237304688 -32.29457092285156
v -2.8842685222625732 211.18287658691406 -32.29457092285156
v 6.117219924926758 205.16818237304688 -25.465497970581055
v -2.8842685222625732 211.18287658691406 -25.465497970581055
v -24.120223999023438 211.18287658691406 -32.29457092285156
v -24.120223999023438 211.18287658691406 -25.465497970581055
v -13.502232551574707 213.2948455810547 -25.465497970581055
v 6.117219924926758 205.16818237304688 -25.465497970581055
v -2.8842685222625732 211.18287658691406 -25.465497970581055
v -13.502232551574707 213.2948455810547 -25.465497970581055
v -24.120223999023438 211.18287658691406 -32.29457092285156
v -33.12168502807617 205.16818237304688 -32.29457092285156
v -24.120223999023438 211.18287658691406 -25.465497970581055
v 6.117219924926758 205.16818237304688 -32.29457092285156
v 6.117219924926758 205.16818237304688 -25.465497970581055
v 12.131794929504395 196.1667022705078 -25.465497970581055
v 12.131794929504395 196.1667022705078 -32.29457092285156
v 6.117219924926758 205.16818237304688 -32.29457092285156
v 12.131794929504395 196.1667022705078 -25.465497970581055
v -24.120223999023438 211.18287658691406 -25.465497970581055
v -33.12168502807617 205.16818237304688 -25.465497970581055
v -33.12168502807617 205.16818237304688 -32.29457092285156
v -33.12168502807617 205.16818237304688 -25.465497970581055
v -24.120223999023438 211.18287658691406 -25.465497970581055
v -33.12168502807617 205.16818237304688 -32.29457092285156
v -39.136287689208984 196.1667022705078 -32.29457092285156
v -33.12168502807617 205.16818237304688 -25.465497970581055
v 14.243853569030762 185.54873657226563 -25.465497970581055
v 12.131794929504395 196.1667022705078 -25.465497970581055
v 6.117219924926758 205.16818237304688 -25.465497970581055
v 12.131794929504395 196.1667022705078 -32.29457092285156
v 12.131794929504395 196.1667022705078 -25.465497970581055
v 14.243853569030762 185.54873657226563 -25.465497970581055
v 14.243853569030762 185.54873657226563 -32.29457092285156
v -39.136287689208984 196.1667022705078 -25.465497970581055
v -13.502232551574707 157.802734375 -25.465497970581055
v 6.117219924926758 205.16818237304688 -25.465497970581055
v -13.502232551574707 213.2948455810547 -25.465497970581055
v -39.136287689208984 196.1667022705078 -32.29457092285156
v -41.248348236083984 185.54873657226563 -32.29457092285156
v -39.136287689208984 196.1667022705078 -25.465497970581055
v -33.12168502807617 205.16818237304688 -25.465497970581055
v -33.12168502807617 205.16818237304688 -25.465497970581055
v -39.136287689208984 196.1667022705078 -25.465497970581055
v -41.248348236083984 185.54873657226563 -25.465497970581055
v 14.243853569030762 185.54873657226563 -32.29457092285156
v 14.243853569030762 185.54873657226563 -25.465497970581055
v 12.131794929504395 174.93077087402344 -25.465497970581055
v 12.131794929504395 174.93077087402344 -32.29457092285156
v -41.248348236083984 185.54873657226563 -25.465497970581055
v 14.243853569030762 185.54873657226563 -25.465497970581055
v -41.248348236083984 185.54873657226563 -32.29457092285156
v -39.136287689208984 174.93077087402344 -32.29457092285156
v -41.248348236083984 185.54873657226563 -25.465497970581055
v -41.248348236083984 185.54873657226563 -25.465497970581055
v 12.131794929504395 174.93077087402344 -32.29457092285156
v 12.131794929504395 174.93077087402344 -25.465497970581055
v 6.117219924926758 165.9292755126953 -25.465497970581055
v 6.117219924926758 165.9292755126953 -32.29457092285156
v 12.131794929504395 174.93077087402344 -32.29457092285156
v 6.117219924926758 165.9292755126953 -25.465497970581055
v 12.131794929504395 174.93077087402344 -25.465497970581055
v -39.136287689208984 174.93077087402344 -25.465497970581055
v -39.136287689208984 174.93077087402344 -32.29457092285156
v -33.12168502807617 165.9292755126953 -32.29457092285156
v -39.136287689208984 174.93077087402344 -25.465497970581055
v 6.117219924926758 165.9292755126953 -32.29457092285156
v 6.117219924926758 165.9292755126953 -25.465497970581055
v -2.8842685222625732 159.91470336914063 -25.465497970581055
v -2.8842685222625732 159.91470336914063 -32.29457092285156
v -39.136287689208984 174.93077087402344 -25.465497970581055
v 6.117219924926758 165.9292755126953 -25.465497970581055
v -33.12168502807617 165.9292755126953 -25.465497970581055
v -33.12168502807617 165.9292755126953 -32.29457092285156
v -24.120223999023438 159.91470336914063 -32.29457092285156
v -33.12168502807617 165.9292755126953 -25.465497970581055
v -13.502232551574707 157.802734375 -32.29457092285156
v -2.8842685222625732 159.91470336914063 -32.29457092285156
v -13.502232551574707 157.802734375 -25.465497970581055
v -33.12168502807617 165.9292755126953 -25.465497970581055
v -2.8842685222625732 159.91470336914063 -25.465497970581055
v -2.8842685222625732 159.91470336914063 -32.29457092285156
v -2.8842685222625732 159.91470336914063 -25.465497970581055
v -13.502232551574707 157.802734375 -25.465497970581055
v -24.120223999023438 159.91470336914063 -32.29457092285156
v -13.502232551574707 157.802734375 -32.29457092285156
v -24.120223999023438 159.91470336914063 -25.465497970581055
v -24.120223999023438 159.91470336914063 -32.29457092285156
v -24.120223999023438 159.91470336914063 -25.465497970581055
v -33.12168502807617 165.9292755126953 -25.465497970581055
v -13.502232551574707 157.802734375 -32.29457092285156
v -13.502232551574707 157.802734375 -25.465497970581055
v -24.120223999023438 159.91470336914063 -25.465497970581055
v -24.120223999023438 159.91470336914063 -25.465497970581055
vt 0.040953949093818665 0.8058842420578003
vt 0.04247718304395676 0.8072992563247681
vt 0.04349960759282112 0.8058754801750183
vt 0.04247718304395676 0.8072992563247681
vt 0.040953949093818665 0.8087101578712463
vt 0.045020781457424164 0.8072878122329712
vt 0.04247718304395676 0.8072992563247681
vt 0.045020781457424164 0.8072878122329712
vt 0.04349960759282112 0.8058754801750183
vt 0.03662189096212387 0.8046830892562866
vt 0.040953949093818665 0.8058842420578003
vt 0.039173293858766556 0.8046766519546509
vt 0.04349960759282112 0.8058754801750183
vt 0.040953949093818665 0.8087101578712463
vt 0.04349960759282112 0.8086960315704346
vt 0.045020781457424164 0.8072878122329712
vt 0.039173293858766556 0.8046766519546509
vt 0.04349960759282112 0.8058754801750183
vt 0.045020781457424164 0.8072878122329712
vt 0.040953949093818665 0.8087101578712463
vt 0.03662189096212387 0.8098996877670288
vt 0.04349960759282112 0.8086960315704346
vt 0.03662189096212387 0.8046830892562866
vt 0.039173293858766556 0.8046766519546509
vt 0.03271406143903732 0.8038747310638428
vt 0.030154094099998474 0.8038797378540039
vt 0.03662189096212387 0.8046830892562866
vt 0.03271406143903732 0.8038747310638428
vt 0.04349960759282112 0.8086960315704346
vt 0.039173293858766556 0.8098832964897156
vt 0.03662189096212387 0.8098996877670288
vt 0.039173293858766556 0.8098832964897156
vt 0.04349960759282112 0.8086960315704346
vt 0.03662189096212387 0.8098996877670288
vt 0.030154094099998474 0.8106856346130371
vt 0.039173293858766556 0.8098832964897156
vt 0.02511870302259922 0.8035909533500671
vt 0.03271406143903732 0.8038747310638428
vt 0.039173293858766556 0.8046766519546509
vt 0.030154094099998474 0.8038797378540039
vt 0.03271406143903732 0.8038747310638428
vt 0.02511870302259922 0.8035909533500671
vt 0.022548764944076538 0.8035953640937805
vt 0.03271406143903732 0.8106678128242493
vt 0.005392157472670078 0.8072345852851868
vt 0.039173293858766556 0.8046766519546509
vt 0.045020781457424164 0.8072878122329712
vt 0.030154094099998474 0.8106856346130371
vt 0.022548764944076538 0.8109495043754578
vt 0.03271406143903732 0.8106678128242493
vt 0.039173293858766556 0.8098832964897156
vt 0.039173293858766556 0.8098832964897156
vt 0.03271406143903732 0.8106678128242493
vt 0.02511870302259922 0.8109312057495117
vt 0.022548764944076538 0.8035953640937805
vt 0.02511870302259922 0.8035909533500671
vt 0.01754908636212349 0.803865909576416
vt 0.0149691766127944 0.8038707971572876
vt 0.02511870302259922 0.8109312057495117
vt 0.02511870302259922 0.8035909533500671
vt 0.022548764944076538 0.8109495043754578
vt 0.0149691766127944 0.8106536865234375
vt 0.02511870302259922 0.8109312057495117
vt 0.02511870302259922 0.8109312057495117
vt 0.0149691766127944 0.8038707971572876
vt 0.01754908636212349 0.803865909576416
vt 0.011151907034218311 0.8046552538871765
vt 0.00856359675526619 0.8046616911888123
vt 0.0149691766127944 0.8038707971572876
vt 0.011151907034218311 0.8046552538871765
vt 0.01754908636212349 0.803865909576416
vt 0.01754908636212349 0.8106359243392944
vt 0.0149691766127944 0.8106536865234375
vt 0.00856359675526619 0.8098455667495728
vt 0.01754908636212349 0.8106359243392944
vt 0.00856359675526619 0.8046616911888123
vt 0.011151907034218311 0.8046552538871765
vt 0.006887643598020077 0.8058378100395203
vt 0.004293805453926325 0.8058464527130127
vt 0.01754908636212349 0.8106359243392944
vt 0.011151907034218311 0.8046552538871765
vt 0.011151907034218311 0.8098294138908386
vt 0.00856359675526619 0.8098455667495728
vt 0.004293805453926325 0.8086493015289307
vt 0.011151907034218311 0.8098294138908386
vt 0.002796368207782507 0.8072458505630493
vt 0.004293805453926325 0.8058464527130127
vt 0.005392157472670078 0.8072345852851868
vt 0.011151907034218311 0.8098294138908386
vt 0.006887643598020077 0.8058378100395203
vt 0.004293805453926325 0.8058464527130127
vt 0.006887643598020077 0.8058378100395203
vt 0.005392157472670078 0.8072345852851868
vt 0.004293805453926325 0.8086493015289307
vt 0.002796368207782507 0.8072458505630493
vt 0.006887643598020077 0.8086353540420532
vt 0.004293805453926325 0.8086493015289307
vt 0.006887643598020077 0.8086353540420532
vt 0.011151907034218311 0.8098294138908386
vt 0.002796368207782507 0.8072458505630493
vt 0.005392157472670078 0.8072345852851868
vt 0.006887643598020077 0.8086353540420532
vt 0.006887643598020077 0.8086353540420532
vn -0.1950840950012207 -0.9807865023612976 -0
vn -0.1950840950012207 -0.9807865023612976 -0
vn -0.1950840950012207 -0.9807865023612976 -0
vn 0.1950836181640625 -0.9807866215705872 -0
vn 0.1950836181640625 -0.9807866215705872 -0
vn 0.1950836181640625 -0.9807866215705872 -0
vn -0.19508430361747742 -0.9807865023612976 -0
vn -0.19508430361747742 -0.9807865023612976 -0
vn -0.19508430361747742 -0.9807865023612976 -0
vn -0.5555755496025085 -0.8314661383628845 -0
vn -0.5555755496025085 -0.8314661383628845 -0
vn -0.5555755496025085 -0.8314661383628845 -0
vn -0.5555755496025085 -0.8314661383628845 -0
vn 0.1950838267803192 -0.9807866215705872 -0
vn 0.1950838267803192 -0.9807866215705872 -0
vn 0.1950838267803192 -0.9807866215705872 -0
vn 0 -0 -0.9999999403953552
vn 0 -0 -0.9999999403953552
vn 0 -0 -0.9999999403953552
vn 0.5555766224861145 -0.8314653635025024 -0
vn 0.5555766224861145 -0.8314653635025024 -0
vn 0.5555766224861145 -0.8314653635025024 -0
vn -0.8314708471298218 -0.5555684566497803 -0
vn -0.8314708471298218 -0.5555684566497803 -0
vn -0.8314708471298218 -0.5555684566497803 -0
vn -0.8314708471298218 -0.555568516254425 -0
vn -0.8314708471298218 -0.555568516254425 -0
vn -0.8314708471298218 -0.555568516254425 -0
vn 0 -0 -0.9999999403953552
vn 0 -0 -0.9999999403953552
vn 0.5555769205093384 -0.8314651846885681 -0
vn 0.5555769205093384 -0.8314651846885681 -0
vn 0.5555769205093384 -0.8314651846885681 -0
vn 0.8314695954322815 -0.5555703639984131 -0
vn 0.8314695954322815 -0.5555703639984131 -0
vn 0.8314695954322815 -0.5555703639984131 -0
vn 0.000001113692405851907 -0 -1
vn 0.000001113692405851907 -0 -1
vn 0.000001113692405851907 -0 -1
vn -0.9807850122451782 -0.19509157538414001 -0
vn -0.9807850122451782 -0.19509157538414001 -0
vn -0.9807850122451782 -0.19509157538414001 -0
vn -0.9807850122451782 -0.19509157538414001 -0
vn 0.8314695954322815 -0.5555703639984131 -0
vn 0 -0 -1
vn 0 -0 -1
vn 0 -0 -1
vn 0.980785071849823 -0.19509142637252808 -0
vn 0.980785071849823 -0.19509142637252808 -0
vn 0.980785071849823 -0.19509142637252808 -0
vn 0 -0 -1
vn -0.0000011136800139865954 -0 -1
vn -0.0000011136800139865954 -0 -1
vn -0.0000011136800139865954 -0 -1
vn -0.9807850122451782 0.19509157538414001 -0
vn -0.9807850122451782 0.19509157538414001 -0
vn -0.9807850122451782 0.19509157538414001 -0
vn -0.9807850122451782 0.19509157538414001 -0
vn 0.980785071849823 -0.19509142637252808 -0
vn 0 -0 -1
vn 0.980785071849823 0.19509142637252808 -0
vn 0.980785071849823 0.19509142637252808 -0
vn 0.980785071849823 0.19509142637252808 -0
vn 0 -0 -1
vn -0.8314708471298218 0.555568516254425 -0
vn -0.8314708471298218 0.555568516254425 -0
vn -0.8314708471298218 0.555568516254425 -0
vn -0.8314708471298218 0.5555684566497803 -0
vn -0.8314708471298218 0.5555684566497803 -0
vn -0.8314708471298218 0.5555684566497803 -0
vn 0 -0 -1
vn 0.980785071849823 0.19509142637252808 -0
vn 0.8314695954322815 0.5555703639984131 -0
vn 0.8314695954322815 0.5555703639984131 -0
vn 0.8314695954322815 0.5555703639984131 -0
vn -0.555568516254425 0.8314708471298218 -0
vn -0.555568516254425 0.8314708471298218 -0
vn -0.555568516254425 0.8314708471298218 -0
vn -0.555568516254425 0.8314708471298218 -0
vn 0 -0 -1
vn 0 -0 -1
vn 0.8314695954322815 0.5555703639984131 -0
vn 0.5555698871612549 0.8314698338508606 -0
vn 0.5555698871612549 0.8314698338508606 -0
vn 0.5555698871612549 0.8314698338508606 -0
vn -0.19508415460586548 0.9807865619659424 -0
vn -0.19508415460586548 0.9807865619659424 -0
vn -0.19508415460586548 0.9807865619659424 -0
vn 0 -0 -1
vn 0 -0 -1
vn -0.19508427381515503 0.9807865023612976 -0
vn -0.19508427381515503 0.9807865023612976 -0
vn -0.19508427381515503 0.9807865023612976 -0
vn 0.1950836479663849 0.9807866215705872 -0
vn 0.1950836479663849 0.9807866215705872 -0
vn 0.1950836479663849 0.9807866215705872 -0
vn 0.555569589138031 0.8314700722694397 -0
vn 0.555569589138031 0.8314700722694397 -0
vn 0.555569589138031 0.8314700722694397 -0
vn 0.19508379697799683 0.9807866215705872 -0
vn 0.19508379697799683 0.9807866215705872 -0
vn 0.19508379697799683 0.9807866215705872 -0
vn 0 -0 -1
f 3/3/3 2/2/2 1/1/1
f 6/6/6 5/5/5 4/4/4
f 9/9/9 8/8/8 7/7/7
f 12/12/12 11/11/11 10/10/10
f 12/12/12 13/13/13 11/11/11
f 16/16/16 15/15/15 14/14/14
f 19/19/19 18/18/18 17/17/17
f 22/22/22 21/21/21 20/20/20
f 25/25/25 24/24/24 23/23/23
f 28/28/28 27/27/27 26/26/26
f 30/30/30 29/29/29 19/19/19
f 33/33/33 32/32/32 31/31/31
f 36/36/36 35/35/35 34/34/34
f 39/39/39 38/38/38 37/37/37
f 42/42/42 41/41/41 40/40/40
f 42/42/42 40/40/40 43/43/43
f 36/36/36 44/44/44 35/35/35
f 47/47/47 46/46/46 45/45/45
f 50/50/50 49/49/49 48/48/48
f 51/51/51 47/47/47 45/45/45
f 54/54/54 53/53/53 52/52/52
f 57/57/57 56/56/56 55/55/55
f 57/57/57 55/55/55 58/58/58
f 50/50/50 59/59/59 49/49/49
f 46/46/46 60/60/60 45/45/45
f 63/63/63 62/62/62 61/61/61
f 64/64/64 51/51/51 45/45/45
f 67/67/67 66/66/66 65/65/65
f 70/70/70 69/69/69 68/68/68
f 60/60/60 71/71/71 45/45/45
f 63/63/63 72/72/72 62/62/62
f 75/75/75 74/74/74 73/73/73
f 78/78/78 77/77/77 76/76/76
f 78/78/78 76/76/76 79/79/79
f 80/80/80 64/64/64 45/45/45
f 71/71/71 81/81/81 45/45/45
f 75/75/75 82/82/82 74/74/74
f 85/85/85 84/84/84 83/83/83
f 88/88/88 87/87/87 86/86/86
f 89/89/89 80/80/80 45/45/45
f 81/81/81 90/90/90 45/45/45
f 93/93/93 92/92/92 91/91/91
f 96/96/96 95/95/95 94/94/94
f 99/99/99 98/98/98 97/97/97
f 102/102/102 101/101/101 100/100/100
f 45/45/45 103/103/103 89/89/89
