# VPXTOOL table OBJ file
# VPXTOOL OBJ file
# numVerts: 83 numFaces: 168
o LM_L_LS4_Playfield
v 10.125280380249023 -603.9579467773438 -0
v -57.73274230957031 -700.3851318359375 -0
v -55.473785400390625 -699.6322021484375 -0
v -34.282859802246094 -699.6322021484375 -0
v -32.56174850463867 -699.9548950195313 -0
v -30.840641021728516 -701.4609375 -0
v 58.71071243286133 -641.7041015625 -0
v 58.71071243286133 -641.7041015625 -0
v 58.71071243286133 -639.612548828125 -0
v 10.125280380249023 -603.9579467773438 -0
v 58.71071243286133 -639.612548828125 -0
v 59.308250427246094 -637.9691162109375 -0
v 60.57814025878906 -636.92333984375 -0
v 81.34468841552734 -631.5448608398438 -0
v 83.73511505126953 -631.32080078125 -0
v -159.4340057373047 -481.76055908203125 -0
v 130.677734375 -544.69677734375 -0
v 129.8709259033203 -544.3831176757813 -0
v 129.4656524658203 -543.7645874023438 -0
v 126.67745971679688 -534.3932495117188 -0
v 126.75492095947266 -533.3090209960938 -0
v -158.27227783203125 -480.08258056640625 -0
v -157.88511657714844 -478.6626892089844 -0
v -158.0142059326172 -434.0003967285156 -0
v 42.68515396118164 -448.3301696777344 -0
v 243.22962951660156 -464.82861328125 -0
v -158.0142059326172 -434.0003967285156 -0
v -158.0142059326172 -434.0003967285156 23.52941131591797
v -157.88511657714844 -478.6626892089844 -0
v -158.7886505126953 -431.418701171875 23.52941131591797
v -158.0142059326172 -434.0003967285156 23.52941131591797
v -158.0142059326172 -434.0003967285156 -0
v -160.59584045410156 -430.12786865234375 23.52941131591797
v -158.7886505126953 -431.418701171875 23.52941131591797
v -158.7886505126953 -431.418701171875 -0
v -158.7886505126953 -431.418701171875 -0
v -158.7886505126953 -431.418701171875 23.52941131591797
v -158.0142059326172 -434.0003967285156 -0
v -160.59584045410156 -430.12786865234375 -0
v 243.3845672607422 -462.6600341796875 -0
v 243.22962951660156 -464.82861328125 23.52941131591797
v 243.3845672607422 -462.6600341796875 23.52941131591797
v 243.3845672607422 -462.6600341796875 -0
v 243.22962951660156 -464.82861328125 -0
v 243.22962951660156 -464.82861328125 23.52941131591797
v 243.3845672607422 -462.6600341796875 -0
v 243.3845672607422 -462.6600341796875 -0
v 243.3845672607422 -462.6600341796875 23.52941131591797
v 244.93356323242188 -460.49139404296875 -0
v -158.7886505126953 -431.418701171875 -0
v -54.83298873901367 -295.2872009277344 -0
v 145.86639404296875 -309.61700439453125 -0
v 146.3639373779297 -309.616943359375 -0
v 244.93356323242188 -460.49139404296875 -0
v -160.59584045410156 -430.12786865234375 -0
v -123.38838195800781 -208.4532012939453 -0
v -55.220211029052734 -293.996337890625 -0
v -121.53163146972656 -207.95550537109375 -0
v -122.39331817626953 -208.45309448242188 -0
v -158.7886505126953 -431.418701171875 -0
v -121.53163146972656 -207.95550537109375 -0
v -122.39331817626953 -208.45309448242188 -0
v -54.83298873901367 -295.2872009277344 -0
v 48.348228454589844 -156.573974609375 -0
v -55.220211029052734 -293.996337890625 -0
v 48.348228454589844 -156.573974609375 -0
v -121.03414916992188 -207.09364318847656 23.52941131591797
v -121.53163146972656 -207.95550537109375 23.52941131591797
v -121.53163146972656 -207.95550537109375 -0
v 49.34331512451172 -156.57386779785156 -0
v -121.53163146972656 -207.95550537109375 -0
v -121.53163146972656 -207.95550537109375 23.52941131591797
v -122.39331817626953 -208.45309448242188 -0
v -121.03414916992188 -207.09364318847656 -0
v -121.03414916992188 -207.09364318847656 -0
v 47.48643112182617 -156.0765380859375 -0
v 49.34331512451172 -156.57386779785156 23.52941131591797
v 48.348228454589844 -156.573974609375 23.52941131591797
v 48.348228454589844 -156.573974609375 -0
v 49.34331512451172 -156.57386779785156 -0
v 48.348228454589844 -156.573974609375 -0
v 48.348228454589844 -156.573974609375 23.52941131591797
v 47.48643112182617 -156.0765380859375 -0
vt 0.15632493793964386 0.16375917196273804
vt 0.13232192397117615 0.14551383256912231
vt 0.1331171989440918 0.1456543207168579
vt 0.1405974179506302 0.1456543207168579
vt 0.14120547473430634 0.14559412002563477
vt 0.14181524515151978 0.14531302452087402
vt 0.17359548807144165 0.1565576195716858
vt 0.17359548807144165 0.1565576195716858
vt 0.17360177636146545 0.15695464611053467
vt 0.15632493793964386 0.16375917196273804
vt 0.17360177636146545 0.15695464611053467
vt 0.17381945252418518 0.1572667956352234
vt 0.17427487671375275 0.15746545791625977
vt 0.18169282376766205 0.15848833322525024
vt 0.1825457364320755 0.15853095054626465
vt 0.09464804083108902 0.18761396408081055
vt 0.19985973834991455 0.17522317171096802
vt 0.1995707005262375 0.17528432607650757
vt 0.19942863285541534 0.1754050850868225
vt 0.19848434627056122 0.17723631858825684
vt 0.1985195428133011 0.17744851112365723
vt 0.09505711495876312 0.18794745206832886
vt 0.09518633037805557 0.1882297396659851
vt 0.09476516395807266 0.19716906547546387
vt 0.168326735496521 0.1942881941795349
vt 0.24149690568447113 0.1909862756729126
vt 0.09476516395807266 0.19716906547546387
vt 0.09510675072669983 0.2006666660308838
vt 0.09518633037805557 0.1882297396659851
vt 0.09480283409357071 0.2011852264404297
vt 0.09510675072669983 0.2006666660308838
vt 0.09476516395807266 0.19716906547546387
vt 0.09413287788629532 0.2014445662498474
vt 0.09480283409357071 0.2011852264404297
vt 0.09445928782224655 0.19768935441970825
vt 0.09445928782224655 0.19768935441970825
vt 0.09480283409357071 0.2011852264404297
vt 0.09476516395807266 0.19716906547546387
vt 0.09378529340028763 0.1979495882987976
vt 0.24158158898353577 0.19141936302185059
vt 0.2409723699092865 0.1945047378540039
vt 0.24105635285377502 0.19493639469146729
vt 0.24158158898353577 0.19141936302185059
vt 0.24149690568447113 0.1909862756729126
vt 0.2409723699092865 0.1945047378540039
vt 0.24158158898353577 0.19141936302185059
vt 0.24158158898353577 0.19141936302185059
vt 0.24105635285377502 0.19493639469146729
vt 0.24217550456523895 0.19185274839401245
vt 0.09445928782224655 0.19768935441970825
vt 0.13218969106674194 0.22569209337234497
vt 0.20718985795974731 0.22269099950790405
vt 0.2073756605386734 0.22269099950790405
vt 0.24217550456523895 0.19185274839401245
vt 0.09378529340028763 0.1979495882987976
vt 0.10592826455831528 0.24415582418441772
vt 0.1320408433675766 0.2259630560874939
vt 0.10662886500358582 0.24426311254501343
vt 0.1063055694103241 0.2441558837890625
vt 0.09445928782224655 0.19768935441970825
vt 0.10662886500358582 0.24426311254501343
vt 0.1063055694103241 0.2441558837890625
vt 0.13218969106674194 0.22569209337234497
vt 0.17119519412517548 0.25542008876800537
vt 0.1320408433675766 0.2259630560874939
vt 0.17119519412517548 0.25542008876800537
vt 0.10709108412265778 0.24777621030807495
vt 0.10690946131944656 0.24759119749069214
vt 0.10662886500358582 0.24426311254501343
vt 0.17157548666000366 0.25542008876800537
vt 0.10662886500358582 0.24426311254501343
vt 0.10690946131944656 0.24759119749069214
vt 0.1063055694103241 0.2441558837890625
vt 0.10681159049272537 0.24444878101348877
vt 0.10681159049272537 0.24444878101348877
vt 0.17086723446846008 0.25552898645401
vt 0.1714577078819275 0.2587053179740906
vt 0.17107973992824554 0.2587053179740906
vt 0.17119519412517548 0.25542008876800537
vt 0.17157548666000366 0.25542008876800537
vt 0.17119519412517548 0.25542008876800537
vt 0.17107973992824554 0.2587053179740906
vt 0.17086723446846008 0.25552898645401
vn 0 -0 -1
vn 0 -0 -1
vn 0 -0 -1
vn 0 -0 -1
vn 0 -0 -1
vn 0 -0 -1
vn 0 -0 -1
vn 0 -0 -0.9999999403953552
vn 0 -0 -0.9999999403953552
vn 0 -0 -0.9999999403953552
vn 0 -0 -1
vn 0 -0 -1
vn 0 -0 -1
vn 0 -0 -1
vn 0 -0 -1
vn 0 -0 -1
vn 0 -0 -1
vn 0 -0 -1
vn 0 -0 -1
vn 0 -0 -1
vn 0 -0 -1
vn 0 -0 -1
vn 0 -0 -1
vn 0 -0 -1
vn 0 -0 -1
vn 0 -0 -1
vn -0.9999958276748657 -0.002890672069042921 -0
vn -0.9999958276748657 -0.002890672069042921 -0
vn -0.9999958276748657 -0.002890672069042921 -0
vn -0.9578313231468201 -0.28733107447624207 -0
vn -0.9578313231468201 -0.28733107447624207 -0
vn -0.9578313231468201 -0.28733107447624207 -0
vn -0.5812279582023621 -0.8137407302856445 -0
vn -0.5812279582023621 -0.8137407302856445 -0
vn -0.5812279582023621 -0.8137407302856445 -0
vn -0.957834780216217 -0.28731951117515564 -0
vn -0.957834780216217 -0.28731951117515564 -0
vn -0.957834780216217 -0.28731951117515564 -0
vn -0.5812279582023621 -0.8137407302856445 -0
vn 0 -0 -1
vn 0.9974581003189087 -0.07125656306743622 -0
vn 0.9974581003189087 -0.07125656306743622 -0
vn 0.9974581003189087 -0.07125656306743622 -0
vn 0.9974569082260132 -0.0712720975279808 -0
vn 0.9974569082260132 -0.0712720975279808 -0
vn 0.9974569082260132 -0.0712720975279808 -0
vn 0.8137337565422058 -0.58123779296875 -0
vn 0.8137337565422058 -0.58123779296875 -0
vn 0.8137337565422058 -0.58123779296875 -0
vn 0 -0 -1
vn 0 -0 -1
vn 0 -0 -1
vn 0 -0 -1
vn 0 -0 -1
vn 0 -0 -1
vn 0 -0 -1
vn 0 -0 -1
vn 0 -0 -1
vn 0 -0 -1
vn 0 -0 -0.9999999403953552
vn 0 -0 -0.9999999403953552
vn 0 -0 -0.9999999403953552
vn 0 -0 -0.9999999403953552
vn 0 -0 -0.9999999403953552
vn 0 -0 -0.9999999403953552
vn 0 -0 -1
vn -0.866072416305542 0.4999186098575592 -0
vn -0.866072416305542 0.4999186098575592 -0
vn -0.866072416305542 0.4999186098575592 -0
vn 0 -0 -1
vn -0.5000722408294678 0.865983784198761 -0
vn -0.5000722408294678 0.865983784198761 -0
vn -0.5000722408294678 0.865983784198761 -0
vn -0.866072416305542 0.4999186098575592 -0
vn 0 -0 -1
vn 0 -0 -1
vn -0.00011097570677520707 0.9999999403953552 -0
vn -0.00011097570677520707 0.9999999403953552 -0
vn -0.00011097570677520707 0.9999999403953552 -0
vn -0.00011097570677520707 0.9999999403953552 -0
vn 0.49990296363830566 0.8660814166069031 -0
vn 0.49990296363830566 0.8660814166069031 -0
vn 0.49990296363830566 0.8660814166069031 -0
f 3/3/3 2/2/2 1/1/1
f 4/4/4 3/3/3 1/1/1
f 6/6/6 5/5/5 1/1/1
f 5/5/5 4/4/4 1/1/1
f 1/1/1 7/7/7 6/6/6
f 10/10/10 9/9/9 8/8/8
f 1/1/1 12/12/12 11/11/11
f 1/1/1 13/13/13 12/12/12
f 1/1/1 14/14/14 13/13/13
f 15/15/15 14/14/14 1/1/1
f 1/1/1 2/2/2 16/16/16
f 15/15/15 1/1/1 17/17/17
f 17/17/17 1/1/1 18/18/18
f 18/18/18 1/1/1 19/19/19
f 20/20/20 19/19/19 1/1/1
f 20/20/20 1/1/1 21/21/21
f 22/22/22 1/1/1 16/16/16
f 23/23/23 1/1/1 22/22/22
f 24/24/24 1/1/1 23/23/23
f 1/1/1 25/25/25 21/21/21
f 1/1/1 24/24/24 25/25/25
f 26/26/26 20/20/20 21/21/21
f 29/29/29 28/28/28 27/27/27
f 32/32/32 31/31/31 30/30/30
f 35/35/35 34/34/34 33/33/33
f 38/38/38 37/37/37 36/36/36
f 35/35/35 33/33/33 39/39/39
f 40/40/40 21/21/21 25/25/25
f 21/21/21 40/40/40 26/26/26
f 43/43/43 42/42/42 41/41/41
f 46/46/46 45/45/45 44/44/44
f 49/49/49 48/48/48 47/47/47
f 51/51/51 24/24/24 50/50/50
f 24/24/24 51/51/51 25/25/25
f 25/25/25 52/52/52 40/40/40
f 54/54/54 40/40/40 53/53/53
f 56/56/56 50/50/50 55/55/55
f 51/51/51 50/50/50 57/57/57
f 25/25/25 51/51/51 52/52/52
f 53/53/53 40/40/40 52/52/52
f 58/58/58 57/57/57 50/50/50
f 56/56/56 59/59/59 50/50/50
f 62/62/62 61/61/61 60/60/60
f 65/65/65 64/64/64 63/63/63
f 51/51/51 66/66/66 52/52/52
f 69/69/69 68/68/68 67/67/67
f 70/70/70 53/53/53 52/52/52
f 73/73/73 72/72/72 71/71/71
f 69/69/69 67/67/67 74/74/74
f 58/58/58 66/66/66 57/57/57
f 75/75/75 66/66/66 58/58/58
f 66/66/66 70/70/70 52/52/52
f 66/66/66 75/75/75 76/76/76
f 79/79/79 78/78/78 77/77/77
f 79/79/79 77/77/77 80/80/80
f 83/83/83 82/82/82 81/81/81
