# VPXTOOL table OBJ file
# VPXTOOL OBJ file
# numVerts: 78 numFaces: 138
o LM_L_LPR4_Playfield
v -240.62152099609375 481.8990478515625 23.52941131591797
v -240.5139923095703 479.102294921875 23.52941131591797
v -240.5139923095703 479.102294921875 -0
v -240.5139923095703 479.102294921875 -0
v -240.5139923095703 479.102294921875 23.52941131591797
v -240.9444122314453 475.76763916015625 -0
v -240.62152099609375 481.8990478515625 -0
v -240.62152099609375 481.8990478515625 23.52941131591797
v -240.5139923095703 479.102294921875 -0
v -240.5139923095703 479.102294921875 -0
v -233.8252410888672 532.7052612304688 -0
v -240.62152099609375 481.8990478515625 -0
v -240.5139923095703 479.102294921875 -0
v -240.9444122314453 475.76763916015625 -0
v -44.73169708251953 505.4091796875 -0
v -233.93276977539063 534.5339965820313 23.52941131591797
v -233.8252410888672 532.7052612304688 23.52941131591797
v -233.8252410888672 532.7052612304688 -0
v -240.62152099609375 481.8990478515625 -0
v -233.8252410888672 532.7052612304688 -0
v -234.578125 530.6616821289063 -0
v -233.8252410888672 532.7052612304688 -0
v -233.8252410888672 532.7052612304688 23.52941131591797
v -234.578125 530.6616821289063 -0
v 69.02648162841797 393.0033874511719 0.0000004313675674438855
v 151.48098754882813 535.0505981445313 -0
v 69.02648162841797 393.2521667480469 0.0000004313675674438855
v -244.15174865722656 563.1470947265625 23.52941131591797
v -233.93276977539063 534.5339965820313 23.52941131591797
v -233.93276977539063 534.5339965820313 -0
v -233.93276977539063 534.5339965820313 -0
v -233.93276977539063 534.5339965820313 23.52941131591797
v -233.8252410888672 532.7052612304688 -0
v -44.51649856567383 507.0764465332031 -0
v -45.21574020385742 504.0645751953125 -0
v -44.73169708251953 505.4091796875 -0
v -240.9444122314453 475.76763916015625 -0
v -244.15174865722656 563.1470947265625 -0
v -244.15174865722656 563.1470947265625 23.52941131591797
v -233.93276977539063 534.5339965820313 -0
v -41.22587585449219 534.7922973632813 -0
v -233.93276977539063 534.5339965820313 -0
v 151.48098754882813 535.0505981445313 -0
v 45.68355178833008 507.9132995605469 -0
v 69.02648162841797 393.2521667480469 0.0000004313675674438855
v -41.172122955322266 533.8779296875 -0
v -41.22587585449219 534.7922973632813 -0
v 151.05087280273438 533.2221069335938 -0
v 151.48098754882813 535.0505981445313 -0
v 69.02648162841797 393.0033874511719 0.0000004313675674438855
v -233.93276977539063 534.5339965820313 -0
v -36.2238883972168 548.8837280273438 -0
v 151.48098754882813 535.0505981445313 -0
v 45.68355178833008 507.9132995605469 -0
v -106.2380599975586 639.1170654296875 -0
v 151.05087280273438 533.2221069335938 23.52941131591797
v 151.48098754882813 535.0505981445313 23.52941131591797
v 151.48098754882813 535.0505981445313 -0
v -244.15174865722656 563.1470947265625 -0
v -176.25222778320313 729.3502807617188 -0
v 151.05087280273438 533.2221069335938 -0
v 151.05087280273438 533.2221069335938 23.52941131591797
v 151.48098754882813 535.0505981445313 -0
v 151.48098754882813 535.0505981445313 -0
v 151.48098754882813 535.0505981445313 23.52941131591797
v 161.48497009277344 563.2334594726563 -0
v 161.48497009277344 563.2334594726563 -0
v 91.47079467773438 653.466796875 -0
v -181.36172485351563 743.6567993164063 -0
v 21.456623077392578 743.7000122070313 -0
v 21.456623077392578 743.7000122070313 -0
v 91.47079467773438 653.466796875 -0
v 92.43888092041016 654.9189453125 -0
v 92.92289733886719 655.6448974609375 -0
v 92.43888092041016 654.9189453125 -0
v 22.42470932006836 745.1521606445313 -0
v -48.55752182006836 833.9331665039063 -0
v -118.57166290283203 924.16650390625 -0
vt 0.8026764988899231 0.35722798109054565
vt 0.8027397990226746 0.35648131370544434
vt 0.8022652864456177 0.35389745235443115
vt 0.8022652864456177 0.35389745235443115
vt 0.8027397990226746 0.35648131370544434
vt 0.8021796941757202 0.3530033230781555
vt 0.8022013306617737 0.35464799404144287
vt 0.8026764988899231 0.35722798109054565
vt 0.8022652864456177 0.35389745235443115
vt 0.8022652864456177 0.35389745235443115
vt 0.8035877346992493 0.3684079647064209
vt 0.8022013306617737 0.35464799404144287
vt 0.8022652864456177 0.35389745235443115
vt 0.8021796941757202 0.3530033230781555
vt 0.8589592576026917 0.3609858751296997
vt 0.8040052056312561 0.37141239643096924
vt 0.8040574193000793 0.3709152936935425
vt 0.8035877346992493 0.3684079647064209
vt 0.8022013306617737 0.35464799404144287
vt 0.8035877346992493 0.3684079647064209
vt 0.8033912777900696 0.3678498864173889
vt 0.8035877346992493 0.3684079647064209
vt 0.8040574193000793 0.3709152936935425
vt 0.8033912777900696 0.3678498864173889
vt 0.8917021155357361 0.3311311602592468
vt 0.9163117408752441 0.3690488934516907
vt 0.8917029500007629 0.33119601011276245
vt 0.8006918430328369 0.3792296051979065
vt 0.8040052056312561 0.37141239643096924
vt 0.8035350441932678 0.3689076900482178
vt 0.8035350441932678 0.3689076900482178
vt 0.8040052056312561 0.37141239643096924
vt 0.8035877346992493 0.3684079647064209
vt 0.8590183258056641 0.36143726110458374
vt 0.8588212728500366 0.3606220483779907
vt 0.8589592576026917 0.3609858751296997
vt 0.8021796941757202 0.3530033230781555
vt 0.8001962900161743 0.3767671585083008
vt 0.8006918430328369 0.3792296051979065
vt 0.8035350441932678 0.3689076900482178
vt 0.8599209189414978 0.3689783215522766
vt 0.8035350441932678 0.3689076900482178
vt 0.9163117408752441 0.3690488934516907
vt 0.8852902054786682 0.3616638779640198
vt 0.8917029500007629 0.33119601011276245
vt 0.8599385023117065 0.3687283396720886
vt 0.8599209189414978 0.3689783215522766
vt 0.9161720871925354 0.3685491681098938
vt 0.9163117408752441 0.3690488934516907
vt 0.8917021155357361 0.3311311602592468
vt 0.8035350441932678 0.3689076900482178
vt 0.8613595366477966 0.37283968925476074
vt 0.9163117408752441 0.3690488934516907
vt 0.8852902054786682 0.3616638779640198
vt 0.8403387665748596 0.39801275730133057
vt 0.915866494178772 0.3710557818412781
vt 0.9160051345825195 0.37155282497406006
vt 0.9163117408752441 0.3690488934516907
vt 0.8001962900161743 0.3767671585083008
vt 0.8186503648757935 0.42398542165756226
vt 0.9161720871925354 0.3685491681098938
vt 0.915866494178772 0.3710557818412781
vt 0.9163117408752441 0.3690488934516907
vt 0.9163117408752441 0.3690488934516907
vt 0.9160051345825195 0.37155282497406006
vt 0.9194678664207458 0.37679100036621094
vt 0.9194678664207458 0.37679100036621094
vt 0.8993054628372192 0.4020887017250061
vt 0.8169659376144409 0.42817938327789307
vt 0.8785009980201721 0.4281920790672302
vt 0.8785009980201721 0.4281920790672302
vt 0.8993054628372192 0.4020887017250061
vt 0.8996015787124634 0.4025023579597473
vt 0.8997496962547302 0.4027091860771179
vt 0.8996015787124634 0.4025023579597473
vt 0.8787964582443237 0.4286189675331116
vt 0.857023298740387 0.4551401138305664
vt 0.8348391056060791 0.4829745888710022
vn -0.9992610812187195 -0.03843410313129425 -0
vn -0.9992610812187195 -0.03843410313129425 -0
vn -0.9992610812187195 -0.03843410313129425 -0
vn -0.9917701482772827 0.1280316263437271 -0
vn -0.9917701482772827 0.1280316263437271 -0
vn -0.9917701482772827 0.1280316263437271 -0
vn -0.9992620944976807 -0.038409870117902756 -0
vn -0.9992620944976807 -0.038409870117902756 -0
vn -0.9992620944976807 -0.038409870117902756 -0
vn 0 -0 -1
vn 0 -0 -1
vn 0 -0 -1
vn 0 -0 -0.9999999403953552
vn 0 -0 -0.9999999403953552
vn 0 -0 -0.9999999403953552
vn -0.9982743859291077 -0.05872107297182083 -0
vn -0.9982743859291077 -0.05872107297182083 -0
vn -0.9982743859291077 -0.05872107297182083 -0
vn 0 -0 -0.9999999403953552
vn 0 -0 -0.9999999403953552
vn 0 -0 -0.9999999403953552
vn -0.938341498374939 0.34570974111557007 -0
vn -0.938341498374939 0.34570974111557007 -0
vn -0.938341498374939 0.34570974111557007 -0
vn -0.0000000052309623299606756 -0 -1
vn -0.0000000052309623299606756 -0 -1
vn -0.0000000052309623299606756 -0 -1
vn -0.9417418837547302 -0.33633628487586975 -0
vn -0.9417418837547302 -0.33633628487586975 -0
vn -0.9417418837547302 -0.33633628487586975 -0
vn -0.9982765316963196 -0.05868411436676979 -0
vn -0.9982765316963196 -0.05868411436676979 -0
vn -0.9982765316963196 -0.05868411436676979 -0
vn 0 -0 -1
vn 0 -0 -1
vn 0 -0 -1
vn 0 -0 -1
vn -0.9417415857315063 -0.33633729815483093 -0
vn -0.9417415857315063 -0.33633729815483093 -0
vn -0.9417415857315063 -0.33633729815483093 -0
vn 0 -0 -0.9999999403953552
vn 0 -0 -0.9999999403953552
vn 0.0000000009171001180696692 -0.00000000357540352879937 -1
vn 0.0000000009171001180696692 -0.00000000357540352879937 -1
vn 0.0000000009171001180696692 -0.00000000357540352879937 -1
vn 0 -0 -1
vn 0 -0 -1
vn -0.000000008796479988859573 0.0000000020692287883150584 -1
vn -0.000000008796479988859573 0.0000000020692287883150584 -1
vn -0.000000008796479988859573 0.0000000020692287883150584 -1
vn 0 -0 -1
vn 0 -0 -1
vn 0 -0 -1
vn 0 -0 -1
vn 0 -0 -1
vn 0.9734320044517517 -0.22897638380527496 -0
vn 0.9734320044517517 -0.22897638380527496 -0
vn 0.9734320044517517 -0.22897638380527496 -0
vn 0 -0 -1
vn 0 -0 -1
vn 0.9734280109405518 -0.2289935201406479 -0
vn 0.9734280109405518 -0.2289935201406479 -0
vn 0.9734280109405518 -0.2289935201406479 -0
vn 0.9423896670341492 -0.33451738953590393 -0
vn 0.9423896670341492 -0.33451738953590393 -0
vn 0.9423896670341492 -0.33451738953590393 -0
vn 0 -0 -1
vn 0 -0 -1
vn 0 -0 -1
vn 0 -0 -1
vn 0 -0 -0.9999999403953552
vn 0 -0 -0.9999999403953552
vn 0 -0 -0.9999999403953552
vn 0 -0 -1
vn 0 -0 -1
vn 0 -0 -1
vn 0 -0 -1
vn 0 -0 -1
f 3/3/3 2/2/2 1/1/1
f 6/6/6 5/5/5 4/4/4
f 9/9/9 8/8/8 7/7/7
f 12/12/12 11/11/11 10/10/10
f 15/15/15 14/14/14 13/13/13
f 18/18/18 17/17/17 16/16/16
f 21/21/21 20/20/20 19/19/19
f 24/24/24 23/23/23 22/22/22
f 27/27/27 26/26/26 25/25/25
f 30/30/30 29/29/29 28/28/28
f 33/33/33 32/32/32 31/31/31
f 11/11/11 34/34/34 10/10/10
f 37/37/37 36/36/36 35/35/35
f 10/10/10 34/34/34 36/36/36
f 40/40/40 39/39/39 38/38/38
f 20/20/20 42/42/42 41/41/41
f 45/45/45 44/44/44 43/43/43
f 11/11/11 46/46/46 34/34/34
f 46/46/46 11/11/11 47/47/47
f 50/50/50 49/49/49 48/48/48
f 52/52/52 47/47/47 51/51/51
f 36/36/36 53/53/53 35/35/35
f 34/34/34 53/53/53 36/36/36
f 35/35/35 53/53/53 54/54/54
f 34/34/34 46/46/46 53/53/53
f 47/47/47 53/53/53 46/46/46
f 51/51/51 55/55/55 52/52/52
f 58/58/58 57/57/57 56/56/56
f 53/53/53 47/47/47 52/52/52
f 60/60/60 51/51/51 59/59/59
f 63/63/63 62/62/62 61/61/61
f 66/66/66 65/65/65 64/64/64
f 53/53/53 52/52/52 67/67/67
f 51/51/51 60/60/60 55/55/55
f 52/52/52 68/68/68 67/67/67
f 60/60/60 59/59/59 69/69/69
f 55/55/55 70/70/70 52/52/52
f 52/52/52 70/70/70 68/68/68
f 55/55/55 60/60/60 70/70/70
f 73/73/73 72/72/72 71/71/71
f 75/75/75 70/70/70 74/74/74
f 70/70/70 76/76/76 74/74/74
f 60/60/60 77/77/77 70/70/70
f 78/78/78 60/60/60 69/69/69
f 76/76/76 70/70/70 77/77/77
f 60/60/60 78/78/78 77/77/77
