# VPXTOOL table OBJ file
# VPXTOOL OBJ file
# numVerts: 124 numFaces: 138
o LM_L_LLI_UnderPF
v -301.20379638671875 534.1760864257813 -12.23087215423584
v -310.22906494140625 535.9713745117188 -12.23087215423584
v -301.20379638671875 534.1760864257813 -6.426159381866455
v -293.55255126953125 529.063720703125 -12.23087215423584
v -301.20379638671875 534.1760864257813 -12.23087215423584
v -293.55255126953125 529.063720703125 -6.426159381866455
v -310.22906494140625 535.9713745117188 -12.23087215423584
v -319.25433349609375 534.1760864257813 -12.23087215423584
v -310.22906494140625 535.9713745117188 -6.426159381866455
v -301.20379638671875 534.1760864257813 -12.23087215423584
v -301.20379638671875 534.1760864257813 -6.426159381866455
v -293.55255126953125 529.063720703125 -6.426159381866455
v -310.22906494140625 535.9713745117188 -12.23087215423584
v -310.22906494140625 535.9713745117188 -6.426159381866455
v -301.20379638671875 534.1760864257813 -6.426159381866455
v -288.44012451171875 521.4124755859375 -12.23087215423584
v -293.55255126953125 529.063720703125 -12.23087215423584
v -288.44012451171875 521.4124755859375 -6.426159381866455
v -293.55255126953125 529.063720703125 -12.23087215423584
v -293.55255126953125 529.063720703125 -6.426159381866455
v -288.44012451171875 521.4124755859375 -6.426159381866455
v -319.25433349609375 534.1760864257813 -12.23087215423584
v -319.25433349609375 534.1760864257813 -6.426159381866455
v -310.22906494140625 535.9713745117188 -6.426159381866455
v -319.25433349609375 534.1760864257813 -12.23087215423584
v -326.9056091308594 529.063720703125 -12.23087215423584
v -319.25433349609375 534.1760864257813 -6.426159381866455
v -286.6448974609375 512.3871459960938 -6.426159381866455
v -301.20379638671875 534.1760864257813 -6.426159381866455
v -310.22906494140625 535.9713745117188 -6.426159381866455
v -293.55255126953125 529.063720703125 -6.426159381866455
v -288.44012451171875 521.4124755859375 -12.23087215423584
v -288.44012451171875 521.4124755859375 -6.426159381866455
v -286.6448974609375 512.3871459960938 -6.426159381866455
v -286.6448974609375 512.3871459960938 -12.23087215423584
v -288.44012451171875 521.4124755859375 -12.23087215423584
v -286.6448974609375 512.3871459960938 -6.426159381866455
v -286.6448974609375 512.3871459960938 -6.426159381866455
v -288.44012451171875 521.4124755859375 -6.426159381866455
v -293.55255126953125 529.063720703125 -6.426159381866455
v -326.9056091308594 529.063720703125 -12.23087215423584
v -326.9056091308594 529.063720703125 -6.426159381866455
v -319.25433349609375 534.1760864257813 -6.426159381866455
v -326.9056091308594 529.063720703125 -12.23087215423584
v -332.0180358886719 521.4124755859375 -12.23087215423584
v -326.9056091308594 529.063720703125 -6.426159381866455
v -333.8132629394531 512.3871459960938 -6.426159381866455
v -310.22906494140625 535.9713745117188 -6.426159381866455
v -319.25433349609375 534.1760864257813 -6.426159381866455
v -286.6448974609375 512.3871459960938 -12.23087215423584
v -286.6448974609375 512.3871459960938 -6.426159381866455
v -288.44012451171875 503.3619079589844 -6.426159381866455
v -288.44012451171875 503.3619079589844 -12.23087215423584
v -286.6448974609375 512.3871459960938 -12.23087215423584
v -288.44012451171875 503.3619079589844 -6.426159381866455
v -333.8132629394531 512.3871459960938 -6.426159381866455
v -319.25433349609375 534.1760864257813 -6.426159381866455
v -326.9056091308594 529.063720703125 -6.426159381866455
v -332.0180358886719 521.4124755859375 -12.23087215423584
v -332.0180358886719 521.4124755859375 -6.426159381866455
v -326.9056091308594 529.063720703125 -6.426159381866455
v -310.22906494140625 488.80303955078125 -6.426159381866455
v -332.0180358886719 521.4124755859375 -12.23087215423584
v -333.8132629394531 512.3871459960938 -12.23087215423584
v -332.0180358886719 521.4124755859375 -6.426159381866455
v -326.9056091308594 529.063720703125 -6.426159381866455
v -332.0180358886719 521.4124755859375 -6.426159381866455
v -333.8132629394531 512.3871459960938 -6.426159381866455
v -293.55255126953125 495.7106628417969 -6.426159381866455
v -288.44012451171875 503.3619079589844 -6.426159381866455
v -286.6448974609375 512.3871459960938 -6.426159381866455
v -288.44012451171875 503.3619079589844 -12.23087215423584
v -288.44012451171875 503.3619079589844 -6.426159381866455
v -293.55255126953125 495.7106628417969 -6.426159381866455
v -293.55255126953125 495.7106628417969 -12.23087215423584
v -288.44012451171875 503.3619079589844 -12.23087215423584
v -293.55255126953125 495.7106628417969 -6.426159381866455
v -333.8132629394531 512.3871459960938 -6.426159381866455
v -333.8132629394531 512.3871459960938 -12.23087215423584
v -332.0180358886719 503.3619079589844 -12.23087215423584
v -333.8132629394531 512.3871459960938 -6.426159381866455
v -301.20379638671875 490.5982971191406 -6.426159381866455
v -293.55255126953125 495.7106628417969 -6.426159381866455
v -293.55255126953125 495.7106628417969 -12.23087215423584
v -293.55255126953125 495.7106628417969 -6.426159381866455
v -301.20379638671875 490.5982971191406 -6.426159381866455
v -301.20379638671875 490.5982971191406 -12.23087215423584
v -293.55255126953125 495.7106628417969 -12.23087215423584
v -301.20379638671875 490.5982971191406 -6.426159381866455
v -286.6448974609375 512.3871459960938 -6.426159381866455
v -310.22906494140625 488.80303955078125 -6.426159381866455
v -301.20379638671875 490.5982971191406 -6.426159381866455
v -332.0180358886719 503.3619079589844 -6.426159381866455
v -332.0180358886719 503.3619079589844 -12.23087215423584
v -326.9056091308594 495.7106628417969 -12.23087215423584
v -332.0180358886719 503.3619079589844 -6.426159381866455
v -332.0180358886719 503.3619079589844 -6.426159381866455
v -326.9056091308594 495.7106628417969 -6.426159381866455
v -310.22906494140625 488.80303955078125 -12.23087215423584
v -301.20379638671875 490.5982971191406 -12.23087215423584
v -310.22906494140625 488.80303955078125 -6.426159381866455
v -301.20379638671875 490.5982971191406 -12.23087215423584
v -301.20379638671875 490.5982971191406 -6.426159381866455
v -310.22906494140625 488.80303955078125 -6.426159381866455
v -326.9056091308594 495.7106628417969 -12.23087215423584
v -326.9056091308594 495.7106628417969 -6.426159381866455
v -332.0180358886719 503.3619079589844 -6.426159381866455
v -326.9056091308594 495.7106628417969 -12.23087215423584
v -319.25433349609375 490.5982971191406 -12.23087215423584
v -326.9056091308594 495.7106628417969 -6.426159381866455
v -326.9056091308594 495.7106628417969 -6.426159381866455
v -319.25433349609375 490.5982971191406 -6.426159381866455
v -333.8132629394531 512.3871459960938 -6.426159381866455
v -319.25433349609375 490.5982971191406 -6.426159381866455
v -310.22906494140625 488.80303955078125 -6.426159381866455
v -319.25433349609375 490.5982971191406 -12.23087215423584
v -310.22906494140625 488.80303955078125 -12.23087215423584
v -319.25433349609375 490.5982971191406 -6.426159381866455
v -310.22906494140625 488.80303955078125 -12.23087215423584
v -310.22906494140625 488.80303955078125 -6.426159381866455
v -319.25433349609375 490.5982971191406 -6.426159381866455
v -319.25433349609375 490.5982971191406 -12.23087215423584
v -319.25433349609375 490.5982971191406 -6.426159381866455
v -326.9056091308594 495.7106628417969 -6.426159381866455
vt 0.7989731431007385 0.2752686142921448
vt 0.8010959029197693 0.27780842781066895
vt 0.8018494844436646 0.27511245012283325
vt 0.7929349541664124 0.27306216955184937
vt 0.7989731431007385 0.2752686142921448
vt 0.7958190441131592 0.27290982007980347
vt 0.8010959029197693 0.27780842781066895
vt 0.7989731431007385 0.2802908420562744
vt 0.8039696216583252 0.2776479125022888
vt 0.7989731431007385 0.2752686142921448
vt 0.8018494844436646 0.27511245012283325
vt 0.7958190441131592 0.27290982007980347
vt 0.8010959029197693 0.27780842781066895
vt 0.8039696216583252 0.2776479125022888
vt 0.8018494844436646 0.27511245012283325
vt 0.7839174866676331 0.2715268135070801
vt 0.7929349541664124 0.27306216955184937
vt 0.7868130207061768 0.27137720584869385
vt 0.7929349541664124 0.27306216955184937
vt 0.7958190441131592 0.27290982007980347
vt 0.7868130207061768 0.27137720584869385
vt 0.7989731431007385 0.2802908420562744
vt 0.8018494844436646 0.28012615442276
vt 0.8039696216583252 0.2776479125022888
vt 0.7989731431007385 0.2802908420562744
vt 0.7929349541664124 0.28233402967453003
vt 0.8018494844436646 0.28012615442276
vt 0.776219367980957 0.2707465887069702
vt 0.8018494844436646 0.27511245012283325
vt 0.8039696216583252 0.2776479125022888
vt 0.7958190441131592 0.27290982007980347
vt 0.7839174866676331 0.2715268135070801
vt 0.7868130207061768 0.27137720584869385
vt 0.776219367980957 0.2707465887069702
vt 0.7733104228973389 0.2708948254585266
vt 0.7839174866676331 0.2715268135070801
vt 0.776219367980957 0.2707465887069702
vt 0.776219367980957 0.2707465887069702
vt 0.7868130207061768 0.27137720584869385
vt 0.7958190441131592 0.27290982007980347
vt 0.7929349541664124 0.28233402967453003
vt 0.7958190441131592 0.282166063785553
vt 0.8018494844436646 0.28012615442276
vt 0.7929349541664124 0.28233402967453003
vt 0.7839174866676331 0.2836254835128784
vt 0.7958190441131592 0.282166063785553
vt 0.776219367980957 0.2838004231452942
vt 0.8039696216583252 0.2776479125022888
vt 0.8018494844436646 0.28012615442276
vt 0.7733104228973389 0.2708948254585266
vt 0.776219367980957 0.2707465887069702
vt 0.7656576037406921 0.27110999822616577
vt 0.7627353072166443 0.2712586522102356
vt 0.7733104228973389 0.2708948254585266
vt 0.7656576037406921 0.27110999822616577
vt 0.776219367980957 0.2838004231452942
vt 0.8018494844436646 0.28012615442276
vt 0.7958190441131592 0.282166063785553
vt 0.7839174866676331 0.2836254835128784
vt 0.7868130207061768 0.28345561027526855
vt 0.7958190441131592 0.282166063785553
vt 0.7486869692802429 0.2769020199775696
vt 0.7839174866676331 0.2836254835128784
vt 0.7733104228973389 0.2839706540107727
vt 0.7868130207061768 0.28345561027526855
vt 0.7958190441131592 0.282166063785553
vt 0.7868130207061768 0.28345561027526855
vt 0.776219367980957 0.2838004231452942
vt 0.7567285895347595 0.27240806818008423
vt 0.7656576037406921 0.27110999822616577
vt 0.776219367980957 0.2707465887069702
vt 0.7627353072166443 0.2712586522102356
vt 0.7656576037406921 0.27110999822616577
vt 0.7567285895347595 0.27240806818008423
vt 0.7537950277328491 0.2725587487220764
vt 0.7627353072166443 0.2712586522102356
vt 0.7567285895347595 0.27240806818008423
vt 0.776219367980957 0.2838004231452942
vt 0.7733104228973389 0.2839706540107727
vt 0.7627353072166443 0.2833208441734314
vt 0.776219367980957 0.2838004231452942
vt 0.7507750988006592 0.2744414806365967
vt 0.7567285895347595 0.27240806818008423
vt 0.7537950277328491 0.2725587487220764
vt 0.7567285895347595 0.27240806818008423
vt 0.7507750988006592 0.2744414806365967
vt 0.7478340864181519 0.2745954394340515
vt 0.7537950277328491 0.2725587487220764
vt 0.7507750988006592 0.2744414806365967
vt 0.776219367980957 0.2707465887069702
vt 0.7486869692802429 0.2769020199775696
vt 0.7507750988006592 0.2744414806365967
vt 0.7656576037406921 0.2831519842147827
vt 0.7627353072166443 0.2833208441734314
vt 0.7537950277328491 0.2817789912223816
vt 0.7656576037406921 0.2831519842147827
vt 0.7656576037406921 0.2831519842147827
vt 0.7567285895347595 0.2816128730773926
vt 0.7457432150840759 0.27706003189086914
vt 0.7478340864181519 0.2745954394340515
vt 0.7486869692802429 0.2769020199775696
vt 0.7478340864181519 0.2745954394340515
vt 0.7507750988006592 0.2744414806365967
vt 0.7486869692802429 0.2769020199775696
vt 0.7537950277328491 0.2817789912223816
vt 0.7567285895347595 0.2816128730773926
vt 0.7656576037406921 0.2831519842147827
vt 0.7537950277328491 0.2817789912223816
vt 0.7478340864181519 0.27958112955093384
vt 0.7567285895347595 0.2816128730773926
vt 0.7567285895347595 0.2816128730773926
vt 0.7507750988006592 0.27941882610321045
vt 0.776219367980957 0.2838004231452942
vt 0.7507750988006592 0.27941882610321045
vt 0.7486869692802429 0.2769020199775696
vt 0.7478340864181519 0.27958112955093384
vt 0.7457432150840759 0.27706003189086914
vt 0.7507750988006592 0.27941882610321045
vt 0.7457432150840759 0.27706003189086914
vt 0.7486869692802429 0.2769020199775696
vt 0.7507750988006592 0.27941882610321045
vt 0.7478340864181519 0.27958112955093384
vt 0.7507750988006592 0.27941882610321045
vt 0.7567285895347595 0.2816128730773926
vn -0.19509294629096985 -0.9807847738265991 -0
vn -0.19509294629096985 -0.9807847738265991 -0
vn -0.19509294629096985 -0.9807847738265991 -0
vn -0.5555657148361206 -0.831472635269165 -0
vn -0.5555657148361206 -0.831472635269165 -0
vn -0.5555657148361206 -0.831472635269165 -0
vn 0.19509294629096985 -0.9807847738265991 -0
vn 0.19509294629096985 -0.9807847738265991 -0
vn 0.19509294629096985 -0.9807847738265991 -0
vn -0.555565595626831 -0.831472635269165 -0
vn -0.555565595626831 -0.831472635269165 -0
vn -0.555565595626831 -0.831472635269165 -0
vn -0.19509291648864746 -0.9807847738265991 -0
vn -0.19509291648864746 -0.9807847738265991 -0
vn -0.19509291648864746 -0.9807847738265991 -0
vn -0.8314679861068726 -0.5555726885795593 -0
vn -0.8314679861068726 -0.5555726885795593 -0
vn -0.8314679861068726 -0.5555726885795593 -0
vn -0.8314713835716248 -0.5555675625801086 -0
vn -0.8314713835716248 -0.5555675625801086 -0
vn -0.8314713835716248 -0.5555675625801086 -0
vn 0.19509291648864746 -0.9807847738265991 -0
vn 0.19509291648864746 -0.9807847738265991 -0
vn 0.19509291648864746 -0.9807847738265991 -0
vn 0.5555657148361206 -0.831472635269165 -0
vn 0.5555657148361206 -0.831472635269165 -0
vn 0.5555657148361206 -0.831472635269165 -0
vn 0 -0 -0.9999999403953552
vn 0 -0 -0.9999999403953552
vn 0 -0 -0.9999999403953552
vn 0 -0 -0.9999999403953552
vn -0.9807865619659424 -0.19508370757102966 -0
vn -0.9807865619659424 -0.19508370757102966 -0
vn -0.9807865619659424 -0.19508370757102966 -0
vn -0.9807844758033752 -0.1950945109128952 -0
vn -0.9807844758033752 -0.1950945109128952 -0
vn -0.9807844758033752 -0.1950945109128952 -0
vn 0 -0 -1
vn 0 -0 -1
vn 0 -0 -1
vn 0.555569052696228 -0.8314703106880188 -0
vn 0.555569052696228 -0.8314703106880188 -0
vn 0.555569052696228 -0.8314703106880188 -0
vn 0.8314679861068726 -0.5555726885795593 -0
vn 0.8314679861068726 -0.5555726885795593 -0
vn 0.8314679861068726 -0.5555726885795593 -0
vn 0 -0 -1
vn 0 -0 -1
vn 0 -0 -1
vn -0.9807840585708618 0.19509679079055786 -0
vn -0.9807840585708618 0.19509679079055786 -0
vn -0.9807840585708618 0.19509679079055786 -0
vn -0.9807862043380737 0.19508600234985352 -0
vn -0.9807862043380737 0.19508600234985352 -0
vn -0.9807862043380737 0.19508600234985352 -0
vn 0 -0 -0.9999999403953552
vn 0 -0 -0.9999999403953552
vn 0 -0 -0.9999999403953552
vn 0.831467866897583 -0.5555726885795593 -0
vn 0.831467866897583 -0.5555726885795593 -0
vn 0.831467866897583 -0.5555726885795593 -0
vn 0 -0 -0.9999999403953552
vn 0.9807858467102051 -0.19508729875087738 -0
vn 0.9807858467102051 -0.19508729875087738 -0
vn 0.9807858467102051 -0.19508729875087738 -0
vn 0.00000019267525885879877 -0 -1
vn 0.00000019267525885879877 -0 -1
vn 0.00000019267525885879877 -0 -1
vn -0.00000019268000528427365 -0 -1
vn -0.00000019268000528427365 -0 -1
vn -0.00000019268000528427365 -0 -1
vn -0.831467866897583 0.5555726885795593 -0
vn -0.831467866897583 0.5555726885795593 -0
vn -0.831467866897583 0.5555726885795593 -0
vn -0.8314714431762695 0.5555675029754639 -0
vn -0.8314714431762695 0.5555675029754639 -0
vn -0.8314714431762695 0.5555675029754639 -0
vn 0.9807858467102051 -0.19508729875087738 -0
vn 0.9807854294776917 0.19508959352970123 -0
vn 0.9807854294776917 0.19508959352970123 -0
vn 0.9807854294776917 0.19508959352970123 -0
vn 0 -0 -0.9999999403953552
vn 0 -0 -0.9999999403953552
vn -0.555565595626831 0.831472635269165 -0
vn -0.555565595626831 0.831472635269165 -0
vn -0.555565595626831 0.831472635269165 -0
vn -0.5555657148361206 0.831472635269165 -0
vn -0.5555657148361206 0.831472635269165 -0
vn -0.5555657148361206 0.831472635269165 -0
vn 0.00000014647018531377398 -0 -1
vn 0.00000014647018531377398 -0 -1
vn 0.00000014647018531377398 -0 -1
vn 0.9807854294776917 0.19508959352970123 -0
vn 0.8314679861068726 0.5555726885795593 -0
vn 0.8314679861068726 0.5555726885795593 -0
vn 0.8314679861068726 0.5555726885795593 -0
vn 0 -0 -1
vn 0 -0 -1
vn -0.19509294629096985 0.9807847738265991 -0
vn -0.19509294629096985 0.9807847738265991 -0
vn -0.19509294629096985 0.9807847738265991 -0
vn -0.19509291648864746 0.9807847738265991 -0
vn -0.19509291648864746 0.9807847738265991 -0
vn -0.19509291648864746 0.9807847738265991 -0
vn 0.831467866897583 0.5555726885795593 -0
vn 0.831467866897583 0.5555726885795593 -0
vn 0.831467866897583 0.5555726885795593 -0
vn 0.5555691719055176 0.8314703106880188 -0
vn 0.5555691719055176 0.8314703106880188 -0
vn 0.5555691719055176 0.8314703106880188 -0
vn 0 -0 -0.9999999403953552
vn 0 -0 -0.9999999403953552
vn -0.0000001464688068608666 -0 -0.9999999403953552
vn -0.0000001464688068608666 -0 -0.9999999403953552
vn -0.0000001464688068608666 -0 -0.9999999403953552
vn 0.19509294629096985 0.9807847738265991 -0
vn 0.19509294629096985 0.9807847738265991 -0
vn 0.19509294629096985 0.9807847738265991 -0
vn 0.19509291648864746 0.9807847738265991 -0
vn 0.19509291648864746 0.9807847738265991 -0
vn 0.19509291648864746 0.9807847738265991 -0
vn 0.555565595626831 0.831472635269165 -0
vn 0.555565595626831 0.831472635269165 -0
vn 0.555565595626831 0.831472635269165 -0
f 3/3/3 2/2/2 1/1/1
f 6/6/6 5/5/5 4/4/4
f 9/9/9 8/8/8 7/7/7
f 12/12/12 11/11/11 10/10/10
f 15/15/15 14/14/14 13/13/13
f 18/18/18 17/17/17 16/16/16
f 21/21/21 20/20/20 19/19/19
f 24/24/24 23/23/23 22/22/22
f 27/27/27 26/26/26 25/25/25
f 30/30/30 29/29/29 28/28/28
f 29/29/29 31/31/31 28/28/28
f 34/34/34 33/33/33 32/32/32
f 37/37/37 36/36/36 35/35/35
f 40/40/40 39/39/39 38/38/38
f 43/43/43 42/42/42 41/41/41
f 46/46/46 45/45/45 44/44/44
f 49/49/49 48/48/48 47/47/47
f 52/52/52 51/51/51 50/50/50
f 55/55/55 54/54/54 53/53/53
f 58/58/58 57/57/57 56/56/56
f 61/61/61 60/60/60 59/59/59
f 30/30/30 28/28/28 62/62/62
f 65/65/65 64/64/64 63/63/63
f 68/68/68 67/67/67 66/66/66
f 71/71/71 70/70/70 69/69/69
f 74/74/74 73/73/73 72/72/72
f 77/77/77 76/76/76 75/75/75
f 62/62/62 56/56/56 30/30/30
f 65/65/65 78/78/78 64/64/64
f 81/81/81 80/80/80 79/79/79
f 83/83/83 82/82/82 28/28/28
f 86/86/86 85/85/85 84/84/84
f 89/89/89 88/88/88 87/87/87
f 92/92/92 91/91/91 90/90/90
f 81/81/81 93/93/93 80/80/80
f 96/96/96 95/95/95 94/94/94
f 98/98/98 97/97/97 47/47/47
f 101/101/101 100/100/100 99/99/99
f 104/104/104 103/103/103 102/102/102
f 107/107/107 106/106/106 105/105/105
f 110/110/110 109/109/109 108/108/108
f 112/112/112 111/111/111 56/56/56
f 115/115/115 114/114/114 113/113/113
f 118/118/118 117/117/117 116/116/116
f 121/121/121 120/120/120 119/119/119
f 124/124/124 123/123/123 122/122/122
