# VPXTOOL table OBJ file
# VPXTOOL OBJ file
# numVerts: 86 numFaces: 87
o LM_F_FL2_RArm
v 11.450386047363281 9.508030891418457 -76.93648529052734
v 6.7409844398498535 9.508030891418457 -76.33917999267578
v 11.450386047363281 3.8079609870910645 -76.93648529052734
v 11.450386047363281 9.508030891418457 -73.13648986816406
v 11.450386047363281 9.508030891418457 -76.93648529052734
v 11.450386047363281 3.8079609870910645 -76.93648529052734
v 6.7409844398498535 9.508030891418457 -76.33917999267578
v 6.741095066070557 3.8079609870910645 -76.33917999267578
v 11.450386047363281 3.8079609870910645 -76.93648529052734
v 2.751365900039673 9.50792121887207 -73.09608459472656
v 2.751476287841797 3.8080713748931885 -73.09608459472656
v 6.7409844398498535 9.508030891418457 -76.33917999267578
v 2.751476287841797 3.8080713748931885 -73.09608459472656
v 6.741095066070557 3.8079609870910645 -76.33917999267578
v 6.7409844398498535 9.508030891418457 -76.33917999267578
v -6.033679485321045 3.8079609870910645 -76.93648529052734
v 11.450386047363281 3.8079609870910645 -76.93648529052734
v 6.741095066070557 3.8079609870910645 -76.33917999267578
v 11.450386047363281 9.508030891418457 -73.13648986816406
v 11.450386047363281 3.8079609870910645 -76.93648529052734
v 11.450386047363281 -3.7919485569000244 -76.93648529052734
v 2.751365900039673 9.50792121887207 -73.09608459472656
v 1.566340446472168 9.50792121887207 -69.3404769897461
v 2.751476287841797 3.8080713748931885 -73.09608459472656
v -6.033679485321045 3.8079609870910645 -76.93648529052734
v 6.741095066070557 3.8079609870910645 -76.33917999267578
v 2.751476287841797 3.8080713748931885 -73.09608459472656
v 11.450386047363281 3.8079609870910645 -76.93648529052734
v -6.033679485321045 3.8079609870910645 -76.93648529052734
v 11.450386047363281 -3.7919485569000244 -76.93648529052734
v 1.566230058670044 3.8079609870910645 -69.3404769897461
v -7.933629512786865 3.8080713748931885 -75.03788757324219
v -6.033679485321045 3.8079609870910645 -76.93648529052734
v -6.033679485321045 3.8079609870910645 -76.93648529052734
v 2.751476287841797 3.8080713748931885 -73.09608459472656
v 1.566230058670044 3.8079609870910645 -69.3404769897461
v 1.566340446472168 9.50792121887207 -69.3404769897461
v 1.566230058670044 3.8079609870910645 -69.3404769897461
v 2.751476287841797 3.8080713748931885 -73.09608459472656
v -6.0335693359375 -3.7920591831207275 -76.93648529052734
v -6.033679485321045 3.8079609870910645 -76.93648529052734
v -7.933629512786865 3.8080713748931885 -75.03788757324219
v -6.0335693359375 -3.7920591831207275 -76.93648529052734
v 11.450386047363281 -3.7919485569000244 -76.93648529052734
v 11.450386047363281 -3.7919485569000244 -76.93648529052734
v 11.450386047363281 -9.489148139953613 -73.13648986816406
v 11.450386047363281 9.508030891418457 -73.13648986816406
v 6.7409844398498535 -3.7919485569000244 -76.33917999267578
v 11.450386047363281 -3.7919485569000244 -76.93648529052734
v -6.0335693359375 -3.7920591831207275 -76.93648529052734
v -7.933629512786865 -3.7920591831207275 -75.03788757324219
v -6.0335693359375 -3.7920591831207275 -76.93648529052734
v -7.933629512786865 3.8080713748931885 -75.03788757324219
v 11.450386047363281 -3.7919485569000244 -76.93648529052734
v 6.7409844398498535 -3.7919485569000244 -76.33917999267578
v 11.450386047363281 -9.489148139953613 -76.93648529052734
v 2.751476287841797 -3.7920591831207275 -73.09608459472656
v 6.7409844398498535 -3.7919485569000244 -76.33917999267578
v -6.0335693359375 -3.7920591831207275 -76.93648529052734
v 11.450386047363281 -3.7919485569000244 -76.93648529052734
v 11.450386047363281 -9.489148139953613 -76.93648529052734
v 11.450386047363281 -9.489148139953613 -73.13648986816406
v 1.566340446472168 -3.7920591831207275 -69.3404769897461
v -6.0335693359375 -3.7920591831207275 -76.93648529052734
v -7.933629512786865 -3.7920591831207275 -75.03788757324219
v 1.566340446472168 -3.7920591831207275 -69.3404769897461
v 2.751476287841797 -3.7920591831207275 -73.09608459472656
v -6.0335693359375 -3.7920591831207275 -76.93648529052734
v 1.566230058670044 3.8079609870910645 -69.3404769897461
v 1.566340446472168 9.50792121887207 -69.3404769897461
v 1.5664509534835815 3.8079609870910645 -46.53248977661133
v 1.566230058670044 3.8079609870910645 -69.3404769897461
v -10.783498764038086 3.8080713748931885 -46.53248596191406
v -7.933629512786865 3.8080713748931885 -75.03788757324219
v -10.783609390258789 -1.8918883800506592 -46.53248596191406
v -7.933629512786865 -3.7920591831207275 -75.03788757324219
v -7.933629512786865 3.8080713748931885 -75.03788757324219
v 1.566230058670044 3.8079609870910645 -69.3404769897461
v 1.5664509534835815 3.8079609870910645 -46.53248977661133
v -10.783498764038086 3.8080713748931885 -46.53248596191406
v -7.933629512786865 3.8080713748931885 -75.03788757324219
v -10.783498764038086 3.8080713748931885 -46.53248596191406
v -10.783498764038086 1.9080111980438232 -46.53248596191406
v -7.933629512786865 3.8080713748931885 -75.03788757324219
v -10.783498764038086 1.9080111980438232 -46.53248596191406
v -10.783609390258789 -1.8918883800506592 -46.53248596191406
vt 0.5418909192085266 0.46684378385543823
vt 0.5447660088539124 0.4670918583869934
vt 0.5407154560089111 0.4675511121749878
vt 0.5417629480361938 0.4670511484146118
vt 0.5418909192085266 0.46684378385543823
vt 0.5407154560089111 0.4675511121749878
vt 0.5447660088539124 0.4670918583869934
vt 0.5435930490493774 0.46779948472976685
vt 0.5407154560089111 0.4675511121749878
vt 0.547105610370636 0.4674510955810547
vt 0.5459356904029846 0.4681585431098938
vt 0.5447660088539124 0.4670918583869934
vt 0.5459356904029846 0.4681585431098938
vt 0.5435930490493774 0.46779948472976685
vt 0.5447660088539124 0.4670918583869934
vt 0.551483154296875 0.46835315227508545
vt 0.5407154560089111 0.4675511121749878
vt 0.5435930490493774 0.46779948472976685
vt 0.5417629480361938 0.4670511484146118
vt 0.5407154560089111 0.4675511121749878
vt 0.5391448140144348 0.46849626302719116
vt 0.547105610370636 0.4674510955810547
vt 0.5477010607719421 0.46770936250686646
vt 0.5459356904029846 0.4681585431098938
vt 0.551483154296875 0.46835315227508545
vt 0.5435930490493774 0.46779948472976685
vt 0.5459356904029846 0.4681585431098938
vt 0.5407154560089111 0.4675511121749878
vt 0.551483154296875 0.46835315227508545
vt 0.5391448140144348 0.46849626302719116
vt 0.5465328693389893 0.46841633319854736
vt 0.5525844693183899 0.4685433506965637
vt 0.551483154296875 0.46835315227508545
vt 0.551483154296875 0.46835315227508545
vt 0.5459356904029846 0.4681585431098938
vt 0.5465328693389893 0.46841633319854736
vt 0.5477010607719421 0.46770936250686646
vt 0.5465328693389893 0.46841633319854736
vt 0.5459356904029846 0.4681585431098938
vt 0.5499240159988403 0.4693002700805664
vt 0.551483154296875 0.46835315227508545
vt 0.5525844693183899 0.4685433506965637
vt 0.5499240159988403 0.4693002700805664
vt 0.5391448140144348 0.46849626302719116
vt 0.5391448140144348 0.46849626302719116
vt 0.5378409624099731 0.46941161155700684
vt 0.5417629480361938 0.4670511484146118
vt 0.5420257449150085 0.46874499320983887
vt 0.5391448140144348 0.46849626302719116
vt 0.5499240159988403 0.4693002700805664
vt 0.5510273575782776 0.46949028968811035
vt 0.5499240159988403 0.4693002700805664
vt 0.5525844693183899 0.4685433506965637
vt 0.5391448140144348 0.46849626302719116
vt 0.5420257449150085 0.46874499320983887
vt 0.5379648804664612 0.4692062735557556
vt 0.5443723797798157 0.4691038131713867
vt 0.5420257449150085 0.46874499320983887
vt 0.5499240159988403 0.4693002700805664
vt 0.5391448140144348 0.46849626302719116
vt 0.5379648804664612 0.4692062735557556
vt 0.5378409624099731 0.46941161155700684
vt 0.5449719429016113 0.46936094760894775
vt 0.5499240159988403 0.4693002700805664
vt 0.5510273575782776 0.46949028968811035
vt 0.5449719429016113 0.46936094760894775
vt 0.5443723797798157 0.4691038131713867
vt 0.5499240159988403 0.4693002700805664
vt 0.5465328693389893 0.46841633319854736
vt 0.5477010607719421 0.46770936250686646
vt 0.5457383394241333 0.4696424603462219
vt 0.5465328693389893 0.46841633319854736
vt 0.5532819628715515 0.47020554542541504
vt 0.5525844693183899 0.4685433506965637
vt 0.5521247386932373 0.4709112048149109
vt 0.5510273575782776 0.46949028968811035
vt 0.5525844693183899 0.4685433506965637
vt 0.5465328693389893 0.46841633319854736
vt 0.5457383394241333 0.4696424603462219
vt 0.5532819628715515 0.47020554542541504
vt 0.5525844693183899 0.4685433506965637
vt 0.5532819628715515 0.47020554542541504
vt 0.5528964400291443 0.4704406261444092
vt 0.5525844693183899 0.4685433506965637
vt 0.5528964400291443 0.4704406261444092
vt 0.5521247386932373 0.4709112048149109
vn 0.6611854434013367 -0.00003601392745622434 -0.7502226233482361
vn -0.1258247047662735 -0 -0.9920525550842285
vn 0.6528687477111816 -0.2221495807170868 -0.7241629362106323
vn 0.7347559332847595 0.6653508543968201 0.1320679932832718
vn 1 -0 -0
vn 0.636260449886322 -0.6117007732391357 0.4701008200645447
vn -0.1258275955915451 -0.000002451729187669116 -0.9920521378517151
vn -0.1258275955915451 -0.000002451729187669116 -0.9920521378517151
vn 0.6047089695930481 0.34455808997154236 -0.7180576920509338
vn -0.6307731866836548 -0.00001225071264343569 -0.7759672403335571
vn -0.6307731866836548 -0.00001225071264343569 -0.7759672403335571
vn -0.6307731866836548 -0.00001225071264343569 -0.7759672403335571
vn -0.6307713389396667 -0.000012250257896084804 -0.775968611240387
vn -0.6307713389396667 -0.000012250257896084804 -0.775968611240387
vn -0.6307713389396667 -0.000012250257896084804 -0.775968611240387
vn 0 1 -0
vn 0 1 -0
vn 0 1 -0
vn 0.7347559332847595 0.5738089680671692 -0.3617692291736603
vn 0.636260449886322 -0.24827522039413452 -0.7304328083992004
vn 0.7282515168190002 -0.4462096095085144 0.520141065120697
vn -0.9536521434783936 -0.000018497543351259083 -0.3009113669395447
vn -0.9536521434783936 -0.000018497543351259083 -0.3009113669395447
vn -0.9536521434783936 -0.000018497543351259083 -0.3009113669395447
vn 0.0000015054987443363643 1 -0.00003220711732865311
vn 0.0000015054987443363643 1 -0.00003220711732865311
vn 0.0000015054987443363643 1 -0.00003220711732865311
vn 0.6853099465370178 -0.00003289325468358584 -0.7282515168190002
vn 0 -0 -1
vn 0.6789262890815735 -0.09332144260406494 -0.7282515168190002
vn 0.000029064198315609246 1 -0.000028989146812818944
vn 0.000029064198315609246 1 -0.000028989146812818944
vn 0.000029064198315609246 1 -0.000028989146812818944
vn -0.00002234169005532749 1 0.000022283997168415226
vn -0.00002234169005532749 1 0.000022283997168415226
vn -0.00002234169005532749 1 0.000022283997168415226
vn -0.953636109828949 0.00001849684485932812 -0.3009619116783142
vn -0.953636109828949 0.00001849684485932812 -0.3009619116783142
vn -0.953636109828949 0.00001849684485932812 -0.3009619116783142
vn -0.7068563103675842 -0.000010246404599456582 -0.7073570489883423
vn -0.7068563103675842 -0.000010246404599456582 -0.7073570489883423
vn -0.7035647034645081 0.0051748864352703094 -0.7106122970581055
vn 0 -0 -1
vn 0.4901176393032074 0.47899311780929565 -0.7282515168190002
vn 0.7282515168190002 -0.5024846196174622 -0.4660031795501709
vn 0.7347559332847595 -0.5379043817520142 -0.4132705330848694
vn 0.7347559332847595 0.4416659474372864 -0.514844536781311
vn 0.000006316082362900488 -1 0.00004902579530607909
vn 0.000006316082362900488 -1 0.00004902579530607909
vn 0.000006316082362900488 -1 0.00004902579530607909
vn -0.7117331027984619 0.00000033363170359734795 -0.702450156211853
vn -0.7068331241607666 -0 -0.7073804140090942
vn -0.7020406126976013 -0.0016557956114411354 -0.7121351361274719
vn 0.6852884292602539 -0.000037028959923190996 -0.7282717823982239
vn -0.12582167983055115 -0 -0.9920529127120972
vn 0.6296776533126831 -0.21600085496902466 -0.7462236285209656
vn 0.000009679884897195734 -1 -0.00002201809002144728
vn 0.000009679884897195734 -1 -0.00002201809002144728
vn 0.000009679884897195734 -1 -0.00002201809002144728
vn 0.7282515168190002 0.22043338418006897 -0.648890495300293
vn 0.6610665321350098 -0.7503272891044617 0.00003584399019018747
vn 0.7347559332847595 -0.6653410196304321 0.13211758434772491
vn 0 -0.9999999403953552 -0.0000002163306191960146
vn 0 -0.9999999403953552 -0.0000002163306191960146
vn 0 -0.9999999403953552 -0.0000002163306191960146
vn 0 -1 -0.00000004157555366646193
vn 0 -1 -0.00000004157555366646193
vn 0 -1 -0.00000004157555366646193
vn -1 0.000019354909454705194 0.000009683457392384298
vn -1 0.000019354909454705194 0.000009683457392384298
vn -1 0.000019354909454705194 0.000009683457392384298
vn 0.000010966828995151445 0.9999999403953552 0.0000010876302667384152
vn 0.000010966828995151445 0.9999999403953552 0.0000010876302667384152
vn 0.000010966828995151445 0.9999999403953552 0.0000010876302667384152
vn -0.9944737553596497 0.0006042445311322808 -0.10498327761888504
vn -0.9950456023216248 -0.006944212596863508 -0.09917620569467545
vn -0.994510293006897 -0.004751740489155054 -0.1045299842953682
vn 0.000008941742635215633 1 -0.00000001333439847428508
vn 0.000008941742635215633 1 -0.00000001333439847428508
vn 0.000008941742635215633 1 -0.00000001333439847428508
vn -0.9953277707099915 -0.0062022097408771515 -0.09635540097951889
vn -0.9943342804908752 -0 -0.10629934817552567
vn -0.9948469996452332 0.006640730891376734 -0.10117082297801971
vn -0.9952523112297058 -0.006503256969153881 -0.09711161255836487
vn -0.9943490028381348 -0.00137726787943393 -0.10615235567092896
vn -0.9947795867919922 0.0050163259729743 -0.10192421823740005
f 3/3/3 2/2/2 1/1/1
f 6/6/6 5/5/5 4/4/4
f 9/9/9 8/8/8 7/7/7
f 12/12/12 11/11/11 10/10/10
f 15/15/15 14/14/14 13/13/13
f 18/18/18 17/17/17 16/16/16
f 21/21/21 20/20/20 19/19/19
f 24/24/24 23/23/23 22/22/22
f 27/27/27 26/26/26 25/25/25
f 30/30/30 29/29/29 28/28/28
f 33/33/33 32/32/32 31/31/31
f 36/36/36 35/35/35 34/34/34
f 39/39/39 38/38/38 37/37/37
f 42/42/42 41/41/41 40/40/40
f 44/44/44 43/43/43 29/29/29
f 47/47/47 46/46/46 45/45/45
f 50/50/50 49/49/49 48/48/48
f 53/53/53 52/52/52 51/51/51
f 56/56/56 55/55/55 54/54/54
f 59/59/59 58/58/58 57/57/57
f 62/62/62 61/61/61 60/60/60
f 65/65/65 64/64/64 63/63/63
f 68/68/68 67/67/67 66/66/66
f 71/71/71 70/70/70 69/69/69
f 74/74/74 73/73/73 72/72/72
f 77/77/77 76/76/76 75/75/75
f 80/80/80 79/79/79 78/78/78
f 83/83/83 82/82/82 81/81/81
f 86/86/86 85/85/85 84/84/84
