# VPXTOOL table OBJ file
# VPXTOOL OBJ file
# numVerts: 127 numFaces: 138
o LM_L_LMet3_UnderPF
v 96.69590759277344 -49.5980224609375 -32.3721809387207
v 87.67061614990234 -47.80276107788086 -32.3721809387207
v 96.69590759277344 -49.5980224609375 -26.567466735839844
v 87.67061614990234 -47.80276107788086 -32.3721809387207
v 78.64533233642578 -49.5980224609375 -32.3721809387207
v 87.67061614990234 -47.80276107788086 -26.567466735839844
v 87.67061614990234 -47.80276107788086 -32.3721809387207
v 87.67061614990234 -47.80276107788086 -26.567466735839844
v 96.69590759277344 -49.5980224609375 -26.567466735839844
v 104.34716796875 -54.710384368896484 -32.3721809387207
v 96.69590759277344 -49.5980224609375 -32.3721809387207
v 104.34716796875 -54.710384368896484 -26.567466735839844
v 96.69590759277344 -49.5980224609375 -26.567466735839844
v 78.64533233642578 -49.5980224609375 -32.3721809387207
v 78.64533233642578 -49.5980224609375 -26.567466735839844
v 87.67061614990234 -47.80276107788086 -26.567466735839844
v 78.64533233642578 -49.5980224609375 -32.3721809387207
v 70.99407196044922 -54.710384368896484 -32.3721809387207
v 78.64533233642578 -49.5980224609375 -26.567466735839844
v 104.34716796875 -54.710384368896484 -32.3721809387207
v 104.34716796875 -54.710384368896484 -26.567466735839844
v 109.45957946777344 -62.36164093017578 -26.567466735839844
v 70.99407196044922 -54.710384368896484 -32.3721809387207
v 70.99407196044922 -54.710384368896484 -26.567466735839844
v 78.64533233642578 -49.5980224609375 -26.567466735839844
v 109.45957946777344 -62.36164093017578 -32.3721809387207
v 104.34716796875 -54.710384368896484 -32.3721809387207
v 109.45957946777344 -62.36164093017578 -26.567466735839844
v 111.25484466552734 -71.3869857788086 -26.567466735839844
v 96.69590759277344 -49.5980224609375 -26.567466735839844
v 87.67061614990234 -47.80276107788086 -26.567466735839844
v 70.99407196044922 -54.710384368896484 -32.3721809387207
v 65.8817138671875 -62.36164093017578 -32.3721809387207
v 70.99407196044922 -54.710384368896484 -26.567466735839844
v 104.34716796875 -54.710384368896484 -26.567466735839844
v 64.0864486694336 -71.3869857788086 -26.567466735839844
v 78.64533233642578 -49.5980224609375 -26.567466735839844
v 111.25484466552734 -71.3869857788086 -26.567466735839844
v 109.45957946777344 -62.36164093017578 -26.567466735839844
v 104.34716796875 -54.710384368896484 -26.567466735839844
v 109.45957946777344 -62.36164093017578 -32.3721809387207
v 109.45957946777344 -62.36164093017578 -26.567466735839844
v 111.25484466552734 -71.3869857788086 -26.567466735839844
v 65.8817138671875 -62.36164093017578 -26.567466735839844
v 64.0864486694336 -71.3869857788086 -26.567466735839844
v 78.64533233642578 -49.5980224609375 -26.567466735839844
v 70.99407196044922 -54.710384368896484 -26.567466735839844
v 111.25484466552734 -71.3869857788086 -32.3721809387207
v 109.45957946777344 -62.36164093017578 -32.3721809387207
v 111.25484466552734 -71.3869857788086 -26.567466735839844
v 65.8817138671875 -62.36164093017578 -32.3721809387207
v 64.0864486694336 -71.3869857788086 -32.3721809387207
v 65.8817138671875 -62.36164093017578 -26.567466735839844
v 70.99407196044922 -54.710384368896484 -26.567466735839844
v 65.8817138671875 -62.36164093017578 -26.567466735839844
v 64.0864486694336 -71.3869857788086 -26.567466735839844
v 111.25484466552734 -71.3869857788086 -32.3721809387207
v 111.25484466552734 -71.3869857788086 -26.567466735839844
v 109.45957946777344 -80.41221618652344 -26.567466735839844
v 64.0864486694336 -71.3869857788086 -32.3721809387207
v 64.0864486694336 -71.3869857788086 -26.567466735839844
v 65.8817138671875 -62.36164093017578 -26.567466735839844
v 87.67061614990234 -94.97109985351563 -26.567466735839844
v 111.25484466552734 -71.3869857788086 -26.567466735839844
v 87.67061614990234 -47.80276107788086 -26.567466735839844
v 109.45957946777344 -80.41221618652344 -32.3721809387207
v 111.25484466552734 -71.3869857788086 -32.3721809387207
v 109.45957946777344 -80.41221618652344 -26.567466735839844
v 87.67061614990234 -47.80276107788086 -26.567466735839844
v 64.0864486694336 -71.3869857788086 -26.567466735839844
v 87.67061614990234 -94.97109985351563 -26.567466735839844
v 64.0864486694336 -71.3869857788086 -32.3721809387207
v 65.8817138671875 -80.41221618652344 -32.3721809387207
v 64.0864486694336 -71.3869857788086 -26.567466735839844
v 104.34716796875 -88.0634765625 -26.567466735839844
v 109.45957946777344 -80.41221618652344 -26.567466735839844
v 111.25484466552734 -71.3869857788086 -26.567466735839844
v 109.45957946777344 -80.41221618652344 -32.3721809387207
v 109.45957946777344 -80.41221618652344 -26.567466735839844
v 104.34716796875 -88.0634765625 -26.567466735839844
v 65.8817138671875 -80.41221618652344 -32.3721809387207
v 65.8817138671875 -80.41221618652344 -26.567466735839844
v 64.0864486694336 -71.3869857788086 -26.567466735839844
v 104.34716796875 -88.0634765625 -32.3721809387207
v 109.45957946777344 -80.41221618652344 -32.3721809387207
v 104.34716796875 -88.0634765625 -26.567466735839844
v 111.25484466552734 -71.3869857788086 -26.567466735839844
v 96.69590759277344 -93.17583465576172 -26.567466735839844
v 104.34716796875 -88.0634765625 -26.567466735839844
v 65.8817138671875 -80.41221618652344 -32.3721809387207
v 70.99407196044922 -88.0634765625 -32.3721809387207
v 65.8817138671875 -80.41221618652344 -26.567466735839844
v 64.0864486694336 -71.3869857788086 -26.567466735839844
v 65.8817138671875 -80.41221618652344 -26.567466735839844
v 70.99407196044922 -88.0634765625 -26.567466735839844
v 111.25484466552734 -71.3869857788086 -26.567466735839844
v 87.67061614990234 -94.97109985351563 -26.567466735839844
v 96.69590759277344 -93.17583465576172 -26.567466735839844
v 104.34716796875 -88.0634765625 -32.3721809387207
v 104.34716796875 -88.0634765625 -26.567466735839844
v 96.69590759277344 -93.17583465576172 -26.567466735839844
v 96.69590759277344 -93.17583465576172 -32.3721809387207
v 70.99407196044922 -88.0634765625 -26.567466735839844
v 64.0864486694336 -71.3869857788086 -26.567466735839844
v 70.99407196044922 -88.0634765625 -26.567466735839844
v 78.64533233642578 -93.17583465576172 -26.567466735839844
v 70.99407196044922 -88.0634765625 -32.3721809387207
v 78.64533233642578 -93.17583465576172 -32.3721809387207
v 70.99407196044922 -88.0634765625 -26.567466735839844
v 64.0864486694336 -71.3869857788086 -26.567466735839844
v 78.64533233642578 -93.17583465576172 -26.567466735839844
v 87.67061614990234 -94.97109985351563 -26.567466735839844
v 87.67061614990234 -94.97109985351563 -32.3721809387207
v 96.69590759277344 -93.17583465576172 -32.3721809387207
v 87.67061614990234 -94.97109985351563 -26.567466735839844
v 78.64533233642578 -93.17583465576172 -32.3721809387207
v 87.67061614990234 -94.97109985351563 -32.3721809387207
v 78.64533233642578 -93.17583465576172 -26.567466735839844
v 96.69590759277344 -93.17583465576172 -32.3721809387207
v 96.69590759277344 -93.17583465576172 -26.567466735839844
v 87.67061614990234 -94.97109985351563 -26.567466735839844
v 78.64533233642578 -93.17583465576172 -32.3721809387207
v 78.64533233642578 -93.17583465576172 -26.567466735839844
v 70.99407196044922 -88.0634765625 -26.567466735839844
v 87.67061614990234 -94.97109985351563 -32.3721809387207
v 87.67061614990234 -94.97109985351563 -26.567466735839844
v 78.64533233642578 -93.17583465576172 -26.567466735839844
vt 0.8909736275672913 0.75611412525177
vt 0.8921663761138916 0.7572649121284485
vt 0.893330454826355 0.7561269402503967
vt 0.8921663761138916 0.7572649121284485
vt 0.8909736275672913 0.7584196329116821
vt 0.894521951675415 0.7572759389877319
vt 0.8921663761138916 0.7572649121284485
vt 0.894521951675415 0.7572759389877319
vt 0.893330454826355 0.7561269402503967
vt 0.8875807523727417 0.7551441192626953
vt 0.8909736275672913 0.75611412525177
vt 0.8899410367012024 0.7551584243774414
vt 0.893330454826355 0.7561269402503967
vt 0.8909736275672913 0.7584196329116821
vt 0.893330454826355 0.7584288716316223
vt 0.894521951675415 0.7572759389877319
vt 0.8909736275672913 0.7584196329116821
vt 0.8875807523727417 0.7594008445739746
vt 0.893330454826355 0.7584288716316223
vt 0.8875807523727417 0.7551441192626953
vt 0.8899410367012024 0.7551584243774414
vt 0.8848782181739807 0.7545185685157776
vt 0.8875807523727417 0.7594008445739746
vt 0.8899410367012024 0.7594085335731506
vt 0.893330454826355 0.7584288716316223
vt 0.8825129866600037 0.7545033097267151
vt 0.8875807523727417 0.7551441192626953
vt 0.8848782181739807 0.7545185685157776
vt 0.878921627998352 0.754304051399231
vt 0.893330454826355 0.7561269402503967
vt 0.894521951675415 0.7572759389877319
vt 0.8875807523727417 0.7594008445739746
vt 0.8825129866600037 0.7600584030151367
vt 0.8899410367012024 0.7594085335731506
vt 0.8899410367012024 0.7551584243774414
vt 0.878921627998352 0.7602992653846741
vt 0.893330454826355 0.7584288716316223
vt 0.878921627998352 0.754304051399231
vt 0.8848782181739807 0.7545185685157776
vt 0.8899410367012024 0.7551584243774414
vt 0.8825129866600037 0.7545033097267151
vt 0.8848782181739807 0.7545185685157776
vt 0.878921627998352 0.754304051399231
vt 0.8848782181739807 0.7600650787353516
vt 0.878921627998352 0.7602992653846741
vt 0.893330454826355 0.7584288716316223
vt 0.8899410367012024 0.7594085335731506
vt 0.8765504360198975 0.7542884945869446
vt 0.8825129866600037 0.7545033097267151
vt 0.878921627998352 0.754304051399231
vt 0.8825129866600037 0.7600584030151367
vt 0.8765504360198975 0.7602929472923279
vt 0.8848782181739807 0.7600650787353516
vt 0.8899410367012024 0.7594085335731506
vt 0.8848782181739807 0.7600650787353516
vt 0.878921627998352 0.7602992653846741
vt 0.8765504360198975 0.7542884945869446
vt 0.878921627998352 0.754304051399231
vt 0.8729814291000366 0.7545458674430847
vt 0.8765504360198975 0.7602929472923279
vt 0.878921627998352 0.7602992653846741
vt 0.8848782181739807 0.7600650787353516
vt 0.8634337186813354 0.7573271989822388
vt 0.878921627998352 0.754304051399231
vt 0.894521951675415 0.7572759389877319
vt 0.8706043362617493 0.754530668258667
vt 0.8765504360198975 0.7542884945869446
vt 0.8729814291000366 0.7545458674430847
vt 0.894521951675415 0.7572759389877319
vt 0.878921627998352 0.7602992653846741
vt 0.8634337186813354 0.7573271989822388
vt 0.8765504360198975 0.7602929472923279
vt 0.8706043362617493 0.7600703835487366
vt 0.878921627998352 0.7602992653846741
vt 0.8679583668708801 0.755205512046814
vt 0.8729814291000366 0.7545458674430847
vt 0.878921627998352 0.754304051399231
vt 0.8706043362617493 0.754530668258667
vt 0.8729814291000366 0.7545458674430847
vt 0.8679583668708801 0.755205512046814
vt 0.8706043362617493 0.7600703835487366
vt 0.8729814291000366 0.7600770592689514
vt 0.878921627998352 0.7602992653846741
vt 0.865576446056366 0.7551913857460022
vt 0.8706043362617493 0.754530668258667
vt 0.8679583668708801 0.755205512046814
vt 0.878921627998352 0.754304051399231
vt 0.8646087646484375 0.7561819553375244
vt 0.8679583668708801 0.755205512046814
vt 0.8706043362617493 0.7600703835487366
vt 0.865576446056366 0.7594262957572937
vt 0.8729814291000366 0.7600770592689514
vt 0.878921627998352 0.7602992653846741
vt 0.8729814291000366 0.7600770592689514
vt 0.8679583668708801 0.7594339847564697
vt 0.878921627998352 0.754304051399231
vt 0.8634337186813354 0.7573271989822388
vt 0.8646087646484375 0.7561819553375244
vt 0.865576446056366 0.7551913857460022
vt 0.8679583668708801 0.755205512046814
vt 0.8646087646484375 0.7561819553375244
vt 0.8622233271598816 0.756169319152832
vt 0.8679583668708801 0.7594339847564697
vt 0.878921627998352 0.7602992653846741
vt 0.8679583668708801 0.7594339847564697
vt 0.8646087646484375 0.7584685683250427
vt 0.865576446056366 0.7594262957572937
vt 0.8622233271598816 0.7584594488143921
vt 0.8679583668708801 0.7594339847564697
vt 0.878921627998352 0.7602992653846741
vt 0.8646087646484375 0.7584685683250427
vt 0.8634337186813354 0.7573271989822388
vt 0.8610472083091736 0.7573163509368896
vt 0.8622233271598816 0.756169319152832
vt 0.8634337186813354 0.7573271989822388
vt 0.8622233271598816 0.7584594488143921
vt 0.8610472083091736 0.7573163509368896
vt 0.8646087646484375 0.7584685683250427
vt 0.8622233271598816 0.756169319152832
vt 0.8646087646484375 0.7561819553375244
vt 0.8634337186813354 0.7573271989822388
vt 0.8622233271598816 0.7584594488143921
vt 0.8646087646484375 0.7584685683250427
vt 0.8679583668708801 0.7594339847564697
vt 0.8610472083091736 0.7573163509368896
vt 0.8634337186813354 0.7573271989822388
vt 0.8646087646484375 0.7584685683250427
vn -0.19509272277355194 -0.9807847142219543 -0
vn -0.19509272277355194 -0.9807847142219543 -0
vn -0.19509272277355194 -0.9807847142219543 -0
vn 0.19509272277355194 -0.9807847142219543 -0
vn 0.19509272277355194 -0.9807847142219543 -0
vn 0.19509272277355194 -0.9807847142219543 -0
vn -0.19509215652942657 -0.9807848334312439 -0
vn -0.19509215652942657 -0.9807848334312439 -0
vn -0.19509215652942657 -0.9807848334312439 -0
vn -0.5555667877197266 -0.8314719796180725 -0
vn -0.5555667877197266 -0.8314719796180725 -0
vn -0.5555667877197266 -0.8314719796180725 -0
vn -0.5555667877197266 -0.8314719796180725 -0
vn 0.19509251415729523 -0.9807848334312439 -0
vn 0.19509251415729523 -0.9807848334312439 -0
vn 0.19509251415729523 -0.9807848334312439 -0
vn 0.5555667877197266 -0.8314719796180725 -0
vn 0.5555667877197266 -0.8314719796180725 -0
vn 0.5555667877197266 -0.8314719796180725 -0
vn -0.831468939781189 -0.5555712580680847 -0
vn -0.831468939781189 -0.5555712580680847 -0
vn -0.831468939781189 -0.5555712580680847 -0
vn 0.5555663108825684 -0.8314721584320068 -0
vn 0.5555663108825684 -0.8314721584320068 -0
vn 0.5555663108825684 -0.8314721584320068 -0
vn -0.8314697742462158 -0.5555700063705444 -0
vn -0.8314697742462158 -0.5555700063705444 -0
vn -0.8314697742462158 -0.5555700063705444 -0
vn 0 -0 -1
vn 0 -0 -1
vn 0 -0 -1
vn 0.8314719796180725 -0.5555667877197266 -0
vn 0.8314719796180725 -0.5555667877197266 -0
vn 0.8314719796180725 -0.5555667877197266 -0
vn 0 -0 -1
vn 0 -0 -1
vn 0 -0 -1
vn -0.000001541411506877921 -0 -0.9999999403953552
vn -0.000001541411506877921 -0 -0.9999999403953552
vn -0.000001541411506877921 -0 -0.9999999403953552
vn -0.9807847142219543 -0.19509278237819672 -0
vn -0.9807847142219543 -0.19509278237819672 -0
vn -0.9807847142219543 -0.19509278237819672 -0
vn 0.8314719796180725 -0.5555667877197266 -0
vn 0 -0 -0.9999999403953552
vn 0 -0 -0.9999999403953552
vn 0 -0 -0.9999999403953552
vn -0.9807851910591125 -0.1950906366109848 -0
vn -0.9807851910591125 -0.1950906366109848 -0
vn -0.9807851910591125 -0.1950906366109848 -0
vn 0.980785071849823 -0.19509154558181763 -0
vn 0.980785071849823 -0.19509154558181763 -0
vn 0.980785071849823 -0.19509154558181763 -0
vn 0.000001541437654850597 -0 -1
vn 0.000001541437654850597 -0 -1
vn 0.000001541437654850597 -0 -1
vn -0.9807847142219543 0.19509314000606537 -0
vn -0.9807847142219543 0.19509314000606537 -0
vn -0.9807847142219543 0.19509314000606537 -0
vn 0.9807851910591125 -0.19509100914001465 -0
vn 0.9807851910591125 -0.19509100914001465 -0
vn 0.9807851910591125 -0.19509100914001465 -0
vn 0.00000008980336474451178 -0 -1
vn 0.00000008980336474451178 -0 -1
vn 0.00000008980336474451178 -0 -1
vn -0.9807843565940857 0.1950947642326355 -0
vn -0.9807843565940857 0.1950947642326355 -0
vn -0.9807843565940857 0.1950947642326355 -0
vn -0.00000008980357790733251 -0 -1
vn -0.00000008980357790733251 -0 -1
vn -0.00000008980357790733251 -0 -1
vn 0.9807848334312439 0.19509299099445343 -0
vn 0.9807848334312439 0.19509299099445343 -0
vn 0.9807848334312439 0.19509299099445343 -0
vn -0.000001541437654850597 -0 -1
vn -0.000001541437654850597 -0 -1
vn -0.000001541437654850597 -0 -1
vn -0.8314697742462158 0.5555700063705444 -0
vn -0.8314697742462158 0.5555700063705444 -0
vn -0.8314697742462158 0.5555700063705444 -0
vn 0.9807845950126648 0.1950940489768982 -0
vn 0.9807845950126648 0.1950940489768982 -0
vn 0.9807845950126648 0.1950940489768982 -0
vn -0.831468939781189 0.5555712580680847 -0
vn -0.831468939781189 0.5555712580680847 -0
vn -0.831468939781189 0.5555712580680847 -0
vn 0.000001082553353626281 -0 -1
vn 0.000001082553353626281 -0 -1
vn 0.000001082553353626281 -0 -1
vn 0.8314719796180725 0.5555667877197266 -0
vn 0.8314719796180725 0.5555667877197266 -0
vn 0.8314719796180725 0.5555667877197266 -0
vn 0.0000015414661902468652 -0 -1
vn 0.0000015414661902468652 -0 -1
vn 0.0000015414661902468652 -0 -1
vn -0.000000585876648528938 -0 -1
vn -0.000000585876648528938 -0 -1
vn -0.000000585876648528938 -0 -1
vn -0.5555667877197266 0.8314719796180725 -0
vn -0.5555667877197266 0.8314719796180725 -0
vn -0.5555667877197266 0.8314719796180725 -0
vn -0.5555667877197266 0.8314719796180725 -0
vn 0.8314719796180725 0.5555667877197266 -0
vn -0.0000010825498293343117 -0 -1
vn -0.0000010825498293343117 -0 -1
vn -0.0000010825498293343117 -0 -1
vn 0.5555663108825684 0.8314721584320068 -0
vn 0.5555663108825684 0.8314721584320068 -0
vn 0.5555663108825684 0.8314721584320068 -0
vn 0.000000585876648528938 -0 -1
vn 0.000000585876648528938 -0 -1
vn 0.000000585876648528938 -0 -1
vn -0.19509238004684448 0.9807848334312439 -0
vn -0.19509238004684448 0.9807848334312439 -0
vn -0.19509238004684448 0.9807848334312439 -0
vn 0.19509272277355194 0.9807847142219543 -0
vn 0.19509272277355194 0.9807847142219543 -0
vn 0.19509272277355194 0.9807847142219543 -0
vn -0.19509251415729523 0.9807848334312439 -0
vn -0.19509251415729523 0.9807848334312439 -0
vn -0.19509251415729523 0.9807848334312439 -0
vn 0.5555667877197266 0.8314719796180725 -0
vn 0.5555667877197266 0.8314719796180725 -0
vn 0.5555667877197266 0.8314719796180725 -0
vn 0.19509251415729523 0.9807848334312439 -0
vn 0.19509251415729523 0.9807848334312439 -0
vn 0.19509251415729523 0.9807848334312439 -0
f 3/3/3 2/2/2 1/1/1
f 6/6/6 5/5/5 4/4/4
f 9/9/9 8/8/8 7/7/7
f 12/12/12 11/11/11 10/10/10
f 12/12/12 13/13/13 11/11/11
f 16/16/16 15/15/15 14/14/14
f 19/19/19 18/18/18 17/17/17
f 22/22/22 21/21/21 20/20/20
f 25/25/25 24/24/24 23/23/23
f 28/28/28 27/27/27 26/26/26
f 31/31/31 30/30/30 29/29/29
f 34/34/34 33/33/33 32/32/32
f 30/30/30 35/35/35 29/29/29
f 37/37/37 31/31/31 36/36/36
f 40/40/40 39/39/39 38/38/38
f 43/43/43 42/42/42 41/41/41
f 34/34/34 44/44/44 33/33/33
f 47/47/47 46/46/46 45/45/45
f 50/50/50 49/49/49 48/48/48
f 53/53/53 52/52/52 51/51/51
f 56/56/56 55/55/55 54/54/54
f 59/59/59 58/58/58 57/57/57
f 62/62/62 61/61/61 60/60/60
f 65/65/65 64/64/64 63/63/63
f 68/68/68 67/67/67 66/66/66
f 71/71/71 70/70/70 69/69/69
f 74/74/74 73/73/73 72/72/72
f 77/77/77 76/76/76 75/75/75
f 80/80/80 79/79/79 78/78/78
f 83/83/83 82/82/82 81/81/81
f 86/86/86 85/85/85 84/84/84
f 89/89/89 88/88/88 87/87/87
f 92/92/92 91/91/91 90/90/90
f 95/95/95 94/94/94 93/93/93
f 98/98/98 97/97/97 96/96/96
f 101/101/101 100/100/100 99/99/99
f 101/101/101 99/99/99 102/102/102
f 92/92/92 103/103/103 91/91/91
f 106/106/106 105/105/105 104/104/104
f 109/109/109 108/108/108 107/107/107
f 112/112/112 111/111/111 110/110/110
f 115/115/115 114/114/114 113/113/113
f 118/118/118 117/117/117 116/116/116
f 121/121/121 120/120/120 119/119/119
f 124/124/124 123/123/123 122/122/122
f 127/127/127 126/126/126 125/125/125
