# VPXTOOL table OBJ file
# VPXTOOL OBJ file
# numVerts: 108 numFaces: 108
o LM_L_LW8_Playfield
v 433.77423095703125 800.4548950195313 0.000045564884203486145
v 496.4731750488281 800.4548950195313 0.00005215082273934968
v 496.4731750488281 962.6049194335938 0.00005215082273934968
v 496.4731750488281 962.6049194335938 0.00005215082273934968
v 496.4731750488281 800.4548950195313 0.00005215082273934968
v 525.080078125 899.4360961914063 0.00005521504863281734
v 371.0752868652344 962.6049194335938 0.00003897810529451817
v 433.77423095703125 800.4548950195313 0.000045564884203486145
v 496.4731750488281 962.6049194335938 0.00005215082273934968
v 525.080078125 899.4360961914063 0.00005521504863281734
v 519.5333862304688 920.3027954101563 0.00005262684135232121
v 496.4731750488281 962.6049194335938 0.00005215082273934968
v 496.4731750488281 962.6049194335938 0.00005215082273934968
v 519.5333862304688 920.3027954101563 0.00005262684135232121
v 520.7332153320313 921.7595825195313 0.00005262684135232121
v 496.4731750488281 962.6049194335938 0.00005215082273934968
v 520.7332153320313 921.7595825195313 0.00005262684135232121
v 565.6812744140625 933.7074584960938 0.000060391459555830806
v 614.4701538085938 1033.937255859375 0.00006556786684086546
v 496.4731750488281 962.6049194335938 0.00005215082273934968
v 565.6812744140625 933.7074584960938 0.000060391459555830806
v 371.0752868652344 1081.0001220703125 0.00003897810529451817
v 371.0752868652344 962.6049194335938 0.00003897810529451817
v 496.4731750488281 962.6049194335938 0.00005215082273934968
v 496.4731750488281 962.6049194335938 0.00005215082273934968
v 614.4701538085938 1033.937255859375 0.00006556786684086546
v 608.9234619140625 1054.803955078125 0.00006297966319834813
v 371.0752868652344 962.6049194335938 0.00003897810529451817
v 371.0752868652344 1081.0001220703125 0.00003897810529451817
v 295.6551208496094 1023.4926147460938 0.00003364666918059811
v 608.9234619140625 1054.803955078125 0.00006297966319834813
v 489.9993896484375 1067.902099609375 0.000050978884246433154
v 496.4731750488281 962.6049194335938 0.00005215082273934968
v 293.907958984375 1024.9749755859375 0.00003364666918059811
v 295.6551208496094 1023.4926147460938 0.00003364666918059811
v 371.0752868652344 1081.0001220703125 0.00003897810529451817
v 489.9993896484375 1067.902099609375 0.000050978884246433154
v 371.0752868652344 1081.0001220703125 0.00003897810529451817
v 496.4731750488281 962.6049194335938 0.00005215082273934968
v 371.0752868652344 1081.0001220703125 0.00003897810529451817
v 249.9454345703125 1036.4886474609375 0.00002847026007657405
v 293.907958984375 1024.9749755859375 0.00003364666918059811
v 249.9454345703125 1036.4886474609375 0.00002847026007657405
v 371.0752868652344 1081.0001220703125 0.00003897810529451817
v 170.62278747558594 1109.1495361328125 0.000017254702470381744
v 170.62278747558594 1109.1495361328125 0.000017254702470381744
v 371.0752868652344 1081.0001220703125 0.00003897810529451817
v 169.7532958984375 1110.6680908203125 0.000017254702470381744
v 552.6983032226563 1248.0687255859375 0.000057565663155401126
v 608.9234619140625 1054.803955078125 0.00006297966319834813
v 610.1233520507813 1056.2606201171875 0.00006556786684086546
v 489.9993896484375 1067.902099609375 0.000050978884246433154
v 608.9234619140625 1054.803955078125 0.00006297966319834813
v 552.6983032226563 1248.0687255859375 0.000057565663155401126
v 371.0752868652344 1081.0001220703125 0.00003897810529451817
v 489.9993896484375 1067.902099609375 0.000050978884246433154
v 433.77423095703125 1261.166748046875 0.000045564884203486145
v 371.0752868652344 1081.0001220703125 0.00003897810529451817
v 264.8710021972656 1261.166748046875 0.000027822365154861473
v 169.7532958984375 1110.6680908203125 0.000017254702470381744
v 334.3703308105469 1200.62939453125 0.000034949196560774
v 371.0752868652344 1081.0001220703125 0.00003897810529451817
v 334.4695129394531 1201.0145263671875 0.000034949196560774
v 334.4695129394531 1201.0145263671875 0.000034949196560774
v 371.0752868652344 1081.0001220703125 0.00003897810529451817
v 334.5137939453125 1201.749755859375 0.000034949196560774
v 371.0752868652344 1081.0001220703125 0.00003897810529451817
v 433.77423095703125 1261.166748046875 0.000045564884203486145
v 334.5137939453125 1201.749755859375 0.000034949196560774
v 552.6983032226563 1248.0687255859375 0.000057565663155401126
v 610.1233520507813 1056.2606201171875 0.00006556786684086546
v 553.2982788085938 1248.7969970703125 0.0000588597686146386
v 289.6562805175781 1300.857177734375 0.0000302732405543793
v 371.0752868652344 1081.0001220703125 0.00003897810529451817
v 334.3703308105469 1200.62939453125 0.000034949196560774
v 489.9993896484375 1067.902099609375 0.000050978884246433154
v 552.6983032226563 1248.0687255859375 0.000057565663155401126
v 433.77423095703125 1261.166748046875 0.000045564884203486145
v 288.21502685546875 1298.515869140625 0.000029626189643749967
v 264.8710021972656 1261.166748046875 0.000027822365154861473
v 371.0752868652344 1081.0001220703125 0.00003897810529451817
v 288.21502685546875 1298.515869140625 0.000029626189643749967
v 371.0752868652344 1081.0001220703125 0.00003897810529451817
v 289.2329406738281 1299.7633056640625 0.00002984187267429661
v 289.2329406738281 1299.7633056640625 0.00002984187267429661
v 371.0752868652344 1081.0001220703125 0.00003897810529451817
v 289.6562805175781 1300.857177734375 0.0000302732405543793
v 297.8637390136719 1321.029052734375 0.00003092029146500863
v 334.4695129394531 1201.0145263671875 0.000034949196560774
v 334.5137939453125 1201.749755859375 0.000034949196560774
v 433.77423095703125 1261.166748046875 0.000045564884203486145
v 297.95233154296875 1322.4993896484375 0.00003092029146500863
v 334.5137939453125 1201.749755859375 0.000034949196560774
v 334.5137939453125 1201.749755859375 0.000034949196560774
v 297.95233154296875 1322.4993896484375 0.00003092029146500863
v 297.8637390136719 1321.029052734375 0.00003092029146500863
v 553.2982788085938 1248.7969970703125 0.0000588597686146386
v 496.4731750488281 1441.3333740234375 0.00005215082273934968
v 552.6983032226563 1248.0687255859375 0.000057565663155401126
v 433.77423095703125 1261.166748046875 0.000045564884203486145
v 552.6983032226563 1248.0687255859375 0.000057565663155401126
v 496.4731750488281 1441.3333740234375 0.00005215082273934968
v 433.77423095703125 1261.166748046875 0.000045564884203486145
v 397.2127380371094 1381.9163818359375 0.00004153597910772078
v 297.95233154296875 1322.4993896484375 0.00003092029146500863
v 433.77423095703125 1261.166748046875 0.000045564884203486145
v 496.4731750488281 1441.3333740234375 0.00005215082273934968
v 397.2127380371094 1381.9163818359375 0.00004153597910772078
vt 0.7485056519508362 0.7414195537567139
vt 0.7565482258796692 0.7414195537567139
vt 0.7566136717796326 0.7585519552230835
vt 0.7566136717796326 0.7585519552230835
vt 0.7565482258796692 0.7414195537567139
vt 0.760312557220459 0.7517771124839783
vt 0.7401277422904968 0.7585519552230835
vt 0.7485056519508362 0.7414195537567139
vt 0.7566136717796326 0.7585519552230835
vt 0.760312557220459 0.7517771124839783
vt 0.7596083879470825 0.7540006041526794
vt 0.7566136717796326 0.7585519552230835
vt 0.7566136717796326 0.7585519552230835
vt 0.7596083879470825 0.7540006041526794
vt 0.7597663998603821 0.7541563510894775
vt 0.7566136717796326 0.7585519552230835
vt 0.7597663998603821 0.7541563510894775
vt 0.7656602263450623 0.7554364204406738
vt 0.7723283767700195 0.766362190246582
vt 0.7566136717796326 0.7585519552230835
vt 0.7656602263450623 0.7554364204406738
vt 0.7398720979690552 0.771610677242279
vt 0.7401277422904968 0.7585519552230835
vt 0.7566136717796326 0.7585519552230835
vt 0.7566136717796326 0.7585519552230835
vt 0.7723283767700195 0.766362190246582
vt 0.7716485261917114 0.7686797380447388
vt 0.7401277422904968 0.7585519552230835
vt 0.7398720979690552 0.771610677242279
vt 0.7299883365631104 0.7652077674865723
vt 0.7716485261917114 0.7686797380447388
vt 0.7557927966117859 0.7701421976089478
vt 0.7566136717796326 0.7585519552230835
vt 0.72975093126297 0.7653714418411255
vt 0.7299883365631104 0.7652077674865723
vt 0.7398720979690552 0.771610677242279
vt 0.7557927966117859 0.7701421976089478
vt 0.7398720979690552 0.771610677242279
vt 0.7566136717796326 0.7585519552230835
vt 0.7398720979690552 0.771610677242279
vt 0.723861575126648 0.7666447758674622
vt 0.72975093126297 0.7653714418411255
vt 0.723861575126648 0.7666447758674622
vt 0.7398720979690552 0.771610677242279
vt 0.7128494381904602 0.7747870087623596
vt 0.7128494381904602 0.7747870087623596
vt 0.7398720979690552 0.771610677242279
vt 0.712722659111023 0.774959146976471
vt 0.7644681930541992 0.7908834218978882
vt 0.7716485261917114 0.7686797380447388
vt 0.7718126177787781 0.7688421010971069
vt 0.7557927966117859 0.7701421976089478
vt 0.7716485261917114 0.7686797380447388
vt 0.7644681930541992 0.7908834218978882
vt 0.7398720979690552 0.771610677242279
vt 0.7557927966117859 0.7701421976089478
vt 0.7481037378311157 0.792438268661499
vt 0.7398720979690552 0.771610677242279
vt 0.7248302698135376 0.792438268661499
vt 0.712722659111023 0.774959146976471
vt 0.7345951795578003 0.785306453704834
vt 0.7398720979690552 0.771610677242279
vt 0.7346075177192688 0.7853513956069946
vt 0.7346075177192688 0.7853513956069946
vt 0.7398720979690552 0.771610677242279
vt 0.7346112728118896 0.7854372262954712
vt 0.7398720979690552 0.771610677242279
vt 0.7481037378311157 0.792438268661499
vt 0.7346112728118896 0.7854372262954712
vt 0.7644681930541992 0.7908834218978882
vt 0.7718126177787781 0.7688421010971069
vt 0.7645519375801086 0.790969729423523
vt 0.7280802726745605 0.7971900701522827
vt 0.7398720979690552 0.771610677242279
vt 0.7345951795578003 0.785306453704834
vt 0.7557927966117859 0.7701421976089478
vt 0.7644681930541992 0.7908834218978882
vt 0.7481037378311157 0.792438268661499
vt 0.7278903126716614 0.7969080805778503
vt 0.7248302698135376 0.792438268661499
vt 0.7398720979690552 0.771610677242279
vt 0.7278903126716614 0.7969080805778503
vt 0.7398720979690552 0.771610677242279
vt 0.7280261516571045 0.7970582842826843
vt 0.7280261516571045 0.7970582842826843
vt 0.7398720979690552 0.771610677242279
vt 0.7280802726745605 0.7971900701522827
vt 0.7291374206542969 0.7996286153793335
vt 0.7346075177192688 0.7853513956069946
vt 0.7346112728118896 0.7854372262954712
vt 0.7481037378311157 0.792438268661499
vt 0.7291438579559326 0.7998069524765015
vt 0.7346112728118896 0.7854372262954712
vt 0.7346112728118896 0.7854372262954712
vt 0.7291438579559326 0.7998069524765015
vt 0.7291374206542969 0.7996286153793335
vt 0.7645519375801086 0.790969729423523
vt 0.7568274140357971 0.8145108222961426
vt 0.7644681930541992 0.7908834218978882
vt 0.7481037378311157 0.792438268661499
vt 0.7644681930541992 0.7908834218978882
vt 0.7568274140357971 0.8145108222961426
vt 0.7481037378311157 0.792438268661499
vt 0.7428505420684814 0.8070871233940125
vt 0.7291438579559326 0.7998069524765015
vt 0.7481037378311157 0.792438268661499
vt 0.7568274140357971 0.8145108222961426
vt 0.7428505420684814 0.8070871233940125
vn 0.00000010504064817951075 -0 -0.9999999403953552
vn 0.00000010504064817951075 -0 -0.9999999403953552
vn 0.00000010504064817951075 -0 -0.9999999403953552
vn 0.00000010711467979263034 -0 -0.9999999403953552
vn 0.00000010711467979263034 -0 -0.9999999403953552
vn 0.00000010711467979263034 -0 -0.9999999403953552
vn 0.0000001050473272812269 -0.000000000002567663096031403 -0.9999999403953552
vn 0.0000001050473272812269 -0.000000000002567663096031403 -0.9999999403953552
vn 0.0000001050473272812269 -0.000000000002567663096031403 -0.9999999403953552
vn -0.0000004037750613861135 -0.00000023136276183777227 -1
vn -0.0000004037750613861135 -0.00000023136276183777227 -1
vn -0.0000004037750613861135 -0.00000023136276183777227 -1
vn 0.00000000822257639754298 -0.000000006771201377375746 -0.9999999403953552
vn 0.00000000822257639754298 -0.000000006771201377375746 -0.9999999403953552
vn 0.00000000822257639754298 -0.000000006771201377375746 -0.9999999403953552
vn 0.0000001518679368928133 0.00000007854777805960111 -1
vn 0.0000001518679368928133 0.00000007854777805960111 -1
vn 0.0000001518679368928133 0.00000007854777805960111 -1
vn 0.00000011687900780543714 -0.000000005248093071230642 -1
vn 0.00000011687900780543714 -0.000000005248093071230642 -1
vn 0.00000011687900780543714 -0.000000005248093071230642 -1
vn 0.00000010504741254635519 -0 -1
vn 0.00000010504741254635519 -0 -1
vn 0.00000010504741254635519 -0 -1
vn 0.0000001625657120030155 -0.0000000808221400916409 -0.9999999403953552
vn 0.0000001625657120030155 -0.0000000808221400916409 -0.9999999403953552
vn 0.0000001625657120030155 -0.0000000808221400916409 -0.9999999403953552
vn 0.00000007068971541457358 -0 -1
vn 0.00000007068971541457358 -0 -1
vn 0.00000007068971541457358 -0 -1
vn 0.0000001003650069719697 -0.000000004959148647287748 -1
vn 0.0000001003650069719697 -0.000000004959148647287748 -1
vn 0.0000001003650069719697 -0.000000004959148647287748 -1
vn 0.00000003723116392961856 0.00000004388384766684794 -1
vn 0.00000003723116392961856 0.00000004388384766684794 -1
vn 0.00000003723116392961856 0.00000004388384766684794 -1
vn 0.00000010036526987278194 -0.000000004959280985872283 -0.9999999403953552
vn 0.00000010036526987278194 -0.000000004959280985872283 -0.9999999403953552
vn 0.00000010036526987278194 -0.000000004959280985872283 -0.9999999403953552
vn 0.00000010484755108564059 -0.00000004925201579908389 -0.9999999403953552
vn 0.00000010484755108564059 -0.00000004925201579908389 -0.9999999403953552
vn 0.00000010484755108564059 -0.00000004925201579908389 -0.9999999403953552
vn 0.00000010239374859111194 -0.000000042574022529606736 -1
vn 0.00000010239374859111194 -0.000000042574022529606736 -1
vn 0.00000010239374859111194 -0.000000042574022529606736 -1
vn 0.00000011782609021793178 0.00000006745811020891779 -1
vn 0.00000011782609021793178 0.00000006745811020891779 -1
vn 0.00000011782609021793178 0.00000006745811020891779 -1
vn 0.0000016191818303923355 0.0000004430478384165326 -1
vn 0.0000016191818303923355 0.0000004430478384165326 -1
vn 0.0000016191818303923355 0.0000004430478384165326 -1
vn 0.0000001010641383913935 0.0000000013884523530904858 -1
vn 0.0000001010641383913935 0.0000000013884523530904858 -1
vn 0.0000001010641383913935 0.0000000013884523530904858 -1
vn 0.00000010106424497280386 0.0000000013885222971410371 -0.9999999403953552
vn 0.00000010106424497280386 0.0000000013885222971410371 -0.9999999403953552
vn 0.00000010106424497280386 0.0000000013885222971410371 -0.9999999403953552
vn 0.0000001081762022181465 0.0000000018484711539201726 -1
vn 0.0000001081762022181465 0.0000000018484711539201726 -1
vn 0.0000001081762022181465 0.0000000018484711539201726 -1
vn 0.00000005967792304772956 -0.000000015373805339891078 -0.9999999403953552
vn 0.00000005967792304772956 -0.000000015373805339891078 -0.9999999403953552
vn 0.00000005967792304772956 -0.000000015373805339891078 -0.9999999403953552
vn 0.00000009187768768015303 -0.0000000055325215519985704 -1
vn 0.00000009187768768015303 -0.0000000055325215519985704 -1
vn 0.00000009187768768015303 -0.0000000055325215519985704 -1
vn 0.00000010744595613232377 -0.0000000008324248512714405 -1
vn 0.00000010744595613232377 -0.0000000008324248512714405 -1
vn 0.00000010744595613232377 -0.0000000008324248512714405 -1
vn 0.0000016191867189263576 0.00000044303692448011134 -1
vn 0.0000016191867189263576 0.00000044303692448011134 -1
vn 0.0000016191867189263576 0.00000044303692448011134 -1
vn 0.00000009314403826010675 -0.000000005099882294246072 -1
vn 0.00000009314403826010675 -0.000000005099882294246072 -1
vn 0.00000009314403826010675 -0.000000005099882294246072 -1
vn 0.00000010106417391853029 0.0000000013885550487202636 -1
vn 0.00000010106417391853029 0.0000000013885550487202636 -1
vn 0.00000010106417391853029 0.0000000013885550487202636 -1
vn 0.00000009074965134914237 -0.000000008424113850935555 -1
vn 0.00000009074965134914237 -0.000000008424113850935555 -1
vn 0.00000009074965134914237 -0.000000008424113850935555 -1
vn 0.00000018036982396552048 0.000000025714316009839422 -1
vn 0.00000018036982396552048 0.000000025714316009839422 -1
vn 0.00000018036982396552048 0.000000025714316009839422 -1
vn 0.0000005730047405450023 0.00000017260782669836772 -1
vn 0.0000005730047405450023 0.00000017260782669836772 -1
vn 0.0000005730047405450023 0.00000017260782669836772 -1
vn 0.00000009193779959559834 -0.000000005534717129052069 -1
vn 0.00000009193779959559834 -0.000000005534717129052069 -1
vn 0.00000009193779959559834 -0.000000005534717129052069 -1
vn 0.00000010744597034317849 -0.0000000008324794187331008 -1
vn 0.00000010744597034317849 -0.0000000008324794187331008 -1
vn 0.00000010744597034317849 -0.0000000008324794187331008 -1
vn 0.00000009190502936462508 -0.000000005540080394439428 -1
vn 0.00000009190502936462508 -0.000000005540080394439428 -1
vn 0.00000009190502936462508 -0.000000005540080394439428 -1
vn 0.0000016191769418583135 0.00000044304178459242394 -1
vn 0.0000016191769418583135 0.00000044304178459242394 -1
vn 0.0000016191769418583135 0.00000044304178459242394 -1
vn 0.00000010106383996344448 0.000000001383965830825673 -0.9999999403953552
vn 0.00000010106383996344448 0.000000001383965830825673 -0.9999999403953552
vn 0.00000010106383996344448 0.000000001383965830825673 -0.9999999403953552
vn 0.00000010744609824087092 -0.0000000008324255729164065 -1
vn 0.00000010744609824087092 -0.0000000008324255729164065 -1
vn 0.00000010744609824087092 -0.0000000008324255729164065 -1
vn 0.00000010743893597009446 -0.0000000008346066060482826 -1
vn 0.00000010743893597009446 -0.0000000008346066060482826 -1
vn 0.00000010743893597009446 -0.0000000008346066060482826 -1
f 3/3/3 2/2/2 1/1/1
f 6/6/6 5/5/5 4/4/4
f 9/9/9 8/8/8 7/7/7
f 12/12/12 11/11/11 10/10/10
f 15/15/15 14/14/14 13/13/13
f 18/18/18 17/17/17 16/16/16
f 21/21/21 20/20/20 19/19/19
f 24/24/24 23/23/23 22/22/22
f 27/27/27 26/26/26 25/25/25
f 30/30/30 29/29/29 28/28/28
f 33/33/33 32/32/32 31/31/31
f 36/36/36 35/35/35 34/34/34
f 39/39/39 38/38/38 37/37/37
f 42/42/42 41/41/41 40/40/40
f 45/45/45 44/44/44 43/43/43
f 48/48/48 47/47/47 46/46/46
f 51/51/51 50/50/50 49/49/49
f 54/54/54 53/53/53 52/52/52
f 57/57/57 56/56/56 55/55/55
f 60/60/60 59/59/59 58/58/58
f 63/63/63 62/62/62 61/61/61
f 66/66/66 65/65/65 64/64/64
f 69/69/69 68/68/68 67/67/67
f 72/72/72 71/71/71 70/70/70
f 75/75/75 74/74/74 73/73/73
f 78/78/78 77/77/77 76/76/76
f 81/81/81 80/80/80 79/79/79
f 84/84/84 83/83/83 82/82/82
f 87/87/87 86/86/86 85/85/85
f 90/90/90 89/89/89 88/88/88
f 93/93/93 92/92/92 91/91/91
f 96/96/96 95/95/95 94/94/94
f 99/99/99 98/98/98 97/97/97
f 102/102/102 101/101/101 100/100/100
f 105/105/105 104/104/104 103/103/103
f 108/108/108 107/107/107 106/106/106
