# VPXTOOL table OBJ file
# VPXTOOL OBJ file
# numVerts: 145 numFaces: 147
o LM_L_LS1_BS1
v 7.610442161560059 55.45832443237305 -1.3808526992797852
v 7.610442161560059 55.45832443237305 -2.3247151374816895
v 14.773587226867676 53.99479675292969 -2.324716091156006
v 14.773587226867676 53.99479675292969 -1.3808537721633911
v 7.610442161560059 55.45832443237305 -1.3808526992797852
v 14.773587226867676 53.99479675292969 -2.324716091156006
v 0.31663069128990173 55.97547149658203 -1.3808517456054688
v 0.31663069128990173 55.97547149658203 -2.324714183807373
v 7.610442161560059 55.45832443237305 -2.3247151374816895
v 14.773587226867676 53.99479675292969 -1.3808537721633911
v 14.773587226867676 53.99479675292969 -2.324716091156006
v 21.68450927734375 51.608070373535156 -2.324716806411743
v 7.610442161560059 55.45832443237305 -1.3808526992797852
v 0.31663069128990173 55.97547149658203 -1.3808517456054688
v 7.610442161560059 55.45832443237305 -2.3247151374816895
v 21.68450927734375 51.608070373535156 -1.3808543682098389
v 14.773587226867676 53.99479675292969 -1.3808537721633911
v 21.68450927734375 51.608070373535156 -2.324716806411743
v 0.31663069128990173 55.97547149658203 -1.3808517456054688
v -6.981101036071777 55.5344123840332 -1.3808505535125732
v 0.31663069128990173 55.97547149658203 -2.324714183807373
v -6.981101036071777 55.5344123840332 -2.3247129917144775
v -6.981101036071777 55.5344123840332 -2.3247129917144775
v -6.981101036071777 55.5344123840332 -1.3808505535125732
v -14.159153938293457 54.14564514160156 -2.324711561203003
v 10.571155548095703 38.63297653198242 -5.854125499725342
v 14.773587226867676 53.99479675292969 -2.324716091156006
v 7.610442161560059 55.45832443237305 -2.3247151374816895
v 0.31663069128990173 55.97547149658203 -2.324714183807373
v 0.23361487686634064 40.04869079589844 -5.854124546051025
v 7.610442161560059 55.45832443237305 -2.3247151374816895
v 14.773587226867676 53.99479675292969 -2.324716091156006
v 10.571155548095703 38.63297653198242 -5.854125499725342
v 21.68450927734375 51.608070373535156 -2.324716806411743
v -6.981101036071777 55.5344123840332 -1.3808505535125732
v -14.159153938293457 54.14564514160156 -1.3808492422103882
v -14.159153938293457 54.14564514160156 -2.324711561203003
v 0.23361487686634064 40.04869079589844 -5.854124546051025
v 0.31663069128990173 55.97547149658203 -2.324714183807373
v -6.981101036071777 55.5344123840332 -2.3247129917144775
v -14.159153938293457 54.14564514160156 -1.3808492422103882
v -21.09453582763672 51.831138610839844 -1.3808479309082031
v -14.159153938293457 54.14564514160156 -2.324711561203003
v -14.159153938293457 54.14564514160156 -2.324711561203003
v -10.118102073669434 38.740867614746094 -5.854123115539551
v -6.981101036071777 55.5344123840332 -2.3247129917144775
v -21.09453582763672 51.831138610839844 -1.3808479309082031
v -21.09453582763672 51.831138610839844 -2.3247103691101074
v -14.159153938293457 54.14564514160156 -2.324711561203003
v 5.449697494506836 39.679080963134766 -5.854124546051025
v 10.571155548095703 38.63297653198242 -5.854125499725342
v 7.610442161560059 55.45832443237305 -2.3247151374816895
v 0.23361487686634064 40.04869079589844 -5.854124546051025
v 5.449697494506836 39.679080963134766 -5.854124546051025
v 7.610442161560059 55.45832443237305 -2.3247151374816895
v 10.571155548095703 38.63297653198242 -5.854125499725342
v 15.51406192779541 36.92649841308594 -5.854126453399658
v 21.68450927734375 51.608070373535156 -2.324716806411743
v -4.985021591186523 39.7335205078125 -5.854123592376709
v 0.23361487686634064 40.04869079589844 -5.854124546051025
v -6.981101036071777 55.5344123840332 -2.3247129917144775
v -10.118102073669434 38.740867614746094 -5.854123115539551
v -14.159153938293457 54.14564514160156 -2.324711561203003
v -21.09453582763672 51.831138610839844 -2.3247103691101074
v -10.118102073669434 38.740867614746094 -5.854123115539551
v -4.985021591186523 39.7335205078125 -5.854123592376709
v -6.981101036071777 55.5344123840332 -2.3247129917144775
v -21.09453582763672 51.831138610839844 -1.3808479309082031
v -27.669309616088867 48.63187026977539 -1.380846619606018
v -21.09453582763672 51.831138610839844 -2.3247103691101074
v -27.669309616088867 48.63187026977539 -1.380846619606018
v -27.669309616088867 48.63187026977539 -2.324708938598633
v -21.09453582763672 51.831138610839844 -2.3247103691101074
v -15.077546119689941 37.0860710144043 -5.854121208190918
v -21.09453582763672 51.831138610839844 -2.3247103691101074
v -27.669309616088867 48.63187026977539 -2.324708938598633
v -15.077546119689941 37.0860710144043 -5.854121208190918
v -10.118102073669434 38.740867614746094 -5.854123115539551
v -21.09453582763672 51.831138610839844 -2.3247103691101074
v 14.789074897766113 25.072050094604492 -5.854124546051025
v 15.51406192779541 36.92649841308594 -5.854126453399658
v 10.571155548095703 38.63297653198242 -5.854125499725342
v 9.037557601928711 23.7313175201416 -5.854123592376709
v 10.571155548095703 38.63297653198242 -5.854125499725342
v 5.449697494506836 39.679080963134766 -5.854124546051025
v 9.037557601928711 23.7313175201416 -5.854123592376709
v 5.449697494506836 39.679080963134766 -5.854124546051025
v 0.23361487686634064 40.04869079589844 -5.854124546051025
v -19.77790641784668 34.797515869140625 -5.854120254516602
v -15.077546119689941 37.0860710144043 -5.854121208190918
v -27.669309616088867 48.63187026977539 -2.324708938598633
v -9.201960563659668 24.430118560791016 -5.854121208190918
v 0.23361487686634064 40.04869079589844 -5.854124546051025
v -4.985021591186523 39.7335205078125 -5.854123592376709
v -9.201960563659668 24.430118560791016 -5.854121208190918
v -4.985021591186523 39.7335205078125 -5.854123592376709
v -10.118102073669434 38.740867614746094 -5.854123115539551
v -14.288522720336914 25.904691696166992 -5.854120254516602
v -10.118102073669434 38.740867614746094 -5.854123115539551
v -15.077546119689941 37.0860710144043 -5.854121208190918
v 10.571155548095703 38.63297653198242 -5.854125499725342
v 9.037557601928711 23.7313175201416 -5.854123592376709
v 14.789074897766113 25.072050094604492 -5.854124546051025
v -14.288522720336914 25.904691696166992 -5.854120254516602
v -15.077546119689941 37.0860710144043 -5.854121208190918
v -19.77790641784668 34.797515869140625 -5.854120254516602
v 9.037557601928711 23.7313175201416 -5.854123592376709
v 0.23361487686634064 40.04869079589844 -5.854124546051025
v -9.201960563659668 24.430118560791016 -5.854121208190918
v -9.201960563659668 24.430118560791016 -5.854121208190918
v -10.118102073669434 38.740867614746094 -5.854123115539551
v -14.288522720336914 25.904691696166992 -5.854120254516602
v 14.315619468688965 24.24216651916504 -6.0729899406433105
v 14.789074897766113 25.072050094604492 -5.854124546051025
v 9.037557601928711 23.7313175201416 -5.854123592376709
v 9.230257987976074 22.907730102539063 -6.072989463806152
v 14.315619468688965 24.24216651916504 -6.0729899406433105
v 9.037557601928711 23.7313175201416 -5.854123592376709
v -19.77790641784668 34.797515869140625 -5.854120254516602
v -19.898406982421875 24.202743530273438 -5.854119300842285
v -14.288522720336914 25.904691696166992 -5.854120254516602
v 9.037557601928711 23.7313175201416 -5.854123592376709
v 4.768496036529541 19.505489349365234 -5.854123115539551
v 9.230257987976074 22.907730102539063 -6.072989463806152
v 9.037557601928711 23.7313175201416 -5.854123592376709
v -9.201960563659668 24.430118560791016 -5.854121208190918
v -5.378180503845215 20.89359474182129 -5.854121208190918
v -14.288522720336914 25.904691696166992 -5.854120254516602
v -14.181598663330078 24.390695571899414 -5.714125156402588
v -9.201960563659668 24.430118560791016 -5.854121208190918
v -14.181598663330078 24.390695571899414 -5.714125156402588
v -9.11038589477539 23.00336265563965 -5.714126110076904
v -9.201960563659668 24.430118560791016 -5.854121208190918
v 4.768496036529541 19.505489349365234 -5.854123115539551
v 9.037557601928711 23.7313175201416 -5.854123592376709
v -5.378180503845215 20.89359474182129 -5.854121208190918
v -19.2669734954834 23.056257247924805 -5.7141242027282715
v -14.181598663330078 24.390695571899414 -5.714125156402588
v -14.288522720336914 25.904691696166992 -5.854120254516602
v -5.378180503845215 20.89359474182129 -5.854121208190918
v -9.201960563659668 24.430118560791016 -5.854121208190918
v -9.11038589477539 23.00336265563965 -5.714126110076904
v -19.898406982421875 24.202743530273438 -5.854119300842285
v -19.2669734954834 23.056257247924805 -5.7141242027282715
v -14.288522720336914 25.904691696166992 -5.854120254516602
vt 0.972672700881958 0.05721426010131836
vt 0.972531259059906 0.05723726749420166
vt 0.9721505641937256 0.05530142784118652
vt 0.9722920656204224 0.055278897285461426
vt 0.972672700881958 0.05721426010131836
vt 0.9721505641937256 0.05530142784118652
vt 0.9728072285652161 0.05917179584503174
vt 0.9726658463478088 0.05919533967971802
vt 0.972531259059906 0.05723726749420166
vt 0.9722920656204224 0.055278897285461426
vt 0.9721505641937256 0.05530142784118652
vt 0.9715301394462585 0.05342143774032593
vt 0.972672700881958 0.05721426010131836
vt 0.9728072285652161 0.05917179584503174
vt 0.972531259059906 0.05723726749420166
vt 0.9716717600822449 0.05339932441711426
vt 0.9722920656204224 0.055278897285461426
vt 0.9715301394462585 0.05342143774032593
vt 0.9728072285652161 0.05917179584503174
vt 0.9726924896240234 0.06111663579940796
vt 0.9726658463478088 0.05919533967971802
vt 0.9725510478019714 0.06114065647125244
vt 0.9725510478019714 0.06114065647125244
vt 0.9726924896240234 0.06111663579940796
vt 0.9721897840499878 0.06303948163986206
vt 0.9676328897476196 0.05629599094390869
vt 0.9721505641937256 0.05530142784118652
vt 0.972531259059906 0.05723726749420166
vt 0.9726658463478088 0.05919533967971802
vt 0.9679995775222778 0.05907630920410156
vt 0.972531259059906 0.05723726749420166
vt 0.9721505641937256 0.05530142784118652
vt 0.9676328897476196 0.05629599094390869
vt 0.9715301394462585 0.05342143774032593
vt 0.9726924896240234 0.06111663579940796
vt 0.9723313450813293 0.06301498413085938
vt 0.9721897840499878 0.06303948163986206
vt 0.9679995775222778 0.05907630920410156
vt 0.9726658463478088 0.05919533967971802
vt 0.9725510478019714 0.06114065647125244
vt 0.9723313450813293 0.06301498413085938
vt 0.9717296957969666 0.06483352184295654
vt 0.9721897840499878 0.06303948163986206
vt 0.9721897840499878 0.06303948163986206
vt 0.9676607847213745 0.0618213415145874
vt 0.9725510478019714 0.06114065647125244
vt 0.9717296957969666 0.06483352184295654
vt 0.971588134765625 0.06485849618911743
vt 0.9721897840499878 0.06303948163986206
vt 0.9679037928581238 0.057678163051605225
vt 0.9676328897476196 0.05629599094390869
vt 0.972531259059906 0.05723726749420166
vt 0.9679995775222778 0.05907630920410156
vt 0.9679037928581238 0.057678163051605225
vt 0.972531259059906 0.05723726749420166
vt 0.9676328897476196 0.05629599094390869
vt 0.9671911001205444 0.054952919483184814
vt 0.9715301394462585 0.05342143774032593
vt 0.9679179191589355 0.060465335845947266
vt 0.9679995775222778 0.05907630920410156
vt 0.9725510478019714 0.06114065647125244
vt 0.9676607847213745 0.0618213415145874
vt 0.9721897840499878 0.06303948163986206
vt 0.971588134765625 0.06485849618911743
vt 0.9676607847213745 0.0618213415145874
vt 0.9679179191589355 0.060465335845947266
vt 0.9725510478019714 0.06114065647125244
vt 0.9717296957969666 0.06483352184295654
vt 0.9708988666534424 0.0665406584739685
vt 0.971588134765625 0.06485849618911743
vt 0.9708988666534424 0.0665406584739685
vt 0.9707571268081665 0.06656605005264282
vt 0.971588134765625 0.06485849618911743
vt 0.967232346534729 0.06312066316604614
vt 0.971588134765625 0.06485849618911743
vt 0.9707571268081665 0.06656605005264282
vt 0.967232346534729 0.06312066316604614
vt 0.9676607847213745 0.0618213415145874
vt 0.971588134765625 0.06485849618911743
vt 0.9641284346580505 0.05498373508453369
vt 0.9671911001205444 0.054952919483184814
vt 0.9676328897476196 0.05629599094390869
vt 0.963782787322998 0.056497395038604736
vt 0.9676328897476196 0.05629599094390869
vt 0.9679037928581238 0.057678163051605225
vt 0.963782787322998 0.056497395038604736
vt 0.9679037928581238 0.057678163051605225
vt 0.9679995775222778 0.05907630920410156
vt 0.9666402339935303 0.06434053182601929
vt 0.967232346534729 0.06312066316604614
vt 0.9707571268081665 0.06656605005264282
vt 0.963962972164154 0.06136602163314819
vt 0.9679995775222778 0.05907630920410156
vt 0.9679179191589355 0.060465335845947266
vt 0.963962972164154 0.06136602163314819
vt 0.9679179191589355 0.060465335845947266
vt 0.9676607847213745 0.0618213415145874
vt 0.9643431901931763 0.06274306774139404
vt 0.9676607847213745 0.0618213415145874
vt 0.967232346534729 0.06312066316604614
vt 0.9676328897476196 0.05629599094390869
vt 0.963782787322998 0.056497395038604736
vt 0.9641284346580505 0.05498373508453369
vt 0.9643431901931763 0.06274306774139404
vt 0.967232346534729 0.06312066316604614
vt 0.9666402339935303 0.06434053182601929
vt 0.963782787322998 0.056497395038604736
vt 0.9679995775222778 0.05907630920410156
vt 0.963962972164154 0.06136602163314819
vt 0.963962972164154 0.06136602163314819
vt 0.9676607847213745 0.0618213415145874
vt 0.9643431901931763 0.06274306774139404
vt 0.963881254196167 0.05510371923446655
vt 0.9641284346580505 0.05498373508453369
vt 0.963782787322998 0.056497395038604736
vt 0.9635372757911682 0.056439876556396484
vt 0.963881254196167 0.05510371923446655
vt 0.963782787322998 0.056497395038604736
vt 0.9666402339935303 0.06434053182601929
vt 0.9639043211936951 0.06421208381652832
vt 0.9643431901931763 0.06274306774139404
vt 0.963782787322998 0.056497395038604736
vt 0.9626942276954651 0.05757492780685425
vt 0.9635372757911682 0.056439876556396484
vt 0.963782787322998 0.056497395038604736
vt 0.963962972164154 0.06136602163314819
vt 0.9630516767501831 0.06029599905014038
vt 0.9643431901931763 0.06274306774139404
vt 0.9639739990234375 0.06268835067749023
vt 0.963962972164154 0.06136602163314819
vt 0.9639739990234375 0.06268835067749023
vt 0.9636163711547852 0.06131714582443237
vt 0.963962972164154 0.06136602163314819
vt 0.9626942276954651 0.05757492780685425
vt 0.963782787322998 0.056497395038604736
vt 0.9630516767501831 0.06029599905014038
vt 0.9636300206184387 0.06402289867401123
vt 0.9639739990234375 0.06268835067749023
vt 0.9643431901931763 0.06274306774139404
vt 0.9630516767501831 0.06029599905014038
vt 0.963962972164154 0.06136602163314819
vt 0.9636163711547852 0.06131714582443237
vt 0.9639043211936951 0.06421208381652832
vt 0.9636300206184387 0.06402289867401123
vt 0.9643431901931763 0.06274306774139404
vn 0.20017839968204498 0.9797594547271729 -0
vn 0.20017839968204498 0.9797594547271729 -0
vn 0.20017839968204498 0.9797594547271729 -0
vn 0.20017848908901215 0.9797594547271729 -0
vn 0.20017848908901215 0.9797594547271729 -0
vn 0.20017848908901215 0.9797594547271729 -0
vn 0.0707242488861084 0.9974959492683411 -0
vn 0.0707242488861084 0.9974959492683411 -0
vn 0.0707242488861084 0.9974959492683411 -0
vn 0.3264368176460266 0.9452190399169922 -0
vn 0.3264368176460266 0.9452190399169922 -0
vn 0.3264368176460266 0.9452190399169922 -0
vn 0.07072421908378601 0.9974959492683411 -0
vn 0.07072421908378601 0.9974959492683411 -0
vn 0.07072421908378601 0.9974959492683411 -0
vn 0.32643672823905945 0.9452190399169922 -0
vn 0.32643672823905945 0.9452190399169922 -0
vn 0.32643672823905945 0.9452190399169922 -0
vn -0.06032758578658104 0.9981786608695984 -0
vn -0.06032758578658104 0.9981786608695984 -0
vn -0.06032758578658104 0.9981786608695984 -0
vn -0.06032758578658104 0.9981786608695984 -0
vn -0.18995174765586853 0.9817934036254883 -0
vn -0.18995174765586853 0.9817934036254883 -0
vn -0.18995174765586853 0.9817934036254883 -0
vn 0.04339931905269623 0.2124149352312088 -0.9762153029441833
vn 0.04339931905269623 0.2124149352312088 -0.9762153029441833
vn 0.04339931905269623 0.2124149352312088 -0.9762153029441833
vn 0.015332493931055069 0.21625201404094696 -0.9762172102928162
vn 0.015332493931055069 0.21625201404094696 -0.9762172102928162
vn 0.015332493931055069 0.21625201404094696 -0.9762172102928162
vn 0.07077232748270035 0.20492665469646454 -0.9762152433395386
vn 0.07077232748270035 0.20492665469646454 -0.9762152433395386
vn 0.07077232748270035 0.20492665469646454 -0.9762152433395386
vn -0.1899518370628357 0.9817934036254883 -0
vn -0.1899518370628357 0.9817934036254883 -0
vn -0.1899518370628357 0.9817934036254883 -0
vn -0.013078738935291767 0.21640007197856903 -0.9762171506881714
vn -0.013078738935291767 0.21640007197856903 -0.9762171506881714
vn -0.013078738935291767 0.21640007197856903 -0.9762171506881714
vn -0.316561222076416 0.948572039604187 -0
vn -0.316561222076416 0.948572039604187 -0
vn -0.316561222076416 0.948572039604187 -0
vn -0.04118291661143303 0.21285875141620636 -0.9762146472930908
vn -0.13822510838508606 0.18134039640426636 -0.9736577272415161
vn -0.04118291661143303 0.21285875141620636 -0.9762146472930908
vn -0.31656140089035034 0.9485719799995422 -0
vn -0.31656140089035034 0.9485719799995422 -0
vn -0.31656140089035034 0.9485719799995422 -0
vn 0.04338712617754936 0.21241314709186554 -0.9762163162231445
vn 0.04338712617754936 0.21241314709186554 -0.9762163162231445
vn 0.04338712617754936 0.21241314709186554 -0.9762163162231445
vn 0.015323763713240623 0.21625609695911407 -0.9762163758277893
vn 0.015323763713240623 0.21625609695911407 -0.9762163758277893
vn 0.015323763713240623 0.21625609695911407 -0.9762163758277893
vn 0.07075367122888565 0.20494233071804047 -0.9762133359909058
vn 0.07075367122888565 0.20494233071804047 -0.9762133359909058
vn 0.07075367122888565 0.20494233071804047 -0.9762133359909058
vn -0.013069399632513523 0.21640445291996002 -0.9762163758277893
vn -0.013069399632513523 0.21640445291996002 -0.9762163758277893
vn -0.013069399632513523 0.21640445291996002 -0.9762163758277893
vn -0.1438334882259369 0.13676011562347412 -0.9801064133644104
vn -0.068633072078228 0.2056577503681183 -0.9762142896652222
vn -0.068633072078228 0.2056577503681183 -0.9762142896652222
vn -0.1368250548839569 0.24449805915355682 -0.9599477648735046
vn -0.04116310179233551 0.21285530924797058 -0.9762163162231445
vn -0.04116310179233551 0.21285530924797058 -0.9762163162231445
vn -0.43754661083221436 0.899195671081543 -0
vn -0.43754661083221436 0.899195671081543 -0
vn -0.43754661083221436 0.899195671081543 -0
vn -0.43754664063453674 0.899195671081543 -0
vn -0.43754664063453674 0.899195671081543 -0
vn -0.43754664063453674 0.899195671081543 -0
vn -0.1435982584953308 0.28349971771240234 -0.9481601119041443
vn -0.0948658287525177 0.19495676457881927 -0.9762133359909058
vn -0.0948658287525177 0.19495676457881927 -0.9762133359909058
vn 0.008886352181434631 0.27477705478668213 -0.9614668488502502
vn -0.05288761109113693 0.10621748119592667 -0.9929354190826416
vn -0.06862369924783707 0.20566536486148834 -0.9762133359909058
vn -0.00000020870692196695018 -0.00000013209125881985528 -1
vn -0.00000020870692196695018 -0.00000013209125881985528 -1
vn -0.00000020870692196695018 -0.00000013209125881985528 -1
vn 0 -0.00000009642698728384858 -1
vn 0 -0.00000009642698728384858 -1
vn 0 -0.00000009642698728384858 -1
vn 0 -0.00000005497394894860008 -1
vn 0 -0.00000005497394894860008 -1
vn 0 -0.00000005497394894860008 -1
vn -0.027083203196525574 0.27356043457984924 -0.9614734649658203
vn -0.18843910098075867 0.23642612993717194 -0.9532017111778259
vn -0.09490317106246948 0.1949172019958496 -0.9762175679206848
vn 0 -0.00000012566299290028837 -0.9999999403953552
vn 0 -0.00000012566299290028837 -0.9999999403953552
vn 0 -0.00000012566299290028837 -0.9999999403953552
vn -0.0000001679155730016646 -0.00000012972535046174016 -1
vn -0.0000001679155730016646 -0.00000012972535046174016 -1
vn -0.0000001679155730016646 -0.00000012972535046174016 -1
vn 0.001532859168946743 0.04684136062860489 -0.9989011883735657
vn 0.09377284348011017 -0.03995726257562637 -0.9947915077209473
vn 0.054292283952236176 -0.0895754024386406 -0.994499146938324
vn -0.0000002985614457884367 -0.0000001028198397534652 -1
vn -0.0000002985614457884367 -0.0000001028198397534652 -1
vn -0.0000002985614457884367 -0.0000001028198397534652 -1
vn -0.019262639805674553 0.04272490367293358 -0.9989011883735657
vn -0.07574392855167389 -0.07234847545623779 -0.994499146938324
vn 0.08433330804109573 -0.06212354078888893 -0.994499146938324
vn -0.00000017137314500814682 -0.0000001321660647590761 -1
vn -0.00000017137314500814682 -0.0000001321660647590761 -1
vn -0.00000017137314500814682 -0.0000001321660647590761 -1
vn -0.0000003495858038604638 -0.00000013391499464887602 -1
vn -0.0000003495858038604638 -0.00000013391499464887602 -1
vn -0.0000003495858038604638 -0.00000013391499464887602 -1
vn -0.07083012908697128 0.2900460362434387 -0.954387903213501
vn -0.06094294786453247 0.2891170084476471 -0.9553518295288086
vn 0.06396174430847168 0.3121333718299866 -0.9478826522827148
vn -0.0643116906285286 0.24541161954402924 -0.9672833681106567
vn -0.06666360795497894 0.24158093333244324 -0.9680881500244141
vn 0.059269025921821594 0.19124336540699005 -0.9797515869140625
vn 0.01415395736694336 -0.10378395020961761 -0.994499146938324
vn 0.04056168720126152 0.025873703882098198 -0.9988419413566589
vn -0.0467892587184906 0.0026940517127513885 -0.9989011883735657
vn -0.2190861999988556 0.07464258372783661 -0.9728461503982544
vn -0.09680192172527313 0.30122724175453186 -0.9486261010169983
vn -0.20692656934261322 0.20451919734477997 -0.9567409157752991
vn -0.13242028653621674 -0.015308891423046589 -0.9910754561424255
vn -0.006935058627277613 0.050655268132686615 -0.9986920952796936
vn 0.04700973629951477 0.060753293335437775 -0.9970451593399048
vn 0.01124562043696642 -0.12059914320707321 -0.992637574672699
vn -0.027235226705670357 -0.0939473882317543 -0.9952045679092407
vn -0.011348840780556202 -0.14225687086582184 -0.9897646307945251
vn -0.027177719399333 -0.09934405982494354 -0.9946818947792053
vn -0.029889259487390518 -0.09838471561670303 -0.9946994781494141
vn 0.023906782269477844 -0.1018182560801506 -0.9945156574249268
vn -0.10180249065160751 0.10074560344219208 -0.9896901845932007
vn -0.11145636439323425 -0.07312306761741638 -0.9910754561424255
vn 0.07678668200969696 -0.002164965495467186 -0.9970451593399048
vn 0.02371802181005478 -0.09038744866847992 -0.9956241846084595
vn 0.02371802181005478 -0.09038744866847992 -0.9956241846084595
vn 0.01298331469297409 -0.13575024902820587 -0.9906580448150635
vn -0.15540775656700134 -0.05522635206580162 -0.9863054156303406
vn -0.0672907829284668 -0.061024103313684464 -0.9958654046058655
vn -0.09533923119306564 -0.10042241960763931 -0.9903664588928223
vn 0.0658460333943367 -0.13728110492229462 -0.9883411526679993
vn 0.03155377507209778 -0.10400629788637161 -0.9940760135650635
vn -0.01048384327441454 -0.12466508150100708 -0.9921435713768005
f 3/3/3 2/2/2 1/1/1
f 6/6/6 5/5/5 4/4/4
f 9/9/9 8/8/8 7/7/7
f 12/12/12 11/11/11 10/10/10
f 15/15/15 14/14/14 13/13/13
f 18/18/18 17/17/17 16/16/16
f 21/21/21 20/20/20 19/19/19
f 21/21/21 22/22/22 20/20/20
f 25/25/25 24/24/24 23/23/23
f 28/28/28 27/27/27 26/26/26
f 31/31/31 30/30/30 29/29/29
f 34/34/34 33/33/33 32/32/32
f 37/37/37 36/36/36 35/35/35
f 40/40/40 39/39/39 38/38/38
f 43/43/43 42/42/42 41/41/41
f 46/46/46 45/45/45 44/44/44
f 49/49/49 48/48/48 47/47/47
f 52/52/52 51/51/51 50/50/50
f 55/55/55 54/54/54 53/53/53
f 58/58/58 57/57/57 56/56/56
f 61/61/61 60/60/60 59/59/59
f 64/64/64 63/63/63 62/62/62
f 67/67/67 66/66/66 65/65/65
f 70/70/70 69/69/69 68/68/68
f 73/73/73 72/72/72 71/71/71
f 76/76/76 75/75/75 74/74/74
f 79/79/79 78/78/78 77/77/77
f 82/82/82 81/81/81 80/80/80
f 85/85/85 84/84/84 83/83/83
f 88/88/88 87/87/87 86/86/86
f 91/91/91 90/90/90 89/89/89
f 94/94/94 93/93/93 92/92/92
f 97/97/97 96/96/96 95/95/95
f 100/100/100 99/99/99 98/98/98
f 103/103/103 102/102/102 101/101/101
f 106/106/106 105/105/105 104/104/104
f 109/109/109 108/108/108 107/107/107
f 112/112/112 111/111/111 110/110/110
f 115/115/115 114/114/114 113/113/113
f 118/118/118 117/117/117 116/116/116
f 121/121/121 120/120/120 119/119/119
f 124/124/124 123/123/123 122/122/122
f 127/127/127 126/126/126 125/125/125
f 130/130/130 129/129/129 128/128/128
f 133/133/133 132/132/132 131/131/131
f 136/136/136 135/135/135 134/134/134
f 139/139/139 138/138/138 137/137/137
f 142/142/142 141/141/141 140/140/140
f 145/145/145 144/144/144 143/143/143
