# VPXTOOL table OBJ file
# VPXTOOL OBJ file
# numVerts: 148 numFaces: 156
o LM_L_LMet3_TMet3
v 24.39875602722168 -0.14124009013175964 -65.61187744140625
v -23.771678924560547 -0.14124009013175964 -65.61187744140625
v -23.771678924560547 -22.37374496459961 -65.61187744140625
v 24.39870262145996 -22.373689651489258 -65.61187744140625
v 24.39875602722168 -0.14124009013175964 -65.61187744140625
v 24.39870262145996 -22.373689651489258 -65.61187744140625
v 24.39875602722168 -14.962891578674316 -44.30571365356445
v 24.39875602722168 -0.14124009013175964 -65.61187744140625
v 24.39875602722168 -9.404779434204102 -11.883299827575684
v -23.771678924560547 -0.14124009013175964 -65.61187744140625
v -23.771678924560547 -0.14124009013175964 -65.61187744140625
v -23.771678924560547 -14.962891578674316 -44.30571365356445
v -23.771678924560547 -22.37374496459961 -65.61187744140625
v 14.208874702453613 -14.962891578674316 -44.30571365356445
v 24.39870262145996 -22.373689651489258 -65.61187744140625
v -23.771678924560547 -22.37374496459961 -65.61187744140625
v 16.987958908081055 -14.962891578674316 -44.30571365356445
v 24.39875602722168 -14.962891578674316 -44.30571365356445
v 24.39870262145996 -22.373689651489258 -65.61187744140625
v 14.208874702453613 -14.962891578674316 -44.30571365356445
v 16.987958908081055 -14.962891578674316 -44.30571365356445
v 24.39870262145996 -22.373689651489258 -65.61187744140625
v 24.39875602722168 -9.404779434204102 -11.883299827575684
v 24.39875602722168 -0.14124009013175964 -65.61187744140625
v 24.39875602722168 -14.962891578674316 -44.30571365356445
v -23.771678924560547 -22.37374496459961 -65.61187744140625
v -23.771678924560547 -14.962891578674316 -44.30571365356445
v 14.208874702453613 -14.962891578674316 -44.30571365356445
v -23.771678924560547 -0.14124009013175964 -65.61187744140625
v -23.771678924560547 -9.40472412109375 -11.88329792022705
v -23.771678924560547 -14.962891578674316 -44.30571365356445
v 24.39875602722168 -9.404779434204102 -11.883299827575684
v -23.771678924560547 -9.40472412109375 -11.88329792022705
v -23.771678924560547 -0.14124009013175964 -65.61187744140625
v 16.987958908081055 -14.962891578674316 -44.30571365356445
v 24.39875602722168 -14.962891578674316 15.907317161560059
v 24.39875602722168 -14.962891578674316 -44.30571365356445
v 14.208874702453613 -14.962891578674316 -44.30571365356445
v 24.39875602722168 -14.962891578674316 15.907317161560059
v 16.987958908081055 -14.962891578674316 -44.30571365356445
v 24.39875602722168 -9.404779434204102 4.7910919189453125
v 24.39875602722168 -9.404779434204102 -11.883299827575684
v 24.39875602722168 -14.962891578674316 -44.30571365356445
v 14.208874702453613 -14.962891578674316 -44.30571365356445
v -23.771678924560547 -14.962891578674316 -44.30571365356445
v -23.771678924560547 -14.962891578674316 15.907379150390625
v -23.771678924560547 -9.40472412109375 -11.88329792022705
v -23.771678924560547 -9.40472412109375 4.79109525680542
v -23.771678924560547 -14.962891578674316 -44.30571365356445
v 24.39875602722168 -9.404779434204102 15.907344818115234
v 24.39875602722168 -9.404779434204102 4.7910919189453125
v 24.39875602722168 -14.962891578674316 -44.30571365356445
v 24.39875602722168 -9.404779434204102 -11.883299827575684
v -23.771678924560547 -9.40472412109375 4.79109525680542
v -23.771678924560547 -9.40472412109375 -11.88329792022705
v 24.39875602722168 -14.962891578674316 15.907317161560059
v 24.39875602722168 -9.404779434204102 15.907344818115234
v 24.39875602722168 -9.404779434204102 -11.883299827575684
v 24.39875602722168 -9.404779434204102 4.7910919189453125
v 6.79802131652832 -9.40472412109375 4.791093349456787
v 24.39875602722168 -9.404779434204102 -11.883299827575684
v 6.79802131652832 -9.40472412109375 4.791093349456787
v -5.244545936584473 -9.404779434204102 4.791093349456787
v -23.771678924560547 -9.40472412109375 4.79109525680542
v -23.771678924560547 -9.40472412109375 15.9073486328125
v -23.771678924560547 -14.962891578674316 -44.30571365356445
v 24.39875602722168 -9.404779434204102 -11.883299827575684
v -5.244545936584473 -9.404779434204102 4.791093349456787
v -23.771678924560547 -9.40472412109375 4.79109525680542
v -23.771678924560547 -14.962891578674316 15.907379150390625
v -23.771678924560547 -14.962891578674316 -44.30571365356445
v -23.771678924560547 -9.40472412109375 15.9073486328125
v 24.39881134033203 -3.8466668128967285 15.907344818115234
v 24.39881134033203 -3.8466668128967285 14.054644584655762
v 24.39875602722168 -9.404779434204102 4.7910919189453125
v 6.79802131652832 -9.40472412109375 4.791093349456787
v 24.39875602722168 -9.404779434204102 4.7910919189453125
v 6.798076629638672 -3.846611499786377 14.054646492004395
v 24.39875602722168 -9.404779434204102 4.7910919189453125
v 24.39881134033203 -3.8466668128967285 14.054644584655762
v 6.798076629638672 -3.846611499786377 14.054646492004395
v 24.39881134033203 -3.8466668128967285 14.054644584655762
v 24.39881134033203 -3.8466668128967285 15.907344818115234
v 6.798076629638672 -3.846611499786377 14.054646492004395
v 24.39875602722168 -9.404779434204102 15.907344818115234
v 24.39881134033203 -3.8466668128967285 15.907344818115234
v 24.39875602722168 -9.404779434204102 4.7910919189453125
v 24.39881134033203 -3.8466668128967285 15.907344818115234
v 6.798076629638672 -3.846611499786377 15.907344818115234
v 6.798076629638672 -3.846611499786377 14.054646492004395
v 6.79802131652832 -9.40472412109375 4.791093349456787
v 6.79802131652832 -9.40472412109375 15.907344818115234
v -5.244545936584473 -9.404779434204102 4.791093349456787
v -5.244545936584473 -9.404779434204102 4.791093349456787
v -5.244601249694824 -3.8466668128967285 14.054646492004395
v -23.771678924560547 -9.40472412109375 4.79109525680542
v 6.79802131652832 -9.40472412109375 15.907344818115234
v 6.79802131652832 -9.40472412109375 4.791093349456787
v 6.798076629638672 -3.846611499786377 14.054646492004395
v 24.39881134033203 -3.8466668128967285 15.907344818115234
v 24.39875602722168 -9.404779434204102 15.907344818115234
v 6.798076629638672 -3.846611499786377 15.907344818115234
v -5.244601249694824 -3.8466668128967285 14.054646492004395
v -23.771678924560547 -3.846611499786377 14.054648399353027
v -23.771678924560547 -9.40472412109375 4.79109525680542
v 6.798076629638672 -3.846611499786377 14.054646492004395
v 6.798076629638672 -3.846611499786377 15.907344818115234
v 6.79802131652832 -9.40472412109375 15.907344818115234
v -5.244601249694824 -3.8466668128967285 14.054646492004395
v -5.244545936584473 -9.404779434204102 4.791093349456787
v -5.244545936584473 -9.404779434204102 15.907344818115234
v -5.244601249694824 -3.8466668128967285 14.054646492004395
v -5.244601249694824 -3.8466668128967285 15.907344818115234
v -23.771678924560547 -3.846611499786377 14.054648399353027
v 24.39875602722168 -9.404779434204102 15.907344818115234
v 6.79802131652832 -9.40472412109375 15.907344818115234
v 6.798076629638672 -3.846611499786377 15.907344818115234
v 6.79802131652832 -9.40472412109375 15.907344818115234
v -5.244545936584473 -9.404779434204102 15.907344818115234
v -5.244545936584473 -9.404779434204102 4.791093349456787
v -5.244545936584473 -9.404779434204102 15.907344818115234
v -5.244601249694824 -3.8466668128967285 15.907344818115234
v -5.244601249694824 -3.8466668128967285 14.054646492004395
v -5.244601249694824 -3.8466668128967285 15.907344818115234
v -23.771678924560547 -3.846611499786377 15.9073486328125
v -23.771678924560547 -3.846611499786377 14.054648399353027
v -23.771678924560547 -9.40472412109375 4.79109525680542
v -23.771678924560547 -3.846611499786377 14.054648399353027
v -23.771678924560547 -9.40472412109375 15.9073486328125
v 6.79802131652832 -9.40472412109375 15.907344818115234
v 24.39875602722168 -9.404779434204102 15.907344818115234
v 24.39875602722168 -14.962891578674316 15.907317161560059
v -23.771678924560547 -9.40472412109375 15.9073486328125
v -23.771678924560547 -3.846611499786377 15.9073486328125
v -5.244601249694824 -3.8466668128967285 15.907344818115234
v -23.771678924560547 -3.846611499786377 15.9073486328125
v -5.244545936584473 -9.404779434204102 15.907344818115234
v -23.771678924560547 -9.40472412109375 15.9073486328125
v -5.244601249694824 -3.8466668128967285 15.907344818115234
v 24.39875602722168 -14.962891578674316 15.907317161560059
v -5.244545936584473 -9.404779434204102 15.907344818115234
v 6.79802131652832 -9.40472412109375 15.907344818115234
v -5.244545936584473 -9.404779434204102 15.907344818115234
v 24.39875602722168 -14.962891578674316 15.907317161560059
v -23.771678924560547 -14.962891578674316 15.907379150390625
v -23.771678924560547 -14.962891578674316 15.907379150390625
v -23.771678924560547 -9.40472412109375 15.9073486328125
v -5.244545936584473 -9.404779434204102 15.907344818115234
vt 0.6004768013954163 0.9365695714950562
vt 0.6004768013954163 0.9291017651557922
vt 0.604346752166748 0.9291017651557922
vt 0.604346752166748 0.9365695714950562
vt 0.9810004830360413 0.05008721351623535
vt 0.987260639667511 0.05008721351623535
vt 0.9851739406585693 0.05543029308319092
vt 0.08818548917770386 0.9651661515235901
vt 0.08818548172712326 0.9995462894439697
vt 0.12676186859607697 0.9651661515235901
vt 0.9842668771743774 0.7124488353729248
vt 0.9802646636962891 0.7178947925567627
vt 0.9780092239379883 0.7126063704490662
vt 0.9618669152259827 0.3630703091621399
vt 0.9636406898498535 0.3665185570716858
vt 0.9552557468414307 0.3665185570716858
vt 0.9623506665229797 0.3630703091621399
vt 0.9636406898498535 0.3630703091621399
vt 0.9636406898498535 0.3665185570716858
vt 0.9618669152259827 0.3630703091621399
vt 0.9623506665229797 0.3630703091621399
vt 0.9636406898498535 0.3665185570716858
vt 0.9836089015007019 0.06356120109558105
vt 0.9810004830360413 0.05008721351623535
vt 0.9851739406585693 0.05543029308319092
vt 0.9552557468414307 0.3665185570716858
vt 0.9552557468414307 0.3630703091621399
vt 0.9618669152259827 0.3630703091621399
vt 0.9842668771743774 0.7124488353729248
vt 0.9820870757102966 0.7259830236434937
vt 0.9802646636962891 0.7178947925567627
vt 0.08818548172712326 0.9995462894439697
vt 0.12676186859607697 0.9995462894439697
vt 0.12676186859607697 0.9651661515235901
vt 0.9623506665229797 0.3630703091621399
vt 0.9636406898498535 0.35386592149734497
vt 0.9636406898498535 0.3630703091621399
vt 0.9618669152259827 0.3630703091621399
vt 0.9636406898498535 0.35386592149734497
vt 0.9623506665229797 0.3630703091621399
vt 0.9836089015007019 0.06774282455444336
vt 0.9836089015007019 0.06356120109558105
vt 0.9851739406585693 0.05543029308319092
vt 0.9618669152259827 0.3630703091621399
vt 0.9552557468414307 0.3630703091621399
vt 0.9552557468414307 0.35386592149734497
vt 0.9820870757102966 0.7259830236434937
vt 0.9822197556495667 0.7301629781723022
vt 0.9802646636962891 0.7178947925567627
vt 0.9836089015007019 0.07053053379058838
vt 0.9836089015007019 0.06774282455444336
vt 0.9851739406585693 0.05543029308319092
vt 0.11559375375509262 0.9644679427146912
vt 0.11270258575677872 0.9570001363754272
vt 0.11559375375509262 0.9570001363754272
vt 0.9851739406585693 0.07053053379058838
vt 0.9836089015007019 0.07053053379058838
vt 0.11559375375509262 0.9644679427146912
vt 0.11270258575677872 0.9644679427146912
vt 0.11270258575677872 0.9617393016815186
vt 0.11559375375509262 0.9644679427146912
vt 0.11270258575677872 0.9617393016815186
vt 0.11270258575677872 0.9598723649978638
vt 0.9822197556495667 0.7301629781723022
vt 0.9823082089424133 0.7329495549201965
vt 0.9802646636962891 0.7178947925567627
vt 0.11559375375509262 0.9644679427146912
vt 0.11270258575677872 0.9598723649978638
vt 0.11270258575677872 0.9570001363754272
vt 0.9807438254356384 0.7329889535903931
vt 0.9802646636962891 0.7178947925567627
vt 0.9823082089424133 0.7329495549201965
vt 0.9820438027381897 0.07053053379058838
vt 0.9820438027381897 0.07006585597991943
vt 0.9836089015007019 0.06774282455444336
vt 0.11270258575677872 0.9617393016815186
vt 0.11270258575677872 0.9644679427146912
vt 0.11101104319095612 0.9617393016815186
vt 0.11270258575677872 0.9644679427146912
vt 0.11101104319095612 0.9644679427146912
vt 0.11101104319095612 0.9617393016815186
vt 0.11101104319095612 0.9644679427146912
vt 0.11068981885910034 0.9644679427146912
vt 0.11101104319095612 0.9617393016815186
vt 0.9836089015007019 0.07053053379058838
vt 0.9820438027381897 0.07053053379058838
vt 0.9836089015007019 0.06774282455444336
vt 0.11068981885910034 0.9644679427146912
vt 0.11068981885910034 0.9617393016815186
vt 0.11101104319095612 0.9617393016815186
vt 0.11270258575677872 0.9617393016815186
vt 0.1107751652598381 0.9617393016815186
vt 0.11270258575677872 0.9598723649978638
vt 0.11270258575677872 0.9598723649978638
vt 0.11101104319095612 0.9598723649978638
vt 0.11270258575677872 0.9570001363754272
vt 0.016131224110722542 0.7256990671157837
vt 0.016131224110722542 0.7274224758148193
vt 0.015163730829954147 0.7259863615036011
vt 0.5255820155143738 0.6417697668075562
vt 0.5246145129203796 0.6417697668075562
vt 0.5255820155143738 0.6390411853790283
vt 0.11101104319095612 0.9598723649978638
vt 0.11101104319095612 0.9570001363754272
vt 0.11270258575677872 0.9570001363754272
vt 0.015163730829954147 0.7259863615036011
vt 0.015163730829954147 0.7256990671157837
vt 0.016131224110722542 0.7256990671157837
vt 0.009035064838826656 0.1515641212463379
vt 0.008067570626735687 0.15300023555755615
vt 0.008067570626735687 0.15127688646316528
vt 0.11101104319095612 0.9598723649978638
vt 0.11068981885910034 0.9598723649978638
vt 0.11101104319095612 0.9570001363754272
vt 0.5246145129203796 0.6417697668075562
vt 0.5246145129203796 0.6390411853790283
vt 0.5255820155143738 0.6390411853790283
vt 0.1107751652598381 0.9617393016815186
vt 0.1107751652598381 0.9598723649978638
vt 0.11270258575677872 0.9598723649978638
vt 0.008067570626735687 0.15127688646316528
vt 0.009035064838826656 0.15127688646316528
vt 0.009035064838826656 0.1515641212463379
vt 0.11068981885910034 0.9598723649978638
vt 0.11068981885910034 0.9570001363754272
vt 0.11101104319095612 0.9570001363754272
vt 0.9822197556495667 0.7301629781723022
vt 0.9838579297065735 0.7324457168579102
vt 0.9823082089424133 0.7329495549201965
vt 0.5246145129203796 0.6390411853790283
vt 0.5246145129203796 0.6417697668075562
vt 0.5236470103263855 0.6417697668075562
vt 0.5246145129203796 0.6343019604682922
vt 0.5255820155143738 0.6343019604682922
vt 0.5255820155143738 0.637174129486084
vt 0.983872652053833 0.73291015625
vt 0.5246145129203796 0.637174129486084
vt 0.5246145129203796 0.6343019604682922
vt 0.5255820155143738 0.637174129486084
vt 0.5236470103263855 0.6417697668075562
vt 0.5246145129203796 0.637174129486084
vt 0.5246145129203796 0.6390411853790283
vt 0.5246145129203796 0.637174129486084
vt 0.5236470103263855 0.6417697668075562
vt 0.5236470103263855 0.6343019604682922
vt 0.5236470103263855 0.6343019604682922
vt 0.5246145129203796 0.6343019604682922
vt 0.5246145129203796 0.637174129486084
vn 0 -0 -1
vn 0 -0 -1
vn 0 -0 -1
vn 0 -0 -1
vn 1 -0.000002530774281694903 -0.000001727672270135372
vn 1 -0.000002530774281694903 -0.000001727672270135372
vn 1 -0.000002530774281694903 -0.000001727672270135372
vn 0 0.985460102558136 0.16990676522254944
vn 0 0.985460102558136 0.16990676522254944
vn 0 0.985460102558136 0.16990676522254944
vn -1 -0 -0
vn -1 -0 -0
vn -1 -0 -0
vn 0.000001057250869962445 -0.9444971680641174 0.32851946353912354
vn 0.000001057250869962445 -0.9444971680641174 0.32851946353912354
vn 0.000001057250869962445 -0.9444971680641174 0.32851946353912354
vn 0 -0.944497287273407 0.32851919531822205
vn 0 -0.944497287273407 0.32851919531822205
vn 0 -0.944497287273407 0.32851919531822205
vn 0 -0.9444974064826965 0.32851913571357727
vn 0 -0.9444974064826965 0.32851913571357727
vn 0 -0.9444974064826965 0.32851913571357727
vn 1 -0 -0
vn 1 -0 -0
vn 1 -0 -0
vn 0 -0.9444966316223145 0.3285212218761444
vn 0 -0.9444966316223145 0.3285212218761444
vn 0 -0.9444966316223145 0.3285212218761444
vn -0.9999999403953552 -0 -0
vn -0.9999999403953552 -0 -0
vn -0.9999999403953552 -0 -0
vn 0.00000113597172912705 0.9854602813720703 0.16990576684474945
vn 0.00000113597172912705 0.9854602813720703 0.16990576684474945
vn 0.00000113597172912705 0.9854602813720703 0.16990576684474945
vn 0 -1 -0
vn 0 -1 -0
vn 0 -1 -0
vn 0 -1 -0.0000001492494590138449
vn 0 -1 -0.0000001492494590138449
vn 0 -1 -0.0000001492494590138449
vn 0.9999999403953552 -0.0000010779224339785287 -0
vn 0.9999999403953552 -0.0000010779224339785287 -0
vn 0.9999999403953552 -0.0000010779224339785287 -0
vn 0 -1 -0
vn 0 -1 -0
vn 0 -1 -0
vn -0.9999999403953552 0.0000005389557031776349 -0
vn -0.9999999403953552 0.0000005389557031776349 -0
vn -0.9999999403953552 0.0000005389557031776349 -0
vn 1 0.0000016168851288966835 -0
vn 1 0.0000016168851288966835 -0
vn 1 0.0000016168851288966835 -0
vn 0.0000011462434486020356 1 -0
vn 0.0000011462434486020356 1 -0
vn 0.0000011462434486020356 1 -0
vn 1 -0 -0
vn 1 -0 -0
vn 0.0000031370868782687467 1 -0
vn 0.0000031370868782687467 1 -0
vn 0.0000031370868782687467 1 -0
vn -0.000004584989710565424 1 -0.000008084424734988715
vn -0.000004584989710565424 1 -0.000008084424734988715
vn -0.000004584989710565424 1 -0.000008084424734988715
vn -1 -0.0000008084343789960258 -0
vn -1 -0.0000008084343789960258 -0
vn -1 -0.0000008084343789960258 -0
vn 0.0000029802267818013206 1 0.00000517400303579052
vn 0.0000029802267818013206 1 0.00000517400303579052
vn 0.0000029802267818013206 1 0.00000517400303579052
vn -1 0.0000005969971539343533 -0
vn -1 0.0000005969971539343533 -0
vn -1 0.0000005969971539343533 -0
vn 1 -0.000005457006409415044 -0
vn 1 -0.000005457006409415044 -0
vn 1 -0.000005457006409415044 -0
vn 0.000002635594000821584 0.8574936985969543 -0.5144945383071899
vn 0.000002635594000821584 0.8574936985969543 -0.5144945383071899
vn 0.000002635594000821584 0.8574936985969543 -0.5144945383071899
vn 0.000002659821120687411 0.8574936389923096 -0.5144944190979004
vn 0.000002659821120687411 0.8574936389923096 -0.5144944190979004
vn 0.000002659821120687411 0.8574936389923096 -0.5144944190979004
vn 0.0000031370864235213958 1 -0
vn 0.0000031370864235213958 1 -0
vn 0.0000031370864235213958 1 -0
vn 1 -0.000010509753337828442 -0
vn 1 -0.000010509753337828442 -0
vn 1 -0.000010509753337828442 -0
vn 0.0000031370893793791765 1 -0
vn 0.0000031370893793791765 1 -0
vn 0.0000031370893793791765 1 -0
vn -0.000004584989255818073 1 -0
vn -0.000004584989255818073 1 -0
vn -0.000004584989255818073 1 -0
vn 0.0000024956289053079672 0.8574937582015991 -0.5144944787025452
vn 0.0000024956289053079672 0.8574937582015991 -0.5144944787025452
vn 0.0000024956289053079672 0.8574937582015991 -0.5144944787025452
vn -0.9999999403953552 0.000009903422323986888 -0
vn -0.9999999403953552 0.000009903422323986888 -0
vn -0.9999999403953552 0.000009903422323986888 -0
vn 0 -0 1
vn 0 -0 1
vn 0 -0 1
vn 0.000002513663957870449 0.8574937582015991 -0.5144944190979004
vn 0.000002513663957870449 0.8574937582015991 -0.5144944190979004
vn 0.000002513663957870449 0.8574937582015991 -0.5144944190979004
vn -1 0.00001000452357402537 -0
vn -1 0.00001000452357402537 -0
vn -1 0.00001000452357402537 -0
vn 0.9999999403953552 0.00001000447718979558 -0
vn 0.9999999403953552 0.00001000447718979558 -0
vn 0.9999999403953552 0.00001000447718979558 -0
vn 0.0000029802361041220138 0.9999999403953552 -0
vn 0.0000029802361041220138 0.9999999403953552 -0
vn 0.0000029802361041220138 0.9999999403953552 -0
vn -0.00000004176009582579354 -0 1
vn -0.00000004176009582579354 -0 1
vn -0.00000004176009582579354 -0 1
vn -0.0000045849901653127745 1 -0
vn -0.0000045849901653127745 1 -0
vn -0.0000045849901653127745 1 -0
vn 1 0.00001000452357402537 -0
vn 1 0.00001000452357402537 -0
vn 1 0.00001000452357402537 -0
vn 0.000002980234057758935 1 -0
vn 0.000002980234057758935 1 -0
vn 0.000002980234057758935 1 -0
vn -1 -0 -0
vn -1 -0 -0
vn -1 -0 -0
vn 0.00000004176010648393458 -0.000004967068434780231 0.9999999403953552
vn 0.00000004176010648393458 -0.000004967068434780231 0.9999999403953552
vn 0.00000004176010648393458 -0.000004967068434780231 0.9999999403953552
vn 0.00000012126642445764446 -0 1
vn 0.00000012126642445764446 -0 1
vn 0.00000012126642445764446 -0 1
vn -1 -0 -0
vn 0.00000020286198321173288 0.0000000000018503733701519254 1
vn 0.00000020286198321173288 0.0000000000018503733701519254 1
vn 0.00000020286198321173288 0.0000000000018503733701519254 1
vn 0 -0.0000049669492909742985 1
vn 0 -0.0000049669492909742985 1
vn 0 -0.0000049669492909742985 1
vn 0.0000013059456023256644 0.000001910401351779001 1
vn 0.0000013059456023256644 0.000001910401351779001 1
vn 0.0000013059456023256644 0.000001910401351779001 1
vn 0.00000012126488968533522 0.000005587897248915397 1
vn 0.00000012126488968533522 0.000005587897248915397 1
vn 0.00000012126488968533522 0.000005587897248915397 1
f 3/3/3 2/2/2 1/1/1
f 3/3/3 1/1/1 4/4/4
f 7/7/7 6/6/6 5/5/5
f 10/10/10 9/9/9 8/8/8
f 13/13/13 12/12/12 11/11/11
f 16/16/16 15/15/15 14/14/14
f 19/19/19 18/18/18 17/17/17
f 22/22/22 21/21/21 20/20/20
f 25/25/25 24/24/24 23/23/23
f 28/28/28 27/27/27 26/26/26
f 31/31/31 30/30/30 29/29/29
f 34/34/34 33/33/33 32/32/32
f 37/37/37 36/36/36 35/35/35
f 40/40/40 39/39/39 38/38/38
f 43/43/43 42/42/42 41/41/41
f 46/46/46 45/45/45 44/44/44
f 49/49/49 48/48/48 47/47/47
f 52/52/52 51/51/51 50/50/50
f 55/55/55 54/54/54 53/53/53
f 57/57/57 56/56/56 25/25/25
f 60/60/60 59/59/59 58/58/58
f 63/63/63 62/62/62 61/61/61
f 66/66/66 65/65/65 64/64/64
f 69/69/69 68/68/68 67/67/67
f 36/36/36 46/46/46 44/44/44
f 72/72/72 71/71/71 70/70/70
f 75/75/75 74/74/74 73/73/73
f 78/78/78 77/77/77 76/76/76
f 81/81/81 80/80/80 79/79/79
f 84/84/84 83/83/83 82/82/82
f 87/87/87 86/86/86 85/85/85
f 90/90/90 89/89/89 88/88/88
f 93/93/93 92/92/92 91/91/91
f 96/96/96 95/95/95 94/94/94
f 99/99/99 98/98/98 97/97/97
f 102/102/102 101/101/101 100/100/100
f 105/105/105 104/104/104 103/103/103
f 108/108/108 107/107/107 106/106/106
f 111/111/111 110/110/110 109/109/109
f 114/114/114 113/113/113 112/112/112
f 117/117/117 116/116/116 115/115/115
f 120/120/120 119/119/119 118/118/118
f 123/123/123 122/122/122 121/121/121
f 126/126/126 125/125/125 124/124/124
f 129/129/129 128/128/128 127/127/127
f 132/132/132 131/131/131 130/130/130
f 135/135/135 134/134/134 133/133/133
f 129/129/129 136/136/136 128/128/128
f 139/139/139 138/138/138 137/137/137
f 142/142/142 141/141/141 140/140/140
f 145/145/145 144/144/144 143/143/143
f 148/148/148 147/147/147 146/146/146
