# VPXTOOL table OBJ file
# VPXTOOL OBJ file
# numVerts: 153 numFaces: 156
o LM_L_LMet4_TMet4
v 24.39875602722168 -0.14124009013175964 -65.61187744140625
v -23.771678924560547 -0.14118488132953644 -65.61187744140625
v -23.771623611450195 -22.373855590820313 -65.61187744140625
v 24.39870262145996 -22.37380027770996 -65.61187744140625
v 24.39875602722168 -0.14124009013175964 -65.61187744140625
v -23.771623611450195 -22.373855590820313 -65.61187744140625
v 24.39875602722168 -0.14124009013175964 -65.61187744140625
v 24.39870262145996 -22.37380027770996 -65.61187744140625
v 24.39875602722168 -14.962946891784668 -44.30571365356445
v 24.39875602722168 -0.14124009013175964 -65.61187744140625
v 24.39870262145996 -9.404779434204102 -11.883299827575684
v -23.771678924560547 -0.14118488132953644 -65.61187744140625
v -23.771678924560547 -0.14118488132953644 -65.61187744140625
v -23.7717342376709 -14.962946891784668 -44.30571365356445
v -23.771623611450195 -22.373855590820313 -65.61187744140625
v 14.208819389343262 -14.962946891784668 -44.30571365356445
v 24.39870262145996 -22.37380027770996 -65.61187744140625
v -23.771623611450195 -22.373855590820313 -65.61187744140625
v 16.987903594970703 -14.962946891784668 -44.30571365356445
v 24.39875602722168 -14.962946891784668 -44.30571365356445
v 24.39870262145996 -22.37380027770996 -65.61187744140625
v 24.39870262145996 -22.37380027770996 -65.61187744140625
v 14.208819389343262 -14.962946891784668 -44.30571365356445
v 16.987903594970703 -14.962946891784668 -44.30571365356445
v 24.39870262145996 -9.404779434204102 -11.883299827575684
v 24.39875602722168 -0.14124009013175964 -65.61187744140625
v 24.39875602722168 -14.962946891784668 -44.30571365356445
v -23.771623611450195 -22.373855590820313 -65.61187744140625
v -23.7717342376709 -14.962946891784668 -44.30571365356445
v 14.208819389343262 -14.962946891784668 -44.30571365356445
v -23.771678924560547 -0.14118488132953644 -65.61187744140625
v -23.771678924560547 -9.404779434204102 -11.88329792022705
v -23.7717342376709 -14.962946891784668 -44.30571365356445
v 24.39870262145996 -9.404779434204102 -11.883299827575684
v -23.771678924560547 -9.404779434204102 -11.88329792022705
v -23.771678924560547 -0.14118488132953644 -65.61187744140625
v 16.987903594970703 -14.962946891784668 -44.30571365356445
v 24.39875602722168 -14.962946891784668 15.907317161560059
v 24.39875602722168 -14.962946891784668 -44.30571365356445
v 14.208819389343262 -14.962946891784668 -44.30571365356445
v 24.39875602722168 -14.962946891784668 15.907317161560059
v 16.987903594970703 -14.962946891784668 -44.30571365356445
v 24.39870262145996 -9.404779434204102 4.7910919189453125
v 24.39870262145996 -9.404779434204102 -11.883299827575684
v 24.39875602722168 -14.962946891784668 -44.30571365356445
v 14.208819389343262 -14.962946891784668 -44.30571365356445
v -23.7717342376709 -14.962946891784668 -44.30571365356445
v -23.771678924560547 -14.962946891784668 15.907379150390625
v -23.771678924560547 -9.404779434204102 -11.88329792022705
v -23.771678924560547 -9.404779434204102 4.79109525680542
v -23.7717342376709 -14.962946891784668 -44.30571365356445
v 24.39870262145996 -9.404779434204102 15.907344818115234
v 24.39870262145996 -9.404779434204102 4.7910919189453125
v 24.39875602722168 -14.962946891784668 -44.30571365356445
v 24.39870262145996 -9.404779434204102 -11.883299827575684
v -23.771678924560547 -9.404779434204102 4.79109525680542
v -23.771678924560547 -9.404779434204102 -11.88329792022705
v 24.39875602722168 -14.962946891784668 -44.30571365356445
v 24.39875602722168 -14.962946891784668 15.907317161560059
v 24.39870262145996 -9.404779434204102 15.907344818115234
v 24.39870262145996 -9.404779434204102 -11.883299827575684
v 24.39870262145996 -9.404779434204102 4.7910919189453125
v 6.797966480255127 -9.404890060424805 4.791093349456787
v 24.39870262145996 -9.404779434204102 -11.883299827575684
v 6.797966480255127 -9.404890060424805 4.791093349456787
v -5.244545936584473 -9.404834747314453 4.791093349456787
v -23.771678924560547 -9.404779434204102 4.79109525680542
v -23.771678924560547 -9.404779434204102 15.9073486328125
v -23.7717342376709 -14.962946891784668 -44.30571365356445
v 24.39870262145996 -9.404779434204102 -11.883299827575684
v -5.244545936584473 -9.404834747314453 4.791093349456787
v -23.771678924560547 -9.404779434204102 4.79109525680542
v 14.208819389343262 -14.962946891784668 -44.30571365356445
v -23.771678924560547 -14.962946891784668 15.907379150390625
v -23.771678924560547 -14.962946891784668 15.907379150390625
v -23.7717342376709 -14.962946891784668 -44.30571365356445
v -23.771678924560547 -9.404779434204102 15.9073486328125
v 24.39875602722168 -3.846721887588501 15.907344818115234
v 24.39875602722168 -3.846721887588501 14.054644584655762
v 24.39870262145996 -9.404779434204102 4.7910919189453125
v 6.797966480255127 -9.404890060424805 4.791093349456787
v 24.39870262145996 -9.404779434204102 4.7910919189453125
v 6.79802131652832 -3.8466668128967285 14.054646492004395
v 24.39870262145996 -9.404779434204102 4.7910919189453125
v 24.39875602722168 -3.846721887588501 14.054644584655762
v 6.79802131652832 -3.8466668128967285 14.054646492004395
v 24.39870262145996 -9.404779434204102 15.907344818115234
v 24.39875602722168 -3.846721887588501 15.907344818115234
v 24.39870262145996 -9.404779434204102 4.7910919189453125
v 24.39875602722168 -3.846721887588501 14.054644584655762
v 24.39875602722168 -3.846721887588501 15.907344818115234
v 6.79802131652832 -3.8466668128967285 15.907344818115234
v 6.79802131652832 -3.8466668128967285 14.054646492004395
v 24.39875602722168 -3.846721887588501 14.054644584655762
v 6.79802131652832 -3.8466668128967285 15.907344818115234
v 6.797966480255127 -9.404890060424805 4.791093349456787
v 6.797966480255127 -9.404890060424805 15.907344818115234
v -5.244545936584473 -9.404834747314453 4.791093349456787
v -5.244545936584473 -9.404834747314453 4.791093349456787
v -5.244545936584473 -3.846611499786377 14.054646492004395
v -23.771678924560547 -9.404779434204102 4.79109525680542
v 6.797966480255127 -9.404890060424805 15.907344818115234
v 6.797966480255127 -9.404890060424805 4.791093349456787
v 6.79802131652832 -3.8466668128967285 14.054646492004395
v 24.39875602722168 -3.846721887588501 15.907344818115234
v 24.39870262145996 -9.404779434204102 15.907344818115234
v 6.79802131652832 -3.8466668128967285 15.907344818115234
v -5.244545936584473 -3.846611499786377 14.054646492004395
v -23.771678924560547 -3.846721887588501 14.054648399353027
v -23.771678924560547 -9.404779434204102 4.79109525680542
v 6.79802131652832 -3.8466668128967285 14.054646492004395
v 6.79802131652832 -3.8466668128967285 15.907344818115234
v 6.797966480255127 -9.404890060424805 15.907344818115234
v -5.244545936584473 -3.846611499786377 14.054646492004395
v -5.244545936584473 -9.404834747314453 4.791093349456787
v -5.244545936584473 -9.404834747314453 15.907344818115234
v -5.244545936584473 -3.846611499786377 14.054646492004395
v -5.244545936584473 -3.846611499786377 15.907344818115234
v -23.771678924560547 -3.846721887588501 14.054648399353027
v 24.39870262145996 -9.404779434204102 15.907344818115234
v 6.797966480255127 -9.404890060424805 15.907344818115234
v 6.79802131652832 -3.8466668128967285 15.907344818115234
v 6.797966480255127 -9.404890060424805 15.907344818115234
v -5.244545936584473 -9.404834747314453 15.907344818115234
v -5.244545936584473 -9.404834747314453 4.791093349456787
v -5.244545936584473 -9.404834747314453 15.907344818115234
v -5.244545936584473 -3.846611499786377 15.907344818115234
v -5.244545936584473 -3.846611499786377 14.054646492004395
v -5.244545936584473 -3.846611499786377 15.907344818115234
v -23.771678924560547 -3.846721887588501 15.9073486328125
v -23.771678924560547 -3.846721887588501 14.054648399353027
v -23.771678924560547 -9.404779434204102 4.79109525680542
v -23.771678924560547 -3.846721887588501 14.054648399353027
v -23.771678924560547 -9.404779434204102 15.9073486328125
v 6.797966480255127 -9.404890060424805 15.907344818115234
v 24.39870262145996 -9.404779434204102 15.907344818115234
v 24.39875602722168 -14.962946891784668 15.907317161560059
v -23.771678924560547 -9.404779434204102 15.9073486328125
v -23.771678924560547 -3.846721887588501 15.9073486328125
v -5.244545936584473 -3.846611499786377 15.907344818115234
v -23.771678924560547 -3.846721887588501 15.9073486328125
v -5.244545936584473 -9.404834747314453 15.907344818115234
v -23.771678924560547 -9.404779434204102 15.9073486328125
v -5.244545936584473 -3.846611499786377 15.907344818115234
v -5.244545936584473 -9.404834747314453 15.907344818115234
v 6.797966480255127 -9.404890060424805 15.907344818115234
v 24.39875602722168 -14.962946891784668 15.907317161560059
v 24.39875602722168 -14.962946891784668 15.907317161560059
v -23.771678924560547 -14.962946891784668 15.907379150390625
v -5.244545936584473 -9.404834747314453 15.907344818115234
v -23.771678924560547 -14.962946891784668 15.907379150390625
v -23.771678924560547 -9.404779434204102 15.9073486328125
v -5.244545936584473 -9.404834747314453 15.907344818115234
vt 0.38581767678260803 0.26640355587005615
vt 0.38581767678260803 0.25893574953079224
vt 0.39230555295944214 0.25893574953079224
vt 0.39230555295944214 0.26640355587005615
vt 0.38581767678260803 0.26640355587005615
vt 0.39230555295944214 0.25893574953079224
vt 0.9734327793121338 0.8006975650787354
vt 0.9839277267456055 0.8006975650787354
vt 0.9804294109344482 0.8060406446456909
vt 0.38773009181022644 0.9103565812110901
vt 0.38773006200790405 0.9447367191314697
vt 0.452402263879776 0.9103565812110901
vt 0.980287492275238 0.9194800853729248
vt 0.9735778570175171 0.9249260425567627
vt 0.9697966575622559 0.9196376204490662
vt 0.9356114864349365 0.8349940776824951
vt 0.938585102558136 0.8384423851966858
vt 0.9245280027389526 0.8384423851966858
vt 0.9364224672317505 0.8349940776824951
vt 0.938585102558136 0.8349940776824951
vt 0.938585102558136 0.8384423851966858
vt 0.938585102558136 0.8384423851966858
vt 0.9356114864349365 0.8349940776824951
vt 0.9364224672317505 0.8349940776824951
vt 0.9778056740760803 0.814171552658081
vt 0.9734327793121338 0.8006975650787354
vt 0.9804294109344482 0.8060406446456909
vt 0.9245280027389526 0.8384423851966858
vt 0.9245280027389526 0.8349940776824951
vt 0.9356114864349365 0.8349940776824951
vt 0.980287492275238 0.9194800853729248
vt 0.9766330718994141 0.9330142736434937
vt 0.9735778570175171 0.9249260425567627
vt 0.38773006200790405 0.9447367191314697
vt 0.4524022340774536 0.9447367191314697
vt 0.452402263879776 0.9103565812110901
vt 0.9364224672317505 0.8349940776824951
vt 0.938585102558136 0.825789749622345
vt 0.938585102558136 0.8349940776824951
vt 0.9356114864349365 0.8349940776824951
vt 0.938585102558136 0.825789749622345
vt 0.9364224672317505 0.8349940776824951
vt 0.9778056740760803 0.8183531761169434
vt 0.9778056740760803 0.814171552658081
vt 0.9804294109344482 0.8060406446456909
vt 0.9356114864349365 0.8349940776824951
vt 0.9245280027389526 0.8349940776824951
vt 0.9245280027389526 0.825789749622345
vt 0.9766330718994141 0.9330142736434937
vt 0.9768555760383606 0.9371942281723022
vt 0.9735778570175171 0.9249260425567627
vt 0.9778056740760803 0.8211408853530884
vt 0.9778056740760803 0.8183531761169434
vt 0.9804294109344482 0.8060406446456909
vt 0.3164917230606079 0.35790055990219116
vt 0.3116447925567627 0.35043275356292725
vt 0.3164917230606079 0.35043275356292725
vt 0.9804294109344482 0.8060406446456909
vt 0.9804294109344482 0.8211408853530884
vt 0.9778056740760803 0.8211408853530884
vt 0.3164917230606079 0.35790055990219116
vt 0.3116447925567627 0.35790055990219116
vt 0.3116447925567627 0.35517197847366333
vt 0.3164917230606079 0.35790055990219116
vt 0.3116447925567627 0.35517197847366333
vt 0.3116447925567627 0.35330498218536377
vt 0.9768555760383606 0.9371942281723022
vt 0.9770038723945618 0.9399808049201965
vt 0.9735778570175171 0.9249260425567627
vt 0.3164917230606079 0.35790055990219116
vt 0.3116447925567627 0.35330498218536377
vt 0.3116447925567627 0.35043275356292725
vt 0.9356114864349365 0.8349940776824951
vt 0.9245280027389526 0.825789749622345
vt 0.9743812084197998 0.9400202035903931
vt 0.9735778570175171 0.9249260425567627
vt 0.9770038723945618 0.9399808049201965
vt 0.9751819372177124 0.8211408853530884
vt 0.9751819372177124 0.8206762075424194
vt 0.9778056740760803 0.8183531761169434
vt 0.3116447925567627 0.35517197847366333
vt 0.3116447925567627 0.35790055990219116
vt 0.30880895256996155 0.35517197847366333
vt 0.3116447925567627 0.35790055990219116
vt 0.30880895256996155 0.35790055990219116
vt 0.30880895256996155 0.35517197847366333
vt 0.9778056740760803 0.8211408853530884
vt 0.9751819372177124 0.8211408853530884
vt 0.9778056740760803 0.8183531761169434
vt 0.30880895256996155 0.35790055990219116
vt 0.3082704246044159 0.35790055990219116
vt 0.3082704246044159 0.35517197847366333
vt 0.30880895256996155 0.35517197847366333
vt 0.30880895256996155 0.35790055990219116
vt 0.3082704246044159 0.35517197847366333
vt 0.3116447925567627 0.35517197847366333
vt 0.3084135055541992 0.35517197847366333
vt 0.3116447925567627 0.35330498218536377
vt 0.3116447925567627 0.35330498218536377
vt 0.30880895256996155 0.35330498218536377
vt 0.3116447925567627 0.35043275356292725
vt 0.02589462511241436 0.6741853952407837
vt 0.02589462511241436 0.6759088039398193
vt 0.024272650480270386 0.6744726896286011
vt 0.1986778974533081 0.7527316808700562
vt 0.19705592095851898 0.7527316808700562
vt 0.1986778974533081 0.7500030994415283
vt 0.30880895256996155 0.35330498218536377
vt 0.30880895256996155 0.35043275356292725
vt 0.3116447925567627 0.35043275356292725
vt 0.024272650480270386 0.6744726896286011
vt 0.024272650480270386 0.6741853952407837
vt 0.02589462511241436 0.6741853952407837
vt 0.0025091534480452538 0.9733414649963379
vt 0.0008871764875948429 0.9747775793075562
vt 0.0008871764875948429 0.9730542302131653
vt 0.30880895256996155 0.35330498218536377
vt 0.3082704246044159 0.35330498218536377
vt 0.30880895256996155 0.35043275356292725
vt 0.19705592095851898 0.7527316808700562
vt 0.19705592095851898 0.7500030994415283
vt 0.1986778974533081 0.7500030994415283
vt 0.3084135055541992 0.35517197847366333
vt 0.3084135055541992 0.35330498218536377
vt 0.3116447925567627 0.35330498218536377
vt 0.0008871764875948429 0.9730542302131653
vt 0.0025091534480452538 0.9730542302131653
vt 0.0025091534480452538 0.9733414649963379
vt 0.3082704246044159 0.35330498218536377
vt 0.3082704246044159 0.35043275356292725
vt 0.30880895256996155 0.35043275356292725
vt 0.9768555760383606 0.9371942281723022
vt 0.9796018600463867 0.9394769668579102
vt 0.9770038723945618 0.9399808049201965
vt 0.19705592095851898 0.7500030994415283
vt 0.19705592095851898 0.7527316808700562
vt 0.19543394446372986 0.7527316808700562
vt 0.19705592095851898 0.7452638745307922
vt 0.1986778974533081 0.7452638745307922
vt 0.1986778974533081 0.748136043548584
vt 0.9796265959739685 0.93994140625
vt 0.19705592095851898 0.748136043548584
vt 0.19705592095851898 0.7452638745307922
vt 0.1986778974533081 0.748136043548584
vt 0.19705592095851898 0.748136043548584
vt 0.19705592095851898 0.7500030994415283
vt 0.19543394446372986 0.7527316808700562
vt 0.19543394446372986 0.7527316808700562
vt 0.19543394446372986 0.7452638745307922
vt 0.19705592095851898 0.748136043548584
vt 0.19543394446372986 0.7452638745307922
vt 0.19705592095851898 0.7452638745307922
vt 0.19705592095851898 0.748136043548584
vn 0.0000001373194322695781 -0 -0.9999999403953552
vn 0.0000001373194322695781 -0 -0.9999999403953552
vn 0.0000001373194322695781 -0 -0.9999999403953552
vn 0 -0 -1
vn 0 -0 -1
vn 0 -0 -1
vn 1 -0.00000253076245826378 -0.0000017276706785196438
vn 1 -0.00000253076245826378 -0.0000017276706785196438
vn 1 -0.00000253076245826378 -0.0000017276706785196438
vn 0.000001122121830121614 0.985460102558136 0.16990678012371063
vn 0.000001122121830121614 0.985460102558136 0.16990678012371063
vn 0.000001122121830121614 0.985460102558136 0.16990678012371063
vn -1 -0.000002530749725337955 -0.000004319173967815004
vn -1 -0.000002530749725337955 -0.000004319173967815004
vn -1 -0.000002530749725337955 -0.000004319173967815004
vn 0.00000110321866486629 -0.9444964528083801 0.3285216689109802
vn 0.00000110321866486629 -0.9444964528083801 0.3285216689109802
vn 0.00000110321866486629 -0.9444964528083801 0.3285216689109802
vn 0 -0.9444965720176697 0.32852137088775635
vn 0 -0.9444965720176697 0.32852137088775635
vn 0 -0.9444965720176697 0.32852137088775635
vn 0 -0.9444965124130249 0.3285213112831116
vn 0 -0.9444965124130249 0.3285213112831116
vn 0 -0.9444965124130249 0.3285213112831116
vn 1 0.0000023349712137132883 0.0000013662944411407807
vn 1 0.0000023349712137132883 0.0000013662944411407807
vn 1 0.0000023349712137132883 0.0000013662944411407807
vn 0 -0.9444958567619324 0.3285234272480011
vn 0 -0.9444958567619324 0.3285234272480011
vn 0 -0.9444958567619324 0.3285234272480011
vn -1 0.0000050034936975862365 0.0000008539338978152955
vn -1 0.0000050034936975862365 0.0000008539338978152955
vn -1 0.0000050034936975862365 0.0000008539338978152955
vn 0 0.9854599237442017 0.16990773379802704
vn 0 0.9854599237442017 0.16990773379802704
vn 0 0.9854599237442017 0.16990773379802704
vn 0 -1 -0
vn 0 -1 -0
vn 0 -1 -0
vn 0 -1 -0.0000001492494590138449
vn 0 -1 -0.0000001492494590138449
vn 0 -1 -0.0000001492494590138449
vn 1 0.000010240161827823613 -0
vn 1 0.000010240161827823613 -0
vn 1 0.000010240161827823613 -0
vn 0 -1 -0.00000004368301631529903
vn 0 -1 -0.00000004368301631529903
vn 0 -1 -0.00000004368301631529903
vn -0.9999999403953552 0.000011318069482513238 -0
vn -0.9999999403953552 0.000011318069482513238 -0
vn -0.9999999403953552 0.000011318069482513238 -0
vn 0.9999999403953552 0.000008084341970970854 -0
vn 0.9999999403953552 0.000008084341970970854 -0
vn 0.9999999403953552 0.000008084341970970854 -0
vn 0 1 -0
vn 0 1 -0
vn 0 1 -0
vn 1 0.000010148962246603332 -0
vn 1 0.000010148962246603332 -0
vn 1 0.000010148962246603332 -0
vn -0.000006274173756537493 1 -0
vn -0.000006274173756537493 1 -0
vn -0.000006274173756537493 1 -0
vn 0.000004585010628943564 1 0.000011442622053436935
vn 0.000004585010628943564 1 0.000011442622053436935
vn 0.000004585010628943564 1 0.000011442622053436935
vn -1 0.00000565904065297218 -0
vn -1 0.00000565904065297218 -0
vn -1 0.00000565904065297218 -0
vn 0.000002980227463922347 1 0.000008731130037631374
vn 0.000002980227463922347 1 0.000008731130037631374
vn 0.000002980227463922347 1 0.000008731130037631374
vn 0 -1 -0
vn 0 -1 -0
vn -1 0.0000005969971539343533 0.0000009169940540232346
vn -1 0.0000005969971539343533 0.0000009169940540232346
vn -1 0.0000005969971539343533 0.0000009169940540232346
vn 1 -0.000010307790944352746 -0
vn 1 -0.000010307790944352746 -0
vn 1 -0.000010307790944352746 -0
vn -0.000005435346338344971 0.857489287853241 -0.5145019888877869
vn -0.000005435346338344971 0.857489287853241 -0.5145019888877869
vn -0.000005435346338344971 0.857489287853241 -0.5145019888877869
vn 0.00000265982816927135 0.8574960231781006 -0.5144906640052795
vn 0.00000265982816927135 0.8574960231781006 -0.5144906640052795
vn 0.00000265982816927135 0.8574960231781006 -0.5144906640052795
vn 1 -0.000009701405360829085 -0
vn 1 -0.000009701405360829085 -0
vn 1 -0.000009701405360829085 -0
vn 0.0000031370857414003694 0.9999999403953552 -0
vn 0.0000031370857414003694 0.9999999403953552 -0
vn 0.0000031370857414003694 0.9999999403953552 -0
vn 0.0000031370893793791765 1 -0
vn 0.0000031370893793791765 1 -0
vn 0.0000031370893793791765 1 -0
vn 0.000004585010628943564 1 -0
vn 0.000004585010628943564 1 -0
vn 0.000004585010628943564 1 -0
vn 0.0000024956157176347915 0.8574891686439514 -0.5145019888877869
vn 0.0000024956157176347915 0.8574891686439514 -0.5145019888877869
vn 0.0000024956157176347915 0.8574891686439514 -0.5145019888877869
vn -1 0.000010105332876264583 -0
vn -1 0.000010105332876264583 -0
vn -1 0.000010105332876264583 -0
vn -0.00000012765006829340564 -0 1
vn -0.00000012765006829340564 -0 1
vn -0.00000012765006829340564 -0 1
vn -0.00000515210876983474 0.8574960231781006 -0.5144906640052795
vn -0.00000515210876983474 0.8574960231781006 -0.5144906640052795
vn -0.00000515210876983474 0.8574960231781006 -0.5144906640052795
vn -1 0.000010004317118728068 -0
vn -1 0.000010004317118728068 -0
vn -1 0.000010004317118728068 -0
vn 1 0.00000010105333103638259 -0
vn 1 0.00000010105333103638259 -0
vn 1 0.00000010105333103638259 -0
vn -0.000005960455382592045 0.9999999403953552 -0
vn -0.000005960455382592045 0.9999999403953552 -0
vn -0.000005960455382592045 0.9999999403953552 -0
vn 0.00000008351855029786748 -0 0.9999999403953552
vn 0.00000008351855029786748 -0 0.9999999403953552
vn 0.00000008351855029786748 -0 0.9999999403953552
vn 0.000004585011083690915 1 -0
vn 0.000004585011083690915 1 -0
vn 0.000004585011083690915 1 -0
vn 1 -0 -0
vn 1 -0 -0
vn 1 -0 -0
vn -0.000005960449925623834 1 -0
vn -0.000005960449925623834 1 -0
vn -0.000005960449925623834 1 -0
vn -1 -0 -0
vn -1 -0 -0
vn -1 -0 -0
vn -0.0000000835193674220136 -0.000004967018412571633 1
vn -0.0000000835193674220136 -0.000004967018412571633 1
vn -0.0000000835193674220136 -0.000004967018412571633 1
vn 0.00000024253455421785475 -0 1
vn 0.00000024253455421785475 -0 1
vn 0.00000024253455421785475 -0 1
vn -1 -0 -0
vn 0.0000000815942868825914 -0 1
vn 0.0000000815942868825914 -0 1
vn 0.0000000815942868825914 -0 1
vn 0.00000006103599758944256 -0.000004967191671312321 1
vn 0.00000006103599758944256 -0.000004967191671312321 1
vn 0.00000006103599758944256 -0.000004967191671312321 1
vn 0.0000013059452612651512 0.0000019104011244053254 1
vn 0.0000013059452612651512 0.0000019104011244053254 1
vn 0.0000013059452612651512 0.0000019104011244053254 1
vn 0.00000012126488968533522 0.000005587897248915397 1
vn 0.00000012126488968533522 0.000005587897248915397 1
vn 0.00000012126488968533522 0.000005587897248915397 1
f 3/3/3 2/2/2 1/1/1
f 6/6/6 5/5/5 4/4/4
f 9/9/9 8/8/8 7/7/7
f 12/12/12 11/11/11 10/10/10
f 15/15/15 14/14/14 13/13/13
f 18/18/18 17/17/17 16/16/16
f 21/21/21 20/20/20 19/19/19
f 24/24/24 23/23/23 22/22/22
f 27/27/27 26/26/26 25/25/25
f 30/30/30 29/29/29 28/28/28
f 33/33/33 32/32/32 31/31/31
f 36/36/36 35/35/35 34/34/34
f 39/39/39 38/38/38 37/37/37
f 42/42/42 41/41/41 40/40/40
f 45/45/45 44/44/44 43/43/43
f 48/48/48 47/47/47 46/46/46
f 51/51/51 50/50/50 49/49/49
f 54/54/54 53/53/53 52/52/52
f 57/57/57 56/56/56 55/55/55
f 60/60/60 59/59/59 58/58/58
f 63/63/63 62/62/62 61/61/61
f 66/66/66 65/65/65 64/64/64
f 69/69/69 68/68/68 67/67/67
f 72/72/72 71/71/71 70/70/70
f 38/38/38 74/74/74 73/73/73
f 77/77/77 76/76/76 75/75/75
f 80/80/80 79/79/79 78/78/78
f 83/83/83 82/82/82 81/81/81
f 86/86/86 85/85/85 84/84/84
f 89/89/89 88/88/88 87/87/87
f 92/92/92 91/91/91 90/90/90
f 95/95/95 94/94/94 93/93/93
f 98/98/98 97/97/97 96/96/96
f 101/101/101 100/100/100 99/99/99
f 104/104/104 103/103/103 102/102/102
f 107/107/107 106/106/106 105/105/105
f 110/110/110 109/109/109 108/108/108
f 113/113/113 112/112/112 111/111/111
f 116/116/116 115/115/115 114/114/114
f 119/119/119 118/118/118 117/117/117
f 122/122/122 121/121/121 120/120/120
f 125/125/125 124/124/124 123/123/123
f 128/128/128 127/127/127 126/126/126
f 131/131/131 130/130/130 129/129/129
f 134/134/134 133/133/133 132/132/132
f 137/137/137 136/136/136 135/135/135
f 140/140/140 139/139/139 138/138/138
f 134/134/134 141/141/141 133/133/133
f 144/144/144 143/143/143 142/142/142
f 147/147/147 146/146/146 145/145/145
f 150/150/150 149/149/149 148/148/148
f 153/153/153 152/152/152 151/151/151
