# VPXTOOL table OBJ file
# VPXTOOL OBJ file
# numVerts: 4 numFaces: 6
o LM_D_pf_seg9_Parts
v 4.427694797515869 748.8377685546875 149.57485961914063
v -83.9847412109375 748.8377685546875 149.57485961914063
v 4.427694797515869 699.7158813476563 149.57485961914063
v -83.9847412109375 699.7158813476563 149.57485961914063
vt 0.6820276975631714 0.7885681390762329
vt 0.6820276975631714 0.8145537376403809
vt 0.6555880904197693 0.7885837554931641
vt 0.6555880904197693 0.8143449425697327
vn 0 -0 -1
vn 0 -0 -1
vn 0 -0 -1
vn 0 -0 -1
f 3/3/3 2/2/2 1/1/1
f 3/3/3 4/4/4 2/2/2
