# VPXTOOL table OBJ file
# VPXTOOL OBJ file
# numVerts: 128 numFaces: 243
o LM_L_LH1_Playfield
v -325.806396484375 607.1444702148438 -0
v -422.36065673828125 529.0414428710938 -0.000003450940539551084
v -421.1675720214844 529.2304077148438 -0.000003450940539551084
v -325.806396484375 607.1444702148438 -0
v -421.1675720214844 529.2304077148438 -0.000003450940539551084
v -420.6788024902344 529.2304077148438 -0.000003450940539551084
v -325.806396484375 607.1444702148438 -0
v -306.0230712890625 467.4849548339844 -0
v -288.919677734375 497.38885498046875 -0
v -345.0422668457031 548.9149780273438 0.000003450940539551084
v -306.0230712890625 467.4849548339844 -0
v -325.806396484375 607.1444702148438 -0
v -351.6612854003906 552.0385131835938 0.000003450940539551084
v -325.806396484375 607.1444702148438 -0
v -420.6788024902344 529.2304077148438 -0.000003450940539551084
v -244.15174865722656 563.1470947265625 23.52941131591797
v -233.93276977539063 534.5339965820313 23.52941131591797
v -233.93276977539063 534.5339965820313 -0
v -269.9678649902344 528.7254028320313 -0
v -233.93276977539063 534.5339965820313 -0
v -233.93276977539063 534.5339965820313 23.52941131591797
v -233.8252410888672 532.7052612304688 -0
v -325.806396484375 607.1444702148438 -0
v -345.231201171875 550.1079711914063 0.000003450940539551084
v -345.0422668457031 548.9149780273438 0.000003450940539551084
v -325.806396484375 607.1444702148438 -0
v -351.6612854003906 552.0385131835938 0.000003450940539551084
v -350.5849609375 552.5869140625 0.000003450940539551084
v -325.806396484375 607.1444702148438 -0
v -345.77960205078125 551.1842041015625 0.000003450940539551084
v -345.231201171875 550.1079711914063 0.000003450940539551084
v -325.806396484375 607.1444702148438 -0
v -350.5849609375 552.5869140625 0.000003450940539551084
v -349.3918762207031 552.77587890625 0.000003450940539551084
v -325.806396484375 607.1444702148438 -0
v -346.6337890625 552.0385131835938 0.000003450940539551084
v -345.77960205078125 551.1842041015625 0.000003450940539551084
v -349.3918762207031 552.77587890625 0.000003450940539551084
v -348.9031066894531 552.7757568359375 0.000003450940539551084
v -325.806396484375 607.1444702148438 -0
v -325.806396484375 607.1444702148438 -0
v -348.9031066894531 552.7757568359375 0.000003450940539551084
v -347.7100830078125 552.5869140625 0.000003450940539551084
v -325.806396484375 607.1444702148438 -0
v -347.7100830078125 552.5869140625 0.000003450940539551084
v -346.6337890625 552.0385131835938 0.000003450940539551084
v -246.41070556640625 566.3740844726563 23.52941131591797
v -244.15174865722656 563.1470947265625 23.52941131591797
v -244.15174865722656 563.1470947265625 -0
v -244.15174865722656 563.1470947265625 -0
v -244.15174865722656 563.1470947265625 23.52941131591797
v -233.93276977539063 534.5339965820313 -0
v -248.99212646484375 568.3103637695313 23.52941131591797
v -246.41070556640625 566.3740844726563 23.52941131591797
v -246.41070556640625 566.3740844726563 -0
v -255.33876037597656 569.601318359375 23.52941131591797
v -251.68153381347656 569.3861694335938 23.52941131591797
v -251.68153381347656 569.3861694335938 -0
v -251.68153381347656 569.3861694335938 23.52941131591797
v -248.99212646484375 568.3103637695313 23.52941131591797
v -248.99212646484375 568.3103637695313 -0
v -266.2030944824219 559.4898681640625 -0
v -246.41070556640625 566.3740844726563 -0
v -246.41070556640625 566.3740844726563 23.52941131591797
v -244.15174865722656 563.1470947265625 -0
v -255.33876037597656 569.601318359375 -0
v -248.99212646484375 568.3103637695313 -0
v -251.68153381347656 569.3861694335938 -0
v -41.22587585449219 534.7922973632813 -0
v -233.93276977539063 534.5339965820313 -0
v -233.8252410888672 532.7052612304688 -0
v -265.4501953125 562.1790771484375 -0
v -422.36065673828125 529.0414428710938 -0.000003450940539551084
v -325.806396484375 607.1444702148438 -0
v -449.4949035644531 726.871337890625 -0.000001725470269775542
v -263.8365783691406 564.975830078125 -0
v -325.806396484375 607.1444702148438 -0
v -263.8365783691406 564.975830078125 -0
v -261.47003173828125 567.2348022460938 -0
v -261.47003173828125 567.2348022460938 -0
v -258.35064697265625 568.8482055664063 -0
v -255.33876037597656 569.601318359375 -0
v -251.68153381347656 569.3861694335938 -0
v -233.93276977539063 534.5339965820313 -0
v -41.22587585449219 534.7922973632813 -0
v -36.2238883972168 548.8837280273438 -0
v -106.2380599975586 639.1170654296875 -0
v 151.48098754882813 535.0505981445313 -0
v -244.15174865722656 563.1470947265625 -0
v -176.25222778320313 729.3502807617188 -0
v -232.36293029785156 746.2383422851563 -0
v -248.99212646484375 568.3103637695313 -0
v -246.41070556640625 566.3740844726563 -0
v -244.15174865722656 563.1470947265625 -0
v -181.36172485351563 743.6567993164063 -0
v -233.70762634277344 746.7762451171875 -0
v -246.41070556640625 566.3740844726563 -0
v -182.49119567871094 745.2703247070313 -0
v 161.48497009277344 563.2334594726563 -0
v -325.806396484375 607.1444702148438 -0
v -401.2177734375 765.9228515625 -0
v -449.4949035644531 726.871337890625 -0.000001725470269775542
v -377.4341125488281 765.9228515625 -0
v -401.2177734375 765.9228515625 -0
v -375.1590270996094 766.0567626953125 -0
v -373.15142822265625 767.3950805664063 -0
v 91.47079467773438 653.466796875 -0
v -273.31280517578125 766.4584350585938 -0
v -181.36172485351563 743.6567993164063 -0
v -270.7700500488281 765.6553955078125 -0
v -183.7819061279297 746.2384643554688 -0
v 21.456623077392578 743.7000122070313 -0
v 21.456623077392578 743.7000122070313 -0
v 91.47079467773438 653.466796875 -0
v 92.43888092041016 654.9189453125 -0
v 92.92289733886719 655.6448974609375 -0
v 92.43888092041016 654.9189453125 -0
v 22.42470932006836 745.1521606445313 -0
v -215.73370361328125 924.166259765625 -0
v -48.55752182006836 833.9331665039063 -0
v -118.57166290283203 924.16650390625 -0
v -220.81922912597656 925.7723999023438 -0
v -48.07347869873047 834.6593627929688 -0
v -47.508766174316406 835.1165771484375 -0
v -46.75574493408203 835.4122924804688 -0
v -15.093999862670898 946.6763916015625 -0
v -15.903038024902344 947.5130004882813 -0
v -41.21670913696289 1058.8233642578125 -0
vt 0.528896152973175 0.6822562217712402
vt 0.5073003172874451 0.7089920043945313
vt 0.5073518753051758 0.7086498737335205
vt 0.528896152973175 0.6822562217712402
vt 0.5073518753051758 0.7086498737335205
vt 0.5073518753051758 0.7085081338882446
vt 0.528896152973175 0.6822562217712402
vt 0.49067962169647217 0.6743314266204834
vt 0.49871066212654114 0.6698405742645264
vt 0.5127408504486084 0.6869049072265625
vt 0.49067962169647217 0.6743314266204834
vt 0.528896152973175 0.6822562217712402
vt 0.5135992765426636 0.6888856887817383
vt 0.528896152973175 0.6822562217712402
vt 0.5073518753051758 0.7085081338882446
vt 0.5191221833229065 0.6572237014770508
vt 0.5113049745559692 0.6539362668991089
vt 0.5088002681732178 0.6544027328491211
vt 0.5072140693664551 0.6647870540618896
vt 0.5088002681732178 0.6544027328491211
vt 0.5113049745559692 0.6539362668991089
vt 0.5083005428314209 0.6543504595756531
vt 0.528896152973175 0.6822562217712402
vt 0.5130686163902283 0.6869803071022034
vt 0.5127408504486084 0.6869049072265625
vt 0.528896152973175 0.6822562217712402
vt 0.5135992765426636 0.6888856887817383
vt 0.5137501358985901 0.6885818243026733
vt 0.528896152973175 0.6822562217712402
vt 0.5133643746376038 0.6871584057807922
vt 0.5130686163902283 0.6869803071022034
vt 0.528896152973175 0.6822562217712402
vt 0.5137501358985901 0.6885818243026733
vt 0.5138020515441895 0.6882376670837402
vt 0.528896152973175 0.6822562217712402
vt 0.5135992765426636 0.6874217987060547
vt 0.5133643746376038 0.6871584057807922
vt 0.5138020515441895 0.6882376670837402
vt 0.5138019919395447 0.6880953311920166
vt 0.528896152973175 0.6822562217712402
vt 0.528896152973175 0.6822562217712402
vt 0.5138019919395447 0.6880953311920166
vt 0.5137501358985901 0.6877446174621582
vt 0.528896152973175 0.6822562217712402
vt 0.5137501358985901 0.6877446174621582
vt 0.5135992765426636 0.6874217987060547
vt 0.5200086236000061 0.6579172015190125
vt 0.5191221833229065 0.6572237014770508
vt 0.5166597366333008 0.6577154397964478
vt 0.5166597366333008 0.6577154397964478
vt 0.5191221833229065 0.6572237014770508
vt 0.5088002681732178 0.6544027328491211
vt 0.5205409526824951 0.6586892008781433
vt 0.5200086236000061 0.6579172015190125
vt 0.5175509452819824 0.6584140062332153
vt 0.5208960175514221 0.6605457663536072
vt 0.5208368897438049 0.6594823598861694
vt 0.5183837413787842 0.6599903702735901
vt 0.5208368897438049 0.6594823598861694
vt 0.5205409526824951 0.6586892008781433
vt 0.5180861949920654 0.6591916084289551
vt 0.5156508684158325 0.664100170135498
vt 0.5175509452819824 0.6584140062332153
vt 0.5200086236000061 0.6579172015190125
vt 0.5166597366333008 0.6577154397964478
vt 0.51844322681427 0.66106116771698
vt 0.5180861949920654 0.6591916084289551
vt 0.5183837413787842 0.6599903702735901
vt 0.5088708996772766 0.5984573364257813
vt 0.5088002681732178 0.6544027328491211
vt 0.5083005428314209 0.6543504595756531
vt 0.5163925290107727 0.6639161705970764
vt 0.5073003172874451 0.7089920043945313
vt 0.528896152973175 0.6822562217712402
vt 0.5631534457206726 0.7213936448097229
vt 0.5171646475791931 0.6634821891784668
vt 0.528896152973175 0.6822562217712402
vt 0.5171646475791931 0.6634821891784668
vt 0.517788827419281 0.6628210544586182
vt 0.517788827419281 0.6628210544586182
vt 0.51823490858078 0.6619311571121216
vt 0.51844322681427 0.66106116771698
vt 0.5183837413787842 0.6599903702735901
vt 0.5088002681732178 0.6544027328491211
vt 0.5088708996772766 0.5984573364257813
vt 0.5127322673797607 0.597029983997345
vt 0.5379053354263306 0.6178865432739258
vt 0.5089414715766907 0.5425070524215698
vt 0.5166597366333008 0.6577154397964478
vt 0.5638779997825623 0.6394054889678955
vt 0.5688309669494629 0.6564614176750183
vt 0.5180861949920654 0.6591916084289551
vt 0.5175509452819824 0.6584140062332153
vt 0.5166597366333008 0.6577154397964478
vt 0.5680719614028931 0.6410767436027527
vt 0.5689892172813416 0.6568730473518372
vt 0.5175509452819824 0.6584140062332153
vt 0.5685462951660156 0.6414323449134827
vt 0.5166835784912109 0.5393756628036499
vt 0.528896152973175 0.6822562217712402
vt 0.5746415257453918 0.707735538482666
vt 0.5631534457206726 0.7213936448097229
vt 0.5746415257453918 0.7005476951599121
vt 0.5746415257453918 0.707735538482666
vt 0.5746811628341675 0.6998628377914429
vt 0.5750777125358582 0.6992827653884888
vt 0.5419812798500061 0.5593805313110352
vt 0.5748001337051392 0.6690883636474609
vt 0.5680719614028931 0.6410767436027527
vt 0.5745622515678406 0.6683081388473511
vt 0.5688309669494629 0.6418304443359375
vt 0.5680846571922302 0.5800224542617798
vt 0.5680846571922302 0.5800224542617798
vt 0.5419812798500061 0.5593805313110352
vt 0.5423949360847473 0.5590867400169373
vt 0.5426017642021179 0.5589397549629211
vt 0.5423949360847473 0.5590867400169373
vt 0.5685115456581116 0.5797293186187744
vt 0.6228671073913574 0.6535541415214539
vt 0.5950326919555664 0.6013323664665222
vt 0.6228671669960022 0.6233432292938232
vt 0.6233708262443542 0.6551554203033447
vt 0.5952531099319458 0.6011861562728882
vt 0.5953919291496277 0.6010146141052246
vt 0.5954816937446594 0.600784957408905
vt 0.6299540996551514 0.5911871194839478
vt 0.6302186250686646 0.5914404392242432
vt 0.6661505699157715 0.5996085405349731
vn -0.000000008700182796417266 0.00000005493674848366936 -1
vn -0.000000008700182796417266 0.00000005493674848366936 -1
vn -0.000000008700182796417266 0.00000005493674848366936 -1
vn 0 0.00000004429317712606462 -1
vn 0 0.00000004429317712606462 -1
vn 0 0.00000004429317712606462 -1
vn 0 -0 -1
vn 0 -0 -1
vn 0 -0 -1
vn -0.00000012556044737266348 -0.000000017786142336717603 -1
vn -0.00000012556044737266348 -0.000000017786142336717603 -1
vn -0.00000012556044737266348 -0.000000017786142336717603 -1
vn 0.00000014284529470387497 -0.00000012964463280695782 -0.9999999403953552
vn 0.00000014284529470387497 -0.00000012964463280695782 -0.9999999403953552
vn 0.00000014284529470387497 -0.00000012964463280695782 -0.9999999403953552
vn -0.9417418837547302 -0.33633628487586975 -0
vn -0.9417418837547302 -0.33633628487586975 -0
vn -0.9417418837547302 -0.33633628487586975 -0
vn 0 -0 -1
vn -0.9982765316963196 -0.05868411436676979 -0
vn -0.9982765316963196 -0.05868411436676979 -0
vn -0.9982765316963196 -0.05868411436676979 -0
vn -0.0000001212577558362682 -0.000000019205037560254823 -1
vn -0.0000001212577558362682 -0.000000019205037560254823 -1
vn -0.0000001212577558362682 -0.000000019205037560254823 -1
vn 0.000000041931812688744685 -0.0000000822973049707798 -1
vn 0.000000041931812688744685 -0.0000000822973049707798 -1
vn 0.000000041931812688744685 -0.0000000822973049707798 -1
vn -0.00000007117212419416319 -0.000000036265213054775813 -1
vn -0.00000007117212419416319 -0.000000036265213054775813 -1
vn -0.00000007117212419416319 -0.000000036265213054775813 -1
vn 0.00000001079362377254256 -0.00000006815564290718612 -1
vn 0.00000001079362377254256 -0.00000006815564290718612 -1
vn 0.00000001079362377254256 -0.00000006815564290718612 -1
vn -0.00000004545111309539607 -0.00000004544523690697133 -1
vn -0.00000004545111309539607 -0.00000004544523690697133 -1
vn -0.00000004545111309539607 -0.00000004544523690697133 -1
vn -0.000000000014338729856233634 -0.00000006346321868022642 -1
vn -0.000000000014338729856233634 -0.00000006346321868022642 -1
vn -0.000000000014338729856233634 -0.00000006346321868022642 -1
vn -0.000000009413650303713439 -0.00000005947390135929709 -1
vn -0.000000009413650303713439 -0.00000005947390135929709 -1
vn -0.000000009413650303713439 -0.00000005947390135929709 -1
vn -0.000000026754946702567395 -0.00000005251049017829246 -1
vn -0.000000026754946702567395 -0.00000005251049017829246 -1
vn -0.000000026754946702567395 -0.00000005251049017829246 -1
vn -0.8192262053489685 -0.5734704732894897 -0
vn -0.8192262053489685 -0.5734704732894897 -0
vn -0.8192262053489685 -0.5734704732894897 -0
vn -0.9417415857315063 -0.33633729815483093 -0
vn -0.9417415857315063 -0.33633729815483093 -0
vn -0.9417415857315063 -0.33633729815483093 -0
vn -0.6000440716743469 -0.7999669909477234 -0
vn -0.6000440716743469 -0.7999669909477234 -0
vn -0.6000440716743469 -0.7999669909477234 -0
vn -0.058718614280223846 -0.998274564743042 -0
vn -0.058718614280223846 -0.998274564743042 -0
vn -0.058718614280223846 -0.998274564743042 -0
vn -0.37140271067619324 -0.9284719228744507 -0
vn -0.37140271067619324 -0.9284719228744507 -0
vn -0.37140271067619324 -0.9284719228744507 -0
vn 0 -0 -1
vn -0.8192221522331238 -0.573476254940033 -0
vn -0.8192221522331238 -0.573476254940033 -0
vn -0.8192221522331238 -0.573476254940033 -0
vn -0.058718614280223846 -0.998274564743042 -0
vn -0.6000440716743469 -0.7999669909477234 -0
vn -0.37140271067619324 -0.9284719228744507 -0
vn 0 -0 -0.9999999403953552
vn 0 -0 -0.9999999403953552
vn 0 -0 -0.9999999403953552
vn 0 -0 -1
vn 0.000000025820893867489758 0.000000012263567050752044 -0.9999999403953552
vn 0.000000025820893867489758 0.000000012263567050752044 -0.9999999403953552
vn 0.000000025820893867489758 0.000000012263567050752044 -0.9999999403953552
vn 0 -0 -1
vn 0 -0 -0.9999999403953552
vn 0 -0 -0.9999999403953552
vn 0 -0 -0.9999999403953552
vn 0 -0 -1
vn 0 -0 -1
vn 0 -0 -1
vn 0 -0 -1
vn 0 -0 -1
vn 0 -0 -1
vn 0 -0 -1
vn 0 -0 -1
vn 0 -0 -1
vn 0 -0 -1
vn 0 -0 -1
vn 0 -0 -1
vn 0 -0 -1
vn 0 -0 -0.9999999403953552
vn 0 -0 -0.9999999403953552
vn 0 -0 -0.9999999403953552
vn 0 -0 -1
vn 0 -0 -1
vn 0 -0 -1
vn 0 -0 -1
vn 0.000000025820909854701313 0.000000012263575932536241 -1
vn 0.000000025820909854701313 0.000000012263575932536241 -1
vn 0.000000025820909854701313 0.000000012263575932536241 -1
vn 0 -0 -1
vn 0 -0 -1
vn 0 -0 -1
vn 0 -0 -1
vn 0 -0 -1
vn 0 -0 -1
vn 0 -0 -1
vn 0 -0 -1
vn 0 -0 -1
vn 0 -0 -1
vn 0 -0 -0.9999999403953552
vn 0 -0 -0.9999999403953552
vn 0 -0 -0.9999999403953552
vn 0 -0 -1
vn 0 -0 -1
vn 0 -0 -1
vn 0 -0 -1
vn 0 -0 -1
vn 0 -0 -1
vn 0 -0 -1
vn 0 -0 -1
vn 0 -0 -1
vn 0 -0 -1
vn 0 -0 -1
vn 0 -0 -1
vn 0 -0 -1
f 3/3/3 2/2/2 1/1/1
f 6/6/6 5/5/5 4/4/4
f 9/9/9 8/8/8 7/7/7
f 12/12/12 11/11/11 10/10/10
f 15/15/15 14/14/14 13/13/13
f 18/18/18 17/17/17 16/16/16
f 19/19/19 9/9/9 7/7/7
f 22/22/22 21/21/21 20/20/20
f 25/25/25 24/24/24 23/23/23
f 28/28/28 27/27/27 26/26/26
f 31/31/31 30/30/30 29/29/29
f 34/34/34 33/33/33 32/32/32
f 37/37/37 36/36/36 35/35/35
f 40/40/40 39/39/39 38/38/38
f 43/43/43 42/42/42 41/41/41
f 46/46/46 45/45/45 44/44/44
f 49/49/49 48/48/48 47/47/47
f 52/52/52 51/51/51 50/50/50
f 55/55/55 54/54/54 53/53/53
f 58/58/58 57/57/57 56/56/56
f 61/61/61 60/60/60 59/59/59
f 62/62/62 19/19/19 7/7/7
f 65/65/65 64/64/64 63/63/63
f 58/58/58 56/56/56 66/66/66
f 55/55/55 53/53/53 67/67/67
f 61/61/61 59/59/59 68/68/68
f 71/71/71 70/70/70 69/69/69
f 72/72/72 62/62/62 7/7/7
f 75/75/75 74/74/74 73/73/73
f 76/76/76 72/72/72 7/7/7
f 79/79/79 78/78/78 77/77/77
f 81/81/81 80/80/80 7/7/7
f 82/82/82 81/81/81 7/7/7
f 83/83/83 82/82/82 7/7/7
f 86/86/86 85/85/85 84/84/84
f 84/84/84 87/87/87 86/86/86
f 88/88/88 85/85/85 86/86/86
f 90/90/90 84/84/84 89/89/89
f 92/92/92 83/83/83 91/91/91
f 95/95/95 94/94/94 93/93/93
f 96/96/96 83/83/83 7/7/7
f 98/98/98 97/97/97 92/92/92
f 88/88/88 86/86/86 99/99/99
f 102/102/102 101/101/101 100/100/100
f 84/84/84 90/90/90 87/87/87
f 104/104/104 103/103/103 7/7/7
f 103/103/103 105/105/105 7/7/7
f 105/105/105 106/106/106 7/7/7
f 86/86/86 107/107/107 99/99/99
f 7/7/7 106/106/106 108/108/108
f 83/83/83 96/96/96 91/91/91
f 90/90/90 89/89/89 109/109/109
f 96/96/96 7/7/7 110/110/110
f 91/91/91 111/111/111 92/92/92
f 108/108/108 110/110/110 7/7/7
f 109/109/109 97/97/97 98/98/98
f 98/98/98 92/92/92 111/111/111
f 87/87/87 112/112/112 86/86/86
f 86/86/86 112/112/112 107/107/107
f 87/87/87 90/90/90 112/112/112
f 115/115/115 114/114/114 113/113/113
f 117/117/117 112/112/112 116/116/116
f 112/112/112 118/118/118 116/116/116
f 96/96/96 119/119/119 91/91/91
f 119/119/119 96/96/96 110/110/110
f 119/119/119 111/111/111 91/91/91
f 90/90/90 120/120/120 112/112/112
f 121/121/121 90/90/90 109/109/109
f 98/98/98 121/121/121 109/109/109
f 111/111/111 121/121/121 98/98/98
f 118/118/118 112/112/112 120/120/120
f 122/122/122 119/119/119 110/110/110
f 90/90/90 121/121/121 120/120/120
f 120/120/120 123/123/123 118/118/118
f 119/119/119 121/121/121 111/111/111
f 120/120/120 121/121/121 123/123/123
f 123/123/123 121/121/121 124/124/124
f 124/124/124 121/121/121 125/125/125
f 126/126/126 125/125/125 121/121/121
f 126/126/126 121/121/121 127/127/127
f 128/128/128 127/127/127 121/121/121
