# VPXTOOL table OBJ file
# VPXTOOL OBJ file
# numVerts: 122 numFaces: 138
o LM_L_LC2_UnderPF
v -99.1873779296875 708.2511596679688 -12.153261184692383
v -104.9932632446289 709.406005859375 -12.153261184692383
v -99.1873779296875 708.2511596679688 -5.324187755584717
v -94.26539611816406 704.9623413085938 -12.153261184692383
v -99.1873779296875 708.2511596679688 -12.153261184692383
v -94.26539611816406 704.9623413085938 -5.324187755584717
v -104.9932632446289 709.406005859375 -12.153261184692383
v -110.79912567138672 708.2511596679688 -12.153261184692383
v -104.9932632446289 709.406005859375 -5.324187755584717
v -104.9932632446289 709.406005859375 -12.153261184692383
v -104.9932632446289 709.406005859375 -5.324187755584717
v -99.1873779296875 708.2511596679688 -5.324187755584717
v -99.1873779296875 708.2511596679688 -12.153261184692383
v -99.1873779296875 708.2511596679688 -5.324187755584717
v -94.26539611816406 704.9623413085938 -5.324187755584717
v -90.97664642333984 700.0403442382813 -12.153261184692383
v -94.26539611816406 704.9623413085938 -12.153261184692383
v -90.97664642333984 700.0403442382813 -5.324187755584717
v -110.79912567138672 708.2511596679688 -12.153261184692383
v -115.72110748291016 704.9623413085938 -12.153261184692383
v -110.79912567138672 708.2511596679688 -5.324187755584717
v -110.79912567138672 708.2511596679688 -12.153261184692383
v -110.79912567138672 708.2511596679688 -5.324187755584717
v -104.9932632446289 709.406005859375 -5.324187755584717
v -94.26539611816406 704.9623413085938 -12.153261184692383
v -94.26539611816406 704.9623413085938 -5.324187755584717
v -90.97664642333984 700.0403442382813 -5.324187755584717
v -94.26539611816406 704.9623413085938 -5.324187755584717
v -99.1873779296875 708.2511596679688 -5.324187755584717
v -104.9932632446289 709.406005859375 -5.324187755584717
v -89.82176971435547 694.2344970703125 -12.153261184692383
v -90.97664642333984 700.0403442382813 -12.153261184692383
v -89.82176971435547 694.2344970703125 -5.324187755584717
v -115.72110748291016 704.9623413085938 -12.153261184692383
v -115.72110748291016 704.9623413085938 -5.324187755584717
v -110.79912567138672 708.2511596679688 -5.324187755584717
v -115.72110748291016 704.9623413085938 -12.153261184692383
v -119.00988006591797 700.0403442382813 -12.153261184692383
v -115.72110748291016 704.9623413085938 -5.324187755584717
v -104.9932632446289 709.406005859375 -5.324187755584717
v -110.79912567138672 708.2511596679688 -5.324187755584717
v -115.72110748291016 704.9623413085938 -5.324187755584717
v -90.97664642333984 700.0403442382813 -12.153261184692383
v -90.97664642333984 700.0403442382813 -5.324187755584717
v -89.82176971435547 694.2344970703125 -5.324187755584717
v -89.82176971435547 694.2344970703125 -5.324187755584717
v -90.97664642333984 700.0403442382813 -5.324187755584717
v -94.26539611816406 704.9623413085938 -5.324187755584717
v -119.00988006591797 700.0403442382813 -12.153261184692383
v -119.00988006591797 700.0403442382813 -5.324187755584717
v -115.72110748291016 704.9623413085938 -5.324187755584717
v -90.97664642333984 688.4286499023438 -12.153261184692383
v -89.82176971435547 694.2344970703125 -12.153261184692383
v -90.97664642333984 688.4286499023438 -5.324187755584717
v -119.00988006591797 700.0403442382813 -12.153261184692383
v -120.16473388671875 694.2344970703125 -12.153261184692383
v -119.00988006591797 700.0403442382813 -5.324187755584717
v -89.82176971435547 694.2344970703125 -12.153261184692383
v -89.82176971435547 694.2344970703125 -5.324187755584717
v -90.97664642333984 688.4286499023438 -5.324187755584717
v -104.9932632446289 679.0630493164063 -5.324187755584717
v -104.9932632446289 709.406005859375 -5.324187755584717
v -115.72110748291016 704.9623413085938 -5.324187755584717
v -119.00988006591797 700.0403442382813 -5.324187755584717
v -120.16473388671875 694.2344970703125 -5.324187755584717
v -104.9932632446289 679.0630493164063 -5.324187755584717
v -89.82176971435547 694.2344970703125 -5.324187755584717
v -94.26539611816406 704.9623413085938 -5.324187755584717
v -120.16473388671875 694.2344970703125 -12.153261184692383
v -120.16473388671875 694.2344970703125 -5.324187755584717
v -119.00988006591797 700.0403442382813 -5.324187755584717
v -94.26539611816406 683.5066528320313 -12.153261184692383
v -90.97664642333984 688.4286499023438 -12.153261184692383
v -94.26539611816406 683.5066528320313 -5.324187755584717
v -120.16473388671875 694.2344970703125 -12.153261184692383
v -119.00988006591797 688.4286499023438 -12.153261184692383
v -120.16473388671875 694.2344970703125 -5.324187755584717
v -90.97664642333984 688.4286499023438 -12.153261184692383
v -90.97664642333984 688.4286499023438 -5.324187755584717
v -94.26539611816406 683.5066528320313 -5.324187755584717
v -94.26539611816406 683.5066528320313 -5.324187755584717
v -90.97664642333984 688.4286499023438 -5.324187755584717
v -99.1873779296875 680.2178955078125 -12.153261184692383
v -94.26539611816406 683.5066528320313 -12.153261184692383
v -99.1873779296875 680.2178955078125 -5.324187755584717
v -119.00988006591797 688.4286499023438 -12.153261184692383
v -115.72110748291016 683.5066528320313 -12.153261184692383
v -119.00988006591797 688.4286499023438 -5.324187755584717
v -119.00988006591797 688.4286499023438 -12.153261184692383
v -119.00988006591797 688.4286499023438 -5.324187755584717
v -120.16473388671875 694.2344970703125 -5.324187755584717
v -99.1873779296875 680.2178955078125 -5.324187755584717
v -94.26539611816406 683.5066528320313 -12.153261184692383
v -94.26539611816406 683.5066528320313 -5.324187755584717
v -99.1873779296875 680.2178955078125 -5.324187755584717
v -104.9932632446289 679.0630493164063 -12.153261184692383
v -99.1873779296875 680.2178955078125 -12.153261184692383
v -104.9932632446289 679.0630493164063 -5.324187755584717
v -115.72110748291016 683.5066528320313 -12.153261184692383
v -110.79912567138672 680.2178955078125 -12.153261184692383
v -115.72110748291016 683.5066528320313 -5.324187755584717
v -110.79912567138672 680.2178955078125 -12.153261184692383
v -104.9932632446289 679.0630493164063 -12.153261184692383
v -110.79912567138672 680.2178955078125 -5.324187755584717
v -115.72110748291016 683.5066528320313 -12.153261184692383
v -115.72110748291016 683.5066528320313 -5.324187755584717
v -119.00988006591797 688.4286499023438 -5.324187755584717
v -119.00988006591797 688.4286499023438 -5.324187755584717
v -115.72110748291016 683.5066528320313 -5.324187755584717
v -99.1873779296875 680.2178955078125 -12.153261184692383
v -99.1873779296875 680.2178955078125 -5.324187755584717
v -104.9932632446289 679.0630493164063 -5.324187755584717
v -120.16473388671875 694.2344970703125 -5.324187755584717
v -115.72110748291016 683.5066528320313 -5.324187755584717
v -110.79912567138672 680.2178955078125 -5.324187755584717
v -110.79912567138672 680.2178955078125 -5.324187755584717
v -110.79912567138672 680.2178955078125 -12.153261184692383
v -110.79912567138672 680.2178955078125 -5.324187755584717
v -115.72110748291016 683.5066528320313 -5.324187755584717
v -104.9932632446289 679.0630493164063 -12.153261184692383
v -104.9932632446289 679.0630493164063 -5.324187755584717
v -110.79912567138672 680.2178955078125 -5.324187755584717
vt 0.04852931201457977 0.9981509447097778
vt 0.04680953919887543 0.9984769821166992
vt 0.048601169139146805 0.9988390803337097
vt 0.05000020191073418 0.9972231388092041
vt 0.04852931201457977 0.9981509447097778
vt 0.050069019198417664 0.9979128241539001
vt 0.04680953919887543 0.9984769821166992
vt 0.04510451853275299 0.9981509447097778
vt 0.0468849241733551 0.9991646409034729
vt 0.04680953919887543 0.9984769821166992
vt 0.0468849241733551 0.9991646409034729
vt 0.048601169139146805 0.9988390803337097
vt 0.04852931201457977 0.9981509447097778
vt 0.048601169139146805 0.9988390803337097
vt 0.050069019198417664 0.9979128241539001
vt 0.05099749192595482 0.9958365559577942
vt 0.05000020191073418 0.9972231388092041
vt 0.051064230501651764 0.9965284466743469
vt 0.04510451853275299 0.9981509447097778
vt 0.04367559030652046 0.9972231388092041
vt 0.04518335685133934 0.9988390803337097
vt 0.04510451853275299 0.9981509447097778
vt 0.04518335685133934 0.9988390803337097
vt 0.0468849241733551 0.9991646409034729
vt 0.05000020191073418 0.9972231388092041
vt 0.050069019198417664 0.9979128241539001
vt 0.051064230501651764 0.9965284466743469
vt 0.050069019198417664 0.9979128241539001
vt 0.048601169139146805 0.9988390803337097
vt 0.0468849241733551 0.9991646409034729
vt 0.051370084285736084 0.9942039847373962
vt 0.05099749192595482 0.9958365559577942
vt 0.05143597349524498 0.9948984980583191
vt 0.04367559030652046 0.9972231388092041
vt 0.043757300823926926 0.9979128241539001
vt 0.04518335685133934 0.9988390803337097
vt 0.04367559030652046 0.9972231388092041
vt 0.042741015553474426 0.9958365559577942
vt 0.043757300823926926 0.9979128241539001
vt 0.0468849241733551 0.9991646409034729
vt 0.04518335685133934 0.9988390803337097
vt 0.043757300823926926 0.9979128241539001
vt 0.05099749192595482 0.9958365559577942
vt 0.051064230501651764 0.9965284466743469
vt 0.05143597349524498 0.9948984980583191
vt 0.05143597349524498 0.9948984980583191
vt 0.051064230501651764 0.9965284466743469
vt 0.050069019198417664 0.9979128241539001
vt 0.042741015553474426 0.9958365559577942
vt 0.04282456263899803 0.9965284466743469
vt 0.043757300823926926 0.9979128241539001
vt 0.05106300115585327 0.9925746917724609
vt 0.051370084285736084 0.9942039847373962
vt 0.05112946778535843 0.9932718276977539
vt 0.042741015553474426 0.9958365559577942
vt 0.04244226589798927 0.9942039847373962
vt 0.04282456263899803 0.9965284466743469
vt 0.051370084285736084 0.9942039847373962
vt 0.05143597349524498 0.9948984980583191
vt 0.05112946778535843 0.9932718276977539
vt 0.047076910734176636 0.9906545877456665
vt 0.0468849241733551 0.9991646409034729
vt 0.043757300823926926 0.9979128241539001
vt 0.04282456263899803 0.9965284466743469
vt 0.042526353150606155 0.9948984980583191
vt 0.047076910734176636 0.9906545877456665
vt 0.05143597349524498 0.9948984980583191
vt 0.050069019198417664 0.9979128241539001
vt 0.04244226589798927 0.9942039847373962
vt 0.042526353150606155 0.9948984980583191
vt 0.04282456263899803 0.9965284466743469
vt 0.05012482404708862 0.9911959767341614
vt 0.05106300115585327 0.9925746917724609
vt 0.05019313469529152 0.991895318031311
vt 0.04244226589798927 0.9942039847373962
vt 0.04282304272055626 0.9925746917724609
vt 0.042526353150606155 0.9948984980583191
vt 0.05106300115585327 0.9925746917724609
vt 0.05112946778535843 0.9932718276977539
vt 0.05019313469529152 0.991895318031311
vt 0.05019313469529152 0.991895318031311
vt 0.05112946778535843 0.9932718276977539
vt 0.04869915172457695 0.990276038646698
vt 0.05012482404708862 0.9911959767341614
vt 0.04877031221985817 0.990976870059967
vt 0.04282304272055626 0.9925746917724609
vt 0.04382357746362686 0.9911959767341614
vt 0.0429062619805336 0.9932718276977539
vt 0.04282304272055626 0.9925746917724609
vt 0.0429062619805336 0.9932718276977539
vt 0.042526353150606155 0.9948984980583191
vt 0.04877031221985817 0.990976870059967
vt 0.05012482404708862 0.9911959767341614
vt 0.05019313469529152 0.991895318031311
vt 0.04877031221985817 0.990976870059967
vt 0.04700230434536934 0.9899532794952393
vt 0.04869915172457695 0.990276038646698
vt 0.047076910734176636 0.9906545877456665
vt 0.04382357746362686 0.9911959767341614
vt 0.04529086500406265 0.990276038646698
vt 0.04390468820929527 0.991895318031311
vt 0.04529086500406265 0.990276038646698
vt 0.04700230434536934 0.9899532794952393
vt 0.045368947088718414 0.990976870059967
vt 0.04382357746362686 0.9911959767341614
vt 0.04390468820929527 0.991895318031311
vt 0.0429062619805336 0.9932718276977539
vt 0.0429062619805336 0.9932718276977539
vt 0.04390468820929527 0.991895318031311
vt 0.04869915172457695 0.990276038646698
vt 0.04877031221985817 0.990976870059967
vt 0.047076910734176636 0.9906545877456665
vt 0.042526353150606155 0.9948984980583191
vt 0.04390468820929527 0.991895318031311
vt 0.045368947088718414 0.990976870059967
vt 0.045368947088718414 0.990976870059967
vt 0.04529086500406265 0.990276038646698
vt 0.045368947088718414 0.990976870059967
vt 0.04390468820929527 0.991895318031311
vt 0.04700230434536934 0.9899532794952393
vt 0.047076910734176636 0.9906545877456665
vt 0.045368947088718414 0.990976870059967
vn -0.19509264826774597 -0.9807848334312439 -0
vn -0.19509264826774597 -0.9807848334312439 -0
vn -0.19509264826774597 -0.9807848334312439 -0
vn -0.5555776357650757 -0.8314645886421204 -0
vn -0.5555776357650757 -0.8314645886421204 -0
vn -0.5555776357650757 -0.8314645886421204 -0
vn 0.19509360194206238 -0.9807846546173096 -0
vn 0.19509360194206238 -0.9807846546173096 -0
vn 0.19509360194206238 -0.9807846546173096 -0
vn -0.19509267807006836 -0.9807848334312439 -0
vn -0.19509267807006836 -0.9807848334312439 -0
vn -0.19509267807006836 -0.9807848334312439 -0
vn -0.5555787086486816 -0.8314639925956726 -0
vn -0.5555787086486816 -0.8314639925956726 -0
vn -0.5555787086486816 -0.8314639925956726 -0
vn -0.8314707279205322 -0.5555683970451355 -0
vn -0.8314707279205322 -0.5555683970451355 -0
vn -0.8314707279205322 -0.5555683970451355 -0
vn 0.5555776357650757 -0.8314645886421204 -0
vn 0.5555776357650757 -0.8314645886421204 -0
vn 0.5555776357650757 -0.8314645886421204 -0
vn 0.19509363174438477 -0.9807846546173096 -0
vn 0.19509363174438477 -0.9807846546173096 -0
vn 0.19509363174438477 -0.9807846546173096 -0
vn -0.8314709067344666 -0.5555683970451355 -0
vn -0.8314709067344666 -0.5555683970451355 -0
vn -0.8314709067344666 -0.5555683970451355 -0
vn -0.00000023277814875655167 -0 -1
vn -0.00000023277814875655167 -0 -1
vn -0.00000023277814875655167 -0 -1
vn -0.9807843565940857 -0.19509471952915192 -0
vn -0.9807843565940857 -0.19509471952915192 -0
vn -0.9807843565940857 -0.19509471952915192 -0
vn 0.5555787086486816 -0.8314639925956726 -0
vn 0.5555787086486816 -0.8314639925956726 -0
vn 0.5555787086486816 -0.8314639925956726 -0
vn 0.8314685225486755 -0.5555718541145325 -0
vn 0.8314685225486755 -0.5555718541145325 -0
vn 0.8314685225486755 -0.5555718541145325 -0
vn 0.00000017459402101849264 -0 -1
vn 0.00000017459402101849264 -0 -1
vn 0.00000017459402101849264 -0 -1
vn -0.9807848334312439 -0.1950923651456833 -0
vn -0.9807848334312439 -0.1950923651456833 -0
vn -0.9807848334312439 -0.1950923651456833 -0
vn 0 -0 -1
vn 0 -0 -1
vn 0 -0 -1
vn 0.8314686417579651 -0.5555717945098877 -0
vn 0.8314686417579651 -0.5555717945098877 -0
vn 0.8314686417579651 -0.5555717945098877 -0
vn -0.9807848930358887 0.1950923502445221 -0
vn -0.9807848930358887 0.1950923502445221 -0
vn -0.9807848930358887 0.1950923502445221 -0
vn 0.9807853698730469 -0.19508996605873108 -0
vn 0.9807853698730469 -0.19508996605873108 -0
vn 0.9807853698730469 -0.19508996605873108 -0
vn -0.9807843565940857 0.1950947493314743 -0
vn -0.9807843565940857 0.1950947493314743 -0
vn -0.9807843565940857 0.1950947493314743 -0
vn 0 -0 -1
vn 0 -0 -1
vn 0 -0 -1
vn 0 -0 -1
vn 0 -0 -1
vn 0.00000005425271965009415 -0 -1
vn 0.00000005425271965009415 -0 -1
vn 0.00000005425271965009415 -0 -1
vn 0.9807858467102051 -0.19508762657642365 -0
vn 0.9807858467102051 -0.19508762657642365 -0
vn 0.9807858467102051 -0.19508762657642365 -0
vn -0.8314707279205322 0.5555683970451355 -0
vn -0.8314707279205322 0.5555683970451355 -0
vn -0.8314707279205322 0.5555683970451355 -0
vn 0.9807857871055603 0.19508758187294006 -0
vn 0.9807857871055603 0.19508758187294006 -0
vn 0.9807857871055603 0.19508758187294006 -0
vn -0.8314709067344666 0.5555683970451355 -0
vn -0.8314709067344666 0.5555683970451355 -0
vn -0.8314709067344666 0.5555683970451355 -0
vn 0 -0 -1
vn 0 -0 -1
vn -0.5555658936500549 0.8314725160598755 -0
vn -0.5555658936500549 0.8314725160598755 -0
vn -0.5555658936500549 0.8314725160598755 -0
vn 0.8314685225486755 0.5555718541145325 -0
vn 0.8314685225486755 0.5555718541145325 -0
vn 0.8314685225486755 0.5555718541145325 -0
vn 0.9807853698730469 0.19509001076221466 -0
vn 0.9807853698730469 0.19509001076221466 -0
vn 0.9807853698730469 0.19509001076221466 -0
vn 0 -0 -1
vn -0.5555647015571594 0.8314733505249023 -0
vn -0.5555647015571594 0.8314733505249023 -0
vn -0.5555647015571594 0.8314733505249023 -0
vn -0.19509264826774597 0.9807848334312439 -0
vn -0.19509264826774597 0.9807848334312439 -0
vn -0.19509264826774597 0.9807848334312439 -0
vn 0.5555658936500549 0.8314725160598755 -0
vn 0.5555658936500549 0.8314725160598755 -0
vn 0.5555658936500549 0.8314725160598755 -0
vn 0.19509360194206238 0.9807846546173096 -0
vn 0.19509360194206238 0.9807846546173096 -0
vn 0.19509360194206238 0.9807846546173096 -0
vn 0.8314686417579651 0.5555717945098877 -0
vn 0.8314686417579651 0.5555717945098877 -0
vn 0.8314686417579651 0.5555717945098877 -0
vn 0 -0 -1
vn 0 -0 -1
vn -0.19509267807006836 0.9807848334312439 -0
vn -0.19509267807006836 0.9807848334312439 -0
vn -0.19509267807006836 0.9807848334312439 -0
vn 0.00000032699571761440893 -0 -1
vn 0.00000032699571761440893 -0 -1
vn 0.00000032699571761440893 -0 -1
vn 0 -0 -1
vn 0.5555647015571594 0.8314733505249023 -0
vn 0.5555647015571594 0.8314733505249023 -0
vn 0.5555647015571594 0.8314733505249023 -0
vn 0.19509363174438477 0.9807846546173096 -0
vn 0.19509363174438477 0.9807846546173096 -0
vn 0.19509363174438477 0.9807846546173096 -0
f 3/3/3 2/2/2 1/1/1
f 6/6/6 5/5/5 4/4/4
f 9/9/9 8/8/8 7/7/7
f 12/12/12 11/11/11 10/10/10
f 15/15/15 14/14/14 13/13/13
f 18/18/18 17/17/17 16/16/16
f 21/21/21 20/20/20 19/19/19
f 24/24/24 23/23/23 22/22/22
f 27/27/27 26/26/26 25/25/25
f 30/30/30 29/29/29 28/28/28
f 33/33/33 32/32/32 31/31/31
f 36/36/36 35/35/35 34/34/34
f 39/39/39 38/38/38 37/37/37
f 42/42/42 41/41/41 40/40/40
f 45/45/45 44/44/44 43/43/43
f 48/48/48 47/47/47 46/46/46
f 51/51/51 50/50/50 49/49/49
f 54/54/54 53/53/53 52/52/52
f 57/57/57 56/56/56 55/55/55
f 60/60/60 59/59/59 58/58/58
f 62/62/62 48/48/48 61/61/61
f 63/63/63 62/62/62 61/61/61
f 65/65/65 64/64/64 63/63/63
f 68/68/68 67/67/67 66/66/66
f 71/71/71 70/70/70 69/69/69
f 74/74/74 73/73/73 72/72/72
f 77/77/77 76/76/76 75/75/75
f 80/80/80 79/79/79 78/78/78
f 46/46/46 82/82/82 81/81/81
f 65/65/65 63/63/63 61/61/61
f 85/85/85 84/84/84 83/83/83
f 88/88/88 87/87/87 86/86/86
f 91/91/91 90/90/90 89/89/89
f 81/81/81 92/92/92 46/46/46
f 95/95/95 94/94/94 93/93/93
f 92/92/92 61/61/61 46/46/46
f 98/98/98 97/97/97 96/96/96
f 101/101/101 100/100/100 99/99/99
f 104/104/104 103/103/103 102/102/102
f 107/107/107 106/106/106 105/105/105
f 109/109/109 108/108/108 65/65/65
f 112/112/112 111/111/111 110/110/110
f 115/115/115 114/114/114 113/113/113
f 61/61/61 116/116/116 65/65/65
f 119/119/119 118/118/118 117/117/117
f 122/122/122 121/121/121 120/120/120
