# VPXTOOL table OBJ file
# VPXTOOL OBJ file
# numVerts: 83 numFaces: 168
o LM_L_LS4_Playfield
v 10.125280380249023 -603.9579467773438 -0
v -57.73274230957031 -700.3851318359375 -0
v -55.473785400390625 -699.6322021484375 -0
v -34.282859802246094 -699.6322021484375 -0
v -32.56174850463867 -699.9548950195313 -0
v -30.840641021728516 -701.4609375 -0
v 58.71071243286133 -641.7041015625 -0
v 58.71071243286133 -641.7041015625 -0
v 58.71071243286133 -639.612548828125 -0
v 10.125280380249023 -603.9579467773438 -0
v 58.71071243286133 -639.612548828125 -0
v 59.308250427246094 -637.9691162109375 -0
v 60.57814025878906 -636.92333984375 -0
v 81.34468841552734 -631.5448608398438 -0
v 83.73511505126953 -631.32080078125 -0
v -159.4340057373047 -481.76055908203125 -0
v 130.677734375 -544.69677734375 -0
v 129.8709259033203 -544.3831176757813 -0
v 129.4656524658203 -543.7645874023438 -0
v 126.67745971679688 -534.3932495117188 -0
v 126.75492095947266 -533.3090209960938 -0
v -158.27227783203125 -480.08258056640625 -0
v -157.88511657714844 -478.6626892089844 -0
v -158.0142059326172 -434.0003967285156 -0
v 42.68515396118164 -448.3301696777344 -0
v 243.22962951660156 -464.82861328125 -0
v -158.0142059326172 -434.0003967285156 -0
v -158.0142059326172 -434.0003967285156 23.52941131591797
v -157.88511657714844 -478.6626892089844 -0
v -158.7886505126953 -431.418701171875 23.52941131591797
v -158.0142059326172 -434.0003967285156 23.52941131591797
v -158.0142059326172 -434.0003967285156 -0
v -160.59584045410156 -430.12786865234375 23.52941131591797
v -158.7886505126953 -431.418701171875 23.52941131591797
v -158.7886505126953 -431.418701171875 -0
v -158.7886505126953 -431.418701171875 -0
v -158.7886505126953 -431.418701171875 23.52941131591797
v -158.0142059326172 -434.0003967285156 -0
v -160.59584045410156 -430.12786865234375 -0
v 243.3845672607422 -462.6600341796875 -0
v 243.22962951660156 -464.82861328125 23.52941131591797
v 243.3845672607422 -462.6600341796875 23.52941131591797
v 243.3845672607422 -462.6600341796875 -0
v 243.22962951660156 -464.82861328125 -0
v 243.22962951660156 -464.82861328125 23.52941131591797
v 243.3845672607422 -462.6600341796875 -0
v 243.3845672607422 -462.6600341796875 -0
v 243.3845672607422 -462.6600341796875 23.52941131591797
v 244.93356323242188 -460.49139404296875 -0
v -158.7886505126953 -431.418701171875 -0
v -54.83298873901367 -295.2872009277344 -0
v 145.86639404296875 -309.61700439453125 -0
v 146.3639373779297 -309.616943359375 -0
v 244.93356323242188 -460.49139404296875 -0
v -160.59584045410156 -430.12786865234375 -0
v -123.38838195800781 -208.4532012939453 -0
v -55.220211029052734 -293.996337890625 -0
v -121.53163146972656 -207.95550537109375 -0
v -122.39331817626953 -208.45309448242188 -0
v -158.7886505126953 -431.418701171875 -0
v -121.53163146972656 -207.95550537109375 -0
v -122.39331817626953 -208.45309448242188 -0
v -54.83298873901367 -295.2872009277344 -0
v 48.348228454589844 -156.573974609375 -0
v -55.220211029052734 -293.996337890625 -0
v 48.348228454589844 -156.573974609375 -0
v -121.03414916992188 -207.09364318847656 23.52941131591797
v -121.53163146972656 -207.95550537109375 23.52941131591797
v -121.53163146972656 -207.95550537109375 -0
v 49.34331512451172 -156.57386779785156 -0
v -121.53163146972656 -207.95550537109375 -0
v -121.53163146972656 -207.95550537109375 23.52941131591797
v -122.39331817626953 -208.45309448242188 -0
v -121.03414916992188 -207.09364318847656 -0
v -121.03414916992188 -207.09364318847656 -0
v 47.48643112182617 -156.0765380859375 -0
v 49.34331512451172 -156.57386779785156 23.52941131591797
v 48.348228454589844 -156.573974609375 23.52941131591797
v 48.348228454589844 -156.573974609375 -0
v 49.34331512451172 -156.57386779785156 -0
v 48.348228454589844 -156.573974609375 -0
v 48.348228454589844 -156.573974609375 23.52941131591797
v 47.48643112182617 -156.0765380859375 -0
vt 0.17883354425430298 0.25836366415023804
vt 0.1563791185617447 0.24011832475662231
vt 0.15712307393550873 0.2402588129043579
vt 0.16412070393562317 0.2402588129043579
vt 0.1646895408630371 0.24019861221313477
vt 0.1652599722146988 0.23991751670837402
vt 0.1949898600578308 0.2511621117591858
vt 0.1949898600578308 0.2511621117591858
vt 0.19499574601650238 0.25155913829803467
vt 0.17883354425430298 0.25836366415023804
vt 0.19499574601650238 0.25155913829803467
vt 0.1951993852853775 0.2518712878227234
vt 0.1956254243850708 0.25206995010375977
vt 0.2025647908449173 0.25309282541275024
vt 0.20336267352104187 0.25313544273376465
vt 0.12113580107688904 0.28221845626831055
vt 0.2195596545934677 0.269827663898468
vt 0.21928925812244415 0.26988881826400757
vt 0.21915635466575623 0.2700095772743225
vt 0.21827299892902374 0.27184081077575684
vt 0.21830591559410095 0.2720530033111572
vt 0.12151848524808884 0.28255194425582886
vt 0.12163936346769333 0.2828342318534851
vt 0.1212453693151474 0.29177355766296387
vt 0.1900610327720642 0.2888926863670349
vt 0.2585105299949646 0.2855907678604126
vt 0.1212453693151474 0.29177355766296387
vt 0.12156491726636887 0.2952711582183838
vt 0.12163936346769333 0.2828342318534851
vt 0.12128060311079025 0.2957897186279297
vt 0.12156491726636887 0.2952711582183838
vt 0.1212453693151474 0.29177355766296387
vt 0.12065387517213821 0.2960490584373474
vt 0.12128060311079025 0.2957897186279297
vt 0.12095922976732254 0.29229384660720825
vt 0.12095922976732254 0.29229384660720825
vt 0.12128060311079025 0.2957897186279297
vt 0.1212453693151474 0.29177355766296387
vt 0.12032871693372726 0.2925540804862976
vt 0.2585897743701935 0.2860238552093506
vt 0.2580198347568512 0.2891092300415039
vt 0.25809842348098755 0.2895408868789673
vt 0.2585897743701935 0.2860238552093506
vt 0.2585105299949646 0.2855907678604126
vt 0.2580198347568512 0.2891092300415039
vt 0.2585897743701935 0.2860238552093506
vt 0.2585897743701935 0.2860238552093506
vt 0.25809842348098755 0.2895408868789673
vt 0.2591453492641449 0.28645724058151245
vt 0.12095922976732254 0.29229384660720825
vt 0.15625540912151337 0.32029658555984497
vt 0.22641685605049133 0.31729549169540405
vt 0.22659067809581757 0.31729549169540405
vt 0.2591453492641449 0.28645724058151245
vt 0.12032871693372726 0.2925540804862976
vt 0.13168826699256897 0.3387603163719177
vt 0.15611615777015686 0.3205675482749939
vt 0.13234366476535797 0.3388676047325134
vt 0.13204123079776764 0.3387603759765625
vt 0.12095922976732254 0.29229384660720825
vt 0.13234366476535797 0.3388676047325134
vt 0.13204123079776764 0.3387603759765625
vt 0.15625540912151337 0.32029658555984497
vt 0.1927444338798523 0.35002458095550537
vt 0.15611615777015686 0.3205675482749939
vt 0.1927444338798523 0.35002458095550537
vt 0.13277606666088104 0.34238070249557495
vt 0.1326061636209488 0.34219568967819214
vt 0.13234366476535797 0.3388676047325134
vt 0.1931001842021942 0.35002458095550537
vt 0.13234366476535797 0.3388676047325134
vt 0.1326061636209488 0.34219568967819214
vt 0.13204123079776764 0.3387603759765625
vt 0.1325146108865738 0.33905327320098877
vt 0.1325146108865738 0.33905327320098877
vt 0.19243761897087097 0.35013347864151
vt 0.1929900050163269 0.3533098101615906
vt 0.1926364153623581 0.3533098101615906
vt 0.1927444338798523 0.35002458095550537
vt 0.1931001842021942 0.35002458095550537
vt 0.1927444338798523 0.35002458095550537
vt 0.1926364153623581 0.3533098101615906
vt 0.19243761897087097 0.35013347864151
vn 0 -0 -1
vn 0 -0 -1
vn 0 -0 -1
vn 0 -0 -1
vn 0 -0 -1
vn 0 -0 -1
vn 0 -0 -1
vn 0 -0 -0.9999999403953552
vn 0 -0 -0.9999999403953552
vn 0 -0 -0.9999999403953552
vn 0 -0 -1
vn 0 -0 -1
vn 0 -0 -1
vn 0 -0 -1
vn 0 -0 -1
vn 0 -0 -1
vn 0 -0 -1
vn 0 -0 -1
vn 0 -0 -1
vn 0 -0 -1
vn 0 -0 -1
vn 0 -0 -1
vn 0 -0 -1
vn 0 -0 -1
vn 0 -0 -1
vn 0 -0 -1
vn -0.9999958276748657 -0.002890672069042921 -0
vn -0.9999958276748657 -0.002890672069042921 -0
vn -0.9999958276748657 -0.002890672069042921 -0
vn -0.9578313231468201 -0.28733107447624207 -0
vn -0.9578313231468201 -0.28733107447624207 -0
vn -0.9578313231468201 -0.28733107447624207 -0
vn -0.5812279582023621 -0.8137407302856445 -0
vn -0.5812279582023621 -0.8137407302856445 -0
vn -0.5812279582023621 -0.8137407302856445 -0
vn -0.957834780216217 -0.28731951117515564 -0
vn -0.957834780216217 -0.28731951117515564 -0
vn -0.957834780216217 -0.28731951117515564 -0
vn -0.5812279582023621 -0.8137407302856445 -0
vn 0 -0 -1
vn 0.9974581003189087 -0.07125656306743622 -0
vn 0.9974581003189087 -0.07125656306743622 -0
vn 0.9974581003189087 -0.07125656306743622 -0
vn 0.9974569082260132 -0.0712720975279808 -0
vn 0.9974569082260132 -0.0712720975279808 -0
vn 0.9974569082260132 -0.0712720975279808 -0
vn 0.8137337565422058 -0.58123779296875 -0
vn 0.8137337565422058 -0.58123779296875 -0
vn 0.8137337565422058 -0.58123779296875 -0
vn 0 -0 -1
vn 0 -0 -1
vn 0 -0 -1
vn 0 -0 -1
vn 0 -0 -1
vn 0 -0 -1
vn 0 -0 -1
vn 0 -0 -1
vn 0 -0 -1
vn 0 -0 -1
vn 0 -0 -0.9999999403953552
vn 0 -0 -0.9999999403953552
vn 0 -0 -0.9999999403953552
vn 0 -0 -0.9999999403953552
vn 0 -0 -0.9999999403953552
vn 0 -0 -0.9999999403953552
vn 0 -0 -1
vn -0.866072416305542 0.4999186098575592 -0
vn -0.866072416305542 0.4999186098575592 -0
vn -0.866072416305542 0.4999186098575592 -0
vn 0 -0 -1
vn -0.5000722408294678 0.865983784198761 -0
vn -0.5000722408294678 0.865983784198761 -0
vn -0.5000722408294678 0.865983784198761 -0
vn -0.866072416305542 0.4999186098575592 -0
vn 0 -0 -1
vn 0 -0 -1
vn -0.00011097570677520707 0.9999999403953552 -0
vn -0.00011097570677520707 0.9999999403953552 -0
vn -0.00011097570677520707 0.9999999403953552 -0
vn -0.00011097570677520707 0.9999999403953552 -0
vn 0.49990296363830566 0.8660814166069031 -0
vn 0.49990296363830566 0.8660814166069031 -0
vn 0.49990296363830566 0.8660814166069031 -0
f 3/3/3 2/2/2 1/1/1
f 4/4/4 3/3/3 1/1/1
f 6/6/6 5/5/5 1/1/1
f 5/5/5 4/4/4 1/1/1
f 1/1/1 7/7/7 6/6/6
f 10/10/10 9/9/9 8/8/8
f 1/1/1 12/12/12 11/11/11
f 1/1/1 13/13/13 12/12/12
f 1/1/1 14/14/14 13/13/13
f 15/15/15 14/14/14 1/1/1
f 1/1/1 2/2/2 16/16/16
f 15/15/15 1/1/1 17/17/17
f 17/17/17 1/1/1 18/18/18
f 18/18/18 1/1/1 19/19/19
f 20/20/20 19/19/19 1/1/1
f 20/20/20 1/1/1 21/21/21
f 22/22/22 1/1/1 16/16/16
f 23/23/23 1/1/1 22/22/22
f 24/24/24 1/1/1 23/23/23
f 1/1/1 25/25/25 21/21/21
f 1/1/1 24/24/24 25/25/25
f 26/26/26 20/20/20 21/21/21
f 29/29/29 28/28/28 27/27/27
f 32/32/32 31/31/31 30/30/30
f 35/35/35 34/34/34 33/33/33
f 38/38/38 37/37/37 36/36/36
f 35/35/35 33/33/33 39/39/39
f 40/40/40 21/21/21 25/25/25
f 21/21/21 40/40/40 26/26/26
f 43/43/43 42/42/42 41/41/41
f 46/46/46 45/45/45 44/44/44
f 49/49/49 48/48/48 47/47/47
f 51/51/51 24/24/24 50/50/50
f 24/24/24 51/51/51 25/25/25
f 25/25/25 52/52/52 40/40/40
f 54/54/54 40/40/40 53/53/53
f 56/56/56 50/50/50 55/55/55
f 51/51/51 50/50/50 57/57/57
f 25/25/25 51/51/51 52/52/52
f 53/53/53 40/40/40 52/52/52
f 58/58/58 57/57/57 50/50/50
f 56/56/56 59/59/59 50/50/50
f 62/62/62 61/61/61 60/60/60
f 65/65/65 64/64/64 63/63/63
f 51/51/51 66/66/66 52/52/52
f 69/69/69 68/68/68 67/67/67
f 70/70/70 53/53/53 52/52/52
f 73/73/73 72/72/72 71/71/71
f 69/69/69 67/67/67 74/74/74
f 58/58/58 66/66/66 57/57/57
f 75/75/75 66/66/66 58/58/58
f 66/66/66 70/70/70 52/52/52
f 66/66/66 75/75/75 76/76/76
f 79/79/79 78/78/78 77/77/77
f 79/79/79 77/77/77 80/80/80
f 83/83/83 82/82/82 81/81/81
