# VPXTOOL table OBJ file
# VPXTOOL OBJ file
# numVerts: 129 numFaces: 168
o LM_L_LSC3_Playfield
v 132.83200073242188 0.4598309099674225 23.52941131591797
v 180.02684020996094 13.11059284210205 23.52941131591797
v 180.02684020996094 13.11059284210205 -0
v 132.83200073242188 0.4598309099674225 -0
v 181.0219268798828 13.110702514648438 23.52941131591797
v 181.88372802734375 12.613215446472168 23.52941131591797
v 181.88372802734375 12.613215446472168 -0
v 180.02684020996094 13.11059284210205 23.52941131591797
v 181.0219268798828 13.110702514648438 23.52941131591797
v 181.0219268798828 13.110702514648438 -0
v 306.3971252441406 4.525535583496094 23.52941131591797
v 305.59027099609375 6.139140605926514 23.52941131591797
v 305.59027099609375 6.139140605926514 -0
v 305.59027099609375 6.139140605926514 -0
v 187.31820678710938 -6.666112899780273 -0
v 187.31837463378906 -7.661198616027832 -0
v 181.88372802734375 12.613215446472168 -0
v 181.88372802734375 12.613215446472168 23.52941131591797
v 182.38131713867188 11.7515287399292 -0
v 181.0219268798828 13.110702514648438 -0
v 181.0219268798828 13.110702514648438 23.52941131591797
v 181.88372802734375 12.613215446472168 -0
v 180.02684020996094 13.11059284210205 -0
v 180.02684020996094 13.11059284210205 23.52941131591797
v 181.0219268798828 13.110702514648438 -0
v 306.3971252441406 4.525535583496094 -0
v 306.3971252441406 4.525535583496094 23.52941131591797
v 305.59027099609375 6.139140605926514 -0
v 182.38131713867188 11.7515287399292 -0
v 306.3971252441406 4.525535583496094 -0
v 305.59027099609375 6.139140605926514 -0
v 187.31837463378906 -7.661198616027832 -0
v 181.88372802734375 12.613215446472168 -0
v 219.145263671875 87.77690887451172 -0
v 132.83200073242188 0.4598309099674225 -0
v 180.02684020996094 13.11059284210205 -0
v 219.33206176757813 88.5985107421875 -0
v 305.59027099609375 6.139140605926514 -0
v 305.59027099609375 6.139140605926514 23.52941131591797
v 305.4585876464844 175.09397888183594 -0
v 305.4585876464844 175.09397888183594 -0
v 181.0219268798828 13.110702514648438 -0
v 305.4585876464844 175.09397888183594 -0
v 180.02684020996094 13.11059284210205 -0
v 181.0219268798828 13.110702514648438 -0
v 219.145263671875 87.77690887451172 -0
v 170.91470336914063 215.1829833984375 -0
v 305.59027099609375 6.139140605926514 23.52941131591797
v 305.4585876464844 175.09397888183594 23.52941131591797
v 305.4585876464844 175.09397888183594 -0
v 163.49253845214844 212.49378967285156 -0
v 305.8321228027344 176.7371826171875 -0
v 305.4585876464844 175.09397888183594 23.52941131591797
v 305.8321228027344 176.7371826171875 23.52941131591797
v 305.8321228027344 176.7371826171875 -0
v 305.8321228027344 176.7371826171875 23.52941131591797
v 307.4008483886719 177.2601776123047 23.52941131591797
v 307.4008483886719 177.2601776123047 -0
v 307.4008483886719 177.2601776123047 23.52941131591797
v 330.18438720703125 177.2601776123047 23.52941131591797
v 330.18438720703125 177.2601776123047 -0
v 305.4585876464844 175.09397888183594 -0
v 305.8321228027344 176.7371826171875 -0
v 305.8321228027344 176.7371826171875 23.52941131591797
v 307.4008483886719 177.2601776123047 -0
v 307.4008483886719 177.2601776123047 -0
v 330.18438720703125 177.2601776123047 -0
v 330.18438720703125 177.2601776123047 23.52941131591797
v 331.9024658203125 176.5132293701172 -0
v 257.4147644042969 303.3216552734375 -0
v 324.1614074707031 314.8333435058594 -0.000001725470269775542
v 305.8321228027344 176.7371826171875 -0
v 307.4008483886719 177.2601776123047 -0
v 307.4008483886719 177.2601776123047 -0
v 330.18438720703125 177.2601776123047 -0
v 324.94580078125 315.0948486328125 -0.000001725470269775542
v 330.18438720703125 177.2601776123047 -0
v 331.9024658203125 176.5132293701172 -0
v 338.331298828125 315.090087890625 -0.000001725470269775542
v 323.32049560546875 314.9278564453125 -0.000001725470269775542
v 257.4147644042969 303.3216552734375 -0
v 305.8321228027344 176.7371826171875 -0
v 323.9170837402344 314.8333435058594 -0.000001725470269775542
v 305.8321228027344 176.7371826171875 -0
v 324.1614074707031 314.8333435058594 -0.000001725470269775542
v 323.32049560546875 314.9278564453125 -0.000001725470269775542
v 305.8321228027344 176.7371826171875 -0
v 323.9170837402344 314.8333435058594 -0.000001725470269775542
v 307.4008483886719 177.2601776123047 -0
v 324.94580078125 315.0948486328125 -0.000001725470269775542
v 324.1614074707031 314.8333435058594 -0.000001725470269775542
v 330.18438720703125 177.2601776123047 -0
v 336.3375549316406 315.0948486328125 -0.000001725470269775542
v 324.94580078125 315.0948486328125 -0.000001725470269775542
v 336.3375549316406 315.0948486328125 -0.000001725470269775542
v 330.18438720703125 177.2601776123047 -0
v 336.93408203125 315.1893615722656 -0.000001725470269775542
v 338.331298828125 315.090087890625 -0.000001725470269775542
v 337.4722900390625 315.46356201171875 -0.000001725470269775542
v 330.18438720703125 177.2601776123047 -0
v 336.93408203125 315.1893615722656 -0.000001725470269775542
v 330.18438720703125 177.2601776123047 -0
v 337.4722900390625 315.46356201171875 -0.000001725470269775542
v 194.15306091308594 424.5278625488281 -0
v 208.99740600585938 429.90625 -0
v 257.4147644042969 303.3216552734375 -0
v 323.32049560546875 314.9278564453125 -0.000001725470269775542
v 208.99740600585938 429.90625 -0
v 324.1614074707031 314.8333435058594 -0.000001725470269775542
v 342.0020751953125 452.9294738769531 -0.000003450940539551084
v 323.9170837402344 314.8333435058594 -0.000001725470269775542
v 323.32049560546875 314.9278564453125 -0.000001725470269775542
v 323.9170837402344 314.8333435058594 -0.000001725470269775542
v 342.0020751953125 452.9294738769531 -0.000003450940539551084
v 324.94580078125 315.0948486328125 -0.000001725470269775542
v 342.49078369140625 452.9295959472656 -0.000003450940539551084
v 324.1614074707031 314.8333435058594 -0.000001725470269775542
v 336.3375549316406 315.0948486328125 -0.000001725470269775542
v 342.49078369140625 452.9295959472656 -0.000003450940539551084
v 324.94580078125 315.0948486328125 -0.000001725470269775542
v 323.32049560546875 314.9278564453125 -0.000001725470269775542
v 340.8089294433594 453.1185302734375 -0.000003450940539551084
v 208.99740600585938 429.90625 -0
v 324.1614074707031 314.8333435058594 -0.000001725470269775542
v 342.49078369140625 452.9295959472656 -0.000003450940539551084
v 342.0020751953125 452.9294738769531 -0.000003450940539551084
v 342.0020751953125 452.9294738769531 -0.000003450940539551084
v 340.8089294433594 453.1185302734375 -0.000003450940539551084
v 323.32049560546875 314.9278564453125 -0.000001725470269775542
vt 0.4329829812049866 0.23249059915542603
vt 0.45028966665267944 0.23538988828659058
vt 0.45070934295654297 0.2322593331336975
vt 0.43329179286956787 0.229347825050354
vt 0.450652539730072 0.23538988828659058
vt 0.450961709022522 0.23527568578720093
vt 0.45138564705848694 0.23214471340179443
vt 0.45028966665267944 0.23538988828659058
vt 0.450652539730072 0.23538988828659058
vt 0.4510745406150818 0.23225939273834229
vt 0.49622586369514465 0.23342108726501465
vt 0.49595993757247925 0.23379075527191162
vt 0.4966697692871094 0.23065346479415894
vt 0.4966697692871094 0.23065346479415894
vt 0.4531727433204651 0.22771286964416504
vt 0.45316216349601746 0.2274848222732544
vt 0.45138564705848694 0.23214471340179443
vt 0.450961709022522 0.23527568578720093
vt 0.4515591859817505 0.23194599151611328
vt 0.4510745406150818 0.23225939273834229
vt 0.450652539730072 0.23538988828659058
vt 0.45138564705848694 0.23214471340179443
vt 0.45070934295654297 0.2322593331336975
vt 0.45028966665267944 0.23538988828659058
vt 0.4510745406150818 0.23225939273834229
vt 0.49693721532821655 0.23028230667114258
vt 0.49622586369514465 0.23342108726501465
vt 0.4966697692871094 0.23065346479415894
vt 0.4515591859817505 0.23194599151611328
vt 0.49693721532821655 0.23028230667114258
vt 0.4966697692871094 0.23065346479415894
vt 0.45316216349601746 0.2274848222732544
vt 0.45138564705848694 0.23214471340179443
vt 0.46601858735084534 0.24968087673187256
vt 0.43329179286956787 0.229347825050354
vt 0.45070934295654297 0.2322593331336975
vt 0.4660985767841339 0.24987488985061646
vt 0.4966697692871094 0.23065346479415894
vt 0.49595993757247925 0.23379075527191162
vt 0.49966198205947876 0.2705833911895752
vt 0.49966198205947876 0.2705833911895752
vt 0.4510745406150818 0.23225939273834229
vt 0.49966198205947876 0.2705833911895752
vt 0.45070934295654297 0.2322593331336975
vt 0.4510745406150818 0.23225939273834229
vt 0.46601858735084534 0.24968087673187256
vt 0.4494185447692871 0.28037750720977783
vt 0.49595993757247925 0.23379075527191162
vt 0.49891358613967896 0.27354586124420166
vt 0.49966198205947876 0.2705833911895752
vt 0.446578711271286 0.2797165513038635
vt 0.49983304738998413 0.27098238468170166
vt 0.49891358613967896 0.27354586124420166
vt 0.49908334016799927 0.2739430069923401
vt 0.49983304738998413 0.27098238468170166
vt 0.49908334016799927 0.2739430069923401
vt 0.4996799826622009 0.27406948804855347
vt 0.500433623790741 0.271109402179718
vt 0.4996799826622009 0.27406948804855347
vt 0.5082061290740967 0.27406948804855347
vt 0.5090155601501465 0.271109402179718
vt 0.49966198205947876 0.2705833911895752
vt 0.49983304738998413 0.27098238468170166
vt 0.49908334016799927 0.2739430069923401
vt 0.500433623790741 0.271109402179718
vt 0.500433623790741 0.271109402179718
vt 0.5090155601501465 0.271109402179718
vt 0.5082061290740967 0.27406948804855347
vt 0.5096477270126343 0.27092796564102173
vt 0.48361149430274963 0.30236268043518066
vt 0.5095078945159912 0.3052811026573181
vt 0.49983304738998413 0.27098238468170166
vt 0.500433623790741 0.271109402179718
vt 0.500433623790741 0.271109402179718
vt 0.5090155601501465 0.271109402179718
vt 0.5098153948783875 0.3053475618362427
vt 0.5090155601501465 0.271109402179718
vt 0.5096477270126343 0.27092796564102173
vt 0.5149712562561035 0.3053463101387024
vt 0.5091859102249146 0.3053051233291626
vt 0.48361149430274963 0.30236268043518066
vt 0.49983304738998413 0.27098238468170166
vt 0.5094137787818909 0.3052811026573181
vt 0.49983304738998413 0.27098238468170166
vt 0.5095078945159912 0.3052811026573181
vt 0.5091859102249146 0.3053051233291626
vt 0.49983304738998413 0.27098238468170166
vt 0.5094137787818909 0.3052811026573181
vt 0.500433623790741 0.271109402179718
vt 0.5098153948783875 0.3053475618362427
vt 0.5095078945159912 0.3052811026573181
vt 0.5090155601501465 0.271109402179718
vt 0.5142033696174622 0.3053475618362427
vt 0.5098153948783875 0.3053475618362427
vt 0.5142033696174622 0.3053475618362427
vt 0.5090155601501465 0.271109402179718
vt 0.5144351720809937 0.3053715229034424
vt 0.5149712562561035 0.3053463101387024
vt 0.5146483778953552 0.3054412007331848
vt 0.5090155601501465 0.271109402179718
vt 0.5144351720809937 0.3053715229034424
vt 0.5090155601501465 0.271109402179718
vt 0.5146483778953552 0.3054412007331848
vt 0.4608069062232971 0.3336535096168518
vt 0.46670326590538025 0.3350714445114136
vt 0.48361149430274963 0.30236268043518066
vt 0.5091859102249146 0.3053051233291626
vt 0.46670326590538025 0.3350714445114136
vt 0.5095078945159912 0.3052811026573181
vt 0.5194386839866638 0.34116989374160767
vt 0.5094137787818909 0.3052811026573181
vt 0.5091859102249146 0.3053051233291626
vt 0.5094137787818909 0.3052811026573181
vt 0.5194386839866638 0.34116989374160767
vt 0.5098153948783875 0.3053475618362427
vt 0.5196312665939331 0.34116989374160767
vt 0.5095078945159912 0.3052811026573181
vt 0.5142033696174622 0.3053475618362427
vt 0.5196312665939331 0.34116989374160767
vt 0.5098153948783875 0.3053475618362427
vt 0.5091859102249146 0.3053051233291626
vt 0.5189727544784546 0.3412201404571533
vt 0.46670326590538025 0.3350714445114136
vt 0.5095078945159912 0.3052811026573181
vt 0.5196312665939331 0.34116989374160767
vt 0.5194386839866638 0.34116989374160767
vt 0.5194386839866638 0.34116989374160767
vt 0.5189727544784546 0.3412201404571533
vt 0.5091859102249146 0.3053051233291626
vn 0.25891342759132385 -0.9659005403518677 -0
vn 0.25891342759132385 -0.9659005403518677 -0
vn 0.25891342759132385 -0.9659005403518677 -0
vn 0.25891342759132385 -0.9659005403518677 -0
vn -0.4999519884586334 -0.86605304479599 -0
vn -0.4999519884586334 -0.86605304479599 -0
vn -0.4999519884586334 -0.86605304479599 -0
vn 0.00011097759852418676 -0.9999999403953552 -0
vn 0.00011097759852418676 -0.9999999403953552 -0
vn 0.00011097759852418676 -0.9999999403953552 -0
vn 0.8944066762924194 0.4472547769546509 -0
vn 0.8944066762924194 0.4472547769546509 -0
vn 0.8944066762924194 0.4472547769546509 -0
vn 0 -0 -1
vn 0 -0 -1
vn 0 -0 -1
vn -0.8659790754318237 -0.5000802874565125 -0
vn -0.8659790754318237 -0.5000802874565125 -0
vn -0.8659790754318237 -0.5000802874565125 -0
vn -0.4999372065067291 -0.8660616278648376 -0
vn -0.4999372065067291 -0.8660616278648376 -0
vn -0.4999372065067291 -0.8660616278648376 -0
vn 0.00011097381502622738 -1 -0
vn 0.00011097381502622738 -1 -0
vn 0.00011097381502622738 -1 -0
vn 0.8944216370582581 0.44722461700439453 -0
vn 0.8944216370582581 0.44722461700439453 -0
vn 0.8944216370582581 0.44722461700439453 -0
vn 0 -0 -1
vn 0 -0 -0.9999999403953552
vn 0 -0 -0.9999999403953552
vn 0 -0 -0.9999999403953552
vn 0 -0 -1
vn 0 -0 -1
vn 0 -0 -1
vn 0 -0 -1
vn 0 -0 -1
vn 0.9999997019767761 0.0007792140822857618 -0
vn 0.9999997019767761 0.0007792140822857618 -0
vn 0.9999997019767761 0.0007792140822857618 -0
vn 0 -0 -1
vn 0 -0 -1
vn 0 -0 -0.9999999403953552
vn 0 -0 -0.9999999403953552
vn 0 -0 -0.9999999403953552
vn 0 -0 -0.9999999403953552
vn 0 -0 -1
vn 0.9999997019767761 0.0007796161225996912 -0
vn 0.9999997019767761 0.0007796161225996912 -0
vn 0.9999997019767761 0.0007796161225996912 -0
vn 0 -0 -1
vn 0 -0 -1
vn 0.9751195907592773 -0.221679225564003 -0
vn 0.9751195907592773 -0.221679225564003 -0
vn 0.9751195907592773 -0.221679225564003 -0
vn 0.31627118587493896 -0.9486687779426575 -0
vn 0.31627118587493896 -0.9486687779426575 -0
vn 0.31627118587493896 -0.9486687779426575 -0
vn 0 -1 -0
vn 0 -1 -0
vn 0 -1 -0
vn 0.9751195907592773 -0.221679225564003 -0
vn 0.31628352403640747 -0.948664665222168 -0
vn 0.31628352403640747 -0.948664665222168 -0
vn 0.31628352403640747 -0.948664665222168 -0
vn 0 -1 -0
vn -0.3987100124359131 -0.9170770645141602 -0
vn -0.3987100124359131 -0.9170770645141602 -0
vn -0.3987100124359131 -0.9170770645141602 -0
vn 0 -0 -1
vn 0.0000000043584931219697864 -0.000000013073178095623916 -1
vn 0.0000000043584931219697864 -0.000000013073178095623916 -1
vn 0.0000000043584931219697864 -0.000000013073178095623916 -1
vn 0 -0.000000012518409420181342 -1
vn 0 -0.000000012518409420181342 -1
vn 0 -0.000000012518409420181342 -1
vn -0.000000005306325601139861 -0.000000012205176425084119 -1
vn -0.000000005306325601139861 -0.000000012205176425084119 -1
vn -0.000000005306325601139861 -0.000000012205176425084119 -1
vn -0.000000024528686637381725 -0.000000009381989407586389 -1
vn -0.000000024528686637381725 -0.000000009381989407586389 -1
vn -0.000000024528686637381725 -0.000000009381989407586389 -1
vn 0 -0.000000012494992596145948 -1
vn 0 -0.000000012494992596145948 -1
vn 0 -0.000000012494992596145948 -1
vn -0.0000000019394676975537095 -0.00000001224062362581435 -0.9999999403953552
vn -0.0000000019394676975537095 -0.00000001224062362581435 -0.9999999403953552
vn -0.0000000019394676975537095 -0.00000001224062362581435 -0.9999999403953552
vn 0.000000004358341243460018 -0.000000013073183424694435 -1
vn 0.000000004358341243460018 -0.000000013073183424694435 -1
vn 0.000000004358341243460018 -0.000000013073183424694435 -1
vn 0 -0.000000012518405867467663 -1
vn 0 -0.000000012518405867467663 -1
vn 0 -0.000000012518405867467663 -1
vn 0.0000000019978003695797497 -0.000000012607614507942344 -1
vn 0.0000000019978003695797497 -0.000000012607614507942344 -1
vn 0.0000000019978003695797497 -0.000000012607614507942344 -1
vn -0.000000005306336259280897 -0.00000001220520129407987 -1
vn -0.000000005306336259280897 -0.00000001220520129407987 -1
vn -0.000000005306336259280897 -0.00000001220520129407987 -1
vn 0.000000006536595709150106 -0.000000012829681317327868 -1
vn 0.000000006536595709150106 -0.000000012829681317327868 -1
vn 0.000000006536595709150106 -0.000000012829681317327868 -1
vn 0 -0 -1
vn 0 -0 -1
vn -0.000000024528681308311207 -0.000000009381978749445352 -0.9999999403953552
vn -0.000000024528681308311207 -0.000000009381978749445352 -0.9999999403953552
vn -0.000000024528681308311207 -0.000000009381978749445352 -0.9999999403953552
vn 0 -0.000000012494696832732188 -1
vn 0 -0.000000012494696832732188 -1
vn 0 -0.000000012494696832732188 -1
vn -0.0000000019394699179997588 -0.000000012240638724847486 -1
vn -0.0000000019394699179997588 -0.000000012240638724847486 -1
vn -0.0000000019394699179997588 -0.000000012240638724847486 -1
vn 0.000000004358307936769279 -0.000000013073083948711428 -1
vn 0.000000004358307936769279 -0.000000013073083948711428 -1
vn 0.000000004358307936769279 -0.000000013073083948711428 -1
vn 0 -0.000000012518396985683466 -0.9999999403953552
vn 0 -0.000000012518396985683466 -0.9999999403953552
vn 0 -0.000000012518396985683466 -0.9999999403953552
vn -0.000000024528688413738564 -0.000000009381980525802192 -0.9999999403953552
vn -0.000000024528688413738564 -0.000000009381980525802192 -0.9999999403953552
vn -0.000000024528688413738564 -0.000000009381980525802192 -0.9999999403953552
vn 0.0000000000028234595651072114 -0.000000012495219969821392 -1
vn 0.0000000000028234595651072114 -0.000000012495219969821392 -1
vn 0.0000000000028234595651072114 -0.000000012495219969821392 -1
vn -0.000000001939581828480641 -0.000000012240777280680959 -1
vn -0.000000001939581828480641 -0.000000012240777280680959 -1
vn -0.000000001939581828480641 -0.000000012240777280680959 -1
f 3/3/3 2/2/2 1/1/1
f 3/3/3 1/1/1 4/4/4
f 7/7/7 6/6/6 5/5/5
f 10/10/10 9/9/9 8/8/8
f 13/13/13 12/12/12 11/11/11
f 16/16/16 15/15/15 14/14/14
f 19/19/19 18/18/18 17/17/17
f 22/22/22 21/21/21 20/20/20
f 25/25/25 24/24/24 23/23/23
f 28/28/28 27/27/27 26/26/26
f 15/15/15 29/29/29 14/14/14
f 32/32/32 31/31/31 30/30/30
f 29/29/29 33/33/33 14/14/14
f 36/36/36 35/35/35 34/34/34
f 34/34/34 35/35/35 37/37/37
f 40/40/40 39/39/39 38/38/38
f 33/33/33 42/42/42 41/41/41
f 45/45/45 44/44/44 43/43/43
f 33/33/33 41/41/41 14/14/14
f 44/44/44 46/46/46 43/43/43
f 35/35/35 47/47/47 37/37/37
f 50/50/50 49/49/49 48/48/48
f 37/37/37 41/41/41 34/34/34
f 51/51/51 47/47/47 35/35/35
f 37/37/37 52/52/52 41/41/41
f 55/55/55 54/54/54 53/53/53
f 58/58/58 57/57/57 56/56/56
f 61/61/61 60/60/60 59/59/59
f 55/55/55 53/53/53 62/62/62
f 65/65/65 64/64/64 63/63/63
f 61/61/61 59/59/59 66/66/66
f 69/69/69 68/68/68 67/67/67
f 37/37/37 70/70/70 52/52/52
f 37/37/37 47/47/47 70/70/70
f 73/73/73 72/72/72 71/71/71
f 76/76/76 75/75/75 74/74/74
f 79/79/79 78/78/78 77/77/77
f 82/82/82 81/81/81 80/80/80
f 85/85/85 84/84/84 83/83/83
f 88/88/88 87/87/87 86/86/86
f 91/91/91 90/90/90 89/89/89
f 94/94/94 93/93/93 92/92/92
f 97/97/97 96/96/96 95/95/95
f 100/100/100 99/99/99 98/98/98
f 103/103/103 102/102/102 101/101/101
f 104/104/104 47/47/47 51/51/51
f 47/47/47 105/105/105 70/70/70
f 104/104/104 105/105/105 47/47/47
f 108/108/108 107/107/107 106/106/106
f 111/111/111 110/110/110 109/109/109
f 114/114/114 113/113/113 112/112/112
f 117/117/117 116/116/116 115/115/115
f 120/120/120 119/119/119 118/118/118
f 123/123/123 122/122/122 121/121/121
f 126/126/126 125/125/125 124/124/124
f 129/129/129 128/128/128 127/127/127
