# VPXTOOL table OBJ file
# VPXTOOL OBJ file
# numVerts: 135 numFaces: 138
o LM_L_LMet2_UnderPF
v -89.05160522460938 -50.24061584472656 -12.23087215423584
v -98.07691955566406 -48.445350646972656 -12.23087215423584
v -89.05160522460938 -50.24061584472656 -6.426158428192139
v -98.07691955566406 -48.445350646972656 -12.23087215423584
v -107.1021728515625 -50.24061584472656 -12.23087215423584
v -98.07691955566406 -48.445350646972656 -6.426158428192139
v -98.07691955566406 -48.445350646972656 -12.23087215423584
v -98.07691955566406 -48.445350646972656 -6.426158428192139
v -89.05160522460938 -50.24061584472656 -6.426158428192139
v -81.40034484863281 -55.353084564208984 -12.23087215423584
v -89.05160522460938 -50.24061584472656 -12.23087215423584
v -81.40034484863281 -55.353084564208984 -6.426158428192139
v -89.05160522460938 -50.24061584472656 -12.23087215423584
v -89.05160522460938 -50.24061584472656 -6.426158428192139
v -81.40034484863281 -55.353084564208984 -6.426158428192139
v -107.1021728515625 -50.24061584472656 -12.23087215423584
v -107.1021728515625 -50.24061584472656 -6.426158428192139
v -98.07691955566406 -48.445350646972656 -6.426158428192139
v -81.40034484863281 -55.353084564208984 -6.426158428192139
v -89.05160522460938 -50.24061584472656 -6.426158428192139
v -98.07691955566406 -48.445350646972656 -6.426158428192139
v -107.1021728515625 -50.24061584472656 -12.23087215423584
v -114.75343322753906 -55.353084564208984 -12.23087215423584
v -107.1021728515625 -50.24061584472656 -6.426158428192139
v -81.40034484863281 -55.353084564208984 -12.23087215423584
v -81.40034484863281 -55.353084564208984 -6.426158428192139
v -76.28792572021484 -63.00429153442383 -6.426158428192139
v -76.28792572021484 -63.00429153442383 -12.23087215423584
v -81.40034484863281 -55.353084564208984 -12.23087215423584
v -76.28792572021484 -63.00429153442383 -6.426158428192139
v -98.07691955566406 -48.445350646972656 -6.426158428192139
v -107.1021728515625 -50.24061584472656 -6.426158428192139
v -114.75343322753906 -55.353084564208984 -6.426158428192139
v -114.75343322753906 -55.353084564208984 -12.23087215423584
v -114.75343322753906 -55.353084564208984 -6.426158428192139
v -107.1021728515625 -50.24061584472656 -6.426158428192139
v -114.75343322753906 -55.353084564208984 -12.23087215423584
v -119.86585235595703 -63.00429153442383 -12.23087215423584
v -114.75343322753906 -55.353084564208984 -6.426158428192139
v -74.49269104003906 -72.02957916259766 -6.426158428192139
v -76.28792572021484 -63.00429153442383 -6.426158428192139
v -81.40034484863281 -55.353084564208984 -6.426158428192139
v -76.28792572021484 -63.00429153442383 -12.23087215423584
v -76.28792572021484 -63.00429153442383 -6.426158428192139
v -74.49269104003906 -72.02957916259766 -6.426158428192139
v -74.49269104003906 -72.02957916259766 -12.23087215423584
v -76.28792572021484 -63.00429153442383 -12.23087215423584
v -74.49269104003906 -72.02957916259766 -6.426158428192139
v -119.86585235595703 -63.00429153442383 -12.23087215423584
v -119.86585235595703 -63.00429153442383 -6.426158428192139
v -114.75343322753906 -55.353084564208984 -6.426158428192139
v -98.07691955566406 -95.61380004882813 -6.426158428192139
v -81.40034484863281 -55.353084564208984 -6.426158428192139
v -98.07691955566406 -48.445350646972656 -6.426158428192139
v -119.86585235595703 -63.00429153442383 -12.23087215423584
v -121.66108703613281 -72.02957916259766 -12.23087215423584
v -119.86585235595703 -63.00429153442383 -6.426158428192139
v -98.07691955566406 -95.61380004882813 -6.426158428192139
v -98.07691955566406 -48.445350646972656 -6.426158428192139
v -114.75343322753906 -55.353084564208984 -6.426158428192139
v -114.75343322753906 -55.353084564208984 -6.426158428192139
v -119.86585235595703 -63.00429153442383 -6.426158428192139
v -121.66108703613281 -72.02957916259766 -6.426158428192139
v -74.49269104003906 -72.02957916259766 -12.23087215423584
v -74.49269104003906 -72.02957916259766 -6.426158428192139
v -76.28792572021484 -81.05486297607422 -6.426158428192139
v -76.28792572021484 -81.05486297607422 -12.23087215423584
v -74.49269104003906 -72.02957916259766 -12.23087215423584
v -76.28792572021484 -81.05486297607422 -6.426158428192139
v -74.49269104003906 -72.02957916259766 -6.426158428192139
v -81.40034484863281 -55.353084564208984 -6.426158428192139
v -121.66108703613281 -72.02957916259766 -12.23087215423584
v -121.66108703613281 -72.02957916259766 -6.426158428192139
v -119.86585235595703 -63.00429153442383 -6.426158428192139
v -121.66108703613281 -72.02957916259766 -12.23087215423584
v -119.86585235595703 -81.05486297607422 -12.23087215423584
v -121.66108703613281 -72.02957916259766 -6.426158428192139
v -81.40034484863281 -88.70612335205078 -6.426158428192139
v -76.28792572021484 -81.05486297607422 -6.426158428192139
v -74.49269104003906 -72.02957916259766 -6.426158428192139
v -114.75343322753906 -55.353084564208984 -6.426158428192139
v -121.66108703613281 -72.02957916259766 -6.426158428192139
v -76.28792572021484 -81.05486297607422 -12.23087215423584
v -76.28792572021484 -81.05486297607422 -6.426158428192139
v -81.40034484863281 -88.70612335205078 -6.426158428192139
v -81.40034484863281 -88.70612335205078 -12.23087215423584
v -76.28792572021484 -81.05486297607422 -12.23087215423584
v -81.40034484863281 -88.70612335205078 -6.426158428192139
v -119.86585235595703 -81.05486297607422 -12.23087215423584
v -119.86585235595703 -81.05486297607422 -6.426158428192139
v -121.66108703613281 -72.02957916259766 -6.426158428192139
v -74.49269104003906 -72.02957916259766 -6.426158428192139
v -89.05160522460938 -93.81854248046875 -6.426158428192139
v -81.40034484863281 -88.70612335205078 -6.426158428192139
v -119.86585235595703 -81.05486297607422 -12.23087215423584
v -114.75343322753906 -88.70612335205078 -12.23087215423584
v -119.86585235595703 -81.05486297607422 -6.426158428192139
v -74.49269104003906 -72.02957916259766 -6.426158428192139
v -98.07691955566406 -95.61380004882813 -6.426158428192139
v -89.05160522460938 -93.81854248046875 -6.426158428192139
v -119.86585235595703 -81.05486297607422 -6.426158428192139
v -114.75343322753906 -88.70612335205078 -6.426158428192139
v -81.40034484863281 -88.70612335205078 -12.23087215423584
v -81.40034484863281 -88.70612335205078 -6.426158428192139
v -89.05160522460938 -93.81854248046875 -6.426158428192139
v -89.05160522460938 -93.81854248046875 -12.23087215423584
v -81.40034484863281 -88.70612335205078 -12.23087215423584
v -89.05160522460938 -93.81854248046875 -6.426158428192139
v -114.75343322753906 -88.70612335205078 -12.23087215423584
v -114.75343322753906 -88.70612335205078 -6.426158428192139
v -119.86585235595703 -81.05486297607422 -6.426158428192139
v -121.66108703613281 -72.02957916259766 -6.426158428192139
v -114.75343322753906 -88.70612335205078 -6.426158428192139
v -107.1021728515625 -93.81854248046875 -6.426158428192139
v -121.66108703613281 -72.02957916259766 -6.426158428192139
v -107.1021728515625 -93.81854248046875 -6.426158428192139
v -98.07691955566406 -95.61380004882813 -6.426158428192139
v -114.75343322753906 -88.70612335205078 -12.23087215423584
v -107.1021728515625 -93.81854248046875 -12.23087215423584
v -114.75343322753906 -88.70612335205078 -6.426158428192139
v -98.07691955566406 -95.61380004882813 -12.23087215423584
v -89.05160522460938 -93.81854248046875 -12.23087215423584
v -98.07691955566406 -95.61380004882813 -6.426158428192139
v -89.05160522460938 -93.81854248046875 -12.23087215423584
v -89.05160522460938 -93.81854248046875 -6.426158428192139
v -98.07691955566406 -95.61380004882813 -6.426158428192139
v -107.1021728515625 -93.81854248046875 -12.23087215423584
v -98.07691955566406 -95.61380004882813 -12.23087215423584
v -107.1021728515625 -93.81854248046875 -6.426158428192139
v -107.1021728515625 -93.81854248046875 -12.23087215423584
v -107.1021728515625 -93.81854248046875 -6.426158428192139
v -114.75343322753906 -88.70612335205078 -6.426158428192139
v -98.07691955566406 -95.61380004882813 -12.23087215423584
v -98.07691955566406 -95.61380004882813 -6.426158428192139
v -107.1021728515625 -93.81854248046875 -6.426158428192139
vt 0.36796972155570984 0.9883809089660645
vt 0.369730144739151 0.9906766414642334
vt 0.37155506014823914 0.9883338809013367
vt 0.369730144739151 0.9906766414642334
vt 0.36796972155570984 0.9929543137550354
vt 0.37331369519233704 0.9906260967254639
vt 0.369730144739151 0.9906766414642334
vt 0.37331369519233704 0.9906260967254639
vt 0.37155506014823914 0.9883338809013367
vt 0.3629620671272278 0.9864199161529541
vt 0.36796972155570984 0.9883809089660645
vt 0.36655229330062866 0.9863759279251099
vt 0.36796972155570984 0.9883809089660645
vt 0.37155506014823914 0.9883338809013367
vt 0.36655229330062866 0.9863759279251099
vt 0.36796972155570984 0.9929543137550354
vt 0.37155506014823914 0.9929002523422241
vt 0.37331369519233704 0.9906260967254639
vt 0.36655229330062866 0.9863759279251099
vt 0.37155506014823914 0.9883338809013367
vt 0.37331369519233704 0.9906260967254639
vt 0.36796972155570984 0.9929543137550354
vt 0.3629620671272278 0.9948638677597046
vt 0.37155506014823914 0.9929002523422241
vt 0.3629620671272278 0.9864199161529541
vt 0.36655229330062866 0.9863759279251099
vt 0.3590797483921051 0.985051691532135
vt 0.35548222064971924 0.9850935935974121
vt 0.3629620671272278 0.9864199161529541
vt 0.3590797483921051 0.985051691532135
vt 0.37331369519233704 0.9906260967254639
vt 0.37155506014823914 0.9929002523422241
vt 0.36655229330062866 0.9948069453239441
vt 0.3629620671272278 0.9948638677597046
vt 0.36655229330062866 0.9948069453239441
vt 0.37155506014823914 0.9929002523422241
vt 0.3629620671272278 0.9948638677597046
vt 0.35548222064971924 0.9961133599281311
vt 0.36655229330062866 0.9948069453239441
vt 0.3502874970436096 0.9845615029335022
vt 0.3590797483921051 0.985051691532135
vt 0.36655229330062866 0.9863759279251099
vt 0.35548222064971924 0.9850935935974121
vt 0.3590797483921051 0.985051691532135
vt 0.3502874970436096 0.9845615029335022
vt 0.34668150544166565 0.9846026301383972
vt 0.35548222064971924 0.9850935935974121
vt 0.3502874970436096 0.9845615029335022
vt 0.35548222064971924 0.9961133599281311
vt 0.3590797483921051 0.9960545301437378
vt 0.36655229330062866 0.9948069453239441
vt 0.32742592692375183 0.9903908371925354
vt 0.36655229330062866 0.9863759279251099
vt 0.37331369519233704 0.9906260967254639
vt 0.35548222064971924 0.9961133599281311
vt 0.34668150544166565 0.9965139031410217
vt 0.3590797483921051 0.9960545301437378
vt 0.32742592692375183 0.9903908371925354
vt 0.37331369519233704 0.9906260967254639
vt 0.36655229330062866 0.9948069453239441
vt 0.36655229330062866 0.9948069453239441
vt 0.3590797483921051 0.9960545301437378
vt 0.3502874970436096 0.9964545965194702
vt 0.34668150544166565 0.9846026301383972
vt 0.3502874970436096 0.9845615029335022
vt 0.34151941537857056 0.9849767684936523
vt 0.33790481090545654 0.9850184321403503
vt 0.34668150544166565 0.9846026301383972
vt 0.34151941537857056 0.9849767684936523
vt 0.3502874970436096 0.9845615029335022
vt 0.36655229330062866 0.9863759279251099
vt 0.34668150544166565 0.9965139031410217
vt 0.3502874970436096 0.9964545965194702
vt 0.3590797483921051 0.9960545301437378
vt 0.34668150544166565 0.9965139031410217
vt 0.33790481090545654 0.9960079193115234
vt 0.3502874970436096 0.9964545965194702
vt 0.3341049253940582 0.9862309098243713
vt 0.34151941537857056 0.9849767684936523
vt 0.3502874970436096 0.9845615029335022
vt 0.36655229330062866 0.9948069453239441
vt 0.3502874970436096 0.9964545965194702
vt 0.33790481090545654 0.9850184321403503
vt 0.34151941537857056 0.9849767684936523
vt 0.3341049253940582 0.9862309098243713
vt 0.3304833173751831 0.9862744808197021
vt 0.33790481090545654 0.9850184321403503
vt 0.3341049253940582 0.9862309098243713
vt 0.33790481090545654 0.9960079193115234
vt 0.34151941537857056 0.9959494471549988
vt 0.3502874970436096 0.9964545965194702
vt 0.3502874970436096 0.9845615029335022
vt 0.32916033267974854 0.9881316423416138
vt 0.3341049253940582 0.9862309098243713
vt 0.33790481090545654 0.9960079193115234
vt 0.3304833173751831 0.9946756362915039
vt 0.34151941537857056 0.9959494471549988
vt 0.3502874970436096 0.9845615029335022
vt 0.32742592692375183 0.9903908371925354
vt 0.32916033267974854 0.9881316423416138
vt 0.34151941537857056 0.9959494471549988
vt 0.3341049253940582 0.9946192502975464
vt 0.3304833173751831 0.9862744808197021
vt 0.3341049253940582 0.9862309098243713
vt 0.32916033267974854 0.9881316423416138
vt 0.32553401589393616 0.9881780743598938
vt 0.3304833173751831 0.9862744808197021
vt 0.32916033267974854 0.9881316423416138
vt 0.3304833173751831 0.9946756362915039
vt 0.3341049253940582 0.9946192502975464
vt 0.34151941537857056 0.9959494471549988
vt 0.3502874970436096 0.9964545965194702
vt 0.3341049253940582 0.9946192502975464
vt 0.32916033267974854 0.9926678538322449
vt 0.3502874970436096 0.9964545965194702
vt 0.32916033267974854 0.9926678538322449
vt 0.32742592692375183 0.9903908371925354
vt 0.3304833173751831 0.9946756362915039
vt 0.32553401589393616 0.9927211999893188
vt 0.3341049253940582 0.9946192502975464
vt 0.3237978518009186 0.9904407262802124
vt 0.32553401589393616 0.9881780743598938
vt 0.32742592692375183 0.9903908371925354
vt 0.32553401589393616 0.9881780743598938
vt 0.32916033267974854 0.9881316423416138
vt 0.32742592692375183 0.9903908371925354
vt 0.32553401589393616 0.9927211999893188
vt 0.3237978518009186 0.9904407262802124
vt 0.32916033267974854 0.9926678538322449
vt 0.32553401589393616 0.9927211999893188
vt 0.32916033267974854 0.9926678538322449
vt 0.3341049253940582 0.9946192502975464
vt 0.3237978518009186 0.9904407262802124
vt 0.32742592692375183 0.9903908371925354
vt 0.32916033267974854 0.9926678538322449
vn -0.1950918585062027 -0.9807849526405334 -0
vn -0.1950918585062027 -0.9807849526405334 -0
vn -0.1950918585062027 -0.9807849526405334 -0
vn 0.1950933039188385 -0.9807847738265991 -0
vn 0.1950933039188385 -0.9807847738265991 -0
vn 0.1950933039188385 -0.9807847738265991 -0
vn -0.19509188830852509 -0.9807849526405334 -0
vn -0.19509188830852509 -0.9807849526405334 -0
vn -0.19509188830852509 -0.9807849526405334 -0
vn -0.555574893951416 -0.8314666152000427 -0
vn -0.555574893951416 -0.8314666152000427 -0
vn -0.555574893951416 -0.8314666152000427 -0
vn -0.5555749535560608 -0.8314663767814636 -0
vn -0.5555749535560608 -0.8314663767814636 -0
vn -0.5555749535560608 -0.8314663767814636 -0
vn 0.19509297609329224 -0.9807847738265991 -0
vn 0.19509297609329224 -0.9807847738265991 -0
vn 0.19509297609329224 -0.9807847738265991 -0
vn 0.0000001926743635749517 -0 -1
vn 0.0000001926743635749517 -0 -1
vn 0.0000001926743635749517 -0 -1
vn 0.555574893951416 -0.8314666152000427 -0
vn 0.555574893951416 -0.8314666152000427 -0
vn 0.555574893951416 -0.8314666152000427 -0
vn -0.831467866897583 -0.5555729269981384 -0
vn -0.831467866897583 -0.5555729269981384 -0
vn -0.831467866897583 -0.5555729269981384 -0
vn -0.8314670324325562 -0.5555740594863892 -0
vn -0.8314670324325562 -0.5555740594863892 -0
vn -0.8314670324325562 -0.5555740594863892 -0
vn -0.00000014450732521709142 -0 -0.9999999403953552
vn -0.00000014450732521709142 -0 -0.9999999403953552
vn -0.00000014450732521709142 -0 -0.9999999403953552
vn 0.5555749535560608 -0.8314663767814636 -0
vn 0.5555749535560608 -0.8314663767814636 -0
vn 0.5555749535560608 -0.8314663767814636 -0
vn 0.8314679265022278 -0.5555728077888489 -0
vn 0.8314679265022278 -0.5555728077888489 -0
vn 0.8314679265022278 -0.5555728077888489 -0
vn -0.00000038535259250238596 -0 -1
vn -0.00000038535259250238596 -0 -1
vn -0.00000038535259250238596 -0 -1
vn -0.9807856678962708 -0.1950884312391281 -0
vn -0.9807856678962708 -0.1950884312391281 -0
vn -0.9807856678962708 -0.1950884312391281 -0
vn -0.9807853102684021 -0.19509021937847137 -0
vn -0.9807853102684021 -0.19509021937847137 -0
vn -0.9807853102684021 -0.19509021937847137 -0
vn 0.8314669728279114 -0.5555741786956787 -0
vn 0.8314669728279114 -0.5555741786956787 -0
vn 0.8314669728279114 -0.5555741786956787 -0
vn 0 -0 -1
vn 0 -0 -1
vn 0 -0 -1
vn 0.9807853102684021 -0.19509021937847137 -0
vn 0.9807853102684021 -0.19509021937847137 -0
vn 0.9807853102684021 -0.19509021937847137 -0
vn 0 -0 -0.9999999403953552
vn 0 -0 -0.9999999403953552
vn 0 -0 -0.9999999403953552
vn 0.00000038535287671948026 -0 -0.9999999403953552
vn 0.00000038535287671948026 -0 -0.9999999403953552
vn 0.00000038535287671948026 -0 -0.9999999403953552
vn -0.9807853102684021 0.19509021937847137 -0
vn -0.9807853102684021 0.19509021937847137 -0
vn -0.9807853102684021 0.19509021937847137 -0
vn -0.9807856678962708 0.1950884312391281 -0
vn -0.9807856678962708 0.1950884312391281 -0
vn -0.9807856678962708 0.1950884312391281 -0
vn 0 -0 -0.9999999403953552
vn 0 -0 -0.9999999403953552
vn 0.9807856678962708 -0.1950884312391281 -0
vn 0.9807856678962708 -0.1950884312391281 -0
vn 0.9807856678962708 -0.1950884312391281 -0
vn 0.9807856678962708 0.1950884312391281 -0
vn 0.9807856678962708 0.1950884312391281 -0
vn 0.9807856678962708 0.1950884312391281 -0
vn 0.00000019267703521563817 -0 -1
vn 0.00000019267703521563817 -0 -1
vn 0.00000019267703521563817 -0 -1
vn 0 -0 -1
vn 0 -0 -1
vn -0.8314688801765442 0.5555713772773743 -0
vn -0.8314688801765442 0.5555713772773743 -0
vn -0.8314688801765442 0.5555713772773743 -0
vn -0.8314696550369263 0.5555700659751892 -0
vn -0.8314696550369263 0.5555700659751892 -0
vn -0.8314696550369263 0.5555700659751892 -0
vn 0.9807853102684021 0.19509021937847137 -0
vn 0.9807853102684021 0.19509021937847137 -0
vn 0.9807853102684021 0.19509021937847137 -0
vn -0.0000002706377415506722 -0 -0.9999999403953552
vn -0.0000002706377415506722 -0 -0.9999999403953552
vn -0.0000002706377415506722 -0 -0.9999999403953552
vn 0.8314687609672546 0.5555713772773743 -0
vn 0.8314687609672546 0.5555713772773743 -0
vn 0.8314687609672546 0.5555713772773743 -0
vn 0.00000014646744261881395 -0 -1
vn 0.00000014646744261881395 -0 -1
vn 0.00000014646744261881395 -0 -1
vn 0 -0 -1
vn 0 -0 -1
vn -0.5555707812309265 0.8314692378044128 -0
vn -0.5555707812309265 0.8314692378044128 -0
vn -0.5555707812309265 0.8314692378044128 -0
vn -0.5555707216262817 0.8314692974090576 -0
vn -0.5555707216262817 0.8314692974090576 -0
vn -0.5555707216262817 0.8314692974090576 -0
vn 0.8314697742462158 0.5555700659751892 -0
vn 0.8314697742462158 0.5555700659751892 -0
vn 0.8314697742462158 0.5555700659751892 -0
vn 0.0000002706377415506722 -0 -0.9999999403953552
vn 0.0000002706377415506722 -0 -0.9999999403953552
vn 0.0000002706377415506722 -0 -0.9999999403953552
vn -0.00000014646863633061002 -0 -0.9999999403953552
vn -0.00000014646863633061002 -0 -0.9999999403953552
vn -0.00000014646863633061002 -0 -0.9999999403953552
vn 0.5555707216262817 0.8314692974090576 -0
vn 0.5555707216262817 0.8314692974090576 -0
vn 0.5555707216262817 0.8314692974090576 -0
vn -0.1950918585062027 0.9807849526405334 -0
vn -0.1950918585062027 0.9807849526405334 -0
vn -0.1950918585062027 0.9807849526405334 -0
vn -0.19509188830852509 0.9807849526405334 -0
vn -0.19509188830852509 0.9807849526405334 -0
vn -0.19509188830852509 0.9807849526405334 -0
vn 0.19509294629096985 0.9807847738265991 -0
vn 0.19509294629096985 0.9807847738265991 -0
vn 0.19509294629096985 0.9807847738265991 -0
vn 0.5555707812309265 0.8314692378044128 -0
vn 0.5555707812309265 0.8314692378044128 -0
vn 0.5555707812309265 0.8314692378044128 -0
vn 0.1950933337211609 0.9807847738265991 -0
vn 0.1950933337211609 0.9807847738265991 -0
vn 0.1950933337211609 0.9807847738265991 -0
f 3/3/3 2/2/2 1/1/1
f 6/6/6 5/5/5 4/4/4
f 9/9/9 8/8/8 7/7/7
f 12/12/12 11/11/11 10/10/10
f 15/15/15 14/14/14 13/13/13
f 18/18/18 17/17/17 16/16/16
f 21/21/21 20/20/20 19/19/19
f 24/24/24 23/23/23 22/22/22
f 27/27/27 26/26/26 25/25/25
f 30/30/30 29/29/29 28/28/28
f 33/33/33 32/32/32 31/31/31
f 36/36/36 35/35/35 34/34/34
f 39/39/39 38/38/38 37/37/37
f 42/42/42 41/41/41 40/40/40
f 45/45/45 44/44/44 43/43/43
f 48/48/48 47/47/47 46/46/46
f 51/51/51 50/50/50 49/49/49
f 54/54/54 53/53/53 52/52/52
f 57/57/57 56/56/56 55/55/55
f 60/60/60 59/59/59 58/58/58
f 63/63/63 62/62/62 61/61/61
f 66/66/66 65/65/65 64/64/64
f 69/69/69 68/68/68 67/67/67
f 71/71/71 70/70/70 58/58/58
f 74/74/74 73/73/73 72/72/72
f 77/77/77 76/76/76 75/75/75
f 80/80/80 79/79/79 78/78/78
f 82/82/82 81/81/81 52/52/52
f 85/85/85 84/84/84 83/83/83
f 88/88/88 87/87/87 86/86/86
f 91/91/91 90/90/90 89/89/89
f 94/94/94 93/93/93 92/92/92
f 97/97/97 96/96/96 95/95/95
f 100/100/100 99/99/99 98/98/98
f 102/102/102 101/101/101 82/82/82
f 105/105/105 104/104/104 103/103/103
f 108/108/108 107/107/107 106/106/106
f 111/111/111 110/110/110 109/109/109
f 114/114/114 113/113/113 112/112/112
f 117/117/117 116/116/116 115/115/115
f 120/120/120 119/119/119 118/118/118
f 123/123/123 122/122/122 121/121/121
f 126/126/126 125/125/125 124/124/124
f 129/129/129 128/128/128 127/127/127
f 132/132/132 131/131/131 130/130/130
f 135/135/135 134/134/134 133/133/133
