# VPXTOOL table OBJ file
# VPXTOOL OBJ file
# numVerts: 102 numFaces: 138
o LM_L_LW8_UnderPF
v -2.8842685222625732 140.3592987060547 -32.29457092285156
v -13.502232551574707 142.47128295898438 -32.29457092285156
v -2.8842685222625732 140.3592987060547 -25.465497970581055
v -13.502232551574707 142.47128295898438 -32.29457092285156
v -24.120223999023438 140.3592987060547 -32.29457092285156
v -13.502232551574707 142.47128295898438 -25.465497970581055
v -13.502232551574707 142.47128295898438 -32.29457092285156
v -13.502232551574707 142.47128295898438 -25.465497970581055
v -2.8842685222625732 140.3592987060547 -25.465497970581055
v 6.117219924926758 134.34461975097656 -32.29457092285156
v -2.8842685222625732 140.3592987060547 -32.29457092285156
v 6.117219924926758 134.34461975097656 -25.465497970581055
v -2.8842685222625732 140.3592987060547 -25.465497970581055
v -24.120223999023438 140.3592987060547 -32.29457092285156
v -24.120223999023438 140.3592987060547 -25.465497970581055
v -13.502232551574707 142.47128295898438 -25.465497970581055
v 6.117219924926758 134.34461975097656 -25.465497970581055
v -2.8842685222625732 140.3592987060547 -25.465497970581055
v -13.502232551574707 142.47128295898438 -25.465497970581055
v -24.120223999023438 140.3592987060547 -32.29457092285156
v -33.12168502807617 134.34461975097656 -32.29457092285156
v -24.120223999023438 140.3592987060547 -25.465497970581055
v 6.117219924926758 134.34461975097656 -32.29457092285156
v 6.117219924926758 134.34461975097656 -25.465497970581055
v 12.131794929504395 125.3432388305664 -25.465497970581055
v 12.131794929504395 125.3432388305664 -32.29457092285156
v 6.117219924926758 134.34461975097656 -32.29457092285156
v 12.131794929504395 125.3432388305664 -25.465497970581055
v -24.120223999023438 140.3592987060547 -25.465497970581055
v -33.12168502807617 134.34461975097656 -25.465497970581055
v -33.12168502807617 134.34461975097656 -32.29457092285156
v -33.12168502807617 134.34461975097656 -25.465497970581055
v -24.120223999023438 140.3592987060547 -25.465497970581055
v -33.12168502807617 134.34461975097656 -32.29457092285156
v -39.136287689208984 125.3432388305664 -32.29457092285156
v -33.12168502807617 134.34461975097656 -25.465497970581055
v 14.243853569030762 114.72516632080078 -25.465497970581055
v 12.131794929504395 125.3432388305664 -25.465497970581055
v 12.131794929504395 125.3432388305664 -32.29457092285156
v 12.131794929504395 125.3432388305664 -25.465497970581055
v 14.243853569030762 114.72516632080078 -25.465497970581055
v 14.243853569030762 114.72516632080078 -32.29457092285156
v -39.136287689208984 125.3432388305664 -32.29457092285156
v -39.136287689208984 125.3432388305664 -25.465497970581055
v -33.12168502807617 134.34461975097656 -25.465497970581055
v -13.502232551574707 86.97916412353516 -25.465497970581055
v 6.117219924926758 134.34461975097656 -25.465497970581055
v -13.502232551574707 142.47128295898438 -25.465497970581055
v -39.136287689208984 125.3432388305664 -32.29457092285156
v -41.248348236083984 114.72516632080078 -32.29457092285156
v -39.136287689208984 125.3432388305664 -25.465497970581055
v -39.136287689208984 125.3432388305664 -25.465497970581055
v -41.248348236083984 114.72516632080078 -25.465497970581055
v -33.12168502807617 134.34461975097656 -25.465497970581055
v 14.243853569030762 114.72516632080078 -32.29457092285156
v 14.243853569030762 114.72516632080078 -25.465497970581055
v 12.131794929504395 104.1072006225586 -25.465497970581055
v 12.131794929504395 104.1072006225586 -32.29457092285156
v -41.248348236083984 114.72516632080078 -25.465497970581055
v -13.502232551574707 86.97916412353516 -25.465497970581055
v -41.248348236083984 114.72516632080078 -32.29457092285156
v -39.136287689208984 104.1072006225586 -32.29457092285156
v -41.248348236083984 114.72516632080078 -25.465497970581055
v 12.131794929504395 104.1072006225586 -32.29457092285156
v 12.131794929504395 104.1072006225586 -25.465497970581055
v 6.117219924926758 95.105712890625 -25.465497970581055
v 6.117219924926758 95.105712890625 -32.29457092285156
v 12.131794929504395 104.1072006225586 -32.29457092285156
v 6.117219924926758 95.105712890625 -25.465497970581055
v 12.131794929504395 104.1072006225586 -25.465497970581055
v -39.136287689208984 104.1072006225586 -25.465497970581055
v -39.136287689208984 104.1072006225586 -32.29457092285156
v -33.12168502807617 95.105712890625 -32.29457092285156
v -39.136287689208984 104.1072006225586 -25.465497970581055
v 6.117219924926758 95.105712890625 -32.29457092285156
v 6.117219924926758 95.105712890625 -25.465497970581055
v -2.8842685222625732 89.09114074707031 -25.465497970581055
v -39.136287689208984 104.1072006225586 -25.465497970581055
v -2.8842685222625732 89.09114074707031 -32.29457092285156
v 6.117219924926758 95.105712890625 -25.465497970581055
v -33.12168502807617 95.105712890625 -25.465497970581055
v -33.12168502807617 95.105712890625 -32.29457092285156
v -24.120223999023438 89.09114074707031 -32.29457092285156
v -33.12168502807617 95.105712890625 -25.465497970581055
v -13.502232551574707 86.97916412353516 -32.29457092285156
v -2.8842685222625732 89.09114074707031 -32.29457092285156
v -13.502232551574707 86.97916412353516 -25.465497970581055
v -33.12168502807617 95.105712890625 -25.465497970581055
v -2.8842685222625732 89.09114074707031 -25.465497970581055
v -2.8842685222625732 89.09114074707031 -32.29457092285156
v -2.8842685222625732 89.09114074707031 -25.465497970581055
v -13.502232551574707 86.97916412353516 -25.465497970581055
v -24.120223999023438 89.09114074707031 -32.29457092285156
v -13.502232551574707 86.97916412353516 -32.29457092285156
v -24.120223999023438 89.09114074707031 -25.465497970581055
v -24.120223999023438 89.09114074707031 -32.29457092285156
v -24.120223999023438 89.09114074707031 -25.465497970581055
v -33.12168502807617 95.105712890625 -25.465497970581055
v -13.502232551574707 86.97916412353516 -32.29457092285156
v -13.502232551574707 86.97916412353516 -25.465497970581055
v -24.120223999023438 89.09114074707031 -25.465497970581055
v -24.120223999023438 89.09114074707031 -25.465497970581055
vt 0.08269164711236954 0.650359034538269
vt 0.08361122757196426 0.6531566381454468
vt 0.08430444449186325 0.6503418684005737
vt 0.08361122757196426 0.6531566381454468
vt 0.08269164711236954 0.6559461355209351
vt 0.08522281795740128 0.6531342267990112
vt 0.08361122757196426 0.6531566381454468
vt 0.08522281795740128 0.6531342267990112
vt 0.08430444449186325 0.6503418684005737
vt 0.08007631450891495 0.6479843258857727
vt 0.08269164711236954 0.650359034538269
vt 0.08169245719909668 0.6479716300964355
vt 0.08430444449186325 0.6503418684005737
vt 0.08269164711236954 0.6559461355209351
vt 0.08430444449186325 0.6559184789657593
vt 0.08522281795740128 0.6531342267990112
vt 0.08169245719909668 0.6479716300964355
vt 0.08430444449186325 0.6503418684005737
vt 0.08522281795740128 0.6531342267990112
vt 0.08269164711236954 0.6559461355209351
vt 0.08007631450891495 0.6582980751991272
vt 0.08430444449186325 0.6559184789657593
vt 0.08007631450891495 0.6479843258857727
vt 0.08169245719909668 0.6479716300964355
vt 0.07779259979724884 0.6463862657546997
vt 0.07617150247097015 0.6463959813117981
vt 0.08007631450891495 0.6479843258857727
vt 0.07779259979724884 0.6463862657546997
vt 0.08430444449186325 0.6559184789657593
vt 0.08169245719909668 0.6582660675048828
vt 0.08007631450891495 0.6582980751991272
vt 0.08169245719909668 0.6582660675048828
vt 0.08430444449186325 0.6559184789657593
vt 0.08007631450891495 0.6582980751991272
vt 0.07617150247097015 0.6598523855209351
vt 0.08169245719909668 0.6582660675048828
vt 0.07320668548345566 0.645825207233429
vt 0.07779259979724884 0.6463862657546997
vt 0.07617150247097015 0.6463959813117981
vt 0.07779259979724884 0.6463862657546997
vt 0.07320668548345566 0.645825207233429
vt 0.0715797021985054 0.6458338499069214
vt 0.07617150247097015 0.6598523855209351
vt 0.07779259979724884 0.6598174571990967
vt 0.08169245719909668 0.6582660675048828
vt 0.061295341700315475 0.6530301570892334
vt 0.08169245719909668 0.6479716300964355
vt 0.08522281795740128 0.6531342267990112
vt 0.07617150247097015 0.6598523855209351
vt 0.0715797021985054 0.6603744626045227
vt 0.07779259979724884 0.6598174571990967
vt 0.07779259979724884 0.6598174571990967
vt 0.07320668548345566 0.6603386402130127
vt 0.08169245719909668 0.6582660675048828
vt 0.0715797021985054 0.6458338499069214
vt 0.07320668548345566 0.645825207233429
vt 0.06863610446453094 0.6463689804077148
vt 0.06700330227613449 0.6463786363601685
vt 0.07320668548345566 0.6603386402130127
vt 0.061295341700315475 0.6530301570892334
vt 0.0715797021985054 0.6603744626045227
vt 0.06700330227613449 0.6597898006439209
vt 0.07320668548345566 0.6603386402130127
vt 0.06700330227613449 0.6463786363601685
vt 0.06863610446453094 0.6463689804077148
vt 0.064773328602314 0.647929847240448
vt 0.06313563883304596 0.6479423642158508
vt 0.06700330227613449 0.6463786363601685
vt 0.064773328602314 0.647929847240448
vt 0.06863610446453094 0.6463689804077148
vt 0.06863610446453094 0.6597552299499512
vt 0.06700330227613449 0.6597898006439209
vt 0.06313563883304596 0.6581923365592957
vt 0.06863610446453094 0.6597552299499512
vt 0.06313563883304596 0.6479423642158508
vt 0.064773328602314 0.647929847240448
vt 0.06219838559627533 0.6502682566642761
vt 0.06863610446453094 0.6597552299499512
vt 0.06055748462677002 0.6502851247787476
vt 0.064773328602314 0.647929847240448
vt 0.064773328602314 0.6581606864929199
vt 0.06313563883304596 0.6581923365592957
vt 0.06055748462677002 0.6558271050453186
vt 0.064773328602314 0.6581606864929199
vt 0.059653300791978836 0.6530522108078003
vt 0.06055748462677002 0.6502851247787476
vt 0.061295341700315475 0.6530301570892334
vt 0.064773328602314 0.6581606864929199
vt 0.06219838559627533 0.6502682566642761
vt 0.06055748462677002 0.6502851247787476
vt 0.06219838559627533 0.6502682566642761
vt 0.061295341700315475 0.6530301570892334
vt 0.06055748462677002 0.6558271050453186
vt 0.059653300791978836 0.6530522108078003
vt 0.06219838559627533 0.655799925327301
vt 0.06055748462677002 0.6558271050453186
vt 0.06219838559627533 0.655799925327301
vt 0.064773328602314 0.6581606864929199
vt 0.059653300791978836 0.6530522108078003
vt 0.061295341700315475 0.6530301570892334
vt 0.06219838559627533 0.655799925327301
vt 0.06219838559627533 0.655799925327301
vn -0.1950840950012207 -0.9807865023612976 -0
vn -0.1950840950012207 -0.9807865023612976 -0
vn -0.1950840950012207 -0.9807865023612976 -0
vn 0.1950836181640625 -0.9807866215705872 -0
vn 0.1950836181640625 -0.9807866215705872 -0
vn 0.1950836181640625 -0.9807866215705872 -0
vn -0.19508430361747742 -0.9807865023612976 -0
vn -0.19508430361747742 -0.9807865023612976 -0
vn -0.19508430361747742 -0.9807865023612976 -0
vn -0.5555755496025085 -0.8314661383628845 -0
vn -0.5555755496025085 -0.8314661383628845 -0
vn -0.5555755496025085 -0.8314661383628845 -0
vn -0.5555755496025085 -0.8314661383628845 -0
vn 0.1950838267803192 -0.9807866215705872 -0
vn 0.1950838267803192 -0.9807866215705872 -0
vn 0.1950838267803192 -0.9807866215705872 -0
vn 0 -0 -1
vn 0 -0 -1
vn 0 -0 -1
vn 0.5555766224861145 -0.8314653635025024 -0
vn 0.5555766224861145 -0.8314653635025024 -0
vn 0.5555766224861145 -0.8314653635025024 -0
vn -0.8314674496650696 -0.5555734038352966 -0
vn -0.8314674496650696 -0.5555734038352966 -0
vn -0.8314674496650696 -0.5555734038352966 -0
vn -0.8314676284790039 -0.5555731654167175 -0
vn -0.8314676284790039 -0.5555731654167175 -0
vn -0.8314676284790039 -0.5555731654167175 -0
vn 0 -0 -1
vn 0 -0 -1
vn 0.5555769205093384 -0.8314651846885681 -0
vn 0.5555769205093384 -0.8314651846885681 -0
vn 0.5555769205093384 -0.8314651846885681 -0
vn 0.8314663767814636 -0.5555750131607056 -0
vn 0.8314663767814636 -0.5555750131607056 -0
vn 0.8314663767814636 -0.5555750131607056 -0
vn 0 -0 -1
vn 0 -0 -1
vn -0.9807853698730469 -0.19508963823318481 -0
vn -0.9807853698730469 -0.19508963823318481 -0
vn -0.9807853698730469 -0.19508963823318481 -0
vn -0.9807853698730469 -0.19508963823318481 -0
vn 0.8314661979675293 -0.5555753707885742 -0
vn 0.8314661979675293 -0.5555753707885742 -0
vn 0.8314661979675293 -0.5555753707885742 -0
vn 0 -0 -0.9999999403953552
vn 0 -0 -0.9999999403953552
vn 0 -0 -0.9999999403953552
vn 0.9807853698730469 -0.19508947432041168 -0
vn 0.9807853698730469 -0.19508947432041168 -0
vn 0.9807853698730469 -0.19508947432041168 -0
vn 0 -0 -1
vn 0 -0 -1
vn 0 -0 -0.9999999403953552
vn -0.9807850122451782 0.19509157538414001 -0
vn -0.9807850122451782 0.19509157538414001 -0
vn -0.9807850122451782 0.19509157538414001 -0
vn -0.9807850122451782 0.19509157538414001 -0
vn 0.9807853698730469 -0.19508947432041168 -0
vn 0 -0 -1
vn 0.980785071849823 0.19509142637252808 -0
vn 0.980785071849823 0.19509142637252808 -0
vn 0.980785071849823 0.19509142637252808 -0
vn -0.8314708471298218 0.555568516254425 -0
vn -0.8314708471298218 0.555568516254425 -0
vn -0.8314708471298218 0.555568516254425 -0
vn -0.8314708471298218 0.5555684566497803 -0
vn -0.8314708471298218 0.5555684566497803 -0
vn -0.8314708471298218 0.5555684566497803 -0
vn 0 -0 -1
vn 0.980785071849823 0.19509142637252808 -0
vn 0.8314695954322815 0.5555703639984131 -0
vn 0.8314695954322815 0.5555703639984131 -0
vn 0.8314695954322815 0.5555703639984131 -0
vn -0.555568516254425 0.8314708471298218 -0
vn -0.555568516254425 0.8314708471298218 -0
vn -0.555568516254425 0.8314708471298218 -0
vn 0 -0 -1
vn -0.555568516254425 0.8314708471298218 -0
vn 0 -0 -1
vn 0.8314695954322815 0.5555703639984131 -0
vn 0.5555698871612549 0.8314698338508606 -0
vn 0.5555698871612549 0.8314698338508606 -0
vn 0.5555698871612549 0.8314698338508606 -0
vn -0.19508415460586548 0.9807865619659424 -0
vn -0.19508415460586548 0.9807865619659424 -0
vn -0.19508415460586548 0.9807865619659424 -0
vn 0 -0 -1
vn 0 -0 -1
vn -0.19508427381515503 0.9807865023612976 -0
vn -0.19508427381515503 0.9807865023612976 -0
vn -0.19508427381515503 0.9807865023612976 -0
vn 0.1950836479663849 0.9807866215705872 -0
vn 0.1950836479663849 0.9807866215705872 -0
vn 0.1950836479663849 0.9807866215705872 -0
vn 0.555569589138031 0.8314700722694397 -0
vn 0.555569589138031 0.8314700722694397 -0
vn 0.555569589138031 0.8314700722694397 -0
vn 0.19508379697799683 0.9807866215705872 -0
vn 0.19508379697799683 0.9807866215705872 -0
vn 0.19508379697799683 0.9807866215705872 -0
vn 0 -0 -1
f 3/3/3 2/2/2 1/1/1
f 6/6/6 5/5/5 4/4/4
f 9/9/9 8/8/8 7/7/7
f 12/12/12 11/11/11 10/10/10
f 12/12/12 13/13/13 11/11/11
f 16/16/16 15/15/15 14/14/14
f 19/19/19 18/18/18 17/17/17
f 22/22/22 21/21/21 20/20/20
f 25/25/25 24/24/24 23/23/23
f 28/28/28 27/27/27 26/26/26
f 30/30/30 29/29/29 19/19/19
f 33/33/33 32/32/32 31/31/31
f 36/36/36 35/35/35 34/34/34
f 17/17/17 38/38/38 37/37/37
f 41/41/41 40/40/40 39/39/39
f 41/41/41 39/39/39 42/42/42
f 45/45/45 44/44/44 43/43/43
f 48/48/48 47/47/47 46/46/46
f 51/51/51 50/50/50 49/49/49
f 53/53/53 52/52/52 30/30/30
f 54/54/54 48/48/48 46/46/46
f 57/57/57 56/56/56 55/55/55
f 57/57/57 55/55/55 58/58/58
f 51/51/51 59/59/59 50/50/50
f 17/17/17 37/37/37 60/60/60
f 63/63/63 62/62/62 61/61/61
f 53/53/53 30/30/30 60/60/60
f 66/66/66 65/65/65 64/64/64
f 69/69/69 68/68/68 67/67/67
f 37/37/37 70/70/70 60/60/60
f 63/63/63 71/71/71 62/62/62
f 74/74/74 73/73/73 72/72/72
f 77/77/77 76/76/76 75/75/75
f 78/78/78 53/53/53 60/60/60
f 77/77/77 75/75/75 79/79/79
f 70/70/70 80/80/80 60/60/60
f 74/74/74 81/81/81 73/73/73
f 84/84/84 83/83/83 82/82/82
f 87/87/87 86/86/86 85/85/85
f 88/88/88 78/78/78 60/60/60
f 80/80/80 89/89/89 60/60/60
f 92/92/92 91/91/91 90/90/90
f 95/95/95 94/94/94 93/93/93
f 98/98/98 97/97/97 96/96/96
f 101/101/101 100/100/100 99/99/99
f 60/60/60 102/102/102 88/88/88
