# VPXTOOL table OBJ file
# VPXTOOL OBJ file
# numVerts: 123 numFaces: 195
o LM_L_LSC2_Playfield
v 300.0567321777344 -222.25564575195313 -0
v 308.0106201171875 3.8980720043182373 -0
v 298.9323425292969 -222.2556915283203 -0
v 311.2617492675781 -222.25564575195313 -0
v 202.95394897460938 -69.332763671875 -0
v 330.420654296875 3.8980720043182373 -0
v 187.31837463378906 -7.661198616027832 23.52941131591797
v 186.82089233398438 -8.522884368896484 23.52941131591797
v 186.82089233398438 -8.522884368896484 -0
v 187.31820678710938 -6.666112899780273 23.52941131591797
v 187.31837463378906 -7.661198616027832 23.52941131591797
v 187.31837463378906 -7.661198616027832 -0
v 131.97032165527344 -0.03787752240896225 23.52941131591797
v 132.83200073242188 0.4598309099674225 23.52941131591797
v 132.83200073242188 0.4598309099674225 -0
v 202.95394897460938 -69.332763671875 -0
v 308.0106201171875 3.8980720043182373 -0
v 185.9591522216797 -9.02059268951416 -0
v 182.38131713867188 11.7515287399292 23.52941131591797
v 187.31820678710938 -6.666112899780273 23.52941131591797
v 187.31820678710938 -6.666112899780273 -0
v 187.31837463378906 -7.661198616027832 -0
v 187.31837463378906 -7.661198616027832 23.52941131591797
v 186.82089233398438 -8.522884368896484 -0
v 187.31820678710938 -6.666112899780273 -0
v 131.97032165527344 -0.03787752240896225 -0
v 132.83200073242188 0.4598309099674225 23.52941131591797
v 180.02684020996094 13.11059284210205 23.52941131591797
v 180.02684020996094 13.11059284210205 -0
v 132.83200073242188 0.4598309099674225 -0
v 181.88372802734375 12.613215446472168 23.52941131591797
v 182.38131713867188 11.7515287399292 23.52941131591797
v 182.38131713867188 11.7515287399292 -0
v 181.0219268798828 13.110702514648438 23.52941131591797
v 181.88372802734375 12.613215446472168 23.52941131591797
v 181.88372802734375 12.613215446472168 -0
v 180.02684020996094 13.11059284210205 23.52941131591797
v 181.0219268798828 13.110702514648438 23.52941131591797
v 181.0219268798828 13.110702514648438 -0
v 182.38131713867188 11.7515287399292 -0
v 308.0106201171875 3.8980720043182373 23.52941131591797
v 306.3971252441406 4.525535583496094 23.52941131591797
v 306.3971252441406 4.525535583496094 -0
v 330.420654296875 3.8980720043182373 23.52941131591797
v 308.0106201171875 3.8980720043182373 23.52941131591797
v 308.0106201171875 3.8980720043182373 -0
v 306.3971252441406 4.525535583496094 23.52941131591797
v 305.59027099609375 6.139140605926514 23.52941131591797
v 305.59027099609375 6.139140605926514 -0
v 332.0342102050781 4.794433116912842 23.52941131591797
v 330.420654296875 3.8980720043182373 23.52941131591797
v 330.420654296875 3.8980720043182373 -0
v 306.3971252441406 4.525535583496094 -0
v 186.82089233398438 -8.522884368896484 -0
v 306.3971252441406 4.525535583496094 -0
v 187.31837463378906 -7.661198616027832 -0
v 186.82089233398438 -8.522884368896484 -0
v 305.59027099609375 6.139140605926514 -0
v 187.31820678710938 -6.666112899780273 -0
v 181.88372802734375 12.613215446472168 -0
v 181.0219268798828 13.110702514648438 -0
v 181.0219268798828 13.110702514648438 23.52941131591797
v 181.88372802734375 12.613215446472168 -0
v 180.02684020996094 13.11059284210205 -0
v 180.02684020996094 13.11059284210205 23.52941131591797
v 181.0219268798828 13.110702514648438 -0
v 308.0106201171875 3.8980720043182373 -0
v 330.420654296875 3.8980720043182373 -0
v 306.3971252441406 4.525535583496094 -0
v 306.3971252441406 4.525535583496094 23.52941131591797
v 305.59027099609375 6.139140605926514 -0
v 182.38131713867188 11.7515287399292 -0
v 305.59027099609375 6.139140605926514 -0
v 187.31837463378906 -7.661198616027832 -0
v 181.88372802734375 12.613215446472168 -0
v 219.145263671875 87.77690887451172 -0
v 132.83200073242188 0.4598309099674225 -0
v 180.02684020996094 13.11059284210205 -0
v 219.33206176757813 88.5985107421875 -0
v 305.59027099609375 6.139140605926514 -0
v 305.59027099609375 6.139140605926514 23.52941131591797
v 305.4585876464844 175.09397888183594 -0
v 161.98599243164063 212.13743591308594 -0
v 131.97032165527344 -0.03787752240896225 -0
v 305.4585876464844 175.09397888183594 -0
v 181.0219268798828 13.110702514648438 -0
v 305.4585876464844 175.09397888183594 -0
v 180.02684020996094 13.11059284210205 -0
v 181.0219268798828 13.110702514648438 -0
v 219.145263671875 87.77690887451172 -0
v 170.91470336914063 215.1829833984375 -0
v 305.59027099609375 6.139140605926514 23.52941131591797
v 305.4585876464844 175.09397888183594 23.52941131591797
v 305.4585876464844 175.09397888183594 -0
v 162.4168243408203 212.38623046875 -0
v 163.49253845214844 212.49378967285156 -0
v 305.8321228027344 176.7371826171875 -0
v 305.4585876464844 175.09397888183594 23.52941131591797
v 305.8321228027344 176.7371826171875 23.52941131591797
v 305.8321228027344 176.7371826171875 -0
v 305.4585876464844 175.09397888183594 -0
v 305.8321228027344 176.7371826171875 -0
v 305.8321228027344 176.7371826171875 23.52941131591797
v 307.4008483886719 177.2601776123047 -0
v 257.4147644042969 303.3216552734375 -0
v 324.1614074707031 314.8333435058594 -0.000001725470269775542
v 305.8321228027344 176.7371826171875 -0
v 307.4008483886719 177.2601776123047 -0
v 323.32049560546875 314.9278564453125 -0.000001725470269775542
v 257.4147644042969 303.3216552734375 -0
v 305.8321228027344 176.7371826171875 -0
v 323.9170837402344 314.8333435058594 -0.000001725470269775542
v 305.8321228027344 176.7371826171875 -0
v 324.1614074707031 314.8333435058594 -0.000001725470269775542
v 323.32049560546875 314.9278564453125 -0.000001725470269775542
v 305.8321228027344 176.7371826171875 -0
v 323.9170837402344 314.8333435058594 -0.000001725470269775542
v 192.0016632080078 424.312744140625 -0
v 194.15306091308594 424.5278625488281 -0
v 208.99740600585938 429.90625 -0
v 257.4147644042969 303.3216552734375 -0
v 323.32049560546875 314.9278564453125 -0.000001725470269775542
v 208.99740600585938 429.90625 -0
vt 0.459682434797287 0.07407444715499878
vt 0.46681472659111023 0.12430304288864136
vt 0.45925694704055786 0.07407444715499878
vt 0.4639223515987396 0.07407444715499878
vt 0.4247569441795349 0.10765469074249268
vt 0.4755939543247223 0.12430304288864136
vt 0.4189366102218628 0.12480044364929199
vt 0.4187335669994354 0.12460386753082275
vt 0.4191959500312805 0.1214524507522583
vt 0.4189477860927582 0.12502753734588623
vt 0.4189366102218628 0.12480044364929199
vt 0.41940033435821533 0.1216498613357544
vt 0.3974902629852295 0.12654179334640503
vt 0.39782950282096863 0.12665563821792603
vt 0.39815962314605713 0.123512864112854
vt 0.4247569441795349 0.10765469074249268
vt 0.46681472659111023 0.12430304288864136
vt 0.41885337233543396 0.12133854627609253
vt 0.41723254323005676 0.1292428970336914
vt 0.4189477860927582 0.12502753734588623
vt 0.41941165924072266 0.12187790870666504
vt 0.41940033435821533 0.1216498613357544
vt 0.4189366102218628 0.12480044364929199
vt 0.4191959500312805 0.1214524507522583
vt 0.41941165924072266 0.12187790870666504
vt 0.3978182077407837 0.1233985424041748
vt 0.39782950282096863 0.12665563821792603
vt 0.4163297414779663 0.12955492734909058
vt 0.4167783856391907 0.1264243721961975
vt 0.39815962314605713 0.123512864112854
vt 0.4170481264591217 0.12944072484970093
vt 0.41723254323005676 0.1292428970336914
vt 0.4176868498325348 0.12611103057861328
vt 0.41671764850616455 0.12955492734909058
vt 0.4170481264591217 0.12944072484970093
vt 0.417501300573349 0.12630975246429443
vt 0.4163297414779663 0.12955492734909058
vt 0.41671764850616455 0.12955492734909058
vt 0.4171687662601471 0.12642443180084229
vt 0.4176868498325348 0.12611103057861328
vt 0.4660504460334778 0.12744247913360596
vt 0.4654339551925659 0.12758612632751465
vt 0.46619439125061035 0.12444734573364258
vt 0.47477418184280396 0.12744247913360596
vt 0.4660504460334778 0.12744247913360596
vt 0.46681472659111023 0.12430304288864136
vt 0.4654339551925659 0.12758612632751465
vt 0.4651497006416321 0.12795579433441162
vt 0.4659084975719452 0.12481850385665894
vt 0.4754202961921692 0.1276477575302124
vt 0.47477418184280396 0.12744247913360596
vt 0.4755939543247223 0.12430304288864136
vt 0.46619439125061035 0.12444734573364258
vt 0.4191959500312805 0.1214524507522583
vt 0.46619439125061035 0.12444734573364258
vt 0.41940033435821533 0.1216498613357544
vt 0.4191959500312805 0.1214524507522583
vt 0.4659084975719452 0.12481850385665894
vt 0.41941165924072266 0.12187790870666504
vt 0.417501300573349 0.12630975246429443
vt 0.4171687662601471 0.12642443180084229
vt 0.41671764850616455 0.12955492734909058
vt 0.417501300573349 0.12630975246429443
vt 0.4167783856391907 0.1264243721961975
vt 0.4163297414779663 0.12955492734909058
vt 0.4171687662601471 0.12642443180084229
vt 0.46681472659111023 0.12430304288864136
vt 0.4755939543247223 0.12430304288864136
vt 0.46619439125061035 0.12444734573364258
vt 0.4654339551925659 0.12758612632751465
vt 0.4659084975719452 0.12481850385665894
vt 0.4176868498325348 0.12611103057861328
vt 0.4659084975719452 0.12481850385665894
vt 0.41940033435821533 0.1216498613357544
vt 0.417501300573349 0.12630975246429443
vt 0.4331434369087219 0.14384591579437256
vt 0.39815962314605713 0.123512864112854
vt 0.4167783856391907 0.1264243721961975
vt 0.4332289397716522 0.14403992891311646
vt 0.4659084975719452 0.12481850385665894
vt 0.4651497006416321 0.12795579433441162
vt 0.469107061624527 0.1647484302520752
vt 0.4117490351200104 0.17379403114318848
vt 0.3978182077407837 0.1233985424041748
vt 0.469107061624527 0.1647484302520752
vt 0.4171687662601471 0.12642443180084229
vt 0.469107061624527 0.1647484302520752
vt 0.4167783856391907 0.1264243721961975
vt 0.4171687662601471 0.12642443180084229
vt 0.4331434369087219 0.14384591579437256
vt 0.4153985381126404 0.17454254627227783
vt 0.4651497006416321 0.12795579433441162
vt 0.4683070480823517 0.16771090030670166
vt 0.469107061624527 0.1647484302520752
vt 0.41192618012428284 0.17385518550872803
vt 0.41236287355422974 0.17388159036636353
vt 0.4692899286746979 0.16514742374420166
vt 0.4683070480823517 0.16771090030670166
vt 0.46848851442337036 0.1681080460548401
vt 0.4692899286746979 0.16514742374420166
vt 0.469107061624527 0.1647484302520752
vt 0.4692899286746979 0.16514742374420166
vt 0.46848851442337036 0.1681080460548401
vt 0.4699319303035736 0.16527444124221802
vt 0.4519496560096741 0.19652771949768066
vt 0.47963201999664307 0.19944614171981812
vt 0.4692899286746979 0.16514742374420166
vt 0.4699319303035736 0.16527444124221802
vt 0.4792878329753876 0.1994701623916626
vt 0.4519496560096741 0.19652771949768066
vt 0.4692899286746979 0.16514742374420166
vt 0.4795313775539398 0.19944614171981812
vt 0.4692899286746979 0.16514742374420166
vt 0.47963201999664307 0.19944614171981812
vt 0.4792878329753876 0.1994701623916626
vt 0.4692899286746979 0.16514742374420166
vt 0.4795313775539398 0.19944614171981812
vt 0.4266674220561981 0.22776192426681519
vt 0.4275723397731781 0.2278185486793518
vt 0.43387535214424133 0.22923648357391357
vt 0.4519496560096741 0.19652771949768066
vt 0.4792878329753876 0.1994701623916626
vt 0.43387535214424133 0.22923648357391357
vn 0 -0 -1
vn 0 -0 -1
vn 0 -0 -1
vn 0 -0 -1
vn 0 -0 -1
vn 0 -0 -1
vn -0.8660381436347961 0.49997785687446594 -0
vn -0.8660381436347961 0.49997785687446594 -0
vn -0.8660381436347961 0.49997785687446594 -0
vn -0.9999999403953552 -0.0001706684852251783 -0
vn -0.9999999403953552 -0.0001706684852251783 -0
vn -0.9999999403953552 -0.0001706684852251783 -0
vn 0.5001627802848816 -0.8659313917160034 -0
vn 0.5001627802848816 -0.8659313917160034 -0
vn 0.5001627802848816 -0.8659313917160034 -0
vn 0 -0 -0.9999999403953552
vn 0 -0 -0.9999999403953552
vn 0 -0 -0.9999999403953552
vn -0.9659010171890259 -0.2589115500450134 -0
vn -0.9659010171890259 -0.2589115500450134 -0
vn -0.9659010171890259 -0.2589115500450134 -0
vn -0.8660233616828918 0.500003457069397 -0
vn -0.8660233616828918 0.500003457069397 -0
vn -0.8660233616828918 0.500003457069397 -0
vn -0.9999999403953552 -0.0001706684852251783 -0
vn 0.5001627802848816 -0.8659313917160034 -0
vn 0.25891342759132385 -0.9659005403518677 -0
vn 0.25891342759132385 -0.9659005403518677 -0
vn 0.25891342759132385 -0.9659005403518677 -0
vn 0.25891342759132385 -0.9659005403518677 -0
vn -0.8659790754318237 -0.5000802874565125 -0
vn -0.8659790754318237 -0.5000802874565125 -0
vn -0.8659790754318237 -0.5000802874565125 -0
vn -0.4999519884586334 -0.86605304479599 -0
vn -0.4999519884586334 -0.86605304479599 -0
vn -0.4999519884586334 -0.86605304479599 -0
vn 0.00011097759852418676 -0.9999999403953552 -0
vn 0.00011097759852418676 -0.9999999403953552 -0
vn 0.00011097759852418676 -0.9999999403953552 -0
vn -0.9659010171890259 -0.2589115500450134 -0
vn 0.362438440322876 0.9320077300071716 -0
vn 0.362438440322876 0.9320077300071716 -0
vn 0.362438440322876 0.9320077300071716 -0
vn 0 1 -0
vn 0 1 -0
vn 0 1 -0
vn 0.8944066762924194 0.4472547769546509 -0
vn 0.8944066762924194 0.4472547769546509 -0
vn 0.8944066762924194 0.4472547769546509 -0
vn -0.4856271743774414 0.8741660714149475 -0
vn -0.4856271743774414 0.8741660714149475 -0
vn -0.4856271743774414 0.8741660714149475 -0
vn 0 -0 -0.9999999403953552
vn 0 -0 -0.9999999403953552
vn 0 -0 -1
vn 0 -0 -1
vn 0 -0 -1
vn 0 -0 -1
vn 0 -0 -1
vn -0.8659790754318237 -0.5000802874565125 -0
vn -0.4999372065067291 -0.8660616278648376 -0
vn -0.4999372065067291 -0.8660616278648376 -0
vn -0.4999372065067291 -0.8660616278648376 -0
vn 0.00011097381502622738 -1 -0
vn 0.00011097381502622738 -1 -0
vn 0.00011097381502622738 -1 -0
vn 0.362438440322876 0.9320077300071716 -0
vn 0 1 -0
vn 0.8944216370582581 0.44722461700439453 -0
vn 0.8944216370582581 0.44722461700439453 -0
vn 0.8944216370582581 0.44722461700439453 -0
vn 0 -0 -1
vn 0 -0 -0.9999999403953552
vn 0 -0 -0.9999999403953552
vn 0 -0 -1
vn 0 -0 -1
vn 0 -0 -1
vn 0 -0 -1
vn 0 -0 -1
vn 0.9999997019767761 0.0007792140822857618 -0
vn 0.9999997019767761 0.0007792140822857618 -0
vn 0.9999997019767761 0.0007792140822857618 -0
vn 0 -0 -1
vn 0 -0 -1
vn 0 -0 -1
vn 0 -0 -1
vn 0 -0 -0.9999999403953552
vn 0 -0 -0.9999999403953552
vn 0 -0 -0.9999999403953552
vn 0 -0 -0.9999999403953552
vn 0 -0 -1
vn 0.9999997019767761 0.0007796161225996912 -0
vn 0.9999997019767761 0.0007796161225996912 -0
vn 0.9999997019767761 0.0007796161225996912 -0
vn 0 -0 -1
vn 0 -0 -1
vn 0 -0 -1
vn 0.9751195907592773 -0.221679225564003 -0
vn 0.9751195907592773 -0.221679225564003 -0
vn 0.9751195907592773 -0.221679225564003 -0
vn 0.9751195907592773 -0.221679225564003 -0
vn 0.31628352403640747 -0.948664665222168 -0
vn 0.31628352403640747 -0.948664665222168 -0
vn 0.31628352403640747 -0.948664665222168 -0
vn 0 -0 -1
vn 0.0000000043584931219697864 -0.000000013073178095623916 -1
vn 0.0000000043584931219697864 -0.000000013073178095623916 -1
vn 0.0000000043584931219697864 -0.000000013073178095623916 -1
vn -0.000000024528686637381725 -0.000000009381989407586389 -1
vn -0.000000024528686637381725 -0.000000009381989407586389 -1
vn -0.000000024528686637381725 -0.000000009381989407586389 -1
vn 0 -0.000000012494992596145948 -1
vn 0 -0.000000012494992596145948 -1
vn 0 -0.000000012494992596145948 -1
vn -0.0000000019394676975537095 -0.00000001224062362581435 -0.9999999403953552
vn -0.0000000019394676975537095 -0.00000001224062362581435 -0.9999999403953552
vn -0.0000000019394676975537095 -0.00000001224062362581435 -0.9999999403953552
vn 0 -0 -1
vn 0 -0 -1
vn 0 -0 -1
vn -0.000000024528681308311207 -0.000000009381978749445352 -0.9999999403953552
vn -0.000000024528681308311207 -0.000000009381978749445352 -0.9999999403953552
vn -0.000000024528681308311207 -0.000000009381978749445352 -0.9999999403953552
f 3/3/3 2/2/2 1/1/1
f 2/2/2 4/4/4 1/1/1
f 2/2/2 3/3/3 5/5/5
f 2/2/2 6/6/6 4/4/4
f 9/9/9 8/8/8 7/7/7
f 12/12/12 11/11/11 10/10/10
f 15/15/15 14/14/14 13/13/13
f 18/18/18 17/17/17 16/16/16
f 21/21/21 20/20/20 19/19/19
f 24/24/24 23/23/23 22/22/22
f 12/12/12 10/10/10 25/25/25
f 15/15/15 13/13/13 26/26/26
f 29/29/29 28/28/28 27/27/27
f 29/29/29 27/27/27 30/30/30
f 33/33/33 32/32/32 31/31/31
f 36/36/36 35/35/35 34/34/34
f 39/39/39 38/38/38 37/37/37
f 21/21/21 19/19/19 40/40/40
f 43/43/43 42/42/42 41/41/41
f 46/46/46 45/45/45 44/44/44
f 49/49/49 48/48/48 47/47/47
f 52/52/52 51/51/51 50/50/50
f 18/18/18 54/54/54 53/53/53
f 57/57/57 56/56/56 55/55/55
f 56/56/56 59/59/59 58/58/58
f 33/33/33 31/31/31 60/60/60
f 63/63/63 62/62/62 61/61/61
f 66/66/66 65/65/65 64/64/64
f 43/43/43 41/41/41 67/67/67
f 46/46/46 44/44/44 68/68/68
f 71/71/71 70/70/70 69/69/69
f 53/53/53 17/17/17 18/18/18
f 59/59/59 72/72/72 58/58/58
f 74/74/74 73/73/73 53/53/53
f 72/72/72 75/75/75 58/58/58
f 78/78/78 77/77/77 76/76/76
f 76/76/76 77/77/77 79/79/79
f 82/82/82 81/81/81 80/80/80
f 77/77/77 84/84/84 83/83/83
f 75/75/75 86/86/86 85/85/85
f 89/89/89 88/88/88 87/87/87
f 75/75/75 85/85/85 58/58/58
f 88/88/88 90/90/90 87/87/87
f 77/77/77 91/91/91 79/79/79
f 94/94/94 93/93/93 92/92/92
f 79/79/79 85/85/85 76/76/76
f 95/95/95 77/77/77 83/83/83
f 96/96/96 77/77/77 95/95/95
f 96/96/96 91/91/91 77/77/77
f 79/79/79 97/97/97 85/85/85
f 100/100/100 99/99/99 98/98/98
f 100/100/100 98/98/98 101/101/101
f 104/104/104 103/103/103 102/102/102
f 79/79/79 105/105/105 97/97/97
f 79/79/79 91/91/91 105/105/105
f 108/108/108 107/107/107 106/106/106
f 111/111/111 110/110/110 109/109/109
f 114/114/114 113/113/113 112/112/112
f 117/117/117 116/116/116 115/115/115
f 96/96/96 95/95/95 118/118/118
f 119/119/119 91/91/91 96/96/96
f 91/91/91 120/120/120 105/105/105
f 118/118/118 119/119/119 96/96/96
f 119/119/119 120/120/120 91/91/91
f 123/123/123 122/122/122 121/121/121
