# VPXTOOL table OBJ file
# VPXTOOL OBJ file
# numVerts: 169 numFaces: 279
o LM_L_LM4_Playfield
v 181.15940856933594 -711.026611328125 23.52941131591797
v 111.84260559082031 -728.0653076171875 23.52941131591797
v 111.84260559082031 -728.0653076171875 -0
v 111.84260559082031 -728.0653076171875 -0
v 111.84260559082031 -728.0653076171875 23.52941131591797
v 95.96552276611328 -663.6536254882813 -0
v -30.302791595458984 -721.7911987304688 -0
v 111.84260559082031 -728.0653076171875 -0
v 65.28423309326172 -661.2755126953125 -0
v -30.302791595458984 -704.0424194335938 -0
v 64.01439666748047 -660.379150390625 -0
v -30.840641021728516 -701.4609375 -0
v 111.84260559082031 -728.0653076171875 23.52941131591797
v 95.96552276611328 -663.6536254882813 23.52941131591797
v 95.96552276611328 -663.6536254882813 -0
v 67.00235748291016 -661.57421875 -0
v 10.125280380249023 -603.9579467773438 -0
v -57.73274230957031 -700.3851318359375 -0
v -55.473785400390625 -699.6322021484375 -0
v 95.96552276611328 -663.6536254882813 -0
v -34.282859802246094 -699.6322021484375 -0
v -32.56174850463867 -699.9548950195313 -0
v -30.840641021728516 -701.4609375 -0
v 64.01439666748047 -660.379150390625 -0
v 63.043216705322266 -659.0345458984375 -0
v 67.00235748291016 -661.57421875 23.52941131591797
v 65.28423309326172 -661.2755126953125 23.52941131591797
v 65.28423309326172 -661.2755126953125 -0
v 65.28423309326172 -661.2755126953125 23.52941131591797
v 64.01439666748047 -660.379150390625 23.52941131591797
v 64.01439666748047 -660.379150390625 -0
v 64.01439666748047 -660.379150390625 23.52941131591797
v 63.043216705322266 -659.0345458984375 23.52941131591797
v 63.043216705322266 -659.0345458984375 -0
v 63.043216705322266 -659.0345458984375 -0
v 58.71071243286133 -641.7041015625 -0
v 88.96414184570313 -656.1958618164063 23.52941131591797
v 67.00235748291016 -661.57421875 23.52941131591797
v 67.00235748291016 -661.57421875 -0
v 67.00235748291016 -661.57421875 -0
v 67.00235748291016 -661.57421875 23.52941131591797
v 65.28423309326172 -661.2755126953125 -0
v 65.28423309326172 -661.2755126953125 -0
v 64.01439666748047 -660.379150390625 -0
v 90.60750579833984 -655.0007934570313 23.52941131591797
v 88.96414184570313 -656.1958618164063 23.52941131591797
v 88.96414184570313 -656.1958618164063 -0
v 91.27986145019531 -652.9091186523438 23.52941131591797
v 90.60750579833984 -655.0007934570313 23.52941131591797
v 90.60750579833984 -655.0007934570313 -0
v 165.15322875976563 -645.969482421875 -0
v 165.15322875976563 -645.969482421875 23.52941131591797
v 181.15940856933594 -711.026611328125 -0
v 88.96414184570313 -656.1958618164063 -0
v 88.96414184570313 -656.1958618164063 23.52941131591797
v 67.00235748291016 -661.57421875 -0
v 63.043216705322266 -659.0345458984375 23.52941131591797
v 58.71071243286133 -641.7041015625 23.52941131591797
v 58.71071243286133 -641.7041015625 -0
v 63.043216705322266 -659.0345458984375 -0
v 90.60750579833984 -655.0007934570313 -0
v 90.60750579833984 -655.0007934570313 23.52941131591797
v 88.96414184570313 -656.1958618164063 -0
v 88.96414184570313 -656.1958618164063 -0
v 95.96552276611328 -663.6536254882813 -0
v 95.96552276611328 -663.6536254882813 23.52941131591797
v 165.15322875976563 -645.969482421875 -0
v 91.27986145019531 -652.9091186523438 -0
v 91.27986145019531 -652.9091186523438 23.52941131591797
v 90.60750579833984 -655.0007934570313 -0
v 86.4991226196289 -633.4871215820313 23.52941131591797
v 91.27986145019531 -652.9091186523438 23.52941131591797
v 91.27986145019531 -652.9091186523438 -0
v 95.96552276611328 -663.6536254882813 23.52941131591797
v 165.15322875976563 -645.969482421875 23.52941131591797
v 165.15322875976563 -645.969482421875 -0
v 90.60750579833984 -655.0007934570313 -0
v 58.71071243286133 -641.7041015625 23.52941131591797
v 58.71071243286133 -639.612548828125 23.52941131591797
v 58.71071243286133 -639.612548828125 -0
v 91.27986145019531 -652.9091186523438 -0
v 58.71071243286133 -639.612548828125 23.52941131591797
v 59.308250427246094 -637.9691162109375 23.52941131591797
v 59.308250427246094 -637.9691162109375 -0
v 393.81201171875 -649.1380615234375 0.000001725470269775542
v 165.15322875976563 -645.969482421875 -0
v 181.15940856933594 -711.026611328125 -0
v 59.308250427246094 -637.9691162109375 23.52941131591797
v 60.57814025878906 -636.92333984375 23.52941131591797
v 60.57814025878906 -636.92333984375 -0
v 58.71071243286133 -641.7041015625 -0
v 91.27986145019531 -652.9091186523438 -0
v 95.96552276611328 -663.6536254882813 -0
v 165.15322875976563 -645.969482421875 -0
v 58.71071243286133 -639.612548828125 -0
v 60.57814025878906 -636.92333984375 23.52941131591797
v 81.34468841552734 -631.5448608398438 23.52941131591797
v 81.34468841552734 -631.5448608398438 -0
v 59.308250427246094 -637.9691162109375 -0
v 59.308250427246094 -637.9691162109375 23.52941131591797
v 60.57814025878906 -636.92333984375 -0
v 86.4991226196289 -633.4871215820313 -0
v 86.4991226196289 -633.4871215820313 23.52941131591797
v 91.27986145019531 -652.9091186523438 -0
v 85.52794647216797 -632.1425170898438 23.52941131591797
v 86.4991226196289 -633.4871215820313 23.52941131591797
v 86.4991226196289 -633.4871215820313 -0
v 83.73511505126953 -631.32080078125 23.52941131591797
v 85.52794647216797 -632.1425170898438 23.52941131591797
v 85.52794647216797 -632.1425170898438 -0
v 81.34468841552734 -631.5448608398438 23.52941131591797
v 83.73511505126953 -631.32080078125 23.52941131591797
v 83.73511505126953 -631.32080078125 -0
v 60.57814025878906 -636.92333984375 -0
v 60.57814025878906 -636.92333984375 23.52941131591797
v 81.34468841552734 -631.5448608398438 -0
v 86.4991226196289 -633.4871215820313 -0
v 85.52794647216797 -632.1425170898438 -0
v 85.52794647216797 -632.1425170898438 23.52941131591797
v 86.4991226196289 -633.4871215820313 -0
v 81.34468841552734 -631.5448608398438 -0
v 83.73511505126953 -631.32080078125 -0
v 83.73511505126953 -631.32080078125 23.52941131591797
v 85.52794647216797 -632.1425170898438 -0
v 85.52794647216797 -632.1425170898438 -0
v 86.4991226196289 -633.4871215820313 -0
v 165.15322875976563 -645.969482421875 -0
v 58.71071243286133 -641.7041015625 -0
v 58.71071243286133 -639.612548828125 -0
v 10.125280380249023 -603.9579467773438 -0
v 58.71071243286133 -639.612548828125 -0
v 59.308250427246094 -637.9691162109375 -0
v 60.57814025878906 -636.92333984375 -0
v 394.0605773925781 -647.9559326171875 0.000001725470269775542
v 165.15322875976563 -645.969482421875 -0
v 393.81201171875 -649.1380615234375 0.000001725470269775542
v 81.34468841552734 -631.5448608398438 -0
v 83.73511505126953 -631.32080078125 -0
v -159.4340057373047 -481.76055908203125 -0
v 130.677734375 -544.69677734375 -0
v 251.2301788330078 -485.4356994628906 -0
v 394.0605773925781 -647.9559326171875 0.000001725470269775542
v 252.933349609375 -485.34613037109375 -0
v 165.15322875976563 -645.969482421875 -0
v 129.8709259033203 -544.3831176757813 -0
v 129.4656524658203 -543.7645874023438 -0
v 126.67745971679688 -534.3932495117188 -0
v 126.75492095947266 -533.3090209960938 -0
v -158.27227783203125 -480.08258056640625 -0
v -157.88511657714844 -478.6626892089844 -0
v -158.0142059326172 -434.0003967285156 -0
v 42.68515396118164 -448.3301696777344 -0
v 252.933349609375 -485.34613037109375 -0
v 249.6165771484375 -484.80828857421875 -0
v 248.80601501464844 -483.57122802734375 -0
v 126.67745971679688 -534.3932495117188 -0
v 129.4656524658203 -543.7645874023438 -0
v 248.80601501464844 -483.57122802734375 -0
v 243.22962951660156 -464.82861328125 -0
v 252.933349609375 -485.34613037109375 23.52941131591797
v 251.2301788330078 -485.4356994628906 23.52941131591797
v 251.2301788330078 -485.4356994628906 -0
v 252.933349609375 -485.34613037109375 -0
v 251.2301788330078 -485.4356994628906 -0
v 251.2301788330078 -485.4356994628906 23.52941131591797
v 249.6165771484375 -484.80828857421875 -0
v 243.3845672607422 -462.6600341796875 -0
v -54.83298873901367 -295.2872009277344 -0
v 145.86639404296875 -309.61700439453125 -0
vt 0.8574031591415405 0.0525282621383667
vt 0.8542492389678955 0.06910157203674316
vt 0.8505724668502808 0.06894898414611816
vt 0.8505724668502808 0.06894898414611816
vt 0.8542492389678955 0.06910157203674316
vt 0.8626103401184082 0.07253295183181763
vt 0.8517354726791382 0.10292357206344604
vt 0.8505724668502808 0.06894898414611816
vt 0.8630589842796326 0.0799262523651123
vt 0.8550366163253784 0.10294127464294434
vt 0.8632281422615051 0.08023053407669067
vt 0.855518102645874 0.10307282209396362
vt 0.8542492389678955 0.06910157203674316
vt 0.8662514686584473 0.07266634702682495
vt 0.8626103401184082 0.07253295183181763
vt 0.863002598285675 0.07951247692108154
vt 0.873964250087738 0.09321075677871704
vt 0.8557189106941223 0.10952532291412354
vt 0.8558593988418579 0.10898476839065552
vt 0.8626103401184082 0.07253295183181763
vt 0.8558593988418579 0.10390061140060425
vt 0.8557991981506348 0.10348731279373169
vt 0.855518102645874 0.10307282209396362
vt 0.8632281422615051 0.08023053407669067
vt 0.8634820580482483 0.08046191930770874
vt 0.8666425347328186 0.07960593700408936
vt 0.8666988015174866 0.0800173282623291
vt 0.8630589842796326 0.0799262523651123
vt 0.8666988015174866 0.0800173282623291
vt 0.8668674230575562 0.08031994104385376
vt 0.8632281422615051 0.08023053407669067
vt 0.8668674230575562 0.08031994104385376
vt 0.8671205043792725 0.08055001497268677
vt 0.8634820580482483 0.08046191930770874
vt 0.8634820580482483 0.08046191930770874
vt 0.8667626976966858 0.08147221803665161
vt 0.8676551580429077 0.07432246208190918
vt 0.8666425347328186 0.07960593700408936
vt 0.863002598285675 0.07951247692108154
vt 0.863002598285675 0.07951247692108154
vt 0.8666425347328186 0.07960593700408936
vt 0.8630589842796326 0.0799262523651123
vt 0.8630589842796326 0.0799262523651123
vt 0.8632281422615051 0.08023053407669067
vt 0.8678804039955139 0.07392436265945435
vt 0.8676551580429077 0.07432246208190918
vt 0.8640183210372925 0.07419848442077637
vt 0.8682747483253479 0.07375645637512207
vt 0.8678804039955139 0.07392436265945435
vt 0.8642442226409912 0.07379806041717529
vt 0.865953803062439 0.05574852228164673
vt 0.8695847988128662 0.05597865581512451
vt 0.853735625743866 0.0522804856300354
vt 0.8640183210372925 0.07419848442077637
vt 0.8676551580429077 0.07432246208190918
vt 0.863002598285675 0.07951247692108154
vt 0.8671205043792725 0.08055001497268677
vt 0.8703912496566772 0.08155465126037598
vt 0.8667626976966858 0.08147221803665161
vt 0.8634820580482483 0.08046191930770874
vt 0.8642442226409912 0.07379806041717529
vt 0.8678804039955139 0.07392436265945435
vt 0.8640183210372925 0.07419848442077637
vt 0.8640183210372925 0.07419848442077637
vt 0.8626103401184082 0.07253295183181763
vt 0.8662514686584473 0.07266634702682495
vt 0.865953803062439 0.05574852228164673
vt 0.8646396994590759 0.07362914085388184
vt 0.8682747483253479 0.07375645637512207
vt 0.8642442226409912 0.07379806041717529
vt 0.8719476461410522 0.07484710216522217
vt 0.8682747483253479 0.07375645637512207
vt 0.8646396994590759 0.07362914085388184
vt 0.8662514686584473 0.07266634702682495
vt 0.8695847988128662 0.05597865581512451
vt 0.865953803062439 0.05574852228164673
vt 0.8642442226409912 0.07379806041717529
vt 0.8703912496566772 0.08155465126037598
vt 0.8707870244979858 0.0815504789352417
vt 0.8671597242355347 0.08146792650222778
vt 0.8646396994590759 0.07362914085388184
vt 0.8707870244979858 0.0815504789352417
vt 0.8710982799530029 0.08140337467193604
vt 0.8674718737602234 0.08131998777389526
vt 0.8653534650802612 0.0005132555961608887
vt 0.865953803062439 0.05574852228164673
vt 0.853735625743866 0.0522804856300354
vt 0.8710982799530029 0.08140337467193604
vt 0.8712963461875916 0.0810956358909607
vt 0.8676705360412598 0.08101046085357666
vt 0.8667626976966858 0.08147221803665161
vt 0.8646396994590759 0.07362914085388184
vt 0.8626103401184082 0.07253295183181763
vt 0.865953803062439 0.05574852228164673
vt 0.8671597242355347 0.08146792650222778
vt 0.8712963461875916 0.0810956358909607
vt 0.8723160028457642 0.07608282566070557
vt 0.8686934113502502 0.07596856355667114
vt 0.8674718737602234 0.08131998777389526
vt 0.8710982799530029 0.08140337467193604
vt 0.8676705360412598 0.08101046085357666
vt 0.8683238625526428 0.07472574710845947
vt 0.8719476461410522 0.07484710216522217
vt 0.8646396994590759 0.07362914085388184
vt 0.8722026348114014 0.07507699728012085
vt 0.8719476461410522 0.07484710216522217
vt 0.8683238625526428 0.07472574710845947
vt 0.8723585605621338 0.07550644874572754
vt 0.8722026348114014 0.07507699728012085
vt 0.868579626083374 0.07495695352554321
vt 0.8723160028457642 0.07608282566070557
vt 0.8723585605621338 0.07550644874572754
vt 0.8687360286712646 0.0753888487815857
vt 0.8676705360412598 0.08101046085357666
vt 0.8712963461875916 0.0810956358909607
vt 0.8686934113502502 0.07596856355667114
vt 0.8683238625526428 0.07472574710845947
vt 0.868579626083374 0.07495695352554321
vt 0.8722026348114014 0.07507699728012085
vt 0.8683238625526428 0.07472574710845947
vt 0.8686934113502502 0.07596856355667114
vt 0.8687360286712646 0.0753888487815857
vt 0.8723585605621338 0.07550644874572754
vt 0.868579626083374 0.07495695352554321
vt 0.868579626083374 0.07495695352554321
vt 0.8683238625526428 0.07472574710845947
vt 0.865953803062439 0.05574852228164673
vt 0.8667626976966858 0.08147221803665161
vt 0.8671597242355347 0.08146792650222778
vt 0.873964250087738 0.09321075677871704
vt 0.8671597242355347 0.08146792650222778
vt 0.8674718737602234 0.08131998777389526
vt 0.8676705360412598 0.08101046085357666
vt 0.8655773997306824 0.00043720006942749023
vt 0.865953803062439 0.05574852228164673
vt 0.8653534650802612 0.0005132555961608887
vt 0.8686934113502502 0.07596856355667114
vt 0.8687360286712646 0.0753888487815857
vt 0.8978190422058105 0.13513177633285522
vt 0.885428249835968 0.06362074613571167
vt 0.8970893025398254 0.03352212905883789
vt 0.8655773997306824 0.00043720006942749023
vt 0.8971070647239685 0.0330999493598938
vt 0.865953803062439 0.05574852228164673
vt 0.8854894042015076 0.06381720304489136
vt 0.8856101632118225 0.06391376256942749
vt 0.8874413967132568 0.0645555853843689
vt 0.8876535892486572 0.06453162431716919
vt 0.8981525301933289 0.1348537802696228
vt 0.8984348177909851 0.13476592302322388
vt 0.9073741436004639 0.13505220413208008
vt 0.9044932723045349 0.08505332469940186
vt 0.8971070647239685 0.0330999493598938
vt 0.8972138166427612 0.03391563892364502
vt 0.8974593877792358 0.034105122089385986
vt 0.8874413967132568 0.0645555853843689
vt 0.8856101632118225 0.06391376256942749
vt 0.8974593877792358 0.034105122089385986
vt 0.9011913537979126 0.0353204607963562
vt 0.9006391167640686 0.03346848487854004
vt 0.9006214141845703 0.033888161182403564
vt 0.8970893025398254 0.03352212905883789
vt 0.8971070647239685 0.0330999493598938
vt 0.8970893025398254 0.03352212905883789
vt 0.9006214141845703 0.033888161182403564
vt 0.8972138166427612 0.03391563892364502
vt 0.9016244411468506 0.035262882709503174
vt 0.935897171497345 0.10961520671844482
vt 0.932896077632904 0.05863851308822632
vn -0.2387034147977829 0.9710925221443176 -0
vn -0.2387034147977829 0.9710925221443176 -0
vn -0.2387034147977829 0.9710925221443176 -0
vn 0.9709382653236389 0.23933029174804688 -0
vn 0.9709382653236389 0.23933029174804688 -0
vn 0.9709382653236389 0.23933029174804688 -0
vn 0 -0 -1
vn 0 -0 -1
vn 0 -0 -1
vn 0 -0 -1
vn 0 -0 -1
vn 0 -0 -1
vn 0.9709381461143494 0.23933051526546478 -0
vn 0.9709381461143494 0.23933051526546478 -0
vn 0.9709381461143494 0.23933051526546478 -0
vn 0 -0 -1
vn 0 -0 -1
vn 0 -0 -1
vn 0 -0 -1
vn 0 -0 -1
vn 0 -0 -1
vn 0 -0 -1
vn 0 -0 -0.9999999403953552
vn 0 -0 -0.9999999403953552
vn 0 -0 -0.9999999403953552
vn 0.1712905615568161 0.9852206110954285 -0
vn 0.1712905615568161 0.9852206110954285 -0
vn 0.1712905615568161 0.9852206110954285 -0
vn 0.576686441898346 0.8169654607772827 -0
vn 0.576686441898346 0.8169654607772827 -0
vn 0.576686441898346 0.8169654607772827 -0
vn 0.8106557130813599 0.5855231285095215 -0
vn 0.8106557130813599 0.5855231285095215 -0
vn 0.8106557130813599 0.5855231285095215 -0
vn 0 -0 -1
vn 0 -0 -1
vn -0.23786839842796326 0.9712973833084106 -0
vn -0.23786839842796326 0.9712973833084106 -0
vn -0.23786839842796326 0.9712973833084106 -0
vn 0.17128972709178925 0.985220730304718 -0
vn 0.17128972709178925 0.985220730304718 -0
vn 0.17128972709178925 0.985220730304718 -0
vn 0.576686441898346 0.8169654607772827 -0
vn 0.8106557130813599 0.5855231285095215 -0
vn -0.5881412029266357 0.8087582588195801 -0
vn -0.5881412029266357 0.8087582588195801 -0
vn -0.5881412029266357 0.8087582588195801 -0
vn -0.9520235657691956 0.30602478981018066 -0
vn -0.9520235657691956 0.30602478981018066 -0
vn -0.9520235657691956 0.30602478981018066 -0
vn -0.9710421562194824 -0.23890814185142517 -0
vn -0.9710421562194824 -0.23890814185142517 -0
vn -0.9710421562194824 -0.23890814185142517 -0
vn -0.2378683090209961 0.9712973833084106 -0
vn -0.2378683090209961 0.9712973833084106 -0
vn -0.2378683090209961 0.9712973833084106 -0
vn 0.9701440334320068 0.24252967536449432 -0
vn 0.9701440334320068 0.24252967536449432 -0
vn 0.9701440334320068 0.24252967536449432 -0
vn 0.9701440334320068 0.24252967536449432 -0
vn -0.5881372094154358 0.8087611198425293 -0
vn -0.5881372094154358 0.8087611198425293 -0
vn -0.5881372094154358 0.8087611198425293 -0
vn 0 -0 -1
vn 0.24763581156730652 -0.9688531160354614 -0
vn 0.24763581156730652 -0.9688531160354614 -0
vn 0.24763581156730652 -0.9688531160354614 -0
vn -0.9520257711410522 0.30601778626441956 -0
vn -0.9520257711410522 0.30601778626441956 -0
vn -0.9520257711410522 0.30601778626441956 -0
vn -0.9710157513618469 -0.23901544511318207 -0
vn -0.9710157513618469 -0.23901544511318207 -0
vn -0.9710157513618469 -0.23901544511318207 -0
vn 0.2476358711719513 -0.9688531160354614 -0
vn 0.2476358711719513 -0.9688531160354614 -0
vn 0.2476358711719513 -0.9688531160354614 -0
vn 0 -0 -1
vn 1 -0 -0
vn 1 -0 -0
vn 1 -0 -0
vn 0 -0 -1
vn 0.9398062825202942 -0.34170767664909363 -0
vn 0.9398062825202942 -0.34170767664909363 -0
vn 0.9398062825202942 -0.34170767664909363 -0
vn 0.000000007571858695598621 0.0000000018629247033885576 -1
vn 0.000000007571858695598621 0.0000000018629247033885576 -1
vn 0.000000007571858695598621 0.0000000018629247033885576 -1
vn 0.635699450969696 -0.7719367146492004 -0
vn 0.635699450969696 -0.7719367146492004 -0
vn 0.635699450969696 -0.7719367146492004 -0
vn 1 -0 -0
vn 0 -0 -0.9999999403953552
vn 0 -0 -0.9999999403953552
vn 0 -0 -0.9999999403953552
vn 0.9398062825202942 -0.34170767664909363 -0
vn 0.25072523951530457 -0.9680582880973816 -0
vn 0.25072523951530457 -0.9680582880973816 -0
vn 0.25072523951530457 -0.9680582880973816 -0
vn 0.6357019543647766 -0.7719346284866333 -0
vn 0.6357019543647766 -0.7719346284866333 -0
vn 0.6357019543647766 -0.7719346284866333 -0
vn -0.9710155725479126 -0.23901623487472534 -0
vn -0.9710155725479126 -0.23901623487472534 -0
vn -0.9710155725479126 -0.23901623487472534 -0
vn -0.8106531500816345 -0.5855264663696289 -0
vn -0.8106531500816345 -0.5855264663696289 -0
vn -0.8106531500816345 -0.5855264663696289 -0
vn -0.4166543185710907 -0.9090650677680969 -0
vn -0.4166543185710907 -0.9090650677680969 -0
vn -0.4166543185710907 -0.9090650677680969 -0
vn 0.0933244451880455 -0.9956356883049011 -0
vn 0.0933244451880455 -0.9956356883049011 -0
vn 0.0933244451880455 -0.9956356883049011 -0
vn 0.2507253587245941 -0.9680582880973816 -0
vn 0.2507253587245941 -0.9680582880973816 -0
vn 0.2507253587245941 -0.9680582880973816 -0
vn 0 -0 -0.9999999403953552
vn -0.8106581568717957 -0.5855197906494141 -0
vn -0.8106581568717957 -0.5855197906494141 -0
vn -0.8106581568717957 -0.5855197906494141 -0
vn 0.0933244451880455 -0.9956356883049011 -0
vn -0.41665101051330566 -0.9090664982795715 -0
vn -0.41665101051330566 -0.9090664982795715 -0
vn -0.41665101051330566 -0.9090664982795715 -0
vn 0 -0 -1
vn 0 -0 -1
vn 0 -0 -1
vn 0 -0 -0.9999999403953552
vn 0 -0 -0.9999999403953552
vn 0 -0 -0.9999999403953552
vn 0 -0 -1
vn 0 -0 -1
vn 0 -0 -1
vn 0.000000007523322409497268 -0.0000000015820448284742383 -1
vn 0.000000007523322409497268 -0.0000000015820448284742383 -1
vn 0.000000007523322409497268 -0.0000000015820448284742383 -1
vn 0 -0 -1
vn 0 -0 -1
vn 0 -0 -1
vn 0 -0 -1
vn 0 -0 -1
vn 0.000000007502280574556153 -0.000000004099971029347671 -1
vn 0.000000007502280574556153 -0.000000004099971029347671 -1
vn 0.000000007502280574556153 -0.000000004099971029347671 -1
vn 0 -0 -1
vn 0 -0 -1
vn 0 -0 -1
vn 0 -0 -1
vn 0 -0 -1
vn 0 -0 -1
vn 0 -0 -1
vn 0 -0 -1
vn 0 -0 -1
vn 0 -0 -1
vn 0 -0 -1
vn 0 -0 -0.9999999403953552
vn 0 -0 -0.9999999403953552
vn 0 -0 -0.9999999403953552
vn 0 -0 -1
vn -0.05251152440905571 0.9986203908920288 -0
vn -0.05251152440905571 0.9986203908920288 -0
vn -0.05251152440905571 0.9986203908920288 -0
vn -0.05251152440905571 0.9986203908920288 -0
vn 0.3623908758163452 0.9320262670516968 -0
vn 0.3623908758163452 0.9320262670516968 -0
vn 0.3623908758163452 0.9320262670516968 -0
vn 0 -0 -1
vn 0 -0 -1
vn 0 -0 -1
f 3/3/3 2/2/2 1/1/1
f 6/6/6 5/5/5 4/4/4
f 9/9/9 8/8/8 7/7/7
f 7/7/7 10/10/10 9/9/9
f 10/10/10 12/12/12 11/11/11
f 15/15/15 14/14/14 13/13/13
f 16/16/16 8/8/8 9/9/9
f 19/19/19 18/18/18 17/17/17
f 20/20/20 8/8/8 16/16/16
f 21/21/21 19/19/19 17/17/17
f 12/12/12 22/22/22 17/17/17
f 9/9/9 10/10/10 11/11/11
f 22/22/22 21/21/21 17/17/17
f 25/25/25 24/24/24 23/23/23
f 28/28/28 27/27/27 26/26/26
f 31/31/31 30/30/30 29/29/29
f 34/34/34 33/33/33 32/32/32
f 36/36/36 35/35/35 12/12/12
f 39/39/39 38/38/38 37/37/37
f 42/42/42 41/41/41 40/40/40
f 31/31/31 29/29/29 43/43/43
f 34/34/34 32/32/32 44/44/44
f 47/47/47 46/46/46 45/45/45
f 50/50/50 49/49/49 48/48/48
f 53/53/53 52/52/52 51/51/51
f 56/56/56 55/55/55 54/54/54
f 59/59/59 58/58/58 57/57/57
f 59/59/59 57/57/57 60/60/60
f 63/63/63 62/62/62 61/61/61
f 20/20/20 16/16/16 64/64/64
f 67/67/67 66/66/66 65/65/65
f 70/70/70 69/69/69 68/68/68
f 73/73/73 72/72/72 71/71/71
f 76/76/76 75/75/75 74/74/74
f 17/17/17 36/36/36 12/12/12
f 20/20/20 64/64/64 77/77/77
f 80/80/80 79/79/79 78/78/78
f 20/20/20 77/77/77 81/81/81
f 84/84/84 83/83/83 82/82/82
f 87/87/87 86/86/86 85/85/85
f 90/90/90 89/89/89 88/88/88
f 80/80/80 78/78/78 91/91/91
f 94/94/94 93/93/93 92/92/92
f 84/84/84 82/82/82 95/95/95
f 98/98/98 97/97/97 96/96/96
f 101/101/101 100/100/100 99/99/99
f 104/104/104 103/103/103 102/102/102
f 107/107/107 106/106/106 105/105/105
f 110/110/110 109/109/109 108/108/108
f 113/113/113 112/112/112 111/111/111
f 116/116/116 115/115/115 114/114/114
f 94/94/94 92/92/92 117/117/117
f 120/120/120 119/119/119 118/118/118
f 113/113/113 111/111/111 121/121/121
f 124/124/124 123/123/123 122/122/122
f 127/127/127 126/126/126 125/125/125
f 130/130/130 129/129/129 128/128/128
f 17/17/17 132/132/132 131/131/131
f 17/17/17 133/133/133 132/132/132
f 136/136/136 135/135/135 134/134/134
f 17/17/17 137/137/137 133/133/133
f 138/138/138 137/137/137 17/17/17
f 17/17/17 18/18/18 139/139/139
f 138/138/138 17/17/17 140/140/140
f 127/127/127 125/125/125 141/141/141
f 125/125/125 138/138/138 141/141/141
f 144/144/144 143/143/143 142/142/142
f 140/140/140 17/17/17 145/145/145
f 145/145/145 17/17/17 146/146/146
f 147/147/147 146/146/146 17/17/17
f 147/147/147 17/17/17 148/148/148
f 149/149/149 17/17/17 139/139/139
f 150/150/150 17/17/17 149/149/149
f 138/138/138 140/140/140 141/141/141
f 151/151/151 17/17/17 150/150/150
f 17/17/17 152/152/152 148/148/148
f 127/127/127 141/141/141 153/153/153
f 145/145/145 154/154/154 140/140/140
f 146/146/146 155/155/155 145/145/145
f 17/17/17 151/151/151 152/152/152
f 158/158/158 157/157/157 156/156/156
f 159/159/159 147/147/147 148/148/148
f 154/154/154 141/141/141 140/140/140
f 155/155/155 154/154/154 145/145/145
f 162/162/162 161/161/161 160/160/160
f 155/155/155 147/147/147 159/159/159
f 162/162/162 160/160/160 163/163/163
f 166/166/166 165/165/165 164/164/164
f 167/167/167 148/148/148 152/152/152
f 148/148/148 167/167/167 159/159/159
f 151/151/151 168/168/168 152/152/152
f 152/152/152 169/169/169 167/167/167
f 152/152/152 168/168/168 169/169/169
