# VPXTOOL table OBJ file
# VPXTOOL OBJ file
# numVerts: 15 numFaces: 15
o LM_F_FL7a_DiverterPin
v 686.0126953125 37.17202377319336 -25
v 710.8907470703125 39.67435073852539 -25
v 695.3727416992188 57.69389724731445 -25
v 695.3727416992188 57.69389724731445 -25
v 695.3727416992188 57.69389724731445 25
v 686.0126953125 37.17202377319336 -25
v 710.8907470703125 39.67435073852539 -25
v 710.8907470703125 39.67435073852539 25
v 695.3727416992188 57.69389724731445 -25
v 710.8907470703125 39.67435073852539 25
v 695.3727416992188 57.69389724731445 25
v 695.3727416992188 57.69389724731445 -25
v 695.3727416992188 57.69389724731445 25
v 686.0126953125 37.17202377319336 25
v 686.0126953125 37.17202377319336 -25
vt 0.7939330339431763 0.20745348930358887
vt 0.8004410266876221 0.20788341760635376
vt 0.79653400182724 0.21098804473876953
vt 0.79653400182724 0.21098804473876953
vt 0.7958637475967407 0.21922171115875244
vt 0.7939330339431763 0.20745348930358887
vt 0.8004410266876221 0.20788341760635376
vt 0.7997268438339233 0.21613329648971558
vt 0.79653400182724 0.21098804473876953
vt 0.7997268438339233 0.21613329648971558
vt 0.7958637475967407 0.21922171115875244
vt 0.79653400182724 0.21098804473876953
vt 0.7958637475967407 0.21922171115875244
vt 0.7932949662208557 0.21570557355880737
vt 0.7939330339431763 0.20745348930358887
vn -0.00000012817588412872283 -0 -1
vn -0.00000012817588412872283 -0 -1
vn -0.00000012817588412872283 -0 -1
vn -0.909834086894989 0.4149724245071411 -0
vn -0.909834086894989 0.4149724245071411 -0
vn -0.909834086894989 0.4149724245071411 -0
vn 0.7577416300773621 0.6525547504425049 -0
vn 0.7577416300773621 0.6525547504425049 -0
vn 0.7577416300773621 0.6525547504425049 -0
vn 0.7577442526817322 0.6525516510009766 -0
vn 0.7577442526817322 0.6525516510009766 -0
vn 0.7577442526817322 0.6525516510009766 -0
vn -0.9098318815231323 0.4149770736694336 -0
vn -0.9098318815231323 0.4149770736694336 -0
vn -0.9098318815231323 0.4149770736694336 -0
f 3/3/3 2/2/2 1/1/1
f 6/6/6 5/5/5 4/4/4
f 9/9/9 8/8/8 7/7/7
f 12/12/12 11/11/11 10/10/10
f 15/15/15 14/14/14 13/13/13
