# VPXTOOL table OBJ file
# VPXTOOL OBJ file
# numVerts: 128 numFaces: 138
o LM_L_LW7_UnderPF
v -2.8842685222625732 116.7408447265625 -12.153261184692383
v -13.502232551574707 118.85282135009766 -12.153261184692383
v -2.8842685222625732 116.7408447265625 -5.324187755584717
v -13.502232551574707 118.85282135009766 -12.153261184692383
v -24.120223999023438 116.7408447265625 -12.153261184692383
v -13.502232551574707 118.85282135009766 -5.324187755584717
v -13.502232551574707 118.85282135009766 -12.153261184692383
v -13.502232551574707 118.85282135009766 -5.324187755584717
v -2.8842685222625732 116.7408447265625 -5.324187755584717
v 6.117219924926758 110.72615814208984 -12.153261184692383
v -2.8842685222625732 116.7408447265625 -12.153261184692383
v 6.117219924926758 110.72615814208984 -5.324187755584717
v -2.8842685222625732 116.7408447265625 -12.153261184692383
v -2.8842685222625732 116.7408447265625 -5.324187755584717
v 6.117219924926758 110.72615814208984 -5.324187755584717
v -24.120223999023438 116.7408447265625 -12.153261184692383
v -24.120223999023438 116.7408447265625 -5.324187755584717
v -13.502232551574707 118.85282135009766 -5.324187755584717
v 6.117219924926758 110.72615814208984 -5.324187755584717
v -2.8842685222625732 116.7408447265625 -5.324187755584717
v -13.502232551574707 118.85282135009766 -5.324187755584717
v -24.120223999023438 116.7408447265625 -12.153261184692383
v -33.12168502807617 110.72615814208984 -12.153261184692383
v -24.120223999023438 116.7408447265625 -5.324187755584717
v 6.117219924926758 110.72615814208984 -12.153261184692383
v 6.117219924926758 110.72615814208984 -5.324187755584717
v 12.131794929504395 101.72467041015625 -5.324187755584717
v 12.131794929504395 101.72467041015625 -12.153261184692383
v 6.117219924926758 110.72615814208984 -12.153261184692383
v 12.131794929504395 101.72467041015625 -5.324187755584717
v -13.502232551574707 118.85282135009766 -5.324187755584717
v -24.120223999023438 116.7408447265625 -5.324187755584717
v -33.12168502807617 110.72615814208984 -5.324187755584717
v -33.12168502807617 110.72615814208984 -12.153261184692383
v -33.12168502807617 110.72615814208984 -5.324187755584717
v -24.120223999023438 116.7408447265625 -5.324187755584717
v -33.12168502807617 110.72615814208984 -12.153261184692383
v -39.136287689208984 101.72467041015625 -12.153261184692383
v -33.12168502807617 110.72615814208984 -5.324187755584717
v 14.243853569030762 91.10670471191406 -5.324187755584717
v 12.131794929504395 101.72467041015625 -5.324187755584717
v 6.117219924926758 110.72615814208984 -5.324187755584717
v 12.131794929504395 101.72467041015625 -12.153261184692383
v 12.131794929504395 101.72467041015625 -5.324187755584717
v 14.243853569030762 91.10670471191406 -5.324187755584717
v 14.243853569030762 91.10670471191406 -12.153261184692383
v 12.131794929504395 101.72467041015625 -12.153261184692383
v 14.243853569030762 91.10670471191406 -5.324187755584717
v -39.136287689208984 101.72467041015625 -12.153261184692383
v -39.136287689208984 101.72467041015625 -5.324187755584717
v -33.12168502807617 110.72615814208984 -5.324187755584717
v -13.502232551574707 63.36070251464844 -5.324187755584717
v 6.117219924926758 110.72615814208984 -5.324187755584717
v -13.502232551574707 118.85282135009766 -5.324187755584717
v -39.136287689208984 101.72467041015625 -12.153261184692383
v -41.248348236083984 91.10670471191406 -12.153261184692383
v -39.136287689208984 101.72467041015625 -5.324187755584717
v -33.12168502807617 110.72615814208984 -5.324187755584717
v -39.136287689208984 101.72467041015625 -5.324187755584717
v -41.248348236083984 91.10670471191406 -5.324187755584717
v -33.12168502807617 110.72615814208984 -5.324187755584717
v 14.243853569030762 91.10670471191406 -12.153261184692383
v 14.243853569030762 91.10670471191406 -5.324187755584717
v 12.131794929504395 80.4887466430664 -5.324187755584717
v 12.131794929504395 80.4887466430664 -12.153261184692383
v 14.243853569030762 91.10670471191406 -12.153261184692383
v 12.131794929504395 80.4887466430664 -5.324187755584717
v -41.248348236083984 91.10670471191406 -12.153261184692383
v -41.248348236083984 91.10670471191406 -5.324187755584717
v -39.136287689208984 101.72467041015625 -5.324187755584717
v -13.502232551574707 63.36070251464844 -5.324187755584717
v 14.243853569030762 91.10670471191406 -5.324187755584717
v -41.248348236083984 91.10670471191406 -12.153261184692383
v -39.136287689208984 80.4887466430664 -12.153261184692383
v -41.248348236083984 91.10670471191406 -5.324187755584717
v -33.12168502807617 110.72615814208984 -5.324187755584717
v -41.248348236083984 91.10670471191406 -5.324187755584717
v 12.131794929504395 80.4887466430664 -12.153261184692383
v 12.131794929504395 80.4887466430664 -5.324187755584717
v 6.117219924926758 71.48725128173828 -5.324187755584717
v 6.117219924926758 71.48725128173828 -12.153261184692383
v 12.131794929504395 80.4887466430664 -12.153261184692383
v 6.117219924926758 71.48725128173828 -5.324187755584717
v 12.131794929504395 80.4887466430664 -5.324187755584717
v -39.136287689208984 80.4887466430664 -12.153261184692383
v -39.136287689208984 80.4887466430664 -5.324187755584717
v -41.248348236083984 91.10670471191406 -5.324187755584717
v -39.136287689208984 80.4887466430664 -12.153261184692383
v -33.12168502807617 71.48725128173828 -12.153261184692383
v -39.136287689208984 80.4887466430664 -5.324187755584717
v 6.117219924926758 71.48725128173828 -12.153261184692383
v 6.117219924926758 71.48725128173828 -5.324187755584717
v -2.8842685222625732 65.4726791381836 -5.324187755584717
v -39.136287689208984 80.4887466430664 -5.324187755584717
v -2.8842685222625732 65.4726791381836 -12.153261184692383
v -13.502232551574707 63.36070251464844 -5.324187755584717
v 6.117219924926758 71.48725128173828 -5.324187755584717
v 12.131794929504395 80.4887466430664 -5.324187755584717
v -33.12168502807617 71.48725128173828 -12.153261184692383
v -33.12168502807617 71.48725128173828 -5.324187755584717
v -39.136287689208984 80.4887466430664 -5.324187755584717
v -33.12168502807617 71.48725128173828 -12.153261184692383
v -24.120223999023438 65.4726791381836 -12.153261184692383
v -33.12168502807617 71.48725128173828 -5.324187755584717
v -13.502232551574707 63.36070251464844 -12.153261184692383
v -2.8842685222625732 65.4726791381836 -12.153261184692383
v -13.502232551574707 63.36070251464844 -5.324187755584717
v -13.502232551574707 63.36070251464844 -5.324187755584717
v -39.136287689208984 80.4887466430664 -5.324187755584717
v -33.12168502807617 71.48725128173828 -5.324187755584717
v -13.502232551574707 63.36070251464844 -5.324187755584717
v -2.8842685222625732 65.4726791381836 -5.324187755584717
v 6.117219924926758 71.48725128173828 -5.324187755584717
v -2.8842685222625732 65.4726791381836 -12.153261184692383
v -2.8842685222625732 65.4726791381836 -5.324187755584717
v -13.502232551574707 63.36070251464844 -5.324187755584717
v -24.120223999023438 65.4726791381836 -12.153261184692383
v -13.502232551574707 63.36070251464844 -12.153261184692383
v -24.120223999023438 65.4726791381836 -5.324187755584717
v -24.120223999023438 65.4726791381836 -12.153261184692383
v -24.120223999023438 65.4726791381836 -5.324187755584717
v -33.12168502807617 71.48725128173828 -5.324187755584717
v -13.502232551574707 63.36070251464844 -12.153261184692383
v -13.502232551574707 63.36070251464844 -5.324187755584717
v -24.120223999023438 65.4726791381836 -5.324187755584717
v -33.12168502807617 71.48725128173828 -5.324187755584717
v -24.120223999023438 65.4726791381836 -5.324187755584717
v -13.502232551574707 63.36070251464844 -5.324187755584717
vt 0.22907297313213348 0.6629466414451599
vt 0.23125389218330383 0.6657112240791321
vt 0.23308874666690826 0.662929892539978
vt 0.23125389218330383 0.6657112240791321
vt 0.22907297313213348 0.6684679985046387
vt 0.23526707291603088 0.6656893491744995
vt 0.23125389218330383 0.6657112240791321
vt 0.23526707291603088 0.6656893491744995
vt 0.23308874666690826 0.662929892539978
vt 0.22286994755268097 0.660599946975708
vt 0.22907297313213348 0.6629466414451599
vt 0.22689351439476013 0.6605875492095947
vt 0.22907297313213348 0.6629466414451599
vt 0.23308874666690826 0.662929892539978
vt 0.22689351439476013 0.6605875492095947
vt 0.22907297313213348 0.6684679985046387
vt 0.23308874666690826 0.6684410572052002
vt 0.23526707291603088 0.6656893491744995
vt 0.22689351439476013 0.6605875492095947
vt 0.23308874666690826 0.662929892539978
vt 0.23526707291603088 0.6656893491744995
vt 0.22907297313213348 0.6684679985046387
vt 0.22286994755268097 0.6707924604415894
vt 0.23308874666690826 0.6684410572052002
vt 0.22286994755268097 0.660599946975708
vt 0.22689351439476013 0.6605875492095947
vt 0.21764333546161652 0.6590209007263184
vt 0.21360822021961212 0.6590303778648376
vt 0.22286994755268097 0.660599946975708
vt 0.21764333546161652 0.6590209007263184
vt 0.23526707291603088 0.6656893491744995
vt 0.23308874666690826 0.6684410572052002
vt 0.22689351439476013 0.670761227607727
vt 0.22286994755268097 0.6707924604415894
vt 0.22689351439476013 0.670761227607727
vt 0.23308874666690826 0.6684410572052002
vt 0.22286994755268097 0.6707924604415894
vt 0.21360822021961212 0.672328770160675
vt 0.22689351439476013 0.670761227607727
vt 0.20676523447036743 0.6584664583206177
vt 0.21764333546161652 0.6590209007263184
vt 0.22689351439476013 0.6605875492095947
vt 0.21360822021961212 0.6590303778648376
vt 0.21764333546161652 0.6590209007263184
vt 0.20676523447036743 0.6584664583206177
vt 0.20271678268909454 0.6584749221801758
vt 0.21360822021961212 0.6590303778648376
vt 0.20676523447036743 0.6584664583206177
vt 0.21360822021961212 0.672328770160675
vt 0.21764333546161652 0.6722947359085083
vt 0.22689351439476013 0.670761227607727
vt 0.17850901186466217 0.6655877828598022
vt 0.22689351439476013 0.6605875492095947
vt 0.23526707291603088 0.6656893491744995
vt 0.21360822021961212 0.672328770160675
vt 0.20271678268909454 0.6728451251983643
vt 0.21764333546161652 0.6722947359085083
vt 0.22689351439476013 0.670761227607727
vt 0.21764333546161652 0.6722947359085083
vt 0.20676523447036743 0.6728101968765259
vt 0.22689351439476013 0.670761227607727
vt 0.20271678268909454 0.6584749221801758
vt 0.20676523447036743 0.6584664583206177
vt 0.19592320919036865 0.6590039730072021
vt 0.1918615996837616 0.6590133905410767
vt 0.20271678268909454 0.6584749221801758
vt 0.19592320919036865 0.6590039730072021
vt 0.20271678268909454 0.6728451251983643
vt 0.20676523447036743 0.6728101968765259
vt 0.21764333546161652 0.6722947359085083
vt 0.17850901186466217 0.6655877828598022
vt 0.20676523447036743 0.6584664583206177
vt 0.20271678268909454 0.6728451251983643
vt 0.1918615996837616 0.6722676753997803
vt 0.20676523447036743 0.6728101968765259
vt 0.22689351439476013 0.670761227607727
vt 0.20676523447036743 0.6728101968765259
vt 0.1918615996837616 0.6590133905410767
vt 0.19592320919036865 0.6590039730072021
vt 0.1867598295211792 0.6605467200279236
vt 0.18268699944019318 0.6605589389801025
vt 0.1918615996837616 0.6590133905410767
vt 0.1867598295211792 0.6605467200279236
vt 0.19592320919036865 0.6590039730072021
vt 0.1918615996837616 0.6722676753997803
vt 0.19592320919036865 0.6722338795661926
vt 0.20676523447036743 0.6728101968765259
vt 0.1918615996837616 0.6722676753997803
vt 0.18268699944019318 0.6706892251968384
vt 0.19592320919036865 0.6722338795661926
vt 0.18268699944019318 0.6605589389801025
vt 0.1867598295211792 0.6605467200279236
vt 0.18065139651298523 0.6628579497337341
vt 0.19592320919036865 0.6722338795661926
vt 0.1765711009502411 0.6628744602203369
vt 0.17850901186466217 0.6655877828598022
vt 0.1867598295211792 0.6605467200279236
vt 0.19592320919036865 0.6590039730072021
vt 0.18268699944019318 0.6706892251968384
vt 0.1867598295211792 0.6706582903862
vt 0.19592320919036865 0.6722338795661926
vt 0.18268699944019318 0.6706892251968384
vt 0.1765711009502411 0.6683517694473267
vt 0.1867598295211792 0.6706582903862
vt 0.1744260936975479 0.6656092405319214
vt 0.1765711009502411 0.6628744602203369
vt 0.17850901186466217 0.6655877828598022
vt 0.17850901186466217 0.6655877828598022
vt 0.19592320919036865 0.6722338795661926
vt 0.1867598295211792 0.6706582903862
vt 0.17850901186466217 0.6655877828598022
vt 0.18065139651298523 0.6628579497337341
vt 0.1867598295211792 0.6605467200279236
vt 0.1765711009502411 0.6628744602203369
vt 0.18065139651298523 0.6628579497337341
vt 0.17850901186466217 0.6655877828598022
vt 0.1765711009502411 0.6683517694473267
vt 0.1744260936975479 0.6656092405319214
vt 0.18065139651298523 0.6683251857757568
vt 0.1765711009502411 0.6683517694473267
vt 0.18065139651298523 0.6683251857757568
vt 0.1867598295211792 0.6706582903862
vt 0.1744260936975479 0.6656092405319214
vt 0.17850901186466217 0.6655877828598022
vt 0.18065139651298523 0.6683251857757568
vt 0.1867598295211792 0.6706582903862
vt 0.18065139651298523 0.6683251857757568
vt 0.17850901186466217 0.6655877828598022
vn -0.19508418440818787 -0.9807865023612976 -0
vn -0.19508418440818787 -0.9807865023612976 -0
vn -0.19508418440818787 -0.9807865023612976 -0
vn 0.19508370757102966 -0.9807866215705872 -0
vn 0.19508370757102966 -0.9807866215705872 -0
vn 0.19508370757102966 -0.9807866215705872 -0
vn -0.19508424401283264 -0.9807865023612976 -0
vn -0.19508424401283264 -0.9807865023612976 -0
vn -0.19508424401283264 -0.9807865023612976 -0
vn -0.5555756688117981 -0.8314660787582397 -0
vn -0.5555756688117981 -0.8314660787582397 -0
vn -0.5555756688117981 -0.8314660787582397 -0
vn -0.5555755496025085 -0.8314661383628845 -0
vn -0.5555755496025085 -0.8314661383628845 -0
vn -0.5555755496025085 -0.8314661383628845 -0
vn 0.19508376717567444 -0.9807866215705872 -0
vn 0.19508376717567444 -0.9807866215705872 -0
vn 0.19508376717567444 -0.9807866215705872 -0
vn 0 -0 -1
vn 0 -0 -1
vn 0 -0 -1
vn 0.555576741695404 -0.8314653038978577 -0
vn 0.555576741695404 -0.8314653038978577 -0
vn 0.555576741695404 -0.8314653038978577 -0
vn -0.8314708471298218 -0.555568516254425 -0
vn -0.8314708471298218 -0.555568516254425 -0
vn -0.8314708471298218 -0.555568516254425 -0
vn -0.8314708471298218 -0.5555684566497803 -0
vn -0.8314708471298218 -0.5555684566497803 -0
vn -0.8314708471298218 -0.5555684566497803 -0
vn -0.00000003480095145391715 -0 -1
vn -0.00000003480095145391715 -0 -1
vn -0.00000003480095145391715 -0 -1
vn 0.5555769205093384 -0.8314651846885681 -0
vn 0.5555769205093384 -0.8314651846885681 -0
vn 0.5555769205093384 -0.8314651846885681 -0
vn 0.8314695954322815 -0.5555703043937683 -0
vn 0.8314695954322815 -0.5555703043937683 -0
vn 0.8314695954322815 -0.5555703043937683 -0
vn 0.0000002784217087992147 -0 -1
vn 0.0000002784217087992147 -0 -1
vn 0.0000002784217087992147 -0 -1
vn -0.9807850122451782 -0.19509157538414001 -0
vn -0.9807850122451782 -0.19509157538414001 -0
vn -0.9807850122451782 -0.19509157538414001 -0
vn -0.980785071849823 -0.1950916200876236 -0
vn -0.980785071849823 -0.1950916200876236 -0
vn -0.980785071849823 -0.1950916200876236 -0
vn 0.8314695358276367 -0.5555704236030579 -0
vn 0.8314695358276367 -0.5555704236030579 -0
vn 0.8314695358276367 -0.5555704236030579 -0
vn 0 -0 -0.9999999403953552
vn 0 -0 -0.9999999403953552
vn 0 -0 -0.9999999403953552
vn 0.980785071849823 -0.19509145617485046 -0
vn 0.980785071849823 -0.19509145617485046 -0
vn 0.980785071849823 -0.19509145617485046 -0
vn -0.00000013921031438712816 -0 -1
vn -0.00000013921031438712816 -0 -1
vn -0.00000013921031438712816 -0 -1
vn 0 -0 -0.9999999403953552
vn -0.9807850122451782 0.19509157538414001 -0
vn -0.9807850122451782 0.19509157538414001 -0
vn -0.9807850122451782 0.19509157538414001 -0
vn -0.980785071849823 0.1950916200876236 -0
vn -0.980785071849823 0.1950916200876236 -0
vn -0.980785071849823 0.1950916200876236 -0
vn 0.980785071849823 -0.19509142637252808 -0
vn 0.980785071849823 -0.19509142637252808 -0
vn 0.980785071849823 -0.19509142637252808 -0
vn 0 -0 -1
vn 0 -0 -1
vn 0.980785071849823 0.19509145617485046 -0
vn 0.980785071849823 0.19509145617485046 -0
vn 0.980785071849823 0.19509145617485046 -0
vn 0 -0 -1
vn 0 -0 -1
vn -0.8314707279205322 0.555568516254425 -0
vn -0.8314707279205322 0.555568516254425 -0
vn -0.8314707279205322 0.555568516254425 -0
vn -0.8314709067344666 0.5555683970451355 -0
vn -0.8314709067344666 0.5555683970451355 -0
vn -0.8314709067344666 0.5555683970451355 -0
vn 0 -0 -1
vn 0.980785071849823 0.19509142637252808 -0
vn 0.980785071849823 0.19509142637252808 -0
vn 0.980785071849823 0.19509142637252808 -0
vn 0.8314695954322815 0.5555703043937683 -0
vn 0.8314695954322815 0.5555703043937683 -0
vn 0.8314695954322815 0.5555703043937683 -0
vn -0.555568516254425 0.8314708471298218 -0
vn -0.555568516254425 0.8314708471298218 -0
vn -0.555568516254425 0.8314708471298218 -0
vn 0 -0 -1
vn -0.555568516254425 0.8314708471298218 -0
vn 0.000000048883730840998396 -0 -1
vn 0.000000048883730840998396 -0 -1
vn 0.000000048883730840998396 -0 -1
vn 0.8314695358276367 0.5555704236030579 -0
vn 0.8314695358276367 0.5555704236030579 -0
vn 0.8314695358276367 0.5555704236030579 -0
vn 0.5555698871612549 0.8314698338508606 -0
vn 0.5555698871612549 0.8314698338508606 -0
vn 0.5555698871612549 0.8314698338508606 -0
vn -0.19508421421051025 0.9807865023612976 -0
vn -0.19508421421051025 0.9807865023612976 -0
vn -0.19508421421051025 0.9807865023612976 -0
vn -0.00000009776776721537317 -0 -1
vn -0.00000009776776721537317 -0 -1
vn -0.00000009776776721537317 -0 -1
vn -0.00000010440657405297316 -0 -1
vn -0.00000010440657405297316 -0 -1
vn -0.00000010440657405297316 -0 -1
vn -0.19508419930934906 0.9807865023612976 -0
vn -0.19508419930934906 0.9807865023612976 -0
vn -0.19508419930934906 0.9807865023612976 -0
vn 0.19508373737335205 0.9807866215705872 -0
vn 0.19508373737335205 0.9807866215705872 -0
vn 0.19508373737335205 0.9807866215705872 -0
vn 0.555569589138031 0.8314700722694397 -0
vn 0.555569589138031 0.8314700722694397 -0
vn 0.555569589138031 0.8314700722694397 -0
vn 0.19508372247219086 0.9807866215705872 -0
vn 0.19508372247219086 0.9807866215705872 -0
vn 0.19508372247219086 0.9807866215705872 -0
vn 0.000000139207827487553 -0 -1
vn 0.000000139207827487553 -0 -1
vn 0.000000139207827487553 -0 -1
f 3/3/3 2/2/2 1/1/1
f 6/6/6 5/5/5 4/4/4
f 9/9/9 8/8/8 7/7/7
f 12/12/12 11/11/11 10/10/10
f 15/15/15 14/14/14 13/13/13
f 18/18/18 17/17/17 16/16/16
f 21/21/21 20/20/20 19/19/19
f 24/24/24 23/23/23 22/22/22
f 27/27/27 26/26/26 25/25/25
f 30/30/30 29/29/29 28/28/28
f 33/33/33 32/32/32 31/31/31
f 36/36/36 35/35/35 34/34/34
f 39/39/39 38/38/38 37/37/37
f 42/42/42 41/41/41 40/40/40
f 45/45/45 44/44/44 43/43/43
f 48/48/48 47/47/47 46/46/46
f 51/51/51 50/50/50 49/49/49
f 54/54/54 53/53/53 52/52/52
f 57/57/57 56/56/56 55/55/55
f 60/60/60 59/59/59 58/58/58
f 61/61/61 54/54/54 52/52/52
f 64/64/64 63/63/63 62/62/62
f 67/67/67 66/66/66 65/65/65
f 70/70/70 69/69/69 68/68/68
f 19/19/19 72/72/72 71/71/71
f 75/75/75 74/74/74 73/73/73
f 77/77/77 76/76/76 71/71/71
f 80/80/80 79/79/79 78/78/78
f 83/83/83 82/82/82 81/81/81
f 72/72/72 84/84/84 71/71/71
f 87/87/87 86/86/86 85/85/85
f 90/90/90 89/89/89 88/88/88
f 93/93/93 92/92/92 91/91/91
f 94/94/94 77/77/77 71/71/71
f 93/93/93 91/91/91 95/95/95
f 98/98/98 97/97/97 96/96/96
f 101/101/101 100/100/100 99/99/99
f 104/104/104 103/103/103 102/102/102
f 107/107/107 106/106/106 105/105/105
f 110/110/110 109/109/109 108/108/108
f 113/113/113 112/112/112 111/111/111
f 116/116/116 115/115/115 114/114/114
f 119/119/119 118/118/118 117/117/117
f 122/122/122 121/121/121 120/120/120
f 125/125/125 124/124/124 123/123/123
f 128/128/128 127/127/127 126/126/126
