# VPXTOOL table OBJ file
# VPXTOOL OBJ file
# numVerts: 27 numFaces: 30
o LM_F_FL4_Layer1
v 13.048419952392578 -55.82217788696289 -4.451409816741943
v 13.048419952392578 -55.82217788696289 -0.46317142248153687
v 46.254695892333984 -30.692720413208008 -0.46317142248153687
v -33.02505874633789 -32.03665542602539 -4.451409816741943
v 13.048419952392578 -55.82217788696289 -4.451409816741943
v 46.254695892333984 -30.692720413208008 -4.451409816741943
v 46.254695892333984 -30.692720413208008 -4.451409816741943
v 13.048419952392578 -55.82217788696289 -4.451409816741943
v 46.254695892333984 -30.692720413208008 -0.46317142248153687
v -33.02505874633789 -32.03665542602539 -4.451409816741943
v -28.316043853759766 73.21063995361328 -4.451409816741943
v -33.02505874633789 -32.03665542602539 -0.46317142248153687
v -33.02505874633789 -32.03665542602539 -4.451409816741943
v 46.254695892333984 -30.692720413208008 -4.451409816741943
v -28.316043853759766 73.21063995361328 -4.451409816741943
v 46.254695892333984 -30.692720413208008 -4.451409816741943
v 46.254695892333984 -30.692720413208008 -0.46317142248153687
v 51.21830749511719 71.25801849365234 -0.46317142248153687
v -28.316043853759766 73.21063995361328 -0.46317142248153687
v -28.316043853759766 73.21063995361328 -4.451409816741943
v 51.21830749511719 71.25801849365234 -4.451409816741943
v 51.21830749511719 71.25801849365234 -4.451409816741943
v 46.254695892333984 -30.692720413208008 -4.451409816741943
v 51.21830749511719 71.25801849365234 -0.46317142248153687
v -28.316043853759766 73.21063995361328 -4.451409816741943
v 51.21830749511719 71.25801849365234 -4.451409816741943
v -28.316043853759766 73.21063995361328 -0.46317142248153687
vt 0.7683873176574707 0.14504480361938477
vt 0.7683417201042175 0.14570587873458862
vt 0.7754448056221008 0.15179729461669922
vt 0.7546635866165161 0.14698946475982666
vt 0.7683873176574707 0.14504480361938477
vt 0.775497555732727 0.15113919973373413
vt 0.775497555732727 0.15113919973373413
vt 0.7683873176574707 0.14504480361938477
vt 0.7754448056221008 0.15179729461669922
vt 0.7546635866165161 0.14698946475982666
vt 0.7486373782157898 0.16614240407943726
vt 0.7546313405036926 0.1476496458053589
vt 0.7546635866165161 0.14698946475982666
vt 0.775497555732727 0.15113919973373413
vt 0.7486373782157898 0.16614240407943726
vt 0.775497555732727 0.15113919973373413
vt 0.7754448056221008 0.15179729461669922
vt 0.7700027227401733 0.1704728603363037
vt 0.7486106753349304 0.16679328680038452
vt 0.7486373782157898 0.16614240407943726
vt 0.7700508236885071 0.16982388496398926
vt 0.7700508236885071 0.16982388496398926
vt 0.775497555732727 0.15113919973373413
vt 0.7700027227401733 0.1704728603363037
vt 0.7486373782157898 0.16614240407943726
vt 0.7700508236885071 0.16982388496398926
vt 0.7486106753349304 0.16679328680038452
vn 0.6034485697746277 -0.7974019050598145 -0
vn 0.6034485697746277 -0.7974019050598145 -0
vn 0.6034485697746277 -0.7974019050598145 -0
vn 0 -0 -1
vn 0 -0 -1
vn 0 -0 -1
vn 0.6034485101699829 -0.7974019646644592 -0
vn 0.6034485101699829 -0.7974019646644592 -0
vn 0.6034485101699829 -0.7974019646644592 -0
vn -0.9990005493164063 0.04469766467809677 -0
vn -0.9990005493164063 0.04469766467809677 -0
vn -0.9990005493164063 0.04469766467809677 -0
vn 0.0000000001872152155524276 -0 -1
vn 0.0000000001872152155524276 -0 -1
vn 0.0000000001872152155524276 -0 -1
vn 0.9988168478012085 -0.04862874373793602 -0
vn 0.9988168478012085 -0.04862874373793602 -0
vn 0.9988168478012085 -0.04862874373793602 -0
vn -0.9990005493164063 0.04469766467809677 -0
vn 0 -0 -1
vn 0 -0 -1
vn 0.9988168478012085 -0.048628803342580795 -0
vn 0.9988168478012085 -0.048628803342580795 -0
vn 0.9988168478012085 -0.048628803342580795 -0
vn 0.024543315172195435 0.99969881772995 -0
vn 0.024543315172195435 0.99969881772995 -0
vn 0.024543315172195435 0.99969881772995 -0
f 3/3/3 2/2/2 1/1/1
f 6/6/6 5/5/5 4/4/4
f 9/9/9 8/8/8 7/7/7
f 12/12/12 11/11/11 10/10/10
f 15/15/15 14/14/14 13/13/13
f 18/18/18 17/17/17 16/16/16
f 12/12/12 19/19/19 11/11/11
f 21/21/21 6/6/6 20/20/20
f 24/24/24 23/23/23 22/22/22
f 27/27/27 26/26/26 25/25/25
