# VPXTOOL table OBJ file
# VPXTOOL OBJ file
# numVerts: 99 numFaces: 99
o LM_F_FL1_swR1
v 2406.916748046875 -27384.0625 -28485.3828125
v -211.91270446777344 -5156.97607421875 -34845.50390625
v 2021.3125 10298.5166015625 -42271.34765625
v -2571.6748046875 7738.57373046875 -40651.328125
v 457.52337646484375 9405.859375 -36906.8515625
v -211.91270446777344 -5156.97607421875 -34845.50390625
v -211.91270446777344 -5156.97607421875 -34845.50390625
v 457.52337646484375 9405.859375 -36906.8515625
v 2021.3125 10298.5166015625 -42271.34765625
v -211.91270446777344 -5156.97607421875 -34845.50390625
v -2023.5740966796875 -13566.6533203125 -37738.0390625
v -2571.6748046875 7738.57373046875 -40651.328125
v 2406.916748046875 -27384.0625 -28485.3828125
v 2021.3125 10298.5166015625 -42271.34765625
v 926.128662109375 -20816.91796875 -35777.86328125
v 458.993408203125 23665.158203125 -35122.43359375
v 457.52337646484375 9405.859375 -36906.8515625
v -2571.6748046875 7738.57373046875 -40651.328125
v -2023.5740966796875 -13566.6533203125 -37738.0390625
v 915.6121826171875 -5077.62158203125 -40925.42578125
v -2571.6748046875 7738.57373046875 -40651.328125
v 2021.3125 10298.5166015625 -42271.34765625
v 915.6121826171875 -5077.62158203125 -40925.42578125
v 926.128662109375 -20816.91796875 -35777.86328125
v 2021.3125 10298.5166015625 -42271.34765625
v 457.52337646484375 9405.859375 -36906.8515625
v 2410.30908203125 31765.505859375 -34928.140625
v 915.6121826171875 -5077.62158203125 -40925.42578125
v 2021.3125 10298.5166015625 -42271.34765625
v -2571.6748046875 7738.57373046875 -40651.328125
v -2135.523681640625 30667.607421875 -38229.81640625
v -2571.6748046875 7738.57373046875 -40651.328125
v 2021.3125 10298.5166015625 -42271.34765625
v -2135.523681640625 30667.607421875 -38229.81640625
v -1378.4503173828125 36018.1484375 -31905.990234375
v -2571.6748046875 7738.57373046875 -40651.328125
v 2410.30908203125 31765.505859375 -34928.140625
v 920.9269409179688 25583.681640625 -40616.015625
v 2021.3125 10298.5166015625 -42271.34765625
v 920.9269409179688 25583.681640625 -40616.015625
v -2135.523681640625 30667.607421875 -38229.81640625
v 2021.3125 10298.5166015625 -42271.34765625
v 2410.30908203125 31765.505859375 -34928.140625
v 921.6054077148438 41306.21484375 -35195.9765625
v 920.9269409179688 25583.681640625 -40616.015625
v 921.6054077148438 41306.21484375 -35195.9765625
v -2135.523681640625 30667.607421875 -38229.81640625
v 920.9269409179688 25583.681640625 -40616.015625
v -1378.4503173828125 36018.1484375 -31905.990234375
v -2135.523681640625 30667.607421875 -38229.81640625
v -2553.35595703125 64436.47265625 -17882.69921875
v -368.30291748046875 55915.8359375 -27271.49609375
v -2135.523681640625 30667.607421875 -38229.81640625
v 921.6054077148438 41306.21484375 -35195.9765625
v 2410.30908203125 31765.505859375 -34928.140625
v 2439.370849609375 61828.61328125 -21034.05078125
v 921.6054077148438 41306.21484375 -35195.9765625
v 2410.30908203125 31765.505859375 -34928.140625
v 464.53436279296875 52255.44921875 -22685.734375
v 2439.370849609375 61828.61328125 -21034.05078125
v -368.30291748046875 55915.8359375 -27271.49609375
v -2553.35595703125 64436.47265625 -17882.69921875
v -2135.523681640625 30667.607421875 -38229.81640625
v -368.30291748046875 55915.8359375 -27271.49609375
v 921.6054077148438 41306.21484375 -35195.9765625
v 2439.370849609375 61828.61328125 -21034.05078125
v 464.53436279296875 52255.44921875 -22685.734375
v 467.1352233886719 63427.8515625 -13491.796875
v 2439.370849609375 61828.61328125 -21034.05078125
v -368.30291748046875 55915.8359375 -27271.49609375
v 2439.370849609375 61828.61328125 -21034.05078125
v 927.5986938476563 67904.875 -16966.37109375
v 927.5986938476563 67904.875 -16966.37109375
v -2553.35595703125 64436.47265625 -17882.69921875
v -368.30291748046875 55915.8359375 -27271.49609375
v 467.1352233886719 63427.8515625 -13491.796875
v -218.58445739746094 71979.8671875 -1921.7376708984375
v 2439.370849609375 61828.61328125 -21034.05078125
v 175.04849243164063 77888.296875 -3870.490966796875
v 927.5986938476563 67904.875 -16966.37109375
v 2439.370849609375 61828.61328125 -21034.05078125
v 175.04849243164063 77888.296875 -3870.490966796875
v -2553.35595703125 64436.47265625 -17882.69921875
v 927.5986938476563 67904.875 -16966.37109375
v 175.04849243164063 77888.296875 -3870.490966796875
v 2439.370849609375 61828.61328125 -21034.05078125
v 2056.367431640625 80082.3359375 12494.873046875
v -2522.371826171875 81608.328125 11980.7900390625
v -2553.35595703125 64436.47265625 -17882.69921875
v 175.04849243164063 77888.296875 -3870.490966796875
v 2056.367431640625 80082.3359375 12494.873046875
v 72.25838470458984 84807.625 10904.26171875
v 175.04849243164063 77888.296875 -3870.490966796875
v 72.25838470458984 84807.625 10904.26171875
v -2522.371826171875 81608.328125 11980.7900390625
v 175.04849243164063 77888.296875 -3870.490966796875
v -2522.371826171875 81608.328125 11980.7900390625
v 72.25838470458984 84807.625 10904.26171875
v 2056.367431640625 80082.3359375 12494.873046875
vt 0.5548198819160461 0.0005098581314086914
vt 0.5539093613624573 0.001984834671020508
vt 0.5536748766899109 0.0028914809226989746
vt 0.5532556772232056 0.0029224753379821777
vt 0.5535504817962646 0.0032474398612976074
vt 0.5539093613624573 0.001984834671020508
vt 0.5539093613624573 0.001984834671020508
vt 0.5535504817962646 0.0032474398612976074
vt 0.5536748766899109 0.0028914809226989746
vt 0.5539093613624573 0.001984834671020508
vt 0.5539757609367371 0.0010187029838562012
vt 0.5532556772232056 0.0029224753379821777
vt 0.5548198819160461 0.0005098581314086914
vt 0.5536748766899109 0.0028914809226989746
vt 0.554526686668396 0.0004795193672180176
vt 0.5530715584754944 0.004801690578460693
vt 0.5535504817962646 0.0032474398612976074
vt 0.5532556772232056 0.0029224753379821777
vt 0.5539757609367371 0.0010187029838562012
vt 0.5541130304336548 0.001564621925354004
vt 0.5532556772232056 0.0029224753379821777
vt 0.5536748766899109 0.0028914809226989746
vt 0.5541130304336548 0.001564621925354004
vt 0.554526686668396 0.0004795193672180176
vt 0.5536748766899109 0.0028914809226989746
vt 0.5535504817962646 0.0032474398612976074
vt 0.5530611276626587 0.005751609802246094
vt 0.5541130304336548 0.001564621925354004
vt 0.5536748766899109 0.0028914809226989746
vt 0.5532556772232056 0.0029224753379821777
vt 0.5526230335235596 0.0052623748779296875
vt 0.5532556772232056 0.0029224753379821777
vt 0.5536748766899109 0.0028914809226989746
vt 0.5526230335235596 0.0052623748779296875
vt 0.5524137020111084 0.006281018257141113
vt 0.5532556772232056 0.0029224753379821777
vt 0.5530611276626587 0.005751609802246094
vt 0.5531551241874695 0.004558861255645752
vt 0.5536748766899109 0.0028914809226989746
vt 0.5531551241874695 0.004558861255645752
vt 0.5526230335235596 0.0052623748779296875
vt 0.5536748766899109 0.0028914809226989746
vt 0.5530611276626587 0.005751609802246094
vt 0.5525848865509033 0.0065427422523498535
vt 0.5531551241874695 0.004558861255645752
vt 0.5525848865509033 0.0065427422523498535
vt 0.5526230335235596 0.0052623748779296875
vt 0.5531551241874695 0.004558861255645752
vt 0.5524137020111084 0.006281018257141113
vt 0.5526230335235596 0.0052623748779296875
vt 0.5512085556983948 0.010360658168792725
vt 0.551870584487915 0.00863039493560791
vt 0.5526230335235596 0.0052623748779296875
vt 0.5525848865509033 0.0065427422523498535
vt 0.5530611276626587 0.005751609802246094
vt 0.5519692301750183 0.009836912155151367
vt 0.5525848865509033 0.0065427422523498535
vt 0.5530611276626587 0.005751609802246094
vt 0.5519833564758301 0.008688211441040039
vt 0.5519692301750183 0.009836912155151367
vt 0.551870584487915 0.00863039493560791
vt 0.5512085556983948 0.010360658168792725
vt 0.5526230335235596 0.0052623748779296875
vt 0.551870584487915 0.00863039493560791
vt 0.5525848865509033 0.0065427422523498535
vt 0.5519692301750183 0.009836912155151367
vt 0.5519833564758301 0.008688211441040039
vt 0.5514950752258301 0.010583996772766113
vt 0.5519692301750183 0.009836912155151367
vt 0.551870584487915 0.00863039493560791
vt 0.5519692301750183 0.009836912155151367
vt 0.5514850616455078 0.010698795318603516
vt 0.5514850616455078 0.010698795318603516
vt 0.5512085556983948 0.010360658168792725
vt 0.551870584487915 0.00863039493560791
vt 0.5514950752258301 0.010583996772766113
vt 0.5509876012802124 0.012467026710510254
vt 0.5519692301750183 0.009836912155151367
vt 0.5508933067321777 0.01267331838607788
vt 0.5514850616455078 0.010698795318603516
vt 0.5519692301750183 0.009836912155151367
vt 0.5508933067321777 0.01267331838607788
vt 0.5512085556983948 0.010360658168792725
vt 0.5514850616455078 0.010698795318603516
vt 0.5508933067321777 0.01267331838607788
vt 0.5519692301750183 0.009836912155151367
vt 0.5507264733314514 0.014478921890258789
vt 0.5502212643623352 0.014459311962127686
vt 0.5512085556983948 0.010360658168792725
vt 0.5508933067321777 0.01267331838607788
vt 0.5507264733314514 0.014478921890258789
vt 0.5504471063613892 0.014710068702697754
vt 0.5508933067321777 0.01267331838607788
vt 0.5504471063613892 0.014710068702697754
vt 0.5502212643623352 0.014459311962127686
vt 0.5508933067321777 0.01267331838607788
vt 0.5502212643623352 0.014459311962127686
vt 0.5504471063613892 0.014710068702697754
vt 0.5507264733314514 0.014478921890258789
vn 0.38471096754074097 0.15512444078922272 0.9099087119102478
vn 0.4028163552284241 0.13516338169574738 0.9052457809448242
vn 0.7665165662765503 0.4233141243457794 0.48296746611595154
vn -0.9164817333221436 -0.05398842692375183 0.39641720056533813
vn -0.6298702955245972 0.06661020219326019 0.7738388180732727
vn -0.9107680320739746 -0.06058066338300705 0.40845024585723877
vn 0.8565360307693481 -0.07912746071815491 0.5099852085113525
vn 0.8581684231758118 -0.08074332028627396 0.5069788098335266
vn 0.9938320517539978 -0.059981223195791245 -0.09327466785907745
vn -0.7782147526741028 0.19426940381526947 0.5971941947937012
vn -0.9859138131141663 -0.11446509510278702 0.12194846570491791
vn -0.9779745936393738 0.17848193645477295 0.10821154713630676
vn 0.9994162321090698 -0.03293938934803009 0.009067818522453308
vn 0.9999464750289917 0.008988387882709503 -0.005117684602737427
vn 0.8240067958831787 -0.1678837239742279 -0.5411356091499329
vn -0.5697828531265259 -0.08341951668262482 0.817550539970398
vn -0.5880139470100403 0.023916438221931458 0.8084971904754639
vn -0.9057540893554688 0.009934797883033752 0.42368730902671814
vn -0.6966941952705383 -0.29635336995124817 -0.6532929539680481
vn -0.2817137837409973 -0.05179265886545181 -0.9580995440483093
vn -0.6726972460746765 0.11890190839767456 -0.7303017377853394
vn 0.964569091796875 0.2157648503780365 -0.1518288403749466
vn 0.8480459451675415 -0.26712557673454285 -0.4576701819896698
vn 0.8432801961898804 -0.21322953701019287 -0.49336764216423035
vn 0.9963089227676392 0.037522971630096436 -0.0772048830986023
vn 0.8569722771644592 -0.10651105642318726 0.504236102104187
vn 0.9788652658462524 0.19829167425632477 0.050031110644340515
vn -0.1196073442697525 -0.2908276319503784 -0.9492699503898621
vn -0.04492935538291931 0.09398798644542694 -0.9945590496063232
vn -0.5713382959365845 -0.0524766743183136 -0.8190353512763977
vn -0.5432286262512207 0.3096790313720703 -0.7803854942321777
vn -0.6058027744293213 -0.04569956660270691 -0.7943013310432434
vn -0.08958560228347778 0.08249582350254059 -0.9925567507743835
vn -0.9662966728210449 -0.01211399957537651 -0.25714603066444397
vn -0.9374486804008484 -0.056204892694950104 0.34355658292770386
vn -0.944125771522522 -0.14139863848686218 0.29771313071250916
vn 0.9623072147369385 0.26473477482795715 -0.06229223310947418
vn 0.8086074590682983 0.045759089291095734 -0.5865662097930908
vn 0.8037905693054199 0.05691961199045181 -0.5921831130981445
vn -0.2973083257675171 0.052656643092632294 -0.9533284306526184
vn -0.7461192011833191 0.1868579387664795 -0.6390543580055237
vn -0.38757696747779846 -0.1849629133939743 -0.90309077501297
vn 0.9880368709564209 -0.08221310377120972 -0.13047686219215393
vn 0.7834909558296204 0.2873816192150116 -0.550957202911377
vn 0.7776464819908142 0.1741943210363388 -0.6040880680084229
vn 0.013774678111076355 0.5128547549247742 -0.8583648800849915
vn -0.4263652563095093 0.14696675539016724 -0.8925321102142334
vn 0.0217929407954216 0.12989048659801483 -0.9912888407707214
vn -0.8580371737480164 -0.18103456497192383 0.4806234836578369
vn -0.9919453859329224 -0.07233655452728271 -0.10398060083389282
vn -0.9748867750167847 0.1860032081604004 0.12246991693973541
vn -0.6511291265487671 0.52290278673172 -0.5500940084457397
vn -0.6999691724777222 0.14299403131008148 -0.6997112035751343
vn -0.26928579807281494 0.4815673828125 -0.8340131640434265
vn 0.99774169921875 -0.025866549462080002 -0.06198681890964508
vn 0.9990665912628174 0.016626998782157898 -0.03986924886703491
vn 0.7998969554901123 0.28119775652885437 -0.5301817655563354
vn 0.6383762359619141 -0.4739965796470642 0.6064676642417908
vn 0.6424002647399902 -0.4805675148963928 0.5969730019569397
vn 0.9151580333709717 0.05530710145831108 0.399282842874527
vn -0.6922153234481812 0.2437211275100708 -0.6792922019958496
vn -0.943816602230072 0.3093324899673462 -0.11629131436347961
vn -0.766414225101471 0.06836467981338501 -0.6386982202529907
vn 0.3679441213607788 0.436419814825058 -0.8210693597793579
vn 0.4567561745643616 0.26761531829833984 -0.8483841419219971
vn 0.7567698955535889 0.4775421619415283 -0.4463772177696228
vn 0.8007740378379822 -0.4522671699523926 0.3927026391029358
vn 0.7931331396102905 -0.41675814986228943 0.44413113594055176
vn 0.9795921444892883 -0.1836722493171692 -0.08163204789161682
vn 0.18451069295406342 0.4557652473449707 -0.8707662224769592
vn 0.6064789295196533 0.5749508142471313 -0.5491948127746582
vn 0.49511390924453735 0.7084637880325317 -0.5029325485229492
vn -0.20259591937065125 0.7808815240859985 -0.590913712978363
vn -0.6823964715003967 0.49019479751586914 -0.5422583222389221
vn -0.2705124616622925 0.4687618315219879 -0.8408836722373962
vn 0.7429875731468201 -0.44380277395248413 0.5010074377059937
vn 0.7381856441497803 -0.518054187297821 0.43209004402160645
vn 0.7682599425315857 -0.6333552002906799 0.09294039756059647
vn 0.7497272491455078 0.6052548885345459 -0.2675360441207886
vn 0.7501584887504578 0.6105680465698242 -0.25390735268592834
vn 0.8091529607772827 0.2281067967414856 -0.5415153503417969
vn -0.6381303668022156 0.7201169729232788 -0.27243560552597046
vn -0.7235843539237976 0.44760891795158386 -0.5254254937171936
vn -0.25263088941574097 0.7323906421661377 -0.6322828531265259
vn 0.805173397064209 0.5629674196243286 -0.18644948303699493
vn 0.9974120259284973 0.0023351162672042847 -0.0718594491481781
vn 0.7975811958312988 0.19814756512641907 0.5697383284568787
vn -0.7936313152313232 0.3572944700717926 0.49243274331092834
vn -0.9675757884979248 0.1427750289440155 -0.20835617184638977
vn -0.6676219701766968 0.6891359686851501 -0.2817312479019165
vn 0.7459397315979004 -0.012797325849533081 0.665890634059906
vn 0.59501713514328 0.7161465287208557 0.36481332778930664
vn 0.906584620475769 0.38132286071777344 -0.18082371354103088
vn -0.45401477813720703 0.8377043604850769 0.3035159409046173
vn -0.782829761505127 0.19240903854370117 0.5917401313781738
vn -0.748742938041687 0.5936850905418396 -0.2948255240917206
vn -0.7670876383781433 0.010549604892730713 0.6414555311203003
vn 0.09136456251144409 0.9534798860549927 0.2872777581214905
vn 0.5895869731903076 -0.29195451736450195 0.7530934810638428
f 3/3/3 2/2/2 1/1/1
f 6/6/6 5/5/5 4/4/4
f 9/9/9 8/8/8 7/7/7
f 12/12/12 11/11/11 10/10/10
f 15/15/15 14/14/14 13/13/13
f 18/18/18 17/17/17 16/16/16
f 21/21/21 20/20/20 19/19/19
f 24/24/24 23/23/23 22/22/22
f 27/27/27 26/26/26 25/25/25
f 30/30/30 29/29/29 28/28/28
f 33/33/33 32/32/32 31/31/31
f 36/36/36 35/35/35 34/34/34
f 39/39/39 38/38/38 37/37/37
f 42/42/42 41/41/41 40/40/40
f 45/45/45 44/44/44 43/43/43
f 48/48/48 47/47/47 46/46/46
f 51/51/51 50/50/50 49/49/49
f 54/54/54 53/53/53 52/52/52
f 57/57/57 56/56/56 55/55/55
f 60/60/60 59/59/59 58/58/58
f 63/63/63 62/62/62 61/61/61
f 66/66/66 65/65/65 64/64/64
f 69/69/69 68/68/68 67/67/67
f 72/72/72 71/71/71 70/70/70
f 75/75/75 74/74/74 73/73/73
f 78/78/78 77/77/77 76/76/76
f 81/81/81 80/80/80 79/79/79
f 84/84/84 83/83/83 82/82/82
f 87/87/87 86/86/86 85/85/85
f 90/90/90 89/89/89 88/88/88
f 93/93/93 92/92/92 91/91/91
f 96/96/96 95/95/95 94/94/94
f 99/99/99 98/98/98 97/97/97
