# VPXTOOL table OBJ file
# VPXTOOL OBJ file
# numVerts: 90 numFaces: 90
o LM_GI_gi06_swRO
v -2571.7880859375 7738.3193359375 -40651.33984375
v 457.52337646484375 9406.029296875 -36906.86328125
v -1764.8460693359375 -5396.64990234375 -36081.7734375
v -1764.8460693359375 -5396.64990234375 -36081.7734375
v -2023.6871337890625 -13566.484375 -37738.1640625
v -2571.7880859375 7738.3193359375 -40651.33984375
v 458.993408203125 23665.244140625 -35122.453125
v 457.52337646484375 9406.029296875 -36906.86328125
v -2571.7880859375 7738.3193359375 -40651.33984375
v -2023.6871337890625 -13566.484375 -37738.1640625
v 915.4990844726563 -5077.76318359375 -40925.40625
v -2571.7880859375 7738.3193359375 -40651.33984375
v 2021.199462890625 10298.4599609375 -42271.33984375
v 457.52337646484375 9406.029296875 -36906.86328125
v 2410.30908203125 31765.1953125 -34928.24609375
v 915.4990844726563 -5077.76318359375 -40925.40625
v 2021.199462890625 10298.4599609375 -42271.33984375
v -2571.7880859375 7738.3193359375 -40651.33984375
v -2135.41064453125 30667.41015625 -38229.96484375
v -2571.7880859375 7738.3193359375 -40651.33984375
v 2021.199462890625 10298.4599609375 -42271.33984375
v -2135.41064453125 30667.41015625 -38229.96484375
v -1378.4503173828125 36017.921875 -31906.01171875
v -2571.7880859375 7738.3193359375 -40651.33984375
v 2410.30908203125 31765.1953125 -34928.24609375
v 920.9269409179688 25583.765625 -40615.96875
v 2021.199462890625 10298.4599609375 -42271.33984375
v 920.9269409179688 25583.765625 -40615.96875
v -2135.41064453125 30667.41015625 -38229.96484375
v 2021.199462890625 10298.4599609375 -42271.33984375
v 2410.30908203125 31765.1953125 -34928.24609375
v 921.4923095703125 41306.2421875 -35195.96875
v 920.9269409179688 25583.765625 -40615.96875
v 921.4923095703125 41306.2421875 -35195.96875
v -2135.41064453125 30667.41015625 -38229.96484375
v 920.9269409179688 25583.765625 -40615.96875
v -1378.4503173828125 36017.921875 -31906.01171875
v -2135.41064453125 30667.41015625 -38229.96484375
v -2553.35595703125 64436.390625 -17882.634765625
v -368.416015625 55915.5546875 -27271.59765625
v -2135.41064453125 30667.41015625 -38229.96484375
v 921.4923095703125 41306.2421875 -35195.96875
v 2410.30908203125 31765.1953125 -34928.24609375
v 2439.370849609375 61828.98046875 -21033.55859375
v 921.4923095703125 41306.2421875 -35195.96875
v -368.416015625 55915.5546875 -27271.59765625
v -2553.35595703125 64436.390625 -17882.634765625
v -2135.41064453125 30667.41015625 -38229.96484375
v -368.416015625 55915.5546875 -27271.59765625
v 921.4923095703125 41306.2421875 -35195.96875
v 2439.370849609375 61828.98046875 -21033.55859375
v 464.53436279296875 52255.3671875 -22685.70703125
v 466.9090576171875 63427.9375 -13491.5205078125
v 2439.370849609375 61828.98046875 -21033.55859375
v 466.9090576171875 63427.9375 -13491.5205078125
v 464.53436279296875 52255.3671875 -22685.70703125
v -2553.35595703125 64436.390625 -17882.634765625
v -368.416015625 55915.5546875 -27271.59765625
v 2439.370849609375 61828.98046875 -21033.55859375
v 927.485595703125 67905.015625 -16966.30078125
v 927.485595703125 67905.015625 -16966.30078125
v -2553.35595703125 64436.390625 -17882.634765625
v -368.416015625 55915.5546875 -27271.59765625
v 466.9090576171875 63427.9375 -13491.5205078125
v -218.58445739746094 71979.7578125 -1921.8251953125
v 2439.370849609375 61828.98046875 -21033.55859375
v -218.58445739746094 71979.7578125 -1921.8251953125
v 466.9090576171875 63427.9375 -13491.5205078125
v -2553.35595703125 64436.390625 -17882.634765625
v 174.93540954589844 77888.6640625 -3870.093505859375
v 927.485595703125 67905.015625 -16966.30078125
v 2439.370849609375 61828.98046875 -21033.55859375
v 174.93540954589844 77888.6640625 -3870.093505859375
v -2553.35595703125 64436.390625 -17882.634765625
v 927.485595703125 67905.015625 -16966.30078125
v -218.58445739746094 71979.7578125 -1921.8251953125
v -2553.35595703125 64436.390625 -17882.634765625
v -2522.371826171875 81608.328125 11980.796875
v 174.93540954589844 77888.6640625 -3870.093505859375
v 2439.370849609375 61828.98046875 -21033.55859375
v 2056.367431640625 80082.421875 12494.8408203125
v -2522.371826171875 81608.328125 11980.796875
v -2553.35595703125 64436.390625 -17882.634765625
v 174.93540954589844 77888.6640625 -3870.093505859375
v 2056.367431640625 80082.421875 12494.8408203125
v 72.0322265625 84807.828125 10904.185546875
v 174.93540954589844 77888.6640625 -3870.093505859375
v 72.0322265625 84807.828125 10904.185546875
v -2522.371826171875 81608.328125 11980.796875
v 174.93540954589844 77888.6640625 -3870.093505859375
vt 0.06538572162389755 0.09301209449768066
vt 0.06575184315443039 0.09320187568664551
vt 0.0652434229850769 0.09119755029678345
vt 0.0652434229850769 0.09119755029678345
vt 0.06517333537340164 0.08992695808410645
vt 0.06538572162389755 0.09301209449768066
vt 0.06586461514234543 0.09540629386901855
vt 0.06575184315443039 0.09320187568664551
vt 0.06538572162389755 0.09301209449768066
vt 0.06517333537340164 0.08992695808410645
vt 0.06572160124778748 0.09086912870407104
vt 0.06538572162389755 0.09301209449768066
vt 0.06591910123825073 0.09296703338623047
vt 0.06575184315443039 0.09320187568664551
vt 0.06625824421644211 0.09668421745300293
vt 0.06572160124778748 0.09086912870407104
vt 0.06591910123825073 0.09296703338623047
vt 0.06538572162389755 0.09301209449768066
vt 0.06566011160612106 0.09631454944610596
vt 0.06538572162389755 0.09301209449768066
vt 0.06591910123825073 0.09296703338623047
vt 0.06566011160612106 0.09631454944610596
vt 0.06565672159194946 0.0974266529083252
vt 0.06538572162389755 0.09301209449768066
vt 0.06625824421644211 0.09668421745300293
vt 0.06603467464447021 0.09533590078353882
vt 0.06591910123825073 0.09296703338623047
vt 0.06603467464447021 0.09533590078353882
vt 0.06566011160612106 0.09631454944610596
vt 0.06591910123825073 0.09296703338623047
vt 0.06625824421644211 0.09668421745300293
vt 0.06610051542520523 0.09794586896896362
vt 0.06603467464447021 0.09533590078353882
vt 0.06610051542520523 0.09794586896896362
vt 0.06566011160612106 0.09631454944610596
vt 0.06603467464447021 0.09533590078353882
vt 0.06565672159194946 0.0974266529083252
vt 0.06566011160612106 0.09631454944610596
vt 0.06560584902763367 0.10257095098495483
vt 0.06594297289848328 0.10057288408279419
vt 0.06566011160612106 0.09631454944610596
vt 0.06610051542520523 0.09794586896896362
vt 0.06625824421644211 0.09668421745300293
vt 0.066312275826931 0.10176390409469604
vt 0.06610051542520523 0.09794586896896362
vt 0.06594297289848328 0.10057288408279419
vt 0.06560584902763367 0.10257095098495483
vt 0.06566011160612106 0.09631454944610596
vt 0.06594297289848328 0.10057288408279419
vt 0.06610051542520523 0.09794586896896362
vt 0.066312275826931 0.10176390409469604
vt 0.06593956053256989 0.10037612915039063
vt 0.06589379161596298 0.10258561372756958
vt 0.066312275826931 0.10176390409469604
vt 0.06589379161596298 0.10258561372756958
vt 0.06593956053256989 0.10037612915039063
vt 0.06560584902763367 0.10257095098495483
vt 0.06594297289848328 0.10057288408279419
vt 0.066312275826931 0.10176390409469604
vt 0.0660579651594162 0.10294002294540405
vt 0.0660579651594162 0.10294002294540405
vt 0.06560584902763367 0.10257095098495483
vt 0.06594297289848328 0.10057288408279419
vt 0.06589379161596298 0.10258561372756958
vt 0.06571558862924576 0.10461831092834473
vt 0.066312275826931 0.10176390409469604
vt 0.06571558862924576 0.10461831092834473
vt 0.06589379161596298 0.10258561372756958
vt 0.06560584902763367 0.10257095098495483
vt 0.06579148769378662 0.10506939888000488
vt 0.0660579651594162 0.10294002294540405
vt 0.066312275826931 0.10176390409469604
vt 0.06579148769378662 0.10506939888000488
vt 0.06560584902763367 0.10257095098495483
vt 0.0660579651594162 0.10294002294540405
vt 0.06571558862924576 0.10461831092834473
vt 0.06560584902763367 0.10257095098495483
vt 0.06520195305347443 0.10672944784164429
vt 0.06579148769378662 0.10506939888000488
vt 0.066312275826931 0.10176390409469604
vt 0.06577111035585403 0.10659801959991455
vt 0.06520195305347443 0.10672944784164429
vt 0.06560584902763367 0.10257095098495483
vt 0.06579148769378662 0.10506939888000488
vt 0.06577111035585403 0.10659801959991455
vt 0.06561323255300522 0.10707968473434448
vt 0.06579148769378662 0.10506939888000488
vt 0.06561323255300522 0.10707968473434448
vt 0.06520195305347443 0.10672944784164429
vt 0.06579148769378662 0.10506939888000488
vn -0.928072452545166 -0.0004252195358276367 0.37239930033683777
vn -0.6427839398384094 0.0752066969871521 0.7623468637466431
vn -0.9254425764083862 0.00030612945556640625 0.37888777256011963
vn -0.9257262349128723 0.15207454562187195 0.34627169370651245
vn -0.9712619185447693 -0.17300468683242798 -0.16346146166324615
vn -0.9723149538040161 0.15274569392204285 -0.17683999240398407
vn -0.5697616338729858 -0.08342127501964569 0.8175650835037231
vn -0.5879947543144226 0.023918483406305313 0.8085110187530518
vn -0.905744194984436 0.009925410151481628 0.423708438873291
vn -0.6966832876205444 -0.2963525652885437 -0.6533049941062927
vn -0.28169766068458557 -0.051791876554489136 -0.9581043720245361
vn -0.6726856231689453 0.1189022958278656 -0.7303125262260437
vn 0.9963077902793884 0.0375184640288353 -0.07722088694572449
vn 0.8569796681404114 -0.10650809109210968 0.5042239427566528
vn 0.9788661599159241 0.1982911080121994 0.05001680552959442
vn -0.11960235983133316 -0.2908284664154053 -0.9492703080177307
vn -0.04492664337158203 0.09399037063121796 -0.9945589303970337
vn -0.5713343024253845 -0.05248197913169861 -0.819037675857544
vn -0.5432249903678894 0.3096795678138733 -0.7803879380226135
vn -0.6058002710342407 -0.04570278152823448 -0.7943031191825867
vn -0.08958329260349274 0.08249621093273163 -0.9925569295883179
vn -0.9662885069847107 -0.012100864201784134 -0.2571767568588257
vn -0.93746018409729 -0.056192077696323395 0.3435266613960266
vn -0.9441369771957397 -0.1413848102092743 0.2976837158203125
vn 0.962310254573822 0.26472532749176025 -0.0622858852148056
vn 0.8086109161376953 0.04575461894273758 -0.5865620374679565
vn 0.8037944436073303 0.0569135881960392 -0.5921785831451416
vn -0.2972741425037384 0.05266488343477249 -0.9533385634422302
vn -0.7460944056510925 0.18686917424201965 -0.639079749584198
vn -0.38754770159721375 -0.1849551796913147 -0.9031047821044922
vn 0.9880354404449463 -0.08220739662647247 -0.13049183785915375
vn 0.783481776714325 0.28739041090011597 -0.5509656667709351
vn 0.7776377201080322 0.17420393228530884 -0.604096531867981
vn 0.013791054487228394 0.5128551125526428 -0.8583643436431885
vn -0.42634522914886475 0.14696387946605682 -0.8925420045852661
vn 0.021813735365867615 0.12988930940628052 -0.9912884831428528
vn -0.858058512210846 -0.18101996183395386 0.4805907905101776
vn -0.9919429421424866 -0.07231639325618744 -0.1040177196264267
vn -0.9748876690864563 0.18602153658866882 0.12243402004241943
vn -0.6511455774307251 0.5228955745697021 -0.5500814914703369
vn -0.6999815702438354 0.14298516511917114 -0.699700653553009
vn -0.2693067193031311 0.4815675914287567 -0.8340063691139221
vn 0.9977409839630127 -0.02585969865322113 -0.06200160086154938
vn 0.9990659356117249 0.016633853316307068 -0.03988353908061981
vn 0.799887478351593 0.28120774030685425 -0.5301907658576965
vn -0.6922376155853271 0.2437092363834381 -0.6792739033699036
vn -0.9438250064849854 0.30931657552719116 -0.11626648902893066
vn -0.7664318084716797 0.06835237145423889 -0.6386786103248596
vn 0.3679499328136444 0.4364204704761505 -0.8210664391517639
vn 0.4567611813545227 0.2676183581352234 -0.8483805656433105
vn 0.7567728161811829 0.4775436222553253 -0.44637101888656616
vn 0.8007612228393555 -0.4522739052772522 0.3927209973335266
vn 0.7931187152862549 -0.41676509380340576 0.4441503584384918
vn 0.9795958399772644 -0.18366530537605286 -0.08160281181335449
vn -0.6277238130569458 -0.5404036045074463 0.5602917075157166
vn -0.6306076049804688 -0.4939793050289154 0.5985971689224243
vn -0.8091346025466919 -0.1182306557893753 0.5756064057350159
vn 0.18454372882843018 0.455750048160553 -0.8707672357559204
vn 0.6065025329589844 0.5749377012252808 -0.5491825938224792
vn 0.4951372742652893 0.7084510326385498 -0.502927839756012
vn -0.20264002680778503 0.7808738946914673 -0.5909088850021362
vn -0.682428240776062 0.4901697337627411 -0.5422412157058716
vn -0.2705538272857666 0.4687482416629791 -0.8408780694007874
vn 0.7429437637329102 -0.44385361671447754 0.5010272860527039
vn 0.7381397485733032 -0.5181019306182861 0.43211105465888977
vn 0.7682226896286011 -0.6333985328674316 0.09295157343149185
vn -0.5422906279563904 -0.6788880228996277 0.4950069189071655
vn -0.571122407913208 -0.597883939743042 0.5624534487724304
vn -0.8968807458877563 -0.34924158453941345 0.27135801315307617
vn 0.7497058510780334 0.6052740216255188 -0.26755255460739136
vn 0.7501367330551147 0.6105867624282837 -0.25392651557922363
vn 0.8091395497322083 0.22811990976333618 -0.5415297746658325
vn -0.6381676197052002 0.7200911045074463 -0.272416889667511
vn -0.7236167192459106 0.447578489780426 -0.5254068970680237
vn -0.25267887115478516 0.7323821187019348 -0.6322736740112305
vn -0.35355451703071594 -0.7455735206604004 0.5649064779281616
vn -0.7971533536911011 -0.579919695854187 0.1680462658405304
vn -0.19460004568099976 -0.317150354385376 0.9281952977180481
vn 0.80516517162323 0.5629781484603882 -0.18645283579826355
vn 0.9974115490913391 0.002347990870475769 -0.07186566293239594
vn 0.7975838780403137 0.1981533169746399 0.569732666015625
vn -0.7936356663703918 0.3572680652141571 0.4924449324607849
vn -0.9675835967063904 0.14274601638317108 -0.20834055542945862
vn -0.6676476001739502 0.6891164183616638 -0.28171873092651367
vn 0.7459472417831421 -0.01278066635131836 0.6658824682235718
vn 0.5949981212615967 0.7161650061607361 0.36480802297592163
vn 0.9065716862678528 0.3813501298427582 -0.180830717086792
vn -0.4540647566318512 0.8376743197441101 0.3035241961479187
vn -0.7828302383422852 0.19235430657863617 0.5917572379112244
vn -0.7487908005714417 0.5936328172683716 -0.29480913281440735
f 3/3/3 2/2/2 1/1/1
f 6/6/6 5/5/5 4/4/4
f 9/9/9 8/8/8 7/7/7
f 12/12/12 11/11/11 10/10/10
f 15/15/15 14/14/14 13/13/13
f 18/18/18 17/17/17 16/16/16
f 21/21/21 20/20/20 19/19/19
f 24/24/24 23/23/23 22/22/22
f 27/27/27 26/26/26 25/25/25
f 30/30/30 29/29/29 28/28/28
f 33/33/33 32/32/32 31/31/31
f 36/36/36 35/35/35 34/34/34
f 39/39/39 38/38/38 37/37/37
f 42/42/42 41/41/41 40/40/40
f 45/45/45 44/44/44 43/43/43
f 48/48/48 47/47/47 46/46/46
f 51/51/51 50/50/50 49/49/49
f 54/54/54 53/53/53 52/52/52
f 57/57/57 56/56/56 55/55/55
f 60/60/60 59/59/59 58/58/58
f 63/63/63 62/62/62 61/61/61
f 66/66/66 65/65/65 64/64/64
f 69/69/69 68/68/68 67/67/67
f 72/72/72 71/71/71 70/70/70
f 75/75/75 74/74/74 73/73/73
f 78/78/78 77/77/77 76/76/76
f 81/81/81 80/80/80 79/79/79
f 84/84/84 83/83/83 82/82/82
f 87/87/87 86/86/86 85/85/85
f 90/90/90 89/89/89 88/88/88
