# VPXTOOL table OBJ file
# VPXTOOL OBJ file
# numVerts: 15 numFaces: 15
o LM_F_FL3_DiverterPin
v 686.0126953125 37.17202377319336 -25
v 710.8907470703125 39.67435073852539 -25
v 695.3727416992188 57.69389724731445 -25
v 695.3727416992188 57.69389724731445 -25
v 695.3727416992188 57.69389724731445 25
v 686.0126953125 37.17202377319336 -25
v 710.8907470703125 39.67435073852539 -25
v 710.8907470703125 39.67435073852539 25
v 695.3727416992188 57.69389724731445 -25
v 710.8907470703125 39.67435073852539 25
v 695.3727416992188 57.69389724731445 25
v 695.3727416992188 57.69389724731445 -25
v 695.3727416992188 57.69389724731445 25
v 686.0126953125 37.17202377319336 25
v 686.0126953125 37.17202377319336 -25
vt 0.8834341764450073 0.9878489971160889
vt 0.8899421095848083 0.9882789254188538
vt 0.8860350847244263 0.9913835525512695
vt 0.8860350847244263 0.9913835525512695
vt 0.885364830493927 0.9996172189712524
vt 0.8834341764450073 0.9878489971160889
vt 0.8899421095848083 0.9882789254188538
vt 0.8892279863357544 0.9965288043022156
vt 0.8860350847244263 0.9913835525512695
vt 0.8892279863357544 0.9965288043022156
vt 0.885364830493927 0.9996172189712524
vt 0.8860350847244263 0.9913835525512695
vt 0.885364830493927 0.9996172189712524
vt 0.882796049118042 0.9961010813713074
vt 0.8834341764450073 0.9878489971160889
vn -0.00000012817588412872283 -0 -1
vn -0.00000012817588412872283 -0 -1
vn -0.00000012817588412872283 -0 -1
vn -0.909834086894989 0.4149724245071411 -0
vn -0.909834086894989 0.4149724245071411 -0
vn -0.909834086894989 0.4149724245071411 -0
vn 0.7577416300773621 0.6525547504425049 -0
vn 0.7577416300773621 0.6525547504425049 -0
vn 0.7577416300773621 0.6525547504425049 -0
vn 0.7577442526817322 0.6525516510009766 -0
vn 0.7577442526817322 0.6525516510009766 -0
vn 0.7577442526817322 0.6525516510009766 -0
vn -0.9098318815231323 0.4149770736694336 -0
vn -0.9098318815231323 0.4149770736694336 -0
vn -0.9098318815231323 0.4149770736694336 -0
f 3/3/3 2/2/2 1/1/1
f 6/6/6 5/5/5 4/4/4
f 9/9/9 8/8/8 7/7/7
f 12/12/12 11/11/11 10/10/10
f 15/15/15 14/14/14 13/13/13
