# VPXTOOL table OBJ file
# VPXTOOL OBJ file
# numVerts: 135 numFaces: 138
o LM_L_LDS_UnderPF
v 274.642578125 9.634915351867676 -12.153261184692383
v 264.0246276855469 11.746891021728516 -12.153261184692383
v 274.642578125 9.634915351867676 -5.324187755584717
v 264.0246276855469 11.746891021728516 -12.153261184692383
v 253.40664672851563 9.634915351867676 -12.153261184692383
v 264.0246276855469 11.746891021728516 -5.324187755584717
v 264.0246276855469 11.746891021728516 -12.153261184692383
v 264.0246276855469 11.746891021728516 -5.324187755584717
v 274.642578125 9.634915351867676 -5.324187755584717
v 253.40664672851563 9.634915351867676 -12.153261184692383
v 253.40664672851563 9.634915351867676 -5.324187755584717
v 264.0246276855469 11.746891021728516 -5.324187755584717
v 283.6440734863281 3.620229959487915 -12.153261184692383
v 274.642578125 9.634915351867676 -12.153261184692383
v 283.6440734863281 3.620229959487915 -5.324187755584717
v 253.40664672851563 9.634915351867676 -12.153261184692383
v 244.40516662597656 3.620229959487915 -12.153261184692383
v 253.40664672851563 9.634915351867676 -5.324187755584717
v 274.642578125 9.634915351867676 -12.153261184692383
v 274.642578125 9.634915351867676 -5.324187755584717
v 283.6440734863281 3.620229959487915 -5.324187755584717
v 283.6440734863281 3.620229959487915 -5.324187755584717
v 274.642578125 9.634915351867676 -5.324187755584717
v 264.0246276855469 11.746891021728516 -5.324187755584717
v 264.0246276855469 11.746891021728516 -5.324187755584717
v 253.40664672851563 9.634915351867676 -5.324187755584717
v 244.40516662597656 3.620229959487915 -5.324187755584717
v 244.40516662597656 3.620229959487915 -12.153261184692383
v 244.40516662597656 3.620229959487915 -5.324187755584717
v 253.40664672851563 9.634915351867676 -5.324187755584717
v 283.6440734863281 3.620229959487915 -12.153261184692383
v 283.6440734863281 3.620229959487915 -5.324187755584717
v 289.65869140625 -5.381148338317871 -5.324187755584717
v 289.65869140625 -5.381148338317871 -12.153261184692383
v 283.6440734863281 3.620229959487915 -12.153261184692383
v 289.65869140625 -5.381148338317871 -5.324187755584717
v 244.40516662597656 3.620229959487915 -12.153261184692383
v 238.3905792236328 -5.381148338317871 -12.153261184692383
v 244.40516662597656 3.620229959487915 -5.324187755584717
v 264.0246276855469 11.746891021728516 -5.324187755584717
v 244.40516662597656 3.620229959487915 -5.324187755584717
v 236.27854919433594 -15.999222755432129 -5.324187755584717
v 238.3905792236328 -5.381148338317871 -12.153261184692383
v 238.3905792236328 -5.381148338317871 -5.324187755584717
v 244.40516662597656 3.620229959487915 -5.324187755584717
v 291.7707214355469 -15.999222755432129 -5.324187755584717
v 289.65869140625 -5.381148338317871 -5.324187755584717
v 283.6440734863281 3.620229959487915 -5.324187755584717
v 289.65869140625 -5.381148338317871 -12.153261184692383
v 289.65869140625 -5.381148338317871 -5.324187755584717
v 291.7707214355469 -15.999222755432129 -5.324187755584717
v 291.7707214355469 -15.999222755432129 -12.153261184692383
v 289.65869140625 -5.381148338317871 -12.153261184692383
v 291.7707214355469 -15.999222755432129 -5.324187755584717
v 238.3905792236328 -5.381148338317871 -12.153261184692383
v 236.27854919433594 -15.999222755432129 -12.153261184692383
v 238.3905792236328 -5.381148338317871 -5.324187755584717
v 244.40516662597656 3.620229959487915 -5.324187755584717
v 238.3905792236328 -5.381148338317871 -5.324187755584717
v 236.27854919433594 -15.999222755432129 -5.324187755584717
v 264.0246276855469 -43.7452278137207 -5.324187755584717
v 283.6440734863281 3.620229959487915 -5.324187755584717
v 264.0246276855469 11.746891021728516 -5.324187755584717
v 236.27854919433594 -15.999222755432129 -12.153261184692383
v 236.27854919433594 -15.999222755432129 -5.324187755584717
v 238.3905792236328 -5.381148338317871 -5.324187755584717
v 291.7707214355469 -15.999222755432129 -12.153261184692383
v 291.7707214355469 -15.999222755432129 -5.324187755584717
v 289.65869140625 -26.6171875 -5.324187755584717
v 289.65869140625 -26.6171875 -12.153261184692383
v 291.7707214355469 -15.999222755432129 -12.153261184692383
v 289.65869140625 -26.6171875 -5.324187755584717
v 264.0246276855469 11.746891021728516 -5.324187755584717
v 236.27854919433594 -15.999222755432129 -5.324187755584717
v 264.0246276855469 -43.7452278137207 -5.324187755584717
v 236.27854919433594 -15.999222755432129 -12.153261184692383
v 238.3905792236328 -26.6171875 -12.153261184692383
v 236.27854919433594 -15.999222755432129 -5.324187755584717
v 264.0246276855469 -43.7452278137207 -5.324187755584717
v 291.7707214355469 -15.999222755432129 -5.324187755584717
v 238.3905792236328 -26.6171875 -12.153261184692383
v 238.3905792236328 -26.6171875 -5.324187755584717
v 236.27854919433594 -15.999222755432129 -5.324187755584717
v 283.6440734863281 -35.618675231933594 -5.324187755584717
v 289.65869140625 -26.6171875 -5.324187755584717
v 291.7707214355469 -15.999222755432129 -5.324187755584717
v 289.65869140625 -26.6171875 -12.153261184692383
v 289.65869140625 -26.6171875 -5.324187755584717
v 283.6440734863281 -35.618675231933594 -5.324187755584717
v 283.6440734863281 -35.618675231933594 -12.153261184692383
v 289.65869140625 -26.6171875 -12.153261184692383
v 283.6440734863281 -35.618675231933594 -5.324187755584717
v 238.3905792236328 -26.6171875 -12.153261184692383
v 244.40516662597656 -35.618675231933594 -12.153261184692383
v 238.3905792236328 -26.6171875 -5.324187755584717
v 236.27854919433594 -15.999222755432129 -5.324187755584717
v 238.3905792236328 -26.6171875 -5.324187755584717
v 283.6440734863281 -35.618675231933594 -5.324187755584717
v 291.7707214355469 -15.999222755432129 -5.324187755584717
v 244.40516662597656 -35.618675231933594 -12.153261184692383
v 244.40516662597656 -35.618675231933594 -5.324187755584717
v 238.3905792236328 -26.6171875 -5.324187755584717
v 274.642578125 -41.63325119018555 -12.153261184692383
v 283.6440734863281 -35.618675231933594 -12.153261184692383
v 274.642578125 -41.63325119018555 -5.324187755584717
v 283.6440734863281 -35.618675231933594 -12.153261184692383
v 283.6440734863281 -35.618675231933594 -5.324187755584717
v 274.642578125 -41.63325119018555 -5.324187755584717
v 244.40516662597656 -35.618675231933594 -12.153261184692383
v 253.40664672851563 -41.63325119018555 -12.153261184692383
v 244.40516662597656 -35.618675231933594 -5.324187755584717
v 264.0246276855469 -43.7452278137207 -5.324187755584717
v 238.3905792236328 -26.6171875 -5.324187755584717
v 244.40516662597656 -35.618675231933594 -5.324187755584717
v 264.0246276855469 -43.7452278137207 -12.153261184692383
v 274.642578125 -41.63325119018555 -12.153261184692383
v 264.0246276855469 -43.7452278137207 -5.324187755584717
v 253.40664672851563 -41.63325119018555 -12.153261184692383
v 264.0246276855469 -43.7452278137207 -12.153261184692383
v 253.40664672851563 -41.63325119018555 -5.324187755584717
v 253.40664672851563 -41.63325119018555 -12.153261184692383
v 253.40664672851563 -41.63325119018555 -5.324187755584717
v 244.40516662597656 -35.618675231933594 -5.324187755584717
v 274.642578125 -41.63325119018555 -12.153261184692383
v 274.642578125 -41.63325119018555 -5.324187755584717
v 264.0246276855469 -43.7452278137207 -5.324187755584717
v 264.0246276855469 -43.7452278137207 -5.324187755584717
v 274.642578125 -41.63325119018555 -5.324187755584717
v 283.6440734863281 -35.618675231933594 -5.324187755584717
v 264.0246276855469 -43.7452278137207 -12.153261184692383
v 264.0246276855469 -43.7452278137207 -5.324187755584717
v 253.40664672851563 -41.63325119018555 -5.324187755584717
v 244.40516662597656 -35.618675231933594 -5.324187755584717
v 253.40664672851563 -41.63325119018555 -5.324187755584717
v 264.0246276855469 -43.7452278137207 -5.324187755584717
vt 0.35693469643592834 0.8844562768936157
vt 0.35758811235427856 0.8872295618057251
vt 0.35822099447250366 0.8845782279968262
vt 0.35758811235427856 0.8872295618057251
vt 0.35693469643592834 0.8900446891784668
vt 0.3588736355304718 0.8873465061187744
vt 0.35758811235427856 0.8872295618057251
vt 0.3588736355304718 0.8873465061187744
vt 0.35822099447250366 0.8845782279968262
vt 0.35693469643592834 0.8900446891784668
vt 0.35822099447250366 0.8901564478874207
vt 0.3588736355304718 0.8873465061187744
vt 0.35507622361183167 0.88215172290802
vt 0.35693469643592834 0.8844562768936157
vt 0.3563646972179413 0.8822777271270752
vt 0.35693469643592834 0.8900446891784668
vt 0.35507622361183167 0.8924681544303894
vt 0.35822099447250366 0.8901564478874207
vt 0.35693469643592834 0.8844562768936157
vt 0.35822099447250366 0.8845782279968262
vt 0.3563646972179413 0.8822777271270752
vt 0.3563646972179413 0.8822777271270752
vt 0.35822099447250366 0.8845782279968262
vt 0.3588736355304718 0.8873465061187744
vt 0.3588736355304718 0.8873465061187744
vt 0.35822099447250366 0.8901564478874207
vt 0.3563646972179413 0.8925754427909851
vt 0.35507622361183167 0.8924681544303894
vt 0.3563646972179413 0.8925754427909851
vt 0.35822099447250366 0.8901564478874207
vt 0.35507622361183167 0.88215172290802
vt 0.3563646972179413 0.8822777271270752
vt 0.35359299182891846 0.8807970881462097
vt 0.3523012101650238 0.8806685209274292
vt 0.35507622361183167 0.88215172290802
vt 0.35359299182891846 0.8807970881462097
vt 0.35507622361183167 0.8924681544303894
vt 0.3523012101650238 0.8941289186477661
vt 0.3563646972179413 0.8925754427909851
vt 0.3588736355304718 0.8873465061187744
vt 0.3563646972179413 0.8925754427909851
vt 0.3503333628177643 0.8948788046836853
vt 0.3523012101650238 0.8941289186477661
vt 0.35359299182891846 0.8942330479621887
vt 0.3563646972179413 0.8925754427909851
vt 0.3503333628177643 0.8803595304489136
vt 0.35359299182891846 0.8807970881462097
vt 0.3563646972179413 0.8822777271270752
vt 0.3523012101650238 0.8806685209274292
vt 0.35359299182891846 0.8807970881462097
vt 0.3503333628177643 0.8803595304489136
vt 0.3490377962589264 0.8802303671836853
vt 0.3523012101650238 0.8806685209274292
vt 0.3503333628177643 0.8803595304489136
vt 0.3523012101650238 0.8941289186477661
vt 0.3490377962589264 0.8947760462760925
vt 0.35359299182891846 0.8942330479621887
vt 0.3563646972179413 0.8925754427909851
vt 0.35359299182891846 0.8942330479621887
vt 0.3503333628177643 0.8948788046836853
vt 0.3418654501438141 0.8878895044326782
vt 0.3563646972179413 0.8822777271270752
vt 0.3588736355304718 0.8873465061187744
vt 0.3490377962589264 0.8947760462760925
vt 0.3503333628177643 0.8948788046836853
vt 0.35359299182891846 0.8942330479621887
vt 0.3490377962589264 0.8802303671836853
vt 0.3503333628177643 0.8803595304489136
vt 0.34708431363105774 0.8810267448425293
vt 0.3457849621772766 0.8808990120887756
vt 0.3490377962589264 0.8802303671836853
vt 0.34708431363105774 0.8810267448425293
vt 0.3588736355304718 0.8873465061187744
vt 0.3503333628177643 0.8948788046836853
vt 0.3418654501438141 0.8878895044326782
vt 0.3490377962589264 0.8947760462760925
vt 0.3457849621772766 0.8943156003952026
vt 0.3503333628177643 0.8948788046836853
vt 0.3418654501438141 0.8878895044326782
vt 0.3503333628177643 0.8803595304489136
vt 0.3457849621772766 0.8943156003952026
vt 0.34708431363105774 0.8944190144538879
vt 0.3503333628177643 0.8948788046836853
vt 0.34433820843696594 0.8826925754547119
vt 0.34708431363105774 0.8810267448425293
vt 0.3503333628177643 0.8803595304489136
vt 0.3457849621772766 0.8808990120887756
vt 0.34708431363105774 0.8810267448425293
vt 0.34433820843696594 0.8826925754547119
vt 0.34303563833236694 0.8825680613517761
vt 0.3457849621772766 0.8808990120887756
vt 0.34433820843696594 0.8826925754547119
vt 0.3457849621772766 0.8943156003952026
vt 0.34303563833236694 0.8928225040435791
vt 0.34708431363105774 0.8944190144538879
vt 0.3503333628177643 0.8948788046836853
vt 0.34708431363105774 0.8944190144538879
vt 0.34433820843696594 0.8826925754547119
vt 0.3503333628177643 0.8803595304489136
vt 0.34303563833236694 0.8928225040435791
vt 0.34433820843696594 0.8929284811019897
vt 0.34708431363105774 0.8944190144538879
vt 0.34120285511016846 0.8849816918373108
vt 0.34303563833236694 0.8825680613517761
vt 0.3425075113773346 0.8851017355918884
vt 0.34303563833236694 0.8825680613517761
vt 0.34433820843696594 0.8826925754547119
vt 0.3425075113773346 0.8851017355918884
vt 0.34303563833236694 0.8928225040435791
vt 0.34120285511016846 0.8905262351036072
vt 0.34433820843696594 0.8929284811019897
vt 0.3418654501438141 0.8878895044326782
vt 0.34708431363105774 0.8944190144538879
vt 0.34433820843696594 0.8929284811019897
vt 0.34056004881858826 0.8877745270729065
vt 0.34120285511016846 0.8849816918373108
vt 0.3418654501438141 0.8878895044326782
vt 0.34120285511016846 0.8905262351036072
vt 0.34056004881858826 0.8877745270729065
vt 0.3425075113773346 0.8906362652778625
vt 0.34120285511016846 0.8905262351036072
vt 0.3425075113773346 0.8906362652778625
vt 0.34433820843696594 0.8929284811019897
vt 0.34120285511016846 0.8849816918373108
vt 0.3425075113773346 0.8851017355918884
vt 0.3418654501438141 0.8878895044326782
vt 0.3418654501438141 0.8878895044326782
vt 0.3425075113773346 0.8851017355918884
vt 0.34433820843696594 0.8826925754547119
vt 0.34056004881858826 0.8877745270729065
vt 0.3418654501438141 0.8878895044326782
vt 0.3425075113773346 0.8906362652778625
vt 0.34433820843696594 0.8929284811019897
vt 0.3425075113773346 0.8906362652778625
vt 0.3418654501438141 0.8878895044326782
vn -0.19508405029773712 -0.9807865023612976 -0
vn -0.19508405029773712 -0.9807865023612976 -0
vn -0.19508405029773712 -0.9807865023612976 -0
vn 0.1950850784778595 -0.9807862639427185 -0
vn 0.1950850784778595 -0.9807862639427185 -0
vn 0.1950850784778595 -0.9807862639427185 -0
vn -0.1950840801000595 -0.9807865023612976 -0
vn -0.1950840801000595 -0.9807865023612976 -0
vn -0.1950840801000595 -0.9807865023612976 -0
vn 0.1950840801000595 -0.9807865023612976 -0
vn 0.1950840801000595 -0.9807865023612976 -0
vn 0.1950840801000595 -0.9807865023612976 -0
vn -0.5555771589279175 -0.831464946269989 -0
vn -0.5555771589279175 -0.831464946269989 -0
vn -0.5555771589279175 -0.831464946269989 -0
vn 0.5555745959281921 -0.831466555595398 -0
vn 0.5555745959281921 -0.831466555595398 -0
vn 0.5555745959281921 -0.831466555595398 -0
vn -0.5555745363235474 -0.8314667344093323 -0
vn -0.5555745363235474 -0.8314667344093323 -0
vn -0.5555745363235474 -0.8314667344093323 -0
vn 0 -0 -1
vn 0 -0 -1
vn 0 -0 -1
vn -0.00000003480129961985767 -0 -1
vn -0.00000003480129961985767 -0 -1
vn -0.00000003480129961985767 -0 -1
vn 0.5555757880210876 -0.8314658999443054 -0
vn 0.5555757880210876 -0.8314658999443054 -0
vn 0.5555757880210876 -0.8314658999443054 -0
vn -0.8314648270606995 -0.5555773973464966 -0
vn -0.8314648270606995 -0.5555773973464966 -0
vn -0.8314648270606995 -0.5555773973464966 -0
vn -0.8314648270606995 -0.5555774569511414 -0
vn -0.8314648270606995 -0.5555774569511414 -0
vn -0.8314648270606995 -0.5555774569511414 -0
vn 0.8314672708511353 -0.5555737018585205 -0
vn 0.8314672708511353 -0.5555737018585205 -0
vn 0.8314672708511353 -0.5555737018585205 -0
vn 0.000000019580173926669886 -0 -1
vn 0.000000019580173926669886 -0 -1
vn 0.000000019580173926669886 -0 -1
vn 0.83146733045578 -0.5555737018585205 -0
vn 0.83146733045578 -0.5555737018585205 -0
vn 0.83146733045578 -0.5555737018585205 -0
vn 0.00000027841150540552917 -0 -1
vn 0.00000027841150540552917 -0 -1
vn 0.00000027841150540552917 -0 -1
vn -0.9807860255241394 -0.19508622586727142 -0
vn -0.9807860255241394 -0.19508622586727142 -0
vn -0.9807860255241394 -0.19508622586727142 -0
vn -0.9807860851287842 -0.19508618116378784 -0
vn -0.9807860851287842 -0.19508618116378784 -0
vn -0.9807860851287842 -0.19508618116378784 -0
vn 0.9807860851287842 -0.19508618116378784 -0
vn 0.9807860851287842 -0.19508618116378784 -0
vn 0.9807860851287842 -0.19508618116378784 -0
vn -0.00000013920755748131342 -0 -1
vn -0.00000013920755748131342 -0 -1
vn -0.00000013920755748131342 -0 -1
vn 0 -0 -0.9999999403953552
vn 0 -0 -0.9999999403953552
vn 0 -0 -0.9999999403953552
vn 0.9807860255241394 -0.19508622586727142 -0
vn 0.9807860255241394 -0.19508622586727142 -0
vn 0.9807860255241394 -0.19508622586727142 -0
vn -0.9807857275009155 0.19508817791938782 -0
vn -0.9807857275009155 0.19508817791938782 -0
vn -0.9807857275009155 0.19508817791938782 -0
vn -0.9807857275009155 0.1950882077217102 -0
vn -0.9807857275009155 0.1950882077217102 -0
vn -0.9807857275009155 0.1950882077217102 -0
vn -0.000000016220798926269708 -0 -1
vn -0.000000016220798926269708 -0 -1
vn -0.000000016220798926269708 -0 -1
vn 0.9807857275009155 0.1950882077217102 -0
vn 0.9807857275009155 0.1950882077217102 -0
vn 0.9807857275009155 0.1950882077217102 -0
vn 0 -0 -1
vn 0 -0 -1
vn 0.9807857275009155 0.19508817791938782 -0
vn 0.9807857275009155 0.19508817791938782 -0
vn 0.9807857275009155 0.19508817791938782 -0
vn 0.00000013920852381943405 -0 -1
vn 0.00000013920852381943405 -0 -1
vn 0.00000013920852381943405 -0 -1
vn -0.8314679265022278 0.5555727481842041 -0
vn -0.8314679265022278 0.5555727481842041 -0
vn -0.8314679265022278 0.5555727481842041 -0
vn -0.8314680457115173 0.5555726289749146 -0
vn -0.8314680457115173 0.5555726289749146 -0
vn -0.8314680457115173 0.5555726289749146 -0
vn 0.8314706087112427 0.5555689334869385 -0
vn 0.8314706087112427 0.5555689334869385 -0
vn 0.8314706087112427 0.5555689334869385 -0
vn 0 -0 -1
vn 0 -0 -1
vn 0 -0 -0.9999999403953552
vn 0 -0 -0.9999999403953552
vn 0.8314704895019531 0.5555689930915833 -0
vn 0.8314704895019531 0.5555689930915833 -0
vn 0.8314704895019531 0.5555689930915833 -0
vn -0.5555675625801086 0.8314713835716248 -0
vn -0.5555675625801086 0.8314713835716248 -0
vn -0.5555675625801086 0.8314713835716248 -0
vn -0.5555700659751892 0.8314697742462158 -0
vn -0.5555700659751892 0.8314697742462158 -0
vn -0.5555700659751892 0.8314697742462158 -0
vn 0.5555688142776489 0.8314705491065979 -0
vn 0.5555688142776489 0.8314705491065979 -0
vn 0.5555688142776489 0.8314705491065979 -0
vn -0.00000009776730536259493 -0 -1
vn -0.00000009776730536259493 -0 -1
vn -0.00000009776730536259493 -0 -1
vn -0.19508405029773712 0.9807865023612976 -0
vn -0.19508405029773712 0.9807865023612976 -0
vn -0.19508405029773712 0.9807865023612976 -0
vn 0.19508405029773712 0.9807865023612976 -0
vn 0.19508405029773712 0.9807865023612976 -0
vn 0.19508405029773712 0.9807865023612976 -0
vn 0.5555675625801086 0.8314713835716248 -0
vn 0.5555675625801086 0.8314713835716248 -0
vn 0.5555675625801086 0.8314713835716248 -0
vn -0.1950840801000595 0.9807865023612976 -0
vn -0.1950840801000595 0.9807865023612976 -0
vn -0.1950840801000595 0.9807865023612976 -0
vn -0.00000010440657405297316 -0 -1
vn -0.00000010440657405297316 -0 -1
vn -0.00000010440657405297316 -0 -1
vn 0.19508510828018188 0.9807862639427185 -0
vn 0.19508510828018188 0.9807862639427185 -0
vn 0.19508510828018188 0.9807862639427185 -0
vn 0.00000013920860908456234 -0 -1
vn 0.00000013920860908456234 -0 -1
vn 0.00000013920860908456234 -0 -1
f 3/3/3 2/2/2 1/1/1
f 6/6/6 5/5/5 4/4/4
f 9/9/9 8/8/8 7/7/7
f 12/12/12 11/11/11 10/10/10
f 15/15/15 14/14/14 13/13/13
f 18/18/18 17/17/17 16/16/16
f 21/21/21 20/20/20 19/19/19
f 24/24/24 23/23/23 22/22/22
f 27/27/27 26/26/26 25/25/25
f 30/30/30 29/29/29 28/28/28
f 33/33/33 32/32/32 31/31/31
f 36/36/36 35/35/35 34/34/34
f 39/39/39 38/38/38 37/37/37
f 42/42/42 41/41/41 40/40/40
f 45/45/45 44/44/44 43/43/43
f 48/48/48 47/47/47 46/46/46
f 51/51/51 50/50/50 49/49/49
f 54/54/54 53/53/53 52/52/52
f 57/57/57 56/56/56 55/55/55
f 60/60/60 59/59/59 58/58/58
f 63/63/63 62/62/62 61/61/61
f 66/66/66 65/65/65 64/64/64
f 69/69/69 68/68/68 67/67/67
f 72/72/72 71/71/71 70/70/70
f 75/75/75 74/74/74 73/73/73
f 78/78/78 77/77/77 76/76/76
f 22/22/22 80/80/80 79/79/79
f 83/83/83 82/82/82 81/81/81
f 86/86/86 85/85/85 84/84/84
f 89/89/89 88/88/88 87/87/87
f 92/92/92 91/91/91 90/90/90
f 95/95/95 94/94/94 93/93/93
f 97/97/97 96/96/96 79/79/79
f 99/99/99 98/98/98 61/61/61
f 102/102/102 101/101/101 100/100/100
f 105/105/105 104/104/104 103/103/103
f 108/108/108 107/107/107 106/106/106
f 111/111/111 110/110/110 109/109/109
f 114/114/114 113/113/113 112/112/112
f 117/117/117 116/116/116 115/115/115
f 120/120/120 119/119/119 118/118/118
f 123/123/123 122/122/122 121/121/121
f 126/126/126 125/125/125 124/124/124
f 129/129/129 128/128/128 127/127/127
f 132/132/132 131/131/131 130/130/130
f 135/135/135 134/134/134 133/133/133
