# VPXTOOL table OBJ file
# VPXTOOL OBJ file
# numVerts: 129 numFaces: 138
o LM_L_LLI_UnderPF
v -301.20379638671875 482.80426025390625 -32.3721809387207
v -310.22906494140625 484.5995178222656 -32.3721809387207
v -301.20379638671875 482.80426025390625 -26.567468643188477
v -293.55255126953125 477.69189453125 -32.3721809387207
v -301.20379638671875 482.80426025390625 -32.3721809387207
v -293.55255126953125 477.69189453125 -26.567468643188477
v -310.22906494140625 484.5995178222656 -32.3721809387207
v -319.25433349609375 482.80426025390625 -32.3721809387207
v -310.22906494140625 484.5995178222656 -26.567468643188477
v -301.20379638671875 482.80426025390625 -32.3721809387207
v -301.20379638671875 482.80426025390625 -26.567468643188477
v -293.55255126953125 477.69189453125 -26.567468643188477
v -310.22906494140625 484.5995178222656 -32.3721809387207
v -310.22906494140625 484.5995178222656 -26.567468643188477
v -301.20379638671875 482.80426025390625 -26.567468643188477
v -288.44012451171875 470.0406188964844 -32.3721809387207
v -293.55255126953125 477.69189453125 -32.3721809387207
v -288.44012451171875 470.0406188964844 -26.567468643188477
v -293.55255126953125 477.69189453125 -32.3721809387207
v -293.55255126953125 477.69189453125 -26.567468643188477
v -288.44012451171875 470.0406188964844 -26.567468643188477
v -319.25433349609375 482.80426025390625 -32.3721809387207
v -319.25433349609375 482.80426025390625 -26.567468643188477
v -310.22906494140625 484.5995178222656 -26.567468643188477
v -319.25433349609375 482.80426025390625 -32.3721809387207
v -326.9056091308594 477.69189453125 -32.3721809387207
v -319.25433349609375 482.80426025390625 -26.567468643188477
v -286.6448974609375 461.0152893066406 -26.567468643188477
v -301.20379638671875 482.80426025390625 -26.567468643188477
v -310.22906494140625 484.5995178222656 -26.567468643188477
v -293.55255126953125 477.69189453125 -26.567468643188477
v -288.44012451171875 470.0406188964844 -32.3721809387207
v -288.44012451171875 470.0406188964844 -26.567468643188477
v -286.6448974609375 461.0152893066406 -26.567468643188477
v -286.6448974609375 461.0152893066406 -32.3721809387207
v -288.44012451171875 470.0406188964844 -32.3721809387207
v -286.6448974609375 461.0152893066406 -26.567468643188477
v -288.44012451171875 470.0406188964844 -26.567468643188477
v -326.9056091308594 477.69189453125 -32.3721809387207
v -326.9056091308594 477.69189453125 -26.567468643188477
v -319.25433349609375 482.80426025390625 -26.567468643188477
v -326.9056091308594 477.69189453125 -32.3721809387207
v -332.0180358886719 470.0406188964844 -32.3721809387207
v -326.9056091308594 477.69189453125 -26.567468643188477
v -333.8132629394531 461.0152893066406 -26.567468643188477
v -319.25433349609375 482.80426025390625 -26.567468643188477
v -286.6448974609375 461.0152893066406 -32.3721809387207
v -286.6448974609375 461.0152893066406 -26.567468643188477
v -288.44012451171875 451.99005126953125 -26.567468643188477
v -333.8132629394531 461.0152893066406 -26.567468643188477
v -319.25433349609375 482.80426025390625 -26.567468643188477
v -326.9056091308594 477.69189453125 -26.567468643188477
v -332.0180358886719 470.0406188964844 -32.3721809387207
v -332.0180358886719 470.0406188964844 -26.567468643188477
v -326.9056091308594 477.69189453125 -26.567468643188477
v -288.44012451171875 451.99005126953125 -32.3721809387207
v -286.6448974609375 461.0152893066406 -32.3721809387207
v -288.44012451171875 451.99005126953125 -26.567468643188477
v -310.22906494140625 437.4311828613281 -26.567468643188477
v -286.6448974609375 461.0152893066406 -26.567468643188477
v -310.22906494140625 484.5995178222656 -26.567468643188477
v -332.0180358886719 470.0406188964844 -32.3721809387207
v -333.8132629394531 461.0152893066406 -32.3721809387207
v -332.0180358886719 470.0406188964844 -26.567468643188477
v -326.9056091308594 477.69189453125 -26.567468643188477
v -332.0180358886719 470.0406188964844 -26.567468643188477
v -333.8132629394531 461.0152893066406 -26.567468643188477
v -293.55255126953125 444.33880615234375 -26.567468643188477
v -288.44012451171875 451.99005126953125 -26.567468643188477
v -286.6448974609375 461.0152893066406 -26.567468643188477
v -288.44012451171875 451.99005126953125 -32.3721809387207
v -288.44012451171875 451.99005126953125 -26.567468643188477
v -293.55255126953125 444.33880615234375 -26.567468643188477
v -310.22906494140625 484.5995178222656 -26.567468643188477
v -333.8132629394531 461.0152893066406 -26.567468643188477
v -310.22906494140625 437.4311828613281 -26.567468643188477
v -333.8132629394531 461.0152893066406 -32.3721809387207
v -333.8132629394531 461.0152893066406 -26.567468643188477
v -332.0180358886719 470.0406188964844 -26.567468643188477
v -293.55255126953125 444.33880615234375 -32.3721809387207
v -288.44012451171875 451.99005126953125 -32.3721809387207
v -293.55255126953125 444.33880615234375 -26.567468643188477
v -333.8132629394531 461.0152893066406 -32.3721809387207
v -332.0180358886719 451.99005126953125 -32.3721809387207
v -333.8132629394531 461.0152893066406 -26.567468643188477
v -286.6448974609375 461.0152893066406 -26.567468643188477
v -301.20379638671875 439.2264404296875 -26.567468643188477
v -293.55255126953125 444.33880615234375 -26.567468643188477
v -293.55255126953125 444.33880615234375 -32.3721809387207
v -293.55255126953125 444.33880615234375 -26.567468643188477
v -301.20379638671875 439.2264404296875 -26.567468643188477
v -301.20379638671875 439.2264404296875 -32.3721809387207
v -293.55255126953125 444.33880615234375 -32.3721809387207
v -301.20379638671875 439.2264404296875 -26.567468643188477
v -310.22906494140625 437.4311828613281 -26.567468643188477
v -332.0180358886719 451.99005126953125 -32.3721809387207
v -332.0180358886719 451.99005126953125 -26.567468643188477
v -333.8132629394531 461.0152893066406 -26.567468643188477
v -332.0180358886719 451.99005126953125 -32.3721809387207
v -326.9056091308594 444.33880615234375 -32.3721809387207
v -332.0180358886719 451.99005126953125 -26.567468643188477
v -333.8132629394531 461.0152893066406 -26.567468643188477
v -332.0180358886719 451.99005126953125 -26.567468643188477
v -326.9056091308594 444.33880615234375 -26.567468643188477
v -310.22906494140625 437.4311828613281 -32.3721809387207
v -301.20379638671875 439.2264404296875 -32.3721809387207
v -310.22906494140625 437.4311828613281 -26.567468643188477
v -301.20379638671875 439.2264404296875 -32.3721809387207
v -301.20379638671875 439.2264404296875 -26.567468643188477
v -310.22906494140625 437.4311828613281 -26.567468643188477
v -326.9056091308594 444.33880615234375 -32.3721809387207
v -326.9056091308594 444.33880615234375 -26.567468643188477
v -332.0180358886719 451.99005126953125 -26.567468643188477
v -326.9056091308594 444.33880615234375 -32.3721809387207
v -319.25433349609375 439.2264404296875 -32.3721809387207
v -326.9056091308594 444.33880615234375 -26.567468643188477
v -326.9056091308594 444.33880615234375 -26.567468643188477
v -319.25433349609375 439.2264404296875 -26.567468643188477
v -319.25433349609375 439.2264404296875 -26.567468643188477
v -310.22906494140625 437.4311828613281 -26.567468643188477
v -319.25433349609375 439.2264404296875 -32.3721809387207
v -310.22906494140625 437.4311828613281 -32.3721809387207
v -319.25433349609375 439.2264404296875 -26.567468643188477
v -310.22906494140625 437.4311828613281 -32.3721809387207
v -310.22906494140625 437.4311828613281 -26.567468643188477
v -319.25433349609375 439.2264404296875 -26.567468643188477
v -319.25433349609375 439.2264404296875 -32.3721809387207
v -319.25433349609375 439.2264404296875 -26.567468643188477
v -326.9056091308594 444.33880615234375 -26.567468643188477
vt 0.8647331595420837 0.7905977964401245
vt 0.8661486506462097 0.7918679714202881
vt 0.8666511178016663 0.7905197143554688
vt 0.8607068657875061 0.7894943356513977
vt 0.8647331595420837 0.7905977964401245
vt 0.8626300096511841 0.7894181609153748
vt 0.8661486506462097 0.7918679714202881
vt 0.8647331595420837 0.7931094169616699
vt 0.868064820766449 0.7917876839637756
vt 0.8647331595420837 0.7905977964401245
vt 0.8666511178016663 0.7905197143554688
vt 0.8626300096511841 0.7894181609153748
vt 0.8661486506462097 0.7918679714202881
vt 0.868064820766449 0.7917876839637756
vt 0.8666511178016663 0.7905197143554688
vt 0.8546940088272095 0.7887265086174011
vt 0.8607068657875061 0.7894943356513977
vt 0.8566247820854187 0.788651704788208
vt 0.8607068657875061 0.7894943356513977
vt 0.8626300096511841 0.7894181609153748
vt 0.8566247820854187 0.788651704788208
vt 0.8647331595420837 0.7931094169616699
vt 0.8666511178016663 0.7930270433425903
vt 0.868064820766449 0.7917876839637756
vt 0.8647331595420837 0.7931094169616699
vt 0.8607068657875061 0.7941312193870544
vt 0.8666511178016663 0.7930270433425903
vt 0.8495609164237976 0.7883362770080566
vt 0.8666511178016663 0.7905197143554688
vt 0.868064820766449 0.7917876839637756
vt 0.8626300096511841 0.7894181609153748
vt 0.8546940088272095 0.7887265086174011
vt 0.8566247820854187 0.788651704788208
vt 0.8495609164237976 0.7883362770080566
vt 0.8476212024688721 0.7884104251861572
vt 0.8546940088272095 0.7887265086174011
vt 0.8495609164237976 0.7883362770080566
vt 0.8566247820854187 0.788651704788208
vt 0.8607068657875061 0.7941312193870544
vt 0.8626300096511841 0.7940472364425659
vt 0.8666511178016663 0.7930270433425903
vt 0.8607068657875061 0.7941312193870544
vt 0.8546940088272095 0.7947770953178406
vt 0.8626300096511841 0.7940472364425659
vt 0.8495609164237976 0.7948645353317261
vt 0.8666511178016663 0.7930270433425903
vt 0.8476212024688721 0.7884104251861572
vt 0.8495609164237976 0.7883362770080566
vt 0.8425182700157166 0.7885180711746216
vt 0.8495609164237976 0.7948645353317261
vt 0.8666511178016663 0.7930270433425903
vt 0.8626300096511841 0.7940472364425659
vt 0.8546940088272095 0.7947770953178406
vt 0.8566247820854187 0.7946920990943909
vt 0.8626300096511841 0.7940472364425659
vt 0.8405696749687195 0.7885923981666565
vt 0.8476212024688721 0.7884104251861572
vt 0.8425182700157166 0.7885180711746216
vt 0.8312022089958191 0.7914146184921265
vt 0.8495609164237976 0.7883362770080566
vt 0.868064820766449 0.7917876839637756
vt 0.8546940088272095 0.7947770953178406
vt 0.8476212024688721 0.7949496507644653
vt 0.8566247820854187 0.7946920990943909
vt 0.8626300096511841 0.7940472364425659
vt 0.8566247820854187 0.7946920990943909
vt 0.8495609164237976 0.7948645353317261
vt 0.8365643620491028 0.7891672253608704
vt 0.8425182700157166 0.7885180711746216
vt 0.8495609164237976 0.7883362770080566
vt 0.8405696749687195 0.7885923981666565
vt 0.8425182700157166 0.7885180711746216
vt 0.8365643620491028 0.7891672253608704
vt 0.868064820766449 0.7917876839637756
vt 0.8495609164237976 0.7948645353317261
vt 0.8312022089958191 0.7914146184921265
vt 0.8476212024688721 0.7949496507644653
vt 0.8495609164237976 0.7948645353317261
vt 0.8566247820854187 0.7946920990943909
vt 0.834608256816864 0.7892425656318665
vt 0.8405696749687195 0.7885923981666565
vt 0.8365643620491028 0.7891672253608704
vt 0.8476212024688721 0.7949496507644653
vt 0.8405696749687195 0.7946247458457947
vt 0.8495609164237976 0.7948645353317261
vt 0.8495609164237976 0.7883362770080566
vt 0.8325945734977722 0.7901841402053833
vt 0.8365643620491028 0.7891672253608704
vt 0.834608256816864 0.7892425656318665
vt 0.8365643620491028 0.7891672253608704
vt 0.8325945734977722 0.7901841402053833
vt 0.8306335210800171 0.7902611494064331
vt 0.834608256816864 0.7892425656318665
vt 0.8325945734977722 0.7901841402053833
vt 0.8312022089958191 0.7914146184921265
vt 0.8405696749687195 0.7946247458457947
vt 0.8425182700157166 0.794540286064148
vt 0.8495609164237976 0.7948645353317261
vt 0.8405696749687195 0.7946247458457947
vt 0.834608256816864 0.7938536405563354
vt 0.8425182700157166 0.794540286064148
vt 0.8495609164237976 0.7948645353317261
vt 0.8425182700157166 0.794540286064148
vt 0.8365643620491028 0.7937705516815186
vt 0.8292393088340759 0.7914936542510986
vt 0.8306335210800171 0.7902611494064331
vt 0.8312022089958191 0.7914146184921265
vt 0.8306335210800171 0.7902611494064331
vt 0.8325945734977722 0.7901841402053833
vt 0.8312022089958191 0.7914146184921265
vt 0.834608256816864 0.7938536405563354
vt 0.8365643620491028 0.7937705516815186
vt 0.8425182700157166 0.794540286064148
vt 0.834608256816864 0.7938536405563354
vt 0.8306335210800171 0.7927544713020325
vt 0.8365643620491028 0.7937705516815186
vt 0.8365643620491028 0.7937705516815186
vt 0.8325945734977722 0.7926733493804932
vt 0.8325945734977722 0.7926733493804932
vt 0.8312022089958191 0.7914146184921265
vt 0.8306335210800171 0.7927544713020325
vt 0.8292393088340759 0.7914936542510986
vt 0.8325945734977722 0.7926733493804932
vt 0.8292393088340759 0.7914936542510986
vt 0.8312022089958191 0.7914146184921265
vt 0.8325945734977722 0.7926733493804932
vt 0.8306335210800171 0.7927544713020325
vt 0.8325945734977722 0.7926733493804932
vt 0.8365643620491028 0.7937705516815186
vn -0.19509312510490417 -0.9807847738265991 -0
vn -0.19509312510490417 -0.9807847738265991 -0
vn -0.19509312510490417 -0.9807847738265991 -0
vn -0.5555693507194519 -0.8314701914787292 -0
vn -0.5555693507194519 -0.8314701914787292 -0
vn -0.5555693507194519 -0.8314701914787292 -0
vn 0.19509312510490417 -0.9807847738265991 -0
vn 0.19509312510490417 -0.9807847738265991 -0
vn 0.19509312510490417 -0.9807847738265991 -0
vn -0.5555655360221863 -0.8314726948738098 -0
vn -0.5555655360221863 -0.8314726948738098 -0
vn -0.5555655360221863 -0.8314726948738098 -0
vn -0.19509276747703552 -0.9807847738265991 -0
vn -0.19509276747703552 -0.9807847738265991 -0
vn -0.19509276747703552 -0.9807847738265991 -0
vn -0.8314697742462158 -0.5555700063705444 -0
vn -0.8314697742462158 -0.5555700063705444 -0
vn -0.8314697742462158 -0.5555700063705444 -0
vn -0.831467866897583 -0.5555727481842041 -0
vn -0.831467866897583 -0.5555727481842041 -0
vn -0.831467866897583 -0.5555727481842041 -0
vn 0.19509276747703552 -0.9807847738265991 -0
vn 0.19509276747703552 -0.9807847738265991 -0
vn 0.19509276747703552 -0.9807847738265991 -0
vn 0.5555658936500549 -0.8314725756645203 -0
vn 0.5555658936500549 -0.8314725756645203 -0
vn 0.5555658936500549 -0.8314725756645203 -0
vn 0 -0 -1
vn 0 -0 -1
vn 0 -0 -1
vn 0 -0 -1
vn -0.9807858467102051 -0.19508738815784454 -0
vn -0.9807858467102051 -0.19508738815784454 -0
vn -0.9807858467102051 -0.19508738815784454 -0
vn -0.9807851910591125 -0.1950906366109848 -0
vn -0.9807851910591125 -0.1950906366109848 -0
vn -0.9807851910591125 -0.1950906366109848 -0
vn 0 -0 -1
vn 0.5555655360221863 -0.8314726948738098 -0
vn 0.5555655360221863 -0.8314726948738098 -0
vn 0.5555655360221863 -0.8314726948738098 -0
vn 0.8314680457115173 -0.5555725693702698 -0
vn 0.8314680457115173 -0.5555725693702698 -0
vn 0.8314680457115173 -0.5555725693702698 -0
vn 0 -0 -1
vn 0 -0 -1
vn -0.9807847142219543 0.1950933337211609 -0
vn -0.9807847142219543 0.1950933337211609 -0
vn -0.9807847142219543 0.1950933337211609 -0
vn 0 -0 -0.9999999403953552
vn 0 -0 -0.9999999403953552
vn 0 -0 -0.9999999403953552
vn 0.8314713835716248 -0.5555676221847534 -0
vn 0.8314713835716248 -0.5555676221847534 -0
vn 0.8314713835716248 -0.5555676221847534 -0
vn -0.9807854294776917 0.19508937001228333 -0
vn -0.9807854294776917 0.19508937001228333 -0
vn -0.9807854294776917 0.19508937001228333 -0
vn -0.00000008980362764532401 -0 -1
vn -0.00000008980362764532401 -0 -1
vn -0.00000008980362764532401 -0 -1
vn 0.9807844758033752 -0.1950942426919937 -0
vn 0.9807844758033752 -0.1950942426919937 -0
vn 0.9807844758033752 -0.1950942426919937 -0
vn -0.0000007707105282861448 -0 -1
vn -0.0000007707105282861448 -0 -1
vn -0.0000007707105282861448 -0 -1
vn -0.0000007707105282861448 -0 -1
vn -0.0000007707105282861448 -0 -1
vn -0.0000007707105282861448 -0 -1
vn -0.8314695954322815 0.5555701851844788 -0
vn -0.8314695954322815 0.5555701851844788 -0
vn -0.8314695954322815 0.5555701851844788 -0
vn 0.00000008980349264220422 -0 -0.9999999403953552
vn 0.00000008980349264220422 -0 -0.9999999403953552
vn 0.00000008980349264220422 -0 -0.9999999403953552
vn 0.9807858467102051 -0.19508738815784454 -0
vn 0.9807858467102051 -0.19508738815784454 -0
vn 0.9807858467102051 -0.19508738815784454 -0
vn -0.8314680457115173 0.5555725693702698 -0
vn -0.8314680457115173 0.5555725693702698 -0
vn -0.8314680457115173 0.5555725693702698 -0
vn 0.9807854294776917 0.19508937001228333 -0
vn 0.9807854294776917 0.19508937001228333 -0
vn 0.9807854294776917 0.19508937001228333 -0
vn 0 -0 -0.9999999403953552
vn 0 -0 -0.9999999403953552
vn 0 -0 -0.9999999403953552
vn -0.5555689930915833 0.8314703702926636 -0
vn -0.5555689930915833 0.8314703702926636 -0
vn -0.5555689930915833 0.8314703702926636 -0
vn -0.5555658936500549 0.8314725756645203 -0
vn -0.5555658936500549 0.8314725756645203 -0
vn -0.5555658936500549 0.8314725756645203 -0
vn 0 -0 -0.9999999403953552
vn 0.980783998966217 0.1950969249010086 -0
vn 0.980783998966217 0.1950969249010086 -0
vn 0.980783998966217 0.1950969249010086 -0
vn 0.8314715623855591 0.5555674433708191 -0
vn 0.8314715623855591 0.5555674433708191 -0
vn 0.8314715623855591 0.5555674433708191 -0
vn 0.0000015414306062666583 -0 -1
vn 0.0000015414306062666583 -0 -1
vn 0.0000015414306062666583 -0 -1
vn -0.19509312510490417 0.9807847738265991 -0
vn -0.19509312510490417 0.9807847738265991 -0
vn -0.19509312510490417 0.9807847738265991 -0
vn -0.19509276747703552 0.9807847738265991 -0
vn -0.19509276747703552 0.9807847738265991 -0
vn -0.19509276747703552 0.9807847738265991 -0
vn 0.831467866897583 0.5555727481842041 -0
vn 0.831467866897583 0.5555727481842041 -0
vn 0.831467866897583 0.5555727481842041 -0
vn 0.5555658936500549 0.8314725756645203 -0
vn 0.5555658936500549 0.8314725756645203 -0
vn 0.5555658936500549 0.8314725756645203 -0
vn 0 -0 -0.9999999403953552
vn 0 -0 -0.9999999403953552
vn 0 -0 -1
vn 0 -0 -1
vn 0.19509312510490417 0.9807847738265991 -0
vn 0.19509312510490417 0.9807847738265991 -0
vn 0.19509312510490417 0.9807847738265991 -0
vn 0.19509276747703552 0.9807847738265991 -0
vn 0.19509276747703552 0.9807847738265991 -0
vn 0.19509276747703552 0.9807847738265991 -0
vn 0.5555655360221863 0.8314726948738098 -0
vn 0.5555655360221863 0.8314726948738098 -0
vn 0.5555655360221863 0.8314726948738098 -0
f 3/3/3 2/2/2 1/1/1
f 6/6/6 5/5/5 4/4/4
f 9/9/9 8/8/8 7/7/7
f 12/12/12 11/11/11 10/10/10
f 15/15/15 14/14/14 13/13/13
f 18/18/18 17/17/17 16/16/16
f 21/21/21 20/20/20 19/19/19
f 24/24/24 23/23/23 22/22/22
f 27/27/27 26/26/26 25/25/25
f 30/30/30 29/29/29 28/28/28
f 29/29/29 31/31/31 28/28/28
f 34/34/34 33/33/33 32/32/32
f 37/37/37 36/36/36 35/35/35
f 31/31/31 38/38/38 28/28/28
f 41/41/41 40/40/40 39/39/39
f 44/44/44 43/43/43 42/42/42
f 46/46/46 30/30/30 45/45/45
f 49/49/49 48/48/48 47/47/47
f 52/52/52 51/51/51 50/50/50
f 55/55/55 54/54/54 53/53/53
f 58/58/58 57/57/57 56/56/56
f 61/61/61 60/60/60 59/59/59
f 64/64/64 63/63/63 62/62/62
f 67/67/67 66/66/66 65/65/65
f 70/70/70 69/69/69 68/68/68
f 73/73/73 72/72/72 71/71/71
f 76/76/76 75/75/75 74/74/74
f 79/79/79 78/78/78 77/77/77
f 82/82/82 81/81/81 80/80/80
f 85/85/85 84/84/84 83/83/83
f 88/88/88 87/87/87 86/86/86
f 91/91/91 90/90/90 89/89/89
f 94/94/94 93/93/93 92/92/92
f 87/87/87 95/95/95 86/86/86
f 98/98/98 97/97/97 96/96/96
f 101/101/101 100/100/100 99/99/99
f 104/104/104 103/103/103 102/102/102
f 107/107/107 106/106/106 105/105/105
f 110/110/110 109/109/109 108/108/108
f 113/113/113 112/112/112 111/111/111
f 116/116/116 115/115/115 114/114/114
f 118/118/118 117/117/117 50/50/50
f 120/120/120 119/119/119 45/45/45
f 123/123/123 122/122/122 121/121/121
f 126/126/126 125/125/125 124/124/124
f 129/129/129 128/128/128 127/127/127
