# VPXTOOL table OBJ file
# VPXTOOL OBJ file
# numVerts: 117 numFaces: 129
o LM_L_LSL_UnderPF
v -370.34515380859375 705.1611938476563 -28.22476577758789
v -370.34515380859375 705.1611938476563 -32.93064880371094
v -374.3017883300781 706.891845703125 -32.93064880371094
v -367.7029113769531 701.7206420898438 -28.22476577758789
v -367.7029113769531 701.7206420898438 -32.93064880371094
v -370.34515380859375 705.1611938476563 -32.93064880371094
v -374.3017883300781 706.891845703125 -28.22476577758789
v -370.34515380859375 705.1611938476563 -28.22476577758789
v -367.7029113769531 701.7206420898438 -28.22476577758789
v -370.34515380859375 705.1611938476563 -32.93064880371094
v -374.3017883300781 706.891845703125 -28.22476577758789
v -374.3017883300781 706.891845703125 -32.93064880371094
v -406.2428283691406 706.8980712890625 -32.93064880371094
v -367.0911865234375 697.4519653320313 -28.22476577758789
v -367.0911865234375 697.4519653320313 -32.93064880371094
v -367.7029113769531 701.7206420898438 -32.93064880371094
v -367.7029113769531 701.7206420898438 -28.22476577758789
v -367.0911865234375 697.4519653320313 -28.22476577758789
v -367.7029113769531 701.7206420898438 -32.93064880371094
v -367.0911865234375 697.4519653320313 -28.22476577758789
v -370.34515380859375 705.1611938476563 -28.22476577758789
v -374.3017883300781 706.891845703125 -28.22476577758789
v -367.7029113769531 701.7206420898438 -28.22476577758789
v -406.2428283691406 706.8980712890625 -28.22476577758789
v -374.3017883300781 706.891845703125 -28.22476577758789
v -406.2428283691406 706.8980712890625 -32.93064880371094
v -413.45709228515625 697.4609375 -28.22476577758789
v -406.2428283691406 706.8980712890625 -32.93064880371094
v -410.20013427734375 705.1689453125 -32.93064880371094
v -410.20013427734375 705.1689453125 -28.22476577758789
v -406.2428283691406 706.8980712890625 -28.22476577758789
v -406.2428283691406 706.8980712890625 -32.93064880371094
v -410.20013427734375 705.1689453125 -28.22476577758789
v -406.2428283691406 706.8980712890625 -28.22476577758789
v -410.20013427734375 705.1689453125 -32.93064880371094
v -412.84368896484375 701.7293701171875 -32.93064880371094
v -412.84368896484375 701.7293701171875 -28.22476577758789
v -410.20013427734375 705.1689453125 -28.22476577758789
v -410.20013427734375 705.1689453125 -32.93064880371094
v -412.84368896484375 701.7293701171875 -28.22476577758789
v -412.84368896484375 701.7293701171875 -28.22476577758789
v -412.84368896484375 701.7293701171875 -32.93064880371094
v -413.45709228515625 697.4609375 -32.93064880371094
v -410.20013427734375 705.1689453125 -28.22476577758789
v -412.84368896484375 701.7293701171875 -28.22476577758789
v -413.45709228515625 697.4609375 -28.22476577758789
v -412.84368896484375 701.7293701171875 -28.22476577758789
v -413.45709228515625 697.4609375 -32.93064880371094
v -367.0911865234375 697.4519653320313 -28.22476577758789
v -382.2414855957031 618.8560180664063 -28.224763870239258
v -367.0911865234375 697.4519653320313 -32.93064880371094
v -367.0911865234375 697.4519653320313 -28.22476577758789
v -413.45709228515625 697.4609375 -28.22476577758789
v -398.337158203125 618.8591918945313 -28.224763870239258
v -413.45709228515625 697.4609375 -28.22476577758789
v -413.45709228515625 697.4609375 -32.93064880371094
v -398.337158203125 618.8591918945313 -32.93064880371094
v -382.2414855957031 618.8560180664063 -28.224763870239258
v -382.2414855957031 618.8560180664063 -32.93064880371094
v -367.0911865234375 697.4519653320313 -32.93064880371094
v -398.337158203125 618.8591918945313 -28.224763870239258
v -382.2414855957031 618.8560180664063 -28.224763870239258
v -367.0911865234375 697.4519653320313 -28.22476577758789
v -398.337158203125 618.8591918945313 -28.224763870239258
v -413.45709228515625 697.4609375 -28.22476577758789
v -398.337158203125 618.8591918945313 -32.93064880371094
v -383.98577880859375 615.7185668945313 -32.93064880371094
v -382.2414855957031 618.8560180664063 -32.93064880371094
v -382.2414855957031 618.8560180664063 -28.224763870239258
v -383.98577880859375 615.7185668945313 -28.224763870239258
v -383.98577880859375 615.7185668945313 -32.93064880371094
v -382.2414855957031 618.8560180664063 -28.224763870239258
v -386.78973388671875 613.43310546875 -32.93064498901367
v -383.98577880859375 615.7185668945313 -32.93064880371094
v -383.98577880859375 615.7185668945313 -28.224763870239258
v -398.337158203125 618.8591918945313 -28.224763870239258
v -398.337158203125 618.8591918945313 -32.93064880371094
v -396.59405517578125 615.7210083007813 -32.93064880371094
v -398.337158203125 618.8591918945313 -28.224763870239258
v -383.98577880859375 615.7185668945313 -28.224763870239258
v -382.2414855957031 618.8560180664063 -28.224763870239258
v -390.29052734375 612.6571044921875 -32.93064498901367
v -386.78973388671875 613.43310546875 -32.93064498901367
v -386.78973388671875 613.43310546875 -28.224761962890625
v -386.78973388671875 613.43310546875 -28.224761962890625
v -386.78973388671875 613.43310546875 -32.93064498901367
v -383.98577880859375 615.7185668945313 -28.224763870239258
v -396.59405517578125 615.7210083007813 -28.224763870239258
v -396.59405517578125 615.7210083007813 -32.93064880371094
v -393.791015625 613.4344482421875 -32.93064498901367
v -393.791015625 613.4344482421875 -28.224761962890625
v -393.791015625 613.4344482421875 -32.93064498901367
v -390.29052734375 612.6571044921875 -32.93064498901367
v -396.59405517578125 615.7210083007813 -28.224763870239258
v -398.337158203125 618.8591918945313 -28.224763870239258
v -396.59405517578125 615.7210083007813 -32.93064880371094
v -396.59405517578125 615.7210083007813 -28.224763870239258
v -383.98577880859375 615.7185668945313 -28.224763870239258
v -398.337158203125 618.8591918945313 -28.224763870239258
v -390.29052734375 612.6571044921875 -28.224761962890625
v -390.29052734375 612.6571044921875 -32.93064498901367
v -386.78973388671875 613.43310546875 -28.224761962890625
v -390.29052734375 612.6571044921875 -28.224761962890625
v -386.78973388671875 613.43310546875 -28.224761962890625
v -383.98577880859375 615.7185668945313 -28.224763870239258
v -383.98577880859375 615.7185668945313 -28.224763870239258
v -396.59405517578125 615.7210083007813 -28.224763870239258
v -390.29052734375 612.6571044921875 -28.224761962890625
v -390.29052734375 612.6571044921875 -28.224761962890625
v -393.791015625 613.4344482421875 -28.224761962890625
v -390.29052734375 612.6571044921875 -32.93064498901367
v -393.791015625 613.4344482421875 -28.224761962890625
v -396.59405517578125 615.7210083007813 -28.224763870239258
v -393.791015625 613.4344482421875 -32.93064498901367
v -396.59405517578125 615.7210083007813 -28.224763870239258
v -393.791015625 613.4344482421875 -28.224761962890625
v -390.29052734375 612.6571044921875 -28.224761962890625
vt 0.08456890285015106 0.06546187400817871
vt 0.08425813913345337 0.06501650810241699
vt 0.08203846216201782 0.06549960374832153
vt 0.08613462001085281 0.06450337171554565
vt 0.08582627773284912 0.06405693292617798
vt 0.08425813913345337 0.06501650810241699
vt 0.08235246688127518 0.06594443321228027
vt 0.08456890285015106 0.06546187400817871
vt 0.08613462001085281 0.06450337171554565
vt 0.08425813913345337 0.06501650810241699
vt 0.08235246688127518 0.06594443321228027
vt 0.08203846216201782 0.06549960374832153
vt 0.0646529421210289 0.06550133228302002
vt 0.08662771433591843 0.06331580877304077
vt 0.08632028102874756 0.06286799907684326
vt 0.08582627773284912 0.06405693292617798
vt 0.08613462001085281 0.06450337171554565
vt 0.08662771433591843 0.06331580877304077
vt 0.08582627773284912 0.06405693292617798
vt 0.08662771433591843 0.06331580877304077
vt 0.08456890285015106 0.06546187400817871
vt 0.08235246688127518 0.06594443321228027
vt 0.08613462001085281 0.06450337171554565
vt 0.06499163806438446 0.06594616174697876
vt 0.08235246688127518 0.06594443321228027
vt 0.0646529421210289 0.06550133228302002
vt 0.061467934399843216 0.06331831216812134
vt 0.0646529421210289 0.06550133228302002
vt 0.06257157772779465 0.0650186538696289
vt 0.06291314214468002 0.06546401977539063
vt 0.06499163806438446 0.06594616174697876
vt 0.0646529421210289 0.06550133228302002
vt 0.06291314214468002 0.06546401977539063
vt 0.06499163806438446 0.06594616174697876
vt 0.06257157772779465 0.0650186538696289
vt 0.06127825379371643 0.06405937671661377
vt 0.06162143498659134 0.06450581550598145
vt 0.06291314214468002 0.06546401977539063
vt 0.06257157772779465 0.0650186538696289
vt 0.06162143498659134 0.06450581550598145
vt 0.06162143498659134 0.06450581550598145
vt 0.06127825379371643 0.06405937671661377
vt 0.0611247718334198 0.06287050247192383
vt 0.06291314214468002 0.06546401977539063
vt 0.06162143498659134 0.06450581550598145
vt 0.061467934399843216 0.06331831216812134
vt 0.06162143498659134 0.06450581550598145
vt 0.0611247718334198 0.06287050247192383
vt 0.08662771433591843 0.06331580877304077
vt 0.08143792301416397 0.041760802268981934
vt 0.08632028102874756 0.06286799907684326
vt 0.08662771433591843 0.06331580877304077
vt 0.061467934399843216 0.06331831216812134
vt 0.07282166928052902 0.04176163673400879
vt 0.061467934399843216 0.06331831216812134
vt 0.0611247718334198 0.06287050247192383
vt 0.07249905914068222 0.04128962755203247
vt 0.08143792301416397 0.041760802268981934
vt 0.08112738281488419 0.041288793087005615
vt 0.08632028102874756 0.06286799907684326
vt 0.07282166928052902 0.04176163673400879
vt 0.08143792301416397 0.041760802268981934
vt 0.08662771433591843 0.06331580877304077
vt 0.07282166928052902 0.04176163673400879
vt 0.061467934399843216 0.06331831216812134
vt 0.07249905914068222 0.04128962755203247
vt 0.08031250536441803 0.040439486503601074
vt 0.08112738281488419 0.041288793087005615
vt 0.08143792301416397 0.041760802268981934
vt 0.08062400668859482 0.04091238975524902
vt 0.08031250536441803 0.040439486503601074
vt 0.08143792301416397 0.041760802268981934
vt 0.07889825850725174 0.0398213267326355
vt 0.08031250536441803 0.040439486503601074
vt 0.08062400668859482 0.04091238975524902
vt 0.07282166928052902 0.04176163673400879
vt 0.07249905914068222 0.04128962755203247
vt 0.07355725765228271 0.040440142154693604
vt 0.07282166928052902 0.04176163673400879
vt 0.08062400668859482 0.04091238975524902
vt 0.08143792301416397 0.041760802268981934
vt 0.0770534947514534 0.039611637592315674
vt 0.07889825850725174 0.0398213267326355
vt 0.07921162247657776 0.04029494524002075
vt 0.07921162247657776 0.04029494524002075
vt 0.07889825850725174 0.0398213267326355
vt 0.08062400668859482 0.04091238975524902
vt 0.0738782286643982 0.04091304540634155
vt 0.07355725765228271 0.040440142154693604
vt 0.07514860481023788 0.039821743965148926
vt 0.07546720653772354 0.04029536247253418
vt 0.07514860481023788 0.039821743965148926
vt 0.0770534947514534 0.039611637592315674
vt 0.0738782286643982 0.04091304540634155
vt 0.07282166928052902 0.04176163673400879
vt 0.07355725765228271 0.040440142154693604
vt 0.0738782286643982 0.04091304540634155
vt 0.08062400668859482 0.04091238975524902
vt 0.07282166928052902 0.04176163673400879
vt 0.07736939936876297 0.040085434913635254
vt 0.0770534947514534 0.039611637592315674
vt 0.07921162247657776 0.04029494524002075
vt 0.07736939936876297 0.040085434913635254
vt 0.07921162247657776 0.04029494524002075
vt 0.08062400668859482 0.04091238975524902
vt 0.08062400668859482 0.04091238975524902
vt 0.0738782286643982 0.04091304540634155
vt 0.07736939936876297 0.040085434913635254
vt 0.07736939936876297 0.040085434913635254
vt 0.07546720653772354 0.04029536247253418
vt 0.0770534947514534 0.039611637592315674
vt 0.07546720653772354 0.04029536247253418
vt 0.0738782286643982 0.04091304540634155
vt 0.07514860481023788 0.039821743965148926
vt 0.0738782286643982 0.04091304540634155
vt 0.07546720653772354 0.04029536247253418
vt 0.07736939936876297 0.040085434913635254
vn -0.40074974298477173 -0.916187584400177 -0
vn -0.40074974298477173 -0.916187584400177 -0
vn -0.40074974298477173 -0.916187584400177 -0
vn -0.7931109070777893 -0.6090772747993469 -0
vn -0.7931109070777893 -0.6090772747993469 -0
vn -0.7931109070777893 -0.6090772747993469 -0
vn -0.40074974298477173 -0.916187584400177 -0
vn -0.7931011915206909 -0.6090897917747498 -0
vn -0.7931011915206909 -0.6090897917747498 -0
vn -0.7931011915206909 -0.6090897917747498 -0
vn -0.00019360927399247885 -0.9999999403953552 -0
vn -0.00019360927399247885 -0.9999999403953552 -0
vn -0.00019360927399247885 -0.9999999403953552 -0
vn -0.9898872375488281 -0.14185674488544464 -0
vn -0.9898872375488281 -0.14185674488544464 -0
vn -0.9898872375488281 -0.14185674488544464 -0
vn -0.9898844361305237 -0.141876220703125 -0
vn -0.9898844361305237 -0.141876220703125 -0
vn -0.9898844361305237 -0.141876220703125 -0
vn 0 -0 -1
vn 0 -0 -1
vn 0 -0 -1
vn 0 -0 -1
vn -0.00019360978330951184 -0.9999999403953552 -0
vn -0.00019360978330951184 -0.9999999403953552 -0
vn -0.00019360978330951184 -0.9999999403953552 -0
vn 0 -0 -1
vn 0.4003845751285553 -0.9163472652435303 -0
vn 0.4003845751285553 -0.9163472652435303 -0
vn 0.4003845751285553 -0.9163472652435303 -0
vn 0.40039125084877014 -0.9163442850112915 -0
vn 0.40039125084877014 -0.9163442850112915 -0
vn 0.40039125084877014 -0.9163442850112915 -0
vn 0 -0 -1
vn 0.7928742170333862 -0.6093853116035461 -0
vn 0.7928742170333862 -0.6093853116035461 -0
vn 0.7928742170333862 -0.6093853116035461 -0
vn 0.792884111404419 -0.6093723773956299 -0
vn 0.792884111404419 -0.6093723773956299 -0
vn 0.792884111404419 -0.6093723773956299 -0
vn 0.9898280501365662 -0.14226919412612915 -0
vn 0.9898280501365662 -0.14226919412612915 -0
vn 0.9898280501365662 -0.14226919412612915 -0
vn 0 -0 -1
vn 0 -0 -1
vn 0.9898335337638855 -0.14223042130470276 -0
vn 0.9898335337638855 -0.14223042130470276 -0
vn 0.9898335337638855 -0.14223042130470276 -0
vn -0.9819234609603882 0.1892787516117096 -0
vn -0.9819234609603882 0.1892787516117096 -0
vn -0.9819234609603882 0.1892787516117096 -0
vn 0.000000044384805164554564 -0.00000002195288395512307 -1
vn 0.000000044384805164554564 -0.00000002195288395512307 -1
vn 0.000000044384805164554564 -0.00000002195288395512307 -1
vn 0.9819966554641724 0.18889833986759186 -0
vn 0.9819966554641724 0.18889833986759186 -0
vn 0.9819966554641724 0.18889833986759186 -0
vn -0.9819237589836121 0.18927693367004395 -0
vn -0.9819237589836121 0.18927693367004395 -0
vn -0.9819237589836121 0.18927693367004395 -0
vn -0.00000019006974127933063 -0.000000021952835993488407 -1
vn -0.00000019006974127933063 -0.000000021952835993488407 -1
vn -0.00000019006974127933063 -0.000000021952835993488407 -1
vn 0.9819966554641724 0.18889887630939484 -0
vn 0.9819966554641724 0.18889887630939484 -0
vn 0.9819966554641724 0.18889887630939484 -0
vn -0.8740029335021973 0.4859207272529602 -0
vn -0.8740029335021973 0.4859207272529602 -0
vn -0.8740029335021973 0.4859207272529602 -0
vn -0.8740130662918091 0.4859023094177246 -0
vn -0.8740130662918091 0.4859023094177246 -0
vn -0.8740130662918091 0.4859023094177246 -0
vn -0.6318008303642273 0.7751308679580688 -0
vn -0.6318008303642273 0.7751308679580688 -0
vn -0.6318008303642273 0.7751308679580688 -0
vn 0.8742044568061829 0.4855579435825348 -0
vn 0.8742044568061829 0.4855579435825348 -0
vn 0.8742044568061829 0.4855579435825348 -0
vn 0 -0 -1
vn 0 -0 -1
vn 0 -0 -1
vn -0.21640460193157196 0.97630375623703 -0
vn -0.21640460193157196 0.97630375623703 -0
vn -0.21640460193157196 0.97630375623703 -0
vn -0.6317959427833557 0.7751347422599792 -0
vn -0.6317959427833557 0.7751347422599792 -0
vn -0.6317959427833557 0.7751347422599792 -0
vn 0.6321176290512085 0.7748724222183228 -0
vn 0.6321176290512085 0.7748724222183228 -0
vn 0.6321176290512085 0.7748724222183228 -0
vn 0.2167767733335495 0.9762212634086609 -0
vn 0.2167767733335495 0.9762212634086609 -0
vn 0.2167767733335495 0.9762212634086609 -0
vn 0.8741944432258606 0.4855760335922241 -0
vn 0.8741944432258606 0.4855760335922241 -0
vn 0.8741944432258606 0.4855760335922241 -0
vn -0.00000020251755472600053 -0 -0.9999999403953552
vn -0.00000020251755472600053 -0 -0.9999999403953552
vn -0.00000020251755472600053 -0 -0.9999999403953552
vn -0.21640944480895996 0.9763028025627136 -0
vn -0.21640944480895996 0.9763028025627136 -0
vn -0.21640944480895996 0.9763028025627136 -0
vn 0.0000005359102601687482 -0.000001036952312460926 -1
vn 0.0000005359102601687482 -0.000001036952312460926 -1
vn 0.0000005359102601687482 -0.000001036952312460926 -1
vn -0.00000011589833093239577 -0.00000056337603382417 -1
vn -0.00000011589833093239577 -0.00000056337603382417 -1
vn -0.00000011589833093239577 -0.00000056337603382417 -1
vn 0.21678178012371063 0.9762201309204102 -0
vn 0.21678178012371063 0.9762201309204102 -0
vn 0.21678178012371063 0.9762201309204102 -0
vn 0.6321013569831848 0.7748856544494629 -0
vn 0.6321013569831848 0.7748856544494629 -0
vn 0.6321013569831848 0.7748856544494629 -0
vn 0 -0.0000010368542007199721 -1
vn 0 -0.0000010368542007199721 -1
vn 0 -0.0000010368542007199721 -1
f 3/3/3 2/2/2 1/1/1
f 6/6/6 5/5/5 4/4/4
f 3/3/3 1/1/1 7/7/7
f 10/10/10 9/9/9 8/8/8
f 13/13/13 12/12/12 11/11/11
f 16/16/16 15/15/15 14/14/14
f 19/19/19 18/18/18 17/17/17
f 22/22/22 21/21/21 20/20/20
f 21/21/21 23/23/23 20/20/20
f 26/26/26 25/25/25 24/24/24
f 27/27/27 22/22/22 20/20/20
f 30/30/30 29/29/29 28/28/28
f 33/33/33 32/32/32 31/31/31
f 34/34/34 22/22/22 27/27/27
f 37/37/37 36/36/36 35/35/35
f 40/40/40 39/39/39 38/38/38
f 43/43/43 42/42/42 41/41/41
f 44/44/44 34/34/34 27/27/27
f 27/27/27 45/45/45 44/44/44
f 48/48/48 47/47/47 46/46/46
f 51/51/51 50/50/50 49/49/49
f 54/54/54 53/53/53 52/52/52
f 57/57/57 56/56/56 55/55/55
f 60/60/60 59/59/59 58/58/58
f 63/63/63 62/62/62 61/61/61
f 66/66/66 65/65/65 64/64/64
f 69/69/69 68/68/68 67/67/67
f 72/72/72 71/71/71 70/70/70
f 75/75/75 74/74/74 73/73/73
f 78/78/78 77/77/77 76/76/76
f 81/81/81 80/80/80 79/79/79
f 84/84/84 83/83/83 82/82/82
f 87/87/87 86/86/86 85/85/85
f 90/90/90 89/89/89 88/88/88
f 93/93/93 92/92/92 91/91/91
f 96/96/96 95/95/95 94/94/94
f 99/99/99 98/98/98 97/97/97
f 102/102/102 101/101/101 100/100/100
f 105/105/105 104/104/104 103/103/103
f 108/108/108 107/107/107 106/106/106
f 111/111/111 110/110/110 109/109/109
f 114/114/114 113/113/113 112/112/112
f 117/117/117 116/116/116 115/115/115
