# VPXTOOL table OBJ file
# VPXTOOL OBJ file
# numVerts: 150 numFaces: 156
o LM_L_LMet3_TMet3
v 24.39870262145996 -0.14124009013175964 -65.61187744140625
v -23.77178955078125 -0.14124009013175964 -65.61187744140625
v -23.7717342376709 -22.37380027770996 -65.61187744140625
v 24.39870262145996 -22.37374496459961 -65.61187744140625
v 24.39870262145996 -0.14124009013175964 -65.61187744140625
v -23.7717342376709 -22.37380027770996 -65.61187744140625
v 24.39870262145996 -0.14124009013175964 -65.61187744140625
v 24.39870262145996 -22.37374496459961 -65.61187744140625
v 24.39870262145996 -14.962891578674316 -44.30571365356445
v -23.771678924560547 -9.404779434204102 -11.88329792022705
v -23.77178955078125 -0.14124009013175964 -65.61187744140625
v 24.39870262145996 -0.14124009013175964 -65.61187744140625
v -23.77178955078125 -0.14124009013175964 -65.61187744140625
v -23.77178955078125 -14.962891578674316 -44.30571365356445
v -23.7717342376709 -22.37380027770996 -65.61187744140625
v 14.208819389343262 -14.962946891784668 -44.30571365356445
v 24.39870262145996 -22.37374496459961 -65.61187744140625
v -23.7717342376709 -22.37380027770996 -65.61187744140625
v 16.98784828186035 -14.962946891784668 -44.30571365356445
v 24.39870262145996 -14.962891578674316 -44.30571365356445
v 24.39870262145996 -22.37374496459961 -65.61187744140625
v 14.208819389343262 -14.962946891784668 -44.30571365356445
v 16.98784828186035 -14.962946891784668 -44.30571365356445
v 24.39870262145996 -22.37374496459961 -65.61187744140625
v 24.39870262145996 -9.40472412109375 -11.883299827575684
v 24.39870262145996 -0.14124009013175964 -65.61187744140625
v 24.39870262145996 -14.962891578674316 -44.30571365356445
v -23.7717342376709 -22.37380027770996 -65.61187744140625
v -23.77178955078125 -14.962891578674316 -44.30571365356445
v 14.208819389343262 -14.962946891784668 -44.30571365356445
v -23.77178955078125 -0.14124009013175964 -65.61187744140625
v -23.771678924560547 -9.404779434204102 -11.88329792022705
v -23.77178955078125 -14.962891578674316 -44.30571365356445
v 24.39870262145996 -9.40472412109375 -11.883299827575684
v -23.771678924560547 -9.404779434204102 -11.88329792022705
v 24.39870262145996 -0.14124009013175964 -65.61187744140625
v 16.98784828186035 -14.962946891784668 -44.30571365356445
v 24.39870262145996 -14.962891578674316 15.907317161560059
v 24.39870262145996 -14.962891578674316 -44.30571365356445
v 14.208819389343262 -14.962946891784668 -44.30571365356445
v 24.39870262145996 -14.962891578674316 15.907317161560059
v 16.98784828186035 -14.962946891784668 -44.30571365356445
v 24.39870262145996 -9.40472412109375 4.7910919189453125
v 24.39870262145996 -9.40472412109375 -11.883299827575684
v 24.39870262145996 -14.962891578674316 -44.30571365356445
v 14.208819389343262 -14.962946891784668 -44.30571365356445
v -23.77178955078125 -14.962891578674316 -44.30571365356445
v -23.771678924560547 -14.962891578674316 15.907379150390625
v -23.771678924560547 -9.404779434204102 -11.88329792022705
v -23.771678924560547 -9.404779434204102 4.79109525680542
v -23.77178955078125 -14.962891578674316 -44.30571365356445
v 24.39870262145996 -9.404779434204102 15.907344818115234
v 24.39870262145996 -9.40472412109375 4.7910919189453125
v 24.39870262145996 -14.962891578674316 -44.30571365356445
v 24.39870262145996 -9.40472412109375 -11.883299827575684
v -23.771678924560547 -9.404779434204102 4.79109525680542
v -23.771678924560547 -9.404779434204102 -11.88329792022705
v 24.39870262145996 -14.962891578674316 -44.30571365356445
v 24.39870262145996 -14.962891578674316 15.907317161560059
v 24.39870262145996 -9.404779434204102 15.907344818115234
v 24.39870262145996 -9.40472412109375 -11.883299827575684
v 24.39870262145996 -9.40472412109375 4.7910919189453125
v 6.797911167144775 -9.404779434204102 4.791093349456787
v 24.39870262145996 -9.40472412109375 -11.883299827575684
v 6.797911167144775 -9.404779434204102 4.791093349456787
v -5.244601249694824 -9.404779434204102 4.791093349456787
v -23.771678924560547 -9.404779434204102 4.79109525680542
v -23.771678924560547 -9.404779434204102 15.9073486328125
v -23.77178955078125 -14.962891578674316 -44.30571365356445
v 24.39870262145996 -9.40472412109375 -11.883299827575684
v -5.244601249694824 -9.404779434204102 4.791093349456787
v -23.771678924560547 -9.404779434204102 4.79109525680542
v 14.208819389343262 -14.962946891784668 -44.30571365356445
v -23.771678924560547 -14.962891578674316 15.907379150390625
v 24.39870262145996 -14.962891578674316 15.907317161560059
v -23.771678924560547 -14.962891578674316 15.907379150390625
v -23.77178955078125 -14.962891578674316 -44.30571365356445
v -23.771678924560547 -9.404779434204102 15.9073486328125
v 24.39870262145996 -3.846611499786377 15.907344818115234
v 24.39870262145996 -3.846611499786377 14.054644584655762
v 24.39870262145996 -9.40472412109375 4.7910919189453125
v 6.797911167144775 -9.404779434204102 4.791093349456787
v 24.39870262145996 -9.40472412109375 4.7910919189453125
v 6.79802131652832 -3.8466668128967285 14.054646492004395
v 24.39870262145996 -9.40472412109375 4.7910919189453125
v 24.39870262145996 -3.846611499786377 14.054644584655762
v 6.79802131652832 -3.8466668128967285 14.054646492004395
v 24.39870262145996 -9.404779434204102 15.907344818115234
v 24.39870262145996 -3.846611499786377 14.054644584655762
v 24.39870262145996 -3.846611499786377 15.907344818115234
v 6.79802131652832 -3.8466668128967285 15.907344818115234
v 6.79802131652832 -3.8466668128967285 14.054646492004395
v 24.39870262145996 -3.846611499786377 14.054644584655762
v 6.79802131652832 -3.8466668128967285 15.907344818115234
v 6.797911167144775 -9.404779434204102 4.791093349456787
v 6.797911167144775 -9.404779434204102 15.907344818115234
v -5.244601249694824 -9.404779434204102 4.791093349456787
v -5.244601249694824 -9.404779434204102 4.791093349456787
v -5.244656562805176 -3.8466668128967285 14.054646492004395
v -23.771678924560547 -9.404779434204102 4.79109525680542
v 6.797911167144775 -9.404779434204102 15.907344818115234
v 6.797911167144775 -9.404779434204102 4.791093349456787
v 6.79802131652832 -3.8466668128967285 14.054646492004395
v 24.39870262145996 -3.846611499786377 15.907344818115234
v 24.39870262145996 -9.404779434204102 15.907344818115234
v 6.79802131652832 -3.8466668128967285 15.907344818115234
v -5.244656562805176 -3.8466668128967285 14.054646492004395
v -23.771678924560547 -3.8466668128967285 14.054648399353027
v -23.771678924560547 -9.404779434204102 4.79109525680542
v 6.79802131652832 -3.8466668128967285 14.054646492004395
v 6.79802131652832 -3.8466668128967285 15.907344818115234
v 6.797911167144775 -9.404779434204102 15.907344818115234
v -5.244656562805176 -3.8466668128967285 14.054646492004395
v -5.244601249694824 -9.404779434204102 4.791093349456787
v -5.244601249694824 -9.404779434204102 15.907344818115234
v -5.244656562805176 -3.8466668128967285 14.054646492004395
v -5.244656562805176 -3.8466668128967285 15.907344818115234
v -23.771678924560547 -3.8466668128967285 14.054648399353027
v 24.39870262145996 -9.404779434204102 15.907344818115234
v 6.797911167144775 -9.404779434204102 15.907344818115234
v 6.79802131652832 -3.8466668128967285 15.907344818115234
v -5.244601249694824 -9.404779434204102 15.907344818115234
v -5.244601249694824 -9.404779434204102 15.907344818115234
v -5.244656562805176 -3.8466668128967285 15.907344818115234
v -5.244656562805176 -3.8466668128967285 14.054646492004395
v -5.244656562805176 -3.8466668128967285 15.907344818115234
v -23.771678924560547 -3.8466668128967285 15.9073486328125
v -23.771678924560547 -3.8466668128967285 14.054648399353027
v -23.771678924560547 -9.404779434204102 4.79109525680542
v -23.771678924560547 -3.8466668128967285 14.054648399353027
v -23.771678924560547 -9.404779434204102 15.9073486328125
v 6.797911167144775 -9.404779434204102 15.907344818115234
v 24.39870262145996 -9.404779434204102 15.907344818115234
v 24.39870262145996 -14.962891578674316 15.907317161560059
v -23.771678924560547 -9.404779434204102 15.9073486328125
v -23.771678924560547 -3.8466668128967285 15.9073486328125
v -5.244656562805176 -3.8466668128967285 15.907344818115234
v -23.771678924560547 -3.8466668128967285 15.9073486328125
v -5.244601249694824 -9.404779434204102 15.907344818115234
v -23.771678924560547 -9.404779434204102 15.9073486328125
v -5.244656562805176 -3.8466668128967285 15.907344818115234
v 24.39870262145996 -14.962891578674316 15.907317161560059
v -5.244601249694824 -9.404779434204102 15.907344818115234
v 6.797911167144775 -9.404779434204102 15.907344818115234
v -5.244601249694824 -9.404779434204102 15.907344818115234
v 24.39870262145996 -14.962891578674316 15.907317161560059
v -23.771678924560547 -14.962891578674316 15.907379150390625
v -23.771678924560547 -14.962891578674316 15.907379150390625
v -23.771678924560547 -9.404779434204102 15.9073486328125
v -5.244601249694824 -9.404779434204102 15.907344818115234
vt 0.4090254008769989 0.03385961055755615
vt 0.4090254008769989 0.026391804218292236
vt 0.415513277053833 0.026391804218292236
vt 0.415513277053833 0.03385961055755615
vt 0.4090254008769989 0.03385961055755615
vt 0.415513277053833 0.026391804218292236
vt 0.9741221070289612 0.8983538150787354
vt 0.9846170544624329 0.8983538150787354
vt 0.9811187386512756 0.9036968946456909
vt 0.4540106952190399 0.5775492191314697
vt 0.4540107250213623 0.5431690812110901
vt 0.38933852314949036 0.5431690812110901
vt 0.9814363718032837 0.94950932264328
vt 0.9747267365455627 0.9549553394317627
vt 0.9709455966949463 0.9496669173240662
vt 0.9356114864349365 0.8215663433074951
vt 0.938585102558136 0.8250146508216858
vt 0.9245280027389526 0.8250146508216858
vt 0.9364224672317505 0.8215663433074951
vt 0.938585102558136 0.8215663433074951
vt 0.938585102558136 0.8250146508216858
vt 0.9356114864349365 0.8215663433074951
vt 0.9364224672317505 0.8215663433074951
vt 0.938585102558136 0.8250146508216858
vt 0.9784950017929077 0.911827802658081
vt 0.9741221070289612 0.8983538150787354
vt 0.9811187386512756 0.9036968946456909
vt 0.9245280027389526 0.8250146508216858
vt 0.9245280027389526 0.8215663433074951
vt 0.9356114864349365 0.8215663433074951
vt 0.9814363718032837 0.94950932264328
vt 0.9777820110321045 0.9630435705184937
vt 0.9747267365455627 0.9549553394317627
vt 0.38933852314949036 0.5775492191314697
vt 0.4540106952190399 0.5775492191314697
vt 0.38933852314949036 0.5431690812110901
vt 0.9364224672317505 0.8215663433074951
vt 0.938585102558136 0.812362015247345
vt 0.938585102558136 0.8215663433074951
vt 0.9356114864349365 0.8215663433074951
vt 0.938585102558136 0.812362015247345
vt 0.9364224672317505 0.8215663433074951
vt 0.9784950017929077 0.9160094261169434
vt 0.9784950017929077 0.911827802658081
vt 0.9811187386512756 0.9036968946456909
vt 0.9356114864349365 0.8215663433074951
vt 0.9245280027389526 0.8215663433074951
vt 0.9245280027389526 0.812362015247345
vt 0.9777820110321045 0.9630435705184937
vt 0.9780044555664063 0.9672235250473022
vt 0.9747267365455627 0.9549553394317627
vt 0.9784950017929077 0.9187971353530884
vt 0.9784950017929077 0.9160094261169434
vt 0.9811187386512756 0.9036968946456909
vt 0.3799108564853668 0.9996241927146912
vt 0.3750638961791992 0.9921563863754272
vt 0.3799108564853668 0.9921563863754272
vt 0.9811187386512756 0.9036968946456909
vt 0.9811187982559204 0.9187971353530884
vt 0.9784950017929077 0.9187971353530884
vt 0.3799108564853668 0.9996241927146912
vt 0.3750638961791992 0.9996241927146912
vt 0.3750638961791992 0.9968956112861633
vt 0.3799108564853668 0.9996241927146912
vt 0.3750638961791992 0.9968956112861633
vt 0.3750638961791992 0.9950286149978638
vt 0.9780044555664063 0.9672235250473022
vt 0.9781527519226074 0.9700101017951965
vt 0.9747267365455627 0.9549553394317627
vt 0.3799108564853668 0.9996241927146912
vt 0.3750638961791992 0.9950286149978638
vt 0.3750638961791992 0.9921563863754272
vt 0.9356114864349365 0.8215663433074951
vt 0.9245280027389526 0.812362015247345
vt 0.938585102558136 0.812362015247345
vt 0.9755300879478455 0.9700495004653931
vt 0.9747267365455627 0.9549553394317627
vt 0.9781527519226074 0.9700101017951965
vt 0.9758712649345398 0.9187971353530884
vt 0.9758712649345398 0.9183324575424194
vt 0.9784950017929077 0.9160094261169434
vt 0.3750638961791992 0.9968956112861633
vt 0.3750638961791992 0.9996241927146912
vt 0.37222805619239807 0.9968956112861633
vt 0.3750638961791992 0.9996241927146912
vt 0.37222805619239807 0.9996241927146912
vt 0.37222805619239807 0.9968956112861633
vt 0.9784950017929077 0.9187971353530884
vt 0.37222805619239807 0.9996241927146912
vt 0.3716895580291748 0.9996241927146912
vt 0.3716895580291748 0.9968956112861633
vt 0.37222805619239807 0.9968956112861633
vt 0.37222805619239807 0.9996241927146912
vt 0.3716895580291748 0.9968956112861633
vt 0.3750638961791992 0.9968956112861633
vt 0.37183263897895813 0.9968956112861633
vt 0.3750638961791992 0.9950286149978638
vt 0.3750638961791992 0.9950286149978638
vt 0.37222805619239807 0.9950286149978638
vt 0.3750638961791992 0.9921563863754272
vt 0.035315580666065216 0.33678311109542847
vt 0.035315580666065216 0.33850646018981934
vt 0.03369360789656639 0.3370703458786011
vt 0.4502863585948944 0.8901828527450562
vt 0.4486643671989441 0.8901828527450562
vt 0.4502863585948944 0.8874542117118835
vt 0.37222805619239807 0.9950286149978638
vt 0.37222805619239807 0.9921563863754272
vt 0.3750638961791992 0.9921563863754272
vt 0.03369360789656639 0.3370703458786011
vt 0.03369360789656639 0.33678311109542847
vt 0.035315580666065216 0.33678311109542847
vt 0.0025091534480452538 0.2552018165588379
vt 0.0008871764875948429 0.25663793087005615
vt 0.0008871764875948429 0.2549145817756653
vt 0.37222805619239807 0.9950286149978638
vt 0.3716895580291748 0.9950286149978638
vt 0.37222805619239807 0.9921563863754272
vt 0.4486643671989441 0.8901828527450562
vt 0.4486643671989441 0.8874542117118835
vt 0.4502863585948944 0.8874542117118835
vt 0.37183263897895813 0.9950286149978638
vt 0.0008871764875948429 0.2549145817756653
vt 0.0025091534480452538 0.2549145817756653
vt 0.0025091534480452538 0.2552018165588379
vt 0.3716895580291748 0.9950286149978638
vt 0.3716895580291748 0.9921563863754272
vt 0.37222805619239807 0.9921563863754272
vt 0.9780044555664063 0.9672235250473022
vt 0.9807507395744324 0.9695062637329102
vt 0.9781527519226074 0.9700101017951965
vt 0.4486643671989441 0.8874542117118835
vt 0.4486643671989441 0.8901828527450562
vt 0.44704240560531616 0.8901828527450562
vt 0.4486643671989441 0.8827150464057922
vt 0.4502863585948944 0.8827150464057922
vt 0.4502863585948944 0.885587215423584
vt 0.9807754755020142 0.969970703125
vt 0.4486643671989441 0.885587215423584
vt 0.4486643671989441 0.8827150464057922
vt 0.4502863585948944 0.885587215423584
vt 0.44704240560531616 0.8901828527450562
vt 0.4486643671989441 0.885587215423584
vt 0.4486643671989441 0.8874542117118835
vt 0.4486643671989441 0.885587215423584
vt 0.44704240560531616 0.8901828527450562
vt 0.44704240560531616 0.8827150464057922
vt 0.44704240560531616 0.8827150464057922
vt 0.4486643671989441 0.8827150464057922
vt 0.4486643671989441 0.885587215423584
vn 0 -0 -0.9999999403953552
vn 0 -0 -0.9999999403953552
vn 0 -0 -0.9999999403953552
vn 0 -0 -1
vn 0 -0 -1
vn 0 -0 -1
vn 1 -0 -0
vn 1 -0 -0
vn 1 -0 -0
vn 0 0.985460102558136 0.16990675032138824
vn 0 0.985460102558136 0.16990675032138824
vn 0 0.985460102558136 0.16990675032138824
vn -1 -0.00000253076245826378 -0.0000017276641983698937
vn -1 -0.00000253076245826378 -0.0000017276641983698937
vn -1 -0.00000253076245826378 -0.0000017276641983698937
vn 0.0000010572497330940678 -0.9444972276687622 0.3285194933414459
vn 0.0000010572497330940678 -0.9444972276687622 0.3285194933414459
vn 0.0000010572497330940678 -0.9444972276687622 0.3285194933414459
vn 0.000007185297363321297 -0.9444965720176697 0.3285212218761444
vn 0.000007185297363321297 -0.9444965720176697 0.3285212218761444
vn 0.000007185297363321297 -0.9444965720176697 0.3285212218761444
vn 0 -0.9444973468780518 0.32851889729499817
vn 0 -0.9444973468780518 0.32851889729499817
vn 0 -0.9444973468780518 0.32851889729499817
vn 0.9999999403953552 -0.00000033356823792018986 -0
vn 0.9999999403953552 -0.00000033356823792018986 -0
vn 0.9999999403953552 -0.00000033356823792018986 -0
vn -0.000001340897483714798 -0.9444957971572876 0.3285233676433563
vn -0.000001340897483714798 -0.9444957971572876 0.3285233676433563
vn -0.000001340897483714798 -0.9444957971572876 0.3285233676433563
vn -1 0.0000036692581488750875 0.000002732591838139342
vn -1 0.0000036692581488750875 0.000002732591838139342
vn -1 0.0000036692581488750875 0.000002732591838139342
vn -0.0000011359732070559403 0.9854603409767151 0.16990576684474945
vn -0.0000011359732070559403 0.9854603409767151 0.16990576684474945
vn -0.0000011359732070559403 0.9854603409767151 0.16990576684474945
vn 0.000007450563771271845 -1 -0
vn 0.000007450563771271845 -1 -0
vn 0.000007450563771271845 -1 -0
vn 0 -1 0.0000008955149155553954
vn 0 -1 0.0000008955149155553954
vn 0 -1 0.0000008955149155553954
vn 1 -0.0000005389558737078914 -0
vn 1 -0.0000005389558737078914 -0
vn 1 -0.0000005389558737078914 -0
vn -0.0000014537694141836255 -1 -0
vn -0.0000014537694141836255 -1 -0
vn -0.0000014537694141836255 -1 -0
vn -1 0.000022097405235399492 -0
vn -1 0.000022097405235399492 -0
vn -1 0.000022097405235399492 -0
vn 1 -0.0000016167977037184755 -0
vn 1 -0.0000016167977037184755 -0
vn 1 -0.0000016167977037184755 -0
vn -0.0000011462448128440883 1 -0
vn -0.0000011462448128440883 1 -0
vn -0.0000011462448128440883 1 -0
vn 1 0.0000005970036909275223 -0
vn 1 0.0000005970036909275223 -0
vn 1 0.0000005970036909275223 -0
vn -0.0000031370771012007026 1 -0
vn -0.0000031370771012007026 1 -0
vn -0.0000031370771012007026 1 -0
vn 0 1 0.0000033581604839127976
vn 0 1 0.0000033581604839127976
vn 0 1 0.0000033581604839127976
vn -1 0.000015360408724518493 -0
vn -1 0.000015360408724518493 -0
vn -1 0.000015360408724518493 -0
vn 0.00000000000030839553458693325 1 0.0000033954495393118123
vn 0.00000000000030839553458693325 1 0.0000033954495393118123
vn 0.00000000000030839553458693325 1 0.0000033954495393118123
vn 0.0000000000011824880267671811 -1 0.0000009299464522882772
vn 0.0000000000011824880267671811 -1 0.0000009299464522882772
vn 0.0000000000011824880267671811 -1 0.0000009299464522882772
vn -1 0.0000005970030656499148 0.0000018339879943596316
vn -1 0.0000005970030656499148 0.0000018339879943596316
vn -1 0.0000005970030656499148 0.0000018339879943596316
vn 1 -0 -0
vn 1 -0 -0
vn 1 -0 -0
vn -0.0000027340977339918027 0.8574938178062439 -0.5144944190979004
vn -0.0000027340977339918027 0.8574938178062439 -0.5144944190979004
vn -0.0000027340977339918027 0.8574938178062439 -0.5144944190979004
vn -0.000002758341224762262 0.8574936389923096 -0.5144943594932556
vn -0.000002758341224762262 0.8574936389923096 -0.5144943594932556
vn -0.000002758341224762262 0.8574936389923096 -0.5144943594932556
vn 1 -0 -0
vn -0.0000031370959732157644 1 -0
vn -0.0000031370959732157644 1 -0
vn -0.0000031370959732157644 1 -0
vn -0.000003137098929073545 1 -0
vn -0.000003137098929073545 1 -0
vn -0.000003137098929073545 1 -0
vn 0 1 -0
vn 0 1 -0
vn 0 1 -0
vn -0.00000006239090311055406 0.8574936985969543 -0.5144944190979004
vn -0.00000006239090311055406 0.8574936985969543 -0.5144944190979004
vn -0.00000006239090311055406 0.8574936985969543 -0.5144944190979004
vn -0.9999999403953552 0.000019806844647973776 -0
vn -0.9999999403953552 0.000019806844647973776 -0
vn -0.9999999403953552 0.000019806844647973776 -0
vn 0 -0 0.9999999403953552
vn 0 -0 0.9999999403953552
vn 0 -0 0.9999999403953552
vn -0.00000003119554392583268 0.8574937582015991 -0.5144943594932556
vn -0.00000003119554392583268 0.8574937582015991 -0.5144943594932556
vn -0.00000003119554392583268 0.8574937582015991 -0.5144943594932556
vn -1 0.00002000904714805074 -0
vn -1 0.00002000904714805074 -0
vn -1 0.00002000904714805074 -0
vn 0.9999999403953552 0.00001000447718979558 -0
vn 0.9999999403953552 0.00001000447718979558 -0
vn 0.9999999403953552 0.00001000447718979558 -0
vn 0 1 -0
vn 0 1 -0
vn 0 1 -0
vn 0 -0 1
vn 0 -0 1
vn 0 -0 1
vn 0 1 -0
vn 1 0.00001000452357402537 -0
vn 1 0.00001000452357402537 -0
vn 1 0.00001000452357402537 -0
vn 0 0.9999999403953552 -0
vn 0 0.9999999403953552 -0
vn 0 0.9999999403953552 -0
vn -1 -0 -0
vn -1 -0 -0
vn -1 -0 -0
vn 0 -0.0000049670693442749325 1
vn 0 -0.0000049670693442749325 1
vn 0 -0.0000049670693442749325 1
vn 0.00000012126680815072177 -0 1
vn 0.00000012126680815072177 -0 1
vn 0.00000012126680815072177 -0 1
vn -1 -0 -0
vn 0.0000002425328489152889 0.000000000001850378791162788 1
vn 0.0000002425328489152889 0.000000000001850378791162788 1
vn 0.0000002425328489152889 0.000000000001850378791162788 1
vn 0 -0.000004967067525285529 1
vn 0 -0.000004967067525285529 1
vn 0 -0.000004967067525285529 1
vn 0.0000013059465118203661 0.0000019104084003629396 0.9999999403953552
vn 0.0000013059465118203661 0.0000019104084003629396 0.9999999403953552
vn 0.0000013059465118203661 0.0000019104084003629396 0.9999999403953552
vn 0.0000001212664528793539 0.000005587952728092205 1
vn 0.0000001212664528793539 0.000005587952728092205 1
vn 0.0000001212664528793539 0.000005587952728092205 1
f 3/3/3 2/2/2 1/1/1
f 6/6/6 5/5/5 4/4/4
f 9/9/9 8/8/8 7/7/7
f 12/12/12 11/11/11 10/10/10
f 15/15/15 14/14/14 13/13/13
f 18/18/18 17/17/17 16/16/16
f 21/21/21 20/20/20 19/19/19
f 24/24/24 23/23/23 22/22/22
f 27/27/27 26/26/26 25/25/25
f 30/30/30 29/29/29 28/28/28
f 33/33/33 32/32/32 31/31/31
f 36/36/36 35/35/35 34/34/34
f 39/39/39 38/38/38 37/37/37
f 42/42/42 41/41/41 40/40/40
f 45/45/45 44/44/44 43/43/43
f 48/48/48 47/47/47 46/46/46
f 51/51/51 50/50/50 49/49/49
f 54/54/54 53/53/53 52/52/52
f 57/57/57 56/56/56 55/55/55
f 60/60/60 59/59/59 58/58/58
f 63/63/63 62/62/62 61/61/61
f 66/66/66 65/65/65 64/64/64
f 69/69/69 68/68/68 67/67/67
f 72/72/72 71/71/71 70/70/70
f 75/75/75 74/74/74 73/73/73
f 78/78/78 77/77/77 76/76/76
f 81/81/81 80/80/80 79/79/79
f 84/84/84 83/83/83 82/82/82
f 87/87/87 86/86/86 85/85/85
f 81/81/81 79/79/79 88/88/88
f 91/91/91 90/90/90 89/89/89
f 94/94/94 93/93/93 92/92/92
f 97/97/97 96/96/96 95/95/95
f 100/100/100 99/99/99 98/98/98
f 103/103/103 102/102/102 101/101/101
f 106/106/106 105/105/105 104/104/104
f 109/109/109 108/108/108 107/107/107
f 112/112/112 111/111/111 110/110/110
f 115/115/115 114/114/114 113/113/113
f 118/118/118 117/117/117 116/116/116
f 121/121/121 120/120/120 119/119/119
f 97/97/97 122/122/122 96/96/96
f 125/125/125 124/124/124 123/123/123
f 128/128/128 127/127/127 126/126/126
f 131/131/131 130/130/130 129/129/129
f 134/134/134 133/133/133 132/132/132
f 137/137/137 136/136/136 135/135/135
f 131/131/131 138/138/138 130/130/130
f 141/141/141 140/140/140 139/139/139
f 144/144/144 143/143/143 142/142/142
f 147/147/147 146/146/146 145/145/145
f 150/150/150 149/149/149 148/148/148
