# VPXTOOL table OBJ file
# VPXTOOL OBJ file
# numVerts: 71 numFaces: 162
o LM_L_LH8_Playfield
v -233.93276977539063 534.5339965820313 -0
v -41.22587585449219 534.7922973632813 -0
v -36.2238883972168 548.8837280273438 -0
v -106.2380599975586 639.1170654296875 -0
v 151.48098754882813 535.0505981445313 -0
v 151.48098754882813 535.0505981445313 23.52941131591797
v 161.48497009277344 563.2334594726563 23.52941131591797
v 161.48497009277344 563.2334594726563 -0
v 151.48098754882813 535.0505981445313 -0
v 151.48098754882813 535.0505981445313 23.52941131591797
v 161.48497009277344 563.2334594726563 -0
v 161.48497009277344 563.2334594726563 -0
v 161.48497009277344 563.2334594726563 23.52941131591797
v 163.42108154296875 566.1377563476563 23.52941131591797
v 163.42108154296875 566.1377563476563 -0
v 163.42108154296875 566.1377563476563 23.52941131591797
v 165.67999267578125 567.9664916992188 23.52941131591797
v 165.67999267578125 567.9664916992188 -0
v 165.67999267578125 567.9664916992188 23.52941131591797
v 168.6919708251953 569.14990234375 23.52941131591797
v 168.6919708251953 569.14990234375 -0
v 161.48497009277344 563.2334594726563 -0
v 163.42108154296875 566.1377563476563 -0
v 163.42108154296875 566.1377563476563 23.52941131591797
v 165.67999267578125 567.9664916992188 -0
v -176.25222778320313 729.3502807617188 -0
v 165.67999267578125 567.9664916992188 -0
v 165.67999267578125 567.9664916992188 23.52941131591797
v 168.6919708251953 569.14990234375 -0
v 168.6919708251953 569.14990234375 -0
v 168.6919708251953 569.14990234375 23.52941131591797
v 172.56436157226563 569.580078125 -0
v 91.47079467773438 653.466796875 -0
v 163.42108154296875 566.1377563476563 -0
v 92.92289733886719 655.6448974609375 -0
v 165.67999267578125 567.9664916992188 -0
v 168.6919708251953 569.14990234375 -0
v 96.8760757446289 657.9041137695313 -0
v 21.456623077392578 743.7000122070313 -0
v 200.3537139892578 680.413818359375 -0
v 172.56436157226563 569.580078125 -0
v 92.43888092041016 654.9189453125 -0
v 91.47079467773438 653.466796875 -0
v 163.42108154296875 566.1377563476563 -0
v 92.43888092041016 654.9189453125 -0
v 94.05237579345703 656.5592651367188 -0
v 94.61705780029297 657.0164794921875 -0
v 95.37007904052734 657.3123779296875 -0
v 96.8760757446289 657.9041137695313 -0
v 168.6919708251953 569.14990234375 -0
v 200.3537139892578 680.413818359375 -0
v 202.28988647460938 680.6289672851563 -0
v 21.456623077392578 743.7000122070313 -0
v 22.42470932006836 745.1521606445313 -0
v 94.61705780029297 657.0164794921875 -0
v 95.37007904052734 657.3123779296875 -0
v 25.060178756713867 746.658203125 -0
v 25.060178756713867 746.658203125 -0
v 23.55413246154785 746.0665283203125 -0
v 128.53781127929688 769.1679077148438 -0
v 128.53781127929688 769.1679077148438 -0
v -48.55752182006836 833.9331665039063 -0
v 232.0154571533203 791.6777954101563 -0
v -48.07347869873047 834.6593627929688 -0
v -46.75574493408203 835.4122924804688 -0
v -47.508766174316406 835.1165771484375 -0
v -46.75574493408203 835.4122924804688 -0
v -47.508766174316406 835.1165771484375 -0
v 23.55413246154785 746.0665283203125 -0
v 56.721923828125 857.922119140625 -0
v 160.19955444335938 880.4320068359375 -0
vt 0.3360707461833954 0.9996175765991211
vt 0.3361413776874542 0.943672239780426
vt 0.34000277519226074 0.942244827747345
vt 0.36517587304115295 0.963101327419281
vt 0.3362119793891907 0.8877219557762146
vt 0.33871594071388245 0.8880261182785034
vt 0.3464164137840271 0.8849178552627563
vt 0.34395408630371094 0.8845905065536499
vt 0.3362119793891907 0.8877219557762146
vt 0.33871594071388245 0.8880261182785034
vt 0.34395408630371094 0.8845905065536499
vt 0.34395408630371094 0.8845905065536499
vt 0.3464164137840271 0.8849178552627563
vt 0.3472141921520233 0.8843334913253784
vt 0.34475618600845337 0.8840018510818481
vt 0.3472141921520233 0.8843334913253784
vt 0.3477168679237366 0.8836637139320374
vt 0.3452616035938263 0.8833273649215698
vt 0.3477168679237366 0.8836637139320374
vt 0.3480423390865326 0.8827804923057556
vt 0.3455888330936432 0.8824378848075867
vt 0.34395408630371094 0.8845905065536499
vt 0.34475618600845337 0.8840018510818481
vt 0.3472141921520233 0.8843334913253784
vt 0.3452616035938263 0.8833273649215698
vt 0.39114850759506226 0.9846203923225403
vt 0.3452616035938263 0.8833273649215698
vt 0.3477168679237366 0.8836637139320374
vt 0.3455888330936432 0.8824378848075867
vt 0.3455888330936432 0.8824378848075867
vt 0.3480423390865326 0.8827804923057556
vt 0.34570783376693726 0.8813033103942871
vt 0.3692518174648285 0.9045953750610352
vt 0.34475618600845337 0.8840018510818481
vt 0.3698723018169403 0.9041545987129211
vt 0.3452616035938263 0.8833273649215698
vt 0.3455888330936432 0.8824378848075867
vt 0.3705163300037384 0.9029714465141296
vt 0.3953551650047302 0.9252372980117798
vt 0.3769611716270447 0.8720518350601196
vt 0.34570783376693726 0.8813033103942871
vt 0.3696654438972473 0.9043015837669373
vt 0.3692518174648285 0.9045953750610352
vt 0.34475618600845337 0.8840018510818481
vt 0.3696654438972473 0.9043015837669373
vt 0.3701328933238983 0.9038153290748596
vt 0.3702632188796997 0.9036456942558289
vt 0.37034761905670166 0.9034209847450256
vt 0.3705163300037384 0.9029714465141296
vt 0.3455888330936432 0.8824378848075867
vt 0.3769611716270447 0.8720518350601196
vt 0.37702301144599915 0.8714731931686401
vt 0.3953551650047302 0.9252372980117798
vt 0.3957820236682892 0.9249441027641296
vt 0.3702632188796997 0.9036456942558289
vt 0.37034761905670166 0.9034209847450256
vt 0.3962250053882599 0.9241484999656677
vt 0.3962250053882599 0.9241484999656677
vt 0.39605093002319336 0.9246028661727905
vt 0.40287381410598755 0.8928269743919373
vt 0.40287381410598755 0.8928269743919373
vt 0.422303169965744 0.9465472102165222
vt 0.4095759093761444 0.8612544536590576
vt 0.4225235879421234 0.946401059627533
vt 0.4227522015571594 0.945999801158905
vt 0.4226624071598053 0.9462294578552246
vt 0.4227522015571594 0.945999801158905
vt 0.4226624071598053 0.9462294578552246
vt 0.39605093002319336 0.9246028661727905
vt 0.4296148419380188 0.9142662286758423
vt 0.4365333318710327 0.8822742700576782
vn 0 -0 -1
vn 0 -0 -1
vn 0 -0 -1
vn 0 -0 -1
vn 0 -0 -1
vn 0.942389965057373 -0.33451634645462036 -0
vn 0.942389965057373 -0.33451634645462036 -0
vn 0.942389965057373 -0.33451634645462036 -0
vn 0.9423896670341492 -0.33451738953590393 -0
vn 0.9423896670341492 -0.33451738953590393 -0
vn 0.9423896670341492 -0.33451738953590393 -0
vn 0 -0 -1
vn 0.8320609927177429 -0.5546842217445374 -0
vn 0.8320609927177429 -0.5546842217445374 -0
vn 0.8320609927177429 -0.5546842217445374 -0
vn 0.6292157769203186 -0.7772306203842163 -0
vn 0.6292157769203186 -0.7772306203842163 -0
vn 0.6292157769203186 -0.7772306203842163 -0
vn 0.3656783401966095 -0.9307411909103394 -0
vn 0.3656783401966095 -0.9307411909103394 -0
vn 0.3656783401966095 -0.9307411909103394 -0
vn 0.8320609927177429 -0.5546842217445374 -0
vn 0.629221498966217 -0.7772259712219238 -0
vn 0.629221498966217 -0.7772259712219238 -0
vn 0.629221498966217 -0.7772259712219238 -0
vn 0 -0 -1
vn 0.36567479372024536 -0.9307426810264587 -0
vn 0.36567479372024536 -0.9307426810264587 -0
vn 0.36567479372024536 -0.9307426810264587 -0
vn 0.11042298376560211 -0.9938846826553345 -0
vn 0.11042298376560211 -0.9938846826553345 -0
vn 0.11042298376560211 -0.9938846826553345 -0
vn 0 -0 -1
vn 0 -0 -1
vn 0 -0 -1
vn 0 -0 -1
vn 0 -0 -1
vn 0 -0 -1
vn 0 -0 -1
vn 0 -0 -1
vn 0 -0 -1
vn 0 -0 -0.9999999403953552
vn 0 -0 -0.9999999403953552
vn 0 -0 -0.9999999403953552
vn 0 -0 -1
vn 0 -0 -1
vn 0 -0 -1
vn 0 -0 -1
vn 0 -0 -0.9999999403953552
vn 0 -0 -0.9999999403953552
vn 0 -0 -0.9999999403953552
vn 0 -0 -1
vn 0 -0 -0.9999999403953552
vn 0 -0 -1
vn 0 -0 -0.9999999403953552
vn 0 -0 -0.9999999403953552
vn 0 -0 -0.9999999403953552
vn 0 -0 -1
vn 0 -0 -1
vn 0 -0 -1
vn 0 -0 -0.9999999403953552
vn 0 -0 -1
vn 0 -0 -1
vn 0 -0 -1
vn 0 -0 -1
vn 0 -0 -1
vn 0 -0 -0.9999999403953552
vn 0 -0 -0.9999999403953552
vn 0 -0 -0.9999999403953552
vn 0 -0 -1
vn 0 -0 -1
f 3/3/3 2/2/2 1/1/1
f 1/1/1 4/4/4 3/3/3
f 5/5/5 2/2/2 3/3/3
f 8/8/8 7/7/7 6/6/6
f 11/11/11 10/10/10 9/9/9
f 5/5/5 3/3/3 12/12/12
f 15/15/15 14/14/14 13/13/13
f 18/18/18 17/17/17 16/16/16
f 21/21/21 20/20/20 19/19/19
f 15/15/15 13/13/13 22/22/22
f 25/25/25 24/24/24 23/23/23
f 1/1/1 26/26/26 4/4/4
f 29/29/29 28/28/28 27/27/27
f 32/32/32 31/31/31 30/30/30
f 3/3/3 33/33/33 12/12/12
f 34/34/34 12/12/12 33/33/33
f 36/36/36 34/34/34 35/35/35
f 38/38/38 37/37/37 36/36/36
f 4/4/4 39/39/39 3/3/3
f 41/41/41 37/37/37 40/40/40
f 44/44/44 43/43/43 42/42/42
f 35/35/35 34/34/34 45/45/45
f 36/36/36 35/35/35 46/46/46
f 47/47/47 36/36/36 46/46/46
f 48/48/48 36/36/36 47/47/47
f 38/38/38 36/36/36 48/48/48
f 3/3/3 39/39/39 33/33/33
f 51/51/51 50/50/50 49/49/49
f 41/41/41 40/40/40 52/52/52
f 4/4/4 26/26/26 39/39/39
f 42/42/42 43/43/43 53/53/53
f 45/45/45 39/39/39 35/35/35
f 46/46/46 35/35/35 54/54/54
f 47/47/47 46/46/46 54/54/54
f 57/57/57 56/56/56 55/55/55
f 58/58/58 38/38/38 48/48/48
f 39/39/39 54/54/54 35/35/35
f 54/54/54 59/59/59 47/47/47
f 59/59/59 58/58/58 47/47/47
f 60/60/60 40/40/40 38/38/38
f 61/61/61 49/49/49 57/57/57
f 26/26/26 62/62/62 39/39/39
f 52/52/52 40/40/40 63/63/63
f 54/54/54 39/39/39 62/62/62
f 59/59/59 54/54/54 64/64/64
f 58/58/58 59/59/59 65/65/65
f 63/63/63 40/40/40 60/60/60
f 62/62/62 64/64/64 54/54/54
f 64/64/64 66/66/66 59/59/59
f 69/69/69 68/68/68 67/67/67
f 70/70/70 60/60/60 58/58/58
f 70/70/70 58/58/58 65/65/65
f 71/71/71 63/63/63 60/60/60
f 70/70/70 71/71/71 60/60/60
