# VPXTOOL table OBJ file
# VPXTOOL OBJ file
# numVerts: 122 numFaces: 138
o LM_L_LH9_UnderPF
v 120.98616790771484 741.1968994140625 -12.153261184692383
v 115.18030548095703 742.3517456054688 -12.153261184692383
v 120.98616790771484 741.1968994140625 -5.324187755584717
v 115.18030548095703 742.3517456054688 -12.153261184692383
v 109.37444305419922 741.1968994140625 -12.153261184692383
v 115.18030548095703 742.3517456054688 -5.324187755584717
v 125.90814208984375 737.9080200195313 -12.153261184692383
v 120.98616790771484 741.1968994140625 -12.153261184692383
v 125.90814208984375 737.9080200195313 -5.324187755584717
v 115.18030548095703 742.3517456054688 -12.153261184692383
v 115.18030548095703 742.3517456054688 -5.324187755584717
v 120.98616790771484 741.1968994140625 -5.324187755584717
v 109.37444305419922 741.1968994140625 -12.153261184692383
v 104.45246124267578 737.9080200195313 -12.153261184692383
v 109.37444305419922 741.1968994140625 -5.324187755584717
v 120.98616790771484 741.1968994140625 -12.153261184692383
v 120.98616790771484 741.1968994140625 -5.324187755584717
v 125.90814208984375 737.9080200195313 -5.324187755584717
v 109.37444305419922 741.1968994140625 -12.153261184692383
v 109.37444305419922 741.1968994140625 -5.324187755584717
v 115.18030548095703 742.3517456054688 -5.324187755584717
v 129.19691467285156 732.986083984375 -12.153261184692383
v 125.90814208984375 737.9080200195313 -12.153261184692383
v 129.19691467285156 732.986083984375 -5.324187755584717
v 125.90814208984375 737.9080200195313 -12.153261184692383
v 125.90814208984375 737.9080200195313 -5.324187755584717
v 129.19691467285156 732.986083984375 -5.324187755584717
v 125.90814208984375 737.9080200195313 -5.324187755584717
v 120.98616790771484 741.1968994140625 -5.324187755584717
v 115.18030548095703 742.3517456054688 -5.324187755584717
v 104.45246124267578 737.9080200195313 -12.153261184692383
v 104.45246124267578 737.9080200195313 -5.324187755584717
v 109.37444305419922 741.1968994140625 -5.324187755584717
v 104.45246124267578 737.9080200195313 -12.153261184692383
v 101.16368865966797 732.986083984375 -12.153261184692383
v 104.45246124267578 737.9080200195313 -5.324187755584717
v 115.18030548095703 742.3517456054688 -5.324187755584717
v 109.37444305419922 741.1968994140625 -5.324187755584717
v 104.45246124267578 737.9080200195313 -5.324187755584717
v 130.35179138183594 727.18017578125 -12.153261184692383
v 129.19691467285156 732.986083984375 -12.153261184692383
v 130.35179138183594 727.18017578125 -5.324187755584717
v 129.19691467285156 732.986083984375 -12.153261184692383
v 129.19691467285156 732.986083984375 -5.324187755584717
v 130.35179138183594 727.18017578125 -5.324187755584717
v 101.16368865966797 732.986083984375 -12.153261184692383
v 101.16368865966797 732.986083984375 -5.324187755584717
v 104.45246124267578 737.9080200195313 -5.324187755584717
v 130.35179138183594 727.18017578125 -5.324187755584717
v 129.19691467285156 732.986083984375 -5.324187755584717
v 125.90814208984375 737.9080200195313 -5.324187755584717
v 101.16368865966797 732.986083984375 -12.153261184692383
v 100.0088119506836 727.18017578125 -12.153261184692383
v 101.16368865966797 732.986083984375 -5.324187755584717
v 129.19691467285156 721.3743286132813 -12.153261184692383
v 130.35179138183594 727.18017578125 -12.153261184692383
v 129.19691467285156 721.3743286132813 -5.324187755584717
v 115.18030548095703 712.0087890625 -5.324187755584717
v 115.18030548095703 742.3517456054688 -5.324187755584717
v 130.35179138183594 727.18017578125 -12.153261184692383
v 130.35179138183594 727.18017578125 -5.324187755584717
v 129.19691467285156 721.3743286132813 -5.324187755584717
v 104.45246124267578 737.9080200195313 -5.324187755584717
v 101.16368865966797 732.986083984375 -5.324187755584717
v 100.0088119506836 727.18017578125 -5.324187755584717
v 100.0088119506836 727.18017578125 -12.153261184692383
v 100.0088119506836 727.18017578125 -5.324187755584717
v 101.16368865966797 732.986083984375 -5.324187755584717
v 100.0088119506836 727.18017578125 -12.153261184692383
v 101.16368865966797 721.3743286132813 -12.153261184692383
v 100.0088119506836 727.18017578125 -5.324187755584717
v 115.18030548095703 712.0087890625 -5.324187755584717
v 130.35179138183594 727.18017578125 -5.324187755584717
v 125.90814208984375 737.9080200195313 -5.324187755584717
v 125.90814208984375 716.4523315429688 -12.153261184692383
v 129.19691467285156 721.3743286132813 -12.153261184692383
v 125.90814208984375 716.4523315429688 -5.324187755584717
v 129.19691467285156 721.3743286132813 -12.153261184692383
v 129.19691467285156 721.3743286132813 -5.324187755584717
v 125.90814208984375 716.4523315429688 -5.324187755584717
v 125.90814208984375 716.4523315429688 -5.324187755584717
v 129.19691467285156 721.3743286132813 -5.324187755584717
v 101.16368865966797 721.3743286132813 -12.153261184692383
v 101.16368865966797 721.3743286132813 -5.324187755584717
v 100.0088119506836 727.18017578125 -5.324187755584717
v 101.16368865966797 721.3743286132813 -12.153261184692383
v 104.45246124267578 716.4523315429688 -12.153261184692383
v 101.16368865966797 721.3743286132813 -5.324187755584717
v 120.98616790771484 713.1636352539063 -12.153261184692383
v 125.90814208984375 716.4523315429688 -12.153261184692383
v 120.98616790771484 713.1636352539063 -5.324187755584717
v 120.98616790771484 713.1636352539063 -5.324187755584717
v 125.90814208984375 716.4523315429688 -12.153261184692383
v 125.90814208984375 716.4523315429688 -5.324187755584717
v 120.98616790771484 713.1636352539063 -5.324187755584717
v 104.45246124267578 716.4523315429688 -12.153261184692383
v 109.37444305419922 713.1636352539063 -12.153261184692383
v 104.45246124267578 716.4523315429688 -5.324187755584717
v 101.16368865966797 721.3743286132813 -5.324187755584717
v 104.45246124267578 716.4523315429688 -5.324187755584717
v 115.18030548095703 712.0087890625 -12.153261184692383
v 120.98616790771484 713.1636352539063 -12.153261184692383
v 115.18030548095703 712.0087890625 -5.324187755584717
v 104.45246124267578 716.4523315429688 -12.153261184692383
v 104.45246124267578 716.4523315429688 -5.324187755584717
v 101.16368865966797 721.3743286132813 -5.324187755584717
v 109.37444305419922 713.1636352539063 -12.153261184692383
v 115.18030548095703 712.0087890625 -12.153261184692383
v 109.37444305419922 713.1636352539063 -5.324187755584717
v 100.0088119506836 727.18017578125 -5.324187755584717
v 104.45246124267578 716.4523315429688 -5.324187755584717
v 109.37444305419922 713.1636352539063 -5.324187755584717
v 120.98616790771484 713.1636352539063 -12.153261184692383
v 120.98616790771484 713.1636352539063 -5.324187755584717
v 115.18030548095703 712.0087890625 -5.324187755584717
v 109.37444305419922 713.1636352539063 -5.324187755584717
v 109.37444305419922 713.1636352539063 -12.153261184692383
v 109.37444305419922 713.1636352539063 -5.324187755584717
v 104.45246124267578 716.4523315429688 -5.324187755584717
v 115.18030548095703 712.0087890625 -12.153261184692383
v 115.18030548095703 712.0087890625 -5.324187755584717
v 109.37444305419922 713.1636352539063 -5.324187755584717
vt 0.04393613338470459 0.008724689483642578
vt 0.04221959039568901 0.009054481983184814
vt 0.04387476667761803 0.009397566318511963
vt 0.04221959039568901 0.009054481983184814
vt 0.04049172252416611 0.008724689483642578
vt 0.042161740362644196 0.00972682237625122
vt 0.04537823051214218 0.007786214351654053
vt 0.04393613338470459 0.008724689483642578
vt 0.045313939452171326 0.008460640907287598
vt 0.04221959039568901 0.009054481983184814
vt 0.042161740362644196 0.00972682237625122
vt 0.04387476667761803 0.009397566318511963
vt 0.04049172252416611 0.008724689483642578
vt 0.03901742398738861 0.007786214351654053
vt 0.04043740779161453 0.009397566318511963
vt 0.04393613338470459 0.008724689483642578
vt 0.04387476667761803 0.009397566318511963
vt 0.045313939452171326 0.008460640907287598
vt 0.04049172252416611 0.008724689483642578
vt 0.04043740779161453 0.009397566318511963
vt 0.042161740362644196 0.00972682237625122
vt 0.04632560908794403 0.006383717060089111
vt 0.04537823051214218 0.007786214351654053
vt 0.04625944793224335 0.007060408592224121
vt 0.04537823051214218 0.007786214351654053
vt 0.045313939452171326 0.008460640907287598
vt 0.04625944793224335 0.007060408592224121
vt 0.045313939452171326 0.008460640907287598
vt 0.04387476667761803 0.009397566318511963
vt 0.042161740362644196 0.00972682237625122
vt 0.03901742398738861 0.007786214351654053
vt 0.03896616771817207 0.008460640907287598
vt 0.04043740779161453 0.009397566318511963
vt 0.03901742398738861 0.007786214351654053
vt 0.03802189975976944 0.006383717060089111
vt 0.03896616771817207 0.008460640907287598
vt 0.042161740362644196 0.00972682237625122
vt 0.04043740779161453 0.009397566318511963
vt 0.03896616771817207 0.008460640907287598
vt 0.046634841710329056 0.004732370376586914
vt 0.04632560908794403 0.006383717060089111
vt 0.046568095684051514 0.005411803722381592
vt 0.04632560908794403 0.006383717060089111
vt 0.04625944793224335 0.007060408592224121
vt 0.046568095684051514 0.005411803722381592
vt 0.03802189975976944 0.006383717060089111
vt 0.037972740828990936 0.007060408592224121
vt 0.03896616771817207 0.008460640907287598
vt 0.046568095684051514 0.005411803722381592
vt 0.04625944793224335 0.007060408592224121
vt 0.045313939452171326 0.008460640907287598
vt 0.03802189975976944 0.006383717060089111
vt 0.03765600919723511 0.004732370376586914
vt 0.037972740828990936 0.007060408592224121
vt 0.04626064375042915 0.003084421157836914
vt 0.046634841710329056 0.004732370376586914
vt 0.04619472846388817 0.0037665367126464844
vt 0.04201439768075943 0.0011194348335266113
vt 0.042161740362644196 0.00972682237625122
vt 0.046634841710329056 0.004732370376586914
vt 0.046568095684051514 0.005411803722381592
vt 0.04619472846388817 0.0037665367126464844
vt 0.03896616771817207 0.008460640907287598
vt 0.037972740828990936 0.007060408592224121
vt 0.03760763630270958 0.005411803722381592
vt 0.03765600919723511 0.004732370376586914
vt 0.03760763630270958 0.005411803722381592
vt 0.037972740828990936 0.007060408592224121
vt 0.03765600919723511 0.004732370376586914
vt 0.037973638623952866 0.003084421157836914
vt 0.03760763630270958 0.005411803722381592
vt 0.04201439768075943 0.0011194348335266113
vt 0.046568095684051514 0.005411803722381592
vt 0.045313939452171326 0.008460640907287598
vt 0.04526180773973465 0.0016899704933166504
vt 0.04626064375042915 0.003084421157836914
vt 0.0451979897916317 0.0023743510246276855
vt 0.04626064375042915 0.003084421157836914
vt 0.04619472846388817 0.0037665367126464844
vt 0.0451979897916317 0.0023743510246276855
vt 0.0451979897916317 0.0023743510246276855
vt 0.04619472846388817 0.0037665367126464844
vt 0.037973638623952866 0.003084421157836914
vt 0.03792468458414078 0.0037665367126464844
vt 0.03760763630270958 0.005411803722381592
vt 0.037973638623952866 0.003084421157836914
vt 0.03892461955547333 0.0016899704933166504
vt 0.03792468458414078 0.0037665367126464844
vt 0.04379110783338547 0.0007594823837280273
vt 0.04526180773973465 0.0016899704933166504
vt 0.04373032972216606 0.0014453530311584473
vt 0.04373032972216606 0.0014453530311584473
vt 0.04526180773973465 0.0016899704933166504
vt 0.0451979897916317 0.0023743510246276855
vt 0.04373032972216606 0.0014453530311584473
vt 0.03892461955547333 0.0016899704933166504
vt 0.040363386273384094 0.0007594823837280273
vt 0.03887375071644783 0.0023743510246276855
vt 0.03792468458414078 0.0037665367126464844
vt 0.03887375071644783 0.0023743510246276855
vt 0.042071640491485596 0.0004330277442932129
vt 0.04379110783338547 0.0007594823837280273
vt 0.04201439768075943 0.0011194348335266113
vt 0.03892461955547333 0.0016899704933166504
vt 0.03887375071644783 0.0023743510246276855
vt 0.03792468458414078 0.0037665367126464844
vt 0.040363386273384094 0.0007594823837280273
vt 0.042071640491485596 0.0004330277442932129
vt 0.040309611707925797 0.0014453530311584473
vt 0.03760763630270958 0.005411803722381592
vt 0.03887375071644783 0.0023743510246276855
vt 0.040309611707925797 0.0014453530311584473
vt 0.04379110783338547 0.0007594823837280273
vt 0.04373032972216606 0.0014453530311584473
vt 0.04201439768075943 0.0011194348335266113
vt 0.040309611707925797 0.0014453530311584473
vt 0.040363386273384094 0.0007594823837280273
vt 0.040309611707925797 0.0014453530311584473
vt 0.03887375071644783 0.0023743510246276855
vt 0.042071640491485596 0.0004330277442932129
vt 0.04201439768075943 0.0011194348335266113
vt 0.040309611707925797 0.0014453530311584473
vn -0.19509360194206238 -0.9807846546173096 -0
vn -0.19509360194206238 -0.9807846546173096 -0
vn -0.19509360194206238 -0.9807846546173096 -0
vn 0.19509312510490417 -0.9807847142219543 -0
vn 0.19509312510490417 -0.9807847142219543 -0
vn 0.19509312510490417 -0.9807847142219543 -0
vn -0.555578887462616 -0.8314639329910278 -0
vn -0.555578887462616 -0.8314639329910278 -0
vn -0.555578887462616 -0.8314639329910278 -0
vn -0.19509363174438477 -0.9807846546173096 -0
vn -0.19509363174438477 -0.9807846546173096 -0
vn -0.19509363174438477 -0.9807846546173096 -0
vn 0.555578887462616 -0.8314639329910278 -0
vn 0.555578887462616 -0.8314639329910278 -0
vn 0.555578887462616 -0.8314639329910278 -0
vn -0.5555775165557861 -0.8314647078514099 -0
vn -0.5555775165557861 -0.8314647078514099 -0
vn -0.5555775165557861 -0.8314647078514099 -0
vn 0.19509363174438477 -0.9807846546173096 -0
vn 0.19509363174438477 -0.9807846546173096 -0
vn 0.19509363174438477 -0.9807846546173096 -0
vn -0.8314685225486755 -0.5555718541145325 -0
vn -0.8314685225486755 -0.5555718541145325 -0
vn -0.8314685225486755 -0.5555718541145325 -0
vn -0.8314686417579651 -0.5555717945098877 -0
vn -0.8314686417579651 -0.5555717945098877 -0
vn -0.8314686417579651 -0.5555717945098877 -0
vn -0.0000002327920185507537 -0 -1
vn -0.0000002327920185507537 -0 -1
vn -0.0000002327920185507537 -0 -1
vn 0.5555775165557861 -0.8314647078514099 -0
vn 0.5555775165557861 -0.8314647078514099 -0
vn 0.5555775165557861 -0.8314647078514099 -0
vn 0.8314685225486755 -0.5555718541145325 -0
vn 0.8314685225486755 -0.5555718541145325 -0
vn 0.8314685225486755 -0.5555718541145325 -0
vn 0.00000017459402101849264 -0 -1
vn 0.00000017459402101849264 -0 -1
vn 0.00000017459402101849264 -0 -1
vn -0.9807848930358887 -0.1950923502445221 -0
vn -0.9807848930358887 -0.1950923502445221 -0
vn -0.9807848930358887 -0.1950923502445221 -0
vn -0.9807848334312439 -0.1950923651456833 -0
vn -0.9807848334312439 -0.1950923651456833 -0
vn -0.9807848334312439 -0.1950923651456833 -0
vn 0.8314686417579651 -0.5555717945098877 -0
vn 0.8314686417579651 -0.5555717945098877 -0
vn 0.8314686417579651 -0.5555717945098877 -0
vn 0 -0 -1
vn 0 -0 -1
vn 0 -0 -1
vn 0.9807848930358887 -0.1950923502445221 -0
vn 0.9807848930358887 -0.1950923502445221 -0
vn 0.9807848930358887 -0.1950923502445221 -0
vn -0.9807848930358887 0.1950923502445221 -0
vn -0.9807848930358887 0.1950923502445221 -0
vn -0.9807848930358887 0.1950923502445221 -0
vn 0 -0 -1
vn 0 -0 -1
vn -0.9807848334312439 0.1950923651456833 -0
vn -0.9807848334312439 0.1950923651456833 -0
vn -0.9807848334312439 0.1950923651456833 -0
vn 0 -0 -1
vn 0 -0 -1
vn 0 -0 -1
vn 0.9807843565940857 -0.1950947493314743 -0
vn 0.9807843565940857 -0.1950947493314743 -0
vn 0.9807843565940857 -0.1950947493314743 -0
vn 0.9807843565940857 0.19509471952915192 -0
vn 0.9807843565940857 0.19509471952915192 -0
vn 0.9807843565940857 0.19509471952915192 -0
vn 0.0000000542523430624442 -0 -1
vn 0.0000000542523430624442 -0 -1
vn 0.0000000542523430624442 -0 -1
vn -0.8314685225486755 0.5555718541145325 -0
vn -0.8314685225486755 0.5555718541145325 -0
vn -0.8314685225486755 0.5555718541145325 -0
vn -0.8314686417579651 0.5555717945098877 -0
vn -0.8314686417579651 0.5555717945098877 -0
vn -0.8314686417579651 0.5555717945098877 -0
vn 0 -0 -1
vn 0 -0 -1
vn 0.9807848334312439 0.1950923651456833 -0
vn 0.9807848334312439 0.1950923651456833 -0
vn 0.9807848334312439 0.1950923651456833 -0
vn 0.8314685225486755 0.5555718541145325 -0
vn 0.8314685225486755 0.5555718541145325 -0
vn 0.8314685225486755 0.5555718541145325 -0
vn -0.5555647015571594 0.8314732313156128 -0
vn -0.5555647015571594 0.8314732313156128 -0
vn -0.5555647015571594 0.8314732313156128 -0
vn 0 -0 -1
vn -0.5555657744407654 0.8314725756645203 -0
vn -0.5555657744407654 0.8314725756645203 -0
vn -0.5555657744407654 0.8314725756645203 -0
vn 0.5555647015571594 0.8314732313156128 -0
vn 0.5555647015571594 0.8314732313156128 -0
vn 0.5555647015571594 0.8314732313156128 -0
vn 0 -0 -1
vn 0 -0 -1
vn -0.19509360194206238 0.9807846546173096 -0
vn -0.19509360194206238 0.9807846546173096 -0
vn -0.19509360194206238 0.9807846546173096 -0
vn 0.8314686417579651 0.5555717945098877 -0
vn 0.8314686417579651 0.5555717945098877 -0
vn 0.8314686417579651 0.5555717945098877 -0
vn 0.19509360194206238 0.9807846546173096 -0
vn 0.19509360194206238 0.9807846546173096 -0
vn 0.19509360194206238 0.9807846546173096 -0
vn 0.0000003269991282195406 -0 -0.9999999403953552
vn 0.0000003269991282195406 -0 -0.9999999403953552
vn 0.0000003269991282195406 -0 -0.9999999403953552
vn -0.19509363174438477 0.9807846546173096 -0
vn -0.19509363174438477 0.9807846546173096 -0
vn -0.19509363174438477 0.9807846546173096 -0
vn 0 -0 -1
vn 0.5555657744407654 0.8314725756645203 -0
vn 0.5555657744407654 0.8314725756645203 -0
vn 0.5555657744407654 0.8314725756645203 -0
vn 0.19509314000606537 0.9807847142219543 -0
vn 0.19509314000606537 0.9807847142219543 -0
vn 0.19509314000606537 0.9807847142219543 -0
f 3/3/3 2/2/2 1/1/1
f 6/6/6 5/5/5 4/4/4
f 9/9/9 8/8/8 7/7/7
f 12/12/12 11/11/11 10/10/10
f 15/15/15 14/14/14 13/13/13
f 18/18/18 17/17/17 16/16/16
f 21/21/21 20/20/20 19/19/19
f 24/24/24 23/23/23 22/22/22
f 27/27/27 26/26/26 25/25/25
f 30/30/30 29/29/29 28/28/28
f 33/33/33 32/32/32 31/31/31
f 36/36/36 35/35/35 34/34/34
f 39/39/39 38/38/38 37/37/37
f 42/42/42 41/41/41 40/40/40
f 45/45/45 44/44/44 43/43/43
f 48/48/48 47/47/47 46/46/46
f 51/51/51 50/50/50 49/49/49
f 54/54/54 53/53/53 52/52/52
f 57/57/57 56/56/56 55/55/55
f 59/59/59 51/51/51 58/58/58
f 62/62/62 61/61/61 60/60/60
f 65/65/65 64/64/64 63/63/63
f 63/63/63 59/59/59 58/58/58
f 68/68/68 67/67/67 66/66/66
f 71/71/71 70/70/70 69/69/69
f 74/74/74 73/73/73 72/72/72
f 77/77/77 76/76/76 75/75/75
f 80/80/80 79/79/79 78/78/78
f 65/65/65 63/63/63 58/58/58
f 49/49/49 82/82/82 81/81/81
f 85/85/85 84/84/84 83/83/83
f 88/88/88 87/87/87 86/86/86
f 91/91/91 90/90/90 89/89/89
f 81/81/81 92/92/92 49/49/49
f 95/95/95 94/94/94 93/93/93
f 98/98/98 97/97/97 96/96/96
f 100/100/100 99/99/99 65/65/65
f 103/103/103 102/102/102 101/101/101
f 106/106/106 105/105/105 104/104/104
f 92/92/92 58/58/58 49/49/49
f 109/109/109 108/108/108 107/107/107
f 112/112/112 111/111/111 110/110/110
f 115/115/115 114/114/114 113/113/113
f 58/58/58 116/116/116 65/65/65
f 119/119/119 118/118/118 117/117/117
f 122/122/122 121/121/121 120/120/120
