# VPXTOOL table OBJ file
# VPXTOOL OBJ file
# numVerts: 134 numFaces: 198
o LM_L_LTW2_Playfield
v -325.806396484375 -603.9579467773438 -0
v -183.9596405029297 -479.3080749511719 -0
v -183.9596405029297 -434.5166320800781 -0
v -266.5548095703125 -430.73193359375 -0
v -183.83055114746094 -432.3223571777344 -0
v -158.27227783203125 -480.08258056640625 -0
v 10.125280380249023 -603.9579467773438 -0
v -157.88511657714844 -478.6626892089844 -0
v -365.6066589355469 -490.14678955078125 0.000003450940539551084
v -325.806396484375 -603.9579467773438 -0
v -279.31414794921875 -322.1164245605469 -0.000002588205461506732
v -183.05599975585938 -481.24432373046875 23.52941131591797
v -183.9596405029297 -479.3080749511719 23.52941131591797
v -183.9596405029297 -479.3080749511719 -0
v -158.0142059326172 -434.0003967285156 -0
v -157.88511657714844 -478.6626892089844 23.52941131591797
v -158.27227783203125 -480.08258056640625 23.52941131591797
v -158.27227783203125 -480.08258056640625 -0
v 126.75492095947266 -533.3090209960938 -0
v 42.68515396118164 -448.3301696777344 -0
v -157.88511657714844 -478.6626892089844 -0
v -157.88511657714844 -478.6626892089844 23.52941131591797
v -158.27227783203125 -480.08258056640625 -0
v -279.31414794921875 -322.1164245605469 -0.000002588205461506732
v -325.806396484375 -603.9579467773438 -0
v -266.5548095703125 -430.73193359375 -0
v -158.0142059326172 -434.0003967285156 23.52941131591797
v -157.88511657714844 -478.6626892089844 23.52941131591797
v -157.88511657714844 -478.6626892089844 -0
v -183.9596405029297 -479.3080749511719 -0
v -183.9596405029297 -479.3080749511719 23.52941131591797
v -183.9596405029297 -434.5166320800781 -0
v -183.9596405029297 -434.5166320800781 23.52941131591797
v -158.0142059326172 -434.0003967285156 -0
v -158.0142059326172 -434.0003967285156 23.52941131591797
v -157.88511657714844 -478.6626892089844 -0
v -183.9596405029297 -434.5166320800781 23.52941131591797
v -183.83055114746094 -432.3223571777344 23.52941131591797
v -183.83055114746094 -432.3223571777344 -0
v -183.83055114746094 -432.3223571777344 23.52941131591797
v -182.6688232421875 -430.5151672363281 23.52941131591797
v -182.6688232421875 -430.5151672363281 -0
v -182.6688232421875 -430.5151672363281 23.52941131591797
v -180.474365234375 -429.74066162109375 23.52941131591797
v -180.474365234375 -429.74066162109375 -0
v -158.7886505126953 -431.418701171875 23.52941131591797
v -158.0142059326172 -434.0003967285156 23.52941131591797
v -158.0142059326172 -434.0003967285156 -0
v -183.9596405029297 -434.5166320800781 -0
v -183.9596405029297 -434.5166320800781 23.52941131591797
v -183.83055114746094 -432.3223571777344 -0
v -180.474365234375 -429.74066162109375 23.52941131591797
v -162.91929626464844 -429.74066162109375 23.52941131591797
v -162.91929626464844 -429.74066162109375 -0
v -160.59584045410156 -430.12786865234375 23.52941131591797
v -158.7886505126953 -431.418701171875 23.52941131591797
v -158.7886505126953 -431.418701171875 -0
v -162.91929626464844 -429.74066162109375 23.52941131591797
v -160.59584045410156 -430.12786865234375 23.52941131591797
v -160.59584045410156 -430.12786865234375 -0
v -183.83055114746094 -432.3223571777344 -0
v -183.83055114746094 -432.3223571777344 23.52941131591797
v -182.6688232421875 -430.5151672363281 -0
v -182.6688232421875 -430.5151672363281 -0
v -180.474365234375 -429.74066162109375 -0
v -158.7886505126953 -431.418701171875 -0
v -158.7886505126953 -431.418701171875 23.52941131591797
v -158.0142059326172 -434.0003967285156 -0
v -160.59584045410156 -430.12786865234375 -0
v -162.91929626464844 -429.74066162109375 -0
v -162.91929626464844 -429.74066162109375 23.52941131591797
v -160.59584045410156 -430.12786865234375 -0
v 243.3845672607422 -462.6600341796875 -0
v -299.2142639160156 -265.2109069824219 -0.000000862735134887771
v -365.6066589355469 -490.14678955078125 0.000003450940539551084
v -279.31414794921875 -322.1164245605469 -0.000002588205461506732
v -207.30323791503906 -257.505859375 -0
v -182.6688232421875 -430.5151672363281 -0
v -158.7886505126953 -431.418701171875 -0
v -54.83298873901367 -295.2872009277344 -0
v -180.474365234375 -429.74066162109375 -0
v -162.91929626464844 -429.74066162109375 -0
v -207.30323791503906 -257.505859375 -0
v -162.91929626464844 -429.74066162109375 -0
v -160.59584045410156 -430.12786865234375 -0
v 145.86639404296875 -309.61700439453125 -0
v -279.31414794921875 -322.1164245605469 -0.000002588205461506732
v -266.5548095703125 -430.73193359375 -0
v -207.30323791503906 -257.505859375 -0
v -160.59584045410156 -430.12786865234375 -0
v -123.38838195800781 -208.4532012939453 -0
v -55.220211029052734 -293.996337890625 -0
v -121.53163146972656 -207.95550537109375 -0
v -122.39331817626953 -208.45309448242188 -0
v -158.7886505126953 -431.418701171875 -0
v -121.53163146972656 -207.95550537109375 -0
v -122.39331817626953 -208.45309448242188 -0
v -299.2142639160156 -265.2109069824219 -0.000000862735134887771
v -279.31414794921875 -322.1164245605469 -0.000002588205461506732
v -232.8218994140625 -40.274959564208984 -0.000005176410923013464
v -232.8218994140625 -40.274959564208984 -0.000005176410923013464
v -279.31414794921875 -322.1164245605469 -0.000002588205461506732
v -207.30323791503906 -257.505859375 -0
v -170.58570861816406 -195.8117218017578 -0
v -54.83298873901367 -295.2872009277344 -0
v 48.348228454589844 -156.573974609375 -0
v -55.220211029052734 -293.996337890625 -0
v -171.44749450683594 -195.3142852783203 -0
v -171.94512939453125 -194.45260620117188 -0
v -171.9452362060547 -193.45751953125 -0
v 48.348228454589844 -156.573974609375 -0
v -122.39331817626953 -208.45309448242188 23.52941131591797
v -123.38838195800781 -208.4532012939453 23.52941131591797
v -123.38838195800781 -208.4532012939453 -0
v -121.53163146972656 -207.95550537109375 23.52941131591797
v -122.39331817626953 -208.45309448242188 23.52941131591797
v -122.39331817626953 -208.45309448242188 -0
v -121.03414916992188 -207.09364318847656 23.52941131591797
v -121.53163146972656 -207.95550537109375 23.52941131591797
v -121.53163146972656 -207.95550537109375 -0
v -122.39331817626953 -208.45309448242188 -0
v -122.39331817626953 -208.45309448242188 23.52941131591797
v -123.38838195800781 -208.4532012939453 -0
v -121.53163146972656 -207.95550537109375 -0
v -121.53163146972656 -207.95550537109375 23.52941131591797
v -122.39331817626953 -208.45309448242188 -0
v -123.38838195800781 -208.4532012939453 -0
v -123.38838195800781 -208.4532012939453 23.52941131591797
v -170.58570861816406 -195.8117218017578 -0
v -121.03414916992188 -207.09364318847656 -0
v -232.8218994140625 -40.274959564208984 -0.000005176410923013464
v -207.30323791503906 -257.505859375 -0
v -171.9452362060547 -193.45751953125 -0
v -121.03414916992188 -207.09364318847656 -0
vt 0.713685929775238 0.6374326944351196
vt 0.7380281686782837 0.6037426590919495
vt 0.7469918131828308 0.6040396690368652
vt 0.7477545738220215 0.6246604919433594
vt 0.7474339008331299 0.6040221452713013
vt 0.7378742098808289 0.597378134727478
vt 0.713685929775238 0.5557352304458618
vt 0.7381564974784851 0.5972903370857239
vt 0.7358766198158264 0.6485759019851685
vt 0.713685929775238 0.6374326944351196
vt 0.7700103521347046 0.6289631128311157
vt 0.7411726713180542 0.6032407879829407
vt 0.7415562272071838 0.6034757494926453
vt 0.7380281686782837 0.6037426590919495
vt 0.7470958232879639 0.5975766181945801
vt 0.7416841387748718 0.5970613360404968
vt 0.741402804851532 0.5971487164497375
vt 0.7378742098808289 0.597378134727478
vt 0.7273752689361572 0.527056097984314
vt 0.7442149519920349 0.5475777387619019
vt 0.7381564974784851 0.5972903370857239
vt 0.7416841387748718 0.5970613360404968
vt 0.7378742098808289 0.597378134727478
vt 0.7700103521347046 0.6289631128311157
vt 0.713685929775238 0.6374326944351196
vt 0.7477545738220215 0.6246604919433594
vt 0.7505934238433838 0.5973443984985352
vt 0.7416841387748718 0.5970613360404968
vt 0.7381564974784851 0.5972903370857239
vt 0.7380281686782837 0.6037426590919495
vt 0.7415562272071838 0.6034757494926453
vt 0.7469918131828308 0.6040396690368652
vt 0.7504897713661194 0.6037693023681641
vt 0.7470958232879639 0.5975766181945801
vt 0.7505934238433838 0.5973443984985352
vt 0.7381564974784851 0.5972903370857239
vt 0.7504897713661194 0.6037693023681641
vt 0.7509304285049438 0.6037517786026001
vt 0.7474339008331299 0.6040221452713013
vt 0.7509304285049438 0.6037517786026001
vt 0.7512935400009155 0.6034756898880005
vt 0.7477983236312866 0.6037445068359375
vt 0.7512935400009155 0.6034756898880005
vt 0.7514492273330688 0.6029367446899414
vt 0.7479544878005981 0.6032024025917053
vt 0.7511119842529297 0.5975509881973267
vt 0.7505934238433838 0.5973443984985352
vt 0.7470958232879639 0.5975766181945801
vt 0.7469918131828308 0.6040396690368652
vt 0.7504897713661194 0.6037693023681641
vt 0.7474339008331299 0.6040221452713013
vt 0.7514492273330688 0.6029367446899414
vt 0.7514492273330688 0.5985846519470215
vt 0.7479544878005981 0.5988243222236633
vt 0.7513713240623474 0.5980063676834106
vt 0.7511119842529297 0.5975509881973267
vt 0.7476161122322083 0.5977845191955566
vt 0.7514492273330688 0.5985846519470215
vt 0.7513713240623474 0.5980063676834106
vt 0.7478763461112976 0.5982426404953003
vt 0.7474339008331299 0.6040221452713013
vt 0.7509304285049438 0.6037517786026001
vt 0.7477983236312866 0.6037445068359375
vt 0.7477983236312866 0.6037445068359375
vt 0.7479544878005981 0.6032024025917053
vt 0.7476161122322083 0.5977845191955566
vt 0.7511119842529297 0.5975509881973267
vt 0.7470958232879639 0.5975766181945801
vt 0.7478763461112976 0.5982426404953003
vt 0.7479544878005981 0.5988243222236633
vt 0.7514492273330688 0.5985846519470215
vt 0.7478763461112976 0.5982426404953003
vt 0.7413461208343506 0.4977872967720032
vt 0.7819596529006958 0.6346502304077148
vt 0.7358766198158264 0.6485759019851685
vt 0.7700103521347046 0.6289631128311157
vt 0.7835932970046997 0.6112245917320251
vt 0.7477983236312866 0.6037445068359375
vt 0.7476161122322083 0.5977845191955566
vt 0.775618851184845 0.5721396207809448
vt 0.7479544878005981 0.6032024025917053
vt 0.7479544878005981 0.5988243222236633
vt 0.7835932970046997 0.6112245917320251
vt 0.7479544878005981 0.5988243222236633
vt 0.7478763461112976 0.5982426404953003
vt 0.772617757320404 0.5211629867553711
vt 0.7700103521347046 0.6289631128311157
vt 0.7477545738220215 0.6246604919433594
vt 0.7835932970046997 0.6112245917320251
vt 0.7478763461112976 0.5982426404953003
vt 0.7940825819969177 0.589989185333252
vt 0.7758898138999939 0.5722408294677734
vt 0.7941898703575134 0.5895130038261414
vt 0.7940826416015625 0.5897327661514282
vt 0.7476161122322083 0.5977845191955566
vt 0.7941898703575134 0.5895130038261414
vt 0.7940826416015625 0.5897327661514282
vt 0.7819596529006958 0.6346502304077148
vt 0.7700103521347046 0.6289631128311157
vt 0.8312565088272095 0.6197534203529358
vt 0.8312565088272095 0.6197534203529358
vt 0.7700103521347046 0.6289631128311157
vt 0.7835932970046997 0.6112245917320251
vt 0.7968111038208008 0.6022371053695679
vt 0.775618851184845 0.5721396207809448
vt 0.8053468465805054 0.5456280708312988
vt 0.7758898138999939 0.5722408294677734
vt 0.7969186902046204 0.6024629473686218
vt 0.797105073928833 0.6025972366333008
vt 0.7973203659057617 0.6026039123535156
vt 0.8053468465805054 0.5456280708312988
vt 0.7974112033843994 0.5895407199859619
vt 0.7974111437797546 0.5897955894470215
vt 0.7940825819969177 0.589989185333252
vt 0.7975179553031921 0.5893222689628601
vt 0.7974112033843994 0.5895407199859619
vt 0.7940826416015625 0.5897327661514282
vt 0.797702968120575 0.5891988277435303
vt 0.7975179553031921 0.5893222689628601
vt 0.7941898703575134 0.5895130038261414
vt 0.7940826416015625 0.5897327661514282
vt 0.7974112033843994 0.5895407199859619
vt 0.7940825819969177 0.589989185333252
vt 0.7941898703575134 0.5895130038261414
vt 0.7975179553031921 0.5893222689628601
vt 0.7940826416015625 0.5897327661514282
vt 0.7940825819969177 0.589989185333252
vt 0.7974111437797546 0.5897955894470215
vt 0.7968111038208008 0.6022371053695679
vt 0.7943755388259888 0.5893888473510742
vt 0.8312565088272095 0.6197534203529358
vt 0.7835932970046997 0.6112245917320251
vt 0.7973203659057617 0.6026039123535156
vt 0.7943755388259888 0.5893888473510742
vn 0 -0 -1
vn 0 -0 -1
vn 0 -0 -1
vn 0 -0 -1
vn 0 -0 -1
vn 0 -0 -1
vn 0 -0 -1
vn 0 -0 -1
vn -0.00000007675860302924775 0.000000003478801025025291 -1
vn -0.00000007675860302924775 0.000000003478801025025291 -1
vn -0.00000007675860302924775 0.000000003478801025025291 -1
vn 0.9061727523803711 0.4229077696800232 -0
vn 0.9061727523803711 0.4229077696800232 -0
vn 0.9061727523803711 0.4229077696800232 -0
vn 0 -0 -1
vn -0.9647759199142456 0.2630728781223297 -0
vn -0.9647759199142456 0.2630728781223297 -0
vn -0.9647759199142456 0.2630728781223297 -0
vn 0 -0 -1
vn 0 -0 -1
vn -0.9647818207740784 0.26305142045021057 -0
vn -0.9647818207740784 0.26305142045021057 -0
vn -0.9647818207740784 0.26305142045021057 -0
vn 0.00000005185639295746114 -0.000000017737361801550833 -0.9999999403953552
vn 0.00000005185639295746114 -0.000000017737361801550833 -0.9999999403953552
vn 0.00000005185639295746114 -0.000000017737361801550833 -0.9999999403953552
vn -0.9999958276748657 -0.0028899116441607475 -0
vn -0.9999958276748657 -0.0028899116441607475 -0
vn -0.9999958276748657 -0.0028899116441607475 -0
vn 1 -0 -0
vn 1 -0 -0
vn 1 -0 -0
vn 1 -0 -0
vn -0.9999958276748657 -0.002890672069042921 -0
vn -0.9999958276748657 -0.002890672069042921 -0
vn -0.9999958276748657 -0.002890672069042921 -0
vn 0.9982736706733704 -0.05873473361134529 -0
vn 0.9982736706733704 -0.05873473361134529 -0
vn 0.9982736706733704 -0.05873473361134529 -0
vn 0.841191291809082 -0.5407376289367676 -0
vn 0.841191291809082 -0.5407376289367676 -0
vn 0.841191291809082 -0.5407376289367676 -0
vn 0.33281320333480835 -0.9429927468299866 -0
vn 0.33281320333480835 -0.9429927468299866 -0
vn 0.33281320333480835 -0.9429927468299866 -0
vn -0.9578313231468201 -0.28733107447624207 -0
vn -0.9578313231468201 -0.28733107447624207 -0
vn -0.9578313231468201 -0.28733107447624207 -0
vn 0.9982744455337524 -0.05871932953596115 -0
vn 0.9982744455337524 -0.05871932953596115 -0
vn 0.9982744455337524 -0.05871932953596115 -0
vn 0 -1 -0
vn 0 -1 -0
vn 0 -1 -0
vn -0.5812279582023621 -0.8137407302856445 -0
vn -0.5812279582023621 -0.8137407302856445 -0
vn -0.5812279582023621 -0.8137407302856445 -0
vn -0.16439197957515717 -0.9863951206207275 -0
vn -0.16439197957515717 -0.9863951206207275 -0
vn -0.16439197957515717 -0.9863951206207275 -0
vn 0.8411840796470642 -0.5407487750053406 -0
vn 0.8411840796470642 -0.5407487750053406 -0
vn 0.8411840796470642 -0.5407487750053406 -0
vn 0.33281320333480835 -0.9429927468299866 -0
vn 0 -1 -0
vn -0.957834780216217 -0.28731951117515564 -0
vn -0.957834780216217 -0.28731951117515564 -0
vn -0.957834780216217 -0.28731951117515564 -0
vn -0.5812279582023621 -0.8137407302856445 -0
vn -0.16438962519168854 -0.9863954186439514 -0
vn -0.16438962519168854 -0.9863954186439514 -0
vn -0.16438962519168854 -0.9863954186439514 -0
vn 0 -0 -1
vn -0.00000007675863855638454 0.000000003478838994652733 -1
vn -0.00000007675863855638454 0.000000003478838994652733 -1
vn -0.00000007675863855638454 0.000000003478838994652733 -1
vn 0 -0 -1
vn 0 -0 -1
vn 0 -0 -1
vn 0 -0 -1
vn 0 -0 -1
vn 0 -0 -1
vn 0 -0 -0.9999999403953552
vn 0 -0 -0.9999999403953552
vn 0 -0 -0.9999999403953552
vn 0 -0 -1
vn 0.00000005185638585203378 -0.000000017737363577907672 -0.9999999403953552
vn 0.00000005185638585203378 -0.000000017737363577907672 -0.9999999403953552
vn 0.00000005185638585203378 -0.000000017737363577907672 -0.9999999403953552
vn 0 -0 -1
vn 0 -0 -1
vn 0 -0 -1
vn 0 -0 -1
vn 0 -0 -1
vn 0 -0 -0.9999999403953552
vn 0 -0 -0.9999999403953552
vn 0 -0 -0.9999999403953552
vn -0.00000007675865987266661 0.0000000034787932534641186 -1
vn -0.00000007675865987266661 0.0000000034787932534641186 -1
vn -0.00000007675865987266661 0.0000000034787932534641186 -1
vn 0.000000051856403615602176 -0.00000001773736535426451 -1
vn 0.000000051856403615602176 -0.00000001773736535426451 -1
vn 0.000000051856403615602176 -0.00000001773736535426451 -1
vn 0 -0 -1
vn 0 -0 -0.9999999403953552
vn 0 -0 -0.9999999403953552
vn 0 -0 -0.9999999403953552
vn 0 -0 -1
vn 0 -0 -1
vn 0 -0 -1
vn 0 -0 -1
vn -0.00011097759852418676 0.9999999403953552 -0
vn -0.00011097759852418676 0.9999999403953552 -0
vn -0.00011097759852418676 0.9999999403953552 -0
vn -0.5000795722007751 0.8659794330596924 -0
vn -0.5000795722007751 0.8659794330596924 -0
vn -0.5000795722007751 0.8659794330596924 -0
vn -0.866072416305542 0.4999186098575592 -0
vn -0.866072416305542 0.4999186098575592 -0
vn -0.866072416305542 0.4999186098575592 -0
vn -0.00011097950482508168 1 -0
vn -0.00011097950482508168 1 -0
vn -0.00011097950482508168 1 -0
vn -0.5000722408294678 0.865983784198761 -0
vn -0.5000722408294678 0.865983784198761 -0
vn -0.5000722408294678 0.865983784198761 -0
vn 0.2587236166000366 0.9659513831138611 -0
vn 0.2587236166000366 0.9659513831138611 -0
vn 0.2587236166000366 0.9659513831138611 -0
vn -0.866072416305542 0.4999186098575592 -0
vn 0.00000003559105010708663 -0.000000019648112470349588 -1
vn 0.00000003559105010708663 -0.000000019648112470349588 -1
vn 0.00000003559105010708663 -0.000000019648112470349588 -1
vn 0 -0 -1
f 3/3/3 2/2/2 1/1/1
f 5/5/5 1/1/1 4/4/4
f 8/8/8 7/7/7 6/6/6
f 11/11/11 10/10/10 9/9/9
f 5/5/5 3/3/3 1/1/1
f 14/14/14 13/13/13 12/12/12
f 15/15/15 7/7/7 8/8/8
f 18/18/18 17/17/17 16/16/16
f 7/7/7 20/20/20 19/19/19
f 23/23/23 22/22/22 21/21/21
f 26/26/26 25/25/25 24/24/24
f 29/29/29 28/28/28 27/27/27
f 32/32/32 31/31/31 30/30/30
f 7/7/7 15/15/15 20/20/20
f 32/32/32 33/33/33 31/31/31
f 36/36/36 35/35/35 34/34/34
f 39/39/39 38/38/38 37/37/37
f 42/42/42 41/41/41 40/40/40
f 45/45/45 44/44/44 43/43/43
f 48/48/48 47/47/47 46/46/46
f 51/51/51 50/50/50 49/49/49
f 54/54/54 53/53/53 52/52/52
f 57/57/57 56/56/56 55/55/55
f 60/60/60 59/59/59 58/58/58
f 63/63/63 62/62/62 61/61/61
f 45/45/45 43/43/43 64/64/64
f 54/54/54 52/52/52 65/65/65
f 68/68/68 67/67/67 66/66/66
f 57/57/57 55/55/55 69/69/69
f 72/72/72 71/71/71 70/70/70
f 73/73/73 19/19/19 20/20/20
f 76/76/76 75/75/75 74/74/74
f 5/5/5 4/4/4 77/77/77
f 77/77/77 78/78/78 5/5/5
f 80/80/80 15/15/15 79/79/79
f 77/77/77 81/81/81 78/78/78
f 77/77/77 82/82/82 81/81/81
f 85/85/85 84/84/84 83/83/83
f 15/15/15 80/80/80 20/20/20
f 20/20/20 86/86/86 73/73/73
f 89/89/89 88/88/88 87/87/87
f 91/91/91 79/79/79 90/90/90
f 80/80/80 79/79/79 92/92/92
f 20/20/20 80/80/80 86/86/86
f 93/93/93 92/92/92 79/79/79
f 77/77/77 91/91/91 90/90/90
f 91/91/91 94/94/94 79/79/79
f 97/97/97 96/96/96 95/95/95
f 100/100/100 99/99/99 98/98/98
f 103/103/103 102/102/102 101/101/101
f 104/104/104 91/91/91 77/77/77
f 107/107/107 106/106/106 105/105/105
f 108/108/108 104/104/104 77/77/77
f 77/77/77 109/109/109 108/108/108
f 110/110/110 109/109/109 77/77/77
f 80/80/80 111/111/111 86/86/86
f 114/114/114 113/113/113 112/112/112
f 117/117/117 116/116/116 115/115/115
f 120/120/120 119/119/119 118/118/118
f 123/123/123 122/122/122 121/121/121
f 126/126/126 125/125/125 124/124/124
f 129/129/129 128/128/128 127/127/127
f 120/120/120 118/118/118 130/130/130
f 93/93/93 111/111/111 92/92/92
f 133/133/133 132/132/132 131/131/131
f 134/134/134 111/111/111 93/93/93
