# VPXTOOL table OBJ file
# VPXTOOL OBJ file
# numVerts: 123 numFaces: 138
o LM_L_LW5_UnderPF
v -11.042236328125 -22.493064880371094 -12.23087215423584
v -20.067522048950195 -20.697803497314453 -12.23087215423584
v -11.042236328125 -22.493064880371094 -6.426159381866455
v -20.067522048950195 -20.697803497314453 -12.23087215423584
v -29.09278106689453 -22.493064880371094 -12.23087215423584
v -20.067522048950195 -20.697803497314453 -6.426159381866455
v -20.067522048950195 -20.697803497314453 -12.23087215423584
v -20.067522048950195 -20.697803497314453 -6.426159381866455
v -11.042236328125 -22.493064880371094 -6.426159381866455
v -3.390976905822754 -27.605426788330078 -12.23087215423584
v -11.042236328125 -22.493064880371094 -12.23087215423584
v -3.390976905822754 -27.605426788330078 -6.426159381866455
v -11.042236328125 -22.493064880371094 -12.23087215423584
v -11.042236328125 -22.493064880371094 -6.426159381866455
v -3.390976905822754 -27.605426788330078 -6.426159381866455
v -29.09278106689453 -22.493064880371094 -12.23087215423584
v -29.09278106689453 -22.493064880371094 -6.426159381866455
v -20.067522048950195 -20.697803497314453 -6.426159381866455
v -29.09278106689453 -22.493064880371094 -12.23087215423584
v -36.744041442871094 -27.605426788330078 -12.23087215423584
v -29.09278106689453 -22.493064880371094 -6.426159381866455
v -3.390976905822754 -27.605426788330078 -12.23087215423584
v -3.390976905822754 -27.605426788330078 -6.426159381866455
v 1.7214395999908447 -35.25668716430664 -6.426159381866455
v 1.7214395999908447 -35.25668716430664 -12.23087215423584
v -3.390976905822754 -27.605426788330078 -12.23087215423584
v 1.7214395999908447 -35.25668716430664 -6.426159381866455
v -36.744041442871094 -27.605426788330078 -12.23087215423584
v -36.744041442871094 -27.605426788330078 -6.426159381866455
v -29.09278106689453 -22.493064880371094 -6.426159381866455
v 3.516674041748047 -44.28202819824219 -6.426159381866455
v -11.042236328125 -22.493064880371094 -6.426159381866455
v -20.067522048950195 -20.697803497314453 -6.426159381866455
v -3.390976905822754 -27.605426788330078 -6.426159381866455
v -36.744041442871094 -27.605426788330078 -12.23087215423584
v -41.8564567565918 -35.25668716430664 -12.23087215423584
v -36.744041442871094 -27.605426788330078 -6.426159381866455
v -43.65169143676758 -44.28202819824219 -6.426159381866455
v -20.067522048950195 -20.697803497314453 -6.426159381866455
v -29.09278106689453 -22.493064880371094 -6.426159381866455
v 1.7214395999908447 -35.25668716430664 -6.426159381866455
v 1.7214395999908447 -35.25668716430664 -12.23087215423584
v 1.7214395999908447 -35.25668716430664 -6.426159381866455
v 3.516674041748047 -44.28202819824219 -6.426159381866455
v 3.516674041748047 -44.28202819824219 -12.23087215423584
v 1.7214395999908447 -35.25668716430664 -12.23087215423584
v 3.516674041748047 -44.28202819824219 -6.426159381866455
v -41.8564567565918 -35.25668716430664 -12.23087215423584
v -41.8564567565918 -35.25668716430664 -6.426159381866455
v -36.744041442871094 -27.605426788330078 -6.426159381866455
v -43.65169143676758 -44.28202819824219 -6.426159381866455
v -29.09278106689453 -22.493064880371094 -6.426159381866455
v -36.744041442871094 -27.605426788330078 -6.426159381866455
v -41.8564567565918 -35.25668716430664 -12.23087215423584
v -43.65169143676758 -44.28202819824219 -12.23087215423584
v -41.8564567565918 -35.25668716430664 -6.426159381866455
v -3.390976905822754 -60.958518981933594 -6.426159381866455
v 3.516674041748047 -44.28202819824219 -6.426159381866455
v -36.744041442871094 -27.605426788330078 -6.426159381866455
v -41.8564567565918 -35.25668716430664 -6.426159381866455
v -43.65169143676758 -44.28202819824219 -6.426159381866455
v 3.516674041748047 -44.28202819824219 -12.23087215423584
v 3.516674041748047 -44.28202819824219 -6.426159381866455
v 1.7214395999908447 -53.30725860595703 -6.426159381866455
v 1.7214395999908447 -53.30725860595703 -12.23087215423584
v 3.516674041748047 -44.28202819824219 -12.23087215423584
v 1.7214395999908447 -53.30725860595703 -6.426159381866455
v -43.65169143676758 -44.28202819824219 -12.23087215423584
v -43.65169143676758 -44.28202819824219 -6.426159381866455
v -41.8564567565918 -35.25668716430664 -6.426159381866455
v -36.744041442871094 -60.958518981933594 -6.426159381866455
v -43.65169143676758 -44.28202819824219 -12.23087215423584
v -41.8564567565918 -53.30725860595703 -12.23087215423584
v -43.65169143676758 -44.28202819824219 -6.426159381866455
v -20.067522048950195 -67.86619567871094 -6.426159381866455
v -3.390976905822754 -60.958518981933594 -6.426159381866455
v -3.390976905822754 -60.958518981933594 -6.426159381866455
v 1.7214395999908447 -53.30725860595703 -6.426159381866455
v 3.516674041748047 -44.28202819824219 -6.426159381866455
v 1.7214395999908447 -53.30725860595703 -12.23087215423584
v 1.7214395999908447 -53.30725860595703 -6.426159381866455
v -3.390976905822754 -60.958518981933594 -6.426159381866455
v -3.390976905822754 -60.958518981933594 -12.23087215423584
v 1.7214395999908447 -53.30725860595703 -12.23087215423584
v -3.390976905822754 -60.958518981933594 -6.426159381866455
v -41.8564567565918 -53.30725860595703 -12.23087215423584
v -41.8564567565918 -53.30725860595703 -6.426159381866455
v -43.65169143676758 -44.28202819824219 -6.426159381866455
v -41.8564567565918 -53.30725860595703 -12.23087215423584
v -36.744041442871094 -60.958518981933594 -12.23087215423584
v -41.8564567565918 -53.30725860595703 -6.426159381866455
v -41.8564567565918 -53.30725860595703 -6.426159381866455
v -3.390976905822754 -60.958518981933594 -12.23087215423584
v -3.390976905822754 -60.958518981933594 -6.426159381866455
v -11.042236328125 -66.07093811035156 -6.426159381866455
v -11.042236328125 -66.07093811035156 -12.23087215423584
v -3.390976905822754 -60.958518981933594 -12.23087215423584
v -11.042236328125 -66.07093811035156 -6.426159381866455
v -36.744041442871094 -60.958518981933594 -12.23087215423584
v -36.744041442871094 -60.958518981933594 -6.426159381866455
v -41.8564567565918 -53.30725860595703 -6.426159381866455
v -36.744041442871094 -60.958518981933594 -12.23087215423584
v -29.09278106689453 -66.07093811035156 -12.23087215423584
v -36.744041442871094 -60.958518981933594 -6.426159381866455
v -20.067522048950195 -67.86619567871094 -12.23087215423584
v -11.042236328125 -66.07093811035156 -12.23087215423584
v -20.067522048950195 -67.86619567871094 -6.426159381866455
v -20.067522048950195 -67.86619567871094 -6.426159381866455
v -11.042236328125 -66.07093811035156 -6.426159381866455
v -3.390976905822754 -60.958518981933594 -6.426159381866455
v -11.042236328125 -66.07093811035156 -12.23087215423584
v -11.042236328125 -66.07093811035156 -6.426159381866455
v -20.067522048950195 -67.86619567871094 -6.426159381866455
v -29.09278106689453 -66.07093811035156 -12.23087215423584
v -20.067522048950195 -67.86619567871094 -12.23087215423584
v -29.09278106689453 -66.07093811035156 -6.426159381866455
v -29.09278106689453 -66.07093811035156 -6.426159381866455
v -20.067522048950195 -67.86619567871094 -12.23087215423584
v -20.067522048950195 -67.86619567871094 -6.426159381866455
v -29.09278106689453 -66.07093811035156 -6.426159381866455
v -36.744041442871094 -60.958518981933594 -6.426159381866455
v -29.09278106689453 -66.07093811035156 -6.426159381866455
v -20.067522048950195 -67.86619567871094 -6.426159381866455
vt 0.4862673580646515 0.09826785326004028
vt 0.4868552088737488 0.10063415765762329
vt 0.48744702339172363 0.09825527667999268
vt 0.4868552088737488 0.10063415765762329
vt 0.4862673580646515 0.10299468040466309
vt 0.48803427815437317 0.10061788558959961
vt 0.4868552088737488 0.10063415765762329
vt 0.48803427815437317 0.10061788558959961
vt 0.48744702339172363 0.09825527667999268
vt 0.48459506034851074 0.09625941514968872
vt 0.4862673580646515 0.09826785326004028
vt 0.4857763648033142 0.09624993801116943
vt 0.4862673580646515 0.09826785326004028
vt 0.48744702339172363 0.09825527667999268
vt 0.4857763648033142 0.09624993801116943
vt 0.4862673580646515 0.10299468040466309
vt 0.48744702339172363 0.1029747724533081
vt 0.48803427815437317 0.10061788558959961
vt 0.4862673580646515 0.10299468040466309
vt 0.48459506034851074 0.10498654842376709
vt 0.48744702339172363 0.1029747724533081
vt 0.48459506034851074 0.09625941514968872
vt 0.4857763648033142 0.09624993801116943
vt 0.4832809269428253 0.09490859508514404
vt 0.48209717869758606 0.09491604566574097
vt 0.48459506034851074 0.09625941514968872
vt 0.4832809269428253 0.09490859508514404
vt 0.48459506034851074 0.10498654842376709
vt 0.4857763648033142 0.10496366024017334
vt 0.48744702339172363 0.1029747724533081
vt 0.48034489154815674 0.09443414211273193
vt 0.48744702339172363 0.09825527667999268
vt 0.48803427815437317 0.10061788558959961
vt 0.4857763648033142 0.09624993801116943
vt 0.48459506034851074 0.10498654842376709
vt 0.48209717869758606 0.10630524158477783
vt 0.4857763648033142 0.10496366024017334
vt 0.48034489154815674 0.10672581195831299
vt 0.48803427815437317 0.10061788558959961
vt 0.48744702339172363 0.1029747724533081
vt 0.4832809269428253 0.09490859508514404
vt 0.48209717869758606 0.09491604566574097
vt 0.4832809269428253 0.09490859508514404
vt 0.48034489154815674 0.09443414211273193
vt 0.4791582524776459 0.09444081783294678
vt 0.48209717869758606 0.09491604566574097
vt 0.48034489154815674 0.09443414211273193
vt 0.48209717869758606 0.10630524158477783
vt 0.4832809269428253 0.10628032684326172
vt 0.4857763648033142 0.10496366024017334
vt 0.48034489154815674 0.10672581195831299
vt 0.48744702339172363 0.1029747724533081
vt 0.4857763648033142 0.10496366024017334
vt 0.48209717869758606 0.10630524158477783
vt 0.4791582524776459 0.10675138235092163
vt 0.4832809269428253 0.10628032684326172
vt 0.47494104504585266 0.09621858596801758
vt 0.48034489154815674 0.09443414211273193
vt 0.4857763648033142 0.10496366024017334
vt 0.4832809269428253 0.10628032684326172
vt 0.48034489154815674 0.10672581195831299
vt 0.4791582524776459 0.09444081783294678
vt 0.48034489154815674 0.09443414211273193
vt 0.47741690278053284 0.0948953628540039
vt 0.47622743248939514 0.09490275382995605
vt 0.4791582524776459 0.09444081783294678
vt 0.47741690278053284 0.0948953628540039
vt 0.4791582524776459 0.10675138235092163
vt 0.48034489154815674 0.10672581195831299
vt 0.4832809269428253 0.10628032684326172
vt 0.47494104504585266 0.10488802194595337
vt 0.4791582524776459 0.10675138235092163
vt 0.47622743248939514 0.10626053810119629
vt 0.48034489154815674 0.10672581195831299
vt 0.4727106988430023 0.10054230690002441
vt 0.47494104504585266 0.09621858596801758
vt 0.47494104504585266 0.09621858596801758
vt 0.47741690278053284 0.0948953628540039
vt 0.48034489154815674 0.09443414211273193
vt 0.47622743248939514 0.09490275382995605
vt 0.47741690278053284 0.0948953628540039
vt 0.47494104504585266 0.09621858596801758
vt 0.4737491011619568 0.09622800350189209
vt 0.47622743248939514 0.09490275382995605
vt 0.47494104504585266 0.09621858596801758
vt 0.47622743248939514 0.10626053810119629
vt 0.47741690278053284 0.10623574256896973
vt 0.48034489154815674 0.10672581195831299
vt 0.47622743248939514 0.10626053810119629
vt 0.4737491011619568 0.10491073131561279
vt 0.47741690278053284 0.10623574256896973
vt 0.47741690278053284 0.10623574256896973
vt 0.4737491011619568 0.09622800350189209
vt 0.47494104504585266 0.09621858596801758
vt 0.4732899069786072 0.09820109605789185
vt 0.47209635376930237 0.09821349382400513
vt 0.4737491011619568 0.09622800350189209
vt 0.4732899069786072 0.09820109605789185
vt 0.4737491011619568 0.10491073131561279
vt 0.47494104504585266 0.10488802194595337
vt 0.47741690278053284 0.10623574256896973
vt 0.4737491011619568 0.10491073131561279
vt 0.47209635376930237 0.1029089093208313
vt 0.47494104504585266 0.10488802194595337
vt 0.4715166389942169 0.100558340549469
vt 0.47209635376930237 0.09821349382400513
vt 0.4727106988430023 0.10054230690002441
vt 0.4727106988430023 0.10054230690002441
vt 0.4732899069786072 0.09820109605789185
vt 0.47494104504585266 0.09621858596801758
vt 0.47209635376930237 0.09821349382400513
vt 0.4732899069786072 0.09820109605789185
vt 0.4727106988430023 0.10054230690002441
vt 0.47209635376930237 0.1029089093208313
vt 0.4715166389942169 0.100558340549469
vt 0.4732899069786072 0.1028892993927002
vt 0.4732899069786072 0.1028892993927002
vt 0.4715166389942169 0.100558340549469
vt 0.4727106988430023 0.10054230690002441
vt 0.4732899069786072 0.1028892993927002
vt 0.47494104504585266 0.10488802194595337
vt 0.4732899069786072 0.1028892993927002
vt 0.4727106988430023 0.10054230690002441
vn -0.19509252905845642 -0.9807848334312439 -0
vn -0.19509252905845642 -0.9807848334312439 -0
vn -0.19509252905845642 -0.9807848334312439 -0
vn 0.19509312510490417 -0.9807847738265991 -0
vn 0.19509312510490417 -0.9807847738265991 -0
vn 0.19509312510490417 -0.9807847738265991 -0
vn -0.19509249925613403 -0.9807848334312439 -0
vn -0.19509249925613403 -0.9807848334312439 -0
vn -0.19509249925613403 -0.9807848334312439 -0
vn -0.5555667281150818 -0.8314719796180725 -0
vn -0.5555667281150818 -0.8314719796180725 -0
vn -0.5555667281150818 -0.8314719796180725 -0
vn -0.555566668510437 -0.8314719796180725 -0
vn -0.555566668510437 -0.8314719796180725 -0
vn -0.555566668510437 -0.8314719796180725 -0
vn 0.1950930953025818 -0.9807847738265991 -0
vn 0.1950930953025818 -0.9807847738265991 -0
vn 0.1950930953025818 -0.9807847738265991 -0
vn 0.5555668473243713 -0.8314719200134277 -0
vn 0.5555668473243713 -0.8314719200134277 -0
vn 0.5555668473243713 -0.8314719200134277 -0
vn -0.8314691185951233 -0.5555708408355713 -0
vn -0.8314691185951233 -0.5555708408355713 -0
vn -0.8314691185951233 -0.5555708408355713 -0
vn -0.8314691781997681 -0.5555707812309265 -0
vn -0.8314691781997681 -0.5555707812309265 -0
vn -0.8314691781997681 -0.5555707812309265 -0
vn 0.5555667281150818 -0.8314719200134277 -0
vn 0.5555667281150818 -0.8314719200134277 -0
vn 0.5555667281150818 -0.8314719200134277 -0
vn 0 -0 -1
vn 0 -0 -1
vn 0 -0 -1
vn 0 -0 -1
vn 0.8314692378044128 -0.5555707216262817 -0
vn 0.8314692378044128 -0.5555707216262817 -0
vn 0.8314692378044128 -0.5555707216262817 -0
vn 0 -0 -0.9999999403953552
vn 0 -0 -0.9999999403953552
vn 0 -0 -0.9999999403953552
vn 0 -0 -1
vn -0.9807856678962708 -0.19508852064609528 -0
vn -0.9807856678962708 -0.19508852064609528 -0
vn -0.9807856678962708 -0.19508852064609528 -0
vn -0.9807856678962708 -0.1950884908437729 -0
vn -0.9807856678962708 -0.1950884908437729 -0
vn -0.9807856678962708 -0.1950884908437729 -0
vn 0.8314692378044128 -0.5555707812309265 -0
vn 0.8314692378044128 -0.5555707812309265 -0
vn 0.8314692378044128 -0.5555707812309265 -0
vn 0 -0 -1
vn 0 -0 -1
vn 0 -0 -1
vn 0.9807855486869812 -0.19508911669254303 -0
vn 0.9807855486869812 -0.19508911669254303 -0
vn 0.9807855486869812 -0.19508911669254303 -0
vn 0 -0 -0.9999999403953552
vn 0 -0 -0.9999999403953552
vn 0.00000019267540096734592 -0 -1
vn 0.00000019267540096734592 -0 -1
vn 0.00000019267540096734592 -0 -1
vn -0.9807851910591125 0.19509077072143555 -0
vn -0.9807851910591125 0.19509077072143555 -0
vn -0.9807851910591125 0.19509077072143555 -0
vn -0.9807851910591125 0.19509080052375793 -0
vn -0.9807851910591125 0.19509080052375793 -0
vn -0.9807851910591125 0.19509080052375793 -0
vn 0.9807856678962708 -0.195088192820549 -0
vn 0.9807856678962708 -0.195088192820549 -0
vn 0.9807856678962708 -0.195088192820549 -0
vn 0 -0 -1
vn 0.9807853102684021 0.19509050250053406 -0
vn 0.9807853102684021 0.19509050250053406 -0
vn 0.9807853102684021 0.19509050250053406 -0
vn 0 -0 -1
vn 0 -0 -1
vn -0.00000019267852735538327 -0 -1
vn -0.00000019267852735538327 -0 -1
vn -0.00000019267852735538327 -0 -1
vn -0.8314691185951233 0.5555708408355713 -0
vn -0.8314691185951233 0.5555708408355713 -0
vn -0.8314691185951233 0.5555708408355713 -0
vn -0.8314691781997681 0.5555707812309265 -0
vn -0.8314691781997681 0.5555707812309265 -0
vn -0.8314691781997681 0.5555707812309265 -0
vn 0.980785071849823 0.1950913816690445 -0
vn 0.980785071849823 0.1950913816690445 -0
vn 0.980785071849823 0.1950913816690445 -0
vn 0.8314692378044128 0.5555707216262817 -0
vn 0.8314692378044128 0.5555707216262817 -0
vn 0.8314692378044128 0.5555707216262817 -0
vn 0 -0 -1
vn -0.5555707812309265 0.8314691781997681 -0
vn -0.5555707812309265 0.8314691781997681 -0
vn -0.5555707812309265 0.8314691781997681 -0
vn -0.5555708408355713 0.8314691185951233 -0
vn -0.5555708408355713 0.8314691185951233 -0
vn -0.5555708408355713 0.8314691185951233 -0
vn 0.8314692378044128 0.5555707812309265 -0
vn 0.8314692378044128 0.5555707812309265 -0
vn 0.8314692378044128 0.5555707812309265 -0
vn 0.5555709004402161 0.8314691185951233 -0
vn 0.5555709004402161 0.8314691185951233 -0
vn 0.5555709004402161 0.8314691185951233 -0
vn -0.19509252905845642 0.9807848334312439 -0
vn -0.19509252905845642 0.9807848334312439 -0
vn -0.19509252905845642 0.9807848334312439 -0
vn 0.00000004816970644583307 -0 -1
vn 0.00000004816970644583307 -0 -1
vn 0.00000004816970644583307 -0 -1
vn -0.19509249925613403 0.9807848334312439 -0
vn -0.19509249925613403 0.9807848334312439 -0
vn -0.19509249925613403 0.9807848334312439 -0
vn 0.19509312510490417 0.9807847738265991 -0
vn 0.19509312510490417 0.9807847738265991 -0
vn 0.19509312510490417 0.9807847738265991 -0
vn 0.5555709004402161 0.8314691185951233 -0
vn 0.1950930953025818 0.9807847738265991 -0
vn 0.1950930953025818 0.9807847738265991 -0
vn 0.1950930953025818 0.9807847738265991 -0
vn 0 -0 -0.9999999403953552
vn 0 -0 -0.9999999403953552
vn 0 -0 -0.9999999403953552
f 3/3/3 2/2/2 1/1/1
f 6/6/6 5/5/5 4/4/4
f 9/9/9 8/8/8 7/7/7
f 12/12/12 11/11/11 10/10/10
f 15/15/15 14/14/14 13/13/13
f 18/18/18 17/17/17 16/16/16
f 21/21/21 20/20/20 19/19/19
f 24/24/24 23/23/23 22/22/22
f 27/27/27 26/26/26 25/25/25
f 30/30/30 29/29/29 28/28/28
f 33/33/33 32/32/32 31/31/31
f 32/32/32 34/34/34 31/31/31
f 37/37/37 36/36/36 35/35/35
f 40/40/40 39/39/39 38/38/38
f 34/34/34 41/41/41 31/31/31
f 44/44/44 43/43/43 42/42/42
f 47/47/47 46/46/46 45/45/45
f 50/50/50 49/49/49 48/48/48
f 53/53/53 52/52/52 51/51/51
f 56/56/56 55/55/55 54/54/54
f 58/58/58 57/57/57 39/39/39
f 61/61/61 60/60/60 59/59/59
f 64/64/64 63/63/63 62/62/62
f 67/67/67 66/66/66 65/65/65
f 70/70/70 69/69/69 68/68/68
f 71/71/71 51/51/51 33/33/33
f 74/74/74 73/73/73 72/72/72
f 76/76/76 75/75/75 33/33/33
f 79/79/79 78/78/78 77/77/77
f 82/82/82 81/81/81 80/80/80
f 75/75/75 71/71/71 33/33/33
f 85/85/85 84/84/84 83/83/83
f 88/88/88 87/87/87 86/86/86
f 91/91/91 90/90/90 89/89/89
f 71/71/71 92/92/92 51/51/51
f 95/95/95 94/94/94 93/93/93
f 98/98/98 97/97/97 96/96/96
f 101/101/101 100/100/100 99/99/99
f 104/104/104 103/103/103 102/102/102
f 107/107/107 106/106/106 105/105/105
f 110/110/110 109/109/109 108/108/108
f 113/113/113 112/112/112 111/111/111
f 116/116/116 115/115/115 114/114/114
f 104/104/104 117/117/117 103/103/103
f 120/120/120 119/119/119 118/118/118
f 123/123/123 122/122/122 121/121/121
