# VPXTOOL table OBJ file
# VPXTOOL OBJ file
# numVerts: 135 numFaces: 135
o LM_L_LS5_Playfield
v 633.8717651367188 419.4089660644531 0.00006556786684086546
v 633.8717651367188 419.4089660644531 23.529476165771484
v 650.4971313476563 350.7649230957031 0.00006901880988152698
v 633.8717651367188 419.4089660644531 0.00006556786684086546
v 650.4971313476563 350.7649230957031 0.00006901880988152698
v 719.1183471679688 427.25244140625 0.00007553734758403152
v 573.0140380859375 404.66943359375 23.529470443725586
v 633.8717651367188 419.4089660644531 23.529476165771484
v 633.8717651367188 419.4089660644531 0.00006556786684086546
v 573.0140380859375 404.66943359375 0.00005866598803550005
v 573.0140380859375 404.66943359375 23.529470443725586
v 633.8717651367188 419.4089660644531 0.00006556786684086546
v 555.6607055664063 422.4931945800781 0.00005845030682394281
v 573.0140380859375 404.66943359375 0.00005866598803550005
v 633.8717651367188 419.4089660644531 0.00006556786684086546
v 554.44482421875 423.3175354003906 0.00005758757106377743
v 555.6607055664063 422.4931945800781 0.00005845030682394281
v 633.8717651367188 419.4089660644531 0.00006556786684086546
v 633.8717651367188 419.4089660644531 0.00006556786684086546
v 719.1183471679688 427.25244140625 0.00007553734758403152
v 719.1183471679688 638.3048706054688 0.00007553734758403152
v 554.44482421875 423.3175354003906 0.00005758757106377743
v 633.8717651367188 419.4089660644531 0.00006556786684086546
v 496.4731750488281 638.3048706054688 0.00005215082273934968
v 538.775146484375 420.31097412109375 0.00005607778439298272
v 540.0970458984375 420.9517517089844 0.00005607778439298272
v 496.4731750488281 638.3048706054688 0.00005215082273934968
v 540.0970458984375 420.9517517089844 0.00005607778439298272
v 552.9796752929688 423.4235534667969 0.00005758757106377743
v 496.4731750488281 638.3048706054688 0.00005215082273934968
v 554.44482421875 423.3175354003906 0.00005758757106377743
v 496.4731750488281 638.3048706054688 0.00005215082273934968
v 552.9796752929688 423.4235534667969 0.00005758757106377743
v 428.0748596191406 505.1766052246094 0.00004464654193725437
v 538.775146484375 420.31097412109375 0.00005607778439298272
v 496.4731750488281 638.3048706054688 0.00005215082273934968
v 719.1183471679688 638.3048706054688 0.00007553734758403152
v 719.1183471679688 427.25244140625 0.00007553734758403152
v 724.5439453125 621.7664184570313 0.00007548932626377791
v 496.4731750488281 638.3048706054688 0.00005215082273934968
v 633.8717651367188 419.4089660644531 0.00006556786684086546
v 719.1183471679688 638.3048706054688 0.00007553734758403152
v 317.3746032714844 590.0422973632813 0.000033215303119504824
v 428.0748596191406 505.1766052246094 0.00004464654193725437
v 496.4731750488281 638.3048706054688 0.00005215082273934968
v 719.1183471679688 638.3048706054688 0.00007553734758403152
v 724.5439453125 621.7664184570313 0.00007548932626377791
v 721.96240234375 632.0072021484375 0.00007548932626377791
v 721.96240234375 632.0072021484375 0.00007548932626377791
v 721.9903564453125 633.8909912109375 0.00007548932626377791
v 719.1183471679688 638.3048706054688 0.00007553734758403152
v 317.3746032714844 590.0422973632813 0.000033215303119504824
v 496.4731750488281 638.3048706054688 0.00005215082273934968
v 371.0752868652344 638.3048706054688 0.00003897810529451817
v 721.9903564453125 633.8909912109375 0.00007548932626377791
v 722.9564819335938 635.5084228515625 0.00007635205838596448
v 719.1183471679688 638.3048706054688 0.00007553734758403152
v 722.9564819335938 635.5084228515625 0.00007635205838596448
v 724.6018676757813 636.4260864257813 0.00007635205838596448
v 719.1183471679688 638.3048706054688 0.00007553734758403152
v 724.6018676757813 636.4260864257813 0.00007635205838596448
v 732.054443359375 638.3048095703125 0.00007689632184337825
v 719.1183471679688 638.3048706054688 0.00007553734758403152
v 740.9149169921875 640.5385131835938 0.00007635205838596448
v 719.1183471679688 638.3048706054688 0.00007553734758403152
v 732.054443359375 638.3048095703125 0.00007689632184337825
v 762.03271484375 726.3328857421875 0.00007764616020722315
v 719.1183471679688 638.3048706054688 0.00007553734758403152
v 740.9149169921875 640.5385131835938 0.00007635205838596448
v 496.4731750488281 638.3048706054688 0.00005215082273934968
v 719.1183471679688 638.3048706054688 0.00007553734758403152
v 645.4556274414063 774.5100708007813 0.00006796398520236835
v 762.03271484375 726.3328857421875 0.00007764616020722315
v 759.8433837890625 729.0006713867188 0.00007764616020722315
v 719.1183471679688 638.3048706054688 0.00007553734758403152
v 759.8433837890625 729.0006713867188 0.00007764616020722315
v 758.2164916992188 732.0443725585938 0.00007764616020722315
v 719.1183471679688 638.3048706054688 0.00007553734758403152
v 758.2164916992188 732.0443725585938 0.00007764616020722315
v 757.2146606445313 735.346923828125 0.00007764616020722315
v 719.1183471679688 638.3048706054688 0.00007553734758403152
v 757.2146606445313 735.346923828125 0.00007764616020722315
v 756.8764038085938 738.7815551757813 0.00007764616020722315
v 719.1183471679688 638.3048706054688 0.00007553734758403152
v 757.2146606445313 742.2161254882813 0.00007764616020722315
v 719.1183471679688 638.3048706054688 0.00007553734758403152
v 756.8764038085938 738.7815551757813 0.00007764616020722315
v 496.4731750488281 638.3048706054688 0.00005215082273934968
v 433.77423095703125 800.4548950195313 0.000045564884203486145
v 371.0752868652344 638.3048706054688 0.00003897810529451817
v 719.1183471679688 638.3048706054688 0.00007553734758403152
v 757.2146606445313 742.2161254882813 0.00007764616020722315
v 719.1183471679688 800.4548950195313 0.00007553734758403152
v 645.4556274414063 774.5100708007813 0.00006796398520236835
v 719.1183471679688 638.3048706054688 0.00007553734758403152
v 719.1183471679688 800.4548950195313 0.00007553734758403152
v 433.77423095703125 800.4548950195313 0.000045564884203486145
v 496.4731750488281 638.3048706054688 0.00005215082273934968
v 496.4731750488281 800.4548950195313 0.00005215082273934968
v 571.79296875 910.71533203125 0.000060391459555830806
v 496.4731750488281 638.3048706054688 0.00005215082273934968
v 645.4556274414063 774.5100708007813 0.00006796398520236835
v 496.4731750488281 800.4548950195313 0.00005215082273934968
v 496.4731750488281 638.3048706054688 0.00005215082273934968
v 525.080078125 899.4360961914063 0.00005521504863281734
v 496.4731750488281 638.3048706054688 0.00005215082273934968
v 526.844970703125 898.7673950195313 0.00005521504863281734
v 525.080078125 899.4360961914063 0.00005521504863281734
v 496.4731750488281 638.3048706054688 0.00005215082273934968
v 571.79296875 910.71533203125 0.000060391459555830806
v 526.844970703125 898.7673950195313 0.00005521504863281734
v 757.2146606445313 742.2161254882813 0.00007764616020722315
v 719.1183471679688 962.6049194335938 0.00007553734758403152
v 719.1183471679688 800.4548950195313 0.00007553734758403152
v 571.79296875 910.71533203125 0.000060391459555830806
v 645.4556274414063 774.5100708007813 0.00006796398520236835
v 719.1183471679688 800.4548950195313 0.00007553734758403152
v 571.79296875 910.71533203125 23.52947235107422
v 526.844970703125 898.7673950195313 23.52946662902832
v 571.79296875 910.71533203125 0.000060391459555830806
v 719.1183471679688 962.6049194335938 0.00007553734758403152
v 571.79296875 910.71533203125 0.000060391459555830806
v 719.1183471679688 800.4548950195313 0.00007553734758403152
v 572.992919921875 912.1720581054688 23.52947235107422
v 571.79296875 910.71533203125 23.52947235107422
v 571.79296875 910.71533203125 0.000060391459555830806
v 526.844970703125 898.7673950195313 23.52946662902832
v 526.844970703125 898.7673950195313 0.00005521504863281734
v 571.79296875 910.71533203125 0.000060391459555830806
v 572.992919921875 912.1720581054688 0.000060391459555830806
v 572.992919921875 912.1720581054688 23.52947235107422
v 571.79296875 910.71533203125 0.000060391459555830806
v 571.79296875 910.71533203125 0.000060391459555830806
v 719.1183471679688 962.6049194335938 0.00007553734758403152
v 572.992919921875 912.1720581054688 0.000060391459555830806
vt 0.8199531435966492 0.14237141609191895
vt 0.819843053817749 0.14413350820541382
vt 0.8217663168907166 0.13610029220581055
vt 0.8199531435966492 0.14237141609191895
vt 0.8217663168907166 0.13610029220581055
vt 0.8303297758102417 0.14309579133987427
vt 0.8124767541885376 0.14278078079223633
vt 0.819843053817749 0.14413350820541382
vt 0.8199531435966492 0.14237141609191895
vt 0.8125441670417786 0.14101457595825195
vt 0.8124767541885376 0.14278078079223633
vt 0.8199531435966492 0.14237141609191895
vt 0.8104673027992249 0.1426560878753662
vt 0.8125441670417786 0.14101457595825195
vt 0.8199531435966492 0.14237141609191895
vt 0.8103207945823669 0.14273220300674438
vt 0.8104673027992249 0.1426560878753662
vt 0.8199531435966492 0.14237141609191895
vt 0.8199531435966492 0.14237141609191895
vt 0.8303297758102417 0.14309579133987427
vt 0.8312422037124634 0.16321080923080444
vt 0.8103207945823669 0.14273220300674438
vt 0.8199531435966492 0.14237141609191895
vt 0.8033608794212341 0.16321080923080444
vt 0.8084151744842529 0.1424546241760254
vt 0.8085762858390808 0.14251375198364258
vt 0.8033608794212341 0.16321080923080444
vt 0.8085762858390808 0.14251375198364258
vt 0.8101430535316467 0.14274197816848755
vt 0.8033608794212341 0.16321080923080444
vt 0.8103207945823669 0.14273220300674438
vt 0.8033608794212341 0.16321080923080444
vt 0.8101430535316467 0.14274197816848755
vt 0.7949102520942688 0.15038061141967773
vt 0.8084151744842529 0.1424546241760254
vt 0.8033608794212341 0.16321080923080444
vt 0.8312422037124634 0.16321080923080444
vt 0.8303297758102417 0.14309579133987427
vt 0.8318464756011963 0.16158980131149292
vt 0.8033608794212341 0.16321080923080444
vt 0.8199531435966492 0.14237141609191895
vt 0.8312422037124634 0.16321080923080444
vt 0.7810721397399902 0.15850216150283813
vt 0.7949102520942688 0.15038061141967773
vt 0.8033608794212341 0.16321080923080444
vt 0.8312422037124634 0.16321080923080444
vt 0.8318464756011963 0.16158980131149292
vt 0.8315699696540833 0.1625925898551941
vt 0.8315699696540833 0.1625925898551941
vt 0.8315820097923279 0.16277742385864258
vt 0.8312422037124634 0.16321080923080444
vt 0.7810721397399902 0.15850216150283813
vt 0.8033608794212341 0.16321080923080444
vt 0.7876575589179993 0.16321080923080444
vt 0.8315820097923279 0.16277742385864258
vt 0.8317102193832397 0.16293615102767944
vt 0.8312422037124634 0.16321080923080444
vt 0.8317102193832397 0.16293615102767944
vt 0.831920325756073 0.16302627325057983
vt 0.8312422037124634 0.16321080923080444
vt 0.831920325756073 0.16302627325057983
vt 0.8328621983528137 0.16321080923080444
vt 0.8312422037124634 0.16321080923080444
vt 0.8339825868606567 0.1634303331375122
vt 0.8312422037124634 0.16321080923080444
vt 0.8328621983528137 0.16321080923080444
vt 0.8370838761329651 0.17197275161743164
vt 0.8312422037124634 0.16321080923080444
vt 0.8339825868606567 0.1634303331375122
vt 0.8033608794212341 0.16321080923080444
vt 0.8312422037124634 0.16321080923080444
vt 0.8224493265151978 0.17686563730239868
vt 0.8370838761329651 0.17197275161743164
vt 0.8368204236030579 0.17224186658859253
vt 0.8312422037124634 0.16321080923080444
vt 0.8368204236030579 0.17224186658859253
vt 0.83663010597229 0.17254912853240967
vt 0.8312422037124634 0.16321080923080444
vt 0.83663010597229 0.17254912853240967
vt 0.8365204334259033 0.17288291454315186
vt 0.8312422037124634 0.16321080923080444
vt 0.8365204334259033 0.17288291454315186
vt 0.8364956378936768 0.1732303500175476
vt 0.8312422037124634 0.16321080923080444
vt 0.8365569114685059 0.17357808351516724
vt 0.8312422037124634 0.16321080923080444
vt 0.8364956378936768 0.1732303500175476
vt 0.8033608794212341 0.16321080923080444
vt 0.7953806519508362 0.17952990531921387
vt 0.7876575589179993 0.16321080923080444
vt 0.8312422037124634 0.16321080923080444
vt 0.8365569114685059 0.17357808351516724
vt 0.831982433795929 0.17952990531921387
vt 0.8224493265151978 0.17686563730239868
vt 0.8312422037124634 0.16321080923080444
vt 0.831982433795929 0.17952990531921387
vt 0.7953806519508362 0.17952990531921387
vt 0.8033608794212341 0.16321080923080444
vt 0.8034232258796692 0.17952990531921387
vt 0.8132912516593933 0.19108760356903076
vt 0.8033608794212341 0.16321080923080444
vt 0.8224493265151978 0.17686563730239868
vt 0.8034232258796692 0.17952990531921387
vt 0.8033608794212341 0.16321080923080444
vt 0.807187557220459 0.18988746404647827
vt 0.8033608794212341 0.16321080923080444
vt 0.8074166774749756 0.18981647491455078
vt 0.807187557220459 0.18988746404647827
vt 0.8033608794212341 0.16321080923080444
vt 0.8132912516593933 0.19108760356903076
vt 0.8074166774749756 0.18981647491455078
vt 0.8365569114685059 0.17357808351516724
vt 0.8327596187591553 0.1966623067855835
vt 0.831982433795929 0.17952990531921387
vt 0.8132912516593933 0.19108760356903076
vt 0.8224493265151978 0.17686563730239868
vt 0.831982433795929 0.17952990531921387
vt 0.8132140636444092 0.1926800012588501
vt 0.8073758482933044 0.19141381978988647
vt 0.8132912516593933 0.19108760356903076
vt 0.8327596187591553 0.1966623067855835
vt 0.8132912516593933 0.19108760356903076
vt 0.831982433795929 0.17952990531921387
vt 0.8133723735809326 0.19283467531204224
vt 0.8132140636444092 0.1926800012588501
vt 0.8132912516593933 0.19108760356903076
vt 0.8073758482933044 0.19141381978988647
vt 0.8074166774749756 0.18981647491455078
vt 0.8132912516593933 0.19108760356903076
vt 0.8134505748748779 0.19124287366867065
vt 0.8133723735809326 0.19283467531204224
vt 0.8132912516593933 0.19108760356903076
vt 0.8132912516593933 0.19108760356903076
vt 0.8327596187591553 0.1966623067855835
vt 0.8134505748748779 0.19124287366867065
vn -0.9719011187553406 -0.23538951575756073 -0
vn -0.9719011187553406 -0.23538951575756073 -0
vn -0.9719011187553406 -0.23538951575756073 -0
vn 0.0000001189241700672028 -0.000000021470100364240352 -1
vn 0.0000001189241700672028 -0.000000021470100364240352 -1
vn 0.0000001189241700672028 -0.000000021470100364240352 -1
vn 0.23539097607135773 -0.9719007611274719 -0
vn 0.23539097607135773 -0.9719007611274719 -0
vn 0.23539097607135773 -0.9719007611274719 -0
vn 0.23539118468761444 -0.9719007015228271 -0
vn 0.23539118468761444 -0.9719007015228271 -0
vn 0.23539118468761444 -0.9719007015228271 -0
vn 0.00000009414168999910544 0.00000007955676295523517 -1
vn 0.00000009414168999910544 0.00000007955676295523517 -1
vn 0.00000009414168999910544 0.00000007955676295523517 -1
vn 0.00000005280770309923355 -0.0000009687098554422846 -1
vn 0.00000005280770309923355 -0.0000009687098554422846 -1
vn 0.00000005280770309923355 -0.0000009687098554422846 -1
vn 0.000000116948847050935 -0 -0.9999999403953552
vn 0.000000116948847050935 -0 -0.9999999403953552
vn 0.000000116948847050935 -0 -0.9999999403953552
vn 0.00000010056347576892222 0.0000000018284035396831655 -1
vn 0.00000010056347576892222 0.0000000018284035396831655 -1
vn 0.00000010056347576892222 0.0000000018284035396831655 -1
vn 0.000000007979310545636054 -0.000000016464484886569153 -1
vn 0.000000007979310545636054 -0.000000016464484886569153 -1
vn 0.000000007979310545636054 -0.000000016464484886569153 -1
vn 0.0000001161879126243548 0.000000005252380752551744 -1
vn 0.0000001161879126243548 0.000000005252380752551744 -1
vn 0.0000001161879126243548 0.000000005252380752551744 -1
vn -0.0000000018656141076434096 -0.00000002579162305949012 -1
vn -0.0000000018656141076434096 -0.00000002579162305949012 -1
vn -0.0000000018656141076434096 -0.00000002579162305949012 -1
vn 0.00000010508600212233432 0.0000000023779487268171806 -1
vn 0.00000010508600212233432 0.0000000023779487268171806 -1
vn 0.00000010508600212233432 0.0000000023779487268171806 -1
vn -0.000000008849900368090857 -0 -1
vn -0.000000008849900368090857 -0 -1
vn -0.000000008849900368090857 -0 -1
vn 0.0000001050393834134411 0.000000004637942474516876 -0.9999999403953552
vn 0.0000001050393834134411 0.000000004637942474516876 -0.9999999403953552
vn 0.0000001050393834134411 0.000000004637942474516876 -0.9999999403953552
vn 0.00000010508603764947111 0.000000002377986696444623 -1
vn 0.00000010508603764947111 0.000000002377986696444623 -1
vn 0.00000010508603764947111 0.000000002377986696444623 -1
vn -0.00000003820620619876536 -0.000000009635312991917999 -1
vn -0.00000003820620619876536 -0.000000009635312991917999 -1
vn -0.00000003820620619876536 -0.000000009635312991917999 -1
vn -0.000000016347124542903657 0.00000000024318391744770906 -1
vn -0.000000016347124542903657 0.00000000024318391744770906 -1
vn -0.000000016347124542903657 0.00000000024318391744770906 -1
vn 0.00000010504738412464576 0.0000000025212663068430174 -1
vn 0.00000010504738412464576 0.0000000025212663068430174 -1
vn 0.00000010504738412464576 0.0000000025212663068430174 -1
vn 0.0000004186914850379253 0.0000002833230610121973 -1
vn 0.0000004186914850379253 0.0000002833230610121973 -1
vn 0.0000004186914850379253 0.0000002833230610121973 -1
vn 0.00000009203324680129299 -0.0000001650206797876308 -1
vn 0.00000009203324680129299 -0.0000001650206797876308 -1
vn 0.00000009203324680129299 -0.0000001650206797876308 -1
vn 0.0000001050509794708887 -0.00000012702199114755786 -1
vn 0.0000001050509794708887 -0.00000012702199114755786 -1
vn 0.0000001050509794708887 -0.00000012702199114755786 -1
vn 0.00000010505161895935089 -0.0000006603659130632877 -1
vn 0.00000010505161895935089 -0.0000006603659130632877 -1
vn 0.00000010505161895935089 -0.0000006603659130632877 -1
vn 0.00000003675883775144939 0.000000006035601352039066 -1
vn 0.00000003675883775144939 0.000000006035601352039066 -1
vn 0.00000003675883775144939 0.000000006035601352039066 -1
vn 0.00000010503949710027882 0.0000000012049862219143392 -1
vn 0.00000010503949710027882 0.0000000012049862219143392 -1
vn 0.00000010503949710027882 0.0000000012049862219143392 -1
vn 0.00000001831528351203815 0.00000001502859348079255 -1
vn 0.00000001831528351203815 0.00000001502859348079255 -1
vn 0.00000001831528351203815 0.00000001502859348079255 -1
vn 0.000000023639094237637437 0.000000012636430568591095 -1
vn 0.000000023639094237637437 0.000000012636430568591095 -1
vn 0.000000023639094237637437 0.000000012636430568591095 -1
vn 0.00000003122785585674137 0.00000000947181533206276 -1
vn 0.00000003122785585674137 0.00000000947181533206276 -1
vn 0.00000003122785585674137 0.00000000947181533206276 -1
vn 0.000000044253535946836564 0.000000004358761351852536 -1
vn 0.000000044253535946836564 0.000000004358761351852536 -1
vn 0.000000044253535946836564 0.000000004358761351852536 -1
vn 0.00000007569500581894317 -0.00000000745481187891528 -0.9999999403953552
vn 0.00000007569500581894317 -0.00000000745481187891528 -0.9999999403953552
vn 0.00000007569500581894317 -0.00000000745481187891528 -0.9999999403953552
vn 0.00000010504739833550047 0.0000000000025676646139144443 -0.9999999403953552
vn 0.00000010504739833550047 0.0000000000025676646139144443 -0.9999999403953552
vn 0.00000010504739833550047 0.0000000000025676646139144443 -0.9999999403953552
vn 0.000000055354504979732155 -0 -1
vn 0.000000055354504979732155 -0 -1
vn 0.000000055354504979732155 -0 -1
vn 0.00000010281134876777287 -0 -1
vn 0.00000010281134876777287 -0 -1
vn 0.00000010281134876777287 -0 -1
vn 0.00000010504058423066454 -0 -0.9999999403953552
vn 0.00000010504058423066454 -0 -0.9999999403953552
vn 0.00000010504058423066454 -0 -0.9999999403953552
vn 0.00000010503571701292458 0.0000000012090834999867184 -1
vn 0.00000010503571701292458 0.0000000012090834999867184 -1
vn 0.00000010503571701292458 0.0000000012090834999867184 -1
vn 0.00000010711475795233127 -0 -1
vn 0.00000010711475795233127 -0 -1
vn 0.00000010711475795233127 -0 -1
vn 0.000000004268192910217294 0.000000011266727106828966 -1
vn 0.000000004268192910217294 0.000000011266727106828966 -1
vn 0.000000004268192910217294 0.000000011266727106828966 -1
vn 0.00000011562093504835502 -0.0000000017177246292021664 -1
vn 0.00000011562093504835502 -0.0000000017177246292021664 -1
vn 0.00000011562093504835502 -0.0000000017177246292021664 -1
vn 0.00000005535508051934812 -0 -0.9999999403953552
vn 0.00000005535508051934812 -0 -0.9999999403953552
vn 0.00000005535508051934812 -0 -0.9999999403953552
vn 0.00000010280956530550611 0.000000000005360055281566911 -1
vn 0.00000010280956530550611 0.000000000005360055281566911 -1
vn 0.00000010280956530550611 0.000000000005360055281566911 -1
vn -0.25689685344696045 0.966438889503479 -0
vn -0.25689685344696045 0.966438889503479 -0
vn -0.25689685344696045 0.966438889503479 -0
vn 0.00000010280571416387829 -0 -1
vn 0.00000010280571416387829 -0 -1
vn 0.00000010280571416387829 -0 -1
vn -0.7718451023101807 0.6358107328414917 -0
vn -0.7718451023101807 0.6358107328414917 -0
vn -0.7718451023101807 0.6358107328414917 -0
vn -0.2568970322608948 0.9664388298988342 -0
vn -0.2568970322608948 0.9664388298988342 -0
vn -0.2568970322608948 0.9664388298988342 -0
vn -0.7718451619148254 0.6358106732368469 -0
vn -0.7718451619148254 0.6358106732368469 -0
vn -0.7718451619148254 0.6358106732368469 -0
vn 0.00000014479986987225857 -0.00000011927932064281777 -1
vn 0.00000014479986987225857 -0.00000011927932064281777 -1
vn 0.00000014479986987225857 -0.00000011927932064281777 -1
f 3/3/3 2/2/2 1/1/1
f 6/6/6 5/5/5 4/4/4
f 9/9/9 8/8/8 7/7/7
f 12/12/12 11/11/11 10/10/10
f 15/15/15 14/14/14 13/13/13
f 18/18/18 17/17/17 16/16/16
f 21/21/21 20/20/20 19/19/19
f 24/24/24 23/23/23 22/22/22
f 27/27/27 26/26/26 25/25/25
f 30/30/30 29/29/29 28/28/28
f 33/33/33 32/32/32 31/31/31
f 36/36/36 35/35/35 34/34/34
f 39/39/39 38/38/38 37/37/37
f 42/42/42 41/41/41 40/40/40
f 45/45/45 44/44/44 43/43/43
f 48/48/48 47/47/47 46/46/46
f 51/51/51 50/50/50 49/49/49
f 54/54/54 53/53/53 52/52/52
f 57/57/57 56/56/56 55/55/55
f 60/60/60 59/59/59 58/58/58
f 63/63/63 62/62/62 61/61/61
f 66/66/66 65/65/65 64/64/64
f 69/69/69 68/68/68 67/67/67
f 72/72/72 71/71/71 70/70/70
f 75/75/75 74/74/74 73/73/73
f 78/78/78 77/77/77 76/76/76
f 81/81/81 80/80/80 79/79/79
f 84/84/84 83/83/83 82/82/82
f 87/87/87 86/86/86 85/85/85
f 90/90/90 89/89/89 88/88/88
f 93/93/93 92/92/92 91/91/91
f 96/96/96 95/95/95 94/94/94
f 99/99/99 98/98/98 97/97/97
f 102/102/102 101/101/101 100/100/100
f 105/105/105 104/104/104 103/103/103
f 108/108/108 107/107/107 106/106/106
f 111/111/111 110/110/110 109/109/109
f 114/114/114 113/113/113 112/112/112
f 117/117/117 116/116/116 115/115/115
f 120/120/120 119/119/119 118/118/118
f 123/123/123 122/122/122 121/121/121
f 126/126/126 125/125/125 124/124/124
f 129/129/129 128/128/128 127/127/127
f 132/132/132 131/131/131 130/130/130
f 135/135/135 134/134/134 133/133/133
