# VPXTOOL table OBJ file
# VPXTOOL OBJ file
# numVerts: 150 numFaces: 156
o LM_L_LMet1_TMet1
v 24.39875602722168 -0.14124009013175964 -65.61187744140625
v -23.7717342376709 -0.14112965762615204 -65.61187744140625
v -23.77170753479004 -22.373689651489258 -65.61187744140625
v 24.39870262145996 -22.373689651489258 -65.61187744140625
v 24.39875602722168 -0.14124009013175964 -65.61187744140625
v -23.77170753479004 -22.373689651489258 -65.61187744140625
v 24.39875602722168 -0.14124009013175964 -65.61187744140625
v 24.39870262145996 -22.373689651489258 -65.61187744140625
v 24.39870262145996 -14.962725639343262 -44.30571365356445
v 24.39875602722168 -0.14124009013175964 -65.61187744140625
v 24.39872932434082 -9.404779434204102 -11.883298873901367
v -23.7717342376709 -0.14112965762615204 -65.61187744140625
v -23.7717342376709 -0.14112965762615204 -65.61187744140625
v -23.77170753479004 -14.962836265563965 -44.30571365356445
v -23.77170753479004 -22.373689651489258 -65.61187744140625
v 14.208819389343262 -14.962836265563965 -44.30571365356445
v 24.39870262145996 -22.373689651489258 -65.61187744140625
v -23.77170753479004 -22.373689651489258 -65.61187744140625
v 16.987903594970703 -14.962836265563965 -44.30571365356445
v 24.39870262145996 -14.962725639343262 -44.30571365356445
v 24.39870262145996 -22.373689651489258 -65.61187744140625
v 14.208819389343262 -14.962836265563965 -44.30571365356445
v 16.987903594970703 -14.962836265563965 -44.30571365356445
v 24.39870262145996 -22.373689651489258 -65.61187744140625
v 24.39872932434082 -9.404779434204102 -11.883298873901367
v 24.39875602722168 -0.14124009013175964 -65.61187744140625
v 24.39870262145996 -14.962725639343262 -44.30571365356445
v -23.77170753479004 -22.373689651489258 -65.61187744140625
v -23.77170753479004 -14.962836265563965 -44.30571365356445
v 14.208819389343262 -14.962836265563965 -44.30571365356445
v -23.7717342376709 -0.14112965762615204 -65.61187744140625
v -23.7717342376709 -9.404668807983398 -11.883296966552734
v -23.77170753479004 -14.962836265563965 -44.30571365356445
v 24.39872932434082 -9.404779434204102 -11.883298873901367
v -23.7717342376709 -9.404668807983398 -11.883296966552734
v -23.7717342376709 -0.14112965762615204 -65.61187744140625
v 16.987903594970703 -14.962836265563965 -44.30571365356445
v 24.39870262145996 -14.962725639343262 15.907317161560059
v 24.39870262145996 -14.962725639343262 -44.30571365356445
v 14.208819389343262 -14.962836265563965 -44.30571365356445
v 24.39870262145996 -14.962725639343262 15.907317161560059
v 16.987903594970703 -14.962836265563965 -44.30571365356445
v 24.39872932434082 -9.404779434204102 4.791092395782471
v 24.39872932434082 -9.404779434204102 -11.883298873901367
v 24.39870262145996 -14.962725639343262 -44.30571365356445
v 14.208819389343262 -14.962836265563965 -44.30571365356445
v -23.77170753479004 -14.962836265563965 -44.30571365356445
v -23.77170753479004 -14.962836265563965 15.907379150390625
v -23.7717342376709 -9.404668807983398 -11.883296966552734
v -23.7717342376709 -9.404668807983398 4.791096210479736
v -23.77170753479004 -14.962836265563965 -44.30571365356445
v 24.39870262145996 -9.404779434204102 15.907344818115234
v 24.39872932434082 -9.404779434204102 4.791092395782471
v 24.39870262145996 -14.962725639343262 -44.30571365356445
v 24.39872932434082 -9.404779434204102 -11.883298873901367
v -23.7717342376709 -9.404668807983398 4.791096210479736
v -23.7717342376709 -9.404668807983398 -11.883296966552734
v 24.39870262145996 -14.962725639343262 -44.30571365356445
v 24.39870262145996 -14.962725639343262 15.907317161560059
v 24.39870262145996 -9.404779434204102 15.907344818115234
v 24.39872932434082 -9.404779434204102 -11.883298873901367
v 24.39872932434082 -9.404779434204102 4.791092395782471
v 6.79802131652832 -9.404779434204102 4.7910943031311035
v 24.39872932434082 -9.404779434204102 -11.883298873901367
v 6.79802131652832 -9.404779434204102 4.7910943031311035
v -5.244656562805176 -9.404668807983398 4.7910943031311035
v -23.7717342376709 -9.404668807983398 4.791096210479736
v -23.7717342376709 -9.404668807983398 15.9073486328125
v -23.77170753479004 -14.962836265563965 -44.30571365356445
v 24.39872932434082 -9.404779434204102 -11.883298873901367
v -5.244656562805176 -9.404668807983398 4.7910943031311035
v -23.7717342376709 -9.404668807983398 4.791096210479736
v 14.208819389343262 -14.962836265563965 -44.30571365356445
v -23.77170753479004 -14.962836265563965 15.907379150390625
v 24.39870262145996 -14.962725639343262 15.907317161560059
v 24.39872932434082 -9.404779434204102 4.791092395782471
v 24.39870262145996 -3.846501111984253 14.054645538330078
v 6.79802131652832 -9.404779434204102 4.7910943031311035
v -23.77170753479004 -14.962836265563965 15.907379150390625
v -23.77170753479004 -14.962836265563965 -44.30571365356445
v -23.7717342376709 -9.404668807983398 15.9073486328125
v 24.39870262145996 -3.846501111984253 15.907344818115234
v 24.39870262145996 -3.846501111984253 14.054645538330078
v 24.39872932434082 -9.404779434204102 4.791092395782471
v 24.39870262145996 -3.846501111984253 14.054645538330078
v 6.797994136810303 -3.846501111984253 14.054647445678711
v 6.79802131652832 -9.404779434204102 4.7910943031311035
v 24.39870262145996 -9.404779434204102 15.907344818115234
v 24.39870262145996 -3.846501111984253 15.907344818115234
v 24.39872932434082 -9.404779434204102 4.791092395782471
v 24.39870262145996 -3.846501111984253 14.054645538330078
v 24.39870262145996 -3.846501111984253 15.907344818115234
v 6.797994136810303 -3.846501111984253 15.907346725463867
v 6.797994136810303 -3.846501111984253 14.054647445678711
v 6.79802131652832 -9.404779434204102 4.7910943031311035
v 6.79802131652832 -9.404779434204102 15.907346725463867
v -5.244656562805176 -9.404668807983398 4.7910943031311035
v -5.244656562805176 -9.404668807983398 4.7910943031311035
v -5.244601249694824 -3.846611499786377 14.054647445678711
v -23.7717342376709 -9.404668807983398 4.791096210479736
v 6.79802131652832 -9.404779434204102 15.907346725463867
v 6.79802131652832 -9.404779434204102 4.7910943031311035
v 6.797994136810303 -3.846501111984253 14.054647445678711
v 6.797994136810303 -3.846501111984253 15.907346725463867
v 24.39870262145996 -3.846501111984253 15.907344818115234
v 6.79802131652832 -9.404779434204102 15.907346725463867
v -5.244601249694824 -3.846611499786377 14.054647445678711
v -23.77170753479004 -3.846611499786377 14.054649353027344
v -23.7717342376709 -9.404668807983398 4.791096210479736
v 6.797994136810303 -3.846501111984253 14.054647445678711
v 6.797994136810303 -3.846501111984253 15.907346725463867
v 6.79802131652832 -9.404779434204102 15.907346725463867
v -5.244601249694824 -3.846611499786377 14.054647445678711
v -5.244656562805176 -9.404668807983398 4.7910943031311035
v -5.244656562805176 -9.404668807983398 15.907346725463867
v 24.39870262145996 -3.846501111984253 15.907344818115234
v 24.39870262145996 -9.404779434204102 15.907344818115234
v 6.79802131652832 -9.404779434204102 15.907346725463867
v -5.244601249694824 -3.846611499786377 14.054647445678711
v -5.244601249694824 -3.846611499786377 15.907346725463867
v -23.77170753479004 -3.846611499786377 14.054649353027344
v -5.244656562805176 -9.404668807983398 15.907346725463867
v -5.244656562805176 -9.404668807983398 15.907346725463867
v -5.244601249694824 -3.846611499786377 15.907346725463867
v -5.244601249694824 -3.846611499786377 14.054647445678711
v -23.77170753479004 -3.846611499786377 15.9073486328125
v -23.7717342376709 -9.404668807983398 4.791096210479736
v -23.77170753479004 -3.846611499786377 14.054649353027344
v -23.7717342376709 -9.404668807983398 15.9073486328125
v -5.244601249694824 -3.846611499786377 15.907346725463867
v -5.244656562805176 -9.404668807983398 15.907346725463867
v -23.77170753479004 -3.846611499786377 15.9073486328125
v 6.79802131652832 -9.404779434204102 15.907346725463867
v 24.39870262145996 -9.404779434204102 15.907344818115234
v 24.39870262145996 -14.962725639343262 15.907317161560059
v -23.77170753479004 -3.846611499786377 14.054649353027344
v -23.77170753479004 -3.846611499786377 15.9073486328125
v -23.7717342376709 -9.404668807983398 15.9073486328125
v 24.39870262145996 -14.962725639343262 15.907317161560059
v -5.244656562805176 -9.404668807983398 15.907346725463867
v 6.79802131652832 -9.404779434204102 15.907346725463867
v -5.244656562805176 -9.404668807983398 15.907346725463867
v -23.7717342376709 -9.404668807983398 15.9073486328125
v -23.77170753479004 -3.846611499786377 15.9073486328125
v -5.244656562805176 -9.404668807983398 15.907346725463867
v 24.39870262145996 -14.962725639343262 15.907317161560059
v -23.77170753479004 -14.962836265563965 15.907379150390625
v -23.77170753479004 -14.962836265563965 15.907379150390625
v -23.7717342376709 -9.404668807983398 15.9073486328125
v -5.244656562805176 -9.404668807983398 15.907346725463867
vt 0.6428287625312805 0.40654027462005615
vt 0.6428287625312805 0.39907246828079224
vt 0.6466987133026123 0.39907246828079224
vt 0.6466987133026123 0.40654027462005615
vt 0.6428287625312805 0.40654027462005615
vt 0.6466987133026123 0.39907246828079224
vt 0.9814116358757019 0.41910576820373535
vt 0.9876717925071716 0.41910576820373535
vt 0.98558509349823 0.4244488477706909
vt 0.5136240720748901 0.5268116593360901
vt 0.5136240720748901 0.5611917972564697
vt 0.5522004961967468 0.5268116593360901
vt 0.9845409989356995 0.11100834608078003
vt 0.9805387854576111 0.1164543628692627
vt 0.9782833456993103 0.11116594076156616
vt 0.9622781276702881 0.5202968120574951
vt 0.9640518426895142 0.5237451195716858
vt 0.9556668996810913 0.5237451195716858
vt 0.9627618789672852 0.5202968120574951
vt 0.9640518426895142 0.5202968120574951
vt 0.9640518426895142 0.5237451195716858
vt 0.9622781276702881 0.5202968120574951
vt 0.9627618789672852 0.5202968120574951
vt 0.9640518426895142 0.5237451195716858
vt 0.9840200543403625 0.43257975578308105
vt 0.9814116358757019 0.41910576820373535
vt 0.98558509349823 0.4244488477706909
vt 0.9556668996810913 0.5237451195716858
vt 0.9556668996810913 0.5202968120574951
vt 0.9622781276702881 0.5202968120574951
vt 0.9845409989356995 0.11100834608078003
vt 0.9823611974716187 0.12454259395599365
vt 0.9805387854576111 0.1164543628692627
vt 0.5136240720748901 0.5611917972564697
vt 0.552200436592102 0.5611917972564697
vt 0.5522004961967468 0.5268116593360901
vt 0.9627618789672852 0.5202968120574951
vt 0.9640518426895142 0.511092483997345
vt 0.9640518426895142 0.5202968120574951
vt 0.9622781276702881 0.5202968120574951
vt 0.9640518426895142 0.511092483997345
vt 0.9627618789672852 0.5202968120574951
vt 0.9840200543403625 0.43676137924194336
vt 0.9840200543403625 0.43257975578308105
vt 0.98558509349823 0.4244488477706909
vt 0.9622781276702881 0.5202968120574951
vt 0.9556668996810913 0.5202968120574951
vt 0.9556668996810913 0.511092483997345
vt 0.9823611974716187 0.12454259395599365
vt 0.9824938774108887 0.12872254848480225
vt 0.9805387854576111 0.1164543628692627
vt 0.9840200543403625 0.4395490884780884
vt 0.9840200543403625 0.43676137924194336
vt 0.98558509349823 0.4244488477706909
vt 0.3745027482509613 0.5612697005271912
vt 0.3716115653514862 0.5538018941879272
vt 0.3745027482509613 0.5538018941879272
vt 0.98558509349823 0.4244488477706909
vt 0.98558509349823 0.4395490884780884
vt 0.9840200543403625 0.4395490884780884
vt 0.3745027482509613 0.5612697005271912
vt 0.3716115653514862 0.5612697005271912
vt 0.3716115653514862 0.5585410594940186
vt 0.3745027482509613 0.5612697005271912
vt 0.3716115653514862 0.5585410594940186
vt 0.3716115653514862 0.5566741228103638
vt 0.9824938774108887 0.12872254848480225
vt 0.9825823307037354 0.13150912523269653
vt 0.9805387854576111 0.1164543628692627
vt 0.3745027482509613 0.5612697005271912
vt 0.3716115653514862 0.5566741228103638
vt 0.3716115653514862 0.5538018941879272
vt 0.9622781276702881 0.5202968120574951
vt 0.9556668996810913 0.511092483997345
vt 0.9640518426895142 0.511092483997345
vt 0.3716115653514862 0.5612697005271912
vt 0.3699200451374054 0.5612697005271912
vt 0.3716115653514862 0.5585410594940186
vt 0.9810179471969604 0.13154852390289307
vt 0.9805387854576111 0.1164543628692627
vt 0.9825823307037354 0.13150912523269653
vt 0.9824550151824951 0.4395490884780884
vt 0.9824550151824951 0.43908441066741943
vt 0.9840200543403625 0.43676137924194336
vt 0.3699200451374054 0.5612697005271912
vt 0.3699200451374054 0.5585410594940186
vt 0.3716115653514862 0.5585410594940186
vt 0.9840200543403625 0.4395490884780884
vt 0.9824550151824951 0.4395490884780884
vt 0.9840200543403625 0.43676137924194336
vt 0.3699200451374054 0.5612697005271912
vt 0.3695988059043884 0.5612697005271912
vt 0.3695988059043884 0.5585410594940186
vt 0.3699200451374054 0.5585410594940186
vt 0.3716115653514862 0.5585410594940186
vt 0.3696841597557068 0.5585410594940186
vt 0.3716115653514862 0.5566741228103638
vt 0.3716115653514862 0.5566741228103638
vt 0.3699200451374054 0.5566741228103638
vt 0.3716115653514862 0.5538018941879272
vt 0.024491969496011734 0.49266690015792847
vt 0.024491969496011734 0.49439024925231934
vt 0.02352447621524334 0.4929541349411011
vt 0.6138495206832886 0.6871368885040283
vt 0.6138495206832886 0.6898654699325562
vt 0.6128820180892944 0.6871368885040283
vt 0.3699200451374054 0.5566741228103638
vt 0.3699200451374054 0.5538018941879272
vt 0.3716115653514862 0.5538018941879272
vt 0.02352447621524334 0.4929541349411011
vt 0.02352447621524334 0.49266690015792847
vt 0.024491969496011734 0.49266690015792847
vt 0.033431995660066605 0.5434098243713379
vt 0.03246450051665306 0.5448459386825562
vt 0.03246450051665306 0.5431225299835205
vt 0.6138495206832886 0.6898654699325562
vt 0.6128820180892944 0.6898654699325562
vt 0.6128820180892944 0.6871368885040283
vt 0.3699200451374054 0.5566741228103638
vt 0.3695988059043884 0.5566741228103638
vt 0.3699200451374054 0.5538018941879272
vt 0.3696841597557068 0.5566741228103638
vt 0.03246450051665306 0.5431225299835205
vt 0.033431995660066605 0.5431225299835205
vt 0.033431995660066605 0.5434098243713379
vt 0.3695988059043884 0.5538018941879272
vt 0.9824938774108887 0.12872254848480225
vt 0.9841320514678955 0.13100528717041016
vt 0.9825823307037354 0.13150912523269653
vt 0.6138495206832886 0.685269832611084
vt 0.6128820180892944 0.685269832611084
vt 0.6138495206832886 0.6823976635932922
vt 0.6128820180892944 0.6871368885040283
vt 0.6128820180892944 0.6898654699325562
vt 0.6119145750999451 0.6898654699325562
vt 0.9841320514678955 0.13100528717041016
vt 0.984146773815155 0.1314697265625
vt 0.9825823307037354 0.13150912523269653
vt 0.6119145750999451 0.6898654699325562
vt 0.6128820180892944 0.685269832611084
vt 0.6128820180892944 0.6871368885040283
vt 0.6128820180892944 0.685269832611084
vt 0.6128820180892944 0.6823976635932922
vt 0.6138495206832886 0.6823976635932922
vt 0.6128820180892944 0.685269832611084
vt 0.6119145750999451 0.6898654699325562
vt 0.6119145750999451 0.6823976635932922
vt 0.6119145750999451 0.6823976635932922
vt 0.6128820180892944 0.6823976635932922
vt 0.6128820180892944 0.685269832611084
vn -0.00000009848503168541356 -0 -0.9999999403953552
vn -0.00000009848503168541356 -0 -0.9999999403953552
vn -0.00000009848503168541356 -0 -0.9999999403953552
vn 0 -0 -1
vn 0 -0 -1
vn 0 -0 -1
vn 1 -0.000002530775191189605 0.0000008638525628157367
vn 1 -0.000002530775191189605 0.0000008638525628157367
vn 1 -0.000002530775191189605 0.0000008638525628157367
vn 0.0000022632598302152473 0.985460102558136 0.16990675032138824
vn 0.0000022632598302152473 0.985460102558136 0.16990675032138824
vn 0.0000022632598302152473 0.985460102558136 0.16990675032138824
vn -1 -0.0000012653814565055654 0.00000043191775489503925
vn -1 -0.0000012653814565055654 0.00000043191775489503925
vn -1 -0.0000012653814565055654 0.00000043191775489503925
vn 0 -0.9444966316223145 0.328521192073822
vn 0 -0.9444966316223145 0.328521192073822
vn 0 -0.9444966316223145 0.328521192073822
vn 0.00001407189392921282 -0.9444951415061951 0.3285256028175354
vn 0.00001407189392921282 -0.9444951415061951 0.3285256028175354
vn 0.00001407189392921282 -0.9444951415061951 0.3285256028175354
vn 0 -0.9444965124130249 0.3285213112831116
vn 0 -0.9444965124130249 0.3285213112831116
vn 0 -0.9444965124130249 0.3285213112831116
vn 1 -0.000004002886271337047 -0.00000017079780434414715
vn 1 -0.000004002886271337047 -0.00000017079780434414715
vn 1 -0.000004002886271337047 -0.00000017079780434414715
vn 0 -0.9444965720176697 0.3285212218761444
vn 0 -0.9444965720176697 0.3285212218761444
vn 0 -0.9444965720176697 0.3285212218761444
vn -1 -0.0000023349707589659374 -0.0000004269656699307234
vn -1 -0.0000023349707589659374 -0.0000004269656699307234
vn -1 -0.0000023349707589659374 -0.0000004269656699307234
vn 0.000002252923422929598 0.9854602217674255 0.16990675032138824
vn 0.000002252923422929598 0.9854602217674255 0.16990675032138824
vn 0.000002252923422929598 0.9854602217674255 0.16990675032138824
vn 0.00001490124031988671 -1 -0
vn 0.00001490124031988671 -1 -0
vn 0.00001490124031988671 -1 -0
vn 0 -1 0.0000017909935650095576
vn 0 -1 0.0000017909935650095576
vn 0 -1 0.0000017909935650095576
vn 0.9999999403953552 -0.000004850794539379422 -0
vn 0.9999999403953552 -0.000004850794539379422 -0
vn 0.9999999403953552 -0.000004850794539379422 -0
vn 0 -1 -0
vn 0 -1 -0
vn 0 -1 -0
vn -1 -0.0000043116469896631315 -0
vn -1 -0.0000043116469896631315 -0
vn -1 -0.0000043116469896631315 -0
vn 1 -0.000028296331947785802 0.0000024835280783008784
vn 1 -0.000028296331947785802 0.0000024835280783008784
vn 1 -0.000028296331947785802 0.0000024835280783008784
vn 0.000002292485760335694 1 -0
vn 0.000002292485760335694 1 -0
vn 0.000002292485760335694 1 -0
vn 1 0.0000005970215397610446 -0
vn 1 0.0000005970215397610446 -0
vn 1 0.0000005970215397610446 -0
vn 0 1 -0
vn 0 1 -0
vn 0 1 -0
vn 0.000009169894838123582 0.9999999403953552 0.000009576844604453072
vn 0.000009169894838123582 0.9999999403953552 0.000009576844604453072
vn 0.000009169894838123582 0.9999999403953552 0.000009576844604453072
vn -1 -0.000006467475031968206 -0
vn -1 -0.000006467475031968206 -0
vn -1 -0.000006467475031968206 -0
vn -0.0000000000006167910149637579 1 -0.000006467522325692698
vn -0.0000000000006167910149637579 1 -0.000006467522325692698
vn -0.0000000000006167910149637579 1 -0.000006467522325692698
vn 0.0000022924900804355275 -1 0.000001446582473363378
vn 0.0000022924900804355275 -1 0.000001446582473363378
vn 0.0000022924900804355275 -1 0.000001446582473363378
vn -0.00000003283708949197717 0.8574870228767395 -0.5145057439804077
vn -0.00000003283708949197717 0.8574870228767395 -0.5145057439804077
vn -0.00000003283708949197717 0.8574870228767395 -0.5145057439804077
vn -1 -0.000004775977231474826 -0
vn -1 -0.000004775977231474826 -0
vn -1 -0.000004775977231474826 -0
vn 1 0.000004244219780957792 -0
vn 1 0.000004244219780957792 -0
vn 1 0.000004244219780957792 -0
vn -0.00000006567417898395433 0.8574869632720947 -0.5145056843757629
vn -0.00000006567417898395433 0.8574869632720947 -0.5145056843757629
vn -0.00000006567417898395433 0.8574869632720947 -0.5145056843757629
vn 1 -0 0.0000024835280783008784
vn 1 -0 0.0000024835280783008784
vn 1 -0 0.0000024835280783008784
vn 0 1 -0
vn 0 1 -0
vn 0 1 -0
vn 0 1 -0
vn 0.000009169894838123582 0.9999999403953552 -0
vn 0.000009169894838123582 0.9999999403953552 -0
vn 0.000009169894838123582 0.9999999403953552 -0
vn -0.00000006239106653538329 0.8574959635734558 -0.5144906044006348
vn -0.00000006239106653538329 0.8574959635734558 -0.5144906044006348
vn -0.00000006239106653538329 0.8574959635734558 -0.5144906044006348
vn -1 -0.000005052615506428992 -0
vn -1 -0.000005052615506428992 -0
vn -1 -0.000005052615506428992 -0
vn 0.00000025529038794047665 0.0000000000004869277724084409 1
vn 0.00000025529038794047665 0.0000000000004869277724084409 1
vn 0.00000025529038794047665 0.0000000000004869277724084409 1
vn -0.0000000311954906351275 0.8574960231781006 -0.5144906044006348
vn -0.0000000311954906351275 0.8574960231781006 -0.5144906044006348
vn -0.0000000311954906351275 0.8574960231781006 -0.5144906044006348
vn -1 -0.0000048505307859159075 -0
vn -1 -0.0000048505307859159075 -0
vn -1 -0.0000048505307859159075 -0
vn 1 -0.000009802462955121882 -0
vn 1 -0.000009802462955121882 -0
vn 1 -0.000009802462955121882 -0
vn 0 -0 1
vn 0 -0 1
vn 0 -0 1
vn 0 1 -0
vn 0 1 -0
vn 0 1 -0
vn 0.000009169894838123582 0.9999999403953552 -0
vn 1 -0.000010004619980463758 -0
vn 1 -0.000010004619980463758 -0
vn 1 -0.000010004619980463758 -0
vn 0 1 -0
vn -0.9999999403953552 0.0000048507026804145426 -0
vn -0.9999999403953552 0.0000048507026804145426 -0
vn -0.9999999403953552 0.0000048507026804145426 -0
vn 0.00000024253495212178677 -0.0000000000009251974186774703 1
vn 0.00000024253495212178677 -0.0000000000009251974186774703 1
vn 0.00000024253495212178677 -0.0000000000009251974186774703 1
vn 0 -0.00000496721668241662 1
vn 0 -0.00000496721668241662 1
vn 0 -0.00000496721668241662 1
vn -1 0.000004850724963034736 -0
vn -1 0.000004850724963034736 -0
vn -1 0.000004850724963034736 -0
vn 0 -0.0000052778182180190925 1
vn 0 -0.0000052778182180190925 1
vn 0 -0.0000052778182180190925 1
vn 0 -0.0000000000004625994140701473 1
vn 0 -0.0000000000004625994140701473 1
vn 0 -0.0000000000004625994140701473 1
vn 0.0000013059431012152345 0.0000015999722791093518 1
vn 0.0000013059431012152345 0.0000015999722791093518 1
vn 0.0000013059431012152345 0.0000015999722791093518 1
vn 0.0000002425303762265685 0.000005587895429925993 1
vn 0.0000002425303762265685 0.000005587895429925993 1
vn 0.0000002425303762265685 0.000005587895429925993 1
f 3/3/3 2/2/2 1/1/1
f 6/6/6 5/5/5 4/4/4
f 9/9/9 8/8/8 7/7/7
f 12/12/12 11/11/11 10/10/10
f 15/15/15 14/14/14 13/13/13
f 18/18/18 17/17/17 16/16/16
f 21/21/21 20/20/20 19/19/19
f 24/24/24 23/23/23 22/22/22
f 27/27/27 26/26/26 25/25/25
f 30/30/30 29/29/29 28/28/28
f 33/33/33 32/32/32 31/31/31
f 36/36/36 35/35/35 34/34/34
f 39/39/39 38/38/38 37/37/37
f 42/42/42 41/41/41 40/40/40
f 45/45/45 44/44/44 43/43/43
f 48/48/48 47/47/47 46/46/46
f 51/51/51 50/50/50 49/49/49
f 54/54/54 53/53/53 52/52/52
f 57/57/57 56/56/56 55/55/55
f 60/60/60 59/59/59 58/58/58
f 63/63/63 62/62/62 61/61/61
f 66/66/66 65/65/65 64/64/64
f 69/69/69 68/68/68 67/67/67
f 72/72/72 71/71/71 70/70/70
f 75/75/75 74/74/74 73/73/73
f 78/78/78 77/77/77 76/76/76
f 81/81/81 80/80/80 79/79/79
f 84/84/84 83/83/83 82/82/82
f 87/87/87 86/86/86 85/85/85
f 90/90/90 89/89/89 88/88/88
f 93/93/93 92/92/92 91/91/91
f 93/93/93 91/91/91 94/94/94
f 97/97/97 96/96/96 95/95/95
f 100/100/100 99/99/99 98/98/98
f 103/103/103 102/102/102 101/101/101
f 106/106/106 105/105/105 104/104/104
f 109/109/109 108/108/108 107/107/107
f 112/112/112 111/111/111 110/110/110
f 115/115/115 114/114/114 113/113/113
f 118/118/118 117/117/117 116/116/116
f 121/121/121 120/120/120 119/119/119
f 97/97/97 122/122/122 96/96/96
f 125/125/125 124/124/124 123/123/123
f 121/121/121 126/126/126 120/120/120
f 129/129/129 128/128/128 127/127/127
f 132/132/132 131/131/131 130/130/130
f 135/135/135 134/134/134 133/133/133
f 138/138/138 137/137/137 136/136/136
f 141/141/141 140/140/140 139/139/139
f 144/144/144 143/143/143 142/142/142
f 147/147/147 146/146/146 145/145/145
f 150/150/150 149/149/149 148/148/148
