# VPXTOOL table OBJ file
# VPXTOOL OBJ file
# numVerts: 148 numFaces: 204
o BM_LArm
v 8.350419998168945 9.508030891418457 -72.88787841796875
v 6.74114990234375 9.508030891418457 -76.33917999267578
v 11.450496673583984 9.50792121887207 -76.93648529052734
v 11.450496673583984 9.50792121887207 -76.93648529052734
v 11.450496673583984 9.50792121887207 -73.13648986816406
v 8.350419998168945 9.508030891418457 -72.88787841796875
v 6.74114990234375 9.508030891418457 -76.33917999267578
v 6.74114990234375 3.8079609870910645 -76.33917999267578
v 11.450496673583984 9.50792121887207 -76.93648529052734
v 11.450496673583984 9.50792121887207 -73.13648986816406
v 11.450496673583984 9.50792121887207 -76.93648529052734
v 11.450469017028809 3.8079609870910645 -76.93648529052734
v 6.74114990234375 9.508030891418457 -76.33917999267578
v 8.350419998168945 9.508030891418457 -72.88787841796875
v 6.0494160652160645 9.508030891418457 -71.1919937133789
v 11.450469017028809 3.8079609870910645 -76.93648529052734
v 6.0494160652160645 9.508030891418457 -71.1919937133789
v 2.7515316009521484 9.50792121887207 -73.09608459472656
v 6.74114990234375 9.508030891418457 -76.33917999267578
v 2.7515316009521484 9.50792121887207 -73.09608459472656
v 5.374549865722656 9.508030891418457 -69.3404769897461
v 2.7515316009521484 9.50792121887207 -73.09608459472656
v 6.0494160652160645 9.508030891418457 -71.1919937133789
v -6.0335693359375 3.8080713748931885 -76.93648529052734
v 11.450469017028809 3.8079609870910645 -76.93648529052734
v 6.74114990234375 3.8079609870910645 -76.33917999267578
v 11.450496673583984 9.50792121887207 -73.13648986816406
v 11.450469017028809 3.8079609870910645 -76.93648529052734
v 11.450441360473633 -3.7920591831207275 -76.93648529052734
v 5.374549865722656 9.508030891418457 -69.3404769897461
v 1.5664509534835815 9.50792121887207 -69.3404769897461
v 2.7515316009521484 9.50792121887207 -73.09608459472656
v 2.7515316009521484 3.8080713748931885 -73.09608459472656
v 1.5664509534835815 9.50792121887207 -69.3404769897461
v -6.0335693359375 3.8080713748931885 -76.93648529052734
v 6.74114990234375 3.8079609870910645 -76.33917999267578
v 2.7515316009521484 3.8080713748931885 -73.09608459472656
v -6.0335693359375 3.8080713748931885 -76.93648529052734
v -6.033514022827148 -3.7919485569000244 -76.93648529052734
v 11.450469017028809 3.8079609870910645 -76.93648529052734
v 1.5664509534835815 3.8079609870910645 -69.3404769897461
v -7.933574199676514 3.8080713748931885 -75.03788757324219
v -6.0335693359375 3.8080713748931885 -76.93648529052734
v -6.0335693359375 3.8080713748931885 -76.93648529052734
v 2.7515316009521484 3.8080713748931885 -73.09608459472656
v 1.5664509534835815 3.8079609870910645 -69.3404769897461
v 11.450441360473633 -3.7920591831207275 -76.93648529052734
v 1.5664509534835815 3.8079609870910645 -69.3404769897461
v -7.933574199676514 3.8080713748931885 -75.03788757324219
v 11.450441360473633 -3.7920591831207275 -76.93648529052734
v 11.450469017028809 -9.489148139953613 -73.13648986816406
v 11.450496673583984 9.50792121887207 -73.13648986816406
v 6.0494160652160645 9.508030891418457 -71.1919937133789
v 6.049470901489258 -9.489148139953613 -71.1919937133789
v 5.374549865722656 9.508030891418457 -69.3404769897461
v 6.74114990234375 -3.7920591831207275 -76.33917999267578
v 11.450441360473633 -3.7920591831207275 -76.93648529052734
v -6.033514022827148 -3.7919485569000244 -76.93648529052734
v -7.933574199676514 -3.7919485569000244 -75.03788757324219
v 6.74114990234375 -3.7920591831207275 -76.33917999267578
v 6.74114990234375 -9.489148139953613 -76.33917999267578
v 11.450441360473633 -3.7920591831207275 -76.93648529052734
v 2.7515316009521484 -3.7920591831207275 -73.09608459472656
v 6.74114990234375 -3.7920591831207275 -76.33917999267578
v -6.033514022827148 -3.7919485569000244 -76.93648529052734
v 5.374549865722656 9.508030891418457 -69.3404769897461
v 1.5665613412857056 9.50792121887207 -46.532493591308594
v 1.5664509534835815 9.50792121887207 -69.3404769897461
v 11.450469017028809 -9.489148139953613 -76.93648529052734
v 2.7515316009521484 -3.7920591831207275 -73.09608459472656
v 11.450441360473633 -3.7920591831207275 -76.93648529052734
v 11.450469017028809 -9.489148139953613 -76.93648529052734
v 11.450469017028809 -9.489148139953613 -73.13648986816406
v 1.5664509534835815 -3.7920591831207275 -69.3404769897461
v -6.033514022827148 -3.7919485569000244 -76.93648529052734
v -7.933574199676514 -3.7919485569000244 -75.03788757324219
v 1.5664509534835815 -3.7920591831207275 -69.3404769897461
v 2.7515316009521484 -3.7920591831207275 -73.09608459472656
v -6.033514022827148 -3.7919485569000244 -76.93648529052734
v 5.374549865722656 -9.4892578125 -69.3404769897461
v 1.5665613412857056 3.8079609870910645 -46.532493591308594
v 8.350447654724121 -9.489148139953613 -72.88787841796875
v 11.450469017028809 -9.489148139953613 -76.93648529052734
v 6.74114990234375 -9.489148139953613 -76.33917999267578
v 2.7515316009521484 -9.48903751373291 -73.09608459472656
v 11.450469017028809 -9.489148139953613 -73.13648986816406
v 1.5664509534835815 -3.7920591831207275 -69.3404769897461
v 1.5664509534835815 3.8079609870910645 -69.3404769897461
v -10.783443450927734 3.8079609870910645 -46.53248977661133
v -7.933574199676514 3.8080713748931885 -75.03788757324219
v 6.049470901489258 -9.489148139953613 -71.1919937133789
v 6.049470901489258 -9.489148139953613 -71.1919937133789
v 6.74114990234375 -9.489148139953613 -76.33917999267578
v 2.7515316009521484 -9.48903751373291 -73.09608459472656
v 5.374549865722656 9.508030891418457 -69.3404769897461
v 5.374632835388184 9.508030891418457 -46.532493591308594
v 1.5665613412857056 9.50792121887207 -46.532493591308594
v 1.5664509534835815 -9.489148139953613 -69.3404769897461
v -10.783443450927734 -1.8919988870620728 -46.53248977661133
v 2.7515316009521484 -9.48903751373291 -73.09608459472656
v 5.374549865722656 -9.4892578125 -69.3404769897461
v 6.049470901489258 -9.489148139953613 -71.1919937133789
v 1.5665613412857056 9.50792121887207 -46.532493591308594
v 5.374549865722656 -9.4892578125 -69.3404769897461
v 2.7515316009521484 -9.48903751373291 -73.09608459472656
v 1.5664509534835815 -9.489148139953613 -69.3404769897461
v 5.374632835388184 -9.4892578125 -46.532493591308594
v 1.5664509534835815 -3.7920591831207275 -69.3404769897461
v -7.933574199676514 -3.7919485569000244 -75.03788757324219
v -10.783443450927734 -3.7920591831207275 -46.53248977661133
v 5.374632835388184 9.508030891418457 -46.532493591308594
v 1.5664509534835815 3.8079609870910645 -69.3404769897461
v 1.5665613412857056 3.8079609870910645 -46.532493591308594
v -10.783443450927734 3.8079609870910645 -46.53248977661133
v -10.783443450927734 3.8079609870910645 -46.53248977661133
v -10.783443450927734 1.9079008102416992 -46.53248977661133
v 1.5665613412857056 -9.489148139953613 -46.532493591308594
v 5.374549865722656 -9.4892578125 -69.3404769897461
v 1.5664509534835815 -9.489148139953613 -69.3404769897461
v 1.5665613412857056 -9.489148139953613 -46.532493591308594
v -10.783443450927734 -3.7920591831207275 -46.53248977661133
v 1.5664509534835815 -3.7920591831207275 -69.3404769897461
v -10.783443450927734 -3.7920591831207275 -46.53248977661133
v 1.5665613412857056 -3.7920591831207275 -46.532493591308594
v 1.5665613412857056 -3.7920591831207275 -46.532493591308594
v 1.5665613412857056 -9.489148139953613 -46.532493591308594
v 5.374632835388184 -9.4892578125 -46.532493591308594
v 5.374549865722656 -9.4892578125 -69.3404769897461
v 1.5665613412857056 1.9080111980438232 -46.532493591308594
v 1.5665613412857056 1.9080111980438232 9.675094604492188
v -10.783443450927734 1.9079008102416992 -46.53248977661133
v 1.5665613412857056 1.9080111980438232 -46.532493591308594
v 1.5665338039398193 -1.8921092748641968 -46.532493591308594
v 1.5665613412857056 1.9080111980438232 9.675094604492188
v 1.5665338039398193 -1.8921092748641968 9.675094604492188
v 1.5665338039398193 -1.8921092748641968 -46.532493591308594
v -10.783443450927734 -1.8919988870620728 -46.53248977661133
v -15.151451110839844 1.8999497890472412 13.47509479522705
v 1.5665338039398193 -1.8921092748641968 -46.532493591308594
v 1.5665338039398193 -1.8921092748641968 9.675094604492188
v 1.5665613412857056 1.9080111980438232 9.675094604492188
v 1.5665613412857056 1.9080111980438232 9.675094604492188
v -15.151451110839844 1.8999497890472412 13.47509479522705
v -10.783443450927734 1.9079008102416992 -46.53248977661133
v -15.151451110839844 -1.8999497890472412 13.47509479522705
v 1.5665338039398193 -1.8921092748641968 9.675094604492188
v -10.783443450927734 -1.8919988870620728 -46.53248977661133
v -15.151451110839844 -1.8999497890472412 13.47509479522705
vt 0.9833941459655762 0.9287021160125732
vt 0.9828048944473267 0.9284658432006836
vt 0.9842607378959656 0.9279554486274719
vt 0.9842607378959656 0.9279554486274719
vt 0.9843550324440002 0.9283826947212219
vt 0.9833941459655762 0.9287021160125732
vt 0.9828048944473267 0.9284658432006836
vt 0.9822371602058411 0.9270126819610596
vt 0.9842607378959656 0.9279554486274719
vt 0.9843550324440002 0.9283826947212219
vt 0.9842607378959656 0.9279554486274719
vt 0.9836917519569397 0.9265029430389404
vt 0.9828048944473267 0.9284658432006836
vt 0.9833941459655762 0.9287021160125732
vt 0.9827190041542053 0.9291086792945862
vt 0.9836917519569397 0.9265029430389404
vt 0.9827190041542053 0.9291086792945862
vt 0.981641411781311 0.9292054772377014
vt 0.9828048944473267 0.9284658432006836
vt 0.981641411781311 0.9292054772377014
vt 0.9825553297996521 0.9293795228004456
vt 0.981641411781311 0.9292054772377014
vt 0.9827190041542053 0.9291086792945862
vt 0.9782308340072632 0.9281467795372009
vt 0.9836917519569397 0.9265029430389404
vt 0.9822371602058411 0.9270126819610596
vt 0.9843550324440002 0.9283826947212219
vt 0.9836917519569397 0.9265029430389404
vt 0.9829347133636475 0.9245703220367432
vt 0.9825553297996521 0.9293795228004456
vt 0.981367826461792 0.9297375679016113
vt 0.981641411781311 0.9292054772377014
vt 0.9810751080513 0.9277527332305908
vt 0.981367826461792 0.9297375679016113
vt 0.9782308340072632 0.9281467795372009
vt 0.9822371602058411 0.9270126819610596
vt 0.9810751080513 0.9277527332305908
vt 0.9782308340072632 0.9281467795372009
vt 0.9774796366691589 0.9262102246284485
vt 0.9836917519569397 0.9265029430389404
vt 0.9808023571968079 0.9282858371734619
vt 0.9776875376701355 0.9285390973091125
vt 0.9782308340072632 0.9281467795372009
vt 0.9782308340072632 0.9281467795372009
vt 0.9810751080513 0.9277527332305908
vt 0.9808023571968079 0.9282858371734619
vt 0.9829347133636475 0.9245703220367432
vt 0.9808023571968079 0.9282858371734619
vt 0.9776875376701355 0.9285390973091125
vt 0.9829347133636475 0.9245703220367432
vt 0.9824644923210144 0.9235560894012451
vt 0.9843550324440002 0.9283826947212219
vt 0.9827190041542053 0.9291086792945862
vt 0.9808339476585388 0.924281120300293
vt 0.9825553297996521 0.9293795228004456
vt 0.9814817905426025 0.925079345703125
vt 0.9829347133636475 0.9245703220367432
vt 0.9774796366691589 0.9262102246284485
vt 0.9769373536109924 0.9266029000282288
vt 0.9814817905426025 0.925079345703125
vt 0.9809167385101318 0.9236330986022949
vt 0.9829347133636475 0.9245703220367432
vt 0.9803217053413391 0.9258198142051697
vt 0.9814817905426025 0.925079345703125
vt 0.9774796366691589 0.9262102246284485
vt 0.9825553297996521 0.9293795228004456
vt 0.981948971748352 0.9322714805603027
vt 0.981367826461792 0.9297375679016113
vt 0.9823684096336365 0.9231247305870056
vt 0.9803217053413391 0.9258198142051697
vt 0.9829347133636475 0.9245703220367432
vt 0.9823684096336365 0.9231247305870056
vt 0.9824644923210144 0.9235560894012451
vt 0.9800500869750977 0.9263542890548706
vt 0.9774796366691589 0.9262102246284485
vt 0.9769373536109924 0.9266029000282288
vt 0.9800500869750977 0.9263542890548706
vt 0.9803217053413391 0.9258198142051697
vt 0.9774796366691589 0.9262102246284485
vt 0.9806717038154602 0.9245535135269165
vt 0.9813868403434753 0.9308272004127502
vt 0.98150634765625 0.923874020576477
vt 0.9823684096336365 0.9231247305870056
vt 0.9809167385101318 0.9236330986022949
vt 0.9797581434249878 0.924373984336853
vt 0.9824644923210144 0.9235560894012451
vt 0.9800500869750977 0.9263542890548706
vt 0.9808023571968079 0.9282858371734619
vt 0.9775611162185669 0.9319814443588257
vt 0.9776875376701355 0.9285390973091125
vt 0.9808339476585388 0.924281120300293
vt 0.9808339476585388 0.924281120300293
vt 0.9809167385101318 0.9236330986022949
vt 0.9797581434249878 0.924373984336853
vt 0.9825553297996521 0.9293795228004456
vt 0.9831284284591675 0.931915283203125
vt 0.981948971748352 0.9322714805603027
vt 0.9794873595237732 0.9249094128608704
vt 0.9770030379295349 0.9305376410484314
vt 0.9797581434249878 0.924373984336853
vt 0.9806717038154602 0.9245535135269165
vt 0.9808339476585388 0.924281120300293
vt 0.981948971748352 0.9322714805603027
vt 0.9806717038154602 0.9245535135269165
vt 0.9797581434249878 0.924373984336853
vt 0.9794873595237732 0.9249094128608704
vt 0.9812556505203247 0.9271138906478882
vt 0.9800500869750977 0.9263542890548706
vt 0.9769373536109924 0.9266029000282288
vt 0.9768171906471252 0.9300569891929626
vt 0.9831284284591675 0.931915283203125
vt 0.9808023571968079 0.9282858371734619
vt 0.9813868403434753 0.9308272004127502
vt 0.9775611162185669 0.9319814443588257
vt 0.9775611162185669 0.9319814443588257
vt 0.9773749709129333 0.9314998984336853
vt 0.9800792932510376 0.927467942237854
vt 0.9806717038154602 0.9245535135269165
vt 0.9794873595237732 0.9249094128608704
vt 0.9800792932510376 0.927467942237854
vt 0.9768171906471252 0.9300569891929626
vt 0.9800500869750977 0.9263542890548706
vt 0.9768171906471252 0.9300569891929626
vt 0.980638861656189 0.9289054870605469
vt 0.980638861656189 0.9289054870605469
vt 0.9800792932510376 0.927467942237854
vt 0.9812556505203247 0.9271138906478882
vt 0.9806717038154602 0.9245535135269165
vt 0.9811996221542358 0.9303463101387024
vt 0.9826096296310425 0.9364723563194275
vt 0.9773749709129333 0.9314998984336853
vt 0.9811996221542358 0.9303463101387024
vt 0.980825662612915 0.9293854832649231
vt 0.9826096296310425 0.9364723563194275
vt 0.9822408556938171 0.9355234503746033
vt 0.980825662612915 0.9293854832649231
vt 0.9770030379295349 0.9305376410484314
vt 0.9776149392127991 0.9384185671806335
vt 0.980825662612915 0.9293854832649231
vt 0.9822408556938171 0.9355234503746033
vt 0.9826096296310425 0.9364723563194275
vt 0.9826096296310425 0.9364723563194275
vt 0.9776149392127991 0.9384185671806335
vt 0.9773749709129333 0.9314998984336853
vt 0.9772492051124573 0.9374686479568481
vt 0.9822408556938171 0.9355234503746033
vt 0.9770030379295349 0.9305376410484314
vt 0.9772492051124573 0.9374686479568481
vn 0.00002213979314547032 1 -0.000010336968443880323
vn 0.00002213979314547032 1 -0.000010336968443880323
vn 0.00002213979314547032 1 -0.000010336968443880323
vn 0.00003562172059901059 1 -0
vn 0.00003562172059901059 1 -0
vn 0.00003562172059901059 1 -0
vn -0.3934248089790344 -0 -0.9193567037582397
vn -0.39342424273490906 0.00000017572544663835288 -0.9193570017814636
vn 0.6611844301223755 -0.00004400394391268492 -0.7502233386039734
vn 0.7347592711448669 0.6653467416763306 0.13206994533538818
vn 1 -0.0000049004688662535045 -0
vn 0.6362574100494385 -0.6117067337036133 0.47009724378585815
vn 0 1 -0
vn 0 1 -0
vn 0 1 -0
vn 0.6852851510047913 0.00003484847184154205 -0.728274941444397
vn -0.00003107400698354468 1 -0.000004437393727130257
vn -0.00003107400698354468 1 -0.000004437393727130257
vn -0.00003107400698354468 1 -0.000004437393727130257
vn -0.8270455598831177 -0 -0.5621349215507507
vn -0.00002766343459370546 0.9999999403953552 -0.000009714818588690832
vn -0.00002766343459370546 0.9999999403953552 -0.000009714818588690832
vn -0.00002766343459370546 0.9999999403953552 -0.000009714818588690832
vn 0.0000063160523495753296 1 0.000049025562475435436
vn 0.0000063160523495753296 1 0.000049025562475435436
vn 0.0000063160523495753296 1 0.000049025562475435436
vn 0.7347574830055237 0.5738083720207214 -0.36176711320877075
vn 0.6362581849098206 -0.24827533960342407 -0.7304346561431885
vn 0.7282508015632629 -0.4462123513221741 0.5201398134231567
vn -0.000028998749257880263 1 -0.000009168034921458457
vn -0.000028998749257880263 1 -0.000009168034921458457
vn -0.000028998749257880263 1 -0.000009168034921458457
vn -0.8270536661148071 -0 -0.5621229410171509
vn -0.9883437752723694 -0 -0.15223848819732666
vn 0.000009679752110969275 1 -0.000022089043341111392
vn 0.000009679752110969275 1 -0.000022089043341111392
vn 0.000009679752110969275 1 -0.000022089043341111392
vn -0.38251546025276184 -0.0000027310427412885474 -0.923949122428894
vn -0.3825029730796814 -0.000000590601189287554 -0.9239542484283447
vn 0.6853100657463074 -0.00003603625009418465 -0.7282514572143555
vn 0.000007264347004820593 1 0.000007138963155739475
vn 0.000007264347004820593 1 0.000007138963155739475
vn 0.000007264347004820593 1 0.000007138963155739475
vn -0.000011295803233224433 1 0.00002577684608695563
vn -0.000011295803233224433 1 0.00002577684608695563
vn -0.000011295803233224433 1 0.00002577684608695563
vn 0.6853100657463074 0.000029716691642533988 -0.7282514572143555
vn -0.988344669342041 -0 -0.15223252773284912
vn -0.9005846381187439 0.004017957951873541 -0.43466225266456604
vn 0.7282463908195496 -0.5024884939193726 -0.4660071134567261
vn 0.734751284122467 -0.5379078984260559 -0.4132744073867798
vn 0.7347517013549805 0.4416648745536804 -0.514851450920105
vn 0.9395343065261841 0.000002710159151320113 0.342454731464386
vn 0.9395256638526917 0.0000001782870953093152 0.3424783945083618
vn 0.9847683310508728 0.0000012854909527959535 0.17387188971042633
vn -0.000006316082362900488 -1 -0.00005052048436482437
vn -0.000006316082362900488 -1 -0.00005052048436482437
vn -0.000006316082362900488 -1 -0.00005052048436482437
vn -0.9052966237068176 -0.007005041465163231 -0.4247223734855652
vn -0.3934250771999359 -0 -0.919356644153595
vn -0.393424391746521 -0.00000017576545019437617 -0.9193570017814636
vn 0.6852843761444092 -0.00003468626891844906 -0.7282755970954895
vn -0.000008174280992534477 -1 -0.000010046993338619359
vn -0.000008174280992534477 -1 -0.000010046993338619359
vn -0.000008174280992534477 -1 -0.000010046993338619359
vn -0.000028998740162933245 1 0.00000007188688044834635
vn -0.000028998740162933245 1 0.00000007188688044834635
vn -0.000028998740162933245 1 0.00000007188688044834635
vn 0.6611842513084412 0.00025369154172949493 -0.7502235174179077
vn -0.8270467519760132 -0 -0.5621331334114075
vn 0.7282504439353943 0.22043518722057343 -0.6488910913467407
vn 0.6610702872276306 -0.750324010848999 0.00003584398655220866
vn 0.7347592711448669 -0.6653369665145874 0.1321195513010025
vn -0.000007264266059792135 -1 -0.000007355213710980024
vn -0.000007264266059792135 -1 -0.000007355213710980024
vn -0.000007264266059792135 -1 -0.000007355213710980024
vn -0.000011046451618312858 -1 -0.000003533941935529583
vn -0.000011046451618312858 -1 -0.000003533941935529583
vn -0.000011046451618312858 -1 -0.000003533941935529583
vn 0.9847661256790161 -0 0.1738843321800232
vn -1 -0 0.000004841728696192149
vn 0 -1 -0
vn 0 -1 -0
vn 0 -1 -0
vn -0.8270534873008728 -0 -0.5621232986450195
vn 0 -1 -0
vn -0.9883437752723694 -0 -0.15223833918571472
vn 0.00000877473212312907 1 0.000004741989869216923
vn 0.00000877473212312907 1 0.000004741989869216923
vn 0.00000877473212312907 1 0.000004741989869216923
vn 0 -1 -0
vn -0.000031073708669282496 -1 -0.0000039253491195268
vn -0.000031073708669282496 -1 -0.0000039253491195268
vn -0.000031073708669282496 -1 -0.0000039253491195268
vn -0.000028998960260651074 1 -0.000000054196366505721016
vn -0.000028998960260651074 1 -0.000000054196366505721016
vn -0.000028998960260651074 1 -0.000000054196366505721016
vn -0.9883446097373962 -0 -0.1522325724363327
vn -0.9958785176277161 0.00559249147772789 -0.09052453935146332
vn 0.0000007857594823690306 -1 -0.000059976751799695194
vn 0.0000007857594823690306 -1 -0.000059976751799695194
vn 0.0000007857594823690306 -1 -0.000059976751799695194
vn -1 -0 0.000004841728696192149
vn -0.000028998641937505454 -1 -0.00003841843135887757
vn -0.000028998641937505454 -1 -0.00003841843135887757
vn -0.000028998641937505454 -1 -0.00003841843135887757
vn 1 -0 -0.0000036312969768914627
vn -0.00000877473212312907 -1 -0.000004741989869216923
vn -0.00000877473212312907 -1 -0.000004741989869216923
vn -0.00000877473212312907 -1 -0.000004741989869216923
vn 1 -0 -0.000003631296067396761
vn 0 1 0.000000015499004746288847
vn 0 1 0.000000015499004746288847
vn 0 1 0.000000015499004746288847
vn -0.9943342804908752 0.000000026425096777416002 -0.10629937797784805
vn -0.9954296946525574 0.00486831134185195 -0.09537356346845627
vn -1 -0 0.0000048417291509395
vn -0.000028998740162933245 -1 -0
vn -0.000028998740162933245 -1 -0
vn -0.000028998740162933245 -1 -0
vn -0.994533896446228 0.004847436677664518 -0.10430135577917099
vn 0 -1 -0
vn 0 -1 -0
vn 0 -1 -0
vn -0.9999999403953552 -0 0.000004841728696192149
vn -0.000028998960260651074 -1 -0
vn -0.000028998960260651074 -1 -0
vn -0.000028998960260651074 -1 -0
vn 0.0005529202171601355 0.9999998211860657 -0.00012343267735559493
vn -0.0000986388185992837 0.9999998211860657 -0.0005682242917828262
vn 0.0005511919734999537 0.9999998211860657 -0.00013105226389598101
vn 1 -0.00000730789861336234 -0
vn 1 -0.00000730789861336234 -0
vn 1 -0.00000730789861336234 -0
vn 0.00019449047977104783 -0.9999999403953552 0.0002668737433850765
vn -0.0005708035896532238 -0.9999998211860657 0.000123432808322832
vn -0.0005329385166987777 -0.9999998211860657 0.00023738548043183982
vn -0.9987555742263794 0.000007721258043602575 -0.04987134411931038
vn 1 -0.0000072494362939323764 -0
vn 1 -0.0000072494362939323764 -0
vn 1 -0.0000072494362939323764 -0
vn -0.001022067852318287 0.999999463558197 -0.000022004365746397525
vn -0.000782938557676971 0.9999997019767761 0.000008959876140579581
vn -0.0001860317715909332 0.9999997615814209 0.0006050420925021172
vn -0.00042834263877011836 -0.9999998211860657 -0.0004928444395773113
vn 0.0007783370092511177 -0.9999997615814209 -0.00005177268758416176
vn -0.00012184531078673899 -1 -0.00019049851107411087
vn -0.99875807762146 0.0000000914813043095819 -0.049823470413684845
f 3/3/3 2/2/2 1/1/1
f 6/6/6 5/5/5 4/4/4
f 9/9/9 8/8/8 7/7/7
f 12/12/12 11/11/11 10/10/10
f 15/15/15 14/14/14 13/13/13
f 9/9/9 16/16/16 8/8/8
f 19/19/19 18/18/18 17/17/17
f 8/8/8 20/20/20 7/7/7
f 23/23/23 22/22/22 21/21/21
f 26/26/26 25/25/25 24/24/24
f 29/29/29 28/28/28 27/27/27
f 32/32/32 31/31/31 30/30/30
f 8/8/8 33/33/33 20/20/20
f 33/33/33 34/34/34 20/20/20
f 37/37/37 36/36/36 35/35/35
f 40/40/40 39/39/39 38/38/38
f 43/43/43 42/42/42 41/41/41
f 46/46/46 45/45/45 44/44/44
f 40/40/40 47/47/47 39/39/39
f 33/33/33 48/48/48 34/34/34
f 49/49/49 38/38/38 39/39/39
f 52/52/52 51/51/51 50/50/50
f 55/55/55 54/54/54 53/53/53
f 58/58/58 57/57/57 56/56/56
f 49/49/49 39/39/39 59/59/59
f 62/62/62 61/61/61 60/60/60
f 65/65/65 64/64/64 63/63/63
f 68/68/68 67/67/67 66/66/66
f 62/62/62 69/69/69 61/61/61
f 61/61/61 70/70/70 60/60/60
f 73/73/73 72/72/72 71/71/71
f 76/76/76 75/75/75 74/74/74
f 79/79/79 78/78/78 77/77/77
f 55/55/55 80/80/80 54/54/54
f 81/81/81 34/34/34 48/48/48
f 84/84/84 83/83/83 82/82/82
f 61/61/61 85/85/85 70/70/70
f 83/83/83 86/86/86 82/82/82
f 85/85/85 87/87/87 70/70/70
f 90/90/90 89/89/89 88/88/88
f 91/91/91 84/84/84 82/82/82
f 94/94/94 93/93/93 92/92/92
f 97/97/97 96/96/96 95/95/95
f 85/85/85 98/98/98 87/87/87
f 49/49/49 59/59/59 99/99/99
f 102/102/102 101/101/101 100/100/100
f 81/81/81 103/103/103 34/34/34
f 106/106/106 105/105/105 104/104/104
f 107/107/107 80/80/80 55/55/55
f 110/110/110 109/109/109 108/108/108
f 107/107/107 55/55/55 111/111/111
f 114/114/114 113/113/113 112/112/112
f 116/116/116 115/115/115 49/49/49
f 99/99/99 116/116/116 49/49/49
f 87/87/87 98/98/98 117/117/117
f 120/120/120 119/119/119 118/118/118
f 59/59/59 121/121/121 99/99/99
f 124/124/124 123/123/123 122/122/122
f 87/87/87 117/117/117 125/125/125
f 128/128/128 127/127/127 126/126/126
f 131/131/131 130/130/130 129/129/129
f 134/134/134 133/133/133 132/132/132
f 137/137/137 136/136/136 135/135/135
f 99/99/99 138/138/138 116/116/116
f 141/141/141 140/140/140 139/139/139
f 144/144/144 143/143/143 142/142/142
f 147/147/147 146/146/146 145/145/145
f 99/99/99 148/148/148 138/138/138
