# VPXTOOL table OBJ file
# VPXTOOL OBJ file
# numVerts: 56 numFaces: 147
o LM_L_LH6_Playfield
v -233.93276977539063 534.5339965820313 -0
v -41.22587585449219 534.7922973632813 -0
v -36.2238883972168 548.8837280273438 -0
v -106.2380599975586 639.1170654296875 -0
v 151.48098754882813 535.0505981445313 -0
v -244.15174865722656 563.1470947265625 -0
v -176.25222778320313 729.3502807617188 -0
v 151.48098754882813 535.0505981445313 23.52941131591797
v 161.48497009277344 563.2334594726563 23.52941131591797
v 161.48497009277344 563.2334594726563 -0
v 151.48098754882813 535.0505981445313 -0
v 151.48098754882813 535.0505981445313 23.52941131591797
v 161.48497009277344 563.2334594726563 -0
v 161.48497009277344 563.2334594726563 -0
v 161.48497009277344 563.2334594726563 -0
v 161.48497009277344 563.2334594726563 23.52941131591797
v 163.42108154296875 566.1377563476563 -0
v 91.47079467773438 653.466796875 -0
v 163.42108154296875 566.1377563476563 -0
v -181.36172485351563 743.6567993164063 -0
v 92.92289733886719 655.6448974609375 -0
v 165.67999267578125 567.9664916992188 -0
v 168.6919708251953 569.14990234375 -0
v 96.8760757446289 657.9041137695313 -0
v 21.456623077392578 743.7000122070313 -0
v 92.43888092041016 654.9189453125 -0
v 91.47079467773438 653.466796875 -0
v 163.42108154296875 566.1377563476563 -0
v 92.43888092041016 654.9189453125 -0
v 94.05237579345703 656.5592651367188 -0
v 94.61705780029297 657.0164794921875 -0
v 95.37007904052734 657.3123779296875 -0
v 96.8760757446289 657.9041137695313 -0
v 168.6919708251953 569.14990234375 -0
v 200.3537139892578 680.413818359375 -0
v 21.456623077392578 743.7000122070313 -0
v 22.42470932006836 745.1521606445313 -0
v 94.61705780029297 657.0164794921875 -0
v 95.37007904052734 657.3123779296875 -0
v 25.060178756713867 746.658203125 -0
v 25.060178756713867 746.658203125 -0
v 23.55413246154785 746.0665283203125 -0
v 200.3537139892578 680.413818359375 -0
v 128.53781127929688 769.1679077148438 -0
v 128.53781127929688 769.1679077148438 -0
v -48.55752182006836 833.9331665039063 -0
v -118.57166290283203 924.16650390625 -0
v -48.07347869873047 834.6593627929688 -0
v -46.75574493408203 835.4122924804688 -0
v 232.0154571533203 791.6777954101563 -0
v -47.508766174316406 835.1165771484375 -0
v -46.75574493408203 835.4122924804688 -0
v -47.508766174316406 835.1165771484375 -0
v 23.55413246154785 746.0665283203125 -0
v 56.721923828125 857.922119140625 -0
v 160.19955444335938 880.4320068359375 -0
vt 0.657737672328949 0.8713216781616211
vt 0.6578088402748108 0.815376341342926
vt 0.6617006063461304 0.813948929309845
vt 0.6870719194412231 0.8348054885864258
vt 0.6578800082206726 0.7594260573387146
vt 0.6656590104103088 0.8746343851089478
vt 0.7132490873336792 0.8563244938850403
vt 0.6604036688804626 0.7597302198410034
vt 0.6681647896766663 0.7566219568252563
vt 0.6656830310821533 0.7562946081161499
vt 0.6578800082206726 0.7594260573387146
vt 0.6604036688804626 0.7597302198410034
vt 0.6656830310821533 0.7562946081161499
vt 0.6656830310821533 0.7562946081161499
vt 0.6656830310821533 0.7562946081161499
vt 0.6681647896766663 0.7566219568252563
vt 0.6664914488792419 0.7557059526443481
vt 0.6911799907684326 0.7762994766235352
vt 0.6664914488792419 0.7557059526443481
vt 0.7174760699272156 0.8579956889152527
vt 0.691805362701416 0.7758587002754211
vt 0.6670008897781372 0.7550314664840698
vt 0.6673306822776794 0.7541419863700867
vt 0.69245445728302 0.7746755480766296
vt 0.7174888849258423 0.7969413995742798
vt 0.6915968656539917 0.7760056853294373
vt 0.6911799907684326 0.7762994766235352
vt 0.6664914488792419 0.7557059526443481
vt 0.6915968656539917 0.7760056853294373
vt 0.6920679807662964 0.7755194306373596
vt 0.6921993494033813 0.7753497958183289
vt 0.6922844052314758 0.7751250267028809
vt 0.69245445728302 0.7746755480766296
vt 0.6673306822776794 0.7541419863700867
vt 0.6989500522613525 0.7437559366226196
vt 0.7174888849258423 0.7969413995742798
vt 0.717919111251831 0.7966482043266296
vt 0.6921993494033813 0.7753497958183289
vt 0.6922844052314758 0.7751250267028809
vt 0.7183655500411987 0.7958526015281677
vt 0.7183655500411987 0.7958526015281677
vt 0.7181901335716248 0.7963069677352905
vt 0.6989500522613525 0.7437559366226196
vt 0.7250667214393616 0.7645310759544373
vt 0.7250667214393616 0.7645310759544373
vt 0.7446490526199341 0.8182513117790222
vt 0.7727027535438538 0.8402621746063232
vt 0.744871199131012 0.818105161190033
vt 0.7451016306877136 0.817703902721405
vt 0.731821596622467 0.7329585552215576
vt 0.7450111508369446 0.8179335594177246
vt 0.7451016306877136 0.817703902721405
vt 0.7450111508369446 0.8179335594177246
vt 0.7181901335716248 0.7963069677352905
vt 0.7520183324813843 0.7859703302383423
vt 0.7589913010597229 0.7539783716201782
vn 0 -0 -1
vn 0 -0 -1
vn 0 -0 -1
vn 0 -0 -1
vn 0 -0 -1
vn 0 -0 -1
vn 0 -0 -1
vn 0.942389965057373 -0.33451634645462036 -0
vn 0.942389965057373 -0.33451634645462036 -0
vn 0.942389965057373 -0.33451634645462036 -0
vn 0.9423896670341492 -0.33451738953590393 -0
vn 0.9423896670341492 -0.33451738953590393 -0
vn 0.9423896670341492 -0.33451738953590393 -0
vn 0 -0 -1
vn 0.8320609927177429 -0.5546842217445374 -0
vn 0.8320609927177429 -0.5546842217445374 -0
vn 0.8320609927177429 -0.5546842217445374 -0
vn 0 -0 -1
vn 0 -0 -1
vn 0 -0 -1
vn 0 -0 -1
vn 0 -0 -1
vn 0 -0 -1
vn 0 -0 -1
vn 0 -0 -1
vn 0 -0 -0.9999999403953552
vn 0 -0 -0.9999999403953552
vn 0 -0 -0.9999999403953552
vn 0 -0 -1
vn 0 -0 -1
vn 0 -0 -1
vn 0 -0 -1
vn 0 -0 -0.9999999403953552
vn 0 -0 -0.9999999403953552
vn 0 -0 -0.9999999403953552
vn 0 -0 -0.9999999403953552
vn 0 -0 -1
vn 0 -0 -0.9999999403953552
vn 0 -0 -0.9999999403953552
vn 0 -0 -0.9999999403953552
vn 0 -0 -1
vn 0 -0 -1
vn 0 -0 -1
vn 0 -0 -1
vn 0 -0 -0.9999999403953552
vn 0 -0 -1
vn 0 -0 -1
vn 0 -0 -1
vn 0 -0 -1
vn 0 -0 -1
vn 0 -0 -1
vn 0 -0 -0.9999999403953552
vn 0 -0 -0.9999999403953552
vn 0 -0 -0.9999999403953552
vn 0 -0 -1
vn 0 -0 -1
f 3/3/3 2/2/2 1/1/1
f 1/1/1 4/4/4 3/3/3
f 5/5/5 2/2/2 3/3/3
f 7/7/7 1/1/1 6/6/6
f 10/10/10 9/9/9 8/8/8
f 13/13/13 12/12/12 11/11/11
f 5/5/5 3/3/3 14/14/14
f 17/17/17 16/16/16 15/15/15
f 1/1/1 7/7/7 4/4/4
f 3/3/3 18/18/18 14/14/14
f 19/19/19 14/14/14 18/18/18
f 7/7/7 6/6/6 20/20/20
f 22/22/22 19/19/19 21/21/21
f 24/24/24 23/23/23 22/22/22
f 4/4/4 25/25/25 3/3/3
f 28/28/28 27/27/27 26/26/26
f 21/21/21 19/19/19 29/29/29
f 22/22/22 21/21/21 30/30/30
f 31/31/31 22/22/22 30/30/30
f 32/32/32 22/22/22 31/31/31
f 24/24/24 22/22/22 32/32/32
f 3/3/3 25/25/25 18/18/18
f 35/35/35 34/34/34 33/33/33
f 4/4/4 7/7/7 25/25/25
f 26/26/26 27/27/27 36/36/36
f 29/29/29 25/25/25 21/21/21
f 30/30/30 21/21/21 37/37/37
f 31/31/31 30/30/30 37/37/37
f 40/40/40 39/39/39 38/38/38
f 41/41/41 24/24/24 32/32/32
f 25/25/25 37/37/37 21/21/21
f 37/37/37 42/42/42 31/31/31
f 42/42/42 41/41/41 31/31/31
f 44/44/44 43/43/43 24/24/24
f 45/45/45 33/33/33 40/40/40
f 7/7/7 46/46/46 25/25/25
f 47/47/47 7/7/7 20/20/20
f 37/37/37 25/25/25 46/46/46
f 42/42/42 37/37/37 48/48/48
f 41/41/41 42/42/42 49/49/49
f 50/50/50 43/43/43 44/44/44
f 7/7/7 47/47/47 46/46/46
f 46/46/46 48/48/48 37/37/37
f 48/48/48 51/51/51 42/42/42
f 54/54/54 53/53/53 52/52/52
f 55/55/55 44/44/44 41/41/41
f 55/55/55 41/41/41 49/49/49
f 56/56/56 50/50/50 44/44/44
f 55/55/55 56/56/56 44/44/44
