# VPXTOOL table OBJ file
# VPXTOOL OBJ file
# numVerts: 134 numFaces: 138
o LM_L_LMet3_UnderPF
v 84.4132080078125 19.28529167175293 -12.23087215423584
v 75.38792419433594 21.08055305480957 -12.23087215423584
v 84.4132080078125 19.28529167175293 -6.426158428192139
v 75.38792419433594 21.08055305480957 -12.23087215423584
v 66.36263275146484 19.28529167175293 -12.23087215423584
v 75.38792419433594 21.08055305480957 -6.426158428192139
v 75.38792419433594 21.08055305480957 -12.23087215423584
v 75.38792419433594 21.08055305480957 -6.426158428192139
v 84.4132080078125 19.28529167175293 -6.426158428192139
v 92.06446838378906 14.172929763793945 -12.23087215423584
v 84.4132080078125 19.28529167175293 -12.23087215423584
v 92.06446838378906 14.172929763793945 -6.426158428192139
v 84.4132080078125 19.28529167175293 -12.23087215423584
v 84.4132080078125 19.28529167175293 -6.426158428192139
v 92.06446838378906 14.172929763793945 -6.426158428192139
v 66.36263275146484 19.28529167175293 -12.23087215423584
v 66.36263275146484 19.28529167175293 -6.426158428192139
v 75.38792419433594 21.08055305480957 -6.426158428192139
v 66.36263275146484 19.28529167175293 -12.23087215423584
v 58.71137619018555 14.172929763793945 -12.23087215423584
v 66.36263275146484 19.28529167175293 -6.426158428192139
v 92.06446838378906 14.172929763793945 -12.23087215423584
v 92.06446838378906 14.172929763793945 -6.426158428192139
v 97.17688751220703 6.521670341491699 -6.426158428192139
v 97.17688751220703 6.521670341491699 -12.23087215423584
v 92.06446838378906 14.172929763793945 -12.23087215423584
v 97.17688751220703 6.521670341491699 -6.426158428192139
v 58.71137619018555 14.172929763793945 -12.23087215423584
v 58.71137619018555 14.172929763793945 -6.426158428192139
v 66.36263275146484 19.28529167175293 -6.426158428192139
v 98.97209167480469 -2.503671169281006 -6.426158428192139
v 84.4132080078125 19.28529167175293 -6.426158428192139
v 75.38792419433594 21.08055305480957 -6.426158428192139
v 58.71137619018555 14.172929763793945 -12.23087215423584
v 53.59901428222656 6.521670341491699 -12.23087215423584
v 58.71137619018555 14.172929763793945 -6.426158428192139
v 98.97209167480469 -2.503671169281006 -6.426158428192139
v 92.06446838378906 14.172929763793945 -6.426158428192139
v 84.4132080078125 19.28529167175293 -6.426158428192139
v 51.80375289916992 -2.503671169281006 -6.426158428192139
v 75.38792419433594 21.08055305480957 -6.426158428192139
v 66.36263275146484 19.28529167175293 -6.426158428192139
v 98.97209167480469 -2.503671169281006 -6.426158428192139
v 97.17688751220703 6.521670341491699 -6.426158428192139
v 92.06446838378906 14.172929763793945 -6.426158428192139
v 97.17688751220703 6.521670341491699 -12.23087215423584
v 97.17688751220703 6.521670341491699 -6.426158428192139
v 98.97209167480469 -2.503671169281006 -6.426158428192139
v 53.59901428222656 6.521670341491699 -12.23087215423584
v 53.59901428222656 6.521670341491699 -6.426158428192139
v 58.71137619018555 14.172929763793945 -6.426158428192139
v 98.97209167480469 -2.503671169281006 -12.23087215423584
v 97.17688751220703 6.521670341491699 -12.23087215423584
v 98.97209167480469 -2.503671169281006 -6.426158428192139
v 51.80375289916992 -2.503671169281006 -6.426158428192139
v 66.36263275146484 19.28529167175293 -6.426158428192139
v 58.71137619018555 14.172929763793945 -6.426158428192139
v 53.59901428222656 6.521670341491699 -12.23087215423584
v 51.80375289916992 -2.503671169281006 -12.23087215423584
v 53.59901428222656 6.521670341491699 -6.426158428192139
v 58.71137619018555 14.172929763793945 -6.426158428192139
v 53.59901428222656 6.521670341491699 -6.426158428192139
v 51.80375289916992 -2.503671169281006 -6.426158428192139
v 98.97209167480469 -2.503671169281006 -12.23087215423584
v 98.97209167480469 -2.503671169281006 -6.426158428192139
v 97.17688751220703 -11.528902053833008 -6.426158428192139
v 51.80375289916992 -2.503671169281006 -12.23087215423584
v 51.80375289916992 -2.503671169281006 -6.426158428192139
v 53.59901428222656 6.521670341491699 -6.426158428192139
v 97.17688751220703 -11.528902053833008 -12.23087215423584
v 98.97209167480469 -2.503671169281006 -12.23087215423584
v 97.17688751220703 -11.528902053833008 -6.426158428192139
v 75.38792419433594 -26.087785720825195 -6.426158428192139
v 98.97209167480469 -2.503671169281006 -6.426158428192139
v 75.38792419433594 21.08055305480957 -6.426158428192139
v 75.38792419433594 21.08055305480957 -6.426158428192139
v 51.80375289916992 -2.503671169281006 -6.426158428192139
v 75.38792419433594 -26.087785720825195 -6.426158428192139
v 51.80375289916992 -2.503671169281006 -12.23087215423584
v 53.59901428222656 -11.528902053833008 -12.23087215423584
v 51.80375289916992 -2.503671169281006 -6.426158428192139
v 92.06446838378906 -19.18016242980957 -6.426158428192139
v 97.17688751220703 -11.528902053833008 -6.426158428192139
v 98.97209167480469 -2.503671169281006 -6.426158428192139
v 97.17688751220703 -11.528902053833008 -12.23087215423584
v 97.17688751220703 -11.528902053833008 -6.426158428192139
v 92.06446838378906 -19.18016242980957 -6.426158428192139
v 53.59901428222656 -11.528902053833008 -12.23087215423584
v 53.59901428222656 -11.528902053833008 -6.426158428192139
v 51.80375289916992 -2.503671169281006 -6.426158428192139
v 92.06446838378906 -19.18016242980957 -12.23087215423584
v 97.17688751220703 -11.528902053833008 -12.23087215423584
v 92.06446838378906 -19.18016242980957 -6.426158428192139
v 98.97209167480469 -2.503671169281006 -6.426158428192139
v 84.4132080078125 -24.292522430419922 -6.426158428192139
v 92.06446838378906 -19.18016242980957 -6.426158428192139
v 53.59901428222656 -11.528902053833008 -12.23087215423584
v 58.71137619018555 -19.18016242980957 -12.23087215423584
v 53.59901428222656 -11.528902053833008 -6.426158428192139
v 75.38792419433594 -26.087785720825195 -6.426158428192139
v 53.59901428222656 -11.528902053833008 -6.426158428192139
v 84.4132080078125 -24.292522430419922 -6.426158428192139
v 92.06446838378906 -19.18016242980957 -12.23087215423584
v 92.06446838378906 -19.18016242980957 -6.426158428192139
v 84.4132080078125 -24.292522430419922 -6.426158428192139
v 84.4132080078125 -24.292522430419922 -12.23087215423584
v 92.06446838378906 -19.18016242980957 -12.23087215423584
v 84.4132080078125 -24.292522430419922 -6.426158428192139
v 58.71137619018555 -19.18016242980957 -12.23087215423584
v 58.71137619018555 -19.18016242980957 -6.426158428192139
v 53.59901428222656 -11.528902053833008 -6.426158428192139
v 58.71137619018555 -19.18016242980957 -12.23087215423584
v 66.36263275146484 -24.292522430419922 -12.23087215423584
v 58.71137619018555 -19.18016242980957 -6.426158428192139
v 75.38792419433594 -26.087785720825195 -6.426158428192139
v 53.59901428222656 -11.528902053833008 -6.426158428192139
v 58.71137619018555 -19.18016242980957 -6.426158428192139
v 75.38792419433594 -26.087785720825195 -12.23087215423584
v 84.4132080078125 -24.292522430419922 -12.23087215423584
v 75.38792419433594 -26.087785720825195 -6.426158428192139
v 66.36263275146484 -24.292522430419922 -12.23087215423584
v 75.38792419433594 -26.087785720825195 -12.23087215423584
v 66.36263275146484 -24.292522430419922 -6.426158428192139
v 84.4132080078125 -24.292522430419922 -12.23087215423584
v 84.4132080078125 -24.292522430419922 -6.426158428192139
v 75.38792419433594 -26.087785720825195 -6.426158428192139
v 66.36263275146484 -24.292522430419922 -12.23087215423584
v 66.36263275146484 -24.292522430419922 -6.426158428192139
v 58.71137619018555 -19.18016242980957 -6.426158428192139
v 75.38792419433594 -26.087785720825195 -12.23087215423584
v 75.38792419433594 -26.087785720825195 -6.426158428192139
v 66.36263275146484 -24.292522430419922 -6.426158428192139
v 58.71137619018555 -19.18016242980957 -6.426158428192139
v 66.36263275146484 -24.292522430419922 -6.426158428192139
vt 0.7098023295402527 0.6995056867599487
vt 0.7103978395462036 0.7018802762031555
vt 0.7109682559967041 0.6995319128036499
vt 0.7103978395462036 0.7018802762031555
vt 0.7098023295402527 0.7042629718780518
vt 0.7115631699562073 0.7019028663635254
vt 0.7103978395462036 0.7018802762031555
vt 0.7115631699562073 0.7019028663635254
vt 0.7109682559967041 0.6995319128036499
vt 0.7081084251403809 0.6975040435791016
vt 0.7098023295402527 0.6995056867599487
vt 0.7092760801315308 0.697533369064331
vt 0.7098023295402527 0.6995056867599487
vt 0.7109682559967041 0.6995319128036499
vt 0.7092760801315308 0.697533369064331
vt 0.7098023295402527 0.7042629718780518
vt 0.7109682559967041 0.7042818069458008
vt 0.7115631699562073 0.7019028663635254
vt 0.7098023295402527 0.7042629718780518
vt 0.7081084251403809 0.7062875032424927
vt 0.7109682559967041 0.7042818069458008
vt 0.7081084251403809 0.6975040435791016
vt 0.7092760801315308 0.697533369064331
vt 0.706748366355896 0.6962130069732666
vt 0.7055782675743103 0.6961816549301147
vt 0.7081084251403809 0.6975040435791016
vt 0.706748366355896 0.6962130069732666
vt 0.7081084251403809 0.7062875032424927
vt 0.7092760801315308 0.7063032388687134
vt 0.7109682559967041 0.7042818069458008
vt 0.7037745118141174 0.6957702040672302
vt 0.7109682559967041 0.6995319128036499
vt 0.7115631699562073 0.7019028663635254
vt 0.7081084251403809 0.7062875032424927
vt 0.7055782675743103 0.7076442241668701
vt 0.7092760801315308 0.7063032388687134
vt 0.7037745118141174 0.6957702040672302
vt 0.7092760801315308 0.697533369064331
vt 0.7109682559967041 0.6995319128036499
vt 0.7037745118141174 0.7081408500671387
vt 0.7115631699562073 0.7019028663635254
vt 0.7109682559967041 0.7042818069458008
vt 0.7037745118141174 0.6957702040672302
vt 0.706748366355896 0.6962130069732666
vt 0.7092760801315308 0.697533369064331
vt 0.7055782675743103 0.6961816549301147
vt 0.706748366355896 0.6962130069732666
vt 0.7037745118141174 0.6957702040672302
vt 0.7055782675743103 0.7076442241668701
vt 0.706748366355896 0.7076578140258789
vt 0.7092760801315308 0.7063032388687134
vt 0.7026013731956482 0.6957382559776306
vt 0.7055782675743103 0.6961816549301147
vt 0.7037745118141174 0.6957702040672302
vt 0.7037745118141174 0.7081408500671387
vt 0.7109682559967041 0.7042818069458008
vt 0.7092760801315308 0.7063032388687134
vt 0.7055782675743103 0.7076442241668701
vt 0.7026013731956482 0.7081279754638672
vt 0.706748366355896 0.7076578140258789
vt 0.7092760801315308 0.7063032388687134
vt 0.706748366355896 0.7076578140258789
vt 0.7037745118141174 0.7081408500671387
vt 0.7026013731956482 0.6957382559776306
vt 0.7037745118141174 0.6957702040672302
vt 0.7008088231086731 0.6962690353393555
vt 0.7026013731956482 0.7081279754638672
vt 0.7037745118141174 0.7081408500671387
vt 0.706748366355896 0.7076578140258789
vt 0.6996327638626099 0.6962378621101379
vt 0.7026013731956482 0.6957382559776306
vt 0.7008088231086731 0.6962690353393555
vt 0.6960421204566956 0.7020078301429749
vt 0.7037745118141174 0.6957702040672302
vt 0.7115631699562073 0.7019028663635254
vt 0.7115631699562073 0.7019028663635254
vt 0.7037745118141174 0.7081408500671387
vt 0.6960421204566956 0.7020078301429749
vt 0.7026013731956482 0.7081279754638672
vt 0.6996327638626099 0.707668662071228
vt 0.7037745118141174 0.7081408500671387
vt 0.6983010768890381 0.6976300477981567
vt 0.7008088231086731 0.6962690353393555
vt 0.7037745118141174 0.6957702040672302
vt 0.6996327638626099 0.6962378621101379
vt 0.7008088231086731 0.6962690353393555
vt 0.6983010768890381 0.6976300477981567
vt 0.6996327638626099 0.707668662071228
vt 0.7008088231086731 0.7076821327209473
vt 0.7037745118141174 0.7081408500671387
vt 0.6971225142478943 0.6976010203361511
vt 0.6996327638626099 0.6962378621101379
vt 0.6983010768890381 0.6976300477981567
vt 0.7037745118141174 0.6957702040672302
vt 0.696628749370575 0.6996447443962097
vt 0.6983010768890381 0.6976300477981567
vt 0.6996327638626099 0.707668662071228
vt 0.6971225142478943 0.7063394784927368
vt 0.7008088231086731 0.7076821327209473
vt 0.6960421204566956 0.7020078301429749
vt 0.7008088231086731 0.7076821327209473
vt 0.696628749370575 0.6996447443962097
vt 0.6971225142478943 0.6976010203361511
vt 0.6983010768890381 0.6976300477981567
vt 0.696628749370575 0.6996447443962097
vt 0.6954485177993774 0.6996188163757324
vt 0.6971225142478943 0.6976010203361511
vt 0.696628749370575 0.6996447443962097
vt 0.6971225142478943 0.7063394784927368
vt 0.6983010768890381 0.7063550353050232
vt 0.7008088231086731 0.7076821327209473
vt 0.6971225142478943 0.7063394784927368
vt 0.6954485177993774 0.7043443322181702
vt 0.6983010768890381 0.7063550353050232
vt 0.6960421204566956 0.7020078301429749
vt 0.7008088231086731 0.7076821327209473
vt 0.6983010768890381 0.7063550353050232
vt 0.6948612928390503 0.7019855976104736
vt 0.6954485177993774 0.6996188163757324
vt 0.6960421204566956 0.7020078301429749
vt 0.6954485177993774 0.7043443322181702
vt 0.6948612928390503 0.7019855976104736
vt 0.696628749370575 0.7043629884719849
vt 0.6954485177993774 0.6996188163757324
vt 0.696628749370575 0.6996447443962097
vt 0.6960421204566956 0.7020078301429749
vt 0.6954485177993774 0.7043443322181702
vt 0.696628749370575 0.7043629884719849
vt 0.6983010768890381 0.7063550353050232
vt 0.6948612928390503 0.7019855976104736
vt 0.6960421204566956 0.7020078301429749
vt 0.696628749370575 0.7043629884719849
vt 0.6983010768890381 0.7063550353050232
vt 0.696628749370575 0.7043629884719849
vn -0.19509257376194 -0.9807848334312439 -0
vn -0.19509257376194 -0.9807848334312439 -0
vn -0.19509257376194 -0.9807848334312439 -0
vn 0.19509257376194 -0.9807848334312439 -0
vn 0.19509257376194 -0.9807848334312439 -0
vn 0.19509257376194 -0.9807848334312439 -0
vn -0.1950926035642624 -0.9807848334312439 -0
vn -0.1950926035642624 -0.9807848334312439 -0
vn -0.1950926035642624 -0.9807848334312439 -0
vn -0.5555665493011475 -0.8314719796180725 -0
vn -0.5555665493011475 -0.8314719796180725 -0
vn -0.5555665493011475 -0.8314719796180725 -0
vn -0.555566668510437 -0.8314719796180725 -0
vn -0.555566668510437 -0.8314719796180725 -0
vn -0.555566668510437 -0.8314719796180725 -0
vn 0.19509242475032806 -0.9807848334312439 -0
vn 0.19509242475032806 -0.9807848334312439 -0
vn 0.19509242475032806 -0.9807848334312439 -0
vn 0.5555665493011475 -0.8314719796180725 -0
vn 0.5555665493011475 -0.8314719796180725 -0
vn 0.5555665493011475 -0.8314719796180725 -0
vn -0.8314688801765442 -0.5555713772773743 -0
vn -0.8314688801765442 -0.5555713772773743 -0
vn -0.8314688801765442 -0.5555713772773743 -0
vn -0.8314696550369263 -0.5555700659751892 -0
vn -0.8314696550369263 -0.5555700659751892 -0
vn -0.8314696550369263 -0.5555700659751892 -0
vn 0.5555671453475952 -0.8314718008041382 -0
vn 0.5555671453475952 -0.8314718008041382 -0
vn 0.5555671453475952 -0.8314718008041382 -0
vn 0.00000014646816737240442 -0 -1
vn 0.00000014646816737240442 -0 -1
vn 0.00000014646816737240442 -0 -1
vn 0.831471860408783 -0.5555668473243713 -0
vn 0.831471860408783 -0.5555668473243713 -0
vn 0.831471860408783 -0.5555668473243713 -0
vn 0 -0 -1
vn 0 -0 -1
vn 0 -0 -1
vn -0.00000014646816737240442 -0 -1
vn -0.00000014646816737240442 -0 -1
vn -0.00000014646816737240442 -0 -1
vn -0.0000003853482155591337 -0 -1
vn -0.0000003853482155591337 -0 -1
vn -0.0000003853482155591337 -0 -1
vn -0.9807862043380737 -0.19508545100688934 -0
vn -0.9807862043380737 -0.19508545100688934 -0
vn -0.9807862043380737 -0.19508545100688934 -0
vn 0.831471860408783 -0.5555667877197266 -0
vn 0.831471860408783 -0.5555667877197266 -0
vn 0.831471860408783 -0.5555667877197266 -0
vn -0.9807858467102051 -0.19508729875087738 -0
vn -0.9807858467102051 -0.19508729875087738 -0
vn -0.9807858467102051 -0.19508729875087738 -0
vn 0 -0 -1
vn 0 -0 -1
vn 0 -0 -1
vn 0.9807849526405334 -0.19509179890155792 -0
vn 0.9807849526405334 -0.19509179890155792 -0
vn 0.9807849526405334 -0.19509179890155792 -0
vn 0.00000019267952211521333 -0 -1
vn 0.00000019267952211521333 -0 -1
vn 0.00000019267952211521333 -0 -1
vn -0.9807854294776917 0.19508954882621765 -0
vn -0.9807854294776917 0.19508954882621765 -0
vn -0.9807854294776917 0.19508954882621765 -0
vn 0.9807851910591125 -0.1950908601284027 -0
vn 0.9807851910591125 -0.1950908601284027 -0
vn 0.9807851910591125 -0.1950908601284027 -0
vn -0.9807858467102051 0.19508780539035797 -0
vn -0.9807858467102051 0.19508780539035797 -0
vn -0.9807858467102051 0.19508780539035797 -0
vn -0.000000022450898029546806 -0 -1
vn -0.000000022450898029546806 -0 -1
vn -0.000000022450898029546806 -0 -1
vn 0.000000022450898029546806 -0 -1
vn 0.000000022450898029546806 -0 -1
vn 0.000000022450898029546806 -0 -1
vn 0.9807847142219543 0.19509318470954895 -0
vn 0.9807847142219543 0.19509318470954895 -0
vn 0.9807847142219543 0.19509318470954895 -0
vn -0.00000019267748996298906 -0 -1
vn -0.00000019267748996298906 -0 -1
vn -0.00000019267748996298906 -0 -1
vn -0.8314697742462158 0.5555700659751892 -0
vn -0.8314697742462158 0.5555700659751892 -0
vn -0.8314697742462158 0.5555700659751892 -0
vn 0.9807845950126648 0.1950940489768982 -0
vn 0.9807845950126648 0.1950940489768982 -0
vn 0.9807845950126648 0.1950940489768982 -0
vn -0.8314687609672546 0.5555713772773743 -0
vn -0.8314687609672546 0.5555713772773743 -0
vn -0.8314687609672546 0.5555713772773743 -0
vn 0.0000002706377415506722 -0 -0.9999999403953552
vn 0.0000002706377415506722 -0 -0.9999999403953552
vn 0.0000002706377415506722 -0 -0.9999999403953552
vn 0.831471860408783 0.5555668473243713 -0
vn 0.831471860408783 0.5555668473243713 -0
vn 0.831471860408783 0.5555668473243713 -0
vn 0 -0 -1
vn 0 -0 -1
vn 0 -0 -1
vn -0.555566668510437 0.8314719796180725 -0
vn -0.555566668510437 0.8314719796180725 -0
vn -0.555566668510437 0.8314719796180725 -0
vn -0.5555665493011475 0.8314719796180725 -0
vn -0.5555665493011475 0.8314719796180725 -0
vn -0.5555665493011475 0.8314719796180725 -0
vn 0.831471860408783 0.5555667877197266 -0
vn 0.831471860408783 0.5555667877197266 -0
vn 0.831471860408783 0.5555667877197266 -0
vn 0.5555670261383057 0.8314718008041382 -0
vn 0.5555670261383057 0.8314718008041382 -0
vn 0.5555670261383057 0.8314718008041382 -0
vn -0.0000001353182170760192 -0 -1
vn -0.0000001353182170760192 -0 -1
vn -0.0000001353182170760192 -0 -1
vn -0.19509257376194 0.9807848334312439 -0
vn -0.19509257376194 0.9807848334312439 -0
vn -0.19509257376194 0.9807848334312439 -0
vn 0.19509239494800568 0.9807848334312439 -0
vn 0.19509239494800568 0.9807848334312439 -0
vn 0.19509239494800568 0.9807848334312439 -0
vn -0.1950926035642624 0.9807848334312439 -0
vn -0.1950926035642624 0.9807848334312439 -0
vn -0.1950926035642624 0.9807848334312439 -0
vn 0.555566668510437 0.8314719796180725 -0
vn 0.555566668510437 0.8314719796180725 -0
vn 0.555566668510437 0.8314719796180725 -0
vn 0.1950926035642624 0.9807848334312439 -0
vn 0.1950926035642624 0.9807848334312439 -0
vn 0.1950926035642624 0.9807848334312439 -0
vn 0 -0 -1
vn 0 -0 -1
f 3/3/3 2/2/2 1/1/1
f 6/6/6 5/5/5 4/4/4
f 9/9/9 8/8/8 7/7/7
f 12/12/12 11/11/11 10/10/10
f 15/15/15 14/14/14 13/13/13
f 18/18/18 17/17/17 16/16/16
f 21/21/21 20/20/20 19/19/19
f 24/24/24 23/23/23 22/22/22
f 27/27/27 26/26/26 25/25/25
f 30/30/30 29/29/29 28/28/28
f 33/33/33 32/32/32 31/31/31
f 36/36/36 35/35/35 34/34/34
f 39/39/39 38/38/38 37/37/37
f 42/42/42 41/41/41 40/40/40
f 45/45/45 44/44/44 43/43/43
f 48/48/48 47/47/47 46/46/46
f 51/51/51 50/50/50 49/49/49
f 54/54/54 53/53/53 52/52/52
f 57/57/57 56/56/56 55/55/55
f 60/60/60 59/59/59 58/58/58
f 63/63/63 62/62/62 61/61/61
f 66/66/66 65/65/65 64/64/64
f 69/69/69 68/68/68 67/67/67
f 72/72/72 71/71/71 70/70/70
f 75/75/75 74/74/74 73/73/73
f 78/78/78 77/77/77 76/76/76
f 81/81/81 80/80/80 79/79/79
f 84/84/84 83/83/83 82/82/82
f 87/87/87 86/86/86 85/85/85
f 90/90/90 89/89/89 88/88/88
f 93/93/93 92/92/92 91/91/91
f 96/96/96 95/95/95 94/94/94
f 99/99/99 98/98/98 97/97/97
f 101/101/101 55/55/55 100/100/100
f 102/102/102 100/100/100 37/37/37
f 105/105/105 104/104/104 103/103/103
f 108/108/108 107/107/107 106/106/106
f 111/111/111 110/110/110 109/109/109
f 114/114/114 113/113/113 112/112/112
f 117/117/117 116/116/116 115/115/115
f 120/120/120 119/119/119 118/118/118
f 123/123/123 122/122/122 121/121/121
f 126/126/126 125/125/125 124/124/124
f 129/129/129 128/128/128 127/127/127
f 132/132/132 131/131/131 130/130/130
f 100/100/100 134/134/134 133/133/133
