# VPXTOOL table OBJ file
# VPXTOOL OBJ file
# numVerts: 124 numFaces: 138
o LM_L_LMet4_UnderPF
v 186.95025634765625 87.09544372558594 -32.3721809387207
v 177.9249725341797 88.89070892333984 -32.3721809387207
v 186.95025634765625 87.09544372558594 -26.567466735839844
v 177.9249725341797 88.89070892333984 -32.3721809387207
v 168.89968872070313 87.09544372558594 -32.3721809387207
v 177.9249725341797 88.89070892333984 -26.567466735839844
v 177.9249725341797 88.89070892333984 -32.3721809387207
v 177.9249725341797 88.89070892333984 -26.567466735839844
v 186.95025634765625 87.09544372558594 -26.567466735839844
v 194.6015167236328 81.98308563232422 -32.3721809387207
v 186.95025634765625 87.09544372558594 -32.3721809387207
v 194.6015167236328 81.98308563232422 -26.567466735839844
v 168.89968872070313 87.09544372558594 -32.3721809387207
v 168.89968872070313 87.09544372558594 -26.567466735839844
v 177.9249725341797 88.89070892333984 -26.567466735839844
v 186.95025634765625 87.09544372558594 -32.3721809387207
v 186.95025634765625 87.09544372558594 -26.567466735839844
v 194.6015167236328 81.98308563232422 -26.567466735839844
v 168.89968872070313 87.09544372558594 -32.3721809387207
v 161.24842834472656 81.98308563232422 -32.3721809387207
v 168.89968872070313 87.09544372558594 -26.567466735839844
v 161.24842834472656 81.98308563232422 -32.3721809387207
v 161.24842834472656 81.98308563232422 -26.567466735839844
v 168.89968872070313 87.09544372558594 -26.567466735839844
v 194.6015167236328 81.98308563232422 -32.3721809387207
v 194.6015167236328 81.98308563232422 -26.567466735839844
v 199.71392822265625 74.33182525634766 -26.567466735839844
v 199.71392822265625 74.33182525634766 -32.3721809387207
v 194.6015167236328 81.98308563232422 -32.3721809387207
v 199.71392822265625 74.33182525634766 -26.567466735839844
v 201.50914001464844 65.30648040771484 -26.567466735839844
v 186.95025634765625 87.09544372558594 -26.567466735839844
v 177.9249725341797 88.89070892333984 -26.567466735839844
v 161.24842834472656 81.98308563232422 -32.3721809387207
v 156.1360626220703 74.33182525634766 -32.3721809387207
v 161.24842834472656 81.98308563232422 -26.567466735839844
v 194.6015167236328 81.98308563232422 -26.567466735839844
v 154.34080505371094 65.30648040771484 -26.567466735839844
v 168.89968872070313 87.09544372558594 -26.567466735839844
v 156.1360626220703 74.33182525634766 -26.567466735839844
v 161.24842834472656 81.98308563232422 -26.567466735839844
v 201.50914001464844 65.30648040771484 -26.567466735839844
v 199.71392822265625 74.33182525634766 -26.567466735839844
v 194.6015167236328 81.98308563232422 -26.567466735839844
v 199.71392822265625 74.33182525634766 -32.3721809387207
v 199.71392822265625 74.33182525634766 -26.567466735839844
v 201.50914001464844 65.30648040771484 -26.567466735839844
v 201.50914001464844 65.30648040771484 -32.3721809387207
v 199.71392822265625 74.33182525634766 -32.3721809387207
v 201.50914001464844 65.30648040771484 -26.567466735839844
v 156.1360626220703 74.33182525634766 -32.3721809387207
v 154.34080505371094 65.30648040771484 -32.3721809387207
v 156.1360626220703 74.33182525634766 -26.567466735839844
v 161.24842834472656 81.98308563232422 -26.567466735839844
v 156.1360626220703 74.33182525634766 -26.567466735839844
v 154.34080505371094 65.30648040771484 -26.567466735839844
v 154.34080505371094 65.30648040771484 -32.3721809387207
v 154.34080505371094 65.30648040771484 -26.567466735839844
v 156.1360626220703 74.33182525634766 -26.567466735839844
v 201.50914001464844 65.30648040771484 -32.3721809387207
v 201.50914001464844 65.30648040771484 -26.567466735839844
v 199.71392822265625 56.28125 -26.567466735839844
v 177.9249725341797 41.72236633300781 -26.567466735839844
v 201.50914001464844 65.30648040771484 -26.567466735839844
v 177.9249725341797 88.89070892333984 -26.567466735839844
v 199.71392822265625 56.28125 -32.3721809387207
v 201.50914001464844 65.30648040771484 -32.3721809387207
v 199.71392822265625 56.28125 -26.567466735839844
v 177.9249725341797 88.89070892333984 -26.567466735839844
v 154.34080505371094 65.30648040771484 -26.567466735839844
v 177.9249725341797 41.72236633300781 -26.567466735839844
v 154.34080505371094 65.30648040771484 -32.3721809387207
v 156.1360626220703 56.28125 -32.3721809387207
v 154.34080505371094 65.30648040771484 -26.567466735839844
v 194.6015167236328 48.62998962402344 -26.567466735839844
v 199.71392822265625 56.28125 -26.567466735839844
v 201.50914001464844 65.30648040771484 -26.567466735839844
v 156.1360626220703 56.28125 -32.3721809387207
v 156.1360626220703 56.28125 -26.567466735839844
v 154.34080505371094 65.30648040771484 -26.567466735839844
v 199.71392822265625 56.28125 -32.3721809387207
v 199.71392822265625 56.28125 -26.567466735839844
v 194.6015167236328 48.62998962402344 -26.567466735839844
v 194.6015167236328 48.62998962402344 -32.3721809387207
v 199.71392822265625 56.28125 -32.3721809387207
v 194.6015167236328 48.62998962402344 -26.567466735839844
v 156.1360626220703 56.28125 -32.3721809387207
v 161.24842834472656 48.62998962402344 -32.3721809387207
v 156.1360626220703 56.28125 -26.567466735839844
v 201.50914001464844 65.30648040771484 -26.567466735839844
v 186.95025634765625 43.51763153076172 -26.567466735839844
v 194.6015167236328 48.62998962402344 -26.567466735839844
v 177.9249725341797 41.72236633300781 -26.567466735839844
v 156.1360626220703 56.28125 -26.567466735839844
v 201.50914001464844 65.30648040771484 -26.567466735839844
v 177.9249725341797 41.72236633300781 -26.567466735839844
v 186.95025634765625 43.51763153076172 -26.567466735839844
v 161.24842834472656 48.62998962402344 -26.567466735839844
v 186.95025634765625 43.51763153076172 -32.3721809387207
v 194.6015167236328 48.62998962402344 -32.3721809387207
v 186.95025634765625 43.51763153076172 -26.567466735839844
v 194.6015167236328 48.62998962402344 -32.3721809387207
v 194.6015167236328 48.62998962402344 -26.567466735839844
v 186.95025634765625 43.51763153076172 -26.567466735839844
v 161.24842834472656 48.62998962402344 -32.3721809387207
v 168.89968872070313 43.51763153076172 -32.3721809387207
v 161.24842834472656 48.62998962402344 -26.567466735839844
v 161.24842834472656 48.62998962402344 -26.567466735839844
v 177.9249725341797 41.72236633300781 -32.3721809387207
v 186.95025634765625 43.51763153076172 -32.3721809387207
v 177.9249725341797 41.72236633300781 -26.567466735839844
v 168.89968872070313 43.51763153076172 -32.3721809387207
v 177.9249725341797 41.72236633300781 -32.3721809387207
v 168.89968872070313 43.51763153076172 -26.567466735839844
v 168.89968872070313 43.51763153076172 -32.3721809387207
v 168.89968872070313 43.51763153076172 -26.567466735839844
v 161.24842834472656 48.62998962402344 -26.567466735839844
v 186.95025634765625 43.51763153076172 -32.3721809387207
v 186.95025634765625 43.51763153076172 -26.567466735839844
v 177.9249725341797 41.72236633300781 -26.567466735839844
v 177.9249725341797 41.72236633300781 -32.3721809387207
v 177.9249725341797 41.72236633300781 -26.567466735839844
v 168.89968872070313 43.51763153076172 -26.567466735839844
v 168.89968872070313 43.51763153076172 -26.567466735839844
vt 0.21139447391033173 0.36793947219848633
vt 0.21263909339904785 0.36911165714263916
vt 0.21365545690059662 0.36797142028808594
vt 0.21263909339904785 0.36911165714263916
vt 0.21139447391033173 0.37029457092285156
vt 0.21489867568016052 0.36914175748825073
vt 0.21263909339904785 0.36911165714263916
vt 0.21489867568016052 0.36914175748825073
vt 0.21365545690059662 0.36797142028808594
vt 0.20785409212112427 0.3669582009315491
vt 0.21139447391033173 0.36793947219848633
vt 0.21011875569820404 0.36699169874191284
vt 0.21139447391033173 0.37029457092285156
vt 0.21365545690059662 0.3703228235244751
vt 0.21489867568016052 0.36914175748825073
vt 0.21139447391033173 0.36793947219848633
vt 0.21365545690059662 0.36797142028808594
vt 0.21011875569820404 0.36699169874191284
vt 0.21139447391033173 0.37029457092285156
vt 0.20785409212112427 0.3713064193725586
vt 0.21365545690059662 0.3703228235244751
vt 0.20785409212112427 0.3713064193725586
vt 0.21011875569820404 0.3713330626487732
vt 0.21365545690059662 0.3703228235244751
vt 0.20785409212112427 0.3669582009315491
vt 0.21011875569820404 0.36699169874191284
vt 0.20483645796775818 0.36635249853134155
vt 0.20256614685058594 0.3663180470466614
vt 0.20785409212112427 0.3669582009315491
vt 0.20483645796775818 0.36635249853134155
vt 0.19862179458141327 0.36615025997161865
vt 0.21365545690059662 0.36797142028808594
vt 0.21489867568016052 0.36914175748825073
vt 0.20785409212112427 0.3713064193725586
vt 0.20256614685058594 0.37199240922927856
vt 0.21011875569820404 0.3713330626487732
vt 0.21011875569820404 0.36699169874191284
vt 0.19862179458141327 0.3722738027572632
vt 0.21365545690059662 0.3703228235244751
vt 0.20483645796775818 0.37201792001724243
vt 0.21011875569820404 0.3713330626487732
vt 0.19862179458141327 0.36615025997161865
vt 0.20483645796775818 0.36635249853134155
vt 0.21011875569820404 0.36699169874191284
vt 0.20256614685058594 0.3663180470466614
vt 0.20483645796775818 0.36635249853134155
vt 0.19862179458141327 0.36615025997161865
vt 0.19634488224983215 0.3661155104637146
vt 0.20256614685058594 0.3663180470466614
vt 0.19862179458141327 0.36615025997161865
vt 0.20256614685058594 0.37199240922927856
vt 0.19634488224983215 0.3722487688064575
vt 0.20483645796775818 0.37201792001724243
vt 0.21011875569820404 0.3713330626487732
vt 0.20483645796775818 0.37201792001724243
vt 0.19862179458141327 0.3722738027572632
vt 0.19634488224983215 0.3722487688064575
vt 0.19862179458141327 0.3722738027572632
vt 0.20483645796775818 0.37201792001724243
vt 0.19634488224983215 0.3661155104637146
vt 0.19862179458141327 0.36615025997161865
vt 0.19242459535598755 0.36641407012939453
vt 0.18246468901634216 0.3692818284034729
vt 0.19862179458141327 0.36615025997161865
vt 0.21489867568016052 0.36914175748825073
vt 0.19014117121696472 0.3663797974586487
vt 0.19634488224983215 0.3661155104637146
vt 0.19242459535598755 0.36641407012939453
vt 0.21489867568016052 0.36914175748825073
vt 0.19862179458141327 0.3722738027572632
vt 0.18246468901634216 0.3692818284034729
vt 0.19634488224983215 0.3722487688064575
vt 0.19014117121696472 0.37203818559646606
vt 0.19862179458141327 0.3722738027572632
vt 0.187184676527977 0.36710208654403687
vt 0.19242459535598755 0.36641407012939453
vt 0.19862179458141327 0.36615025997161865
vt 0.19014117121696472 0.37203818559646606
vt 0.19242459535598755 0.3720635175704956
vt 0.19862179458141327 0.3722738027572632
vt 0.19014117121696472 0.3663797974586487
vt 0.19242459535598755 0.36641407012939453
vt 0.187184676527977 0.36710208654403687
vt 0.18489572405815125 0.36706894636154175
vt 0.19014117121696472 0.3663797974586487
vt 0.187184676527977 0.36710208654403687
vt 0.19014117121696472 0.37203818559646606
vt 0.18489572405815125 0.37139445543289185
vt 0.19242459535598755 0.3720635175704956
vt 0.19862179458141327 0.36615025997161865
vt 0.18369033932685852 0.3681088089942932
vt 0.187184676527977 0.36710208654403687
vt 0.18246468901634216 0.3692818284034729
vt 0.19242459535598755 0.3720635175704956
vt 0.19862179458141327 0.36615025997161865
vt 0.18246468901634216 0.3692818284034729
vt 0.18369033932685852 0.3681088089942932
vt 0.187184676527977 0.37142080068588257
vt 0.18139782547950745 0.36807727813720703
vt 0.18489572405815125 0.36706894636154175
vt 0.18369033932685852 0.3681088089942932
vt 0.18489572405815125 0.36706894636154175
vt 0.187184676527977 0.36710208654403687
vt 0.18369033932685852 0.3681088089942932
vt 0.18489572405815125 0.37139445543289185
vt 0.18139782547950745 0.3704163432121277
vt 0.187184676527977 0.37142080068588257
vt 0.187184676527977 0.37142080068588257
vt 0.18017075955867767 0.36925214529037476
vt 0.18139782547950745 0.36807727813720703
vt 0.18246468901634216 0.3692818284034729
vt 0.18139782547950745 0.3704163432121277
vt 0.18017075955867767 0.36925214529037476
vt 0.18369033932685852 0.37044423818588257
vt 0.18139782547950745 0.3704163432121277
vt 0.18369033932685852 0.37044423818588257
vt 0.187184676527977 0.37142080068588257
vt 0.18139782547950745 0.36807727813720703
vt 0.18369033932685852 0.3681088089942932
vt 0.18246468901634216 0.3692818284034729
vt 0.18017075955867767 0.36925214529037476
vt 0.18246468901634216 0.3692818284034729
vt 0.18369033932685852 0.37044423818588257
vt 0.18369033932685852 0.37044423818588257
vn -0.19509312510490417 -0.9807847738265991 -0
vn -0.19509312510490417 -0.9807847738265991 -0
vn -0.19509312510490417 -0.9807847738265991 -0
vn 0.19509238004684448 -0.9807848334312439 -0
vn 0.19509238004684448 -0.9807848334312439 -0
vn 0.19509238004684448 -0.9807848334312439 -0
vn -0.19509215652942657 -0.9807848334312439 -0
vn -0.19509215652942657 -0.9807848334312439 -0
vn -0.19509215652942657 -0.9807848334312439 -0
vn -0.5555676221847534 -0.83147132396698 -0
vn -0.5555676221847534 -0.83147132396698 -0
vn -0.5555676221847534 -0.83147132396698 -0
vn 0.19509288668632507 -0.9807847738265991 -0
vn 0.19509288668632507 -0.9807847738265991 -0
vn 0.19509288668632507 -0.9807847738265991 -0
vn -0.5555658936500549 -0.8314725756645203 -0
vn -0.5555658936500549 -0.8314725756645203 -0
vn -0.5555658936500549 -0.8314725756645203 -0
vn 0.5555658936500549 -0.8314725756645203 -0
vn 0.5555658936500549 -0.8314725756645203 -0
vn 0.5555658936500549 -0.8314725756645203 -0
vn 0.5555676221847534 -0.83147132396698 -0
vn 0.5555676221847534 -0.83147132396698 -0
vn 0.5555676221847534 -0.83147132396698 -0
vn -0.8314680457115173 -0.5555725693702698 -0
vn -0.8314680457115173 -0.5555725693702698 -0
vn -0.8314680457115173 -0.5555725693702698 -0
vn -0.8314697742462158 -0.5555700063705444 -0
vn -0.8314697742462158 -0.5555700063705444 -0
vn -0.8314697742462158 -0.5555700063705444 -0
vn 0 -0 -1
vn 0 -0 -1
vn 0 -0 -1
vn 0.8314715623855591 -0.5555674433708191 -0
vn 0.8314715623855591 -0.5555674433708191 -0
vn 0.8314715623855591 -0.5555674433708191 -0
vn 0 -0 -1
vn 0 -0 -1
vn 0 -0 -1
vn 0.8314715623855591 -0.5555674433708191 -0
vn 0 -0 -1
vn -0.0000015413925211760215 -0 -1
vn -0.0000015413925211760215 -0 -1
vn -0.0000015413925211760215 -0 -1
vn -0.9807858467102051 -0.19508738815784454 -0
vn -0.9807858467102051 -0.19508738815784454 -0
vn -0.9807858467102051 -0.19508738815784454 -0
vn -0.9807865619659424 -0.19508342444896698 -0
vn -0.9807865619659424 -0.19508342444896698 -0
vn -0.9807865619659424 -0.19508342444896698 -0
vn 0.9807851910591125 -0.1950906366109848 -0
vn 0.9807851910591125 -0.1950906366109848 -0
vn 0.9807851910591125 -0.1950906366109848 -0
vn 0.000001541437654850597 -0 -1
vn 0.000001541437654850597 -0 -1
vn 0.000001541437654850597 -0 -1
vn 0.9807851910591125 -0.19509100914001465 -0
vn 0.9807851910591125 -0.19509100914001465 -0
vn 0.9807851910591125 -0.19509100914001465 -0
vn -0.9807862043380737 0.19508595764636993 -0
vn -0.9807862043380737 0.19508595764636993 -0
vn -0.9807862043380737 0.19508595764636993 -0
vn 0.00000008980360632904194 -0 -1
vn 0.00000008980360632904194 -0 -1
vn 0.00000008980360632904194 -0 -1
vn -0.9807854294776917 0.19508937001228333 -0
vn -0.9807854294776917 0.19508937001228333 -0
vn -0.9807854294776917 0.19508937001228333 -0
vn -0.00000008980360632904194 -0 -1
vn -0.00000008980360632904194 -0 -1
vn -0.00000008980360632904194 -0 -1
vn 0.9807848334312439 0.19509299099445343 -0
vn 0.9807848334312439 0.19509299099445343 -0
vn 0.9807848334312439 0.19509299099445343 -0
vn -0.0000015414186691486975 -0 -1
vn -0.0000015414186691486975 -0 -1
vn -0.0000015414186691486975 -0 -1
vn 0.9807847142219543 0.19509314000606537 -0
vn 0.9807847142219543 0.19509314000606537 -0
vn 0.9807847142219543 0.19509314000606537 -0
vn -0.8314697742462158 0.5555700063705444 -0
vn -0.8314697742462158 0.5555700063705444 -0
vn -0.8314697742462158 0.5555700063705444 -0
vn -0.8314680457115173 0.5555725693702698 -0
vn -0.8314680457115173 0.5555725693702698 -0
vn -0.8314680457115173 0.5555725693702698 -0
vn 0.8314715623855591 0.5555674433708191 -0
vn 0.8314715623855591 0.5555674433708191 -0
vn 0.8314715623855591 0.5555674433708191 -0
vn 0.0000010825509662026889 -0 -0.9999999403953552
vn 0.0000010825509662026889 -0 -0.9999999403953552
vn 0.0000010825509662026889 -0 -0.9999999403953552
vn 0 -0 -1
vn 0 -0 -1
vn -0.0000005858759095644928 -0 -0.9999999403953552
vn -0.0000005858759095644928 -0 -0.9999999403953552
vn -0.0000005858759095644928 -0 -0.9999999403953552
vn 0.8314715623855591 0.5555674433708191 -0
vn -0.5555658936500549 0.8314725756645203 -0
vn -0.5555658936500549 0.8314725756645203 -0
vn -0.5555658936500549 0.8314725756645203 -0
vn -0.5555676221847534 0.83147132396698 -0
vn -0.5555676221847534 0.83147132396698 -0
vn -0.5555676221847534 0.83147132396698 -0
vn 0.5555676221847534 0.83147132396698 -0
vn 0.5555676221847534 0.83147132396698 -0
vn 0.5555676221847534 0.83147132396698 -0
vn 0 -0 -1
vn -0.19509238004684448 0.9807848334312439 -0
vn -0.19509238004684448 0.9807848334312439 -0
vn -0.19509238004684448 0.9807848334312439 -0
vn 0.19509312510490417 0.9807847738265991 -0
vn 0.19509312510490417 0.9807847738265991 -0
vn 0.19509312510490417 0.9807847738265991 -0
vn 0.5555658936500549 0.8314725756645203 -0
vn 0.5555658936500549 0.8314725756645203 -0
vn 0.5555658936500549 0.8314725756645203 -0
vn -0.19509288668632507 0.9807847738265991 -0
vn -0.19509288668632507 0.9807847738265991 -0
vn -0.19509288668632507 0.9807847738265991 -0
vn 0.19509215652942657 0.9807848334312439 -0
vn 0.19509215652942657 0.9807848334312439 -0
vn 0.19509215652942657 0.9807848334312439 -0
vn 0 -0 -1
f 3/3/3 2/2/2 1/1/1
f 6/6/6 5/5/5 4/4/4
f 9/9/9 8/8/8 7/7/7
f 12/12/12 11/11/11 10/10/10
f 15/15/15 14/14/14 13/13/13
f 18/18/18 17/17/17 16/16/16
f 21/21/21 20/20/20 19/19/19
f 24/24/24 23/23/23 22/22/22
f 27/27/27 26/26/26 25/25/25
f 30/30/30 29/29/29 28/28/28
f 33/33/33 32/32/32 31/31/31
f 36/36/36 35/35/35 34/34/34
f 32/32/32 37/37/37 31/31/31
f 39/39/39 33/33/33 38/38/38
f 36/36/36 40/40/40 35/35/35
f 41/41/41 39/39/39 38/38/38
f 44/44/44 43/43/43 42/42/42
f 47/47/47 46/46/46 45/45/45
f 50/50/50 49/49/49 48/48/48
f 53/53/53 52/52/52 51/51/51
f 56/56/56 55/55/55 54/54/54
f 59/59/59 58/58/58 57/57/57
f 62/62/62 61/61/61 60/60/60
f 65/65/65 64/64/64 63/63/63
f 68/68/68 67/67/67 66/66/66
f 71/71/71 70/70/70 69/69/69
f 74/74/74 73/73/73 72/72/72
f 77/77/77 76/76/76 75/75/75
f 80/80/80 79/79/79 78/78/78
f 83/83/83 82/82/82 81/81/81
f 86/86/86 85/85/85 84/84/84
f 89/89/89 88/88/88 87/87/87
f 92/92/92 91/91/91 90/90/90
f 94/94/94 38/38/38 93/93/93
f 97/97/97 96/96/96 95/95/95
f 89/89/89 98/98/98 88/88/88
f 101/101/101 100/100/100 99/99/99
f 104/104/104 103/103/103 102/102/102
f 107/107/107 106/106/106 105/105/105
f 108/108/108 94/94/94 93/93/93
f 111/111/111 110/110/110 109/109/109
f 114/114/114 113/113/113 112/112/112
f 117/117/117 116/116/116 115/115/115
f 120/120/120 119/119/119 118/118/118
f 123/123/123 122/122/122 121/121/121
f 93/93/93 124/124/124 108/108/108
