# VPXTOOL table OBJ file
# VPXTOOL OBJ file
# numVerts: 103 numFaces: 138
o LM_L_LW9_UnderPF
v -2.8842685222625732 211.18287658691406 -32.29457092285156
v -13.502232551574707 213.2948455810547 -32.29457092285156
v -2.8842685222625732 211.18287658691406 -25.465497970581055
v -13.502232551574707 213.2948455810547 -32.29457092285156
v -24.120223999023438 211.18287658691406 -32.29457092285156
v -13.502232551574707 213.2948455810547 -25.465497970581055
v -13.502232551574707 213.2948455810547 -32.29457092285156
v -13.502232551574707 213.2948455810547 -25.465497970581055
v -2.8842685222625732 211.18287658691406 -25.465497970581055
v 6.117219924926758 205.16818237304688 -32.29457092285156
v -2.8842685222625732 211.18287658691406 -32.29457092285156
v 6.117219924926758 205.16818237304688 -25.465497970581055
v -2.8842685222625732 211.18287658691406 -25.465497970581055
v -24.120223999023438 211.18287658691406 -32.29457092285156
v -24.120223999023438 211.18287658691406 -25.465497970581055
v -13.502232551574707 213.2948455810547 -25.465497970581055
v 6.117219924926758 205.16818237304688 -25.465497970581055
v -2.8842685222625732 211.18287658691406 -25.465497970581055
v -13.502232551574707 213.2948455810547 -25.465497970581055
v -24.120223999023438 211.18287658691406 -32.29457092285156
v -33.12168502807617 205.16818237304688 -32.29457092285156
v -24.120223999023438 211.18287658691406 -25.465497970581055
v 6.117219924926758 205.16818237304688 -32.29457092285156
v 6.117219924926758 205.16818237304688 -25.465497970581055
v 12.131794929504395 196.1667022705078 -25.465497970581055
v 12.131794929504395 196.1667022705078 -32.29457092285156
v 6.117219924926758 205.16818237304688 -32.29457092285156
v 12.131794929504395 196.1667022705078 -25.465497970581055
v -24.120223999023438 211.18287658691406 -25.465497970581055
v -33.12168502807617 205.16818237304688 -25.465497970581055
v -33.12168502807617 205.16818237304688 -32.29457092285156
v -33.12168502807617 205.16818237304688 -25.465497970581055
v -24.120223999023438 211.18287658691406 -25.465497970581055
v -33.12168502807617 205.16818237304688 -32.29457092285156
v -39.136287689208984 196.1667022705078 -32.29457092285156
v -33.12168502807617 205.16818237304688 -25.465497970581055
v 14.243853569030762 185.54873657226563 -25.465497970581055
v 12.131794929504395 196.1667022705078 -25.465497970581055
v 6.117219924926758 205.16818237304688 -25.465497970581055
v 12.131794929504395 196.1667022705078 -32.29457092285156
v 12.131794929504395 196.1667022705078 -25.465497970581055
v 14.243853569030762 185.54873657226563 -25.465497970581055
v 14.243853569030762 185.54873657226563 -32.29457092285156
v -39.136287689208984 196.1667022705078 -25.465497970581055
v -13.502232551574707 157.802734375 -25.465497970581055
v 6.117219924926758 205.16818237304688 -25.465497970581055
v -13.502232551574707 213.2948455810547 -25.465497970581055
v -39.136287689208984 196.1667022705078 -32.29457092285156
v -41.248348236083984 185.54873657226563 -32.29457092285156
v -39.136287689208984 196.1667022705078 -25.465497970581055
v -33.12168502807617 205.16818237304688 -25.465497970581055
v -33.12168502807617 205.16818237304688 -25.465497970581055
v -39.136287689208984 196.1667022705078 -25.465497970581055
v -41.248348236083984 185.54873657226563 -25.465497970581055
v 14.243853569030762 185.54873657226563 -32.29457092285156
v 14.243853569030762 185.54873657226563 -25.465497970581055
v 12.131794929504395 174.93077087402344 -25.465497970581055
v 12.131794929504395 174.93077087402344 -32.29457092285156
v -41.248348236083984 185.54873657226563 -25.465497970581055
v 14.243853569030762 185.54873657226563 -25.465497970581055
v -41.248348236083984 185.54873657226563 -32.29457092285156
v -39.136287689208984 174.93077087402344 -32.29457092285156
v -41.248348236083984 185.54873657226563 -25.465497970581055
v -41.248348236083984 185.54873657226563 -25.465497970581055
v 12.131794929504395 174.93077087402344 -32.29457092285156
v 12.131794929504395 174.93077087402344 -25.465497970581055
v 6.117219924926758 165.9292755126953 -25.465497970581055
v 6.117219924926758 165.9292755126953 -32.29457092285156
v 12.131794929504395 174.93077087402344 -32.29457092285156
v 6.117219924926758 165.9292755126953 -25.465497970581055
v 12.131794929504395 174.93077087402344 -25.465497970581055
v -39.136287689208984 174.93077087402344 -25.465497970581055
v -39.136287689208984 174.93077087402344 -32.29457092285156
v -33.12168502807617 165.9292755126953 -32.29457092285156
v -39.136287689208984 174.93077087402344 -25.465497970581055
v 6.117219924926758 165.9292755126953 -32.29457092285156
v 6.117219924926758 165.9292755126953 -25.465497970581055
v -2.8842685222625732 159.91470336914063 -25.465497970581055
v -2.8842685222625732 159.91470336914063 -32.29457092285156
v -39.136287689208984 174.93077087402344 -25.465497970581055
v 6.117219924926758 165.9292755126953 -25.465497970581055
v -33.12168502807617 165.9292755126953 -25.465497970581055
v -33.12168502807617 165.9292755126953 -32.29457092285156
v -24.120223999023438 159.91470336914063 -32.29457092285156
v -33.12168502807617 165.9292755126953 -25.465497970581055
v -13.502232551574707 157.802734375 -32.29457092285156
v -2.8842685222625732 159.91470336914063 -32.29457092285156
v -13.502232551574707 157.802734375 -25.465497970581055
v -33.12168502807617 165.9292755126953 -25.465497970581055
v -2.8842685222625732 159.91470336914063 -25.465497970581055
v -2.8842685222625732 159.91470336914063 -32.29457092285156
v -2.8842685222625732 159.91470336914063 -25.465497970581055
v -13.502232551574707 157.802734375 -25.465497970581055
v -24.120223999023438 159.91470336914063 -32.29457092285156
v -13.502232551574707 157.802734375 -32.29457092285156
v -24.120223999023438 159.91470336914063 -25.465497970581055
v -24.120223999023438 159.91470336914063 -32.29457092285156
v -24.120223999023438 159.91470336914063 -25.465497970581055
v -33.12168502807617 165.9292755126953 -25.465497970581055
v -13.502232551574707 157.802734375 -32.29457092285156
v -13.502232551574707 157.802734375 -25.465497970581055
v -24.120223999023438 159.91470336914063 -25.465497970581055
v -24.120223999023438 159.91470336914063 -25.465497970581055
vt 0.0833074301481247 0.7447013854980469
vt 0.08424805849790573 0.7475308179855347
vt 0.08487942069768906 0.7446838617324829
vt 0.08424805849790573 0.7475308179855347
vt 0.0833074301481247 0.7503520250320435
vt 0.08581878244876862 0.7475079298019409
vt 0.08424805849790573 0.7475308179855347
vt 0.08581878244876862 0.7475079298019409
vt 0.08487942069768906 0.7446838617324829
vt 0.0806322917342186 0.7422996163368225
vt 0.0833074301481247 0.7447013854980469
vt 0.08220783621072769 0.7422866225242615
vt 0.08487942069768906 0.7446838617324829
vt 0.0833074301481247 0.7503520250320435
vt 0.08487942069768906 0.7503237724304199
vt 0.08581878244876862 0.7475079298019409
vt 0.08220783621072769 0.7422866225242615
vt 0.08487942069768906 0.7446838617324829
vt 0.08581878244876862 0.7475079298019409
vt 0.0833074301481247 0.7503520250320435
vt 0.0806322917342186 0.7527305483818054
vt 0.08487942069768906 0.7503237724304199
vt 0.0806322917342186 0.7422996163368225
vt 0.08220783621072769 0.7422866225242615
vt 0.07821912318468094 0.7406832575798035
vt 0.07663828879594803 0.740693211555481
vt 0.0806322917342186 0.7422996163368225
vt 0.07821912318468094 0.7406832575798035
vt 0.08487942069768906 0.7503237724304199
vt 0.08220783621072769 0.7526978254318237
vt 0.0806322917342186 0.7527305483818054
vt 0.08220783621072769 0.7526978254318237
vt 0.08487942069768906 0.7503237724304199
vt 0.0806322917342186 0.7527305483818054
vt 0.07663828879594803 0.7543022036552429
vt 0.08220783621072769 0.7526978254318237
vt 0.07352883368730545 0.740115761756897
vt 0.07821912318468094 0.7406832575798035
vt 0.08220783621072769 0.7422866225242615
vt 0.07663828879594803 0.740693211555481
vt 0.07821912318468094 0.7406832575798035
vt 0.07352883368730545 0.740115761756897
vt 0.07194184511899948 0.7401245832443237
vt 0.07821912318468094 0.7542665004730225
vt 0.06134728342294693 0.7474015355110168
vt 0.08220783621072769 0.7422866225242615
vt 0.08581878244876862 0.7475079298019409
vt 0.07663828879594803 0.7543022036552429
vt 0.07194184511899948 0.7548298835754395
vt 0.07821912318468094 0.7542665004730225
vt 0.08220783621072769 0.7526978254318237
vt 0.08220783621072769 0.7526978254318237
vt 0.07821912318468094 0.7542665004730225
vt 0.07352883368730545 0.7547932863235474
vt 0.07194184511899948 0.7401245832443237
vt 0.07352883368730545 0.740115761756897
vt 0.0688544362783432 0.7406654953956604
vt 0.06726129353046417 0.7406753301620483
vt 0.07352883368730545 0.7547932863235474
vt 0.07352883368730545 0.740115761756897
vt 0.07194184511899948 0.7548298835754395
vt 0.06726129353046417 0.7542382478713989
vt 0.07352883368730545 0.7547932863235474
vt 0.07352883368730545 0.7547932863235474
vt 0.06726129353046417 0.7406753301620483
vt 0.0688544362783432 0.7406654953956604
vt 0.06490404903888702 0.7422438859939575
vt 0.06330571323633194 0.742256760597229
vt 0.06726129353046417 0.7406753301620483
vt 0.06490404903888702 0.7422438859939575
vt 0.0688544362783432 0.7406654953956604
vt 0.0688544362783432 0.7542028427124023
vt 0.06726129353046417 0.7542382478713989
vt 0.06330571323633194 0.7526224255561829
vt 0.0688544362783432 0.7542028427124023
vt 0.06330571323633194 0.742256760597229
vt 0.06490404903888702 0.7422438859939575
vt 0.06227077916264534 0.7446085810661316
vt 0.060669027268886566 0.7446258068084717
vt 0.0688544362783432 0.7542028427124023
vt 0.06490404903888702 0.7422438859939575
vt 0.06490404903888702 0.7525900602340698
vt 0.06330571323633194 0.7526224255561829
vt 0.060669027268886566 0.7502303123474121
vt 0.06490404903888702 0.7525900602340698
vt 0.05974433198571205 0.7474240064620972
vt 0.060669027268886566 0.7446258068084717
vt 0.06134728342294693 0.7474015355110168
vt 0.06490404903888702 0.7525900602340698
vt 0.06227077916264534 0.7446085810661316
vt 0.060669027268886566 0.7446258068084717
vt 0.06227077916264534 0.7446085810661316
vt 0.06134728342294693 0.7474015355110168
vt 0.060669027268886566 0.7502303123474121
vt 0.05974433198571205 0.7474240064620972
vt 0.06227077916264534 0.7502025365829468
vt 0.060669027268886566 0.7502303123474121
vt 0.06227077916264534 0.7502025365829468
vt 0.06490404903888702 0.7525900602340698
vt 0.05974433198571205 0.7474240064620972
vt 0.06134728342294693 0.7474015355110168
vt 0.06227077916264534 0.7502025365829468
vt 0.06227077916264534 0.7502025365829468
vn -0.1950840950012207 -0.9807865023612976 -0
vn -0.1950840950012207 -0.9807865023612976 -0
vn -0.1950840950012207 -0.9807865023612976 -0
vn 0.1950836181640625 -0.9807866215705872 -0
vn 0.1950836181640625 -0.9807866215705872 -0
vn 0.1950836181640625 -0.9807866215705872 -0
vn -0.19508430361747742 -0.9807865023612976 -0
vn -0.19508430361747742 -0.9807865023612976 -0
vn -0.19508430361747742 -0.9807865023612976 -0
vn -0.5555755496025085 -0.8314661383628845 -0
vn -0.5555755496025085 -0.8314661383628845 -0
vn -0.5555755496025085 -0.8314661383628845 -0
vn -0.5555755496025085 -0.8314661383628845 -0
vn 0.1950838267803192 -0.9807866215705872 -0
vn 0.1950838267803192 -0.9807866215705872 -0
vn 0.1950838267803192 -0.9807866215705872 -0
vn 0 -0 -0.9999999403953552
vn 0 -0 -0.9999999403953552
vn 0 -0 -0.9999999403953552
vn 0.5555766224861145 -0.8314653635025024 -0
vn 0.5555766224861145 -0.8314653635025024 -0
vn 0.5555766224861145 -0.8314653635025024 -0
vn -0.8314708471298218 -0.5555684566497803 -0
vn -0.8314708471298218 -0.5555684566497803 -0
vn -0.8314708471298218 -0.5555684566497803 -0
vn -0.8314708471298218 -0.555568516254425 -0
vn -0.8314708471298218 -0.555568516254425 -0
vn -0.8314708471298218 -0.555568516254425 -0
vn 0 -0 -0.9999999403953552
vn 0 -0 -0.9999999403953552
vn 0.5555769205093384 -0.8314651846885681 -0
vn 0.5555769205093384 -0.8314651846885681 -0
vn 0.5555769205093384 -0.8314651846885681 -0
vn 0.8314695954322815 -0.5555703639984131 -0
vn 0.8314695954322815 -0.5555703639984131 -0
vn 0.8314695954322815 -0.5555703639984131 -0
vn 0.000001113692405851907 -0 -1
vn 0.000001113692405851907 -0 -1
vn 0.000001113692405851907 -0 -1
vn -0.9807850122451782 -0.19509157538414001 -0
vn -0.9807850122451782 -0.19509157538414001 -0
vn -0.9807850122451782 -0.19509157538414001 -0
vn -0.9807850122451782 -0.19509157538414001 -0
vn 0.8314695954322815 -0.5555703639984131 -0
vn 0 -0 -1
vn 0 -0 -1
vn 0 -0 -1
vn 0.980785071849823 -0.19509142637252808 -0
vn 0.980785071849823 -0.19509142637252808 -0
vn 0.980785071849823 -0.19509142637252808 -0
vn 0 -0 -1
vn -0.0000011136800139865954 -0 -1
vn -0.0000011136800139865954 -0 -1
vn -0.0000011136800139865954 -0 -1
vn -0.9807850122451782 0.19509157538414001 -0
vn -0.9807850122451782 0.19509157538414001 -0
vn -0.9807850122451782 0.19509157538414001 -0
vn -0.9807850122451782 0.19509157538414001 -0
vn 0.980785071849823 -0.19509142637252808 -0
vn 0 -0 -1
vn 0.980785071849823 0.19509142637252808 -0
vn 0.980785071849823 0.19509142637252808 -0
vn 0.980785071849823 0.19509142637252808 -0
vn 0 -0 -1
vn -0.8314708471298218 0.555568516254425 -0
vn -0.8314708471298218 0.555568516254425 -0
vn -0.8314708471298218 0.555568516254425 -0
vn -0.8314708471298218 0.5555684566497803 -0
vn -0.8314708471298218 0.5555684566497803 -0
vn -0.8314708471298218 0.5555684566497803 -0
vn 0 -0 -1
vn 0.980785071849823 0.19509142637252808 -0
vn 0.8314695954322815 0.5555703639984131 -0
vn 0.8314695954322815 0.5555703639984131 -0
vn 0.8314695954322815 0.5555703639984131 -0
vn -0.555568516254425 0.8314708471298218 -0
vn -0.555568516254425 0.8314708471298218 -0
vn -0.555568516254425 0.8314708471298218 -0
vn -0.555568516254425 0.8314708471298218 -0
vn 0 -0 -1
vn 0 -0 -1
vn 0.8314695954322815 0.5555703639984131 -0
vn 0.5555698871612549 0.8314698338508606 -0
vn 0.5555698871612549 0.8314698338508606 -0
vn 0.5555698871612549 0.8314698338508606 -0
vn -0.19508415460586548 0.9807865619659424 -0
vn -0.19508415460586548 0.9807865619659424 -0
vn -0.19508415460586548 0.9807865619659424 -0
vn 0 -0 -1
vn 0 -0 -1
vn -0.19508427381515503 0.9807865023612976 -0
vn -0.19508427381515503 0.9807865023612976 -0
vn -0.19508427381515503 0.9807865023612976 -0
vn 0.1950836479663849 0.9807866215705872 -0
vn 0.1950836479663849 0.9807866215705872 -0
vn 0.1950836479663849 0.9807866215705872 -0
vn 0.555569589138031 0.8314700722694397 -0
vn 0.555569589138031 0.8314700722694397 -0
vn 0.555569589138031 0.8314700722694397 -0
vn 0.19508379697799683 0.9807866215705872 -0
vn 0.19508379697799683 0.9807866215705872 -0
vn 0.19508379697799683 0.9807866215705872 -0
vn 0 -0 -1
f 3/3/3 2/2/2 1/1/1
f 6/6/6 5/5/5 4/4/4
f 9/9/9 8/8/8 7/7/7
f 12/12/12 11/11/11 10/10/10
f 12/12/12 13/13/13 11/11/11
f 16/16/16 15/15/15 14/14/14
f 19/19/19 18/18/18 17/17/17
f 22/22/22 21/21/21 20/20/20
f 25/25/25 24/24/24 23/23/23
f 28/28/28 27/27/27 26/26/26
f 30/30/30 29/29/29 19/19/19
f 33/33/33 32/32/32 31/31/31
f 36/36/36 35/35/35 34/34/34
f 39/39/39 38/38/38 37/37/37
f 42/42/42 41/41/41 40/40/40
f 42/42/42 40/40/40 43/43/43
f 36/36/36 44/44/44 35/35/35
f 47/47/47 46/46/46 45/45/45
f 50/50/50 49/49/49 48/48/48
f 51/51/51 47/47/47 45/45/45
f 54/54/54 53/53/53 52/52/52
f 57/57/57 56/56/56 55/55/55
f 57/57/57 55/55/55 58/58/58
f 50/50/50 59/59/59 49/49/49
f 46/46/46 60/60/60 45/45/45
f 63/63/63 62/62/62 61/61/61
f 64/64/64 51/51/51 45/45/45
f 67/67/67 66/66/66 65/65/65
f 70/70/70 69/69/69 68/68/68
f 60/60/60 71/71/71 45/45/45
f 63/63/63 72/72/72 62/62/62
f 75/75/75 74/74/74 73/73/73
f 78/78/78 77/77/77 76/76/76
f 78/78/78 76/76/76 79/79/79
f 80/80/80 64/64/64 45/45/45
f 71/71/71 81/81/81 45/45/45
f 75/75/75 82/82/82 74/74/74
f 85/85/85 84/84/84 83/83/83
f 88/88/88 87/87/87 86/86/86
f 89/89/89 80/80/80 45/45/45
f 81/81/81 90/90/90 45/45/45
f 93/93/93 92/92/92 91/91/91
f 96/96/96 95/95/95 94/94/94
f 99/99/99 98/98/98 97/97/97
f 102/102/102 101/101/101 100/100/100
f 45/45/45 103/103/103 89/89/89
