# VPXTOOL table OBJ file
# VPXTOOL OBJ file
# numVerts: 40 numFaces: 72
o LM_L_LC5_Playfield
v -244.15174865722656 563.1470947265625 23.52941131591797
v -233.93276977539063 534.5339965820313 23.52941131591797
v -233.93276977539063 534.5339965820313 -0
v -233.93276977539063 534.5339965820313 -0
v -233.93276977539063 534.5339965820313 23.52941131591797
v -233.8252410888672 532.7052612304688 -0
v -244.15174865722656 563.1470947265625 -0
v -244.15174865722656 563.1470947265625 23.52941131591797
v -233.93276977539063 534.5339965820313 -0
v -41.22587585449219 534.7922973632813 -0
v -233.93276977539063 534.5339965820313 -0
v -233.8252410888672 532.7052612304688 -0
v -233.93276977539063 534.5339965820313 -0
v -41.22587585449219 534.7922973632813 -0
v -36.2238883972168 548.8837280273438 -0
v -106.2380599975586 639.1170654296875 -0
v 151.48098754882813 535.0505981445313 -0
v -244.15174865722656 563.1470947265625 -0
v -176.25222778320313 729.3502807617188 -0
v 151.48098754882813 535.0505981445313 23.52941131591797
v 161.48497009277344 563.2334594726563 23.52941131591797
v 161.48497009277344 563.2334594726563 -0
v 151.48098754882813 535.0505981445313 -0
v 151.48098754882813 535.0505981445313 23.52941131591797
v 161.48497009277344 563.2334594726563 -0
v 161.48497009277344 563.2334594726563 -0
v 161.48497009277344 563.2334594726563 -0
v 161.48497009277344 563.2334594726563 23.52941131591797
v 163.42108154296875 566.1377563476563 -0
v 91.47079467773438 653.466796875 -0
v 163.42108154296875 566.1377563476563 -0
v 21.456623077392578 743.7000122070313 -0
v 92.43888092041016 654.9189453125 -0
v 91.47079467773438 653.466796875 -0
v 163.42108154296875 566.1377563476563 -0
v 21.456623077392578 743.7000122070313 -0
v 92.92289733886719 655.6448974609375 -0
v 92.43888092041016 654.9189453125 -0
v 22.42470932006836 745.1521606445313 -0
v -48.55752182006836 833.9331665039063 -0
vt 0.2989671528339386 0.5567598342895508
vt 0.287465900182724 0.5534723997116089
vt 0.2837808132171631 0.5539388656616211
vt 0.2837808132171631 0.5539388656616211
vt 0.287465900182724 0.5534723997116089
vt 0.28304561972618103 0.5538865923881531
vt 0.29534417390823364 0.5572515726089478
vt 0.2989671528339386 0.5567598342895508
vt 0.2837808132171631 0.5539388656616211
vt 0.283884733915329 0.497993528842926
vt 0.2837808132171631 0.5539388656616211
vt 0.28304561972618103 0.5538865923881531
vt 0.2837808132171631 0.5539388656616211
vt 0.283884733915329 0.497993528842926
vt 0.2895658612251282 0.49656611680984497
vt 0.32660213112831116 0.5174226760864258
vt 0.2839886248111725 0.4420432448387146
vt 0.29534417390823364 0.5572515726089478
vt 0.36481475830078125 0.5389416217803955
vt 0.28767257928848267 0.4423474073410034
vt 0.2990020215511322 0.43923914432525635
vt 0.29537928104400635 0.4389117956161499
vt 0.2839886248111725 0.4420432448387146
vt 0.28767257928848267 0.4423474073410034
vt 0.29537928104400635 0.4389117956161499
vt 0.29537928104400635 0.4389117956161499
vt 0.29537928104400635 0.4389117956161499
vt 0.2990020215511322 0.43923914432525635
vt 0.2965593636035919 0.43832314014434814
vt 0.3325989246368408 0.45891666412353516
vt 0.2965593636035919 0.43832314014434814
vt 0.3710038363933563 0.4795585870742798
vt 0.33320748805999756 0.45862287282943726
vt 0.3325989246368408 0.45891666412353516
vt 0.2965593636035919 0.43832314014434814
vt 0.3710038363933563 0.4795585870742798
vt 0.3335118293762207 0.45847588777542114
vt 0.33320748805999756 0.45862287282943726
vt 0.3716318905353546 0.47926539182662964
vt 0.4106515049934387 0.5008684992790222
vn -0.9417418837547302 -0.33633628487586975 -0
vn -0.9417418837547302 -0.33633628487586975 -0
vn -0.9417418837547302 -0.33633628487586975 -0
vn -0.9982765316963196 -0.05868411436676979 -0
vn -0.9982765316963196 -0.05868411436676979 -0
vn -0.9982765316963196 -0.05868411436676979 -0
vn -0.9417415857315063 -0.33633729815483093 -0
vn -0.9417415857315063 -0.33633729815483093 -0
vn -0.9417415857315063 -0.33633729815483093 -0
vn 0 -0 -0.9999999403953552
vn 0 -0 -0.9999999403953552
vn 0 -0 -0.9999999403953552
vn 0 -0 -1
vn 0 -0 -1
vn 0 -0 -1
vn 0 -0 -1
vn 0 -0 -1
vn 0 -0 -1
vn 0 -0 -1
vn 0.942389965057373 -0.33451634645462036 -0
vn 0.942389965057373 -0.33451634645462036 -0
vn 0.942389965057373 -0.33451634645462036 -0
vn 0.9423896670341492 -0.33451738953590393 -0
vn 0.9423896670341492 -0.33451738953590393 -0
vn 0.9423896670341492 -0.33451738953590393 -0
vn 0 -0 -1
vn 0.8320609927177429 -0.5546842217445374 -0
vn 0.8320609927177429 -0.5546842217445374 -0
vn 0.8320609927177429 -0.5546842217445374 -0
vn 0 -0 -1
vn 0 -0 -1
vn 0 -0 -1
vn 0 -0 -0.9999999403953552
vn 0 -0 -0.9999999403953552
vn 0 -0 -0.9999999403953552
vn 0 -0 -0.9999999403953552
vn 0 -0 -1
vn 0 -0 -1
vn 0 -0 -1
vn 0 -0 -1
f 3/3/3 2/2/2 1/1/1
f 6/6/6 5/5/5 4/4/4
f 9/9/9 8/8/8 7/7/7
f 12/12/12 11/11/11 10/10/10
f 15/15/15 14/14/14 13/13/13
f 13/13/13 16/16/16 15/15/15
f 17/17/17 14/14/14 15/15/15
f 19/19/19 13/13/13 18/18/18
f 22/22/22 21/21/21 20/20/20
f 25/25/25 24/24/24 23/23/23
f 17/17/17 15/15/15 26/26/26
f 29/29/29 28/28/28 27/27/27
f 13/13/13 19/19/19 16/16/16
f 15/15/15 30/30/30 26/26/26
f 31/31/31 26/26/26 30/30/30
f 16/16/16 32/32/32 15/15/15
f 35/35/35 34/34/34 33/33/33
f 15/15/15 32/32/32 30/30/30
f 16/16/16 19/19/19 32/32/32
f 33/33/33 34/34/34 36/36/36
f 38/38/38 32/32/32 37/37/37
f 32/32/32 39/39/39 37/37/37
f 19/19/19 40/40/40 32/32/32
f 39/39/39 32/32/32 40/40/40
