# VPXTOOL table OBJ file
# VPXTOOL OBJ file
# numVerts: 4 numFaces: 6
o LM_D_a03_Parts
v 4.427694797515869 748.8377685546875 149.57485961914063
v -83.9847412109375 748.8377685546875 149.57485961914063
v 4.427694797515869 699.7158813476563 149.57485961914063
v -83.9847412109375 699.7158813476563 149.57485961914063
vt 0.6778168678283691 0.8391690254211426
vt 0.6778168678283691 0.8521645069122314
vt 0.6350011825561523 0.8391768336296082
vt 0.6350011825561523 0.852060079574585
vn 0 -0 -1
vn 0 -0 -1
vn 0 -0 -1
vn 0 -0 -1
f 3/3/3 2/2/2 1/1/1
f 3/3/3 4/4/4 2/2/2
