# VPXTOOL table OBJ file
# VPXTOOL OBJ file
# numVerts: 6 numFaces: 6
o LM_L_LH3_Parts
v -1240.2213134765625 815.3508911132813 -35.311767578125
v -1304.372314453125 743.0023193359375 -35.31175994873047
v -1192.6488037109375 773.1685791015625 -35.311771392822266
v -1304.372314453125 743.0023193359375 -35.31175994873047
v -1256.7996826171875 700.8200073242188 -35.311767578125
v -1192.6488037109375 773.1685791015625 -35.311771392822266
vt 0.09232925623655319 0.19142240285873413
vt 0.09232925623655319 0.22053974866867065
vt 0.06512287259101868 0.19144660234451294
vt 0.09232925623655319 0.22053974866867065
vt 0.06512287259101868 0.22024083137512207
vt 0.06512287259101868 0.19144660234451294
vn -0.00000012999682041936467 0.000000018612063001910428 -1
vn -0.00000012999682041936467 0.000000018612063001910428 -1
vn -0.00000012999682041936467 0.000000018612063001910428 -1
vn -0.00000009749741280984381 0.00000001861202392205996 -1
vn -0.00000009749741280984381 0.00000001861202392205996 -1
vn -0.00000009749741280984381 0.00000001861202392205996 -1
f 3/3/3 2/2/2 1/1/1
f 6/6/6 5/5/5 4/4/4
