# VPXTOOL table OBJ file
# VPXTOOL OBJ file
# numVerts: 15 numFaces: 15
o LM_F_FL7_DiverterPin
v 686.0126953125 37.17202377319336 -25
v 710.8907470703125 39.67435073852539 -25
v 695.3727416992188 57.69389724731445 -25
v 695.3727416992188 57.69389724731445 -25
v 695.3727416992188 57.69389724731445 25
v 686.0126953125 37.17202377319336 -25
v 710.8907470703125 39.67435073852539 -25
v 710.8907470703125 39.67435073852539 25
v 695.3727416992188 57.69389724731445 -25
v 710.8907470703125 39.67435073852539 25
v 695.3727416992188 57.69389724731445 25
v 695.3727416992188 57.69389724731445 -25
v 695.3727416992188 57.69389724731445 25
v 686.0126953125 37.17202377319336 25
v 686.0126953125 37.17202377319336 -25
vt 0.6515065431594849 0.9429707527160645
vt 0.6621046662330627 0.9433883428573608
vt 0.6557421684265137 0.9464040994644165
vt 0.6557421684265137 0.9464040994644165
vt 0.6546506881713867 0.9544020891189575
vt 0.6515065431594849 0.9429707527160645
vt 0.6621046662330627 0.9433883428573608
vt 0.6609416604042053 0.9514020681381226
vt 0.6557421684265137 0.9464040994644165
vt 0.6609416604042053 0.9514020681381226
vt 0.6546506881713867 0.9544020891189575
vt 0.6557421684265137 0.9464040994644165
vt 0.6546506881713867 0.9544020891189575
vt 0.6504673957824707 0.9509866237640381
vt 0.6515065431594849 0.9429707527160645
vn -0.00000012817588412872283 -0 -1
vn -0.00000012817588412872283 -0 -1
vn -0.00000012817588412872283 -0 -1
vn -0.909834086894989 0.4149724245071411 -0
vn -0.909834086894989 0.4149724245071411 -0
vn -0.909834086894989 0.4149724245071411 -0
vn 0.7577416300773621 0.6525547504425049 -0
vn 0.7577416300773621 0.6525547504425049 -0
vn 0.7577416300773621 0.6525547504425049 -0
vn 0.7577442526817322 0.6525516510009766 -0
vn 0.7577442526817322 0.6525516510009766 -0
vn 0.7577442526817322 0.6525516510009766 -0
vn -0.9098318815231323 0.4149770736694336 -0
vn -0.9098318815231323 0.4149770736694336 -0
vn -0.9098318815231323 0.4149770736694336 -0
f 3/3/3 2/2/2 1/1/1
f 6/6/6 5/5/5 4/4/4
f 9/9/9 8/8/8 7/7/7
f 12/12/12 11/11/11 10/10/10
f 15/15/15 14/14/14 13/13/13
