# VPXTOOL table OBJ file
# VPXTOOL OBJ file
# numVerts: 15 numFaces: 15
o LM_L_LB3_DiverterPin
v 686.0126953125 37.17202377319336 -25
v 710.8907470703125 39.67435073852539 -25
v 695.3727416992188 57.69389724731445 -25
v 695.3727416992188 57.69389724731445 -25
v 695.3727416992188 57.69389724731445 25
v 686.0126953125 37.17202377319336 -25
v 710.8907470703125 39.67435073852539 -25
v 710.8907470703125 39.67435073852539 25
v 695.3727416992188 57.69389724731445 -25
v 710.8907470703125 39.67435073852539 25
v 695.3727416992188 57.69389724731445 25
v 695.3727416992188 57.69389724731445 -25
v 695.3727416992188 57.69389724731445 25
v 686.0126953125 37.17202377319336 25
v 686.0126953125 37.17202377319336 -25
vt 0.43691879510879517 0.3535724878311157
vt 0.45408114790916443 0.3537813425064087
vt 0.44377779960632324 0.3552895188331604
vt 0.44377779960632324 0.3552895188331604
vt 0.4420103132724762 0.35928934812545776
vt 0.43691879510879517 0.3535724878311157
vt 0.45408114790916443 0.3537813425064087
vt 0.452197790145874 0.3577890396118164
vt 0.44377779960632324 0.3552895188331604
vt 0.452197790145874 0.3577890396118164
vt 0.4420103132724762 0.35928934812545776
vt 0.44377779960632324 0.3552895188331604
vt 0.4420103132724762 0.35928934812545776
vt 0.43523600697517395 0.3575812578201294
vt 0.43691879510879517 0.3535724878311157
vn -0.00000012817588412872283 -0 -1
vn -0.00000012817588412872283 -0 -1
vn -0.00000012817588412872283 -0 -1
vn -0.909834086894989 0.4149724245071411 -0
vn -0.909834086894989 0.4149724245071411 -0
vn -0.909834086894989 0.4149724245071411 -0
vn 0.7577416300773621 0.6525547504425049 -0
vn 0.7577416300773621 0.6525547504425049 -0
vn 0.7577416300773621 0.6525547504425049 -0
vn 0.7577442526817322 0.6525516510009766 -0
vn 0.7577442526817322 0.6525516510009766 -0
vn 0.7577442526817322 0.6525516510009766 -0
vn -0.9098318815231323 0.4149770736694336 -0
vn -0.9098318815231323 0.4149770736694336 -0
vn -0.9098318815231323 0.4149770736694336 -0
f 3/3/3 2/2/2 1/1/1
f 6/6/6 5/5/5 4/4/4
f 9/9/9 8/8/8 7/7/7
f 12/12/12 11/11/11 10/10/10
f 15/15/15 14/14/14 13/13/13
