# VPXTOOL table OBJ file
# VPXTOOL OBJ file
# numVerts: 66 numFaces: 66
o LM_F_FL1_swR2
v -2135.297607421875 30667.41015625 -38229.90625
v -2571.6748046875 7738.54541015625 -40651.2890625
v 2021.3125 10298.4599609375 -42271.34375
v -2135.297607421875 30667.41015625 -38229.90625
v -1378.4503173828125 36017.80859375 -31906.12890625
v -2571.6748046875 7738.54541015625 -40651.2890625
v 921.0400390625 25583.765625 -40616.0234375
v -2135.297607421875 30667.41015625 -38229.90625
v 2021.3125 10298.4599609375 -42271.34375
v 2410.535400390625 31765.419921875 -34928.21484375
v 921.4923095703125 41306.015625 -35196.10546875
v 921.0400390625 25583.765625 -40616.0234375
v 921.4923095703125 41306.015625 -35196.10546875
v -2135.297607421875 30667.41015625 -38229.90625
v 921.0400390625 25583.765625 -40616.0234375
v -1378.4503173828125 36017.80859375 -31906.12890625
v -2135.297607421875 30667.41015625 -38229.90625
v -2553.24267578125 64436.6171875 -17882.568359375
v -368.1898498535156 55915.89453125 -27271.451171875
v -2135.297607421875 30667.41015625 -38229.90625
v 921.4923095703125 41306.015625 -35196.10546875
v 2410.535400390625 31765.419921875 -34928.21484375
v 2439.48388671875 61828.75390625 -21033.9375
v 921.4923095703125 41306.015625 -35196.10546875
v -368.1898498535156 55915.89453125 -27271.451171875
v -2553.24267578125 64436.6171875 -17882.568359375
v -2135.297607421875 30667.41015625 -38229.90625
v -368.1898498535156 55915.89453125 -27271.451171875
v 921.4923095703125 41306.015625 -35196.10546875
v 2439.48388671875 61828.75390625 -21033.9375
v 467.248291015625 63427.9375 -13491.736328125
v 464.7605285644531 52255.59375 -22685.619140625
v -2553.24267578125 64436.6171875 -17882.568359375
v -368.1898498535156 55915.89453125 -27271.451171875
v 2439.48388671875 61828.75390625 -21033.9375
v 927.5986938476563 67905.015625 -16966.23828125
v 927.5986938476563 67905.015625 -16966.23828125
v -2553.24267578125 64436.6171875 -17882.568359375
v -368.1898498535156 55915.89453125 -27271.451171875
v -218.47137451171875 71979.984375 -1921.68359375
v 467.248291015625 63427.9375 -13491.736328125
v -2553.24267578125 64436.6171875 -17882.568359375
v 175.1615753173828 77888.4375 -3870.429931640625
v 927.5986938476563 67905.015625 -16966.23828125
v 2439.48388671875 61828.75390625 -21033.9375
v 175.1615753173828 77888.4375 -3870.429931640625
v -2553.24267578125 64436.6171875 -17882.568359375
v 927.5986938476563 67905.015625 -16966.23828125
v -218.47137451171875 71979.984375 -1921.68359375
v -2553.24267578125 64436.6171875 -17882.568359375
v -2522.371826171875 81608.4453125 11980.7666015625
v 175.1615753173828 77888.4375 -3870.429931640625
v 2439.48388671875 61828.75390625 -21033.9375
v 2056.48046875 80082.421875 12494.859375
v -2522.371826171875 81608.4453125 11980.7666015625
v -2553.24267578125 64436.6171875 -17882.568359375
v 175.1615753173828 77888.4375 -3870.429931640625
v 2056.48046875 80082.421875 12494.859375
v 72.37146759033203 84807.7109375 10904.2353515625
v 175.1615753173828 77888.4375 -3870.429931640625
v 72.37146759033203 84807.7109375 10904.2353515625
v -2522.371826171875 81608.4453125 11980.7666015625
v 175.1615753173828 77888.4375 -3870.429931640625
v -2522.371826171875 81608.4453125 11980.7666015625
v 72.37146759033203 84807.7109375 10904.2353515625
v 2056.48046875 80082.421875 12494.859375
vt 0.03619915992021561 0.165723979473114
vt 0.034700796008110046 0.16365498304367065
vt 0.03510838374495506 0.1634218692779541
vt 0.03619915992021561 0.165723979473114
vt 0.03650211915373802 0.16668081283569336
vt 0.034700796008110046 0.16365498304367065
vt 0.036124393343925476 0.1649264097213745
vt 0.03619915992021561 0.165723979473114
vt 0.03510838374495506 0.1634218692779541
vt 0.03669597581028938 0.16595810651779175
vt 0.037114210426807404 0.16674953699111938
vt 0.036124393343925476 0.1649264097213745
vt 0.037114210426807404 0.16674953699111938
vt 0.03619915992021561 0.165723979473114
vt 0.036124393343925476 0.1649264097213745
vt 0.03650211915373802 0.16668081283569336
vt 0.03619915992021561 0.165723979473114
vt 0.03821707144379616 0.1705073118209839
vt 0.03788255900144577 0.16875821352005005
vt 0.03619915992021561 0.165723979473114
vt 0.037114210426807404 0.16674953699111938
vt 0.03669597581028938 0.16595810651779175
vt 0.03844175115227699 0.16975098848342896
vt 0.037114210426807404 0.16674953699111938
vt 0.03788255900144577 0.16875821352005005
vt 0.03821707144379616 0.1705073118209839
vt 0.03619915992021561 0.165723979473114
vt 0.03788255900144577 0.16875821352005005
vt 0.037114210426807404 0.16674953699111938
vt 0.03844175115227699 0.16975098848342896
vt 0.038337528705596924 0.17061233520507813
vt 0.03769739717245102 0.16882097721099854
vt 0.03821707144379616 0.1705073118209839
vt 0.03788255900144577 0.16875821352005005
vt 0.03844175115227699 0.16975098848342896
vt 0.03867856785655022 0.17065048217773438
vt 0.03867856785655022 0.17065048217773438
vt 0.03821707144379616 0.1705073118209839
vt 0.03788255900144577 0.16875821352005005
vt 0.03874337300658226 0.1724473237991333
vt 0.038337528705596924 0.17061233520507813
vt 0.03821707144379616 0.1705073118209839
vt 0.03903902322053909 0.17260509729385376
vt 0.03867856785655022 0.17065048217773438
vt 0.03844175115227699 0.16975098848342896
vt 0.03903902322053909 0.17260509729385376
vt 0.03821707144379616 0.1705073118209839
vt 0.03867856785655022 0.17065048217773438
vt 0.03874337300658226 0.1724473237991333
vt 0.03821707144379616 0.1705073118209839
vt 0.038884129375219345 0.17451530694961548
vt 0.03903902322053909 0.17260509729385376
vt 0.03844175115227699 0.16975098848342896
vt 0.03922618180513382 0.17431819438934326
vt 0.038884129375219345 0.17451530694961548
vt 0.03821707144379616 0.1705073118209839
vt 0.03903902322053909 0.17260509729385376
vt 0.03922618180513382 0.17431819438934326
vt 0.03934572637081146 0.17458951473236084
vt 0.03903902322053909 0.17260509729385376
vt 0.03934572637081146 0.17458951473236084
vt 0.038884129375219345 0.17451530694961548
vt 0.03903902322053909 0.17260509729385376
vt 0.038884129375219345 0.17451530694961548
vt 0.03934572637081146 0.17458951473236084
vt 0.03922618180513382 0.17431819438934326
vn -0.5432301759719849 0.30968043208122253 -0.780383825302124
vn -0.605807363986969 -0.04569808021187782 -0.7942978143692017
vn -0.08959032595157623 0.08249279856681824 -0.9925565123558044
vn -0.9662846326828003 -0.012099463492631912 -0.2571921944618225
vn -0.937466025352478 -0.05618969351053238 0.3435119092464447
vn -0.9441421627998352 -0.14138290286064148 0.29766884446144104
vn -0.29730406403541565 0.052659694105386734 -0.9533295035362244
vn -0.7461156249046326 0.18686175346374512 -0.6390570402145386
vn -0.38757508993148804 -0.18496130406856537 -0.9030916690826416
vn 0.9880329370498657 -0.08218447864055634 -0.13052520155906677
vn 0.7834556698799133 0.28740420937538147 -0.5509955883026123
vn 0.7776122689247131 0.17421892285346985 -0.6041250228881836
vn 0.013757959008216858 0.512854814529419 -0.8583651185035706
vn -0.42637431621551514 0.1469579041004181 -0.8925291895866394
vn 0.021782562136650085 0.12988890707492828 -0.9912892580032349
vn -0.8580746054649353 -0.18100494146347046 0.48056769371032715
vn -0.9919412732124329 -0.07230085134506226 -0.1040448397397995
vn -0.9748879075050354 0.18603801727294922 0.12240718305110931
vn -0.6511770486831665 0.5228868722915649 -0.5500526428222656
vn -0.7000143527984619 0.14297491312026978 -0.6996698975563049
vn -0.2693502902984619 0.4815627932548523 -0.8339950442314148
vn 0.9977391362190247 -0.025835474953055382 -0.062042102217674255
vn 0.9990638494491577 0.016656704246997833 -0.03992536664009094
vn 0.799858808517456 0.2812211215496063 -0.53022700548172
vn -0.6922221779823303 0.24371595680713654 -0.6792871356010437
vn -0.9438197612762451 0.30932554602622986 -0.11628447473049164
vn -0.7664194107055664 0.06835900247097015 -0.6386926770210266
vn 0.3679598569869995 0.43641287088394165 -0.8210659623146057
vn 0.45676878094673157 0.26760759949684143 -0.8483799695968628
vn 0.7567819952964783 0.4775301218032837 -0.4463699758052826
vn -0.6276934742927551 -0.5404151678085327 0.5603144764900208
vn -0.6305760741233826 -0.49398767948150635 0.5986233353614807
vn -0.8091040849685669 -0.11824687570333481 0.5756458044052124
vn 0.18449965119361877 0.4557698965072632 -0.8707662224769592
vn 0.6064677238464355 0.5749611854553223 -0.5491964221000671
vn 0.4951004385948181 0.7084726095199585 -0.5029336214065552
vn -0.20260772109031677 0.7808802127838135 -0.5909112095832825
vn -0.682404100894928 0.49018773436546326 -0.5422549247741699
vn -0.2705214023590088 0.468759149312973 -0.8408823013305664
vn -0.5422585606575012 -0.6789097189903259 0.4950123727321625
vn -0.5710908770561218 -0.5979105830192566 0.5624573230743408
vn -0.8968634009361267 -0.34927257895469666 0.27137571573257446
vn 0.749690592288971 0.6052853465080261 -0.2675701081752777
vn 0.7501219511032104 0.6105985641479492 -0.2539418339729309
vn 0.8091216087341309 0.22813716530799866 -0.5415494441986084
vn -0.6381399035453796 0.7201108932495117 -0.27242937684059143
vn -0.7235936522483826 0.4476008117198944 -0.5254196524620056
vn -0.2526446580886841 0.7323883175849915 -0.6322799921035767
vn -0.35354840755462646 -0.745576798915863 0.5649060606956482
vn -0.7971487045288086 -0.5799262523651123 0.16804645955562592
vn -0.19459839165210724 -0.3171519339084625 0.928195059299469
vn 0.8051741719245911 0.5629668235778809 -0.18644873797893524
vn 0.9974120855331421 0.0023343712091445923 -0.07185856997966766
vn 0.7975811958312988 0.19814622402191162 0.5697388648986816
vn -0.7936332821846008 0.3572993874549866 0.4924260079860687
vn -0.9675734043121338 0.14278100430965424 -0.20836347341537476
vn -0.6676154136657715 0.6891399621963501 -0.2817370891571045
vn 0.7459397912025452 -0.012797504663467407 0.6658903956413269
vn 0.5950170159339905 0.7161468267440796 0.36481279134750366
vn 0.9065847396850586 0.3813226521015167 -0.18082357943058014
vn -0.4539982080459595 0.8377151489257813 0.30351096391677856
vn -0.7828312516212463 0.1924263834953308 0.5917324423789978
vn -0.7487267851829529 0.5937020778656006 -0.29483258724212646
vn -0.7670896053314209 0.010559916496276855 0.6414530277252197
vn 0.09137511253356934 0.9534797072410583 0.28727537393569946
vn 0.5895876288414001 -0.2919519543647766 0.7530940175056458
f 3/3/3 2/2/2 1/1/1
f 6/6/6 5/5/5 4/4/4
f 9/9/9 8/8/8 7/7/7
f 12/12/12 11/11/11 10/10/10
f 15/15/15 14/14/14 13/13/13
f 18/18/18 17/17/17 16/16/16
f 21/21/21 20/20/20 19/19/19
f 24/24/24 23/23/23 22/22/22
f 27/27/27 26/26/26 25/25/25
f 30/30/30 29/29/29 28/28/28
f 33/33/33 32/32/32 31/31/31
f 36/36/36 35/35/35 34/34/34
f 39/39/39 38/38/38 37/37/37
f 42/42/42 41/41/41 40/40/40
f 45/45/45 44/44/44 43/43/43
f 48/48/48 47/47/47 46/46/46
f 51/51/51 50/50/50 49/49/49
f 54/54/54 53/53/53 52/52/52
f 57/57/57 56/56/56 55/55/55
f 60/60/60 59/59/59 58/58/58
f 63/63/63 62/62/62 61/61/61
f 66/66/66 65/65/65 64/64/64
