# VPXTOOL table OBJ file
# VPXTOOL OBJ file
# numVerts: 129 numFaces: 138
o LM_L_LM2_UnderPF
v -95.56189727783203 -362.8428649902344 -12.153261184692383
v -101.36779022216797 -361.68798828125 -12.153261184692383
v -95.56189727783203 -362.8428649902344 -5.324187755584717
v -101.36779022216797 -361.68798828125 -12.153261184692383
v -107.17365264892578 -362.8428649902344 -12.153261184692383
v -101.36779022216797 -361.68798828125 -5.324187755584717
v -90.6399154663086 -366.131591796875 -12.153261184692383
v -95.56189727783203 -362.8428649902344 -12.153261184692383
v -90.6399154663086 -366.131591796875 -5.324187755584717
v -101.36779022216797 -361.68798828125 -12.153261184692383
v -101.36779022216797 -361.68798828125 -5.324187755584717
v -95.56189727783203 -362.8428649902344 -5.324187755584717
v -95.56189727783203 -362.8428649902344 -12.153261184692383
v -95.56189727783203 -362.8428649902344 -5.324187755584717
v -90.6399154663086 -366.131591796875 -5.324187755584717
v -107.17365264892578 -362.8428649902344 -12.153261184692383
v -107.17365264892578 -362.8428649902344 -5.324187755584717
v -101.36779022216797 -361.68798828125 -5.324187755584717
v -107.17365264892578 -362.8428649902344 -12.153261184692383
v -112.09563446044922 -366.131591796875 -12.153261184692383
v -107.17365264892578 -362.8428649902344 -5.324187755584717
v -87.3511734008789 -371.0535583496094 -12.153261184692383
v -90.6399154663086 -366.131591796875 -12.153261184692383
v -87.3511734008789 -371.0535583496094 -5.324187755584717
v -90.6399154663086 -366.131591796875 -12.153261184692383
v -90.6399154663086 -366.131591796875 -5.324187755584717
v -87.3511734008789 -371.0535583496094 -5.324187755584717
v -112.09563446044922 -366.131591796875 -12.153261184692383
v -112.09563446044922 -366.131591796875 -5.324187755584717
v -107.17365264892578 -362.8428649902344 -5.324187755584717
v -86.19629669189453 -376.8594970703125 -5.324187755584717
v -95.56189727783203 -362.8428649902344 -5.324187755584717
v -101.36779022216797 -361.68798828125 -5.324187755584717
v -112.09563446044922 -366.131591796875 -12.153261184692383
v -115.38440704345703 -371.0535583496094 -12.153261184692383
v -112.09563446044922 -366.131591796875 -5.324187755584717
v -86.19629669189453 -376.8594970703125 -5.324187755584717
v -90.6399154663086 -366.131591796875 -5.324187755584717
v -95.56189727783203 -362.8428649902344 -5.324187755584717
v -86.19629669189453 -376.8594970703125 -12.153261184692383
v -87.3511734008789 -371.0535583496094 -12.153261184692383
v -86.19629669189453 -376.8594970703125 -5.324187755584717
v -87.3511734008789 -371.0535583496094 -12.153261184692383
v -87.3511734008789 -371.0535583496094 -5.324187755584717
v -86.19629669189453 -376.8594970703125 -5.324187755584717
v -116.53925323486328 -376.8594970703125 -5.324187755584717
v -101.36779022216797 -361.68798828125 -5.324187755584717
v -107.17365264892578 -362.8428649902344 -5.324187755584717
v -87.3511734008789 -371.0535583496094 -5.324187755584717
v -115.38440704345703 -371.0535583496094 -12.153261184692383
v -115.38440704345703 -371.0535583496094 -5.324187755584717
v -112.09563446044922 -366.131591796875 -5.324187755584717
v -116.53925323486328 -376.8594970703125 -5.324187755584717
v -107.17365264892578 -362.8428649902344 -5.324187755584717
v -112.09563446044922 -366.131591796875 -5.324187755584717
v -115.38440704345703 -371.0535583496094 -12.153261184692383
v -116.53925323486328 -376.8594970703125 -12.153261184692383
v -115.38440704345703 -371.0535583496094 -5.324187755584717
v -112.09563446044922 -366.131591796875 -5.324187755584717
v -115.38440704345703 -371.0535583496094 -5.324187755584717
v -116.53925323486328 -376.8594970703125 -5.324187755584717
v -87.3511734008789 -382.66534423828125 -12.153261184692383
v -86.19629669189453 -376.8594970703125 -12.153261184692383
v -87.3511734008789 -382.66534423828125 -5.324187755584717
v -86.19629669189453 -376.8594970703125 -12.153261184692383
v -86.19629669189453 -376.8594970703125 -5.324187755584717
v -87.3511734008789 -382.66534423828125 -5.324187755584717
v -116.53925323486328 -376.8594970703125 -12.153261184692383
v -116.53925323486328 -376.8594970703125 -5.324187755584717
v -115.38440704345703 -371.0535583496094 -5.324187755584717
v -101.36779022216797 -392.03094482421875 -5.324187755584717
v -101.36779022216797 -361.68798828125 -5.324187755584717
v -116.53925323486328 -376.8594970703125 -12.153261184692383
v -115.38440704345703 -382.66534423828125 -12.153261184692383
v -116.53925323486328 -376.8594970703125 -5.324187755584717
v -90.6399154663086 -387.58734130859375 -12.153261184692383
v -87.3511734008789 -382.66534423828125 -12.153261184692383
v -90.6399154663086 -387.58734130859375 -5.324187755584717
v -87.3511734008789 -382.66534423828125 -12.153261184692383
v -87.3511734008789 -382.66534423828125 -5.324187755584717
v -90.6399154663086 -387.58734130859375 -5.324187755584717
v -115.38440704345703 -382.66534423828125 -12.153261184692383
v -115.38440704345703 -382.66534423828125 -5.324187755584717
v -116.53925323486328 -376.8594970703125 -5.324187755584717
v -101.36779022216797 -392.03094482421875 -5.324187755584717
v -87.3511734008789 -382.66534423828125 -5.324187755584717
v -86.19629669189453 -376.8594970703125 -5.324187755584717
v -115.38440704345703 -382.66534423828125 -12.153261184692383
v -112.09563446044922 -387.58734130859375 -12.153261184692383
v -115.38440704345703 -382.66534423828125 -5.324187755584717
v -95.56189727783203 -390.8760986328125 -12.153261184692383
v -90.6399154663086 -387.58734130859375 -12.153261184692383
v -95.56189727783203 -390.8760986328125 -5.324187755584717
v -115.38440704345703 -382.66534423828125 -5.324187755584717
v -112.09563446044922 -387.58734130859375 -5.324187755584717
v -90.6399154663086 -387.58734130859375 -12.153261184692383
v -90.6399154663086 -387.58734130859375 -5.324187755584717
v -95.56189727783203 -390.8760986328125 -5.324187755584717
v -101.36779022216797 -392.03094482421875 -5.324187755584717
v -90.6399154663086 -387.58734130859375 -5.324187755584717
v -87.3511734008789 -382.66534423828125 -5.324187755584717
v -112.09563446044922 -387.58734130859375 -12.153261184692383
v -112.09563446044922 -387.58734130859375 -5.324187755584717
v -115.38440704345703 -382.66534423828125 -5.324187755584717
v -112.09563446044922 -387.58734130859375 -12.153261184692383
v -107.17365264892578 -390.8760986328125 -12.153261184692383
v -112.09563446044922 -387.58734130859375 -5.324187755584717
v -116.53925323486328 -376.8594970703125 -5.324187755584717
v -112.09563446044922 -387.58734130859375 -5.324187755584717
v -101.36779022216797 -392.03094482421875 -5.324187755584717
v -101.36779022216797 -392.03094482421875 -12.153261184692383
v -95.56189727783203 -390.8760986328125 -12.153261184692383
v -101.36779022216797 -392.03094482421875 -5.324187755584717
v -107.17365264892578 -390.8760986328125 -12.153261184692383
v -101.36779022216797 -392.03094482421875 -12.153261184692383
v -107.17365264892578 -390.8760986328125 -5.324187755584717
v -95.56189727783203 -390.8760986328125 -12.153261184692383
v -95.56189727783203 -390.8760986328125 -5.324187755584717
v -101.36779022216797 -392.03094482421875 -5.324187755584717
v -101.36779022216797 -392.03094482421875 -5.324187755584717
v -95.56189727783203 -390.8760986328125 -5.324187755584717
v -90.6399154663086 -387.58734130859375 -5.324187755584717
v -107.17365264892578 -390.8760986328125 -12.153261184692383
v -107.17365264892578 -390.8760986328125 -5.324187755584717
v -112.09563446044922 -387.58734130859375 -5.324187755584717
v -101.36779022216797 -392.03094482421875 -12.153261184692383
v -101.36779022216797 -392.03094482421875 -5.324187755584717
v -107.17365264892578 -390.8760986328125 -5.324187755584717
v -107.17365264892578 -390.8760986328125 -5.324187755584717
vt 0.043995119631290436 0.38626158237457275
vt 0.044220734387636185 0.38767093420028687
vt 0.044985756278038025 0.3862084746360779
vt 0.044220734387636185 0.38767093420028687
vt 0.043995119631290436 0.3890693783760071
vt 0.04521115496754646 0.3876153826713562
vt 0.043353091925382614 0.3850572109222412
vt 0.043995119631290436 0.38626158237457275
vt 0.04434436932206154 0.38500624895095825
vt 0.044220734387636185 0.38767093420028687
vt 0.04521115496754646 0.3876153826713562
vt 0.044985756278038025 0.3862084746360779
vt 0.043995119631290436 0.38626158237457275
vt 0.044985756278038025 0.3862084746360779
vt 0.04434436932206154 0.38500624895095825
vt 0.043995119631290436 0.3890693783760071
vt 0.044985756278038025 0.3890114426612854
vt 0.04521115496754646 0.3876153826713562
vt 0.043995119631290436 0.3890693783760071
vt 0.043353091925382614 0.39024287462234497
vt 0.044985756278038025 0.3890114426612854
vt 0.04239335656166077 0.3842417001724243
vt 0.043353091925382614 0.3850572109222412
vt 0.04338555783033371 0.3841921091079712
vt 0.043353091925382614 0.3850572109222412
vt 0.04434436932206154 0.38500624895095825
vt 0.04338555783033371 0.3841921091079712
vt 0.043353091925382614 0.39024287462234497
vt 0.04434436932206154 0.3901829123497009
vt 0.044985756278038025 0.3890114426612854
vt 0.04225635528564453 0.38388967514038086
vt 0.044985756278038025 0.3862084746360779
vt 0.04521115496754646 0.3876153826713562
vt 0.043353091925382614 0.39024287462234497
vt 0.04239335656166077 0.39101219177246094
vt 0.04434436932206154 0.3901829123497009
vt 0.04225635528564453 0.38388967514038086
vt 0.04434436932206154 0.38500624895095825
vt 0.044985756278038025 0.3862084746360779
vt 0.04126305133104324 0.38393867015838623
vt 0.04239335656166077 0.3842417001724243
vt 0.04225635528564453 0.38388967514038086
vt 0.04239335656166077 0.3842417001724243
vt 0.04338555783033371 0.3841921091079712
vt 0.04225635528564453 0.38388967514038086
vt 0.04225635528564453 0.39119917154312134
vt 0.04521115496754646 0.3876153826713562
vt 0.044985756278038025 0.3890114426612854
vt 0.04338555783033371 0.3841921091079712
vt 0.04239335656166077 0.39101219177246094
vt 0.04338555783033371 0.3909509778022766
vt 0.04434436932206154 0.3901829123497009
vt 0.04225635528564453 0.39119917154312134
vt 0.044985756278038025 0.3890114426612854
vt 0.04434436932206154 0.3901829123497009
vt 0.04239335656166077 0.39101219177246094
vt 0.04126305133104324 0.3912607431411743
vt 0.04338555783033371 0.3909509778022766
vt 0.04434436932206154 0.3901829123497009
vt 0.04338555783033371 0.3909509778022766
vt 0.04225635528564453 0.39119917154312134
vt 0.04013463109731674 0.3841930031776428
vt 0.04126305133104324 0.38393867015838623
vt 0.04112907126545906 0.3841436505317688
vt 0.04126305133104324 0.38393867015838623
vt 0.04225635528564453 0.38388967514038086
vt 0.04112907126545906 0.3841436505317688
vt 0.04126305133104324 0.3912607431411743
vt 0.04225635528564453 0.39119917154312134
vt 0.04338555783033371 0.3909509778022766
vt 0.03931456804275513 0.3874737620353699
vt 0.04521115496754646 0.3876153826713562
vt 0.04126305133104324 0.3912607431411743
vt 0.04013463109731674 0.39095205068588257
vt 0.04225635528564453 0.39119917154312134
vt 0.039179518818855286 0.38496482372283936
vt 0.04013463109731674 0.3841930031776428
vt 0.04017484933137894 0.3849141597747803
vt 0.04013463109731674 0.3841930031776428
vt 0.04112907126545906 0.3841436505317688
vt 0.04017484933137894 0.3849141597747803
vt 0.04013463109731674 0.39095205068588257
vt 0.04112907126545906 0.39089107513427734
vt 0.04225635528564453 0.39119917154312134
vt 0.03931456804275513 0.3874737620353699
vt 0.04112907126545906 0.3841436505317688
vt 0.04225635528564453 0.38388967514038086
vt 0.04013463109731674 0.39095205068588257
vt 0.039179518818855286 0.3901342749595642
vt 0.04112907126545906 0.39089107513427734
vt 0.03854207694530487 0.3861360549926758
vt 0.039179518818855286 0.38496482372283936
vt 0.03953804820775986 0.38608336448669434
vt 0.04112907126545906 0.39089107513427734
vt 0.04017484933137894 0.3900747299194336
vt 0.039179518818855286 0.38496482372283936
vt 0.04017484933137894 0.3849141597747803
vt 0.03953804820775986 0.38608336448669434
vt 0.03931456804275513 0.3874737620353699
vt 0.04017484933137894 0.3849141597747803
vt 0.04112907126545906 0.3841436505317688
vt 0.039179518818855286 0.3901342749595642
vt 0.04017484933137894 0.3900747299194336
vt 0.04112907126545906 0.39089107513427734
vt 0.039179518818855286 0.3901342749595642
vt 0.03854207694530487 0.38893234729766846
vt 0.04017484933137894 0.3900747299194336
vt 0.04225635528564453 0.39119917154312134
vt 0.04017484933137894 0.3900747299194336
vt 0.03931456804275513 0.3874737620353699
vt 0.03831838443875313 0.38752883672714233
vt 0.03854207694530487 0.3861360549926758
vt 0.03931456804275513 0.3874737620353699
vt 0.03854207694530487 0.38893234729766846
vt 0.03831838443875313 0.38752883672714233
vt 0.03953804820775986 0.388874888420105
vt 0.03854207694530487 0.3861360549926758
vt 0.03953804820775986 0.38608336448669434
vt 0.03931456804275513 0.3874737620353699
vt 0.03931456804275513 0.3874737620353699
vt 0.03953804820775986 0.38608336448669434
vt 0.04017484933137894 0.3849141597747803
vt 0.03854207694530487 0.38893234729766846
vt 0.03953804820775986 0.388874888420105
vt 0.04017484933137894 0.3900747299194336
vt 0.03831838443875313 0.38752883672714233
vt 0.03931456804275513 0.3874737620353699
vt 0.03953804820775986 0.388874888420105
vt 0.03953804820775986 0.388874888420105
vn -0.19509264826774597 -0.9807848334312439 -0
vn -0.19509264826774597 -0.9807848334312439 -0
vn -0.19509264826774597 -0.9807848334312439 -0
vn 0.19509360194206238 -0.9807846546173096 -0
vn 0.19509360194206238 -0.9807846546173096 -0
vn 0.19509360194206238 -0.9807846546173096 -0
vn -0.5555647015571594 -0.8314732313156128 -0
vn -0.5555647015571594 -0.8314732313156128 -0
vn -0.5555647015571594 -0.8314732313156128 -0
vn -0.19509267807006836 -0.9807848334312439 -0
vn -0.19509267807006836 -0.9807848334312439 -0
vn -0.19509267807006836 -0.9807848334312439 -0
vn -0.5555657744407654 -0.8314725756645203 -0
vn -0.5555657744407654 -0.8314725756645203 -0
vn -0.5555657744407654 -0.8314725756645203 -0
vn 0.19509363174438477 -0.9807846546173096 -0
vn 0.19509363174438477 -0.9807846546173096 -0
vn 0.19509363174438477 -0.9807846546173096 -0
vn 0.5555647015571594 -0.8314732313156128 -0
vn 0.5555647015571594 -0.8314732313156128 -0
vn 0.5555647015571594 -0.8314732313156128 -0
vn -0.8314707279205322 -0.5555683970451355 -0
vn -0.8314707279205322 -0.5555683970451355 -0
vn -0.8314707279205322 -0.5555683970451355 -0
vn -0.8314709067344666 -0.5555683970451355 -0
vn -0.8314709067344666 -0.5555683970451355 -0
vn -0.8314709067344666 -0.5555683970451355 -0
vn 0.5555657744407654 -0.8314725756645203 -0
vn 0.5555657744407654 -0.8314725756645203 -0
vn 0.5555657744407654 -0.8314725756645203 -0
vn 0.00000017697161069918366 -0 -1
vn 0.00000017697161069918366 -0 -1
vn 0.00000017697161069918366 -0 -1
vn 0.8314685225486755 -0.5555718541145325 -0
vn 0.8314685225486755 -0.5555718541145325 -0
vn 0.8314685225486755 -0.5555718541145325 -0
vn 0 -0 -1
vn 0 -0 -1
vn 0 -0 -1
vn -0.9807851910591125 -0.19509053230285645 -0
vn -0.9807851910591125 -0.19509053230285645 -0
vn -0.9807851910591125 -0.19509053230285645 -0
vn -0.9807847738265991 -0.19509296119213104 -0
vn -0.9807847738265991 -0.19509296119213104 -0
vn -0.9807847738265991 -0.19509296119213104 -0
vn -0.00000017697161069918366 -0 -1
vn -0.00000017697161069918366 -0 -1
vn -0.00000017697161069918366 -0 -1
vn 0 -0 -1
vn 0.8314686417579651 -0.5555717945098877 -0
vn 0.8314686417579651 -0.5555717945098877 -0
vn 0.8314686417579651 -0.5555717945098877 -0
vn 0.0000003269923070092773 -0 -1
vn 0.0000003269923070092773 -0 -1
vn 0.0000003269923070092773 -0 -1
vn 0.9807857275009155 -0.19508817791938782 -0
vn 0.9807857275009155 -0.19508817791938782 -0
vn 0.9807857275009155 -0.19508817791938782 -0
vn 0 -0 -1
vn 0 -0 -1
vn 0 -0 -1
vn -0.9807843565940857 0.19509471952915192 -0
vn -0.9807843565940857 0.19509471952915192 -0
vn -0.9807843565940857 0.19509471952915192 -0
vn -0.9807848334312439 0.1950923651456833 -0
vn -0.9807848334312439 0.1950923651456833 -0
vn -0.9807848334312439 0.1950923651456833 -0
vn 0.980786144733429 -0.195085808634758 -0
vn 0.980786144733429 -0.195085808634758 -0
vn 0.980786144733429 -0.195085808634758 -0
vn 0 -0 -1
vn 0 -0 -1
vn 0.9807857871055603 0.19508758187294006 -0
vn 0.9807857871055603 0.19508758187294006 -0
vn 0.9807857871055603 0.19508758187294006 -0
vn -0.8314707279205322 0.5555683970451355 -0
vn -0.8314707279205322 0.5555683970451355 -0
vn -0.8314707279205322 0.5555683970451355 -0
vn -0.8314709067344666 0.5555683970451355 -0
vn -0.8314709067344666 0.5555683970451355 -0
vn -0.8314709067344666 0.5555683970451355 -0
vn 0.9807853698730469 0.19509001076221466 -0
vn 0.9807853698730469 0.19509001076221466 -0
vn 0.9807853698730469 0.19509001076221466 -0
vn -0.00000008848580534959183 -0 -1
vn -0.00000008848580534959183 -0 -1
vn -0.00000008848580534959183 -0 -1
vn 0.8314685225486755 0.5555718541145325 -0
vn 0.8314685225486755 0.5555718541145325 -0
vn 0.8314685225486755 0.5555718541145325 -0
vn -0.5555723309516907 0.8314682841300964 -0
vn -0.5555723309516907 0.8314682841300964 -0
vn -0.5555723309516907 0.8314682841300964 -0
vn 0 -0 -1
vn 0 -0 -1
vn -0.5555711984634399 0.8314689993858337 -0
vn -0.5555711984634399 0.8314689993858337 -0
vn -0.5555711984634399 0.8314689993858337 -0
vn -0.00000008174807675231932 -0 -1
vn -0.00000008174807675231932 -0 -1
vn -0.00000008174807675231932 -0 -1
vn 0.8314686417579651 0.5555717945098877 -0
vn 0.8314686417579651 0.5555717945098877 -0
vn 0.8314686417579651 0.5555717945098877 -0
vn 0.5555723309516907 0.8314682841300964 -0
vn 0.5555723309516907 0.8314682841300964 -0
vn 0.5555723309516907 0.8314682841300964 -0
vn 0.00000013097837836539838 -0 -1
vn 0.00000013097837836539838 -0 -1
vn 0.00000013097837836539838 -0 -1
vn -0.19508367776870728 0.9807866215705872 -0
vn -0.19508367776870728 0.9807866215705872 -0
vn -0.19508367776870728 0.9807866215705872 -0
vn 0.1950846165418625 0.9807864427566528 -0
vn 0.1950846165418625 0.9807864427566528 -0
vn 0.1950846165418625 0.9807864427566528 -0
vn -0.19508370757102966 0.9807866215705872 -0
vn -0.19508370757102966 0.9807866215705872 -0
vn -0.19508370757102966 0.9807866215705872 -0
vn 0.00000011639600927537685 -0 -1
vn 0.00000011639600927537685 -0 -1
vn 0.00000011639600927537685 -0 -1
vn 0.5555711984634399 0.8314689993858337 -0
vn 0.5555711984634399 0.8314689993858337 -0
vn 0.5555711984634399 0.8314689993858337 -0
vn 0.19508464634418488 0.9807863831520081 -0
vn 0.19508464634418488 0.9807863831520081 -0
vn 0.19508464634418488 0.9807863831520081 -0
vn 0 -0 -1
f 3/3/3 2/2/2 1/1/1
f 6/6/6 5/5/5 4/4/4
f 9/9/9 8/8/8 7/7/7
f 12/12/12 11/11/11 10/10/10
f 15/15/15 14/14/14 13/13/13
f 18/18/18 17/17/17 16/16/16
f 21/21/21 20/20/20 19/19/19
f 24/24/24 23/23/23 22/22/22
f 27/27/27 26/26/26 25/25/25
f 30/30/30 29/29/29 28/28/28
f 33/33/33 32/32/32 31/31/31
f 36/36/36 35/35/35 34/34/34
f 39/39/39 38/38/38 37/37/37
f 42/42/42 41/41/41 40/40/40
f 45/45/45 44/44/44 43/43/43
f 48/48/48 47/47/47 46/46/46
f 38/38/38 49/49/49 37/37/37
f 52/52/52 51/51/51 50/50/50
f 55/55/55 54/54/54 53/53/53
f 58/58/58 57/57/57 56/56/56
f 61/61/61 60/60/60 59/59/59
f 64/64/64 63/63/63 62/62/62
f 67/67/67 66/66/66 65/65/65
f 70/70/70 69/69/69 68/68/68
f 72/72/72 37/37/37 71/71/71
f 75/75/75 74/74/74 73/73/73
f 71/71/71 61/61/61 72/72/72
f 78/78/78 77/77/77 76/76/76
f 81/81/81 80/80/80 79/79/79
f 84/84/84 83/83/83 82/82/82
f 87/87/87 86/86/86 85/85/85
f 90/90/90 89/89/89 88/88/88
f 93/93/93 92/92/92 91/91/91
f 95/95/95 94/94/94 61/61/61
f 98/98/98 97/97/97 96/96/96
f 101/101/101 100/100/100 99/99/99
f 104/104/104 103/103/103 102/102/102
f 107/107/107 106/106/106 105/105/105
f 110/110/110 109/109/109 108/108/108
f 113/113/113 112/112/112 111/111/111
f 116/116/116 115/115/115 114/114/114
f 119/119/119 118/118/118 117/117/117
f 122/122/122 121/121/121 120/120/120
f 125/125/125 124/124/124 123/123/123
f 128/128/128 127/127/127 126/126/126
f 71/71/71 129/129/129 95/95/95
