# VPXTOOL table OBJ file
# VPXTOOL OBJ file
# numVerts: 147 numFaces: 147
o LM_L_LCWiz_BmpTopR
v 34.71796798706055 22.80171775817871 -80.43287658691406
v 28.18584632873535 30.295833587646484 -80.43287658691406
v 34.71796798706055 22.80171775817871 -85.45177459716797
v 58.32289505004883 38.71027755737305 -61.68364334106445
v 47.26972579956055 51.394168853759766 -61.68364334106445
v 59.49900436401367 39.57439041137695 -61.684017181396484
v 28.18584632873535 30.295833587646484 -80.43287658691406
v 28.18584632873535 30.295833587646484 -85.45177459716797
v 34.71796798706055 22.80171775817871 -85.45177459716797
v 48.20920944213867 52.531044006347656 -65.36338806152344
v 59.49900436401367 39.57439041137695 -65.36338806152344
v 59.49900436401367 39.57439041137695 -61.684017181396484
v 47.26972579956055 51.394168853759766 -61.68364334106445
v 48.20920944213867 52.531044006347656 -61.684017181396484
v 59.49900436401367 39.57439041137695 -61.684017181396484
v 44.73313522338867 48.69139099121094 -76.18439483642578
v 28.18584632873535 30.295833587646484 -80.43287658691406
v 34.71796798706055 22.80171775817871 -80.43287658691406
v 48.20920944213867 52.531044006347656 -61.684017181396484
v 48.20920944213867 52.531044006347656 -65.36338806152344
v 59.49900436401367 39.57439041137695 -61.684017181396484
v 20.06768798828125 35.98817443847656 -80.43287658691406
v 20.06768798828125 35.98817443847656 -85.45177459716797
v 28.18584632873535 30.295833587646484 -80.43287658691406
v 20.06768798828125 35.98817443847656 -85.45177459716797
v 28.18584632873535 30.295833587646484 -85.45177459716797
v 28.18584632873535 30.295833587646484 -80.43287658691406
v 59.49900436401367 39.57439041137695 -65.36338806152344
v 48.20920944213867 52.531044006347656 -65.36338806152344
v 55.201438903808594 36.681453704833984 -76.18439483642578
v 55.201438903808594 36.681453704833984 -76.18439483642578
v 44.73313522338867 48.69139099121094 -76.18439483642578
v 34.71796798706055 22.80171775817871 -80.43287658691406
v 1.0685354471206665 40.829429626464844 -80.43287658691406
v -8.708489418029785 39.733192443847656 -80.43287658691406
v 1.0685354471206665 40.829429626464844 -85.45177459716797
v 20.06768798828125 35.98817443847656 -80.43287658691406
v 10.848528861999512 39.56257629394531 -80.43287658691406
v 20.06768798828125 35.98817443847656 -85.45177459716797
v 10.848528861999512 39.56257629394531 -80.43287658691406
v 1.0685354471206665 40.829429626464844 -80.43287658691406
v 10.848528861999512 39.56257629394531 -85.45177459716797
v 47.26972579956055 51.394168853759766 -61.68364334106445
v 33.53187942504883 61.027976989746094 -61.68364334106445
v 48.20920944213867 52.531044006347656 -61.684017181396484
v 10.848528861999512 39.56257629394531 -80.43287658691406
v 10.848528861999512 39.56257629394531 -85.45177459716797
v 20.06768798828125 35.98817443847656 -85.45177459716797
v 1.0685354471206665 40.829429626464844 -80.43287658691406
v 1.0685354471206665 40.829429626464844 -85.45177459716797
v 10.848528861999512 39.56257629394531 -85.45177459716797
v 20.06768798828125 35.98817443847656 -80.43287658691406
v 28.18584632873535 30.295833587646484 -80.43287658691406
v 31.72319793701172 57.81391143798828 -76.18439483642578
v 33.53187942504883 61.027976989746094 -61.68364334106445
v 34.17684555053711 62.372684478759766 -61.684017181396484
v 48.20920944213867 52.531044006347656 -61.684017181396484
v 48.20920944213867 52.531044006347656 -65.36338806152344
v 44.73313522338867 48.69139099121094 -76.18439483642578
v 55.201438903808594 36.681453704833984 -76.18439483642578
v 34.17684555053711 62.372684478759766 -65.36338806152344
v 48.20920944213867 52.531044006347656 -65.36338806152344
v 48.20920944213867 52.531044006347656 -61.684017181396484
v 10.848528861999512 39.56257629394531 -80.43287658691406
v 20.06768798828125 35.98817443847656 -80.43287658691406
v 31.72319793701172 57.81391143798828 -76.18439483642578
v -8.708489418029785 39.733192443847656 -80.43287658691406
v 1.0685354471206665 40.829429626464844 -80.43287658691406
v 1.275439977645874 65.57261657714844 -76.18439483642578
v 34.17684555053711 62.372684478759766 -61.684017181396484
v 34.17684555053711 62.372684478759766 -65.36338806152344
v 48.20920944213867 52.531044006347656 -61.684017181396484
v -15.165006637573242 67.36953735351563 -61.68364334106445
v -15.56702709197998 68.85305786132813 -61.684017181396484
v 1.3344372510910034 70.7453842163086 -61.684017181396484
v 1.0685354471206665 40.829429626464844 -80.43287658691406
v 10.848528861999512 39.56257629394531 -80.43287658691406
v 16.948741912841797 63.54225158691406 -76.18439483642578
v 28.18584632873535 30.295833587646484 -80.43287658691406
v 44.73313522338867 48.69139099121094 -76.18439483642578
v 31.72319793701172 57.81391143798828 -76.18439483642578
v 1.380293369293213 69.2227783203125 -61.68364334106445
v -15.165006637573242 67.36953735351563 -61.68364334106445
v 1.3344372510910034 70.7453842163086 -61.684017181396484
v 33.53187942504883 61.027976989746094 -61.68364334106445
v 17.9306583404541 67.07744598388672 -61.68364334106445
v 34.17684555053711 62.372684478759766 -61.684017181396484
v -15.56702709197998 68.85305786132813 -61.684017181396484
v -15.56702709197998 68.85305786132813 -65.36338806152344
v 1.3344372510910034 70.7453842163086 -61.684017181396484
v 48.20920944213867 52.531044006347656 -65.36338806152344
v 34.17684555053711 62.372684478759766 -65.36338806152344
v 44.73313522338867 48.69139099121094 -76.18439483642578
v 17.9306583404541 67.07744598388672 -61.68364334106445
v 18.240623474121094 68.55301666259766 -61.684017181396484
v 34.17684555053711 62.372684478759766 -61.684017181396484
v 17.9306583404541 67.07744598388672 -61.68364334106445
v 1.380293369293213 69.2227783203125 -61.68364334106445
v 18.240623474121094 68.55301666259766 -61.684017181396484
v 1.380293369293213 69.2227783203125 -61.68364334106445
v 1.3344372510910034 70.7453842163086 -61.684017181396484
v 18.240623474121094 68.55301666259766 -61.684017181396484
v -14.393044471740723 63.8157844543457 -76.18439483642578
v -8.708489418029785 39.733192443847656 -80.43287658691406
v 1.275439977645874 65.57261657714844 -76.18439483642578
v -15.56702709197998 68.85305786132813 -65.36338806152344
v 1.3344372510910034 70.7453842163086 -65.36338806152344
v 1.3344372510910034 70.7453842163086 -61.684017181396484
v 18.240623474121094 68.55301666259766 -61.684017181396484
v 18.240623474121094 68.55301666259766 -65.36338806152344
v 34.17684555053711 62.372684478759766 -61.684017181396484
v 18.240623474121094 68.55301666259766 -65.36338806152344
v 34.17684555053711 62.372684478759766 -65.36338806152344
v 34.17684555053711 62.372684478759766 -61.684017181396484
v 1.3344372510910034 70.7453842163086 -61.684017181396484
v 1.3344372510910034 70.7453842163086 -65.36338806152344
v 18.240623474121094 68.55301666259766 -61.684017181396484
v 16.948741912841797 63.54225158691406 -76.18439483642578
v 10.848528861999512 39.56257629394531 -80.43287658691406
v 31.72319793701172 57.81391143798828 -76.18439483642578
v 34.17684555053711 62.372684478759766 -65.36338806152344
v 31.72319793701172 57.81391143798828 -76.18439483642578
v 44.73313522338867 48.69139099121094 -76.18439483642578
v 1.3344372510910034 70.7453842163086 -65.36338806152344
v 18.240623474121094 68.55301666259766 -65.36338806152344
v 18.240623474121094 68.55301666259766 -61.684017181396484
v 1.275439977645874 65.57261657714844 -76.18439483642578
v 1.0685354471206665 40.829429626464844 -80.43287658691406
v 16.948741912841797 63.54225158691406 -76.18439483642578
v 1.3344372510910034 70.7453842163086 -65.36338806152344
v -15.56702709197998 68.85305786132813 -65.36338806152344
v 1.275439977645874 65.57261657714844 -76.18439483642578
v 34.17684555053711 62.372684478759766 -65.36338806152344
v 18.240623474121094 68.55301666259766 -65.36338806152344
v 31.72319793701172 57.81391143798828 -76.18439483642578
v -15.56702709197998 68.85305786132813 -65.36338806152344
v -14.393044471740723 63.8157844543457 -76.18439483642578
v 1.275439977645874 65.57261657714844 -76.18439483642578
v 18.240623474121094 68.55301666259766 -65.36338806152344
v 1.3344372510910034 70.7453842163086 -65.36338806152344
v 16.948741912841797 63.54225158691406 -76.18439483642578
v 18.240623474121094 68.55301666259766 -65.36338806152344
v 16.948741912841797 63.54225158691406 -76.18439483642578
v 31.72319793701172 57.81391143798828 -76.18439483642578
v 1.3344372510910034 70.7453842163086 -65.36338806152344
v 1.275439977645874 65.57261657714844 -76.18439483642578
v 16.948741912841797 63.54225158691406 -76.18439483642578
vt 0.49794021248817444 0.7239160537719727
vt 0.49675801396369934 0.7225743532180786
vt 0.5007765889167786 0.7237253189086914
vt 0.4718859791755676 0.7258081436157227
vt 0.46932196617126465 0.7230633497238159
vt 0.4729227125644684 0.7257219552993774
vt 0.49675801396369934 0.7225743532180786
vt 0.49986791610717773 0.7225345373153687
vt 0.5007765889167786 0.7237253189086914
vt 0.473129004240036 0.7229884266853333
vt 0.4754857122898102 0.72553950548172
vt 0.4729227125644684 0.7257219552993774
vt 0.46932196617126465 0.7230633497238159
vt 0.4704356789588928 0.7230323553085327
vt 0.4729227125644684 0.7257219552993774
vt 0.4810812473297119 0.722823977470398
vt 0.49675801396369934 0.7225743532180786
vt 0.49794021248817444 0.7239160537719727
vt 0.4704356789588928 0.7230323553085327
vt 0.473129004240036 0.7229884266853333
vt 0.4729227125644684 0.7257219552993774
vt 0.4972452223300934 0.7212147116661072
vt 0.5001295804977417 0.7213207483291626
vt 0.49675801396369934 0.7225743532180786
vt 0.5001295804977417 0.7213207483291626
vt 0.49986791610717773 0.7225345373153687
vt 0.49675801396369934 0.7225743532180786
vt 0.4754857122898102 0.72553950548172
vt 0.473129004240036 0.7229884266853333
vt 0.4829995036125183 0.724968671798706
vt 0.4829995036125183 0.724968671798706
vt 0.4810812473297119 0.722823977470398
vt 0.49794021248817444 0.7239160537719727
vt 0.5018972158432007 0.7187374830245972
vt 0.5060845017433167 0.717737078666687
vt 0.5043338537216187 0.7191246151924133
vt 0.4972452223300934 0.7212147116661072
vt 0.49888676404953003 0.7199193239212036
vt 0.5001295804977417 0.7213207483291626
vt 0.49888676404953003 0.7199193239212036
vt 0.5018972158432007 0.7187374830245972
vt 0.5016472935676575 0.7201696038246155
vt 0.46932196617126465 0.7230633497238159
vt 0.4697929620742798 0.7202659845352173
vt 0.4704356789588928 0.7230323553085327
vt 0.49888676404953003 0.7199193239212036
vt 0.5016472935676575 0.7201696038246155
vt 0.5001295804977417 0.7213207483291626
vt 0.5018972158432007 0.7187374830245972
vt 0.5043338537216187 0.7191246151924133
vt 0.5016472935676575 0.7201696038246155
vt 0.4972452223300934 0.7212147116661072
vt 0.49675801396369934 0.7225743532180786
vt 0.48154425621032715 0.7206407189369202
vt 0.4697929620742798 0.7202659845352173
vt 0.4709242880344391 0.7202931046485901
vt 0.4704356789588928 0.7230323553085327
vt 0.473129004240036 0.7229884266853333
vt 0.4810812473297119 0.722823977470398
vt 0.4829995036125183 0.724968671798706
vt 0.4735964834690094 0.7203891277313232
vt 0.473129004240036 0.7229884266853333
vt 0.4704356789588928 0.7230323553085327
vt 0.49888676404953003 0.7199193239212036
vt 0.4972452223300934 0.7212147116661072
vt 0.48154425621032715 0.7206407189369202
vt 0.5060845017433167 0.717737078666687
vt 0.5018972158432007 0.7187374830245972
vt 0.4892657697200775 0.7166457176208496
vt 0.4709242880344391 0.7202931046485901
vt 0.4735964834690094 0.7203891277313232
vt 0.4704356789588928 0.7230323553085327
vt 0.4884069561958313 0.7130310535430908
vt 0.48920881748199463 0.7132272720336914
vt 0.4805062711238861 0.7152503728866577
vt 0.5018972158432007 0.7187374830245972
vt 0.49888676404953003 0.7199193239212036
vt 0.4842960238456726 0.7185450196266174
vt 0.49675801396369934 0.7225743532180786
vt 0.4810812473297119 0.722823977470398
vt 0.48154425621032715 0.7206407189369202
vt 0.47952622175216675 0.7151063680648804
vt 0.4884069561958313 0.7130310535430908
vt 0.4805062711238861 0.7152503728866577
vt 0.4697929620742798 0.7202659845352173
vt 0.4732356369495392 0.7175668478012085
vt 0.4709242880344391 0.7202931046485901
vt 0.48920881748199463 0.7132272720336914
vt 0.4909616708755493 0.7136960029602051
vt 0.4805062711238861 0.7152503728866577
vt 0.473129004240036 0.7229884266853333
vt 0.4735964834690094 0.7203891277313232
vt 0.4810812473297119 0.722823977470398
vt 0.4732356369495392 0.7175668478012085
vt 0.47432395815849304 0.7176530957221985
vt 0.4709242880344391 0.7202931046485901
vt 0.4732356369495392 0.7175668478012085
vt 0.47952622175216675 0.7151063680648804
vt 0.47432395815849304 0.7176530957221985
vt 0.47952622175216675 0.7151063680648804
vt 0.4805062711238861 0.7152503728866577
vt 0.47432395815849304 0.7176530957221985
vt 0.4962245523929596 0.7150545716285706
vt 0.5060845017433167 0.717737078666687
vt 0.4892657697200775 0.7166457176208496
vt 0.4909616708755493 0.7136960029602051
vt 0.48270484805107117 0.715609610080719
vt 0.4805062711238861 0.7152503728866577
vt 0.47432395815849304 0.7176530957221985
vt 0.47682973742485046 0.7178853750228882
vt 0.4709242880344391 0.7202931046485901
vt 0.47682973742485046 0.7178853750228882
vt 0.4735964834690094 0.7203891277313232
vt 0.4709242880344391 0.7202931046485901
vt 0.4805062711238861 0.7152503728866577
vt 0.48270484805107117 0.715609610080719
vt 0.47432395815849304 0.7176530957221985
vt 0.4842960238456726 0.7185450196266174
vt 0.49888676404953003 0.7199193239212036
vt 0.48154425621032715 0.7206407189369202
vt 0.4735964834690094 0.7203891277313232
vt 0.48154425621032715 0.7206407189369202
vt 0.4810812473297119 0.722823977470398
vt 0.48270484805107117 0.715609610080719
vt 0.47682973742485046 0.7178853750228882
vt 0.47432395815849304 0.7176530957221985
vt 0.4892657697200775 0.7166457176208496
vt 0.5018972158432007 0.7187374830245972
vt 0.4842960238456726 0.7185450196266174
vt 0.48270484805107117 0.715609610080719
vt 0.4909616708755493 0.7136960029602051
vt 0.4892657697200775 0.7166457176208496
vt 0.4735964834690094 0.7203891277313232
vt 0.47682973742485046 0.7178853750228882
vt 0.48154425621032715 0.7206407189369202
vt 0.4909616708755493 0.7136960029602051
vt 0.4962245523929596 0.7150545716285706
vt 0.4892657697200775 0.7166457176208496
vt 0.47682973742485046 0.7178853750228882
vt 0.48270484805107117 0.715609610080719
vt 0.4842960238456726 0.7185450196266174
vt 0.47682973742485046 0.7178853750228882
vt 0.4842960238456726 0.7185450196266174
vt 0.48154425621032715 0.7206407189369202
vt 0.48270484805107117 0.715609610080719
vt 0.4892657697200775 0.7166457176208496
vt 0.4842960238456726 0.7185450196266174
vn 0.7538339495658875 0.6570649147033691 -0
vn 0.7538339495658875 0.6570649147033691 -0
vn 0.7538339495658875 0.6570649147033691 -0
vn 0.00019597113714553416 0.0001683581358520314 0.9999999403953552
vn 0.00019597113714553416 0.0001683581358520314 0.9999999403953552
vn 0.00019597113714553416 0.0001683581358520314 0.9999999403953552
vn 0.7538333535194397 0.6570656299591064 -0
vn 0.7538333535194397 0.6570656299591064 -0
vn 0.7538333535194397 0.6570656299591064 -0
vn 0.7539389729499817 0.6569443941116333 -0
vn 0.7539389729499817 0.6569443941116333 -0
vn 0.7539389729499817 0.6569443941116333 -0
vn 0.0001892520085675642 0.00016825718921609223 0.9999998807907104
vn 0.0001892520085675642 0.00016825718921609223 0.9999998807907104
vn 0.0001892520085675642 0.00016825718921609223 0.9999998807907104
vn 0.12848705053329468 0.1119941920042038 -0.9853672385215759
vn 0.12848705053329468 0.1119941920042038 -0.9853672385215759
vn 0.12848705053329468 0.1119941920042038 -0.9853672385215759
vn 0.7539383172988892 0.6569451689720154 -0
vn 0.7539383172988892 0.6569451689720154 -0
vn 0.7539383172988892 0.6569451689720154 -0
vn 0.5741140842437744 0.8187753558158875 -0
vn 0.5741140842437744 0.8187753558158875 -0
vn 0.5741140842437744 0.8187753558158875 -0
vn 0.5741137862205505 0.8187755346298218 -0
vn 0.5741137862205505 0.8187755346298218 -0
vn 0.5741137862205505 0.8187755346298218 -0
vn 0.681000292301178 0.5933902263641357 -0.42909958958625793
vn 0.681000292301178 0.5933902263641357 -0.42909958958625793
vn 0.681000292301178 0.5933902263641357 -0.42909958958625793
vn 0.12848734855651855 0.11199436336755753 -0.9853670597076416
vn 0.12848734855651855 0.11199436336755753 -0.9853670597076416
vn 0.12848734855651855 0.11199436336755753 -0.9853670597076416
vn -0.11142601817846298 0.9937727451324463 -0
vn -0.11142601817846298 0.9937727451324463 -0
vn -0.11142601817846298 0.9937727451324463 -0
vn 0.36149513721466064 0.9323740005493164 -0
vn 0.36149513721466064 0.9323740005493164 -0
vn 0.36149513721466064 0.9323740005493164 -0
vn 0.12846209108829498 0.9917144179344177 -0
vn 0.12846209108829498 0.9917144179344177 -0
vn 0.12846209108829498 0.9917144179344177 -0
vn 0.00014578556874766946 0.000207552220672369 0.9999999403953552
vn 0.00014578556874766946 0.000207552220672369 0.9999999403953552
vn 0.00014578556874766946 0.000207552220672369 0.9999999403953552
vn 0.3614943325519562 0.9323742985725403 -0
vn 0.3614943325519562 0.9323742985725403 -0
vn 0.3614943325519562 0.9323742985725403 -0
vn 0.1284618377685547 0.9917144179344177 -0
vn 0.1284618377685547 0.9917144179344177 -0
vn 0.1284618377685547 0.9917144179344177 -0
vn 0.09785043448209763 0.13955150544643402 -0.9853682518005371
vn 0.09785043448209763 0.13955150544643402 -0.9853682518005371
vn 0.09785043448209763 0.13955150544643402 -0.9853682518005371
vn 0.00014657971041742712 0.00020739546744152904 1
vn 0.00014657971041742712 0.00020739546744152904 1
vn 0.00014657971041742712 0.00020739546744152904 1
vn 0.6808382868766785 0.5934439301490784 -0.42928245663642883
vn 0.6808382868766785 0.5934439301490784 -0.42928245663642883
vn 0.6808382868766785 0.5934439301490784 -0.42928245663642883
vn 0.574205756187439 0.8187110424041748 -0
vn 0.574205756187439 0.8187110424041748 -0
vn 0.574205756187439 0.8187110424041748 -0
vn 0.06161074712872505 0.15890564024448395 -0.9853695034980774
vn 0.06161074712872505 0.15890564024448395 -0.9853695034980774
vn 0.06161074712872505 0.15890564024448395 -0.9853695034980774
vn -0.01898728497326374 0.1693505346775055 -0.9853729605674744
vn -0.01898728497326374 0.1693505346775055 -0.9853729605674744
vn -0.01898728497326374 0.1693505346775055 -0.9853729605674744
vn 0.5742048621177673 0.8187115788459778 -0
vn 0.5742048621177673 0.8187115788459778 -0
vn 0.5742048621177673 0.8187115788459778 -0
vn -0.000027068424969911575 0.00024382915580645204 0.9999998807907104
vn -0.000027068424969911575 0.00024382915580645204 0.9999998807907104
vn -0.000027068424969911575 0.00024382915580645204 0.9999998807907104
vn 0.02189318835735321 0.1690092831850052 -0.9853712916374207
vn 0.02189318835735321 0.1690092831850052 -0.9853712916374207
vn 0.02189318835735321 0.1690092831850052 -0.9853712916374207
vn 0.09785296767950058 0.1395512968301773 -0.985368013381958
vn 0.09785296767950058 0.1395512968301773 -0.985368013381958
vn 0.09785296767950058 0.1395512968301773 -0.985368013381958
vn -0.000026677311325329356 0.00024395475338678807 1
vn -0.000026677311325329356 0.00024395475338678807 1
vn -0.000026677311325329356 0.00024395475338678807 1
vn 0.00009034112736117095 0.0002336995821679011 1
vn 0.00009034112736117095 0.0002336995821679011 1
vn 0.00009034112736117095 0.0002336995821679011 1
vn -0.11126699298620224 0.9937905669212341 -0
vn -0.11126699298620224 0.9937905669212341 -0
vn -0.11126699298620224 0.9937905669212341 -0
vn 0.5186744928359985 0.7395347952842712 -0.42902812361717224
vn 0.5186744928359985 0.7395347952842712 -0.42902812361717224
vn 0.5186744928359985 0.7395347952842712 -0.42902812361717224
vn 0.00009133321873378009 0.00023355416487902403 0.9999999403953552
vn 0.00009133321873378009 0.00023355416487902403 0.9999999403953552
vn 0.00009133321873378009 0.00023355416487902403 0.9999999403953552
vn 0.00003185829336871393 0.00024588749511167407 1
vn 0.00003185829336871393 0.00024588749511167407 1
vn 0.00003185829336871393 0.00024588749511167407 1
vn 0.00003165571251884103 0.00024573711561970413 0.9999998807907104
vn 0.00003165571251884103 0.00024573711561970413 0.9999998807907104
vn 0.00003165571251884103 0.00024573711561970413 0.9999998807907104
vn -0.018989084288477898 0.16935065388679504 -0.9853728413581848
vn -0.018989084288477898 0.16935065388679504 -0.9853728413581848
vn -0.018989084288477898 0.16935065388679504 -0.9853728413581848
vn -0.11126739531755447 0.9937905073165894 -0
vn -0.11126739531755447 0.9937905073165894 -0
vn -0.11126739531755447 0.9937905073165894 -0
vn 0.36157718300819397 0.9323421716690063 -0
vn 0.36157718300819397 0.9323421716690063 -0
vn 0.36157718300819397 0.9323421716690063 -0
vn 0.36157792806625366 0.9323418736457825 -0
vn 0.36157792806625366 0.9323418736457825 -0
vn 0.36157792806625366 0.9323418736457825 -0
vn 0.12860125303268433 0.991696298122406 -0
vn 0.12860125303268433 0.991696298122406 -0
vn 0.12860125303268433 0.991696298122406 -0
vn 0.06161060556769371 0.15890510380268097 -0.9853695631027222
vn 0.06161060556769371 0.15890510380268097 -0.9853695631027222
vn 0.06161060556769371 0.15890510380268097 -0.9853695631027222
vn 0.5185654759407043 0.7395430207252502 -0.42914560437202454
vn 0.5185654759407043 0.7395430207252502 -0.42914560437202454
vn 0.5185654759407043 0.7395430207252502 -0.42914560437202454
vn 0.1286020427942276 0.9916962385177612 -0
vn 0.1286020427942276 0.9916962385177612 -0
vn 0.1286020427942276 0.9916962385177612 -0
vn 0.021893268451094627 0.16900846362113953 -0.9853714108467102
vn 0.021893268451094627 0.16900846362113953 -0.9853714108467102
vn 0.021893268451094627 0.16900846362113953 -0.9853714108467102
vn -0.10052645206451416 0.8978577256202698 -0.4286559224128723
vn -0.10052645206451416 0.8978577256202698 -0.4286559224128723
vn -0.10052645206451416 0.8978577256202698 -0.4286559224128723
vn 0.32663366198539734 0.8422372937202454 -0.428890198469162
vn 0.32663366198539734 0.8422372937202454 -0.428890198469162
vn 0.32663366198539734 0.8422372937202454 -0.428890198469162
vn -0.10066153854131699 0.8977574706077576 -0.4288342297077179
vn -0.10066153854131699 0.8977574706077576 -0.4288342297077179
vn -0.10066153854131699 0.8977574706077576 -0.4288342297077179
vn 0.11618265509605408 0.8959270119667053 -0.4287380278110504
vn 0.11618265509605408 0.8959270119667053 -0.4287380278110504
vn 0.11618265509605408 0.8959270119667053 -0.4287380278110504
vn 0.3265458345413208 0.8422237038612366 -0.42898380756378174
vn 0.3265458345413208 0.8422237038612366 -0.42898380756378174
vn 0.3265458345413208 0.8422237038612366 -0.42898380756378174
vn 0.11605413258075714 0.8958725929260254 -0.4288865923881531
vn 0.11605413258075714 0.8958725929260254 -0.4288865923881531
vn 0.11605413258075714 0.8958725929260254 -0.4288865923881531
f 3/3/3 2/2/2 1/1/1
f 6/6/6 5/5/5 4/4/4
f 9/9/9 8/8/8 7/7/7
f 12/12/12 11/11/11 10/10/10
f 15/15/15 14/14/14 13/13/13
f 18/18/18 17/17/17 16/16/16
f 21/21/21 20/20/20 19/19/19
f 24/24/24 23/23/23 22/22/22
f 27/27/27 26/26/26 25/25/25
f 30/30/30 29/29/29 28/28/28
f 33/33/33 32/32/32 31/31/31
f 36/36/36 35/35/35 34/34/34
f 39/39/39 38/38/38 37/37/37
f 42/42/42 41/41/41 40/40/40
f 45/45/45 44/44/44 43/43/43
f 48/48/48 47/47/47 46/46/46
f 51/51/51 50/50/50 49/49/49
f 54/54/54 53/53/53 52/52/52
f 57/57/57 56/56/56 55/55/55
f 60/60/60 59/59/59 58/58/58
f 63/63/63 62/62/62 61/61/61
f 66/66/66 65/65/65 64/64/64
f 69/69/69 68/68/68 67/67/67
f 72/72/72 71/71/71 70/70/70
f 75/75/75 74/74/74 73/73/73
f 78/78/78 77/77/77 76/76/76
f 81/81/81 80/80/80 79/79/79
f 84/84/84 83/83/83 82/82/82
f 87/87/87 86/86/86 85/85/85
f 90/90/90 89/89/89 88/88/88
f 93/93/93 92/92/92 91/91/91
f 96/96/96 95/95/95 94/94/94
f 99/99/99 98/98/98 97/97/97
f 102/102/102 101/101/101 100/100/100
f 105/105/105 104/104/104 103/103/103
f 108/108/108 107/107/107 106/106/106
f 111/111/111 110/110/110 109/109/109
f 114/114/114 113/113/113 112/112/112
f 117/117/117 116/116/116 115/115/115
f 120/120/120 119/119/119 118/118/118
f 123/123/123 122/122/122 121/121/121
f 126/126/126 125/125/125 124/124/124
f 129/129/129 128/128/128 127/127/127
f 132/132/132 131/131/131 130/130/130
f 135/135/135 134/134/134 133/133/133
f 138/138/138 137/137/137 136/136/136
f 141/141/141 140/140/140 139/139/139
f 144/144/144 143/143/143 142/142/142
f 147/147/147 146/146/146 145/145/145
