# VPXTOOL table OBJ file
# VPXTOOL OBJ file
# numVerts: 122 numFaces: 138
o LM_L_LC7_UnderPF
v 81.86094665527344 737.9422607421875 -12.153261184692383
v 76.05508422851563 739.09716796875 -12.153261184692383
v 81.86094665527344 737.9422607421875 -5.324187755584717
v 76.05508422851563 739.09716796875 -12.153261184692383
v 70.24922180175781 737.9422607421875 -12.153261184692383
v 76.05508422851563 739.09716796875 -5.324187755584717
v 86.78292846679688 734.6534423828125 -12.153261184692383
v 81.86094665527344 737.9422607421875 -12.153261184692383
v 86.78292846679688 734.6534423828125 -5.324187755584717
v 76.05508422851563 739.09716796875 -12.153261184692383
v 76.05508422851563 739.09716796875 -5.324187755584717
v 81.86094665527344 737.9422607421875 -5.324187755584717
v 70.24922180175781 737.9422607421875 -12.153261184692383
v 65.32723999023438 734.6534423828125 -12.153261184692383
v 70.24922180175781 737.9422607421875 -5.324187755584717
v 81.86094665527344 737.9422607421875 -12.153261184692383
v 81.86094665527344 737.9422607421875 -5.324187755584717
v 86.78292846679688 734.6534423828125 -5.324187755584717
v 70.24922180175781 737.9422607421875 -12.153261184692383
v 70.24922180175781 737.9422607421875 -5.324187755584717
v 76.05508422851563 739.09716796875 -5.324187755584717
v 90.07170104980469 729.7314453125 -12.153261184692383
v 86.78292846679688 734.6534423828125 -12.153261184692383
v 90.07170104980469 729.7314453125 -5.324187755584717
v 86.78292846679688 734.6534423828125 -12.153261184692383
v 86.78292846679688 734.6534423828125 -5.324187755584717
v 90.07170104980469 729.7314453125 -5.324187755584717
v 86.78292846679688 734.6534423828125 -5.324187755584717
v 81.86094665527344 737.9422607421875 -5.324187755584717
v 76.05508422851563 739.09716796875 -5.324187755584717
v 65.32723999023438 734.6534423828125 -12.153261184692383
v 65.32723999023438 734.6534423828125 -5.324187755584717
v 70.24922180175781 737.9422607421875 -5.324187755584717
v 65.32723999023438 734.6534423828125 -12.153261184692383
v 62.03846740722656 729.7314453125 -12.153261184692383
v 65.32723999023438 734.6534423828125 -5.324187755584717
v 76.05508422851563 739.09716796875 -5.324187755584717
v 70.24922180175781 737.9422607421875 -5.324187755584717
v 65.32723999023438 734.6534423828125 -5.324187755584717
v 91.22657775878906 723.9255981445313 -12.153261184692383
v 90.07170104980469 729.7314453125 -12.153261184692383
v 91.22657775878906 723.9255981445313 -5.324187755584717
v 90.07170104980469 729.7314453125 -12.153261184692383
v 90.07170104980469 729.7314453125 -5.324187755584717
v 91.22657775878906 723.9255981445313 -5.324187755584717
v 91.22657775878906 723.9255981445313 -5.324187755584717
v 90.07170104980469 729.7314453125 -5.324187755584717
v 86.78292846679688 734.6534423828125 -5.324187755584717
v 62.03846740722656 729.7314453125 -12.153261184692383
v 62.03846740722656 729.7314453125 -5.324187755584717
v 65.32723999023438 734.6534423828125 -5.324187755584717
v 62.03846740722656 729.7314453125 -12.153261184692383
v 60.88359069824219 723.9255981445313 -12.153261184692383
v 62.03846740722656 729.7314453125 -5.324187755584717
v 90.07170104980469 718.1197509765625 -12.153261184692383
v 91.22657775878906 723.9255981445313 -12.153261184692383
v 90.07170104980469 718.1197509765625 -5.324187755584717
v 76.05508422851563 708.754150390625 -5.324187755584717
v 76.05508422851563 739.09716796875 -5.324187755584717
v 91.22657775878906 723.9255981445313 -12.153261184692383
v 91.22657775878906 723.9255981445313 -5.324187755584717
v 90.07170104980469 718.1197509765625 -5.324187755584717
v 65.32723999023438 734.6534423828125 -5.324187755584717
v 62.03846740722656 729.7314453125 -5.324187755584717
v 60.88359069824219 723.9255981445313 -5.324187755584717
v 60.88359069824219 723.9255981445313 -12.153261184692383
v 60.88359069824219 723.9255981445313 -5.324187755584717
v 62.03846740722656 729.7314453125 -5.324187755584717
v 60.88359069824219 723.9255981445313 -12.153261184692383
v 62.03846740722656 718.1197509765625 -12.153261184692383
v 60.88359069824219 723.9255981445313 -5.324187755584717
v 76.05508422851563 708.754150390625 -5.324187755584717
v 91.22657775878906 723.9255981445313 -5.324187755584717
v 86.78292846679688 734.6534423828125 -5.324187755584717
v 86.78292846679688 713.19775390625 -12.153261184692383
v 90.07170104980469 718.1197509765625 -12.153261184692383
v 86.78292846679688 713.19775390625 -5.324187755584717
v 90.07170104980469 718.1197509765625 -12.153261184692383
v 90.07170104980469 718.1197509765625 -5.324187755584717
v 86.78292846679688 713.19775390625 -5.324187755584717
v 86.78292846679688 713.19775390625 -5.324187755584717
v 90.07170104980469 718.1197509765625 -5.324187755584717
v 62.03846740722656 718.1197509765625 -12.153261184692383
v 62.03846740722656 718.1197509765625 -5.324187755584717
v 60.88359069824219 723.9255981445313 -5.324187755584717
v 62.03846740722656 718.1197509765625 -12.153261184692383
v 65.32723999023438 713.19775390625 -12.153261184692383
v 62.03846740722656 718.1197509765625 -5.324187755584717
v 81.86094665527344 709.9090576171875 -12.153261184692383
v 86.78292846679688 713.19775390625 -12.153261184692383
v 81.86094665527344 709.9090576171875 -5.324187755584717
v 81.86094665527344 709.9090576171875 -5.324187755584717
v 86.78292846679688 713.19775390625 -12.153261184692383
v 86.78292846679688 713.19775390625 -5.324187755584717
v 81.86094665527344 709.9090576171875 -5.324187755584717
v 65.32723999023438 713.19775390625 -12.153261184692383
v 70.24922180175781 709.9090576171875 -12.153261184692383
v 65.32723999023438 713.19775390625 -5.324187755584717
v 76.05508422851563 708.754150390625 -12.153261184692383
v 81.86094665527344 709.9090576171875 -12.153261184692383
v 76.05508422851563 708.754150390625 -5.324187755584717
v 62.03846740722656 718.1197509765625 -5.324187755584717
v 65.32723999023438 713.19775390625 -5.324187755584717
v 65.32723999023438 713.19775390625 -12.153261184692383
v 65.32723999023438 713.19775390625 -5.324187755584717
v 62.03846740722656 718.1197509765625 -5.324187755584717
v 70.24922180175781 709.9090576171875 -12.153261184692383
v 76.05508422851563 708.754150390625 -12.153261184692383
v 70.24922180175781 709.9090576171875 -5.324187755584717
v 81.86094665527344 709.9090576171875 -12.153261184692383
v 81.86094665527344 709.9090576171875 -5.324187755584717
v 76.05508422851563 708.754150390625 -5.324187755584717
v 60.88359069824219 723.9255981445313 -5.324187755584717
v 65.32723999023438 713.19775390625 -5.324187755584717
v 70.24922180175781 709.9090576171875 -5.324187755584717
v 70.24922180175781 709.9090576171875 -5.324187755584717
v 70.24922180175781 709.9090576171875 -12.153261184692383
v 70.24922180175781 709.9090576171875 -5.324187755584717
v 65.32723999023438 713.19775390625 -5.324187755584717
v 76.05508422851563 708.754150390625 -12.153261184692383
v 76.05508422851563 708.754150390625 -5.324187755584717
v 70.24922180175781 709.9090576171875 -5.324187755584717
vt 0.9509662985801697 0.8277285099029541
vt 0.9433320164680481 0.8280487656593323
vt 0.9508312940597534 0.8283827304840088
vt 0.9433320164680481 0.8280487656593323
vt 0.9356744289398193 0.8277285099029541
vt 0.9432126879692078 0.828702449798584
vt 0.9574069380760193 0.8268173336982727
vt 0.9509662985801697 0.8277285099029541
vt 0.9572587609291077 0.8274730443954468
vt 0.9433320164680481 0.8280487656593323
vt 0.9432126879692078 0.828702449798584
vt 0.9508312940597534 0.8283827304840088
vt 0.9356744289398193 0.8277285099029541
vt 0.9291673302650452 0.8268173336982727
vt 0.9355708360671997 0.8283827304840088
vt 0.9509662985801697 0.8277285099029541
vt 0.9508312940597534 0.8283827304840088
vt 0.9572587609291077 0.8274730443954468
vt 0.9356744289398193 0.8277285099029541
vt 0.9355708360671997 0.8283827304840088
vt 0.9432126879692078 0.828702449798584
vt 0.9616701006889343 0.8254555463790894
vt 0.9574069380760193 0.8268173336982727
vt 0.9615134000778198 0.8261135220527649
vt 0.9574069380760193 0.8268173336982727
vt 0.9572587609291077 0.8274730443954468
vt 0.9615134000778198 0.8261135220527649
vt 0.9572587609291077 0.8274730443954468
vt 0.9508312940597534 0.8283827304840088
vt 0.9432126879692078 0.828702449798584
vt 0.9291673302650452 0.8268173336982727
vt 0.9290771484375 0.8274730443954468
vt 0.9355708360671997 0.8283827304840088
vt 0.9291673302650452 0.8268173336982727
vt 0.9248049259185791 0.8254555463790894
vt 0.9290771484375 0.8274730443954468
vt 0.9432126879692078 0.828702449798584
vt 0.9355708360671997 0.8283827304840088
vt 0.9290771484375 0.8274730443954468
vt 0.9631102681159973 0.8238522410392761
vt 0.9616701006889343 0.8254555463790894
vt 0.9629507660865784 0.824512779712677
vt 0.9616701006889343 0.8254555463790894
vt 0.9615134000778198 0.8261135220527649
vt 0.9629507660865784 0.824512779712677
vt 0.9629507660865784 0.824512779712677
vt 0.9615134000778198 0.8261135220527649
vt 0.9572587609291077 0.8274730443954468
vt 0.9248049259185791 0.8254555463790894
vt 0.924723744392395 0.8261135220527649
vt 0.9290771484375 0.8274730443954468
vt 0.9248049259185791 0.8254555463790894
vt 0.9232478737831116 0.8238522410392761
vt 0.924723744392395 0.8261135220527649
vt 0.9615162014961243 0.8222521543502808
vt 0.9631102681159973 0.8238522410392761
vt 0.9613601565361023 0.8229153156280518
vt 0.942908763885498 0.8203451037406921
vt 0.9432126879692078 0.828702449798584
vt 0.9631102681159973 0.8238522410392761
vt 0.9629507660865784 0.824512779712677
vt 0.9613601565361023 0.8229153156280518
vt 0.9290771484375 0.8274730443954468
vt 0.924723744392395 0.8261135220527649
vt 0.9231699109077454 0.824512779712677
vt 0.9232478737831116 0.8238522410392761
vt 0.9231699109077454 0.824512779712677
vt 0.924723744392395 0.8261135220527649
vt 0.9232478737831116 0.8238522410392761
vt 0.9247251749038696 0.8222521543502808
vt 0.9231699109077454 0.824512779712677
vt 0.942908763885498 0.8203451037406921
vt 0.9629507660865784 0.824512779712677
vt 0.9572587609291077 0.8274730443954468
vt 0.95713871717453 0.820898175239563
vt 0.9615162014961243 0.8222521543502808
vt 0.9569916129112244 0.8215635418891907
vt 0.9615162014961243 0.8222521543502808
vt 0.9613601565361023 0.8229153156280518
vt 0.9569916129112244 0.8215635418891907
vt 0.9569916129112244 0.8215635418891907
vt 0.9613601565361023 0.8229153156280518
vt 0.9247251749038696 0.8222521543502808
vt 0.9246443510055542 0.8229153156280518
vt 0.9231699109077454 0.824512779712677
vt 0.9247251749038696 0.8222521543502808
vt 0.9290040731430054 0.820898175239563
vt 0.9246443510055542 0.8229153156280518
vt 0.950647234916687 0.8199947476387024
vt 0.95713871717453 0.820898175239563
vt 0.9505135416984558 0.8206615447998047
vt 0.9505135416984558 0.8206615447998047
vt 0.95713871717453 0.820898175239563
vt 0.9569916129112244 0.8215635418891907
vt 0.9505135416984558 0.8206615447998047
vt 0.9290040731430054 0.820898175239563
vt 0.935429573059082 0.8199947476387024
vt 0.928914487361908 0.8215635418891907
vt 0.9430268406867981 0.8196777701377869
vt 0.950647234916687 0.8199947476387024
vt 0.942908763885498 0.8203451037406921
vt 0.9246443510055542 0.8229153156280518
vt 0.928914487361908 0.8215635418891907
vt 0.9290040731430054 0.820898175239563
vt 0.928914487361908 0.8215635418891907
vt 0.9246443510055542 0.8229153156280518
vt 0.935429573059082 0.8199947476387024
vt 0.9430268406867981 0.8196777701377869
vt 0.9353269934654236 0.8206615447998047
vt 0.950647234916687 0.8199947476387024
vt 0.9505135416984558 0.8206615447998047
vt 0.942908763885498 0.8203451037406921
vt 0.9231699109077454 0.824512779712677
vt 0.928914487361908 0.8215635418891907
vt 0.9353269934654236 0.8206615447998047
vt 0.9353269934654236 0.8206615447998047
vt 0.935429573059082 0.8199947476387024
vt 0.9353269934654236 0.8206615447998047
vt 0.928914487361908 0.8215635418891907
vt 0.9430268406867981 0.8196777701377869
vt 0.942908763885498 0.8203451037406921
vt 0.9353269934654236 0.8206615447998047
vn -0.19509360194206238 -0.9807846546173096 -0
vn -0.19509360194206238 -0.9807846546173096 -0
vn -0.19509360194206238 -0.9807846546173096 -0
vn 0.19509360194206238 -0.9807846546173096 -0
vn 0.19509360194206238 -0.9807846546173096 -0
vn 0.19509360194206238 -0.9807846546173096 -0
vn -0.555578887462616 -0.8314639329910278 -0
vn -0.555578887462616 -0.8314639329910278 -0
vn -0.555578887462616 -0.8314639329910278 -0
vn -0.19509363174438477 -0.9807846546173096 -0
vn -0.19509363174438477 -0.9807846546173096 -0
vn -0.19509363174438477 -0.9807846546173096 -0
vn 0.5555776357650757 -0.8314645886421204 -0
vn 0.5555776357650757 -0.8314645886421204 -0
vn 0.5555776357650757 -0.8314645886421204 -0
vn -0.5555775165557861 -0.8314647078514099 -0
vn -0.5555775165557861 -0.8314647078514099 -0
vn -0.5555775165557861 -0.8314647078514099 -0
vn 0.19509363174438477 -0.9807846546173096 -0
vn 0.19509363174438477 -0.9807846546173096 -0
vn 0.19509363174438477 -0.9807846546173096 -0
vn -0.8314685225486755 -0.5555718541145325 -0
vn -0.8314685225486755 -0.5555718541145325 -0
vn -0.8314685225486755 -0.5555718541145325 -0
vn -0.8314686417579651 -0.5555717945098877 -0
vn -0.8314686417579651 -0.5555717945098877 -0
vn -0.8314686417579651 -0.5555717945098877 -0
vn -0.0000002327920185507537 -0 -1
vn -0.0000002327920185507537 -0 -1
vn -0.0000002327920185507537 -0 -1
vn 0.5555787086486816 -0.8314639925956726 -0
vn 0.5555787086486816 -0.8314639925956726 -0
vn 0.5555787086486816 -0.8314639925956726 -0
vn 0.8314685225486755 -0.5555718541145325 -0
vn 0.8314685225486755 -0.5555718541145325 -0
vn 0.8314685225486755 -0.5555718541145325 -0
vn 0.00000017459402101849264 -0 -1
vn 0.00000017459402101849264 -0 -1
vn 0.00000017459402101849264 -0 -1
vn -0.9807848930358887 -0.1950923502445221 -0
vn -0.9807848930358887 -0.1950923502445221 -0
vn -0.9807848930358887 -0.1950923502445221 -0
vn -0.9807843565940857 -0.1950947493314743 -0
vn -0.9807843565940857 -0.1950947493314743 -0
vn -0.9807843565940857 -0.1950947493314743 -0
vn 0 -0 -1
vn 0 -0 -1
vn 0 -0 -1
vn 0.8314686417579651 -0.5555717945098877 -0
vn 0.8314686417579651 -0.5555717945098877 -0
vn 0.8314686417579651 -0.5555717945098877 -0
vn 0.9807848930358887 -0.1950923502445221 -0
vn 0.9807848930358887 -0.1950923502445221 -0
vn 0.9807848930358887 -0.1950923502445221 -0
vn -0.9807843565940857 0.19509471952915192 -0
vn -0.9807843565940857 0.19509471952915192 -0
vn -0.9807843565940857 0.19509471952915192 -0
vn 0 -0 -1
vn 0 -0 -1
vn -0.9807848334312439 0.1950923651456833 -0
vn -0.9807848334312439 0.1950923651456833 -0
vn -0.9807848334312439 0.1950923651456833 -0
vn 0 -0 -1
vn 0 -0 -1
vn 0 -0 -1
vn 0.9807843565940857 -0.1950947493314743 -0
vn 0.9807843565940857 -0.1950947493314743 -0
vn 0.9807843565940857 -0.1950947493314743 -0
vn 0.9807843565940857 0.19509471952915192 -0
vn 0.9807843565940857 0.19509471952915192 -0
vn 0.9807843565940857 0.19509471952915192 -0
vn 0.000000054251966474794244 -0 -1
vn 0.000000054251966474794244 -0 -1
vn 0.000000054251966474794244 -0 -1
vn -0.8314685225486755 0.5555718541145325 -0
vn -0.8314685225486755 0.5555718541145325 -0
vn -0.8314685225486755 0.5555718541145325 -0
vn -0.8314686417579651 0.5555717945098877 -0
vn -0.8314686417579651 0.5555717945098877 -0
vn -0.8314686417579651 0.5555717945098877 -0
vn 0 -0 -1
vn 0 -0 -1
vn 0.9807848334312439 0.1950923651456833 -0
vn 0.9807848334312439 0.1950923651456833 -0
vn 0.9807848334312439 0.1950923651456833 -0
vn 0.8314685225486755 0.5555718541145325 -0
vn 0.8314685225486755 0.5555718541145325 -0
vn 0.8314685225486755 0.5555718541145325 -0
vn -0.5555647015571594 0.8314732313156128 -0
vn -0.5555647015571594 0.8314732313156128 -0
vn -0.5555647015571594 0.8314732313156128 -0
vn 0 -0 -1
vn -0.5555657744407654 0.8314725756645203 -0
vn -0.5555657744407654 0.8314725756645203 -0
vn -0.5555657744407654 0.8314725756645203 -0
vn 0.5555658936500549 0.8314725160598755 -0
vn 0.5555658936500549 0.8314725160598755 -0
vn 0.5555658936500549 0.8314725160598755 -0
vn -0.19509360194206238 0.9807846546173096 -0
vn -0.19509360194206238 0.9807846546173096 -0
vn -0.19509360194206238 0.9807846546173096 -0
vn 0 -0 -1
vn 0 -0 -1
vn 0.8314686417579651 0.5555717945098877 -0
vn 0.8314686417579651 0.5555717945098877 -0
vn 0.8314686417579651 0.5555717945098877 -0
vn 0.19509360194206238 0.9807846546173096 -0
vn 0.19509360194206238 0.9807846546173096 -0
vn 0.19509360194206238 0.9807846546173096 -0
vn -0.19509363174438477 0.9807846546173096 -0
vn -0.19509363174438477 0.9807846546173096 -0
vn -0.19509363174438477 0.9807846546173096 -0
vn 0.00000032700256724638166 -0 -1
vn 0.00000032700256724638166 -0 -1
vn 0.00000032700256724638166 -0 -1
vn 0 -0 -1
vn 0.5555647015571594 0.8314733505249023 -0
vn 0.5555647015571594 0.8314733505249023 -0
vn 0.5555647015571594 0.8314733505249023 -0
vn 0.19509363174438477 0.9807846546173096 -0
vn 0.19509363174438477 0.9807846546173096 -0
vn 0.19509363174438477 0.9807846546173096 -0
f 3/3/3 2/2/2 1/1/1
f 6/6/6 5/5/5 4/4/4
f 9/9/9 8/8/8 7/7/7
f 12/12/12 11/11/11 10/10/10
f 15/15/15 14/14/14 13/13/13
f 18/18/18 17/17/17 16/16/16
f 21/21/21 20/20/20 19/19/19
f 24/24/24 23/23/23 22/22/22
f 27/27/27 26/26/26 25/25/25
f 30/30/30 29/29/29 28/28/28
f 33/33/33 32/32/32 31/31/31
f 36/36/36 35/35/35 34/34/34
f 39/39/39 38/38/38 37/37/37
f 42/42/42 41/41/41 40/40/40
f 45/45/45 44/44/44 43/43/43
f 48/48/48 47/47/47 46/46/46
f 51/51/51 50/50/50 49/49/49
f 54/54/54 53/53/53 52/52/52
f 57/57/57 56/56/56 55/55/55
f 59/59/59 48/48/48 58/58/58
f 62/62/62 61/61/61 60/60/60
f 63/63/63 59/59/59 58/58/58
f 65/65/65 64/64/64 63/63/63
f 68/68/68 67/67/67 66/66/66
f 71/71/71 70/70/70 69/69/69
f 74/74/74 73/73/73 72/72/72
f 77/77/77 76/76/76 75/75/75
f 80/80/80 79/79/79 78/78/78
f 46/46/46 82/82/82 81/81/81
f 65/65/65 63/63/63 58/58/58
f 85/85/85 84/84/84 83/83/83
f 88/88/88 87/87/87 86/86/86
f 91/91/91 90/90/90 89/89/89
f 81/81/81 92/92/92 46/46/46
f 95/95/95 94/94/94 93/93/93
f 98/98/98 97/97/97 96/96/96
f 101/101/101 100/100/100 99/99/99
f 103/103/103 102/102/102 65/65/65
f 92/92/92 58/58/58 46/46/46
f 106/106/106 105/105/105 104/104/104
f 109/109/109 108/108/108 107/107/107
f 112/112/112 111/111/111 110/110/110
f 115/115/115 114/114/114 113/113/113
f 58/58/58 116/116/116 65/65/65
f 119/119/119 118/118/118 117/117/117
f 122/122/122 121/121/121 120/120/120
