# VPXTOOL table OBJ file
# VPXTOOL OBJ file
# numVerts: 126 numFaces: 126
o LM_L_LLI_swLI
v 2406.860107421875 -27384.458984375 -28485.330078125
v 1026.2330322265625 -4602.14697265625 -35424.07421875
v 2021.2559814453125 10298.2333984375 -42271.35546875
v -2571.7314453125 7738.09326171875 -40651.296875
v 457.4668273925781 9405.802734375 -36906.8671875
v -1764.8743896484375 -5397.10205078125 -36081.71484375
v 1026.2330322265625 -4602.14697265625 -35424.07421875
v 457.4668273925781 9405.802734375 -36906.8671875
v 2021.2559814453125 10298.2333984375 -42271.35546875
v -2023.6871337890625 -13567.162109375 -37737.90625
v -1764.8743896484375 -5397.10205078125 -36081.71484375
v -1387.60986328125 -22341.072265625 -29527.927734375
v -1764.8743896484375 -5397.10205078125 -36081.71484375
v -2023.6871337890625 -13567.162109375 -37737.90625
v -2571.7314453125 7738.09326171875 -40651.296875
v 2406.860107421875 -27384.458984375 -28485.330078125
v 2021.2559814453125 10298.2333984375 -42271.35546875
v 926.100341796875 -20816.974609375 -35777.89453125
v -2023.6871337890625 -13567.162109375 -37737.90625
v 915.52734375 -5077.76318359375 -40925.40234375
v -2571.7314453125 7738.09326171875 -40651.296875
v 2021.2559814453125 10298.2333984375 -42271.35546875
v 915.52734375 -5077.76318359375 -40925.40234375
v 926.100341796875 -20816.974609375 -35777.89453125
v 2021.2559814453125 10298.2333984375 -42271.35546875
v 457.4668273925781 9405.802734375 -36906.8671875
v 2410.33740234375 31765.419921875 -34928.0625
v 915.52734375 -5077.76318359375 -40925.40234375
v 2021.2559814453125 10298.2333984375 -42271.35546875
v -2571.7314453125 7738.09326171875 -40651.296875
v -1387.60986328125 -22341.072265625 -29527.927734375
v 2406.860107421875 -27384.458984375 -28485.330078125
v 464.08203125 -33223.25390625 -22607.765625
v 926.100341796875 -20816.974609375 -35777.89453125
v 915.52734375 -5077.76318359375 -40925.40234375
v -2023.6871337890625 -13567.162109375 -37737.90625
v -2200.29052734375 -34392.73046875 -27120.640625
v -2023.6871337890625 -13567.162109375 -37737.90625
v -1387.60986328125 -22341.072265625 -29527.927734375
v -2135.35400390625 30667.861328125 -38229.88671875
v -2571.7314453125 7738.09326171875 -40651.296875
v 2021.2559814453125 10298.2333984375 -42271.35546875
v 926.100341796875 -20816.974609375 -35777.89453125
v -2023.6871337890625 -13567.162109375 -37737.90625
v 927.9661865234375 -35569.4453125 -27910.48046875
v -2135.35400390625 30667.861328125 -38229.88671875
v -1378.4503173828125 36018.1484375 -31905.9765625
v -2571.7314453125 7738.09326171875 -40651.296875
v 2406.860107421875 -27384.458984375 -28485.330078125
v 926.100341796875 -20816.974609375 -35777.89453125
v 927.9661865234375 -35569.4453125 -27910.48046875
v -2023.6871337890625 -13567.162109375 -37737.90625
v -2200.29052734375 -34392.73046875 -27120.640625
v 927.9661865234375 -35569.4453125 -27910.48046875
v 2410.33740234375 31765.419921875 -34928.0625
v 920.9834594726563 25583.541015625 -40615.96484375
v 2021.2559814453125 10298.2333984375 -42271.35546875
v 568.709716796875 -44682.14453125 -13133.0546875
v 464.08203125 -33223.25390625 -22607.765625
v 2406.860107421875 -27384.458984375 -28485.330078125
v 920.9834594726563 25583.541015625 -40615.96484375
v -2135.35400390625 30667.861328125 -38229.88671875
v 2021.2559814453125 10298.2333984375 -42271.35546875
v -2304.18310546875 -54873.62890625 -6629.35498046875
v -1387.60986328125 -22341.072265625 -29527.927734375
v 464.08203125 -33223.25390625 -22607.765625
v -2200.29052734375 -34392.73046875 -27120.640625
v -1387.60986328125 -22341.072265625 -29527.927734375
v -2304.18310546875 -54873.62890625 -6629.35498046875
v 2406.860107421875 -27384.458984375 -28485.330078125
v 927.9661865234375 -35569.4453125 -27910.48046875
v 2444.40283203125 -53167.69921875 -9346.2724609375
v 2444.40283203125 -53167.69921875 -9346.2724609375
v 568.709716796875 -44682.14453125 -13133.0546875
v 2406.860107421875 -27384.458984375 -28485.330078125
v 927.9661865234375 -35569.4453125 -27910.48046875
v -2200.29052734375 -34392.73046875 -27120.640625
v -365.3345642089844 -47940.66796875 -18028.685546875
v 568.709716796875 -44682.14453125 -13133.0546875
v -2304.18310546875 -54873.62890625 -6629.35498046875
v 464.08203125 -33223.25390625 -22607.765625
v -2200.29052734375 -34392.73046875 -27120.640625
v -2304.18310546875 -54873.62890625 -6629.35498046875
v -365.3345642089844 -47940.66796875 -18028.685546875
v -365.3345642089844 -47940.66796875 -18028.685546875
v 2444.40283203125 -53167.69921875 -9346.2724609375
v 927.9661865234375 -35569.4453125 -27910.48046875
v -1346.3072509765625 -53519.37890625 -2135.947509765625
v 568.709716796875 -44682.14453125 -13133.0546875
v 1549.1734619140625 -54096.9921875 -1511.5267333984375
v 1549.1734619140625 -54096.9921875 -1511.5267333984375
v 568.709716796875 -44682.14453125 -13133.0546875
v 2444.40283203125 -53167.69921875 -9346.2724609375
v -2304.18310546875 -54873.62890625 -6629.35498046875
v 568.709716796875 -44682.14453125 -13133.0546875
v -1346.3072509765625 -53519.37890625 -2135.947509765625
v -365.3345642089844 -47940.66796875 -18028.685546875
v 211.96923828125 -57664.45703125 -5097.25244140625
v 2444.40283203125 -53167.69921875 -9346.2724609375
v -365.3345642089844 -47940.66796875 -18028.685546875
v -2304.18310546875 -54873.62890625 -6629.35498046875
v 211.96923828125 -57664.45703125 -5097.25244140625
v 1549.1734619140625 -54096.9921875 -1511.5267333984375
v 727.9834594726563 -61350.42578125 14002.9130859375
v -1346.3072509765625 -53519.37890625 -2135.947509765625
v 2444.40283203125 -53167.69921875 -9346.2724609375
v 1907.5535888671875 -64207.515625 9769.7314453125
v 1549.1734619140625 -54096.9921875 -1511.5267333984375
v -2304.18310546875 -54873.62890625 -6629.35498046875
v -1346.3072509765625 -53519.37890625 -2135.947509765625
v -2528.167236328125 -63154.9609375 11999.62109375
v 211.96923828125 -57664.45703125 -5097.25244140625
v 1907.5535888671875 -64207.515625 9769.7314453125
v 2444.40283203125 -53167.69921875 -9346.2724609375
v 211.96923828125 -57664.45703125 -5097.25244140625
v -2304.18310546875 -54873.62890625 -6629.35498046875
v 1907.5535888671875 -64207.515625 9769.7314453125
v -1346.3072509765625 -53519.37890625 -2135.947509765625
v 727.9834594726563 -61350.42578125 14002.9130859375
v -2528.167236328125 -63154.9609375 11999.62109375
v 1907.5535888671875 -64207.515625 9769.7314453125
v 727.9834594726563 -61350.42578125 14002.9130859375
v 1549.1734619140625 -54096.9921875 -1511.5267333984375
v -2304.18310546875 -54873.62890625 -6629.35498046875
v -2528.167236328125 -63154.9609375 11999.62109375
v 1907.5535888671875 -64207.515625 9769.7314453125
vt 0.18075990676879883 0.3208532929420471
vt 0.18007609248161316 0.32360655069351196
vt 0.17974546551704407 0.32530921697616577
vt 0.1791975051164627 0.3253509998321533
vt 0.1797528713941574 0.3255329728126526
vt 0.17955337464809418 0.3235664367675781
vt 0.18007609248161316 0.32360655069351196
vt 0.1797528713941574 0.3255329728126526
vt 0.17974546551704407 0.32530921697616577
vt 0.1796320378780365 0.3223222494125366
vt 0.17955337464809418 0.3235664367675781
vt 0.17998471856117249 0.3214569091796875
vt 0.17955337464809418 0.3235664367675781
vt 0.1796320378780365 0.3223222494125366
vt 0.1791975051164627 0.3253509998321533
vt 0.18075990676879883 0.3208532929420471
vt 0.17974546551704407 0.32530921697616577
vt 0.18025028705596924 0.3213125467300415
vt 0.1796320378780365 0.3223222494125366
vt 0.17995195090770721 0.323250412940979
vt 0.1791975051164627 0.3253509998321533
vt 0.17974546551704407 0.32530921697616577
vt 0.17995195090770721 0.323250412940979
vt 0.18025028705596924 0.3213125467300415
vt 0.17974546551704407 0.32530921697616577
vt 0.1797528713941574 0.3255329728126526
vt 0.1799173355102539 0.32894253730773926
vt 0.17995195090770721 0.323250412940979
vt 0.17974546551704407 0.32530921697616577
vt 0.1791975051164627 0.3253509998321533
vt 0.17998471856117249 0.3214569091796875
vt 0.18075990676879883 0.3208532929420471
vt 0.18057073652744293 0.3202418088912964
vt 0.18025028705596924 0.3213125467300415
vt 0.17995195090770721 0.323250412940979
vt 0.1796320378780365 0.3223222494125366
vt 0.18009962141513824 0.31989729404449463
vt 0.1796320378780365 0.3223222494125366
vt 0.17998471856117249 0.3214569091796875
vt 0.1791069507598877 0.32858461141586304
vt 0.1791975051164627 0.3253509998321533
vt 0.17974546551704407 0.32530921697616577
vt 0.18025028705596924 0.3213125467300415
vt 0.1796320378780365 0.3223222494125366
vt 0.18059217929840088 0.319694459438324
vt 0.1791069507598877 0.32858461141586304
vt 0.17922693490982056 0.3296664357185364
vt 0.1791975051164627 0.3253509998321533
vt 0.18075990676879883 0.3208532929420471
vt 0.18025028705596924 0.3213125467300415
vt 0.18059217929840088 0.319694459438324
vt 0.1796320378780365 0.3223222494125366
vt 0.18009962141513824 0.31989729404449463
vt 0.18059217929840088 0.319694459438324
vt 0.1799173355102539 0.32894253730773926
vt 0.17958582937717438 0.32762861251831055
vt 0.17974546551704407 0.32530921697616577
vt 0.1809314787387848 0.3191830515861511
vt 0.18057073652744293 0.3202418088912964
vt 0.18075990676879883 0.3208532929420471
vt 0.17958582937717438 0.32762861251831055
vt 0.1791069507598877 0.32858461141586304
vt 0.17974546551704407 0.32530921697616577
vt 0.18065379559993744 0.3183367848396301
vt 0.17998471856117249 0.3214569091796875
vt 0.18057073652744293 0.3202418088912964
vt 0.18009962141513824 0.31989729404449463
vt 0.17998471856117249 0.3214569091796875
vt 0.18065379559993744 0.3183367848396301
vt 0.18075990676879883 0.3208532929420471
vt 0.18059217929840088 0.319694459438324
vt 0.1814672350883484 0.3184724450111389
vt 0.1814672350883484 0.3184724450111389
vt 0.1809314787387848 0.3191830515861511
vt 0.18075990676879883 0.3208532929420471
vt 0.18059217929840088 0.319694459438324
vt 0.18009962141513824 0.31989729404449463
vt 0.18074487149715424 0.31855082511901855
vt 0.1809314787387848 0.3191830515861511
vt 0.18065379559993744 0.3183367848396301
vt 0.18057073652744293 0.3202418088912964
vt 0.18009962141513824 0.31989729404449463
vt 0.18065379559993744 0.3183367848396301
vt 0.18074487149715424 0.31855082511901855
vt 0.18074487149715424 0.31855082511901855
vt 0.1814672350883484 0.3184724450111389
vt 0.18059217929840088 0.319694459438324
vt 0.18093858659267426 0.3186056613922119
vt 0.1809314787387848 0.3191830515861511
vt 0.18148289620876312 0.3185994625091553
vt 0.18148289620876312 0.3185994625091553
vt 0.1809314787387848 0.3191830515861511
vt 0.1814672350883484 0.3184724450111389
vt 0.18065379559993744 0.3183367848396301
vt 0.1809314787387848 0.3191830515861511
vt 0.18093858659267426 0.3186056613922119
vt 0.18074487149715424 0.31855082511901855
vt 0.18121181428432465 0.31791436672210693
vt 0.1814672350883484 0.3184724450111389
vt 0.18074487149715424 0.31855082511901855
vt 0.18065379559993744 0.3183367848396301
vt 0.18121181428432465 0.31791436672210693
vt 0.18148289620876312 0.3185994625091553
vt 0.18173016607761383 0.31844180822372437
vt 0.18093858659267426 0.3186056613922119
vt 0.1814672350883484 0.3184724450111389
vt 0.18181680142879486 0.3179224133491516
vt 0.18148289620876312 0.3185994625091553
vt 0.18065379559993744 0.3183367848396301
vt 0.18093858659267426 0.3186056613922119
vt 0.18115095794200897 0.31812232732772827
vt 0.18121181428432465 0.31791436672210693
vt 0.18181680142879486 0.3179224133491516
vt 0.1814672350883484 0.3184724450111389
vt 0.18121181428432465 0.31791436672210693
vt 0.18065379559993744 0.3183367848396301
vt 0.18181680142879486 0.3179224133491516
vt 0.18093858659267426 0.3186056613922119
vt 0.18173016607761383 0.31844180822372437
vt 0.18115095794200897 0.31812232732772827
vt 0.18181680142879486 0.3179224133491516
vt 0.18173016607761383 0.31844180822372437
vt 0.18148289620876312 0.3185994625091553
vt 0.18065379559993744 0.3183367848396301
vt 0.18115095794200897 0.31812232732772827
vt 0.18181680142879486 0.3179224133491516
vn 0.588158369064331 0.12418584525585175 0.7991544008255005
vn 0.6040819883346558 0.09969300776720047 0.7906619310379028
vn 0.884596049785614 0.3623037040233612 0.29364249110221863
vn -0.9280771613121033 -0.0004252716898918152 0.37238776683807373
vn -0.6427927017211914 0.07520781457424164 0.7623393535614014
vn -0.9254473447799683 0.00030601024627685547 0.37887609004974365
vn 0.8555376529693604 -0.020071707665920258 0.5173513889312744
vn 0.8570336103439331 -0.01973586156964302 0.5148824453353882
vn 0.9964607357978821 0.017388448119163513 -0.08224213868379593
vn -0.9519232511520386 -0.26522400975227356 -0.15329140424728394
vn -0.9444080591201782 0.113090381026268 0.30871328711509705
vn -0.9430174827575684 -0.003070838749408722 0.33272889256477356
vn -0.9257299304008484 0.15207839012145996 0.3462604880332947
vn -0.9712602496147156 -0.1730063110589981 -0.16346991062164307
vn -0.9723126292228699 0.1527475118637085 -0.17685122787952423
vn 0.999416172504425 -0.03293995559215546 0.009071752429008484
vn 0.9999465346336365 0.008989691734313965 -0.005114167928695679
vn 0.8240090012550354 -0.16788026690483093 -0.5411334037780762
vn -0.6966941356658936 -0.29635560512542725 -0.653292179107666
vn -0.2817147672176361 -0.051793016493320465 -0.9580993056297302
vn -0.6726976037025452 0.11889983713626862 -0.7303018569946289
vn 0.9645658731460571 0.2157597839832306 -0.15185649693012238
vn 0.8480314016342163 -0.2671298682689667 -0.4576947093009949
vn 0.8432649374008179 -0.21323370933532715 -0.4933919906616211
vn 0.9963093996047974 0.03751382231712341 -0.07720240950584412
vn 0.8569698333740234 -0.10651326179504395 0.5042396187782288
vn 0.9788659811019897 0.1982867270708084 0.05003567039966583
vn -0.11961385607719421 -0.2908291220664978 -0.9492686986923218
vn -0.04493802785873413 0.09398916363716125 -0.994558572769165
vn -0.5713440775871277 -0.052482739090919495 -0.8190308213233948
vn 0.2413763850927353 0.5446993112564087 0.8031438589096069
vn 0.6711567640304565 0.2903069853782654 0.6821073293685913
vn 0.7223867774009705 0.3609431982040405 0.589811384677887
vn 0.07623743265867233 -0.4942198395729065 -0.8659876585006714
vn 0.07046541571617126 -0.10032717883586884 -0.9924560785293579
vn -0.39168456196784973 -0.39746469259262085 -0.8298222422599792
vn -0.983921468257904 -0.16382794082164764 -0.07112650573253632
vn -0.973027765750885 0.13699325919151306 -0.1856064796447754
vn -0.9029663801193237 0.31306231021881104 0.29435306787490845
vn -0.5432325601577759 0.3096780776977539 -0.7803831100463867
vn -0.6058081388473511 -0.045704636722803116 -0.79429692029953
vn -0.08959333598613739 0.0824931263923645 -0.9925562143325806
vn -0.23021283745765686 -0.499542772769928 -0.8351401090621948
vn -0.6791421175003052 -0.18316659331321716 -0.710785448551178
vn -0.3215072751045227 -0.6337621808052063 -0.7035471200942993
vn -0.9662864804267883 -0.01209854707121849 -0.25718480348587036
vn -0.9374632835388184 -0.05619192123413086 0.3435189127922058
vn -0.9441395998001099 -0.14138364791870117 0.2976764738559723
vn 0.9883391857147217 -0.14992861449718475 -0.02658936381340027
vn 0.7849252223968506 -0.21047428250312805 -0.5827460289001465
vn 0.7764703035354614 -0.3232285678386688 -0.5409409403800964
vn -0.5331391096115112 -0.17438215017318726 -0.8278607726097107
vn -0.617281973361969 -0.3933664858341217 -0.6813411712646484
vn -0.09918472915887833 -0.5327490568161011 -0.8404408693313599
vn 0.9623100161552429 0.26472756266593933 -0.062279775738716125
vn 0.8086155652999878 0.04575292766094208 -0.5865556001663208
vn 0.8037986755371094 0.05691399425268173 -0.5921726226806641
vn 0.13418760895729065 0.551103949546814 0.8235764503479004
vn 0.17479491233825684 0.4916418194770813 0.85307377576828
vn 0.6378279328346252 0.6299362182617188 0.4431205987930298
vn -0.2972780466079712 0.052658624947071075 -0.9533377885818481
vn -0.7460935711860657 0.18687662482261658 -0.639078676700592
vn -0.38755184412002563 -0.18495510518550873 -0.9031030535697937
vn -0.002124190330505371 0.5032315850257874 0.8641489744186401
vn -0.003228515386581421 0.6219300031661987 0.7830661535263062
vn 0.4385916292667389 0.36838021874427795 0.8197154402732849
vn -0.9638584852218628 -0.23846307396888733 -0.11879432201385498
vn -0.935849666595459 0.23938506841659546 0.2586119472980499
vn -0.9400005340576172 0.1408955454826355 0.3107207417488098
vn 0.9671559929847717 0.14982102811336517 -0.20533616840839386
vn 0.8408511877059937 -0.4068545401096344 -0.3569856882095337
vn 0.8349782228469849 -0.4105745553970337 -0.36638766527175903
vn 0.9240536689758301 0.13939352333545685 0.3559413552284241
vn 0.5551183819770813 0.6029672622680664 0.5729520916938782
vn 0.878631055355072 0.4353953003883362 0.1960573047399521
vn -0.11858469247817993 -0.5455584526062012 -0.8296406269073486
vn -0.6353833675384521 -0.3917546272277832 -0.6654443144798279
vn -0.2448984980583191 -0.7633101940155029 -0.5978145003318787
vn -0.2614678740501404 0.7355270981788635 0.6250075697898865
vn -0.6792548894882202 0.4267651438713074 0.5970630645751953
vn -0.21657027304172516 0.6472095847129822 0.7309015989303589
vn -0.9259191155433655 -0.04234407842159271 -0.37534099817276
vn -0.9638631343841553 -0.256822407245636 -0.0707823634147644
vn -0.6653146743774414 -0.47013840079307556 -0.5799365043640137
vn 0.4680897891521454 -0.5693398118019104 -0.6758285164833069
vn 0.8269025087356567 -0.48927414417266846 -0.2772059142589569
vn 0.7951890230178833 -0.23062917590141296 -0.5607894062995911
vn -0.26557493209838867 0.8275193572044373 0.4946531653404236
vn -0.27449366450309753 0.7616488337516785 0.58697909116745
vn 0.28352048993110657 0.7882013320922852 0.5462188124656677
vn 0.8281674981117249 0.4497266411781311 0.3344917595386505
vn 0.8536869883537292 0.42236948013305664 0.3046680688858032
vn 0.9826874136924744 -0.13715361058712006 0.12455688416957855
vn -0.9592866897583008 0.07583928108215332 0.2720617353916168
vn -0.8341184854507446 0.489075243473053 0.25505271553993225
vn -0.9548001885414124 0.28980618715286255 0.06609965860843658
vn 0.20009252429008484 -0.6279407739639282 -0.7520991563796997
vn 0.2144266813993454 -0.882373571395874 -0.41885316371917725
vn 0.6116981506347656 -0.6865391731262207 -0.39305126667022705
vn -0.5763652920722961 -0.4714758098125458 -0.6674679517745972
vn -0.7077449560165405 -0.544239342212677 -0.4504447281360626
vn -0.26209571957588196 -0.8701805472373962 -0.4172426760196686
vn 0.2970399260520935 0.815829336643219 0.49617499113082886
vn -0.2714083194732666 0.1429121196269989 0.9517949223518372
vn -0.2577958106994629 0.8361570239067078 0.4841309189796448
vn 0.9995757341384888 0.02910858392715454 -0.0009860992431640625
vn 0.5818668007850647 -0.061850085854530334 0.8109288215637207
vn 0.8972687721252441 0.26897767186164856 0.35008561611175537
vn -0.9936439394950867 0.09328946471214294 -0.06299847364425659
vn -0.6334239840507507 0.5632066130638123 0.5306340456008911
vn -0.4668019413948059 -0.0982045978307724 0.8788923621177673
vn 0.5120753049850464 -0.7567139267921448 -0.406402587890625
vn 0.5525286793708801 -0.7930071353912354 0.25661593675613403
vn 0.819944441318512 -0.35537463426589966 -0.4487762153148651
vn -0.36432182788848877 -0.8674305081367493 -0.3388712704181671
vn -0.8002520799636841 -0.5232887268066406 -0.29285746812820435
vn -0.529217004776001 -0.7787221074104309 0.3369289040565491
vn -0.21221095323562622 0.9148179292678833 0.3436200022697449
vn -0.15102319419384003 0.1556970626115799 0.9761918187141418
vn -0.6929337382316589 -0.35689055919647217 0.6264758706092834
vn 0.7612078189849854 -0.5914783477783203 0.26592501997947693
vn 0.6134899854660034 -0.05388450622558594 0.7878619432449341
vn 0.8892362713813782 0.42022979259490967 0.18073660135269165
vn -0.5144945979118347 -0.6779356002807617 -0.5250699520111084
vn -0.5838769674301147 -0.7884668707847595 0.1934104710817337
vn 0.09406508505344391 -0.993309736251831 -0.0669877827167511
f 3/3/3 2/2/2 1/1/1
f 6/6/6 5/5/5 4/4/4
f 9/9/9 8/8/8 7/7/7
f 12/12/12 11/11/11 10/10/10
f 15/15/15 14/14/14 13/13/13
f 18/18/18 17/17/17 16/16/16
f 21/21/21 20/20/20 19/19/19
f 24/24/24 23/23/23 22/22/22
f 27/27/27 26/26/26 25/25/25
f 30/30/30 29/29/29 28/28/28
f 33/33/33 32/32/32 31/31/31
f 36/36/36 35/35/35 34/34/34
f 39/39/39 38/38/38 37/37/37
f 42/42/42 41/41/41 40/40/40
f 45/45/45 44/44/44 43/43/43
f 48/48/48 47/47/47 46/46/46
f 51/51/51 50/50/50 49/49/49
f 54/54/54 53/53/53 52/52/52
f 57/57/57 56/56/56 55/55/55
f 60/60/60 59/59/59 58/58/58
f 63/63/63 62/62/62 61/61/61
f 66/66/66 65/65/65 64/64/64
f 69/69/69 68/68/68 67/67/67
f 72/72/72 71/71/71 70/70/70
f 75/75/75 74/74/74 73/73/73
f 78/78/78 77/77/77 76/76/76
f 81/81/81 80/80/80 79/79/79
f 84/84/84 83/83/83 82/82/82
f 87/87/87 86/86/86 85/85/85
f 90/90/90 89/89/89 88/88/88
f 93/93/93 92/92/92 91/91/91
f 96/96/96 95/95/95 94/94/94
f 99/99/99 98/98/98 97/97/97
f 102/102/102 101/101/101 100/100/100
f 105/105/105 104/104/104 103/103/103
f 108/108/108 107/107/107 106/106/106
f 111/111/111 110/110/110 109/109/109
f 114/114/114 113/113/113 112/112/112
f 117/117/117 116/116/116 115/115/115
f 120/120/120 119/119/119 118/118/118
f 123/123/123 122/122/122 121/121/121
f 126/126/126 125/125/125 124/124/124
