# VPXTOOL table OBJ file
# VPXTOOL OBJ file
# numVerts: 68 numFaces: 156
o BM_TMet3
v 24.39870262145996 -0.14124009013175964 -65.61187744140625
v -23.77178955078125 -0.14124009013175964 -65.61187744140625
v -23.7717342376709 -22.37380027770996 -65.61187744140625
v 24.39870262145996 -22.37374496459961 -65.61187744140625
v 24.39870262145996 -0.14124009013175964 -65.61187744140625
v 24.39870262145996 -22.37374496459961 -65.61187744140625
v 24.39870262145996 -14.962891578674316 -44.30571365356445
v -23.771678924560547 -9.404779434204102 -11.88329792022705
v -23.77178955078125 -0.14124009013175964 -65.61187744140625
v 24.39870262145996 -0.14124009013175964 -65.61187744140625
v -23.77178955078125 -0.14124009013175964 -65.61187744140625
v -23.77178955078125 -14.962891578674316 -44.30571365356445
v -23.7717342376709 -22.37380027770996 -65.61187744140625
v 14.208819389343262 -14.962946891784668 -44.30571365356445
v 24.39870262145996 -22.37374496459961 -65.61187744140625
v -23.7717342376709 -22.37380027770996 -65.61187744140625
v 16.98784828186035 -14.962946891784668 -44.30571365356445
v 24.39870262145996 -14.962891578674316 -44.30571365356445
v 24.39870262145996 -9.40472412109375 -11.883299827575684
v -23.77178955078125 -14.962891578674316 -44.30571365356445
v -23.771678924560547 -9.404779434204102 -11.88329792022705
v 24.39870262145996 -9.40472412109375 -11.883299827575684
v 24.39870262145996 -14.962891578674316 15.907317161560059
v 24.39870262145996 -9.40472412109375 4.7910919189453125
v -23.771678924560547 -14.962891578674316 15.907379150390625
v -23.771678924560547 -9.404779434204102 4.79109525680542
v 24.39870262145996 -9.404779434204102 15.907344818115234
v 24.39870262145996 -9.40472412109375 -11.883299827575684
v -23.771678924560547 -9.404779434204102 4.79109525680542
v -23.771678924560547 -9.404779434204102 -11.88329792022705
v 24.39870262145996 -14.962891578674316 15.907317161560059
v 24.39870262145996 -9.40472412109375 4.7910919189453125
v 6.797911167144775 -9.404779434204102 4.791093349456787
v -5.244601249694824 -9.404779434204102 4.791093349456787
v -23.771678924560547 -9.404779434204102 15.9073486328125
v -23.771678924560547 -14.962891578674316 15.907379150390625
v 24.39870262145996 -3.846611499786377 15.907344818115234
v 24.39870262145996 -3.846611499786377 14.054644584655762
v 6.79802131652832 -3.8466668128967285 14.054646492004395
v 24.39870262145996 -3.846611499786377 14.054644584655762
v 24.39870262145996 -3.846611499786377 15.907344818115234
v 6.79802131652832 -3.8466668128967285 15.907344818115234
v 6.797911167144775 -9.404779434204102 15.907344818115234
v -5.244656562805176 -3.8466668128967285 14.054646492004395
v 6.797911167144775 -9.404779434204102 15.907344818115234
v 6.797911167144775 -9.404779434204102 4.791093349456787
v 6.79802131652832 -3.8466668128967285 14.054646492004395
v 24.39870262145996 -3.846611499786377 15.907344818115234
v 24.39870262145996 -9.404779434204102 15.907344818115234
v 6.79802131652832 -3.8466668128967285 15.907344818115234
v -23.771678924560547 -3.8466668128967285 14.054648399353027
v 6.79802131652832 -3.8466668128967285 15.907344818115234
v -5.244656562805176 -3.8466668128967285 14.054646492004395
v -5.244601249694824 -9.404779434204102 4.791093349456787
v -5.244601249694824 -9.404779434204102 15.907344818115234
v -5.244656562805176 -3.8466668128967285 15.907344818115234
v 6.797911167144775 -9.404779434204102 15.907344818115234
v -5.244601249694824 -9.404779434204102 15.907344818115234
v -5.244656562805176 -3.8466668128967285 15.907344818115234
v -23.771678924560547 -3.8466668128967285 15.9073486328125
v -23.771678924560547 -3.8466668128967285 14.054648399353027
v 24.39870262145996 -14.962891578674316 15.907317161560059
v -23.771678924560547 -9.404779434204102 15.9073486328125
v -23.771678924560547 -3.8466668128967285 15.9073486328125
v -5.244656562805176 -3.8466668128967285 15.907344818115234
v -23.771678924560547 -3.8466668128967285 15.9073486328125
v -5.244601249694824 -9.404779434204102 15.907344818115234
v -23.771678924560547 -14.962891578674316 15.907379150390625
vt 0.5736500024795532 0.19096410274505615
vt 0.5736500024795532 0.18349629640579224
vt 0.578343391418457 0.18349629640579224
vt 0.578343391418457 0.19096410274505615
vt 0.9709739685058594 0.8009417057037354
vt 0.97856605052948 0.8009417057037354
vt 0.9760353565216064 0.8062847852706909
vt 0.5845835208892822 0.18216347694396973
vt 0.5845835208892822 0.1477833390235901
vt 0.5377994179725647 0.1477833390235901
vt 0.9756002426147461 0.39225834608078003
vt 0.9707464575767517 0.3977043628692627
vt 0.9680111408233643 0.39241594076156616
vt 0.9476032257080078 0.6395595073699951
vt 0.9497543573379517 0.6430078148841858
vt 0.9395854473114014 0.6430078148841858
vt 0.948189914226532 0.6395595073699951
vt 0.9497543573379517 0.6395595073699951
vt 0.9741373658180237 0.814415693283081
vt 0.9395854473114014 0.6395595073699951
vt 0.972956657409668 0.40579259395599365
vt 0.5377994179725647 0.18216347694396973
vt 0.9497543573379517 0.630355179309845
vt 0.9741373658180237 0.8185973167419434
vt 0.9395854473114014 0.630355179309845
vt 0.9731175899505615 0.40997254848480225
vt 0.9741373658180237 0.8213850259780884
vt 0.2575418949127197 0.48351091146469116
vt 0.2540355920791626 0.47604310512542725
vt 0.2575418949127197 0.47604310512542725
vt 0.9760353565216064 0.8213850259780884
vt 0.2540355920791626 0.48351091146469116
vt 0.2540355920791626 0.48078233003616333
vt 0.2540355920791626 0.47891533374786377
vt 0.9732248783111572 0.41275912523269653
vt 0.9713276028633118 0.41279852390289307
vt 0.9722393155097961 0.8213850259780884
vt 0.9722393155097961 0.8209203481674194
vt 0.2519841194152832 0.48078233003616333
vt 0.2519841194152832 0.48351091146469116
vt 0.25159457325935364 0.48351091146469116
vt 0.25159457325935364 0.48078233003616333
vt 0.2516980767250061 0.48078233003616333
vt 0.2519841194152832 0.47891533374786377
vt 0.03685063496232033 0.5754305124282837
vt 0.03685063496232033 0.5771539211273193
vt 0.035677291452884674 0.5757178068161011
vt 0.45589199662208557 0.33305394649505615
vt 0.4547186493873596 0.33305394649505615
vt 0.45589199662208557 0.33032530546188354
vt 0.2519841194152832 0.47604310512542725
vt 0.035677291452884674 0.5754305124282837
vt 0.035059813410043716 0.2331070899963379
vt 0.03388646990060806 0.23454320430755615
vt 0.03388646990060806 0.23281985521316528
vt 0.25159457325935364 0.47891533374786377
vt 0.4547186493873596 0.33032530546188354
vt 0.2516980767250061 0.47891533374786377
vt 0.035059813410043716 0.23281985521316528
vt 0.25159457325935364 0.47604310512542725
vt 0.9751042723655701 0.41225528717041016
vt 0.45354530215263367 0.33305394649505615
vt 0.4547186493873596 0.32558614015579224
vt 0.45589199662208557 0.32558614015579224
vt 0.45589199662208557 0.328458309173584
vt 0.9751221537590027 0.4127197265625
vt 0.4547186493873596 0.328458309173584
vt 0.45354530215263367 0.32558614015579224
vn 0.5688937902450562 0.629027247428894 -0.5297967195510864
vn -0.5688967108726501 0.628996729850769 -0.5298298597335815
vn -0.5617548227310181 -0.6742826104164124 -0.4793478846549988
vn 0.5617613196372986 -0.6742429137229919 -0.4793962240219116
vn 0.5688937902450562 0.629027247428894 -0.5297967195510864
vn 0.5617613196372986 -0.6742429137229919 -0.4793962240219116
vn 0.746591329574585 -0.6559866666793823 0.11082833260297775
vn -0.7267950177192688 0.6843531727790833 0.0585641972720623
vn -0.5688967108726501 0.628996729850769 -0.5298298597335815
vn 0.5688937902450562 0.629027247428894 -0.5297967195510864
vn -0.5688967108726501 0.628996729850769 -0.5298298597335815
vn -0.7465909719467163 -0.6559867262840271 0.11083055287599564
vn -0.5617548227310181 -0.6742826104164124 -0.4793478846549988
vn -0.00000010353436863397292 -0.9860268235206604 0.16658665239810944
vn 0.5617613196372986 -0.6742429137229919 -0.4793962240219116
vn -0.5617548227310181 -0.6742826104164124 -0.4793478846549988
vn 0.0000031954173209669534 -0.9860265851020813 0.16658802330493927
vn 0.746591329574585 -0.6559866666793823 0.11082833260297775
vn 0.7268195748329163 0.6843271255493164 0.058563195168972015
vn -0.7465909719467163 -0.6559867262840271 0.11083055287599564
vn -0.7267950177192688 0.6843531727790833 0.0585641972720623
vn 0.7268195748329163 0.6843271255493164 0.058563195168972015
vn 0.5773670673370361 -0.5773579478263855 0.5773258209228516
vn 0.7724047899246216 0.6120848655700684 -0.1695375144481659
vn -0.5773581862449646 -0.5773594975471497 0.5773332118988037
vn -0.7724134922027588 0.612074613571167 -0.16953524947166443
vn 0.7071176171302795 -0.0000015909209878373076 0.7070960402488708
vn 0.7268195748329163 0.6843271255493164 0.058563195168972015
vn -0.7724134922027588 0.612074613571167 -0.16953524947166443
vn -0.7267950177192688 0.6843531727790833 0.0585641972720623
vn 0.5773670673370361 -0.5773579478263855 0.5773258209228516
vn 0.7724047899246216 0.6120848655700684 -0.1695375144481659
vn -0.08806336671113968 0.9873717427253723 -0.13168871402740479
vn 0.08806104958057404 0.9873721599578857 -0.1316870152950287
vn -0.7071089148521423 0.0000024925545858422993 0.7071047425270081
vn -0.5773581862449646 -0.5773594975471497 0.5773332118988037
vn 0.577337384223938 0.5773573517799377 0.5773561596870422
vn 0.6516664624214172 0.7309836745262146 -0.20246893167495728
vn -0.6516575813293457 0.7309914231300354 -0.20246946811676025
vn 0.6516664624214172 0.7309836745262146 -0.20246893167495728
vn 0.577337384223938 0.5773573517799377 0.5773561596870422
vn -0.5773526430130005 0.5773682594299316 0.5773299336433411
vn -0.3014962673187256 0.30153152346611023 0.9045323133468628
vn 0.65166175365448 0.7309879064559937 -0.2024688869714737
vn -0.3014962673187256 0.30153152346611023 0.9045323133468628
vn -0.08806336671113968 0.9873717427253723 -0.13168871402740479
vn -0.6516575813293457 0.7309914231300354 -0.20246946811676025
vn 0.577337384223938 0.5773573517799377 0.5773561596870422
vn 0.7071176171302795 -0.0000015909209878373076 0.7070960402488708
vn -0.5773526430130005 0.5773682594299316 0.5773299336433411
vn -0.6516616940498352 0.7309877276420593 -0.20246995985507965
vn -0.5773526430130005 0.5773682594299316 0.5773299336433411
vn 0.65166175365448 0.7309879064559937 -0.2024688869714737
vn 0.08806104958057404 0.9873721599578857 -0.1316870152950287
vn 0.30150163173675537 0.30152082443237305 0.904534101486206
vn 0.5773544311523438 0.5773667693138123 0.5773295164108276
vn -0.3014962673187256 0.30153152346611023 0.9045323133468628
vn 0.30150163173675537 0.30152082443237305 0.904534101486206
vn 0.5773544311523438 0.5773667693138123 0.5773295164108276
vn -0.5773502588272095 0.5773501992225647 0.5773503184318542
vn -0.6516616940498352 0.7309877276420593 -0.20246995985507965
vn 0.5773670673370361 -0.5773579478263855 0.5773258209228516
vn -0.7071089148521423 0.0000024925545858422993 0.7071047425270081
vn -0.5773502588272095 0.5773501992225647 0.5773503184318542
vn 0.5773544311523438 0.5773667693138123 0.5773295164108276
vn -0.5773502588272095 0.5773501992225647 0.5773503184318542
vn 0.30150163173675537 0.30152082443237305 0.904534101486206
vn -0.5773581862449646 -0.5773594975471497 0.5773332118988037
f 3/3/3 2/2/2 1/1/1
f 3/3/3 1/1/1 4/4/4
f 7/7/7 6/6/6 5/5/5
f 10/10/10 9/9/9 8/8/8
f 13/13/13 12/12/12 11/11/11
f 16/16/16 15/15/15 14/14/14
f 15/15/15 18/18/18 17/17/17
f 15/15/15 17/17/17 14/14/14
f 7/7/7 5/5/5 19/19/19
f 14/14/14 20/20/20 16/16/16
f 12/12/12 21/21/21 11/11/11
f 10/10/10 8/8/8 22/22/22
f 18/18/18 23/23/23 17/17/17
f 17/17/17 23/23/23 14/14/14
f 7/7/7 19/19/19 24/24/24
f 25/25/25 20/20/20 14/14/14
f 12/12/12 26/26/26 21/21/21
f 7/7/7 24/24/24 27/27/27
f 30/30/30 29/29/29 28/28/28
f 27/27/27 31/31/31 7/7/7
f 33/33/33 32/32/32 28/28/28
f 34/34/34 33/33/33 28/28/28
f 12/12/12 35/35/35 26/26/26
f 29/29/29 34/34/34 28/28/28
f 23/23/23 25/25/25 14/14/14
f 35/35/35 12/12/12 36/36/36
f 24/24/24 38/38/38 37/37/37
f 39/39/39 32/32/32 33/33/33
f 39/39/39 40/40/40 32/32/32
f 24/24/24 37/37/37 27/27/27
f 42/42/42 41/41/41 40/40/40
f 42/42/42 40/40/40 39/39/39
f 34/34/34 43/43/43 33/33/33
f 29/29/29 44/44/44 34/34/34
f 47/47/47 46/46/46 45/45/45
f 50/50/50 49/49/49 48/48/48
f 29/29/29 51/51/51 44/44/44
f 45/45/45 52/52/52 47/47/47
f 55/55/55 54/54/54 53/53/53
f 51/51/51 56/56/56 44/44/44
f 50/50/50 57/57/57 49/49/49
f 34/34/34 58/58/58 43/43/43
f 53/53/53 59/59/59 55/55/55
f 51/51/51 60/60/60 56/56/56
f 35/35/35 61/61/61 26/26/26
f 62/62/62 49/49/49 57/57/57
f 65/65/65 64/64/64 63/63/63
f 35/35/35 66/66/66 61/61/61
f 65/65/65 63/63/63 67/67/67
f 57/57/57 67/67/67 62/62/62
f 68/68/68 62/62/62 67/67/67
f 67/67/67 63/63/63 68/68/68
