# VPXTOOL table OBJ file
# VPXTOOL OBJ file
# numVerts: 127 numFaces: 138
o LM_L_LWiz_UnderPF
v -6.399424076080322 360.4310302734375 -12.153261184692383
v -20.144962310791016 363.1651611328125 -12.153261184692383
v -6.399424076080322 360.4310302734375 -5.324187755584717
v -20.144962310791016 363.1651611328125 -12.153261184692383
v -33.890525817871094 360.4310302734375 -12.153261184692383
v -20.144962310791016 363.1651611328125 -5.324187755584717
v -20.144962310791016 363.1651611328125 -12.153261184692383
v -20.144962310791016 363.1651611328125 -5.324187755584717
v -6.399424076080322 360.4310302734375 -5.324187755584717
v 5.253490924835205 352.64471435546875 -12.153261184692383
v -6.399424076080322 360.4310302734375 -12.153261184692383
v 5.253490924835205 352.64471435546875 -5.324187755584717
v -6.399424076080322 360.4310302734375 -12.153261184692383
v -6.399424076080322 360.4310302734375 -5.324187755584717
v 5.253490924835205 352.64471435546875 -5.324187755584717
v -33.890525817871094 360.4310302734375 -12.153261184692383
v -33.890525817871094 360.4310302734375 -5.324187755584717
v -20.144962310791016 363.1651611328125 -5.324187755584717
v 5.253490924835205 352.64471435546875 -5.324187755584717
v -6.399424076080322 360.4310302734375 -5.324187755584717
v -20.144962310791016 363.1651611328125 -5.324187755584717
v -33.890525817871094 360.4310302734375 -12.153261184692383
v -45.54344177246094 352.64471435546875 -12.153261184692383
v -33.890525817871094 360.4310302734375 -5.324187755584717
v 5.253490924835205 352.64471435546875 -12.153261184692383
v 5.253490924835205 352.64471435546875 -5.324187755584717
v 13.03969669342041 340.9917907714844 -5.324187755584717
v 13.03969669342041 340.9917907714844 -12.153261184692383
v 5.253490924835205 352.64471435546875 -12.153261184692383
v 13.03969669342041 340.9917907714844 -5.324187755584717
v -20.144962310791016 363.1651611328125 -5.324187755584717
v 13.03969669342041 340.9917907714844 -5.324187755584717
v 5.253490924835205 352.64471435546875 -5.324187755584717
v -20.144962310791016 363.1651611328125 -5.324187755584717
v -33.890525817871094 360.4310302734375 -5.324187755584717
v -45.54344177246094 352.64471435546875 -5.324187755584717
v -45.54344177246094 352.64471435546875 -12.153261184692383
v -45.54344177246094 352.64471435546875 -5.324187755584717
v -33.890525817871094 360.4310302734375 -5.324187755584717
v -20.144962310791016 363.1651611328125 -5.324187755584717
v 15.773890495300293 327.246337890625 -5.324187755584717
v 13.03969669342041 340.9917907714844 -5.324187755584717
v -45.54344177246094 352.64471435546875 -12.153261184692383
v -53.329673767089844 340.9917907714844 -12.153261184692383
v -45.54344177246094 352.64471435546875 -5.324187755584717
v 13.03969669342041 340.9917907714844 -12.153261184692383
v 13.03969669342041 340.9917907714844 -5.324187755584717
v 15.773890495300293 327.246337890625 -5.324187755584717
v 15.773890495300293 327.246337890625 -12.153261184692383
v 13.03969669342041 340.9917907714844 -12.153261184692383
v 15.773890495300293 327.246337890625 -5.324187755584717
v -20.144962310791016 363.1651611328125 -5.324187755584717
v -45.54344177246094 352.64471435546875 -5.324187755584717
v -56.063812255859375 327.246337890625 -5.324187755584717
v -53.329673767089844 340.9917907714844 -12.153261184692383
v -53.329673767089844 340.9917907714844 -5.324187755584717
v -45.54344177246094 352.64471435546875 -5.324187755584717
v 15.773890495300293 327.246337890625 -5.324187755584717
v -20.144962310791016 363.1651611328125 -5.324187755584717
v -56.063812255859375 327.246337890625 -5.324187755584717
v -53.329673767089844 340.9917907714844 -12.153261184692383
v -56.063812255859375 327.246337890625 -12.153261184692383
v -53.329673767089844 340.9917907714844 -5.324187755584717
v -45.54344177246094 352.64471435546875 -5.324187755584717
v -53.329673767089844 340.9917907714844 -5.324187755584717
v -56.063812255859375 327.246337890625 -5.324187755584717
v 15.773890495300293 327.246337890625 -12.153261184692383
v 15.773890495300293 327.246337890625 -5.324187755584717
v 13.03969669342041 313.5007629394531 -5.324187755584717
v 13.03969669342041 313.5007629394531 -12.153261184692383
v 15.773890495300293 327.246337890625 -12.153261184692383
v 13.03969669342041 313.5007629394531 -5.324187755584717
v -56.063812255859375 327.246337890625 -12.153261184692383
v -56.063812255859375 327.246337890625 -5.324187755584717
v -53.329673767089844 340.9917907714844 -5.324187755584717
v 5.253490924835205 301.8478698730469 -5.324187755584717
v 13.03969669342041 313.5007629394531 -5.324187755584717
v 15.773890495300293 327.246337890625 -5.324187755584717
v -56.063812255859375 327.246337890625 -12.153261184692383
v -53.329673767089844 313.5007629394531 -12.153261184692383
v -56.063812255859375 327.246337890625 -5.324187755584717
v 13.03969669342041 313.5007629394531 -12.153261184692383
v 13.03969669342041 313.5007629394531 -5.324187755584717
v 5.253490924835205 301.8478698730469 -5.324187755584717
v 5.253490924835205 301.8478698730469 -12.153261184692383
v 13.03969669342041 313.5007629394531 -12.153261184692383
v 5.253490924835205 301.8478698730469 -5.324187755584717
v 15.773890495300293 327.246337890625 -5.324187755584717
v -20.144962310791016 291.327392578125 -5.324187755584717
v -53.329673767089844 313.5007629394531 -5.324187755584717
v -6.399424076080322 294.0616455078125 -5.324187755584717
v 5.253490924835205 301.8478698730469 -5.324187755584717
v -53.329673767089844 313.5007629394531 -12.153261184692383
v -45.54344177246094 301.8478698730469 -12.153261184692383
v -53.329673767089844 313.5007629394531 -5.324187755584717
v -56.063812255859375 327.246337890625 -5.324187755584717
v -53.329673767089844 313.5007629394531 -5.324187755584717
v -45.54344177246094 301.8478698730469 -5.324187755584717
v 5.253490924835205 301.8478698730469 -12.153261184692383
v 5.253490924835205 301.8478698730469 -5.324187755584717
v -6.399424076080322 294.0616455078125 -5.324187755584717
v -6.399424076080322 294.0616455078125 -12.153261184692383
v 5.253490924835205 301.8478698730469 -12.153261184692383
v -6.399424076080322 294.0616455078125 -5.324187755584717
v -45.54344177246094 301.8478698730469 -12.153261184692383
v -45.54344177246094 301.8478698730469 -5.324187755584717
v -53.329673767089844 313.5007629394531 -5.324187755584717
v -45.54344177246094 301.8478698730469 -5.324187755584717
v -33.890525817871094 294.0616455078125 -5.324187755584717
v -33.890525817871094 294.0616455078125 -5.324187755584717
v -20.144962310791016 291.327392578125 -5.324187755584717
v -45.54344177246094 301.8478698730469 -12.153261184692383
v -33.890525817871094 294.0616455078125 -12.153261184692383
v -45.54344177246094 301.8478698730469 -5.324187755584717
v -20.144962310791016 291.327392578125 -12.153261184692383
v -6.399424076080322 294.0616455078125 -12.153261184692383
v -20.144962310791016 291.327392578125 -5.324187755584717
v -6.399424076080322 294.0616455078125 -12.153261184692383
v -6.399424076080322 294.0616455078125 -5.324187755584717
v -20.144962310791016 291.327392578125 -5.324187755584717
v -33.890525817871094 294.0616455078125 -12.153261184692383
v -20.144962310791016 291.327392578125 -12.153261184692383
v -33.890525817871094 294.0616455078125 -5.324187755584717
v -33.890525817871094 294.0616455078125 -12.153261184692383
v -33.890525817871094 294.0616455078125 -5.324187755584717
v -45.54344177246094 301.8478698730469 -5.324187755584717
v -20.144962310791016 291.327392578125 -5.324187755584717
vt 0.06630373001098633 0.05805802345275879
vt 0.0673145055770874 0.061887264251708984
vt 0.06752119958400726 0.05804377794265747
vt 0.0673145055770874 0.061887264251708984
vt 0.06630373001098633 0.06570643186569214
vt 0.06853057444095612 0.06186562776565552
vt 0.0673145055770874 0.061887264251708984
vt 0.06853057444095612 0.06186562776565552
vt 0.06752119958400726 0.05804377794265747
vt 0.06343021243810654 0.05481082201004028
vt 0.06630373001098633 0.05805802345275879
vt 0.06465163826942444 0.05480283498764038
vt 0.06630373001098633 0.05805802345275879
vt 0.06752119958400726 0.05804377794265747
vt 0.06465163826942444 0.05480283498764038
vt 0.06630373001098633 0.06570643186569214
vt 0.06752119958400726 0.0656774640083313
vt 0.06853057444095612 0.06186562776565552
vt 0.06465163826942444 0.05480283498764038
vt 0.06752119958400726 0.05804377794265747
vt 0.06853057444095612 0.06186562776565552
vt 0.06630373001098633 0.06570643186569214
vt 0.06343021243810654 0.06892520189285278
vt 0.06752119958400726 0.0656774640083313
vt 0.06343021243810654 0.05481082201004028
vt 0.06465163826942444 0.05480283498764038
vt 0.06037061661481857 0.05263972282409668
vt 0.05914326012134552 0.052643537521362305
vt 0.06343021243810654 0.05481082201004028
vt 0.06037061661481857 0.05263972282409668
vt 0.06853057444095612 0.06186562776565552
vt 0.06037061661481857 0.05263972282409668
vt 0.06465163826942444 0.05480283498764038
vt 0.06853057444095612 0.06186562776565552
vt 0.06752119958400726 0.0656774640083313
vt 0.06465163826942444 0.06889009475708008
vt 0.06343021243810654 0.06892520189285278
vt 0.06465163826942444 0.06889009475708008
vt 0.06752119958400726 0.0656774640083313
vt 0.06853057444095612 0.06186562776565552
vt 0.055341556668281555 0.05188018083572388
vt 0.06037061661481857 0.05263972282409668
vt 0.06343021243810654 0.06892520189285278
vt 0.05914326012134552 0.07104998826980591
vt 0.06465163826942444 0.06889009475708008
vt 0.05914326012134552 0.052643537521362305
vt 0.06037061661481857 0.05263972282409668
vt 0.055341556668281555 0.05188018083572388
vt 0.05410728231072426 0.05188256502151489
vt 0.05914326012134552 0.052643537521362305
vt 0.055341556668281555 0.05188018083572388
vt 0.06853057444095612 0.06186562776565552
vt 0.06465163826942444 0.06889009475708008
vt 0.055341556668281555 0.07172071933746338
vt 0.05914326012134552 0.07104998826980591
vt 0.06037061661481857 0.07101088762283325
vt 0.06465163826942444 0.06889009475708008
vt 0.055341556668281555 0.05188018083572388
vt 0.06853057444095612 0.06186562776565552
vt 0.055341556668281555 0.07172071933746338
vt 0.05914326012134552 0.07104998826980591
vt 0.05410728231072426 0.0717611312866211
vt 0.06037061661481857 0.07101088762283325
vt 0.06465163826942444 0.06889009475708008
vt 0.06037061661481857 0.07101088762283325
vt 0.055341556668281555 0.07172071933746338
vt 0.05410728231072426 0.05188256502151489
vt 0.055341556668281555 0.05188018083572388
vt 0.05033482238650322 0.0526309609413147
vt 0.049093734472990036 0.05263471603393555
vt 0.05410728231072426 0.05188256502151489
vt 0.05033482238650322 0.0526309609413147
vt 0.05410728231072426 0.0717611312866211
vt 0.055341556668281555 0.07172071933746338
vt 0.06037061661481857 0.07101088762283325
vt 0.046107735484838486 0.05476886034011841
vt 0.05033482238650322 0.0526309609413147
vt 0.055341556668281555 0.05188018083572388
vt 0.05410728231072426 0.0717611312866211
vt 0.049093734472990036 0.07095927000045776
vt 0.055341556668281555 0.07172071933746338
vt 0.049093734472990036 0.05263471603393555
vt 0.05033482238650322 0.0526309609413147
vt 0.046107735484838486 0.05476886034011841
vt 0.04486088454723358 0.05477672815322876
vt 0.049093734472990036 0.05263471603393555
vt 0.046107735484838486 0.05476886034011841
vt 0.055341556668281555 0.05188018083572388
vt 0.04230505973100662 0.06173604726791382
vt 0.05033482238650322 0.07092046737670898
vt 0.04329210892319679 0.05796492099761963
vt 0.046107735484838486 0.05476886034011841
vt 0.049093734472990036 0.07095927000045776
vt 0.04486088454723358 0.06877535581588745
vt 0.05033482238650322 0.07092046737670898
vt 0.055341556668281555 0.07172071933746338
vt 0.05033482238650322 0.07092046737670898
vt 0.046107735484838486 0.06874078512191772
vt 0.04486088454723358 0.05477672815322876
vt 0.046107735484838486 0.05476886034011841
vt 0.04329210892319679 0.05796492099761963
vt 0.042041435837745667 0.057978808879852295
vt 0.04486088454723358 0.05477672815322876
vt 0.04329210892319679 0.05796492099761963
vt 0.04486088454723358 0.06877535581588745
vt 0.046107735484838486 0.06874078512191772
vt 0.05033482238650322 0.07092046737670898
vt 0.046107735484838486 0.06874078512191772
vt 0.04329210892319679 0.06551694869995117
vt 0.04329210892319679 0.06551694869995117
vt 0.04230505973100662 0.06173604726791382
vt 0.04486088454723358 0.06877535581588745
vt 0.042041435837745667 0.06554532051086426
vt 0.046107735484838486 0.06874078512191772
vt 0.04105306789278984 0.06175720691680908
vt 0.042041435837745667 0.057978808879852295
vt 0.04230505973100662 0.06173604726791382
vt 0.042041435837745667 0.057978808879852295
vt 0.04329210892319679 0.05796492099761963
vt 0.04230505973100662 0.06173604726791382
vt 0.042041435837745667 0.06554532051086426
vt 0.04105306789278984 0.06175720691680908
vt 0.04329210892319679 0.06551694869995117
vt 0.042041435837745667 0.06554532051086426
vt 0.04329210892319679 0.06551694869995117
vt 0.046107735484838486 0.06874078512191772
vt 0.04230505973100662 0.06173604726791382
vn -0.19508902728557587 -0.9807854890823364 -0
vn -0.19508902728557587 -0.9807854890823364 -0
vn -0.19508902728557587 -0.9807854890823364 -0
vn 0.19508863985538483 -0.980785608291626 -0
vn 0.19508863985538483 -0.980785608291626 -0
vn 0.19508863985538483 -0.980785608291626 -0
vn -0.19508907198905945 -0.9807855486869812 -0
vn -0.19508907198905945 -0.9807855486869812 -0
vn -0.19508907198905945 -0.9807855486869812 -0
vn -0.5555744767189026 -0.8314667344093323 -0
vn -0.5555744767189026 -0.8314667344093323 -0
vn -0.5555744767189026 -0.8314667344093323 -0
vn -0.5555744171142578 -0.8314667344093323 -0
vn -0.5555744171142578 -0.8314667344093323 -0
vn -0.5555744171142578 -0.8314667344093323 -0
vn 0.19508866965770721 -0.980785608291626 -0
vn 0.19508866965770721 -0.980785608291626 -0
vn 0.19508866965770721 -0.980785608291626 -0
vn -0.00000008306663090706934 -0 -0.9999999403953552
vn -0.00000008306663090706934 -0 -0.9999999403953552
vn -0.00000008306663090706934 -0 -0.9999999403953552
vn 0.5555744171142578 -0.831466794013977 -0
vn 0.5555744171142578 -0.831466794013977 -0
vn 0.5555744171142578 -0.831466794013977 -0
vn -0.8314703106880188 -0.5555691123008728 -0
vn -0.8314703106880188 -0.5555691123008728 -0
vn -0.8314703106880188 -0.5555691123008728 -0
vn -0.8314703702926636 -0.5555689334869385 -0
vn -0.8314703702926636 -0.5555689334869385 -0
vn -0.8314703702926636 -0.5555689334869385 -0
vn 0.00000011667761867784066 -0 -1
vn 0.00000011667761867784066 -0 -1
vn 0.00000011667761867784066 -0 -1
vn 0.0000000415328749170385 -0 -1
vn 0.0000000415328749170385 -0 -1
vn 0.0000000415328749170385 -0 -1
vn 0.5555746555328369 -0.8314667344093323 -0
vn 0.5555746555328369 -0.8314667344093323 -0
vn 0.5555746555328369 -0.8314667344093323 -0
vn -0.00000006314585476729917 -0 -1
vn -0.00000006314585476729917 -0 -1
vn -0.00000006314585476729917 -0 -1
vn 0.8314692974090576 -0.5555707216262817 -0
vn 0.8314692974090576 -0.5555707216262817 -0
vn 0.8314692974090576 -0.5555707216262817 -0
vn -0.98078453540802 -0.1950940191745758 -0
vn -0.98078453540802 -0.1950940191745758 -0
vn -0.98078453540802 -0.1950940191745758 -0
vn -0.9807845950126648 -0.19509395956993103 -0
vn -0.9807845950126648 -0.19509395956993103 -0
vn -0.9807845950126648 -0.19509395956993103 -0
vn 0 -0 -1
vn 0 -0 -1
vn 0 -0 -1
vn 0.8314694166183472 -0.5555703639984131 -0
vn 0.8314694166183472 -0.5555703639984131 -0
vn 0.8314694166183472 -0.5555703639984131 -0
vn 0 -0 -0.9999999403953552
vn 0 -0 -0.9999999403953552
vn 0 -0 -0.9999999403953552
vn 0.9807853102684021 -0.195090189576149 -0
vn 0.9807853102684021 -0.195090189576149 -0
vn 0.9807853102684021 -0.195090189576149 -0
vn 0.00000016613503817097808 -0 -1
vn 0.00000016613503817097808 -0 -1
vn 0.00000016613503817097808 -0 -1
vn -0.9807848930358887 0.19509240984916687 -0
vn -0.9807848930358887 0.19509240984916687 -0
vn -0.9807848930358887 0.19509240984916687 -0
vn -0.9807848930358887 0.19509254395961761 -0
vn -0.9807848930358887 0.19509254395961761 -0
vn -0.9807848930358887 0.19509254395961761 -0
vn 0.9807852506637573 -0.1950901299715042 -0
vn 0.9807852506637573 -0.1950901299715042 -0
vn 0.9807852506637573 -0.1950901299715042 -0
vn -0.00000016613591924397042 -0 -1
vn -0.00000016613591924397042 -0 -1
vn -0.00000016613591924397042 -0 -1
vn 0.980785608291626 0.19508863985538483 -0
vn 0.980785608291626 0.19508863985538483 -0
vn 0.980785608291626 0.19508863985538483 -0
vn -0.8314704298973083 0.555569052696228 -0
vn -0.8314704298973083 0.555569052696228 -0
vn -0.8314704298973083 0.555569052696228 -0
vn -0.8314703702926636 0.5555689930915833 -0
vn -0.8314703702926636 0.5555689930915833 -0
vn -0.8314703702926636 0.5555689930915833 -0
vn 0 -0 -1
vn 0 -0 -1
vn 0.980785608291626 0.19508863985538483 -0
vn 0 -0 -1
vn 0 -0 -1
vn 0.8314695358276367 0.5555703639984131 -0
vn 0.8314695358276367 0.5555703639984131 -0
vn 0.8314695358276367 0.5555703639984131 -0
vn 0.0000001661328212776425 -0 -0.9999999403953552
vn 0.0000001661328212776425 -0 -0.9999999403953552
vn 0.0000001661328212776425 -0 -0.9999999403953552
vn -0.5555689930915833 0.8314703702926636 -0
vn -0.5555689930915833 0.8314703702926636 -0
vn -0.5555689930915833 0.8314703702926636 -0
vn -0.5555689334869385 0.8314703702926636 -0
vn -0.5555689334869385 0.8314703702926636 -0
vn -0.5555689334869385 0.8314703702926636 -0
vn 0.8314692378044128 0.5555707812309265 -0
vn 0.8314692378044128 0.5555707812309265 -0
vn 0.8314692378044128 0.5555707812309265 -0
vn 0 -0 -1
vn 0 -0 -1
vn 0 -0 -0.9999999403953552
vn 0 -0 -0.9999999403953552
vn 0.5555691719055176 0.8314703106880188 -0
vn 0.5555691719055176 0.8314703106880188 -0
vn 0.5555691719055176 0.8314703106880188 -0
vn -0.19509664177894592 0.9807840585708618 -0
vn -0.19509664177894592 0.9807840585708618 -0
vn -0.19509664177894592 0.9807840585708618 -0
vn -0.19509662687778473 0.980783998966217 -0
vn -0.19509662687778473 0.980783998966217 -0
vn -0.19509662687778473 0.980783998966217 -0
vn 0.1950962394475937 0.9807841181755066 -0
vn 0.1950962394475937 0.9807841181755066 -0
vn 0.1950962394475937 0.9807841181755066 -0
vn 0.5555689334869385 0.8314704298973083 -0
vn 0.5555689334869385 0.8314704298973083 -0
vn 0.5555689334869385 0.8314704298973083 -0
vn 0.1950962394475937 0.9807841181755066 -0
f 3/3/3 2/2/2 1/1/1
f 6/6/6 5/5/5 4/4/4
f 9/9/9 8/8/8 7/7/7
f 12/12/12 11/11/11 10/10/10
f 15/15/15 14/14/14 13/13/13
f 18/18/18 17/17/17 16/16/16
f 21/21/21 20/20/20 19/19/19
f 24/24/24 23/23/23 22/22/22
f 27/27/27 26/26/26 25/25/25
f 30/30/30 29/29/29 28/28/28
f 33/33/33 32/32/32 31/31/31
f 36/36/36 35/35/35 34/34/34
f 39/39/39 38/38/38 37/37/37
f 42/42/42 41/41/41 40/40/40
f 45/45/45 44/44/44 43/43/43
f 48/48/48 47/47/47 46/46/46
f 51/51/51 50/50/50 49/49/49
f 54/54/54 53/53/53 52/52/52
f 57/57/57 56/56/56 55/55/55
f 60/60/60 59/59/59 58/58/58
f 63/63/63 62/62/62 61/61/61
f 66/66/66 65/65/65 64/64/64
f 69/69/69 68/68/68 67/67/67
f 72/72/72 71/71/71 70/70/70
f 75/75/75 74/74/74 73/73/73
f 78/78/78 77/77/77 76/76/76
f 81/81/81 80/80/80 79/79/79
f 84/84/84 83/83/83 82/82/82
f 87/87/87 86/86/86 85/85/85
f 89/89/89 54/54/54 88/88/88
f 81/81/81 90/90/90 80/80/80
f 92/92/92 91/91/91 88/88/88
f 95/95/95 94/94/94 93/93/93
f 91/91/91 89/89/89 88/88/88
f 98/98/98 97/97/97 96/96/96
f 101/101/101 100/100/100 99/99/99
f 104/104/104 103/103/103 102/102/102
f 107/107/107 106/106/106 105/105/105
f 109/109/109 108/108/108 54/54/54
f 111/111/111 110/110/110 60/60/60
f 114/114/114 113/113/113 112/112/112
f 117/117/117 116/116/116 115/115/115
f 120/120/120 119/119/119 118/118/118
f 123/123/123 122/122/122 121/121/121
f 126/126/126 125/125/125 124/124/124
f 123/123/123 127/127/127 122/122/122
