# VPXTOOL table OBJ file
# VPXTOOL OBJ file
# numVerts: 72 numFaces: 72
o LM_GI_gi20_swI1
v 2021.199462890625 10298.5732421875 -42271.375
v 457.4385681152344 9405.916015625 -36906.87109375
v 2410.30908203125 31765.419921875 -34928.16015625
v -2135.38232421875 30667.8046875 -38229.85546875
v -2571.7880859375 7738.3193359375 -40651.328125
v 2021.199462890625 10298.5732421875 -42271.375
v -2135.38232421875 30667.8046875 -38229.85546875
v -1378.5068359375 36018.26171875 -31905.990234375
v -2571.7880859375 7738.3193359375 -40651.328125
v 2410.30908203125 31765.419921875 -34928.16015625
v 920.9552001953125 25583.708984375 -40616.00390625
v 2021.199462890625 10298.5732421875 -42271.375
v 920.9552001953125 25583.708984375 -40616.00390625
v -2135.38232421875 30667.8046875 -38229.85546875
v 2021.199462890625 10298.5732421875 -42271.375
v 2410.30908203125 31765.419921875 -34928.16015625
v 921.6054077148438 41305.90234375 -35196.078125
v 920.9552001953125 25583.708984375 -40616.00390625
v 921.6054077148438 41305.90234375 -35196.078125
v -2135.38232421875 30667.8046875 -38229.85546875
v 920.9552001953125 25583.708984375 -40616.00390625
v -1378.5068359375 36018.26171875 -31905.990234375
v -2135.38232421875 30667.8046875 -38229.85546875
v -2553.32763671875 64436.78515625 -17882.384765625
v -368.3594665527344 55915.78125 -27271.49609375
v -2135.38232421875 30667.8046875 -38229.85546875
v 921.6054077148438 41305.90234375 -35196.078125
v 2410.30908203125 31765.419921875 -34928.16015625
v 2439.285888671875 61828.8125 -21033.919921875
v 921.6054077148438 41305.90234375 -35196.078125
v 2410.30908203125 31765.419921875 -34928.16015625
v 464.5626220703125 52255.53515625 -22685.669921875
v 2439.285888671875 61828.8125 -21033.919921875
v -368.3594665527344 55915.78125 -27271.49609375
v -2553.32763671875 64436.78515625 -17882.384765625
v -2135.38232421875 30667.8046875 -38229.85546875
v -368.3594665527344 55915.78125 -27271.49609375
v 921.6054077148438 41305.90234375 -35196.078125
v 2439.285888671875 61828.8125 -21033.919921875
v 464.5626220703125 52255.53515625 -22685.669921875
v 466.9938659667969 63427.76953125 -13491.8125
v 2439.285888671875 61828.8125 -21033.919921875
v -368.3594665527344 55915.78125 -27271.49609375
v 2439.285888671875 61828.8125 -21033.919921875
v 927.485595703125 67904.90625 -16966.34375
v 927.485595703125 67904.90625 -16966.34375
v -2553.32763671875 64436.78515625 -17882.384765625
v -368.3594665527344 55915.78125 -27271.49609375
v 466.9938659667969 63427.76953125 -13491.8125
v -218.58445739746094 71979.8671875 -1921.736328125
v 2439.285888671875 61828.8125 -21033.919921875
v 175.04849243164063 77888.4921875 -3870.15869140625
v 927.485595703125 67904.90625 -16966.34375
v 2439.285888671875 61828.8125 -21033.919921875
v 175.04849243164063 77888.4921875 -3870.15869140625
v -2553.32763671875 64436.78515625 -17882.384765625
v 927.485595703125 67904.90625 -16966.34375
v 175.04849243164063 77888.4921875 -3870.15869140625
v 2439.285888671875 61828.8125 -21033.919921875
v 2056.339111328125 80082.3125 12494.8408203125
v -2522.343505859375 81608.4453125 11980.759765625
v -2553.32763671875 64436.78515625 -17882.384765625
v 175.04849243164063 77888.4921875 -3870.15869140625
v 2056.339111328125 80082.3125 12494.8408203125
v 72.14530944824219 84807.7109375 10904.2626953125
v 175.04849243164063 77888.4921875 -3870.15869140625
v 72.14530944824219 84807.7109375 10904.2626953125
v -2522.343505859375 81608.4453125 11980.759765625
v 175.04849243164063 77888.4921875 -3870.15869140625
v -2522.343505859375 81608.4453125 11980.759765625
v 72.14530944824219 84807.7109375 10904.2626953125
v 2056.339111328125 80082.3125 12494.8408203125
vt 0.24451255798339844 0.17974340915679932
vt 0.24448756873607635 0.18011528253555298
vt 0.24466614425182343 0.18261349201202393
vt 0.24411585927009583 0.18221938610076904
vt 0.24411796033382416 0.17985272407531738
vt 0.24451255798339844 0.17974340915679932
vt 0.24411585927009583 0.18221938610076904
vt 0.2441813349723816 0.18324506282806396
vt 0.24411796033382416 0.17985272407531738
vt 0.24466614425182343 0.18261349201202393
vt 0.24444469809532166 0.18144237995147705
vt 0.24451255798339844 0.17974340915679932
vt 0.24444469809532166 0.18144237995147705
vt 0.24411585927009583 0.18221938610076904
vt 0.24451255798339844 0.17974340915679932
vt 0.24466614425182343 0.18261349201202393
vt 0.2444121539592743 0.18345999717712402
vt 0.24444469809532166 0.18144237995147705
vt 0.2444121539592743 0.18345999717712402
vt 0.24411585927009583 0.18221938610076904
vt 0.24444469809532166 0.18144237995147705
vt 0.2441813349723816 0.18324506282806396
vt 0.24411585927009583 0.18221938610076904
vt 0.24408510327339172 0.1874064803123474
vt 0.2442692369222641 0.18560820817947388
vt 0.24411585927009583 0.18221938610076904
vt 0.2444121539592743 0.18345999717712402
vt 0.24466614425182343 0.18261349201202393
vt 0.24468085169792175 0.1867600679397583
vt 0.2444121539592743 0.18345999717712402
vt 0.24466614425182343 0.18261349201202393
vt 0.24439498782157898 0.1856488585472107
vt 0.24468085169792175 0.1867600679397583
vt 0.2442692369222641 0.18560820817947388
vt 0.24408510327339172 0.1874064803123474
vt 0.24411585927009583 0.18221938610076904
vt 0.2442692369222641 0.18560820817947388
vt 0.2444121539592743 0.18345999717712402
vt 0.24468085169792175 0.1867600679397583
vt 0.24439498782157898 0.1856488585472107
vt 0.24442078173160553 0.18757343292236328
vt 0.24468085169792175 0.1867600679397583
vt 0.2442692369222641 0.18560820817947388
vt 0.24468085169792175 0.1867600679397583
vt 0.24443921446800232 0.18768078088760376
vt 0.24443921446800232 0.18768078088760376
vt 0.24408510327339172 0.1874064803123474
vt 0.2442692369222641 0.18560820817947388
vt 0.24442078173160553 0.18757343292236328
vt 0.24442628026008606 0.18949341773986816
vt 0.24468085169792175 0.1867600679397583
vt 0.2443876713514328 0.18970555067062378
vt 0.24443921446800232 0.18768078088760376
vt 0.24468085169792175 0.1867600679397583
vt 0.2443876713514328 0.18970555067062378
vt 0.24408510327339172 0.1874064803123474
vt 0.24443921446800232 0.18768078088760376
vt 0.2443876713514328 0.18970555067062378
vt 0.24468085169792175 0.1867600679397583
vt 0.24470390379428864 0.19149571657180786
vt 0.2442120760679245 0.19156986474990845
vt 0.24408510327339172 0.1874064803123474
vt 0.2443876713514328 0.18970555067062378
vt 0.24470390379428864 0.19149571657180786
vt 0.24449394643306732 0.19176733493804932
vt 0.2443876713514328 0.18970555067062378
vt 0.24449394643306732 0.19176733493804932
vt 0.2442120760679245 0.19156986474990845
vt 0.2443876713514328 0.18970555067062378
vt 0.2442120760679245 0.19156986474990845
vt 0.24449394643306732 0.19176733493804932
vt 0.24470390379428864 0.19149571657180786
vn 0.9963086843490601 0.03751957416534424 -0.07721054553985596
vn 0.8569748997688293 -0.10651488602161407 0.5042309165000916
vn 0.9788663983345032 0.19828806817531586 0.05002596974372864
vn -0.5432350635528564 0.3096815049648285 -0.7803800702095032
vn -0.60580974817276 -0.04570251330733299 -0.7942957878112793
vn -0.08959609270095825 0.08250027894973755 -0.9925554394721985
vn -0.9662851691246033 -0.012098733335733414 -0.25718948245048523
vn -0.9374648332595825 -0.05618932098150253 0.3435145616531372
vn -0.944141149520874 -0.1413826048374176 0.29767146706581116
vn 0.9623107314109802 0.2647252678871155 -0.06227871775627136
vn 0.8086158037185669 0.04575280845165253 -0.5865553617477417
vn 0.8037989735603333 0.056913331151008606 -0.5921722650527954
vn -0.2973002791404724 0.0526600182056427 -0.9533307552337646
vn -0.7461104989051819 0.18687117099761963 -0.6390604972839355
vn -0.38757210969924927 -0.18495634198188782 -0.9030941724777222
vn 0.9880374073982239 -0.08221273124217987 -0.13047248125076294
vn 0.7834930419921875 0.28738123178482056 -0.5509542226791382
vn 0.77764892578125 0.17419494688510895 -0.6040844917297363
vn 0.01380087435245514 0.5128545761108398 -0.858364462852478
vn -0.42634350061416626 0.14697393774986267 -0.8925411701202393
vn 0.021817490458488464 0.12988755106925964 -0.9912886023521423
vn -0.8580694198608398 -0.1810118854045868 0.4805743098258972
vn -0.9919416904449463 -0.07230585813522339 -0.10403656959533691
vn -0.9748878479003906 0.18603210151195526 0.1224168986082077
vn -0.651114284992218 0.522907555103302 -0.5501072406768799
vn -0.6999528408050537 0.14299917221069336 -0.6997266411781311
vn -0.2692646384239197 0.48156988620758057 -0.8340185880661011
vn 0.9977420568466187 -0.025864798575639725 -0.061982378363609314
vn 0.9990666508674622 0.016628332436084747 -0.039865076541900635
vn 0.7998987436294556 0.28119707107543945 -0.5301794409751892
vn 0.6383919715881348 -0.47398948669433594 0.6064565777778625
vn 0.6424161791801453 -0.48056063055992126 0.596961259841919
vn 0.915164053440094 0.05531785637140274 0.3992675542831421
vn -0.6922340989112854 0.24371236562728882 -0.6792762875556946
vn -0.9438233375549316 0.3093199133872986 -0.11626970022916794
vn -0.7664288282394409 0.06835611909627914 -0.6386816501617432
vn 0.36794471740722656 0.43641769886016846 -0.8210701942443848
vn 0.456757128238678 0.26761430501937866 -0.8483840227127075
vn 0.7567687034606934 0.47754454612731934 -0.44637688994407654
vn 0.8007787466049194 -0.45225828886032104 0.3927031457424164
vn 0.7931374311447144 -0.41675060987472534 0.4441305994987488
vn 0.9795954823493958 -0.1836555153131485 -0.08162934333086014
vn 0.18449588119983673 0.4557662010192871 -0.8707687258720398
vn 0.6064643859863281 0.5749602913856506 -0.5492007732391357
vn 0.49509820342063904 0.7084707617759705 -0.5029382109642029
vn -0.20261041820049286 0.7808757424354553 -0.5909163355827332
vn -0.6824097037315369 0.4901910126209259 -0.5422450304031372
vn -0.27052968740463257 0.4687563180923462 -0.8408811688423157
vn 0.7429795861244202 -0.443816602230072 0.5010071992874146
vn 0.7381769418716431 -0.5180657505989075 0.4320913553237915
vn 0.7682541012763977 -0.6333633661270142 0.09293361753225327
vn 0.7497031688690186 0.6052751541137695 -0.26755791902542114
vn 0.7501344680786133 0.6105881929397583 -0.2539300322532654
vn 0.8091312646865845 0.22812741994857788 -0.5415390729904175
vn -0.638139545917511 0.7201128602027893 -0.2724250853061676
vn -0.7235959768295288 0.4476071000099182 -0.525411069393158
vn -0.2526448965072632 0.7323869466781616 -0.6322814226150513
vn 0.8051778078079224 0.5629628896713257 -0.18644431233406067
vn 0.9974120855331421 0.002328544855117798 -0.0718575268983841
vn 0.7975817322731018 0.19813844561576843 0.5697406530380249
vn -0.7936310768127441 0.3572980761528015 0.4924304783344269
vn -0.9675744771957397 0.14277946949005127 -0.20835921168327332
vn -0.6676180362701416 0.6891392469406128 -0.28173232078552246
vn 0.7459416389465332 -0.012799680233001709 0.6658883094787598
vn 0.5950111746788025 0.7161492109298706 0.36481767892837524
vn 0.9065812230110168 0.3813316822052002 -0.1808219701051712
vn -0.45403268933296204 0.8376947641372681 0.30351608991622925
vn -0.7828332185745239 0.19239278137683868 0.5917409062385559
vn -0.7487561702728271 0.593668520450592 -0.29482531547546387
vn -0.7670845985412598 0.010546952486038208 0.6414592266082764
vn 0.0913563072681427 0.9534779191017151 0.28728729486465454
vn 0.5895854234695435 -0.29197007417678833 0.7530887126922607
f 3/3/3 2/2/2 1/1/1
f 6/6/6 5/5/5 4/4/4
f 9/9/9 8/8/8 7/7/7
f 12/12/12 11/11/11 10/10/10
f 15/15/15 14/14/14 13/13/13
f 18/18/18 17/17/17 16/16/16
f 21/21/21 20/20/20 19/19/19
f 24/24/24 23/23/23 22/22/22
f 27/27/27 26/26/26 25/25/25
f 30/30/30 29/29/29 28/28/28
f 33/33/33 32/32/32 31/31/31
f 36/36/36 35/35/35 34/34/34
f 39/39/39 38/38/38 37/37/37
f 42/42/42 41/41/41 40/40/40
f 45/45/45 44/44/44 43/43/43
f 48/48/48 47/47/47 46/46/46
f 51/51/51 50/50/50 49/49/49
f 54/54/54 53/53/53 52/52/52
f 57/57/57 56/56/56 55/55/55
f 60/60/60 59/59/59 58/58/58
f 63/63/63 62/62/62 61/61/61
f 66/66/66 65/65/65 64/64/64
f 69/69/69 68/68/68 67/67/67
f 72/72/72 71/71/71 70/70/70
