# VPXTOOL table OBJ file
# VPXTOOL OBJ file
# numVerts: 32 numFaces: 72
o LM_L_LH4_Playfield
v -244.15174865722656 563.1470947265625 23.52941131591797
v -233.93276977539063 534.5339965820313 23.52941131591797
v -233.93276977539063 534.5339965820313 -0
v -233.93276977539063 534.5339965820313 -0
v -233.93276977539063 534.5339965820313 23.52941131591797
v -233.8252410888672 532.7052612304688 -0
v -244.15174865722656 563.1470947265625 -0
v -244.15174865722656 563.1470947265625 23.52941131591797
v -233.93276977539063 534.5339965820313 -0
v -41.22587585449219 534.7922973632813 -0
v -233.93276977539063 534.5339965820313 -0
v -233.8252410888672 532.7052612304688 -0
v -233.93276977539063 534.5339965820313 -0
v -41.22587585449219 534.7922973632813 -0
v -36.2238883972168 548.8837280273438 -0
v -106.2380599975586 639.1170654296875 -0
v 151.48098754882813 535.0505981445313 -0
v -244.15174865722656 563.1470947265625 -0
v -176.25222778320313 729.3502807617188 -0
v 161.48497009277344 563.2334594726563 -0
v 91.47079467773438 653.466796875 -0
v -181.36172485351563 743.6567993164063 -0
v 21.456623077392578 743.7000122070313 -0
v 21.456623077392578 743.7000122070313 -0
v 91.47079467773438 653.466796875 -0
v 92.43888092041016 654.9189453125 -0
v 92.92289733886719 655.6448974609375 -0
v 92.43888092041016 654.9189453125 -0
v 22.42470932006836 745.1521606445313 -0
v -48.55752182006836 833.9331665039063 -0
v -118.57166290283203 924.16650390625 -0
v -48.07347869873047 834.6593627929688 -0
vt 0.015566038899123669 0.15295124053955078
vt 0.004806807264685631 0.1496637463569641
vt 0.001359475078061223 0.1501302719116211
vt 0.001359475078061223 0.1501302719116211
vt 0.004806807264685631 0.1496637463569641
vt 0.0006717166397720575 0.15007799863815308
vt 0.012176821939647198 0.15344297885894775
vt 0.015566038899123669 0.15295124053955078
vt 0.001359475078061223 0.1501302719116211
vt 0.001456686295568943 0.09418493509292603
vt 0.001359475078061223 0.1501302719116211
vt 0.0006717166397720575 0.15007799863815308
vt 0.001359475078061223 0.1501302719116211
vt 0.001456686295568943 0.09418493509292603
vt 0.006771284621208906 0.09275752305984497
vt 0.04141812026500702 0.113614022731781
vt 0.0015538723673671484 0.0382346510887146
vt 0.012176821939647198 0.15344297885894775
vt 0.07716541737318039 0.13513308763504028
vt 0.012209645472466946 0.0351032018661499
vt 0.04702803120017052 0.055108070373535156
vt 0.08293773233890533 0.13680428266525269
vt 0.08295521140098572 0.07574999332427979
vt 0.08295521140098572 0.07574999332427979
vt 0.04702803120017052 0.055108070373535156
vt 0.04759731516242027 0.054814279079437256
vt 0.04788202419877052 0.05466729402542114
vt 0.04759731516242027 0.054814279079437256
vt 0.08354273438453674 0.07545679807662964
vt 0.12004496157169342 0.09705990552902222
vt 0.15835480391979218 0.11907076835632324
vt 0.12034833431243896 0.09691375494003296
vn -0.9417418837547302 -0.33633628487586975 -0
vn -0.9417418837547302 -0.33633628487586975 -0
vn -0.9417418837547302 -0.33633628487586975 -0
vn -0.9982765316963196 -0.05868411436676979 -0
vn -0.9982765316963196 -0.05868411436676979 -0
vn -0.9982765316963196 -0.05868411436676979 -0
vn -0.9417415857315063 -0.33633729815483093 -0
vn -0.9417415857315063 -0.33633729815483093 -0
vn -0.9417415857315063 -0.33633729815483093 -0
vn 0 -0 -0.9999999403953552
vn 0 -0 -0.9999999403953552
vn 0 -0 -0.9999999403953552
vn 0 -0 -1
vn 0 -0 -1
vn 0 -0 -1
vn 0 -0 -1
vn 0 -0 -1
vn 0 -0 -1
vn 0 -0 -1
vn 0 -0 -1
vn 0 -0 -1
vn 0 -0 -1
vn 0 -0 -1
vn 0 -0 -0.9999999403953552
vn 0 -0 -0.9999999403953552
vn 0 -0 -0.9999999403953552
vn 0 -0 -1
vn 0 -0 -1
vn 0 -0 -1
vn 0 -0 -1
vn 0 -0 -1
vn 0 -0 -1
f 3/3/3 2/2/2 1/1/1
f 6/6/6 5/5/5 4/4/4
f 9/9/9 8/8/8 7/7/7
f 12/12/12 11/11/11 10/10/10
f 15/15/15 14/14/14 13/13/13
f 13/13/13 16/16/16 15/15/15
f 17/17/17 14/14/14 15/15/15
f 19/19/19 13/13/13 18/18/18
f 17/17/17 15/15/15 20/20/20
f 13/13/13 19/19/19 16/16/16
f 15/15/15 21/21/21 20/20/20
f 19/19/19 18/18/18 22/22/22
f 16/16/16 23/23/23 15/15/15
f 15/15/15 23/23/23 21/21/21
f 16/16/16 19/19/19 23/23/23
f 26/26/26 25/25/25 24/24/24
f 28/28/28 23/23/23 27/27/27
f 23/23/23 29/29/29 27/27/27
f 19/19/19 30/30/30 23/23/23
f 31/31/31 19/19/19 22/22/22
f 29/29/29 23/23/23 30/30/30
f 19/19/19 31/31/31 30/30/30
f 30/30/30 32/32/32 29/29/29
f 30/30/30 31/31/31 32/32/32
