# VPXTOOL table OBJ file
# VPXTOOL OBJ file
# numVerts: 75 numFaces: 75
o LM_F_FL2_swI2
v 457.52337646484375 9405.916015625 -36906.87109375
v 458.993408203125 23665.130859375 -35122.453125
v 2410.36572265625 31765.36328125 -34928.11328125
v 2021.3125 10298.5166015625 -42271.3671875
v 457.52337646484375 9405.916015625 -36906.87109375
v 2410.36572265625 31765.36328125 -34928.11328125
v -2135.35400390625 30667.8046875 -38229.81640625
v -2571.703125 7738.09326171875 -40651.28515625
v 2021.3125 10298.5166015625 -42271.3671875
v 2410.36572265625 31765.36328125 -34928.11328125
v 920.9834594726563 25583.541015625 -40616.01171875
v 2021.3125 10298.5166015625 -42271.3671875
v 2410.36572265625 31765.36328125 -34928.11328125
v 458.993408203125 23665.130859375 -35122.453125
v -1378.4219970703125 36018.1484375 -31906.015625
v 920.9834594726563 25583.541015625 -40616.01171875
v -2135.35400390625 30667.8046875 -38229.81640625
v 2021.3125 10298.5166015625 -42271.3671875
v 2410.36572265625 31765.36328125 -34928.11328125
v 921.6336669921875 41306.015625 -35196.01171875
v 920.9834594726563 25583.541015625 -40616.01171875
v 2410.36572265625 31765.36328125 -34928.11328125
v -1378.4219970703125 36018.1484375 -31906.015625
v 464.6474304199219 52255.53515625 -22685.630859375
v 921.6336669921875 41306.015625 -35196.01171875
v -2135.35400390625 30667.8046875 -38229.81640625
v 920.9834594726563 25583.541015625 -40616.01171875
v -368.30291748046875 55915.8359375 -27271.45703125
v -2135.35400390625 30667.8046875 -38229.81640625
v 921.6336669921875 41306.015625 -35196.01171875
v 2410.36572265625 31765.36328125 -34928.11328125
v 2439.314208984375 61828.92578125 -21033.7890625
v 921.6336669921875 41306.015625 -35196.01171875
v 2410.36572265625 31765.36328125 -34928.11328125
v 464.6474304199219 52255.53515625 -22685.630859375
v 2439.314208984375 61828.92578125 -21033.7890625
v -368.30291748046875 55915.8359375 -27271.45703125
v -2553.29931640625 64436.50390625 -17882.615234375
v -2135.35400390625 30667.8046875 -38229.81640625
v -368.30291748046875 55915.8359375 -27271.45703125
v 921.6336669921875 41306.015625 -35196.01171875
v 2439.314208984375 61828.92578125 -21033.7890625
v 464.6474304199219 52255.53515625 -22685.630859375
v 467.07867431640625 63427.82421875 -13491.802734375
v 2439.314208984375 61828.92578125 -21033.7890625
v -368.30291748046875 55915.8359375 -27271.45703125
v 2439.314208984375 61828.92578125 -21033.7890625
v 927.5421142578125 67904.90625 -16966.330078125
v 927.5421142578125 67904.90625 -16966.330078125
v -2553.29931640625 64436.50390625 -17882.615234375
v -368.30291748046875 55915.8359375 -27271.45703125
v 467.07867431640625 63427.82421875 -13491.802734375
v -218.5279083251953 71979.8125 -1921.7073974609375
v 2439.314208984375 61828.92578125 -21033.7890625
v 175.1050262451172 77888.4375 -3870.2119140625
v 927.5421142578125 67904.90625 -16966.330078125
v 2439.314208984375 61828.92578125 -21033.7890625
v 175.1050262451172 77888.4375 -3870.2119140625
v -2553.29931640625 64436.50390625 -17882.615234375
v 927.5421142578125 67904.90625 -16966.330078125
v 2439.314208984375 61828.92578125 -21033.7890625
v -218.5279083251953 71979.8125 -1921.7073974609375
v 2056.424072265625 80082.3671875 12494.853515625
v 175.1050262451172 77888.4375 -3870.2119140625
v 2439.314208984375 61828.92578125 -21033.7890625
v 2056.424072265625 80082.3671875 12494.853515625
v -2522.315185546875 81608.3828125 11980.7841796875
v -2553.29931640625 64436.50390625 -17882.615234375
v 175.1050262451172 77888.4375 -3870.2119140625
v 2056.424072265625 80082.3671875 12494.853515625
v 72.23011779785156 84807.65625 10904.2587890625
v 175.1050262451172 77888.4375 -3870.2119140625
v 72.23011779785156 84807.65625 10904.2587890625
v -2522.315185546875 81608.3828125 11980.7841796875
v 175.1050262451172 77888.4375 -3870.2119140625
vt 0.6483967304229736 0.8721864223480225
vt 0.6488348841667175 0.8739677667617798
vt 0.6492798328399658 0.8749620318412781
vt 0.6479864120483398 0.8722265958786011
vt 0.6483967304229736 0.8721864223480225
vt 0.6492798328399658 0.8749620318412781
vt 0.6485639214515686 0.8748899698257446
vt 0.6478540897369385 0.8722310662269592
vt 0.6479864120483398 0.8722265958786011
vt 0.6492798328399658 0.8749620318412781
vt 0.6484503746032715 0.8741431832313538
vt 0.6479864120483398 0.8722265958786011
vt 0.6492798328399658 0.8749620318412781
vt 0.6488348841667175 0.8739677667617798
vt 0.6492738127708435 0.8755140900611877
vt 0.6484503746032715 0.8741431832313538
vt 0.6485639214515686 0.8748899698257446
vt 0.6479864120483398 0.8722265958786011
vt 0.6492798328399658 0.8749620318412781
vt 0.6492616534233093 0.8760772943496704
vt 0.6484503746032715 0.8741431832313538
vt 0.6492798328399658 0.8749620318412781
vt 0.6492738127708435 0.8755140900611877
vt 0.6505981683731079 0.8775213956832886
vt 0.6492616534233093 0.8760772943496704
vt 0.6485639214515686 0.8748899698257446
vt 0.6484503746032715 0.8741431832313538
vt 0.6502141952514648 0.8779021501541138
vt 0.6485639214515686 0.8748899698257446
vt 0.6492616534233093 0.8760772943496704
vt 0.6492798328399658 0.8749620318412781
vt 0.6513170599937439 0.8784606456756592
vt 0.6492616534233093 0.8760772943496704
vt 0.6492798328399658 0.8749620318412781
vt 0.6505981683731079 0.8775213956832886
vt 0.6513170599937439 0.8784606456756592
vt 0.6502141952514648 0.8779021501541138
vt 0.6511860489845276 0.8791126608848572
vt 0.6485639214515686 0.8748899698257446
vt 0.6502141952514648 0.8779021501541138
vt 0.6492616534233093 0.8760772943496704
vt 0.6513170599937439 0.8784606456756592
vt 0.6505981683731079 0.8775213956832886
vt 0.6517200469970703 0.878901481628418
vt 0.6513170599937439 0.8784606456756592
vt 0.6502141952514648 0.8779021501541138
vt 0.6513170599937439 0.8784606456756592
vt 0.6515390872955322 0.8793475031852722
vt 0.6515390872955322 0.8793475031852722
vt 0.6511860489845276 0.8791126608848572
vt 0.6502141952514648 0.8779021501541138
vt 0.6517200469970703 0.878901481628418
vt 0.6530126333236694 0.8800044655799866
vt 0.6513170599937439 0.8784606456756592
vt 0.6528763771057129 0.880495011806488
vt 0.6515390872955322 0.8793475031852722
vt 0.6513170599937439 0.8784606456756592
vt 0.6528763771057129 0.880495011806488
vt 0.6511860489845276 0.8791126608848572
vt 0.6515390872955322 0.8793475031852722
vt 0.6513170599937439 0.8784606456756592
vt 0.6530126333236694 0.8800044655799866
vt 0.6547093987464905 0.8808929324150085
vt 0.6528763771057129 0.880495011806488
vt 0.6513170599937439 0.8784606456756592
vt 0.6547093987464905 0.8808929324150085
vt 0.6543452143669128 0.8810882568359375
vt 0.6511860489845276 0.8791126608848572
vt 0.6528763771057129 0.880495011806488
vt 0.6547093987464905 0.8808929324150085
vt 0.6545249819755554 0.881388783454895
vt 0.6528763771057129 0.880495011806488
vt 0.6545249819755554 0.881388783454895
vt 0.6543452143669128 0.8810882568359375
vt 0.6528763771057129 0.880495011806488
vn 0.14847514033317566 -0.21986959874629974 0.9641641974449158
vn 0.18424786627292633 -0.28690287470817566 0.9400742053985596
vn 0.6391668319702148 0.10848701000213623 0.7613779306411743
vn 0.9963091611862183 0.037518687546253204 -0.07720416784286499
vn 0.8569714426994324 -0.10651451349258423 0.5042366981506348
vn 0.9788658618927002 0.19828830659389496 0.05003301799297333
vn -0.543243408203125 0.30967870354652405 -0.7803752422332764
vn -0.6058158874511719 -0.04570784047245979 -0.7942907810211182
vn -0.08960539847612381 0.08250194787979126 -0.9925544261932373
vn 0.962308406829834 0.2647314667701721 -0.06228742003440857
vn 0.8086100816726685 0.04575768858194351 -0.5865626931190491
vn 0.8037931323051453 0.056918490678071976 -0.5921796560287476
vn 0.6758044362068176 -0.3004496395587921 0.6730664968490601
vn 0.7306427955627441 -0.18444262444972992 0.6573750972747803
vn 0.24859407544136047 -0.21676060557365417 0.9440422654151917
vn -0.2973129153251648 0.052654314786195755 -0.9533271789550781
vn -0.7461191415786743 0.18686644732952118 -0.6390519738197327
vn -0.3875824511051178 -0.18496087193489075 -0.9030888676643372
vn 0.9880369901657104 -0.08221164345741272 -0.13047589361667633
vn 0.7834908366203308 0.2873817980289459 -0.550957202911377
vn 0.7776466012001038 0.17419511079788208 -0.6040875911712646
vn 0.39641889929771423 -0.4417124390602112 0.8048243522644043
vn -0.11448711156845093 -0.3478630483150482 0.9305288791656494
vn -0.16771799325942993 -0.46168848872184753 0.8710421323776245
vn 0.013803884387016296 0.5128538608551025 -0.8583648800849915
vn -0.42634153366088867 0.14697521924972534 -0.8925419449806213
vn 0.021819673478603363 0.12988527119159698 -0.991288959980011
vn -0.6511209011077881 0.522905170917511 -0.5501015782356262
vn -0.699959397315979 0.14299635589122772 -0.699720561504364
vn -0.2692737579345703 0.48156893253326416 -0.8340162038803101
vn 0.9977420568466187 -0.025864021852612495 -0.06198282539844513
vn 0.9990665912628174 0.016629256308078766 -0.03986544907093048
vn 0.7998983263969421 0.28119856119155884 -0.5301792621612549
vn 0.6383960843086243 -0.47398748993873596 0.6064537167549133
vn 0.6424205899238586 -0.4805588722229004 0.5969579815864563
vn 0.9151652455329895 0.05532127991318703 0.39926445484161377
vn -0.6922264099121094 0.24371586740016937 -0.6792828440666199
vn -0.9438210725784302 0.3093235194683075 -0.11627870053052902
vn -0.7664226293563843 0.06835909932851791 -0.6386888027191162
vn 0.3679574131965637 0.43641531467437744 -0.8210657835006714
vn 0.4567687213420868 0.26761168241500854 -0.848378598690033
vn 0.7567771673202515 0.4775395393371582 -0.44636791944503784
vn 0.8007832169532776 -0.45225340127944946 0.39269959926605225
vn 0.793141782283783 -0.41674530506134033 0.4441276788711548
vn 0.9795966744422913 -0.1836472749710083 -0.08163318037986755
vn 0.18451367318630219 0.4557635486125946 -0.8707664012908936
vn 0.6064783334732056 0.5749539732933044 -0.549191951751709
vn 0.4951130151748657 0.708465039730072 -0.5029315948486328
vn -0.20261552929878235 0.7808789610862732 -0.5909104347229004
vn -0.6824107766151428 0.4901851415634155 -0.5422490835189819
vn -0.270530641078949 0.46875765919685364 -0.8408802151679993
vn 0.7429840564727783 -0.44381463527679443 0.5010022521018982
vn 0.7381816506385803 -0.518063485622406 0.4320858418941498
vn 0.7682578563690186 -0.633359432220459 0.09292825311422348
vn 0.7497057914733887 0.6052729487419128 -0.2675553560256958
vn 0.7501369714736938 0.6105858683586121 -0.25392794609069824
vn 0.8091338872909546 0.22812435030937195 -0.5415363311767578
vn -0.6381468772888184 0.7201077938079834 -0.27242136001586914
vn -0.723600447177887 0.44759899377822876 -0.52541184425354
vn -0.25265389680862427 0.7323892116546631 -0.6322753429412842
vn 0.47743383049964905 -0.8146885633468628 0.3291499614715576
vn -0.09993421286344528 -0.8095717430114746 0.5784522294998169
vn -0.1511349380016327 -0.35540664196014404 0.9224123358726501
vn 0.805175244808197 0.5629651546478271 -0.18644823133945465
vn 0.997411847114563 0.002331659197807312 -0.07186098396778107
vn 0.7975826263427734 0.19814276695251465 0.5697380304336548
vn -0.7936315536499023 0.35729652643203735 0.49243077635765076
vn -0.967574954032898 0.1427774280309677 -0.208358496427536
vn -0.6676197052001953 0.6891377568244934 -0.28173232078552246
vn 0.7459422945976257 -0.012789517641067505 0.6658877730369568
vn 0.5950072407722473 0.7161548733711243 0.36481302976608276
vn 0.9065783619880676 0.38133683800697327 -0.18082550168037415
vn -0.4540247321128845 0.8376996517181396 0.3035142421722412
vn -0.7828317284584045 0.19240084290504456 0.5917402505874634
vn -0.7487504482269287 0.5936752557754517 -0.29482629895210266
f 3/3/3 2/2/2 1/1/1
f 6/6/6 5/5/5 4/4/4
f 9/9/9 8/8/8 7/7/7
f 12/12/12 11/11/11 10/10/10
f 15/15/15 14/14/14 13/13/13
f 18/18/18 17/17/17 16/16/16
f 21/21/21 20/20/20 19/19/19
f 24/24/24 23/23/23 22/22/22
f 27/27/27 26/26/26 25/25/25
f 30/30/30 29/29/29 28/28/28
f 33/33/33 32/32/32 31/31/31
f 36/36/36 35/35/35 34/34/34
f 39/39/39 38/38/38 37/37/37
f 42/42/42 41/41/41 40/40/40
f 45/45/45 44/44/44 43/43/43
f 48/48/48 47/47/47 46/46/46
f 51/51/51 50/50/50 49/49/49
f 54/54/54 53/53/53 52/52/52
f 57/57/57 56/56/56 55/55/55
f 60/60/60 59/59/59 58/58/58
f 63/63/63 62/62/62 61/61/61
f 66/66/66 65/65/65 64/64/64
f 69/69/69 68/68/68 67/67/67
f 72/72/72 71/71/71 70/70/70
f 75/75/75 74/74/74 73/73/73
