# VPXTOOL table OBJ file
# VPXTOOL OBJ file
# numVerts: 147 numFaces: 168
o LM_GI_gi20_UnderPF
v -318.1871643066406 -336.048828125 -28.486501693725586
v -276.7431335449219 -339.5841369628906 -28.486501693725586
v -311.13189697265625 -331.64117431640625 -28.486501693725586
v -272.33551025390625 -346.639404296875 -28.486501693725586
v -272.33551025390625 -346.639404296875 -33.192386627197266
v -272.18463134765625 -345.33087158203125 -33.192386627197266
v -318.1871643066406 -336.048828125 -28.486501693725586
v -311.13189697265625 -331.64117431640625 -28.486501693725586
v -312.4404296875 -331.4903259277344 -28.486501693725586
v -317.74884033203125 -334.8066711425781 -28.486501693725586
v -317.74884033203125 -334.8066711425781 -33.192386627197266
v -318.1871643066406 -336.048828125 -33.192386627197266
v -276.7431335449219 -339.5841369628906 -28.486501693725586
v -272.33551025390625 -346.639404296875 -28.486501693725586
v -272.18463134765625 -345.33087158203125 -28.486501693725586
v -272.18463134765625 -345.33087158203125 -28.486501693725586
v -272.33551025390625 -346.639404296875 -28.486501693725586
v -272.18463134765625 -345.33087158203125 -33.192386627197266
v -312.4404296875 -331.4903259277344 -28.486501693725586
v -317.045166015625 -333.6931457519531 -28.486501693725586
v -318.1871643066406 -336.048828125 -28.486501693725586
v -276.7431335449219 -339.5841369628906 -28.486501693725586
v -318.1871643066406 -336.048828125 -28.486501693725586
v -272.33551025390625 -346.639404296875 -28.486501693725586
v -318.1871643066406 -336.048828125 -28.486501693725586
v -317.74884033203125 -334.8066711425781 -28.486501693725586
v -318.1871643066406 -336.048828125 -33.192386627197266
v -317.045166015625 -333.6931457519531 -28.486501693725586
v -317.74884033203125 -334.8066711425781 -28.486501693725586
v -318.1871643066406 -336.048828125 -28.486501693725586
v -318.1871643066406 -336.048828125 -28.486501693725586
v -318.1871643066406 -336.048828125 -33.192386627197266
v -326.1300354003906 -370.4376525878906 -33.192386627197266
v -272.33551025390625 -346.639404296875 -28.486501693725586
v -280.27838134765625 -381.0281677246094 -28.486501693725586
v -272.33551025390625 -346.639404296875 -33.192386627197266
v -280.27838134765625 -381.0281677246094 -28.486501693725586
v -280.27838134765625 -381.0281677246094 -28.486501693725586
v -280.27838134765625 -381.0281677246094 -33.192386627197266
v -272.33551025390625 -346.639404296875 -33.192386627197266
v -326.1300354003906 -370.4376525878906 -28.486501693725586
v -318.1871643066406 -336.048828125 -28.486501693725586
v -326.1300354003906 -370.4376525878906 -33.192386627197266
v -326.1300354003906 -370.4376525878906 -28.486501693725586
v -326.1300354003906 -370.4376525878906 -28.486501693725586
v -326.1300354003906 -370.4376525878906 -33.192386627197266
v -326.2809143066406 -371.7461853027344 -33.192386627197266
v -280.27838134765625 -381.0281677246094 -28.486501693725586
v -280.7166748046875 -382.2703552246094 -28.486501693725586
v -280.27838134765625 -381.0281677246094 -33.192386627197266
v -281.42034912109375 -383.3838806152344 -28.486501693725586
v -281.42034912109375 -383.3838806152344 -33.192386627197266
v -280.7166748046875 -382.2703552246094 -33.192386627197266
v -326.2809143066406 -371.7461853027344 -28.486501693725586
v -326.2809143066406 -371.7461853027344 -33.192386627197266
v -326.1368103027344 -373.0555114746094 -33.192386627197266
v -280.7166748046875 -382.2703552246094 -28.486501693725586
v -281.42034912109375 -383.3838806152344 -28.486501693725586
v -280.7166748046875 -382.2703552246094 -33.192386627197266
v -326.2809143066406 -371.7461853027344 -28.486501693725586
v -326.1300354003906 -370.4376525878906 -28.486501693725586
v -326.2809143066406 -371.7461853027344 -33.192386627197266
v -326.1368103027344 -373.0555114746094 -28.486501693725586
v -326.1368103027344 -373.0555114746094 -33.192386627197266
v -325.70501708984375 -374.2999572753906 -33.192386627197266
v -281.42034912109375 -383.3838806152344 -28.486501693725586
v -280.7166748046875 -382.2703552246094 -28.486501693725586
v -280.27838134765625 -381.0281677246094 -28.486501693725586
v -281.42034912109375 -383.3838806152344 -28.486501693725586
v -282.35418701171875 -384.3128662109375 -28.486501693725586
v -281.42034912109375 -383.3838806152344 -33.192386627197266
v -326.1368103027344 -373.0555114746094 -28.486501693725586
v -326.2809143066406 -371.7461853027344 -28.486501693725586
v -326.1368103027344 -373.0555114746094 -33.192386627197266
v -325.70501708984375 -374.2999572753906 -28.486501693725586
v -325.70501708984375 -374.2999572753906 -33.192386627197266
v -325.007080078125 -375.4171142578125 -33.192386627197266
v -284.7157897949219 -385.44256591796875 -28.486501693725586
v -284.7157897949219 -385.44256591796875 -33.192386627197266
v -283.4713439941406 -385.0107727050781 -33.192386627197266
v -321.722412109375 -377.492919921875 -28.486501693725586
v -280.27838134765625 -381.0281677246094 -28.486501693725586
v -326.1300354003906 -370.4376525878906 -28.486501693725586
v -286.0251159667969 -385.586669921875 -28.486501693725586
v -281.42034912109375 -383.3838806152344 -28.486501693725586
v -280.27838134765625 -381.0281677246094 -28.486501693725586
v -286.0251159667969 -385.586669921875 -28.486501693725586
v -286.0251159667969 -385.586669921875 -33.192386627197266
v -284.7157897949219 -385.44256591796875 -33.192386627197266
v -325.70501708984375 -374.2999572753906 -28.486501693725586
v -326.1368103027344 -373.0555114746094 -28.486501693725586
v -325.70501708984375 -374.2999572753906 -33.192386627197266
v -325.007080078125 -375.4171142578125 -28.486501693725586
v -325.007080078125 -375.4171142578125 -33.192386627197266
v -324.0780944824219 -376.35089111328125 -33.192386627197266
v -287.3336486816406 -385.4358215332031 -28.486501693725586
v -287.3336486816406 -385.4358215332031 -33.192386627197266
v -286.0251159667969 -385.586669921875 -33.192386627197266
v -321.722412109375 -377.492919921875 -28.486501693725586
v -326.2809143066406 -371.7461853027344 -28.486501693725586
v -283.4713439941406 -385.0107727050781 -28.486501693725586
v -284.7157897949219 -385.44256591796875 -28.486501693725586
v -283.4713439941406 -385.0107727050781 -33.192386627197266
v -283.4713439941406 -385.0107727050781 -28.486501693725586
v -282.35418701171875 -384.3128662109375 -28.486501693725586
v -281.42034912109375 -383.3838806152344 -28.486501693725586
v -324.0780944824219 -376.35089111328125 -28.486501693725586
v -324.0780944824219 -376.35089111328125 -33.192386627197266
v -322.9645690917969 -377.05462646484375 -33.192386627197266
v -321.722412109375 -377.492919921875 -28.486501693725586
v -321.722412109375 -377.492919921875 -33.192386627197266
v -287.3336486816406 -385.4358215332031 -33.192386627197266
v -280.27838134765625 -381.0281677246094 -28.486501693725586
v -287.3336486816406 -385.4358215332031 -28.486501693725586
v -286.0251159667969 -385.586669921875 -28.486501693725586
v -325.007080078125 -375.4171142578125 -28.486501693725586
v -325.70501708984375 -374.2999572753906 -28.486501693725586
v -325.007080078125 -375.4171142578125 -33.192386627197266
v -322.9645690917969 -377.05462646484375 -28.486501693725586
v -322.9645690917969 -377.05462646484375 -33.192386627197266
v -321.722412109375 -377.492919921875 -33.192386627197266
v -324.0780944824219 -376.35089111328125 -28.486501693725586
v -326.1368103027344 -373.0555114746094 -28.486501693725586
v -284.7157897949219 -385.44256591796875 -28.486501693725586
v -286.0251159667969 -385.586669921875 -28.486501693725586
v -284.7157897949219 -385.44256591796875 -33.192386627197266
v -284.7157897949219 -385.44256591796875 -28.486501693725586
v -280.27838134765625 -381.0281677246094 -28.486501693725586
v -321.722412109375 -377.492919921875 -28.486501693725586
v -287.3336486816406 -385.4358215332031 -28.486501693725586
v -286.0251159667969 -385.586669921875 -28.486501693725586
v -286.0251159667969 -385.586669921875 -28.486501693725586
v -324.0780944824219 -376.35089111328125 -28.486501693725586
v -325.007080078125 -375.4171142578125 -28.486501693725586
v -324.0780944824219 -376.35089111328125 -33.192386627197266
v -287.3336486816406 -385.4358215332031 -28.486501693725586
v -324.0780944824219 -376.35089111328125 -28.486501693725586
v -326.1368103027344 -373.0555114746094 -28.486501693725586
v -325.70501708984375 -374.2999572753906 -28.486501693725586
v -322.9645690917969 -377.05462646484375 -28.486501693725586
v -321.722412109375 -377.492919921875 -28.486501693725586
v -322.9645690917969 -377.05462646484375 -28.486501693725586
v -321.722412109375 -377.492919921875 -33.192386627197266
v -325.70501708984375 -374.2999572753906 -28.486501693725586
v -325.007080078125 -375.4171142578125 -28.486501693725586
v -324.0780944824219 -376.35089111328125 -28.486501693725586
v -322.9645690917969 -377.05462646484375 -28.486501693725586
vt 0.9327422380447388 0.4841998815536499
vt 0.9317811727523804 0.4740334749221802
vt 0.9339417219161987 0.482530415058136
vt 0.9298662543296814 0.4728798270225525
vt 0.9289482831954956 0.4729689955711365
vt 0.9293034076690674 0.4729464650154114
vt 0.9327422380447388 0.4841998815536499
vt 0.9339417219161987 0.482530415058136
vt 0.9339828491210938 0.4828522205352783
vt 0.9330800771713257 0.48410844802856445
vt 0.9321644306182861 0.4842113256454468
vt 0.9318262934684753 0.4843028783798218
vt 0.9317811727523804 0.4740334749221802
vt 0.9298662543296814 0.4728798270225525
vt 0.9302211403846741 0.4728572964668274
vt 0.9302211403846741 0.4728572964668274
vt 0.9298662543296814 0.4728798270225525
vt 0.9293034076690674 0.4729464650154114
vt 0.9339828491210938 0.4828522205352783
vt 0.9333831667900085 0.48395049571990967
vt 0.9327422380447388 0.4841998815536499
vt 0.9317811727523804 0.4740334749221802
vt 0.9327422380447388 0.4841998815536499
vt 0.9298662543296814 0.4728798270225525
vt 0.9327422380447388 0.4841998815536499
vt 0.9330800771713257 0.48410844802856445
vt 0.9318262934684753 0.4843028783798218
vt 0.9333831667900085 0.48395049571990967
vt 0.9330800771713257 0.48410844802856445
vt 0.9327422380447388 0.4841998815536499
vt 0.9327422380447388 0.4841998815536499
vt 0.9318262934684753 0.4843028783798218
vt 0.9225139021873474 0.48580360412597656
vt 0.9298662543296814 0.4728798270225525
vt 0.9205893278121948 0.474433958530426
vt 0.9289482831954956 0.4729689955711365
vt 0.9205893278121948 0.474433958530426
vt 0.9205893278121948 0.474433958530426
vt 0.9196649193763733 0.4745245575904846
vt 0.9289482831954956 0.4729689955711365
vt 0.9234363436698914 0.4856994152069092
vt 0.9327422380447388 0.4841998815536499
vt 0.9225139021873474 0.48580360412597656
vt 0.9234363436698914 0.4856994152069092
vt 0.9234363436698914 0.4856994152069092
vt 0.9225139021873474 0.48580360412597656
vt 0.9221614003181458 0.4858235716819763
vt 0.9205893278121948 0.474433958530426
vt 0.9202559590339661 0.474526584148407
vt 0.9196649193763733 0.4745245575904846
vt 0.9199572801589966 0.4746849536895752
vt 0.9190323948860168 0.4747757911682129
vt 0.9193313717842102 0.47461724281311035
vt 0.9230840802192688 0.48571938276290894
vt 0.9221614003181458 0.4858235716819763
vt 0.9218087792396545 0.4857717752456665
vt 0.9202559590339661 0.474526584148407
vt 0.9199572801589966 0.4746849536895752
vt 0.9193313717842102 0.47461724281311035
vt 0.9230840802192688 0.48571938276290894
vt 0.9234363436698914 0.4856994152069092
vt 0.9221614003181458 0.4858235716819763
vt 0.9227317571640015 0.4856676459312439
vt 0.9218087792396545 0.4857717752456665
vt 0.9214738607406616 0.48565077781677246
vt 0.9199572801589966 0.4746849536895752
vt 0.9202559590339661 0.474526584148407
vt 0.9205893278121948 0.474433958530426
vt 0.9199572801589966 0.4746849536895752
vt 0.9197080731391907 0.4749011993408203
vt 0.9190323948860168 0.4747757911682129
vt 0.9227317571640015 0.4856676459312439
vt 0.9230840802192688 0.48571938276290894
vt 0.9218087792396545 0.4857717752456665
vt 0.9223970174789429 0.4855468273162842
vt 0.9214738607406616 0.48565077781677246
vt 0.9211732745170593 0.48546677827835083
vt 0.9194052219390869 0.475461483001709
vt 0.9184799790382385 0.4755532741546631
vt 0.9185958504676819 0.4752558469772339
vt 0.9215387105941772 0.48453885316848755
vt 0.9205893278121948 0.474433958530426
vt 0.9234363436698914 0.4856994152069092
vt 0.9193665981292725 0.47577744722366333
vt 0.9199572801589966 0.4746849536895752
vt 0.9205893278121948 0.474433958530426
vt 0.9193665981292725 0.47577744722366333
vt 0.9184413552284241 0.4758695960044861
vt 0.9184799790382385 0.4755532741546631
vt 0.9223970174789429 0.4855468273162842
vt 0.9227317571640015 0.4856676459312439
vt 0.9214738607406616 0.48565077781677246
vt 0.9220966100692749 0.4853630065917969
vt 0.9211732745170593 0.48546677827835083
vt 0.920922040939331 0.485228955745697
vt 0.9194070100784302 0.47609663009643555
vt 0.9184818267822266 0.47618913650512695
vt 0.9184413552284241 0.4758695960044861
vt 0.9215387105941772 0.48453885316848755
vt 0.9230840802192688 0.48571938276290894
vt 0.9195210337638855 0.47516441345214844
vt 0.9194052219390869 0.475461483001709
vt 0.9185958504676819 0.4752558469772339
vt 0.9195210337638855 0.47516441345214844
vt 0.9197080731391907 0.4749011993408203
vt 0.9199572801589966 0.4746849536895752
vt 0.9218456149101257 0.48512548208236694
vt 0.920922040939331 0.485228955745697
vt 0.9207327961921692 0.4849492311477661
vt 0.9215387105941772 0.48453885316848755
vt 0.9206149578094482 0.4846416115760803
vt 0.9184818267822266 0.47618913650512695
vt 0.9205893278121948 0.474433958530426
vt 0.9194070100784302 0.47609663009643555
vt 0.9193665981292725 0.47577744722366333
vt 0.9220966100692749 0.4853630065917969
vt 0.9223970174789429 0.4855468273162842
vt 0.9211732745170593 0.48546677827835083
vt 0.9216564893722534 0.4848461151123047
vt 0.9207327961921692 0.4849492311477661
vt 0.9206149578094482 0.4846416115760803
vt 0.9218456149101257 0.48512548208236694
vt 0.9227317571640015 0.4856676459312439
vt 0.9194052219390869 0.475461483001709
vt 0.9193665981292725 0.47577744722366333
vt 0.9184799790382385 0.4755532741546631
vt 0.9194052219390869 0.475461483001709
vt 0.9205893278121948 0.474433958530426
vt 0.9215387105941772 0.48453885316848755
vt 0.9194070100784302 0.47609663009643555
vt 0.9193665981292725 0.47577744722366333
vt 0.9193665981292725 0.47577744722366333
vt 0.9218456149101257 0.48512548208236694
vt 0.9220966100692749 0.4853630065917969
vt 0.920922040939331 0.485228955745697
vt 0.9194070100784302 0.47609663009643555
vt 0.9218456149101257 0.48512548208236694
vt 0.9227317571640015 0.4856676459312439
vt 0.9223970174789429 0.4855468273162842
vt 0.9216564893722534 0.4848461151123047
vt 0.9215387105941772 0.48453885316848755
vt 0.9216564893722534 0.4848461151123047
vt 0.9206149578094482 0.4846416115760803
vt 0.9223970174789429 0.4855468273162842
vt 0.9220966100692749 0.4853630065917969
vt 0.9218456149101257 0.48512548208236694
vt 0.9216564893722534 0.4848461151123047
vn -0.00000018044391936200554 -0 -1
vn -0.00000018044391936200554 -0 -1
vn -0.00000018044391936200554 -0 -1
vn -0.9934168457984924 0.1145552471280098 -0
vn -0.9934168457984924 0.1145552471280098 -0
vn -0.9934168457984924 0.1145552471280098 -0
vn 0.0000036556120903696865 -0 -1
vn 0.0000036556120903696865 -0 -1
vn 0.0000036556120903696865 -0 -1
vn 0.9430102109909058 -0.3327637314796448 -0
vn 0.9430102109909058 -0.3327637314796448 -0
vn 0.9430102109909058 -0.3327637314796448 -0
vn 0 -0 -1
vn 0 -0 -1
vn 0 -0 -1
vn -0.9934205412864685 0.11452344059944153 -0
vn -0.9934205412864685 0.11452344059944153 -0
vn -0.9934205412864685 0.11452344059944153 -0
vn -0.000001498765072938113 -0 -1
vn -0.000001498765072938113 -0 -1
vn -0.000001498765072938113 -0 -1
vn -0.00000004511150208941217 -0 -1
vn -0.00000004511150208941217 -0 -1
vn -0.00000004511150208941217 -0 -1
vn 0.9430203437805176 -0.3327350914478302 -0
vn 0.9430203437805176 -0.3327350914478302 -0
vn 0.9430203437805176 -0.3327350914478302 -0
vn 0 -0 -1
vn 0 -0 -1
vn 0 -0 -1
vn 0.9743476510047913 -0.22504812479019165 -0
vn 0.9743476510047913 -0.22504812479019165 -0
vn 0.9743476510047913 -0.22504812479019165 -0
vn -0.9743478894233704 0.2250472605228424 -0
vn -0.9743478894233704 0.2250472605228424 -0
vn -0.9743478894233704 0.2250472605228424 -0
vn 0 -0 -1
vn -0.9743473529815674 0.22504982352256775 -0
vn -0.9743473529815674 0.22504982352256775 -0
vn -0.9743473529815674 0.22504982352256775 -0
vn 0.9743478894233704 -0.22504699230194092 -0
vn 0.9743478894233704 -0.22504699230194092 -0
vn 0.9743478894233704 -0.22504699230194092 -0
vn 0 -0 -1
vn 0.9934168457984924 -0.1145552471280098 -0
vn 0.9934168457984924 -0.1145552471280098 -0
vn 0.9934168457984924 -0.1145552471280098 -0
vn -0.9430203437805176 0.3327350914478302 -0
vn -0.9430203437805176 0.3327350914478302 -0
vn -0.9430203437805176 0.3327350914478302 -0
vn -0.8453329801559448 0.5342399477958679 -0
vn -0.8453329801559448 0.5342399477958679 -0
vn -0.8453329801559448 0.5342399477958679 -0
vn 0.9939980506896973 0.10939744859933853 -0
vn 0.9939980506896973 0.10939744859933853 -0
vn 0.9939980506896973 0.10939744859933853 -0
vn -0.8453623056411743 0.5341933965682983 -0
vn -0.8453623056411743 0.5341933965682983 -0
vn -0.8453623056411743 0.5341933965682983 -0
vn 0.9934205412864685 -0.11452344059944153 -0
vn 0.9934205412864685 -0.11452344059944153 -0
vn 0.9934205412864685 -0.11452344059944153 -0
vn 0.9447352290153503 0.3278345465660095 -0
vn 0.9447352290153503 0.3278345465660095 -0
vn 0.9447352290153503 0.3278345465660095 -0
vn 0 -0 -0.9999999403953552
vn 0 -0 -0.9999999403953552
vn 0 -0 -0.9999999403953552
vn -0.7052605748176575 0.7089481353759766 -0
vn -0.7052605748176575 0.7089481353759766 -0
vn -0.7052605748176575 0.7089481353759766 -0
vn 0.9940016269683838 0.10936561226844788 -0
vn 0.9940016269683838 0.10936561226844788 -0
vn 0.9940016269683838 0.10936561226844788 -0
vn 0.8481050729751587 0.5298280715942383 -0
vn 0.8481050729751587 0.5298280715942383 -0
vn 0.8481050729751587 0.5298280715942383 -0
vn -0.3278007507324219 0.9447469115257263 -0
vn -0.3278007507324219 0.9447469115257263 -0
vn -0.3278007507324219 0.9447469115257263 -0
vn 0.000000045110979840501386 -0 -1
vn 0.000000045110979840501386 -0 -1
vn 0.000000045110979840501386 -0 -1
vn 0.000001498800997978833 -0 -1
vn 0.000001498800997978833 -0 -1
vn 0.000001498800997978833 -0 -1
vn -0.10940652340650558 0.9939970374107361 -0
vn -0.10940652340650558 0.9939970374107361 -0
vn -0.10940652340650558 0.9939970374107361 -0
vn 0.9447451233863831 0.3278057277202606 -0
vn 0.9447451233863831 0.3278057277202606 -0
vn 0.9447451233863831 0.3278057277202606 -0
vn 0.7089210152626038 0.705287754535675 -0
vn 0.7089210152626038 0.705287754535675 -0
vn 0.7089210152626038 0.705287754535675 -0
vn 0.11452104896306992 0.9934207797050476 -0
vn 0.11452104896306992 0.9934207797050476 -0
vn 0.11452104896306992 0.9934207797050476 -0
vn 0 -0 -1
vn 0 -0 -1
vn -0.3278011977672577 0.944746732711792 -0
vn -0.3278011977672577 0.944746732711792 -0
vn -0.3278011977672577 0.944746732711792 -0
vn 0 -0 -1
vn 0 -0 -1
vn 0 -0 -1
vn 0.5342280864715576 0.845340371131897 -0
vn 0.5342280864715576 0.845340371131897 -0
vn 0.5342280864715576 0.845340371131897 -0
vn 0.22504867613315582 0.9743475317955017 -0
vn 0.22504867613315582 0.9743475317955017 -0
vn 0.22504867613315582 0.9743475317955017 -0
vn -0.0000036556120903696865 -0 -1
vn -0.0000036556120903696865 -0 -1
vn -0.0000036556120903696865 -0 -1
vn 0.8481053709983826 0.5298276543617249 -0
vn 0.8481053709983826 0.5298276543617249 -0
vn 0.8481053709983826 0.5298276543617249 -0
vn 0.3327403962612152 0.9430184960365295 -0
vn 0.3327403962612152 0.9430184960365295 -0
vn 0.3327403962612152 0.9430184960365295 -0
vn 0 -0 -1
vn 0 -0 -1
vn -0.10940302908420563 0.9939975142478943 -0
vn -0.10940302908420563 0.9939975142478943 -0
vn -0.10940302908420563 0.9939975142478943 -0
vn 0 -0 -1
vn 0.00000018044113403448137 -0 -0.9999999403953552
vn 0.00000018044113403448137 -0 -0.9999999403953552
vn 0.00000018044113403448137 -0 -0.9999999403953552
vn 0.11452104896306992 0.9934207797050476 -0
vn 0 -0 -1
vn 0.7089377045631409 0.7052711248397827 -0
vn 0.7089377045631409 0.7052711248397827 -0
vn 0.7089377045631409 0.7052711248397827 -0
vn 0.22504867613315582 0.9743475317955017 -0
vn 0.000010963950444420334 -0 -1
vn 0.000010963950444420334 -0 -1
vn 0.000010963950444420334 -0 -1
vn 0.5342280864715576 0.845340371131897 -0
vn 0.33275049924850464 0.9430148601531982 -0
vn 0.33275049924850464 0.9430148601531982 -0
vn 0.33275049924850464 0.9430148601531982 -0
vn -0.00001617076304682996 -0 -1
vn -0.00001617076304682996 -0 -1
vn -0.00001617076304682996 -0 -1
vn 0 -0 -1
f 3/3/3 2/2/2 1/1/1
f 6/6/6 5/5/5 4/4/4
f 9/9/9 8/8/8 7/7/7
f 12/12/12 11/11/11 10/10/10
f 15/15/15 14/14/14 13/13/13
f 18/18/18 17/17/17 16/16/16
f 21/21/21 20/20/20 19/19/19
f 24/24/24 23/23/23 22/22/22
f 27/27/27 26/26/26 25/25/25
f 30/30/30 29/29/29 28/28/28
f 33/33/33 32/32/32 31/31/31
f 36/36/36 35/35/35 34/34/34
f 14/14/14 37/37/37 30/30/30
f 40/40/40 39/39/39 38/38/38
f 43/43/43 42/42/42 41/41/41
f 44/44/44 30/30/30 37/37/37
f 47/47/47 46/46/46 45/45/45
f 50/50/50 49/49/49 48/48/48
f 53/53/53 52/52/52 51/51/51
f 56/56/56 55/55/55 54/54/54
f 59/59/59 58/58/58 57/57/57
f 62/62/62 61/61/61 60/60/60
f 65/65/65 64/64/64 63/63/63
f 68/68/68 67/67/67 66/66/66
f 71/71/71 70/70/70 69/69/69
f 74/74/74 73/73/73 72/72/72
f 77/77/77 76/76/76 75/75/75
f 80/80/80 79/79/79 78/78/78
f 83/83/83 82/82/82 81/81/81
f 86/86/86 85/85/85 84/84/84
f 89/89/89 88/88/88 87/87/87
f 92/92/92 91/91/91 90/90/90
f 95/95/95 94/94/94 93/93/93
f 98/98/98 97/97/97 96/96/96
f 100/100/100 44/44/44 99/99/99
f 103/103/103 102/102/102 101/101/101
f 106/106/106 105/105/105 104/104/104
f 109/109/109 108/108/108 107/107/107
f 112/112/112 111/111/111 110/110/110
f 115/115/115 114/114/114 113/113/113
f 118/118/118 117/117/117 116/116/116
f 121/121/121 120/120/120 119/119/119
f 123/123/123 100/100/100 122/122/122
f 126/126/126 125/125/125 124/124/124
f 104/104/104 127/127/127 106/106/106
f 130/130/130 129/129/129 128/128/128
f 98/98/98 96/96/96 131/131/131
f 127/127/127 132/132/132 106/106/106
f 135/135/135 134/134/134 133/133/133
f 112/112/112 110/110/110 136/136/136
f 139/139/139 138/138/138 137/137/137
f 99/99/99 122/122/122 100/100/100
f 109/109/109 107/107/107 140/140/140
f 143/143/143 142/142/142 141/141/141
f 146/146/146 145/145/145 144/144/144
f 99/99/99 147/147/147 122/122/122
