# VPXTOOL table OBJ file
# VPXTOOL OBJ file
# numVerts: 27 numFaces: 30
o LM_F_FL4_Layer1
v 13.048419952392578 -55.82217788696289 -4.451416492462158
v 13.048419952392578 -55.82217788696289 -0.4631783366203308
v 46.254695892333984 -30.692720413208008 -0.4631783366203308
v -33.02505874633789 -32.03665542602539 -4.451416492462158
v 13.048419952392578 -55.82217788696289 -4.451416492462158
v 46.254695892333984 -30.692720413208008 -4.451416492462158
v 46.254695892333984 -30.692720413208008 -4.451416492462158
v -33.02505874633789 -32.03665542602539 -4.451416492462158
v -28.316043853759766 73.21063995361328 -4.451416492462158
v -33.02505874633789 -32.03665542602539 -0.4631783366203308
v -33.02505874633789 -32.03665542602539 -4.451416492462158
v 46.254695892333984 -30.692720413208008 -4.451416492462158
v -28.316043853759766 73.21063995361328 -4.451416492462158
v 46.254695892333984 -30.692720413208008 -4.451416492462158
v 46.254695892333984 -30.692720413208008 -0.4631783366203308
v 51.21830749511719 71.25801849365234 -0.4631783366203308
v -28.316043853759766 73.21063995361328 -4.451416492462158
v -28.316043853759766 73.21063995361328 -0.4631783366203308
v -33.02505874633789 -32.03665542602539 -0.4631783366203308
v -28.316043853759766 73.21063995361328 -4.451416492462158
v 51.21830749511719 71.25801849365234 -4.451416492462158
v 51.21830749511719 71.25801849365234 -4.451416492462158
v 46.254695892333984 -30.692720413208008 -4.451416492462158
v 51.21830749511719 71.25801849365234 -0.4631783366203308
v -28.316043853759766 73.21063995361328 -4.451416492462158
v 51.21830749511719 71.25801849365234 -4.451416492462158
v -28.316043853759766 73.21063995361328 -0.4631783366203308
vt 0.7894850373268127 0.9503066539764404
vt 0.7894424200057983 0.9509468674659729
vt 0.7960981726646423 0.9568597674369812
vt 0.7766247987747192 0.952194333076477
vt 0.7894850373268127 0.9503066539764404
vt 0.7961475849151611 0.9562223553657532
vt 0.7961475849151611 0.9562223553657532
vt 0.7766247987747192 0.952194333076477
vt 0.7709771990776062 0.9707855582237244
vt 0.7765946388244629 0.9528337121009827
vt 0.7766247987747192 0.952194333076477
vt 0.7961475849151611 0.9562223553657532
vt 0.7709771990776062 0.9707855582237244
vt 0.7961475849151611 0.9562223553657532
vt 0.7960981726646423 0.9568597674369812
vt 0.7909976243972778 0.9749875068664551
vt 0.7709771990776062 0.9707855582237244
vt 0.7709522247314453 0.9714158773422241
vt 0.7765946388244629 0.9528337121009827
vt 0.7709771990776062 0.9707855582237244
vt 0.791042685508728 0.9743589758872986
vt 0.791042685508728 0.9743589758872986
vt 0.7961475849151611 0.9562223553657532
vt 0.7909976243972778 0.9749875068664551
vt 0.7709771990776062 0.9707855582237244
vt 0.791042685508728 0.9743589758872986
vt 0.7709522247314453 0.9714158773422241
vn 0.6034485101699829 -0.7974019050598145 -0
vn 0.6034485101699829 -0.7974019050598145 -0
vn 0.6034485101699829 -0.7974019050598145 -0
vn 0 -0 -1
vn 0 -0 -1
vn 0 -0 -1
vn 0.6034485101699829 -0.7974019050598145 -0
vn -0.9990005493164063 0.04469766840338707 -0
vn -0.9990005493164063 0.04469766840338707 -0
vn -0.9990005493164063 0.04469766840338707 -0
vn -0.000000002059367343321128 -0 -1
vn -0.000000002059367343321128 -0 -1
vn -0.000000002059367343321128 -0 -1
vn 0.9988169074058533 -0.04862874746322632 -0
vn 0.9988169074058533 -0.04862874746322632 -0
vn 0.9988169074058533 -0.04862874746322632 -0
vn -0.9990005493164063 0.04469766467809677 -0
vn -0.9990005493164063 0.04469766467809677 -0
vn -0.9990005493164063 0.04469766467809677 -0
vn 0 -0 -1
vn 0 -0 -1
vn 0.9988168478012085 -0.048628803342580795 -0
vn 0.9988168478012085 -0.048628803342580795 -0
vn 0.9988168478012085 -0.048628803342580795 -0
vn 0.024543315172195435 0.99969881772995 -0
vn 0.024543315172195435 0.99969881772995 -0
vn 0.024543315172195435 0.99969881772995 -0
f 3/3/3 2/2/2 1/1/1
f 6/6/6 5/5/5 4/4/4
f 3/3/3 1/1/1 7/7/7
f 10/10/10 9/9/9 8/8/8
f 13/13/13 12/12/12 11/11/11
f 16/16/16 15/15/15 14/14/14
f 19/19/19 18/18/18 17/17/17
f 21/21/21 6/6/6 20/20/20
f 24/24/24 23/23/23 22/22/22
f 27/27/27 26/26/26 25/25/25
