# VPXTOOL table OBJ file
# VPXTOOL OBJ file
# numVerts: 68 numFaces: 156
o BM_TMet4
v 24.39875602722168 -0.14124009013175964 -65.61187744140625
v -23.771678924560547 -0.14118488132953644 -65.61187744140625
v -23.771623611450195 -22.373855590820313 -65.61187744140625
v 24.39870262145996 -22.37380027770996 -65.61187744140625
v 24.39875602722168 -0.14124009013175964 -65.61187744140625
v 24.39870262145996 -22.37380027770996 -65.61187744140625
v 24.39875602722168 -14.962946891784668 -44.30571365356445
v 24.39875602722168 -0.14124009013175964 -65.61187744140625
v 24.39870262145996 -9.404779434204102 -11.883299827575684
v -23.771678924560547 -0.14118488132953644 -65.61187744140625
v -23.771678924560547 -0.14118488132953644 -65.61187744140625
v -23.7717342376709 -14.962946891784668 -44.30571365356445
v -23.771623611450195 -22.373855590820313 -65.61187744140625
v 14.208819389343262 -14.962946891784668 -44.30571365356445
v 24.39870262145996 -22.37380027770996 -65.61187744140625
v -23.771623611450195 -22.373855590820313 -65.61187744140625
v 16.987903594970703 -14.962946891784668 -44.30571365356445
v 24.39875602722168 -14.962946891784668 -44.30571365356445
v 24.39870262145996 -9.404779434204102 -11.883299827575684
v -23.7717342376709 -14.962946891784668 -44.30571365356445
v -23.771678924560547 -9.404779434204102 -11.88329792022705
v -23.771678924560547 -9.404779434204102 -11.88329792022705
v 24.39875602722168 -14.962946891784668 15.907317161560059
v 24.39870262145996 -9.404779434204102 4.7910919189453125
v -23.771678924560547 -14.962946891784668 15.907379150390625
v -23.771678924560547 -9.404779434204102 4.79109525680542
v 24.39870262145996 -9.404779434204102 15.907344818115234
v 24.39870262145996 -9.404779434204102 -11.883299827575684
v -23.771678924560547 -9.404779434204102 4.79109525680542
v -23.771678924560547 -9.404779434204102 -11.88329792022705
v 24.39875602722168 -14.962946891784668 15.907317161560059
v 24.39870262145996 -9.404779434204102 4.7910919189453125
v 6.797966480255127 -9.404890060424805 4.791093349456787
v -5.244545936584473 -9.404834747314453 4.791093349456787
v -23.771678924560547 -9.404779434204102 15.9073486328125
v -23.771678924560547 -14.962946891784668 15.907379150390625
v 24.39875602722168 -3.846721887588501 15.907344818115234
v 24.39875602722168 -3.846721887588501 14.054644584655762
v 6.79802131652832 -3.8466668128967285 14.054646492004395
v 24.39875602722168 -3.846721887588501 14.054644584655762
v 24.39875602722168 -3.846721887588501 15.907344818115234
v 6.79802131652832 -3.8466668128967285 15.907344818115234
v 6.797966480255127 -9.404890060424805 15.907344818115234
v -5.244545936584473 -3.846611499786377 14.054646492004395
v 6.797966480255127 -9.404890060424805 15.907344818115234
v 6.797966480255127 -9.404890060424805 4.791093349456787
v 6.79802131652832 -3.8466668128967285 14.054646492004395
v 24.39875602722168 -3.846721887588501 15.907344818115234
v 24.39870262145996 -9.404779434204102 15.907344818115234
v 6.79802131652832 -3.8466668128967285 15.907344818115234
v -23.771678924560547 -3.846721887588501 14.054648399353027
v 6.79802131652832 -3.8466668128967285 15.907344818115234
v -5.244545936584473 -3.846611499786377 14.054646492004395
v -5.244545936584473 -9.404834747314453 4.791093349456787
v -5.244545936584473 -9.404834747314453 15.907344818115234
v -5.244545936584473 -3.846611499786377 15.907344818115234
v 6.797966480255127 -9.404890060424805 15.907344818115234
v -5.244545936584473 -9.404834747314453 15.907344818115234
v -5.244545936584473 -3.846611499786377 15.907344818115234
v -23.771678924560547 -3.846721887588501 15.9073486328125
v -23.771678924560547 -3.846721887588501 14.054648399353027
v 24.39875602722168 -14.962946891784668 15.907317161560059
v -23.771678924560547 -9.404779434204102 15.9073486328125
v -23.771678924560547 -3.846721887588501 15.9073486328125
v -5.244545936584473 -3.846611499786377 15.907344818115234
v -23.771678924560547 -3.846721887588501 15.9073486328125
v -5.244545936584473 -9.404834747314453 15.907344818115234
v -23.771678924560547 -14.962946891784668 15.907379150390625
vt 0.5545654892921448 0.45561254024505615
vt 0.5545654892921448 0.44814473390579224
vt 0.5583042502403259 0.44814473390579224
vt 0.5583042502403259 0.45561254024505615
vt 0.9774072170257568 0.7855608463287354
vt 0.9834551811218262 0.7855608463287354
vt 0.9814391732215881 0.7909039258956909
vt 0.5162078142166138 0.2910938858985901
vt 0.5162078142166138 0.3254740238189697
vt 0.5534765124320984 0.2910938858985901
vt 0.9809601306915283 0.04179447889328003
vt 0.9770935773849487 0.047240495681762695
vt 0.9749146103858948 0.04195207357406616
vt 0.7267983555793762 0.3843105435371399
vt 0.7285119891166687 0.3877587914466858
vt 0.7204112410545349 0.3877587914466858
vt 0.7272657155990601 0.3843105435371399
vt 0.7285119891166687 0.3843105435371399
vt 0.9799272418022156 0.799034833908081
vt 0.7204112410545349 0.3843105435371399
vt 0.978854238986969 0.05532872676849365
vt 0.5534765124320984 0.3254740238189697
vt 0.7285119891166687 0.37510615587234497
vt 0.9799272418022156 0.8032164573669434
vt 0.7204112410545349 0.37510615587234497
vt 0.9789824485778809 0.059508681297302246
vt 0.9799272418022156 0.8060041666030884
vt 0.1813257485628128 0.48204606771469116
vt 0.17853258550167084 0.47457826137542725
vt 0.1813257485628128 0.47457826137542725
vt 0.9814392328262329 0.8060041666030884
vt 0.17853258550167084 0.48204606771469116
vt 0.17853258550167084 0.47931748628616333
vt 0.17853258550167084 0.47745048999786377
vt 0.9790679216384888 0.06229525804519653
vt 0.9775565266609192 0.062334656715393066
vt 0.9784152507781982 0.8060041666030884
vt 0.9784152507781982 0.8055394887924194
vt 0.17689837515354156 0.47931748628616333
vt 0.17689837515354156 0.48204606771469116
vt 0.1765880435705185 0.48204606771469116
vt 0.1765880435705185 0.47931748628616333
vt 0.17667049169540405 0.47931748628616333
vt 0.17689837515354156 0.47745048999786377
vt 0.008169149048626423 0.5202547311782837
vt 0.008169149048626423 0.5219781398773193
vt 0.007234451361000538 0.5205420255661011
vt 0.3950802683830261 0.13627660274505615
vt 0.39414557814598083 0.13627660274505615
vt 0.3950802683830261 0.13354796171188354
vt 0.17689837515354156 0.47457826137542725
vt 0.007234451361000538 0.5202547311782837
vt 0.053220316767692566 0.4195084571838379
vt 0.05228561908006668 0.42094457149505615
vt 0.05228561908006668 0.4192212224006653
vt 0.1765880435705185 0.47745048999786377
vt 0.39414557814598083 0.13354796171188354
vt 0.17667049169540405 0.47745048999786377
vt 0.053220316767692566 0.4192212224006653
vt 0.1765880435705185 0.47457826137542725
vt 0.980565071105957 0.061791419982910156
vt 0.39321088790893555 0.13627660274505615
vt 0.39414557814598083 0.12880879640579224
vt 0.3950802683830261 0.12880879640579224
vt 0.3950802683830261 0.13168096542358398
vt 0.9805793166160583 0.062255859375
vt 0.39414557814598083 0.13168096542358398
vt 0.39321088790893555 0.12880879640579224
vn 0.56890469789505 0.6290050745010376 -0.5298113822937012
vn -0.5688855648040771 0.6290191411972046 -0.5298151969909668
vn -0.5617539286613464 -0.6742832660675049 -0.47934824228286743
vn 0.5617598295211792 -0.6742441058158875 -0.4793963134288788
vn 0.56890469789505 0.6290050745010376 -0.5298113822937012
vn 0.5617598295211792 -0.6742441058158875 -0.4793963134288788
vn 0.7465897798538208 -0.6559881567955017 0.1108291819691658
vn 0.56890469789505 0.6290050745010376 -0.5298113822937012
vn 0.7268073558807373 0.6843398213386536 0.05856648460030556
vn -0.5688855648040771 0.6290191411972046 -0.5298151969909668
vn -0.5688855648040771 0.6290191411972046 -0.5298151969909668
vn -0.7465910911560059 -0.6559868454933167 0.11082904785871506
vn -0.5617539286613464 -0.6742832660675049 -0.47934824228286743
vn 0.00000025983183604694204 -0.9860267043113708 0.16658729314804077
vn 0.5617598295211792 -0.6742441058158875 -0.4793963134288788
vn -0.5617539286613464 -0.6742832660675049 -0.47934824228286743
vn 0 -0.9860265254974365 0.1665884405374527
vn 0.7465897798538208 -0.6559881567955017 0.1108291819691658
vn 0.7268073558807373 0.6843398213386536 0.05856648460030556
vn -0.7465910911560059 -0.6559868454933167 0.11082904785871506
vn -0.7268073558807373 0.684340238571167 0.0585625059902668
vn -0.7268073558807373 0.684340238571167 0.0585625059902668
vn 0.5773700475692749 -0.5773554444313049 0.5773253440856934
vn 0.772400975227356 0.6120895147323608 -0.16953781247138977
vn -0.5773583650588989 -0.5773597359657288 0.5773327946662903
vn -0.7724160552024841 0.6120709776878357 -0.1695357710123062
vn 0.7071152925491333 -0.0000016406133909185883 0.7070982456207275
vn 0.7268073558807373 0.6843398213386536 0.05856648460030556
vn -0.7724160552024841 0.6120709776878357 -0.1695357710123062
vn -0.7268073558807373 0.684340238571167 0.0585625059902668
vn 0.5773700475692749 -0.5773554444313049 0.5773253440856934
vn 0.772400975227356 0.6120895147323608 -0.16953781247138977
vn -0.08806309103965759 0.9873718619346619 -0.13168801367282867
vn 0.08806608617305756 0.9873717427253723 -0.13168643414974213
vn -0.7071090340614319 0.000002291587406944018 0.707104504108429
vn -0.5773583650588989 -0.5773597359657288 0.5773327946662903
vn 0.5773419737815857 0.57735276222229 0.5773560404777527
vn 0.6516728401184082 0.7309783101081848 -0.20246747136116028
vn -0.6516591906547546 0.730989396572113 -0.20247173309326172
vn 0.6516728401184082 0.7309783101081848 -0.20246747136116028
vn 0.5773419737815857 0.57735276222229 0.5773560404777527
vn -0.5773541331291199 0.5773675441741943 0.577329158782959
vn -0.3014945089817047 0.3015282154083252 0.9045340418815613
vn 0.6516634225845337 0.730985701084137 -0.2024712711572647
vn -0.3014945089817047 0.3015282154083252 0.9045340418815613
vn -0.08806309103965759 0.9873718619346619 -0.13168801367282867
vn -0.6516591906547546 0.730989396572113 -0.20247173309326172
vn 0.5773419737815857 0.57735276222229 0.5773560404777527
vn 0.7071152925491333 -0.0000016406133909185883 0.7070982456207275
vn -0.5773541331291199 0.5773675441741943 0.577329158782959
vn -0.651664137840271 0.7309860587120056 -0.20246800780296326
vn -0.5773541331291199 0.5773675441741943 0.577329158782959
vn 0.6516634225845337 0.730985701084137 -0.2024712711572647
vn 0.08806608617305756 0.9873717427253723 -0.13168643414974213
vn 0.30150288343429565 0.30151769518852234 0.9045347571372986
vn 0.5773559808731079 0.5773659944534302 0.5773288011550903
vn -0.3014945089817047 0.3015282154083252 0.9045340418815613
vn 0.30150288343429565 0.30151769518852234 0.9045347571372986
vn 0.5773559808731079 0.5773659944534302 0.5773288011550903
vn -0.5773518085479736 0.5773484110832214 0.5773506760597229
vn -0.651664137840271 0.7309860587120056 -0.20246800780296326
vn 0.5773700475692749 -0.5773554444313049 0.5773253440856934
vn -0.7071090340614319 0.000002291587406944018 0.707104504108429
vn -0.5773518085479736 0.5773484110832214 0.5773506760597229
vn 0.5773559808731079 0.5773659944534302 0.5773288011550903
vn -0.5773518085479736 0.5773484110832214 0.5773506760597229
vn 0.30150288343429565 0.30151769518852234 0.9045347571372986
vn -0.5773583650588989 -0.5773597359657288 0.5773327946662903
f 3/3/3 2/2/2 1/1/1
f 3/3/3 1/1/1 4/4/4
f 7/7/7 6/6/6 5/5/5
f 10/10/10 9/9/9 8/8/8
f 13/13/13 12/12/12 11/11/11
f 16/16/16 15/15/15 14/14/14
f 15/15/15 18/18/18 17/17/17
f 17/17/17 14/14/14 15/15/15
f 7/7/7 5/5/5 19/19/19
f 14/14/14 20/20/20 16/16/16
f 12/12/12 21/21/21 11/11/11
f 10/10/10 22/22/22 9/9/9
f 18/18/18 23/23/23 17/17/17
f 17/17/17 23/23/23 14/14/14
f 7/7/7 19/19/19 24/24/24
f 25/25/25 20/20/20 14/14/14
f 12/12/12 26/26/26 21/21/21
f 7/7/7 24/24/24 27/27/27
f 30/30/30 29/29/29 28/28/28
f 27/27/27 31/31/31 7/7/7
f 33/33/33 32/32/32 28/28/28
f 34/34/34 33/33/33 28/28/28
f 12/12/12 35/35/35 26/26/26
f 29/29/29 34/34/34 28/28/28
f 23/23/23 25/25/25 14/14/14
f 35/35/35 12/12/12 36/36/36
f 24/24/24 38/38/38 37/37/37
f 39/39/39 32/32/32 33/33/33
f 39/39/39 40/40/40 32/32/32
f 24/24/24 37/37/37 27/27/27
f 42/42/42 41/41/41 40/40/40
f 42/42/42 40/40/40 39/39/39
f 34/34/34 43/43/43 33/33/33
f 29/29/29 44/44/44 34/34/34
f 47/47/47 46/46/46 45/45/45
f 50/50/50 49/49/49 48/48/48
f 29/29/29 51/51/51 44/44/44
f 45/45/45 52/52/52 47/47/47
f 55/55/55 54/54/54 53/53/53
f 51/51/51 56/56/56 44/44/44
f 50/50/50 57/57/57 49/49/49
f 34/34/34 58/58/58 43/43/43
f 53/53/53 59/59/59 55/55/55
f 51/51/51 60/60/60 56/56/56
f 35/35/35 61/61/61 26/26/26
f 62/62/62 49/49/49 57/57/57
f 65/65/65 64/64/64 63/63/63
f 35/35/35 66/66/66 61/61/61
f 65/65/65 63/63/63 67/67/67
f 62/62/62 57/57/57 67/67/67
f 67/67/67 68/68/68 62/62/62
f 67/67/67 63/63/63 68/68/68
