# VPXTOOL table OBJ file
# VPXTOOL OBJ file
# numVerts: 152 numFaces: 156
o LM_L_LMet4_TMet4
v 24.39870262145996 -0.14129531383514404 -65.61187744140625
v -23.771678924560547 -0.14118488132953644 -65.61187744140625
v -23.771678924560547 -22.37374496459961 -65.61187744140625
v 24.39870262145996 -22.37380027770996 -65.61187744140625
v 24.39870262145996 -0.14129531383514404 -65.61187744140625
v -23.771678924560547 -22.37374496459961 -65.61187744140625
v 24.39870262145996 -0.14129531383514404 -65.61187744140625
v 24.39870262145996 -22.37380027770996 -65.61187744140625
v 24.39875602722168 -14.962946891784668 -44.30571365356445
v -23.771678924560547 -9.404779434204102 -11.88329792022705
v -23.771678924560547 -0.14118488132953644 -65.61187744140625
v 24.39870262145996 -0.14129531383514404 -65.61187744140625
v -23.771678924560547 -0.14118488132953644 -65.61187744140625
v -23.771678924560547 -14.96300220489502 -44.30571365356445
v -23.771678924560547 -22.37374496459961 -65.61187744140625
v 14.208874702453613 -14.962946891784668 -44.30571365356445
v 24.39870262145996 -22.37380027770996 -65.61187744140625
v -23.771678924560547 -22.37374496459961 -65.61187744140625
v 16.987903594970703 -14.96300220489502 -44.30571365356445
v 24.39875602722168 -14.962946891784668 -44.30571365356445
v 24.39870262145996 -22.37380027770996 -65.61187744140625
v 16.987903594970703 -14.96300220489502 -44.30571365356445
v 24.39870262145996 -22.37380027770996 -65.61187744140625
v 14.208874702453613 -14.962946891784668 -44.30571365356445
v 24.39870262145996 -9.404834747314453 -11.883299827575684
v 24.39870262145996 -0.14129531383514404 -65.61187744140625
v 24.39875602722168 -14.962946891784668 -44.30571365356445
v -23.771678924560547 -22.37374496459961 -65.61187744140625
v -23.771678924560547 -14.96300220489502 -44.30571365356445
v 14.208874702453613 -14.962946891784668 -44.30571365356445
v -23.771678924560547 -9.404779434204102 -11.88329792022705
v 24.39870262145996 -9.404834747314453 -11.883299827575684
v -23.771678924560547 -9.404779434204102 -11.88329792022705
v 24.39870262145996 -0.14129531383514404 -65.61187744140625
v 16.987903594970703 -14.96300220489502 -44.30571365356445
v 24.39875602722168 -14.962946891784668 15.907317161560059
v 24.39875602722168 -14.962946891784668 -44.30571365356445
v 14.208874702453613 -14.962946891784668 -44.30571365356445
v 24.39875602722168 -14.962946891784668 15.907317161560059
v 16.987903594970703 -14.96300220489502 -44.30571365356445
v 24.39870262145996 -9.404834747314453 4.7910919189453125
v 24.39870262145996 -9.404834747314453 -11.883299827575684
v 24.39875602722168 -14.962946891784668 -44.30571365356445
v 14.208874702453613 -14.962946891784668 -44.30571365356445
v -23.771678924560547 -14.96300220489502 -44.30571365356445
v -23.771678924560547 -14.96300220489502 15.907379150390625
v -23.771678924560547 -9.404779434204102 -11.88329792022705
v -23.771678924560547 -9.404779434204102 4.79109525680542
v -23.771678924560547 -14.96300220489502 -44.30571365356445
v 24.39870262145996 -9.404834747314453 15.907344818115234
v 24.39870262145996 -9.404834747314453 4.7910919189453125
v 24.39875602722168 -14.962946891784668 -44.30571365356445
v 24.39870262145996 -9.404834747314453 -11.883299827575684
v -23.771678924560547 -9.404779434204102 4.79109525680542
v -23.771678924560547 -9.404779434204102 -11.88329792022705
v 24.39875602722168 -14.962946891784668 -44.30571365356445
v 24.39875602722168 -14.962946891784668 15.907317161560059
v 24.39870262145996 -9.404834747314453 15.907344818115234
v 24.39870262145996 -9.404834747314453 -11.883299827575684
v 24.39870262145996 -9.404834747314453 4.7910919189453125
v 6.797966480255127 -9.404890060424805 4.791093349456787
v 24.39870262145996 -9.404834747314453 -11.883299827575684
v 6.797966480255127 -9.404890060424805 4.791093349456787
v -5.244601249694824 -9.404834747314453 4.791093349456787
v -23.771678924560547 -9.404779434204102 4.79109525680542
v -23.771678924560547 -9.404779434204102 15.9073486328125
v -23.771678924560547 -14.96300220489502 -44.30571365356445
v 24.39870262145996 -9.404834747314453 -11.883299827575684
v -5.244601249694824 -9.404834747314453 4.791093349456787
v -23.771678924560547 -9.404779434204102 4.79109525680542
v 14.208874702453613 -14.962946891784668 -44.30571365356445
v -23.771678924560547 -14.96300220489502 15.907379150390625
v 24.39875602722168 -14.962946891784668 15.907317161560059
v -23.771678924560547 -14.96300220489502 15.907379150390625
v -23.771678924560547 -14.96300220489502 -44.30571365356445
v -23.771678924560547 -9.404779434204102 15.9073486328125
v 24.39875602722168 -3.846721887588501 15.907344818115234
v 24.39875602722168 -3.846721887588501 14.054644584655762
v 24.39870262145996 -9.404834747314453 4.7910919189453125
v 6.797966480255127 -9.404890060424805 4.791093349456787
v 24.39870262145996 -9.404834747314453 4.7910919189453125
v 6.79802131652832 -3.8466668128967285 14.054646492004395
v 24.39870262145996 -9.404834747314453 4.7910919189453125
v 24.39875602722168 -3.846721887588501 14.054644584655762
v 6.79802131652832 -3.8466668128967285 14.054646492004395
v 24.39870262145996 -9.404834747314453 15.907344818115234
v 24.39875602722168 -3.846721887588501 15.907344818115234
v 24.39870262145996 -9.404834747314453 4.7910919189453125
v 24.39875602722168 -3.846721887588501 14.054644584655762
v 24.39875602722168 -3.846721887588501 15.907344818115234
v 6.79802131652832 -3.8466668128967285 15.907344818115234
v 6.79802131652832 -3.8466668128967285 14.054646492004395
v 24.39875602722168 -3.846721887588501 14.054644584655762
v 6.79802131652832 -3.8466668128967285 15.907344818115234
v 6.797966480255127 -9.404890060424805 4.791093349456787
v 6.797966480255127 -9.404890060424805 15.907344818115234
v -5.244601249694824 -9.404834747314453 4.791093349456787
v -5.244601249694824 -9.404834747314453 4.791093349456787
v -5.244601249694824 -3.846611499786377 14.054646492004395
v -23.771678924560547 -9.404779434204102 4.79109525680542
v 6.797966480255127 -9.404890060424805 15.907344818115234
v 6.797966480255127 -9.404890060424805 4.791093349456787
v 6.79802131652832 -3.8466668128967285 14.054646492004395
v 24.39875602722168 -3.846721887588501 15.907344818115234
v 24.39870262145996 -9.404834747314453 15.907344818115234
v 6.79802131652832 -3.8466668128967285 15.907344818115234
v -5.244601249694824 -3.846611499786377 14.054646492004395
v -23.771678924560547 -3.8467772006988525 14.054648399353027
v -23.771678924560547 -9.404779434204102 4.79109525680542
v 6.79802131652832 -3.8466668128967285 14.054646492004395
v 6.79802131652832 -3.8466668128967285 15.907344818115234
v 6.797966480255127 -9.404890060424805 15.907344818115234
v -5.244601249694824 -3.846611499786377 14.054646492004395
v -5.244601249694824 -9.404834747314453 4.791093349456787
v -5.244601249694824 -9.404834747314453 15.907344818115234
v -5.244601249694824 -3.846611499786377 14.054646492004395
v -5.244601249694824 -3.846611499786377 15.907344818115234
v -23.771678924560547 -3.8467772006988525 14.054648399353027
v 24.39870262145996 -9.404834747314453 15.907344818115234
v 6.797966480255127 -9.404890060424805 15.907344818115234
v 6.79802131652832 -3.8466668128967285 15.907344818115234
v 6.797966480255127 -9.404890060424805 15.907344818115234
v -5.244601249694824 -9.404834747314453 15.907344818115234
v -5.244601249694824 -9.404834747314453 4.791093349456787
v -5.244601249694824 -9.404834747314453 15.907344818115234
v -5.244601249694824 -3.846611499786377 15.907344818115234
v -5.244601249694824 -3.846611499786377 14.054646492004395
v -5.244601249694824 -3.846611499786377 15.907344818115234
v -23.771678924560547 -3.8467772006988525 15.9073486328125
v -23.771678924560547 -3.8467772006988525 14.054648399353027
v -23.771678924560547 -9.404779434204102 4.79109525680542
v -23.771678924560547 -3.8467772006988525 14.054648399353027
v -23.771678924560547 -9.404779434204102 15.9073486328125
v 6.797966480255127 -9.404890060424805 15.907344818115234
v 24.39870262145996 -9.404834747314453 15.907344818115234
v 24.39875602722168 -14.962946891784668 15.907317161560059
v -23.771678924560547 -9.404779434204102 15.9073486328125
v -23.771678924560547 -3.8467772006988525 15.9073486328125
v -5.244601249694824 -3.846611499786377 15.907344818115234
v -23.771678924560547 -3.8467772006988525 15.9073486328125
v -5.244601249694824 -9.404834747314453 15.907344818115234
v -23.771678924560547 -9.404779434204102 15.9073486328125
v -5.244601249694824 -3.846611499786377 15.907344818115234
v -5.244601249694824 -9.404834747314453 15.907344818115234
v 6.797966480255127 -9.404890060424805 15.907344818115234
v 24.39875602722168 -14.962946891784668 15.907317161560059
v 24.39875602722168 -14.962946891784668 15.907317161560059
v -23.771678924560547 -14.96300220489502 15.907379150390625
v -5.244601249694824 -9.404834747314453 15.907344818115234
v -23.771678924560547 -14.96300220489502 15.907379150390625
v -23.771678924560547 -9.404779434204102 15.9073486328125
v -5.244601249694824 -9.404834747314453 15.907344818115234
vt 0.5423627495765686 0.7842258214950562
vt 0.5423627495765686 0.7767580151557922
vt 0.5462327003479004 0.7767580151557922
vt 0.5462327003479004 0.7842258214950562
vt 0.5423627495765686 0.7842258214950562
vt 0.5462327003479004 0.7767580151557922
vt 0.9799039363861084 0.6583635807037354
vt 0.9861641526222229 0.6583635807037354
vt 0.9840773940086365 0.6637066602706909
vt 0.03904256597161293 0.03702187538146973
vt 0.03904257342219353 0.002641737461090088
vt 0.0004661878920160234 0.002641737461090088
vt 0.984129786491394 0.02446049451828003
vt 0.9801275730133057 0.029906511306762695
vt 0.9778721332550049 0.024618089199066162
vt 0.6807540059089661 0.07156640291213989
vt 0.6825277209281921 0.07501465082168579
vt 0.6741427779197693 0.07501465082168579
vt 0.6812377572059631 0.07156640291213989
vt 0.6825277209281921 0.07156640291213989
vt 0.6825277209281921 0.07501465082168579
vt 0.6812377572059631 0.07156640291213989
vt 0.6825277209281921 0.07501465082168579
vt 0.6807540059089661 0.07156640291213989
vt 0.9825124144554138 0.671837568283081
vt 0.9799039363861084 0.6583635807037354
vt 0.9840773940086365 0.6637066602706909
vt 0.6741427779197693 0.07501465082168579
vt 0.6741427779197693 0.07156640291213989
vt 0.6807540059089661 0.07156640291213989
vt 0.9819499850273132 0.03799474239349365
vt 0.00046618361375294626 0.03702187538146973
vt 0.03904256597161293 0.03702187538146973
vt 0.0004661878920160234 0.002641737461090088
vt 0.6812377572059631 0.07156640291213989
vt 0.6825277209281921 0.06236201524734497
vt 0.6825277209281921 0.07156640291213989
vt 0.6807540059089661 0.07156640291213989
vt 0.6825277209281921 0.06236201524734497
vt 0.6812377572059631 0.07156640291213989
vt 0.9825124144554138 0.6760191917419434
vt 0.9825124144554138 0.671837568283081
vt 0.9840773940086365 0.6637066602706909
vt 0.6807540059089661 0.07156640291213989
vt 0.6741427779197693 0.07156640291213989
vt 0.6741427779197693 0.06236201524734497
vt 0.9819499850273132 0.03799474239349365
vt 0.982082724571228 0.042174696922302246
vt 0.9801275730133057 0.029906511306762695
vt 0.9825124144554138 0.6788069009780884
vt 0.9825124144554138 0.6760191917419434
vt 0.9840773940086365 0.6637066602706909
vt 0.10970011353492737 0.9644679427146912
vt 0.10680894553661346 0.9570001363754272
vt 0.10970011353492737 0.9570001363754272
vt 0.9840773940086365 0.6637066602706909
vt 0.9840773940086365 0.6788069009780884
vt 0.9825124144554138 0.6788069009780884
vt 0.10970011353492737 0.9644679427146912
vt 0.10680894553661346 0.9644679427146912
vt 0.10680894553661346 0.9617393016815186
vt 0.10970011353492737 0.9644679427146912
vt 0.10680894553661346 0.9617393016815186
vt 0.10680894553661346 0.9598723649978638
vt 0.982082724571228 0.042174696922302246
vt 0.9821711778640747 0.04496127367019653
vt 0.9801275730133057 0.029906511306762695
vt 0.10970011353492737 0.9644679427146912
vt 0.10680894553661346 0.9598723649978638
vt 0.10680894553661346 0.9570001363754272
vt 0.6807540059089661 0.07156640291213989
vt 0.6741427779197693 0.06236201524734497
vt 0.6825277209281921 0.06236201524734497
vt 0.980606734752655 0.045000672340393066
vt 0.9801275730133057 0.029906511306762695
vt 0.9821711778640747 0.04496127367019653
vt 0.9809473156929016 0.6788069009780884
vt 0.9809473156929016 0.6783422231674194
vt 0.9825124144554138 0.6760191917419434
vt 0.10680894553661346 0.9617393016815186
vt 0.10680894553661346 0.9644679427146912
vt 0.10511740297079086 0.9617393016815186
vt 0.10680894553661346 0.9644679427146912
vt 0.10511740297079086 0.9644679427146912
vt 0.10511740297079086 0.9617393016815186
vt 0.9825124144554138 0.6788069009780884
vt 0.9809473156929016 0.6788069009780884
vt 0.9825124144554138 0.6760191917419434
vt 0.10511740297079086 0.9644679427146912
vt 0.10479617863893509 0.9644679427146912
vt 0.10479617863893509 0.9617393016815186
vt 0.10511740297079086 0.9617393016815186
vt 0.10511740297079086 0.9644679427146912
vt 0.10479617863893509 0.9617393016815186
vt 0.10680894553661346 0.9617393016815186
vt 0.10488152503967285 0.9617393016815186
vt 0.10680894553661346 0.9598723649978638
vt 0.10680894553661346 0.9598723649978638
vt 0.10511740297079086 0.9598723649978638
vt 0.10680894553661346 0.9570001363754272
vt 0.00722223287448287 0.30211514234542847
vt 0.00722223287448287 0.30383849143981934
vt 0.006254739593714476 0.3024023771286011
vt 0.43553265929222107 0.03190648555755615
vt 0.43456515669822693 0.03190648555755615
vt 0.43553265929222107 0.029177844524383545
vt 0.10511740297079086 0.9598723649978638
vt 0.10511740297079086 0.9570001363754272
vt 0.10680894553661346 0.9570001363754272
vt 0.006254739593714476 0.3024023771286011
vt 0.006254739593714476 0.30211514234542847
vt 0.00722223287448287 0.30211514234542847
vt 0.005060284398496151 0.4707779884338379
vt 0.004092789255082607 0.47221410274505615
vt 0.004092789255082607 0.4704907536506653
vt 0.10511740297079086 0.9598723649978638
vt 0.10479617863893509 0.9598723649978638
vt 0.10511740297079086 0.9570001363754272
vt 0.43456515669822693 0.03190648555755615
vt 0.43456515669822693 0.029177844524383545
vt 0.43553265929222107 0.029177844524383545
vt 0.10488152503967285 0.9617393016815186
vt 0.10488152503967285 0.9598723649978638
vt 0.10680894553661346 0.9598723649978638
vt 0.004092789255082607 0.4704907536506653
vt 0.005060284398496151 0.4704907536506653
vt 0.005060284398496151 0.4707779884338379
vt 0.10479617863893509 0.9598723649978638
vt 0.10479617863893509 0.9570001363754272
vt 0.10511740297079086 0.9570001363754272
vt 0.982082724571228 0.042174696922302246
vt 0.9837208390235901 0.044457435607910156
vt 0.9821711778640747 0.04496127367019653
vt 0.43456515669822693 0.029177844524383545
vt 0.43456515669822693 0.03190648555755615
vt 0.4335976541042328 0.03190648555755615
vt 0.43456515669822693 0.024438679218292236
vt 0.43553265929222107 0.024438679218292236
vt 0.43553265929222107 0.027310848236083984
vt 0.9837356209754944 0.044921875
vt 0.43456515669822693 0.027310848236083984
vt 0.43456515669822693 0.024438679218292236
vt 0.43553265929222107 0.027310848236083984
vt 0.43456515669822693 0.027310848236083984
vt 0.43456515669822693 0.029177844524383545
vt 0.4335976541042328 0.03190648555755615
vt 0.4335976541042328 0.03190648555755615
vt 0.4335976541042328 0.024438679218292236
vt 0.43456515669822693 0.027310848236083984
vt 0.4335976541042328 0.024438679218292236
vt 0.43456515669822693 0.024438679218292236
vt 0.43456515669822693 0.027310848236083984
vn -0.000000098485259059089 -0 -1
vn -0.000000098485259059089 -0 -1
vn -0.000000098485259059089 -0 -1
vn 0 -0 -1
vn 0 -0 -1
vn 0 -0 -1
vn 1 -0 -0.000002591506245153141
vn 1 -0 -0.000002591506245153141
vn 1 -0 -0.000002591506245153141
vn 0.000002244245706606307 0.9854599237442017 0.16990773379802704
vn 0.000002244245706606307 0.9854599237442017 0.16990773379802704
vn 0.000002244245706606307 0.9854599237442017 0.16990773379802704
vn -1 -0 -0
vn -1 -0 -0
vn -1 -0 -0
vn -0.0000010572504152150941 -0.944496750831604 0.328520804643631
vn -0.0000010572504152150941 -0.944496750831604 0.328520804643631
vn -0.0000010572504152150941 -0.944496750831604 0.328520804643631
vn 0.000007185297363321297 -0.9444965720176697 0.3285212218761444
vn 0.000007185297363321297 -0.9444965720176697 0.3285212218761444
vn 0.000007185297363321297 -0.9444965720176697 0.3285212218761444
vn -0.000019122710000374354 -0.9444993734359741 0.32851341366767883
vn -0.000019122710000374354 -0.9444993734359741 0.32851341366767883
vn -0.000019122710000374354 -0.9444993734359741 0.32851341366767883
vn 1 0.0000050035337153531145 0.0000008539356031178613
vn 1 0.0000050035337153531145 0.0000008539356031178613
vn 1 0.0000050035337153531145 0.0000008539356031178613
vn 0.0000013409027133093332 -0.9444981813430786 0.3285168409347534
vn 0.0000013409027133093332 -0.9444981813430786 0.3285168409347534
vn 0.0000013409027133093332 -0.9444981813430786 0.3285168409347534
vn -1 -0 -0
vn 0.0000011359729796822648 0.985460102558136 0.16990678012371063
vn 0.0000011359729796822648 0.985460102558136 0.16990678012371063
vn 0.0000011359729796822648 0.985460102558136 0.16990678012371063
vn 0.000007450563771271845 -1 -0
vn 0.000007450563771271845 -1 -0
vn 0.000007450563771271845 -1 -0
vn -0.000019868481103912927 -1 0.0000034328072615608107
vn -0.000019868481103912927 -1 0.0000034328072615608107
vn -0.000019868481103912927 -1 0.0000034328072615608107
vn 0.9999999403953552 0.00001024026278173551 -0
vn 0.9999999403953552 0.00001024026278173551 -0
vn 0.9999999403953552 0.00001024026278173551 -0
vn 0.0000014537715742335422 -1 -0
vn 0.0000014537715742335422 -1 -0
vn 0.0000014537715742335422 -1 -0
vn -1 0.0000005389503598962619 -0
vn -1 0.0000005389503598962619 -0
vn -1 0.0000005389503598962619 -0
vn 1 0.000008084425644483417 -0
vn 1 0.000008084425644483417 -0
vn 1 0.000008084425644483417 -0
vn 0.0000011462448128440883 1 -0
vn 0.0000011462448128440883 1 -0
vn 0.0000011462448128440883 1 -0
vn 1 0.000010149062291020527 -0
vn 1 0.000010149062291020527 -0
vn 1 0.000010149062291020527 -0
vn -0.0000031370868782687467 1 -0
vn -0.0000031370868782687467 1 -0
vn -0.0000031370868782687467 1 -0
vn 0.000004584989710565424 1 0.000008208799954445567
vn 0.000004584989710565424 1 0.000008208799954445567
vn 0.000004584989710565424 1 0.000008208799954445567
vn -0.9999999403953552 -0.0000008084263640739664 -0
vn -0.9999999403953552 -0.0000008084263640739664 -0
vn -0.9999999403953552 -0.0000008084263640739664 -0
vn 0.000002980235649374663 1 0.000005012330348108662
vn 0.000002980235649374663 1 0.000005012330348108662
vn 0.000002980235649374663 1 0.000005012330348108662
vn 0.0000011462432212283602 -1 -0.00000020665453348556184
vn 0.0000011462432212283602 -1 -0.00000020665453348556184
vn 0.0000011462432212283602 -1 -0.00000020665453348556184
vn -1 0.0000005969912422187917 -0
vn -1 0.0000005969912422187917 -0
vn -1 0.0000005969912422187917 -0
vn 1 -0.000010307678167009726 -0
vn 1 -0.000010307678167009726 -0
vn 1 -0.000010307678167009726 -0
vn -0.0000027669289011100773 0.857489287853241 -0.5145019888877869
vn -0.0000027669289011100773 0.857489287853241 -0.5145019888877869
vn -0.0000027669289011100773 0.857489287853241 -0.5145019888877869
vn 0.000002659821120687411 0.8574938178062439 -0.5144944190979004
vn 0.000002659821120687411 0.8574938178062439 -0.5144944190979004
vn 0.000002659821120687411 0.8574938178062439 -0.5144944190979004
vn 1 -0.0000097013107733801 -0
vn 1 -0.0000097013107733801 -0
vn 1 -0.0000097013107733801 -0
vn 0.0000031370857414003694 0.9999999403953552 -0
vn 0.0000031370857414003694 0.9999999403953552 -0
vn 0.0000031370857414003694 0.9999999403953552 -0
vn 0.0000031370893793791765 1 -0
vn 0.0000031370893793791765 1 -0
vn 0.0000031370893793791765 1 -0
vn 0.000004584989710565424 1 -0
vn 0.000004584989710565424 1 -0
vn 0.000004584989710565424 1 -0
vn 0.0000024956234483397566 0.8574891686439514 -0.5145019292831421
vn 0.0000024956234483397566 0.8574891686439514 -0.5145019292831421
vn 0.0000024956234483397566 0.8574891686439514 -0.5145019292831421
vn -1 0.000010105332876264583 -0
vn -1 0.000010105332876264583 -0
vn -1 0.000010105332876264583 -0
vn 0 -0 1
vn 0 -0 1
vn 0 -0 1
vn -0.000007697010914853308 0.8574982285499573 -0.5144869089126587
vn -0.000007697010914853308 0.8574982285499573 -0.5144869089126587
vn -0.000007697010914853308 0.8574982285499573 -0.5144869089126587
vn -1 0.000010004317118728068 -0
vn -1 0.000010004317118728068 -0
vn -1 0.000010004317118728068 -0
vn 1 0.00000010105333103638259 -0
vn 1 0.00000010105333103638259 -0
vn 1 0.00000010105333103638259 -0
vn -0.000008940708539739717 0.9999999403953552 -0
vn -0.000008940708539739717 0.9999999403953552 -0
vn -0.000008940708539739717 0.9999999403953552 -0
vn 0.00000004175927514893374 -0 0.9999999403953552
vn 0.00000004175927514893374 -0 0.9999999403953552
vn 0.00000004175927514893374 -0 0.9999999403953552
vn 0.000004584990620060125 1 -0
vn 0.000004584990620060125 1 -0
vn 0.000004584990620060125 1 -0
vn 1 -0 -0
vn 1 -0 -0
vn 1 -0 -0
vn -0.000008940702173276804 1 -0
vn -0.000008940702173276804 1 -0
vn -0.000008940702173276804 1 -0
vn -1 -0 -0
vn -1 -0 -0
vn -1 -0 -0
vn -0.00000004176009582579354 -0.000004967067525285529 1
vn -0.00000004176009582579354 -0.000004967067525285529 1
vn -0.00000004176009582579354 -0.000004967067525285529 1
vn 0.00000024253765218418266 -0 0.9999999403953552
vn 0.00000024253765218418266 -0 0.9999999403953552
vn 0.00000024253765218418266 -0 0.9999999403953552
vn -1 -0 -0
vn 0.00000008159454978340364 -0 1
vn 0.00000008159454978340364 -0 1
vn 0.00000008159454978340364 -0 1
vn 0.0000000610357062669209 -0.000004967190307070268 1
vn 0.0000000610357062669209 -0.000004967190307070268 1
vn 0.0000000610357062669209 -0.000004967190307070268 1
vn 0.0000012745538242597831 0.000001910402488647378 1
vn 0.0000012745538242597831 0.000001910402488647378 1
vn 0.0000012745538242597831 0.000001910402488647378 1
vn 0.00000012126400861234288 0.000005587840405496536 1
vn 0.00000012126400861234288 0.000005587840405496536 1
vn 0.00000012126400861234288 0.000005587840405496536 1
f 3/3/3 2/2/2 1/1/1
f 6/6/6 5/5/5 4/4/4
f 9/9/9 8/8/8 7/7/7
f 12/12/12 11/11/11 10/10/10
f 15/15/15 14/14/14 13/13/13
f 18/18/18 17/17/17 16/16/16
f 21/21/21 20/20/20 19/19/19
f 24/24/24 23/23/23 22/22/22
f 27/27/27 26/26/26 25/25/25
f 30/30/30 29/29/29 28/28/28
f 14/14/14 31/31/31 13/13/13
f 34/34/34 33/33/33 32/32/32
f 37/37/37 36/36/36 35/35/35
f 40/40/40 39/39/39 38/38/38
f 43/43/43 42/42/42 41/41/41
f 46/46/46 45/45/45 44/44/44
f 49/49/49 48/48/48 47/47/47
f 52/52/52 51/51/51 50/50/50
f 55/55/55 54/54/54 53/53/53
f 58/58/58 57/57/57 56/56/56
f 61/61/61 60/60/60 59/59/59
f 64/64/64 63/63/63 62/62/62
f 67/67/67 66/66/66 65/65/65
f 70/70/70 69/69/69 68/68/68
f 73/73/73 72/72/72 71/71/71
f 76/76/76 75/75/75 74/74/74
f 79/79/79 78/78/78 77/77/77
f 82/82/82 81/81/81 80/80/80
f 85/85/85 84/84/84 83/83/83
f 88/88/88 87/87/87 86/86/86
f 91/91/91 90/90/90 89/89/89
f 94/94/94 93/93/93 92/92/92
f 97/97/97 96/96/96 95/95/95
f 100/100/100 99/99/99 98/98/98
f 103/103/103 102/102/102 101/101/101
f 106/106/106 105/105/105 104/104/104
f 109/109/109 108/108/108 107/107/107
f 112/112/112 111/111/111 110/110/110
f 115/115/115 114/114/114 113/113/113
f 118/118/118 117/117/117 116/116/116
f 121/121/121 120/120/120 119/119/119
f 124/124/124 123/123/123 122/122/122
f 127/127/127 126/126/126 125/125/125
f 130/130/130 129/129/129 128/128/128
f 133/133/133 132/132/132 131/131/131
f 136/136/136 135/135/135 134/134/134
f 139/139/139 138/138/138 137/137/137
f 133/133/133 140/140/140 132/132/132
f 143/143/143 142/142/142 141/141/141
f 146/146/146 145/145/145 144/144/144
f 149/149/149 148/148/148 147/147/147
f 152/152/152 151/151/151 150/150/150
