# VPXTOOL table OBJ file
# VPXTOOL OBJ file
# numVerts: 68 numFaces: 156
o BM_TMet2
v 24.39874267578125 -0.14124009013175964 -65.61187744140625
v -23.77170753479004 -0.14124009013175964 -65.61187744140625
v 24.39872932434082 -22.37374496459961 -65.61187744140625
v 24.39874267578125 -0.14124009013175964 -65.61187744140625
v 24.39872932434082 -22.37374496459961 -65.61187744140625
v 24.3986873626709 -14.962836265563965 -44.30571365356445
v -23.77170753479004 -22.37374496459961 -65.61187744140625
v 24.39874267578125 -0.14124009013175964 -65.61187744140625
v 24.39874267578125 -9.40472412109375 -11.883298873901367
v -23.77170753479004 -0.14124009013175964 -65.61187744140625
v -23.77170753479004 -0.14124009013175964 -65.61187744140625
v -23.77172088623047 -14.962836265563965 -44.30571365356445
v -23.77170753479004 -22.37374496459961 -65.61187744140625
v 14.208819389343262 -14.962891578674316 -44.30571365356445
v 24.39872932434082 -22.37374496459961 -65.61187744140625
v -23.77170753479004 -22.37374496459961 -65.61187744140625
v 16.987903594970703 -14.962836265563965 -44.30571365356445
v 24.3986873626709 -14.962836265563965 -44.30571365356445
v 24.39874267578125 -9.40472412109375 -11.883298873901367
v -23.77172088623047 -14.962836265563965 -44.30571365356445
v -23.7717342376709 -9.40472412109375 -11.883296966552734
v -23.7717342376709 -9.40472412109375 -11.883296966552734
v 24.3986873626709 -14.962836265563965 15.907317161560059
v 24.39874267578125 -9.40472412109375 4.791092395782471
v -23.77172088623047 -14.962836265563965 15.907379150390625
v -23.7717342376709 -9.40472412109375 4.791096210479736
v 24.39872932434082 -9.404779434204102 15.907344818115234
v 24.39874267578125 -9.40472412109375 -11.883298873901367
v -23.7717342376709 -9.40472412109375 4.791096210479736
v -23.7717342376709 -9.40472412109375 -11.883296966552734
v 24.3986873626709 -14.962836265563965 15.907317161560059
v 24.39874267578125 -9.40472412109375 4.791092395782471
v 6.797994136810303 -9.40472412109375 4.7910943031311035
v -5.24462890625 -9.40472412109375 4.7910943031311035
v -23.7717342376709 -9.40472412109375 15.9073486328125
v -23.77172088623047 -14.962836265563965 15.907379150390625
v 24.39870262145996 -3.846611499786377 15.907344818115234
v 24.39870262145996 -3.846611499786377 14.054645538330078
v 6.797980308532715 -3.846611499786377 14.054647445678711
v 24.39870262145996 -3.846611499786377 14.054645538330078
v 24.39870262145996 -3.846611499786377 15.907344818115234
v 6.797980308532715 -3.846611499786377 15.907346725463867
v 6.797994136810303 -9.40472412109375 15.907346725463867
v 6.797994136810303 -9.40472412109375 15.907346725463867
v 6.797994136810303 -9.40472412109375 4.7910943031311035
v 6.797980308532715 -3.846611499786377 14.054647445678711
v -23.77170753479004 -3.846611499786377 14.054649353027344
v -5.24462890625 -3.846611499786377 14.054647445678711
v 6.797980308532715 -3.846611499786377 15.907346725463867
v 24.39870262145996 -3.846611499786377 15.907344818115234
v 6.797994136810303 -9.40472412109375 15.907346725463867
v 6.797980308532715 -3.846611499786377 15.907346725463867
v -5.24462890625 -3.846611499786377 14.054647445678711
v -5.24462890625 -9.40472412109375 4.7910943031311035
v -5.24462890625 -9.40472412109375 15.907346725463867
v 24.39872932434082 -9.404779434204102 15.907344818115234
v -5.24462890625 -3.846611499786377 15.907346725463867
v -5.24462890625 -9.40472412109375 15.907346725463867
v -5.24462890625 -3.846611499786377 15.907346725463867
v -23.77170753479004 -3.846611499786377 15.9073486328125
v -23.77170753479004 -3.846611499786377 14.054649353027344
v -5.24462890625 -3.846611499786377 15.907346725463867
v -5.24462890625 -9.40472412109375 15.907346725463867
v -23.77170753479004 -3.846611499786377 15.9073486328125
v 24.3986873626709 -14.962836265563965 15.907317161560059
v -23.77170753479004 -3.846611499786377 15.9073486328125
v -23.7717342376709 -9.40472412109375 15.9073486328125
v -23.77172088623047 -14.962836265563965 15.907379150390625
vt 0.6516006588935852 0.7978976964950562
vt 0.6516006588935852 0.7904298901557922
vt 0.655470609664917 0.7978976964950562
vt 0.9815487265586853 0.26761651039123535
vt 0.987808883190155 0.26761651039123535
vt 0.9857221841812134 0.2729595899581909
vt 0.655470609664917 0.7904298901557922
vt 0.5147205591201782 0.8212452530860901
vt 0.5147205591201782 0.8556253910064697
vt 0.5532969832420349 0.8212452530860901
vt 0.9856374859809875 0.94987553358078
vt 0.9816352725028992 0.9553215503692627
vt 0.9793798327445984 0.9500331282615662
vt 0.9628263711929321 0.6920497417449951
vt 0.9646000862121582 0.6954980492591858
vt 0.9562151432037354 0.6954980492591858
vt 0.9633101224899292 0.6920497417449951
vt 0.9646000862121582 0.6920497417449951
vt 0.984157145023346 0.28109049797058105
vt 0.9562151432037354 0.6920497417449951
vt 0.9834576845169067 0.9634097814559937
vt 0.5532969832420349 0.8556253910064697
vt 0.9646000862121582 0.682845413684845
vt 0.984157145023346 0.28527212142944336
vt 0.9562151432037354 0.682845413684845
vt 0.9835903644561768 0.9675897359848022
vt 0.984157145023346 0.2880598306655884
vt 0.5932527184486389 0.16612809896469116
vt 0.5903615951538086 0.15866029262542725
vt 0.5932527184486389 0.15866029262542725
vt 0.9857221841812134 0.2880598306655884
vt 0.5903615951538086 0.16612809896469116
vt 0.5903615951538086 0.16339951753616333
vt 0.5903615951538086 0.16153252124786377
vt 0.9836788177490234 0.9703763127326965
vt 0.9821144342422485 0.9704157114028931
vt 0.9825920462608337 0.2880598306655884
vt 0.9825920462608337 0.28759515285491943
vt 0.588670015335083 0.16339951753616333
vt 0.588670015335083 0.16612809896469116
vt 0.5883488059043884 0.16612809896469116
vt 0.5883488059043884 0.16339951753616333
vt 0.5884341597557068 0.16339951753616333
vt 0.040254030376672745 0.17540615797042847
vt 0.040254030376672745 0.17712950706481934
vt 0.0392865389585495 0.17569339275360107
vt 0.588670015335083 0.15866029262542725
vt 0.588670015335083 0.16153252124786377
vt 0.6353681683540344 0.6839630603790283
vt 0.6353681683540344 0.6866916418075562
vt 0.6344006657600403 0.6839630603790283
vt 0.0392865389585495 0.17540615797042847
vt 0.06015896797180176 0.4031510353088379
vt 0.059191472828388214 0.40458714962005615
vt 0.059191472828388214 0.4028638005256653
vt 0.6344006657600403 0.6866916418075562
vt 0.5883488059043884 0.16153252124786377
vt 0.5884341597557068 0.16153252124786377
vt 0.06015896797180176 0.4028638005256653
vt 0.5883488059043884 0.15866029262542725
vt 0.9852285385131836 0.9698724746704102
vt 0.6353681683540344 0.682096004486084
vt 0.6344006657600403 0.682096004486084
vt 0.6353681683540344 0.6792238354682922
vt 0.6334331631660461 0.6866916418075562
vt 0.9852432608604431 0.9703369140625
vt 0.6344006657600403 0.6792238354682922
vt 0.6334331631660461 0.6792238354682922
vn 0.5688967704772949 0.6289965510368347 -0.5298299193382263
vn -0.5688937306404114 0.6290271282196045 -0.5297970175743103
vn 0.5617692470550537 -0.6742528080940247 -0.4793730080127716
vn 0.5688967704772949 0.6289965510368347 -0.5298299193382263
vn 0.5617692470550537 -0.6742528080940247 -0.4793730080127716
vn 0.7465872764587402 -0.6559910774230957 0.11082956194877625
vn -0.5617485046386719 -0.6742724180221558 -0.4793696999549866
vn 0.5688967704772949 0.6289965510368347 -0.5298299193382263
vn 0.7268144488334656 0.6843324303627014 0.05856535583734512
vn -0.5688937306404114 0.6290271282196045 -0.5297970175743103
vn -0.5688937306404114 0.6290271282196045 -0.5297970175743103
vn -0.7465900182723999 -0.6559880375862122 0.11082906275987625
vn -0.5617485046386719 -0.6742724180221558 -0.4793696999549866
vn 0.0000075455413934832904 -0.9860265254974365 0.16658838093280792
vn 0.5617692470550537 -0.6742528080940247 -0.4793730080127716
vn -0.5617485046386719 -0.6742724180221558 -0.4793696999549866
vn 0.000011027001164620742 -0.9860261678695679 0.16659051179885864
vn 0.7465872764587402 -0.6559910774230957 0.11082956194877625
vn 0.7268144488334656 0.6843324303627014 0.05856535583734512
vn -0.7465900182723999 -0.6559880375862122 0.11082906275987625
vn -0.7268121242523193 0.6843352317810059 0.05856212228536606
vn -0.7268121242523193 0.6843352317810059 0.05856212228536606
vn 0.5773643255233765 -0.5773603916168213 0.5773261189460754
vn 0.7724121809005737 0.6120755672454834 -0.16953730583190918
vn -0.5773578882217407 -0.5773601531982422 0.5773327350616455
vn -0.7724177241325378 0.6120684742927551 -0.1695377379655838
vn 0.7071097493171692 -0.000002894584895329899 0.7071038484573364
vn 0.7268144488334656 0.6843324303627014 0.05856535583734512
vn -0.7724177241325378 0.6120684742927551 -0.1695377379655838
vn -0.7268121242523193 0.6843352317810059 0.05856212228536606
vn 0.5773643255233765 -0.5773603916168213 0.5773261189460754
vn 0.7724121809005737 0.6120755672454834 -0.16953730583190918
vn -0.08806230127811432 0.9873715043067932 -0.13169105350971222
vn 0.08806124329566956 0.9873719811439514 -0.13168823719024658
vn -0.7071013450622559 0.000003027433876923169 0.7071122527122498
vn -0.5773578882217407 -0.5773601531982422 0.5773327350616455
vn 0.5773460268974304 0.5773677229881287 0.5773370862007141
vn 0.6516642570495605 0.7309858202934265 -0.20246826112270355
vn -0.6516647934913635 0.7309846878051758 -0.20247069001197815
vn 0.6516642570495605 0.7309858202934265 -0.20246826112270355
vn 0.5773460268974304 0.5773677229881287 0.5773370862007141
vn -0.5773489475250244 0.5773535966873169 0.5773481726646423
vn -0.3014999032020569 0.30152830481529236 0.9045321941375732
vn -0.3014999032020569 0.30152830481529236 0.9045321941375732
vn -0.08806230127811432 0.9873715043067932 -0.13169105350971222
vn -0.6516647934913635 0.7309846878051758 -0.20247069001197815
vn -0.6516615748405457 0.7309882044792175 -0.20246845483779907
vn 0.6516637802124023 0.7309855818748474 -0.20247066020965576
vn -0.5773489475250244 0.5773535966873169 0.5773481726646423
vn 0.5773460268974304 0.5773677229881287 0.5773370862007141
vn -0.3014999032020569 0.30152830481529236 0.9045321941375732
vn -0.5773489475250244 0.5773535966873169 0.5773481726646423
vn 0.6516637802124023 0.7309855818748474 -0.20247066020965576
vn 0.08806124329566956 0.9873719811439514 -0.13168823719024658
vn 0.3015053868293762 0.3015213906764984 0.9045326113700867
vn 0.7071097493171692 -0.000002894584895329899 0.7071038484573364
vn 0.5773481130599976 0.5773546099662781 0.5773480534553528
vn 0.3015053868293762 0.3015213906764984 0.9045326113700867
vn 0.5773481130599976 0.5773546099662781 0.5773480534553528
vn -0.5773581862449646 0.5773609280586243 0.5773316025733948
vn -0.6516615748405457 0.7309882044792175 -0.20246845483779907
vn 0.5773481130599976 0.5773546099662781 0.5773480534553528
vn 0.3015053868293762 0.3015213906764984 0.9045326113700867
vn -0.5773581862449646 0.5773609280586243 0.5773316025733948
vn 0.5773643255233765 -0.5773603916168213 0.5773261189460754
vn -0.5773581862449646 0.5773609280586243 0.5773316025733948
vn -0.7071013450622559 0.000003027433876923169 0.7071122527122498
vn -0.5773578882217407 -0.5773601531982422 0.5773327350616455
f 3/3/3 2/2/2 1/1/1
f 6/6/6 5/5/5 4/4/4
f 3/3/3 7/7/7 2/2/2
f 10/10/10 9/9/9 8/8/8
f 13/13/13 12/12/12 11/11/11
f 16/16/16 15/15/15 14/14/14
f 15/15/15 18/18/18 17/17/17
f 15/15/15 17/17/17 14/14/14
f 6/6/6 4/4/4 19/19/19
f 14/14/14 20/20/20 16/16/16
f 12/12/12 21/21/21 11/11/11
f 10/10/10 22/22/22 9/9/9
f 18/18/18 23/23/23 17/17/17
f 17/17/17 23/23/23 14/14/14
f 6/6/6 19/19/19 24/24/24
f 25/25/25 20/20/20 14/14/14
f 12/12/12 26/26/26 21/21/21
f 6/6/6 24/24/24 27/27/27
f 30/30/30 29/29/29 28/28/28
f 27/27/27 31/31/31 6/6/6
f 33/33/33 32/32/32 28/28/28
f 34/34/34 33/33/33 28/28/28
f 12/12/12 35/35/35 26/26/26
f 29/29/29 34/34/34 28/28/28
f 23/23/23 25/25/25 14/14/14
f 35/35/35 12/12/12 36/36/36
f 24/24/24 38/38/38 37/37/37
f 39/39/39 32/32/32 33/33/33
f 39/39/39 40/40/40 32/32/32
f 24/24/24 37/37/37 27/27/27
f 42/42/42 41/41/41 40/40/40
f 42/42/42 40/40/40 39/39/39
f 34/34/34 43/43/43 33/33/33
f 46/46/46 45/45/45 44/44/44
f 34/34/34 29/29/29 47/47/47
f 34/34/34 47/47/47 48/48/48
f 51/51/51 50/50/50 49/49/49
f 44/44/44 52/52/52 46/46/46
f 55/55/55 54/54/54 53/53/53
f 51/51/51 56/56/56 50/50/50
f 47/47/47 57/57/57 48/48/48
f 34/34/34 58/58/58 43/43/43
f 53/53/53 59/59/59 55/55/55
f 47/47/47 60/60/60 57/57/57
f 35/35/35 61/61/61 26/26/26
f 64/64/64 63/63/63 62/62/62
f 65/65/65 56/56/56 51/51/51
f 35/35/35 66/66/66 61/61/61
f 51/51/51 63/63/63 65/65/65
f 64/64/64 67/67/67 63/63/63
f 68/68/68 65/65/65 63/63/63
f 63/63/63 67/67/67 68/68/68
