# VPXTOOL table OBJ file
# VPXTOOL OBJ file
# numVerts: 79 numFaces: 87
o LM_GI_gi06_UnderPF
v 392.71295166015625 701.9283447265625 -28.22476577758789
v 392.71295166015625 701.9283447265625 -32.93064880371094
v 360.77191162109375 701.9345703125 -32.93064880371094
v 396.6695861816406 700.1976928710938 -28.22476577758789
v 396.6695861816406 700.1976928710938 -32.93064880371094
v 392.71295166015625 701.9283447265625 -32.93064880371094
v 392.71295166015625 701.9283447265625 -28.22476577758789
v 396.6695861816406 700.1976928710938 -28.22476577758789
v 392.71295166015625 701.9283447265625 -32.93064880371094
v 360.77191162109375 701.9345703125 -32.93064880371094
v 356.8146667480469 700.2054443359375 -32.93064880371094
v 356.8146667480469 700.2054443359375 -28.22476577758789
v 360.77191162109375 701.9345703125 -28.22476577758789
v 392.71295166015625 701.9283447265625 -28.22476577758789
v 360.77191162109375 701.9345703125 -32.93064880371094
v 399.3118591308594 696.7571411132813 -28.22476577758789
v 399.3118591308594 696.7571411132813 -32.93064880371094
v 396.6695861816406 700.1976928710938 -32.93064880371094
v 360.77191162109375 701.9345703125 -28.22476577758789
v 360.77191162109375 701.9345703125 -32.93064880371094
v 356.8146667480469 700.2054443359375 -28.22476577758789
v 396.6695861816406 700.1976928710938 -28.22476577758789
v 399.3118591308594 696.7571411132813 -28.22476577758789
v 396.6695861816406 700.1976928710938 -32.93064880371094
v 356.8146667480469 700.2054443359375 -32.93064880371094
v 354.17108154296875 696.765869140625 -32.93064880371094
v 354.17108154296875 696.765869140625 -28.22476577758789
v 356.8146667480469 700.2054443359375 -28.22476577758789
v 356.8146667480469 700.2054443359375 -32.93064880371094
v 354.17108154296875 696.765869140625 -28.22476577758789
v 399.923583984375 692.4884643554688 -28.22476577758789
v 399.923583984375 692.4884643554688 -32.93064880371094
v 399.3118591308594 696.7571411132813 -32.93064880371094
v 399.923583984375 692.4884643554688 -28.22476577758789
v 396.6695861816406 700.1976928710938 -28.22476577758789
v 392.71295166015625 701.9283447265625 -28.22476577758789
v 399.3118591308594 696.7571411132813 -28.22476577758789
v 399.923583984375 692.4884643554688 -28.22476577758789
v 399.3118591308594 696.7571411132813 -32.93064880371094
v 354.17108154296875 696.765869140625 -28.22476577758789
v 354.17108154296875 696.765869140625 -32.93064880371094
v 353.55767822265625 692.4974365234375 -32.93064880371094
v 353.55767822265625 692.4974365234375 -28.22476577758789
v 360.77191162109375 701.9345703125 -28.22476577758789
v 399.923583984375 692.4884643554688 -28.22476577758789
v 399.3118591308594 696.7571411132813 -28.22476577758789
v 396.6695861816406 700.1976928710938 -28.22476577758789
v 356.8146667480469 700.2054443359375 -28.22476577758789
v 354.17108154296875 696.765869140625 -28.22476577758789
v 353.55767822265625 692.4974365234375 -28.22476577758789
v 354.17108154296875 696.765869140625 -28.22476577758789
v 353.55767822265625 692.4974365234375 -32.93064880371094
v 353.55767822265625 692.4974365234375 -28.22476577758789
v 353.55767822265625 692.4974365234375 -32.93064880371094
v 368.6776123046875 613.8956909179688 -32.93064880371094
v 399.923583984375 692.4884643554688 -28.22476577758789
v 384.7732849121094 613.8925170898438 -28.224763870239258
v 399.923583984375 692.4884643554688 -32.93064880371094
v 399.923583984375 692.4884643554688 -28.22476577758789
v 353.55767822265625 692.4974365234375 -28.22476577758789
v 368.6776123046875 613.8956909179688 -28.224763870239258
v 368.6776123046875 613.8956909179688 -28.224763870239258
v 353.55767822265625 692.4974365234375 -28.22476577758789
v 368.6776123046875 613.8956909179688 -32.93064880371094
v 368.6776123046875 613.8956909179688 -28.224763870239258
v 384.7732849121094 613.8925170898438 -28.224763870239258
v 399.923583984375 692.4884643554688 -28.22476577758789
v 368.6776123046875 613.8956909179688 -28.224763870239258
v 368.6776123046875 613.8956909179688 -32.93064880371094
v 370.4206848144531 610.7575073242188 -32.93064880371094
v 370.4206848144531 610.7575073242188 -28.224763870239258
v 368.6776123046875 613.8956909179688 -28.224763870239258
v 370.4206848144531 610.7575073242188 -32.93064880371094
v 368.6776123046875 613.8956909179688 -28.224763870239258
v 383.02899169921875 610.7550659179688 -28.224763870239258
v 384.7732849121094 613.8925170898438 -28.224763870239258
v 370.4206848144531 610.7575073242188 -28.224763870239258
v 383.02899169921875 610.7550659179688 -28.224763870239258
v 368.6776123046875 613.8956909179688 -28.224763870239258
vt 0.7541482448577881 0.7930768728256226
vt 0.7543495893478394 0.7926304340362549
vt 0.7417840957641602 0.7926321625709534
vt 0.7556594014167786 0.7925951480865479
vt 0.7558628916740417 0.7921481728553772
vt 0.7543495893478394 0.7926304340362549
vt 0.7541482448577881 0.7930768728256226
vt 0.7556594014167786 0.7925951480865479
vt 0.7543495893478394 0.7926304340362549
vt 0.7417840957641602 0.7926321625709534
vt 0.7401887774467468 0.7921503186225891
vt 0.7400074601173401 0.7925972938537598
vt 0.741600513458252 0.793078601360321
vt 0.7541482448577881 0.7930768728256226
vt 0.7417840957641602 0.7926321625709534
vt 0.7566107511520386 0.7916383147239685
vt 0.7568154335021973 0.7911902666091919
vt 0.7558628916740417 0.7921481728553772
vt 0.741600513458252 0.793078601360321
vt 0.7417840957641602 0.7926321625709534
vt 0.7400074601173401 0.7925972938537598
vt 0.7556594014167786 0.7925951480865479
vt 0.7566107511520386 0.7916383147239685
vt 0.7558628916740417 0.7921481728553772
vt 0.7401887774467468 0.7921503186225891
vt 0.7390730977058411 0.7911927103996277
vt 0.7388935685157776 0.7916407585144043
vt 0.7400074601173401 0.7925972938537598
vt 0.7401887774467468 0.7921503186225891
vt 0.7388935685157776 0.7916407585144043
vt 0.7567436695098877 0.790452778339386
vt 0.7569484114646912 0.7900034189224243
vt 0.7568154335021973 0.7911902666091919
vt 0.7567436695098877 0.790452778339386
vt 0.7556594014167786 0.7925951480865479
vt 0.7541482448577881 0.7930768728256226
vt 0.7566107511520386 0.7916383147239685
vt 0.7567436695098877 0.790452778339386
vt 0.7568154335021973 0.7911902666091919
vt 0.7388935685157776 0.7916407585144043
vt 0.7390730977058411 0.7911927103996277
vt 0.7387381196022034 0.7900059223175049
vt 0.7385591268539429 0.7904552817344666
vt 0.741600513458252 0.793078601360321
vt 0.7567436695098877 0.790452778339386
vt 0.7566107511520386 0.7916383147239685
vt 0.7556594014167786 0.7925951480865479
vt 0.7400074601173401 0.7925972938537598
vt 0.7388935685157776 0.7916407585144043
vt 0.7385591268539429 0.7904552817344666
vt 0.7388935685157776 0.7916407585144043
vt 0.7387381196022034 0.7900059223175049
vt 0.7385591268539429 0.7904552817344666
vt 0.7387381196022034 0.7900059223175049
vt 0.7428913712501526 0.768462061882019
vt 0.7567436695098877 0.790452778339386
vt 0.7489365935325623 0.7689346671104431
vt 0.7569484114646912 0.7900034189224243
vt 0.7567436695098877 0.790452778339386
vt 0.7385591268539429 0.7904552817344666
vt 0.7427090406417847 0.76893550157547
vt 0.7427090406417847 0.76893550157547
vt 0.7385591268539429 0.7904552817344666
vt 0.7428913712501526 0.768462061882019
vt 0.7427090406417847 0.76893550157547
vt 0.7489365935325623 0.7689346671104431
vt 0.7567436695098877 0.790452778339386
vt 0.7427090406417847 0.76893550157547
vt 0.7428913712501526 0.768462061882019
vt 0.7434961795806885 0.7676140069961548
vt 0.7433130145072937 0.7680884003639221
vt 0.7427090406417847 0.76893550157547
vt 0.7434961795806885 0.7676140069961548
vt 0.7427090406417847 0.76893550157547
vt 0.7481886744499207 0.7680877447128296
vt 0.7489365935325623 0.7689346671104431
vt 0.7433130145072937 0.7680884003639221
vt 0.7481886744499207 0.7680877447128296
vt 0.7427090406417847 0.76893550157547
vn -0.00019360978330951184 -0.9999999403953552 -0
vn -0.00019360978330951184 -0.9999999403953552 -0
vn -0.00019360978330951184 -0.9999999403953552 -0
vn -0.40074974298477173 -0.916187584400177 -0
vn -0.40074974298477173 -0.916187584400177 -0
vn -0.40074974298477173 -0.916187584400177 -0
vn -0.4007425010204315 -0.9161907434463501 -0
vn -0.4007425010204315 -0.9161907434463501 -0
vn -0.4007425010204315 -0.9161907434463501 -0
vn 0.40039896965026855 -0.9163409471511841 -0
vn 0.40039896965026855 -0.9163409471511841 -0
vn 0.40039896965026855 -0.9163409471511841 -0
vn -0.00019360927399247885 -0.9999999403953552 -0
vn -0.00019360927399247885 -0.9999999403953552 -0
vn -0.00019360927399247885 -0.9999999403953552 -0
vn -0.7931109070777893 -0.6090772747993469 -0
vn -0.7931109070777893 -0.6090772747993469 -0
vn -0.7931109070777893 -0.6090772747993469 -0
vn 0.40039125084877014 -0.9163442850112915 -0
vn 0.40039125084877014 -0.9163442850112915 -0
vn 0.40039125084877014 -0.9163442850112915 -0
vn -0.7931011915206909 -0.6090897917747498 -0
vn -0.7931011915206909 -0.6090897917747498 -0
vn -0.7931011915206909 -0.6090897917747498 -0
vn 0.7928742170333862 -0.6093853116035461 -0
vn 0.7928742170333862 -0.6093853116035461 -0
vn 0.7928742170333862 -0.6093853116035461 -0
vn 0.7928699254989624 -0.6093907952308655 -0
vn 0.7928699254989624 -0.6093907952308655 -0
vn 0.7928699254989624 -0.6093907952308655 -0
vn -0.9898872375488281 -0.14185674488544464 -0
vn -0.9898872375488281 -0.14185674488544464 -0
vn -0.9898872375488281 -0.14185674488544464 -0
vn 0 -0 -1
vn 0 -0 -1
vn 0 -0 -1
vn -0.9898871779441833 -0.14185690879821777 -0
vn -0.9898871779441833 -0.14185690879821777 -0
vn -0.9898871779441833 -0.14185690879821777 -0
vn 0.9898322224617004 -0.1422402560710907 -0
vn 0.9898322224617004 -0.1422402560710907 -0
vn 0.9898322224617004 -0.1422402560710907 -0
vn 0 -0 -1
vn 0 -0 -1
vn 0 -0 -0.9999999403953552
vn 0 -0 -0.9999999403953552
vn 0 -0 -0.9999999403953552
vn 0 -0 -1
vn 0 -0 -1
vn 0.9898321628570557 -0.14224007725715637 -0
vn 0.9898321628570557 -0.14224007725715637 -0
vn 0.9898321628570557 -0.14224007725715637 -0
vn 0.9819967150688171 0.18889783322811127 -0
vn 0.9819967150688171 0.18889783322811127 -0
vn 0.9819967150688171 0.18889783322811127 -0
vn -0.9819237589836121 0.18927735090255737 -0
vn -0.9819237589836121 0.18927735090255737 -0
vn -0.9819237589836121 0.18927735090255737 -0
vn 0.000000044384805164554564 -0.00000002195285730977048 -1
vn 0.000000044384805164554564 -0.00000002195285730977048 -1
vn 0.000000044384805164554564 -0.00000002195285730977048 -1
vn 0.9819966554641724 0.1888982206583023 -0
vn 0.9819966554641724 0.1888982206583023 -0
vn 0.9819966554641724 0.1888982206583023 -0
vn -0.00000019006927232112503 -0.00000002195285730977048 -1
vn -0.00000019006927232112503 -0.00000002195285730977048 -1
vn -0.00000019006927232112503 -0.00000002195285730977048 -1
vn 0.8742044568061829 0.4855579435825348 -0
vn 0.8742044568061829 0.4855579435825348 -0
vn 0.8742044568061829 0.4855579435825348 -0
vn 0.8741944432258606 0.4855760335922241 -0
vn 0.8741944432258606 0.4855760335922241 -0
vn 0.8741944432258606 0.4855760335922241 -0
vn 0 -0 -1
vn 0 -0 -1
vn 0 -0 -1
vn -0.00000020250938348453928 -0 -1
vn -0.00000020250938348453928 -0 -1
vn -0.00000020250938348453928 -0 -1
f 3/3/3 2/2/2 1/1/1
f 6/6/6 5/5/5 4/4/4
f 9/9/9 8/8/8 7/7/7
f 12/12/12 11/11/11 10/10/10
f 15/15/15 14/14/14 13/13/13
f 18/18/18 17/17/17 16/16/16
f 21/21/21 20/20/20 19/19/19
f 24/24/24 23/23/23 22/22/22
f 27/27/27 26/26/26 25/25/25
f 30/30/30 29/29/29 28/28/28
f 33/33/33 32/32/32 31/31/31
f 36/36/36 35/35/35 34/34/34
f 39/39/39 38/38/38 37/37/37
f 42/42/42 41/41/41 40/40/40
f 44/44/44 36/36/36 43/43/43
f 47/47/47 46/46/46 45/45/45
f 48/48/48 44/44/44 43/43/43
f 43/43/43 36/36/36 34/34/34
f 43/43/43 49/49/49 48/48/48
f 52/52/52 51/51/51 50/50/50
f 55/55/55 54/54/54 53/53/53
f 58/58/58 57/57/57 56/56/56
f 61/61/61 60/60/60 59/59/59
f 64/64/64 63/63/63 62/62/62
f 67/67/67 66/66/66 65/65/65
f 70/70/70 69/69/69 68/68/68
f 73/73/73 72/72/72 71/71/71
f 76/76/76 75/75/75 74/74/74
f 79/79/79 78/78/78 77/77/77
