# VPXTOOL table OBJ file
# VPXTOOL OBJ file
# numVerts: 68 numFaces: 156
o BM_TMet3
v 24.39875602722168 -0.14124009013175964 -65.61187744140625
v -23.771678924560547 -0.14124009013175964 -65.61187744140625
v -23.771678924560547 -22.37374496459961 -65.61187744140625
v 24.39870262145996 -22.373689651489258 -65.61187744140625
v 24.39875602722168 -0.14124009013175964 -65.61187744140625
v 24.39870262145996 -22.373689651489258 -65.61187744140625
v 24.39875602722168 -14.962891578674316 -44.30571365356445
v 24.39875602722168 -0.14124009013175964 -65.61187744140625
v 24.39875602722168 -9.404779434204102 -11.883299827575684
v -23.771678924560547 -0.14124009013175964 -65.61187744140625
v -23.771678924560547 -0.14124009013175964 -65.61187744140625
v -23.771678924560547 -14.962891578674316 -44.30571365356445
v -23.771678924560547 -22.37374496459961 -65.61187744140625
v 14.208874702453613 -14.962891578674316 -44.30571365356445
v 24.39870262145996 -22.373689651489258 -65.61187744140625
v -23.771678924560547 -22.37374496459961 -65.61187744140625
v 16.987958908081055 -14.962891578674316 -44.30571365356445
v 24.39875602722168 -14.962891578674316 -44.30571365356445
v 24.39875602722168 -9.404779434204102 -11.883299827575684
v -23.771678924560547 -14.962891578674316 -44.30571365356445
v -23.771678924560547 -9.40472412109375 -11.88329792022705
v -23.771678924560547 -9.40472412109375 -11.88329792022705
v 24.39875602722168 -14.962891578674316 15.907317161560059
v 24.39875602722168 -9.404779434204102 4.7910919189453125
v -23.771678924560547 -14.962891578674316 15.907379150390625
v -23.771678924560547 -9.40472412109375 4.79109525680542
v 24.39875602722168 -9.404779434204102 15.907344818115234
v 24.39875602722168 -9.404779434204102 -11.883299827575684
v -23.771678924560547 -9.40472412109375 4.79109525680542
v -23.771678924560547 -9.40472412109375 -11.88329792022705
v 24.39875602722168 -14.962891578674316 15.907317161560059
v 24.39875602722168 -9.404779434204102 4.7910919189453125
v 6.79802131652832 -9.40472412109375 4.791093349456787
v -5.244545936584473 -9.404779434204102 4.791093349456787
v -23.771678924560547 -9.40472412109375 15.9073486328125
v -23.771678924560547 -14.962891578674316 15.907379150390625
v 24.39881134033203 -3.8466668128967285 15.907344818115234
v 24.39881134033203 -3.8466668128967285 14.054644584655762
v 6.798076629638672 -3.846611499786377 14.054646492004395
v 24.39881134033203 -3.8466668128967285 14.054644584655762
v 24.39881134033203 -3.8466668128967285 15.907344818115234
v 6.798076629638672 -3.846611499786377 15.907344818115234
v 6.79802131652832 -9.40472412109375 15.907344818115234
v -5.244601249694824 -3.8466668128967285 14.054646492004395
v 6.79802131652832 -9.40472412109375 15.907344818115234
v 6.79802131652832 -9.40472412109375 4.791093349456787
v 6.798076629638672 -3.846611499786377 14.054646492004395
v 24.39881134033203 -3.8466668128967285 15.907344818115234
v 24.39875602722168 -9.404779434204102 15.907344818115234
v 6.798076629638672 -3.846611499786377 15.907344818115234
v -23.771678924560547 -3.846611499786377 14.054648399353027
v 6.798076629638672 -3.846611499786377 15.907344818115234
v -5.244601249694824 -3.8466668128967285 14.054646492004395
v -5.244545936584473 -9.404779434204102 4.791093349456787
v -5.244545936584473 -9.404779434204102 15.907344818115234
v -5.244601249694824 -3.8466668128967285 15.907344818115234
v 6.79802131652832 -9.40472412109375 15.907344818115234
v -5.244545936584473 -9.404779434204102 15.907344818115234
v -5.244601249694824 -3.8466668128967285 15.907344818115234
v -23.771678924560547 -3.846611499786377 15.9073486328125
v -23.771678924560547 -3.846611499786377 14.054648399353027
v 24.39875602722168 -14.962891578674316 15.907317161560059
v -23.771678924560547 -9.40472412109375 15.9073486328125
v -23.771678924560547 -3.846611499786377 15.9073486328125
v -5.244601249694824 -3.8466668128967285 15.907344818115234
v -23.771678924560547 -3.846611499786377 15.9073486328125
v -5.244545936584473 -9.404779434204102 15.907344818115234
v -23.771678924560547 -14.962891578674316 15.907379150390625
vt 0.6479000449180603 0.5612033605575562
vt 0.6479000449180603 0.5537355542182922
vt 0.6517699956893921 0.5537355542182922
vt 0.6517699956893921 0.5612033605575562
vt 0.9814116358757019 0.13907647132873535
vt 0.9876717925071716 0.13907647132873535
vt 0.98558509349823 0.14441955089569092
vt 0.5144464373588562 0.023027479648590088
vt 0.5144464373588562 0.05740761756896973
vt 0.5530228614807129 0.023027479648590088
vt 0.9850892424583435 0.5215308666229248
vt 0.9810870289802551 0.5269768238067627
vt 0.9788315892219543 0.5216884016990662
vt 0.9625522494316101 0.8202235698699951
vt 0.9643259644508362 0.8236718773841858
vt 0.9559410214424133 0.8236718773841858
vt 0.9630360007286072 0.8202235698699951
vt 0.9643259644508362 0.8202235698699951
vt 0.9840200543403625 0.15255045890808105
vt 0.9559410214424133 0.8202235698699951
vt 0.9829094409942627 0.5350650548934937
vt 0.5530228018760681 0.05740761756896973
vt 0.9643259644508362 0.811019241809845
vt 0.9840200543403625 0.15673208236694336
vt 0.9559410214424133 0.811019241809845
vt 0.9830421209335327 0.5392450094223022
vt 0.9840200543403625 0.15951979160308838
vt 0.5378799438476563 0.8643702864646912
vt 0.5349887609481812 0.8569024801254272
vt 0.5378799438476563 0.8569024801254272
vt 0.98558509349823 0.15951979160308838
vt 0.5349887609481812 0.8643702864646912
vt 0.5349887609481812 0.8616416454315186
vt 0.5349887609481812 0.8597747087478638
vt 0.9831305742263794 0.5420315861701965
vt 0.9815661907196045 0.5420709848403931
vt 0.9824550151824951 0.15951979160308838
vt 0.9824550151824951 0.15905511379241943
vt 0.5332972407341003 0.8616416454315186
vt 0.5332972407341003 0.8643702864646912
vt 0.5329760313034058 0.8643702864646912
vt 0.5329760313034058 0.8616416454315186
vt 0.5330613255500793 0.8616416454315186
vt 0.5332972407341003 0.8597747087478638
vt 0.02915205806493759 0.27037686109542847
vt 0.02915205806493759 0.27210021018981934
vt 0.028184564784169197 0.2706640958786011
vt 0.6331751942634583 0.43217504024505615
vt 0.6322076916694641 0.43217504024505615
vt 0.6331751942634583 0.42944639921188354
vt 0.5332972407341003 0.8569024801254272
vt 0.028184564784169197 0.27037686109542847
vt 0.05508769676089287 0.2584977149963379
vt 0.054120201617479324 0.25993382930755615
vt 0.054120201617479324 0.2582104802131653
vt 0.5329760313034058 0.8597747087478638
vt 0.6322076916694641 0.42944639921188354
vt 0.5330613255500793 0.8597747087478638
vt 0.05508769676089287 0.2582104802131653
vt 0.5329760313034058 0.8569024801254272
vt 0.9846802949905396 0.5415277481079102
vt 0.63124018907547 0.43217504024505615
vt 0.6322076916694641 0.42470723390579224
vt 0.6331751942634583 0.42470723390579224
vt 0.6331751942634583 0.427579402923584
vt 0.9846950173377991 0.5419921875
vt 0.6322076916694641 0.427579402923584
vt 0.63124018907547 0.42470723390579224
vn 0.5689043402671814 0.6290053129196167 -0.5298115611076355
vn -0.5688860416412354 0.6290187239646912 -0.5298153162002563
vn -0.5617560744285583 -0.6742815375328064 -0.47934797406196594
vn 0.5617600679397583 -0.6742430925369263 -0.47939741611480713
vn 0.5689043402671814 0.6290053129196167 -0.5298115611076355
vn 0.5617600679397583 -0.6742430925369263 -0.47939741611480713
vn 0.7465887665748596 -0.6559897065162659 0.11082771420478821
vn 0.5689043402671814 0.6290053129196167 -0.5298115611076355
vn 0.7268120050430298 0.6843351125717163 0.05856505408883095
vn -0.5688860416412354 0.6290187239646912 -0.5298153162002563
vn -0.5688860416412354 0.6290187239646912 -0.5298153162002563
vn -0.7465890645980835 -0.6559891104698181 0.11082887649536133
vn -0.5617560744285583 -0.6742815375328064 -0.47934797406196594
vn 0.00000024900532480387483 -0.9860268831253052 0.16658611595630646
vn 0.5617600679397583 -0.6742430925369263 -0.47939741611480713
vn -0.5617560744285583 -0.6742815375328064 -0.47934797406196594
vn 0 -0.9860267639160156 0.16658732295036316
vn 0.7465887665748596 -0.6559897065162659 0.11082771420478821
vn 0.7268120050430298 0.6843351125717163 0.05856505408883095
vn -0.7465890645980835 -0.6559891104698181 0.11082887649536133
vn -0.7268102765083313 0.6843370795249939 0.05856211483478546
vn -0.7268102765083313 0.6843370795249939 0.05856211483478546
vn 0.5773667097091675 -0.5773584246635437 0.5773257613182068
vn 0.7724056243896484 0.6120837926864624 -0.16953708231449127
vn -0.577358603477478 -0.577359676361084 0.5773325562477112
vn -0.7724178433418274 0.612068772315979 -0.16953659057617188
vn 0.7071164846420288 -0.0000054384431678045075 0.707097053527832
vn 0.7268120050430298 0.6843351125717163 0.05856505408883095
vn -0.7724178433418274 0.612068772315979 -0.16953659057617188
vn -0.7268102765083313 0.6843370795249939 0.05856211483478546
vn 0.5773667097091675 -0.5773584246635437 0.5773257613182068
vn 0.7724056243896484 0.6120837926864624 -0.16953708231449127
vn -0.08806408196687698 0.9873710870742798 -0.1316937506198883
vn 0.08806143701076508 0.987372100353241 -0.13168710470199585
vn -0.7071091532707214 0.000002157625658583129 0.7071043848991394
vn -0.577358603477478 -0.577359676361084 0.5773325562477112
vn 0.5773400068283081 0.5773569345474243 0.577353835105896
vn 0.6516729593276978 0.7309778332710266 -0.20246927440166473
vn -0.6516571640968323 0.7309916615486145 -0.20246972143650055
vn 0.6516729593276978 0.7309778332710266 -0.20246927440166473
vn 0.5773400068283081 0.5773569345474243 0.577353835105896
vn -0.5773561000823975 0.5773637294769287 0.5773309469223022
vn -0.30149751901626587 0.30152836441993713 0.9045329689979553
vn 0.6516628861427307 0.7309869527816772 -0.20246875286102295
vn -0.30149751901626587 0.30152836441993713 0.9045329689979553
vn -0.08806408196687698 0.9873710870742798 -0.1316937506198883
vn -0.6516571640968323 0.7309916615486145 -0.20246972143650055
vn 0.5773400068283081 0.5773569345474243 0.577353835105896
vn 0.7071164846420288 -0.0000054384431678045075 0.707097053527832
vn -0.5773561000823975 0.5773637294769287 0.5773309469223022
vn -0.6516606211662292 0.7309885025024414 -0.20247013866901398
vn -0.5773561000823975 0.5773637294769287 0.5773309469223022
vn 0.6516628861427307 0.7309869527816772 -0.20246875286102295
vn 0.08806143701076508 0.987372100353241 -0.13168710470199585
vn 0.301500141620636 0.3015207052230835 0.904534637928009
vn 0.5773552060127258 0.5773657560348511 0.5773298144340515
vn -0.30149751901626587 0.30152836441993713 0.9045329689979553
vn 0.301500141620636 0.3015207052230835 0.904534637928009
vn 0.5773552060127258 0.5773657560348511 0.5773298144340515
vn -0.5773494243621826 0.5773511528968811 0.5773501396179199
vn -0.6516606211662292 0.7309885025024414 -0.20247013866901398
vn 0.5773667097091675 -0.5773584246635437 0.5773257613182068
vn -0.7071091532707214 0.000002157625658583129 0.7071043848991394
vn -0.5773494243621826 0.5773511528968811 0.5773501396179199
vn 0.5773552060127258 0.5773657560348511 0.5773298144340515
vn -0.5773494243621826 0.5773511528968811 0.5773501396179199
vn 0.301500141620636 0.3015207052230835 0.904534637928009
vn -0.577358603477478 -0.577359676361084 0.5773325562477112
f 3/3/3 2/2/2 1/1/1
f 3/3/3 1/1/1 4/4/4
f 7/7/7 6/6/6 5/5/5
f 10/10/10 9/9/9 8/8/8
f 13/13/13 12/12/12 11/11/11
f 16/16/16 15/15/15 14/14/14
f 15/15/15 18/18/18 17/17/17
f 15/15/15 17/17/17 14/14/14
f 7/7/7 5/5/5 19/19/19
f 14/14/14 20/20/20 16/16/16
f 12/12/12 21/21/21 11/11/11
f 10/10/10 22/22/22 9/9/9
f 18/18/18 23/23/23 17/17/17
f 17/17/17 23/23/23 14/14/14
f 7/7/7 19/19/19 24/24/24
f 25/25/25 20/20/20 14/14/14
f 12/12/12 26/26/26 21/21/21
f 7/7/7 24/24/24 27/27/27
f 30/30/30 29/29/29 28/28/28
f 27/27/27 31/31/31 7/7/7
f 33/33/33 32/32/32 28/28/28
f 34/34/34 33/33/33 28/28/28
f 12/12/12 35/35/35 26/26/26
f 29/29/29 34/34/34 28/28/28
f 23/23/23 25/25/25 14/14/14
f 35/35/35 12/12/12 36/36/36
f 24/24/24 38/38/38 37/37/37
f 39/39/39 32/32/32 33/33/33
f 39/39/39 40/40/40 32/32/32
f 39/39/39 41/41/41 40/40/40
f 24/24/24 37/37/37 27/27/27
f 39/39/39 42/42/42 41/41/41
f 34/34/34 43/43/43 33/33/33
f 29/29/29 44/44/44 34/34/34
f 47/47/47 46/46/46 45/45/45
f 50/50/50 49/49/49 48/48/48
f 29/29/29 51/51/51 44/44/44
f 45/45/45 52/52/52 47/47/47
f 55/55/55 54/54/54 53/53/53
f 51/51/51 56/56/56 44/44/44
f 50/50/50 57/57/57 49/49/49
f 34/34/34 58/58/58 43/43/43
f 53/53/53 59/59/59 55/55/55
f 51/51/51 60/60/60 56/56/56
f 35/35/35 61/61/61 26/26/26
f 62/62/62 49/49/49 57/57/57
f 65/65/65 64/64/64 63/63/63
f 35/35/35 66/66/66 61/61/61
f 65/65/65 63/63/63 67/67/67
f 57/57/57 67/67/67 62/62/62
f 68/68/68 62/62/62 67/67/67
f 67/67/67 63/63/63 68/68/68
