# VPXTOOL table OBJ file
# VPXTOOL OBJ file
# numVerts: 126 numFaces: 126
o LM_L_LLWiz_Playfield
v 695.7300415039063 1145.8157958984375 0.00007290111534530297
v 610.1233520507813 1056.2606201171875 0.00006556786684086546
v 655.0713500976563 1068.2086181640625 0.00007074428140185773
v 552.6983032226563 1248.0687255859375 0.000057565663155401126
v 608.9234619140625 1054.803955078125 0.00006297966319834813
v 610.1233520507813 1056.2606201171875 0.00006556786684086546
v 489.9993896484375 1067.902099609375 0.000050978884246433154
v 608.9234619140625 1054.803955078125 0.00006297966319834813
v 552.6983032226563 1248.0687255859375 0.000057565663155401126
v 781.3367919921875 1235.370849609375 0.00008023436384974048
v 695.7300415039063 1145.8157958984375 0.00007290111534530297
v 655.0713500976563 1068.2086181640625 0.00007074428140185773
v 371.0752868652344 1081.0001220703125 0.00003897810529451817
v 489.9993896484375 1067.902099609375 0.000050978884246433154
v 433.77423095703125 1261.166748046875 0.000045564884203486145
v 695.7300415039063 1145.8157958984375 0.00007290111534530297
v 553.2982788085938 1248.7969970703125 0.0000588597686146386
v 610.1233520507813 1056.2606201171875 0.00006556786684086546
v 371.0752868652344 1081.0001220703125 0.00003897810529451817
v 433.77423095703125 1261.166748046875 0.000045564884203486145
v 334.5137939453125 1201.749755859375 0.000034949196560774
v 552.6983032226563 1248.0687255859375 0.000057565663155401126
v 610.1233520507813 1056.2606201171875 0.00006556786684086546
v 553.2982788085938 1248.7969970703125 0.0000588597686146386
v 489.9993896484375 1067.902099609375 0.000050978884246433154
v 552.6983032226563 1248.0687255859375 0.000057565663155401126
v 433.77423095703125 1261.166748046875 0.000045564884203486145
v 781.3367919921875 1235.370849609375 0.00008023436384974048
v 638.9049682617188 1338.3521728515625 0.0000661930171190761
v 695.7300415039063 1145.8157958984375 0.00007290111534530297
v 638.9049682617188 1338.3521728515625 0.0000661930171190761
v 553.2982788085938 1248.7969970703125 0.0000588597686146386
v 695.7300415039063 1145.8157958984375 0.00007290111534530297
v 638.9049682617188 1338.3521728515625 0.0000661930171190761
v 781.3367919921875 1235.370849609375 0.00008023436384974048
v 781.918212890625 1237.5406494140625 0.00008023436384974048
v 433.77423095703125 1261.166748046875 0.000045564884203486145
v 297.95233154296875 1322.4993896484375 0.00003092029146500863
v 334.5137939453125 1201.749755859375 0.000034949196560774
v 781.918212890625 1237.5406494140625 0.00008023436384974048
v 639.1956787109375 1339.43701171875 0.0000661930171190761
v 638.9049682617188 1338.3521728515625 0.0000661930171190761
v 725.60546875 1375.7730712890625 0.00007592068868689239
v 639.1956787109375 1339.43701171875 0.0000661930171190761
v 781.918212890625 1237.5406494140625 0.00008023436384974048
v 553.2982788085938 1248.7969970703125 0.0000588597686146386
v 496.4731750488281 1441.3333740234375 0.00005215082273934968
v 552.6983032226563 1248.0687255859375 0.000057565663155401126
v 433.77423095703125 1261.166748046875 0.000045564884203486145
v 552.6983032226563 1248.0687255859375 0.000057565663155401126
v 496.4731750488281 1441.3333740234375 0.00005215082273934968
v 433.77423095703125 1261.166748046875 0.000045564884203486145
v 397.2127380371094 1381.9163818359375 0.00004153597910772078
v 297.95233154296875 1322.4993896484375 0.00003092029146500863
v 638.9049682617188 1338.3521728515625 0.0000661930171190761
v 496.4731750488281 1441.3333740234375 0.00005215082273934968
v 553.2982788085938 1248.7969970703125 0.0000588597686146386
v 433.77423095703125 1261.166748046875 0.000045564884203486145
v 496.4731750488281 1441.3333740234375 0.00005215082273934968
v 397.2127380371094 1381.9163818359375 0.00004153597910772078
v 639.1956787109375 1339.43701171875 0.0000661930171190761
v 496.4731750488281 1441.3333740234375 0.00005215082273934968
v 638.9049682617188 1338.3521728515625 0.0000661930171190761
v 725.60546875 1375.7730712890625 0.00007592068868689239
v 669.292724609375 1514.0054931640625 0.0000716070135240443
v 639.1956787109375 1339.43701171875 0.0000661930171190761
v 669.292724609375 1514.0054931640625 0.0000716070135240443
v 496.4731750488281 1441.3333740234375 0.00005215082273934968
v 639.1956787109375 1339.43701171875 0.0000661930171190761
v 496.4731750488281 1441.3333740234375 0.00005215082273934968
v 360.6512756347656 1502.666015625 0.00003750707401195541
v 397.2127380371094 1381.9163818359375 0.00004153597910772078
v 671.7100219726563 1513.652587890625 0.0000720383832231164
v 669.292724609375 1514.0054931640625 0.0000716070135240443
v 725.60546875 1375.7730712890625 0.00007592068868689239
v 669.292724609375 1514.0054931640625 23.529481887817383
v 669.292724609375 1514.0054931640625 0.0000716070135240443
v 671.7100219726563 1513.652587890625 0.0000720383832231164
v 669.292724609375 1514.0054931640625 0.0000716070135240443
v 669.292724609375 1514.0054931640625 23.529481887817383
v 667.7390747070313 1514.732421875 0.00007117565110092983
v 669.292724609375 1514.0054931640625 0.0000716070135240443
v 667.7390747070313 1514.732421875 0.00007117565110092983
v 496.4731750488281 1441.3333740234375 0.00005215082273934968
v 667.7390747070313 1514.732421875 0.00007117565110092983
v 665.8276977539063 1516.2681884765625 0.0000716070135240443
v 496.4731750488281 1441.3333740234375 0.00005215082273934968
v 665.8276977539063 1516.2681884765625 0.0000716070135240443
v 664.010009765625 1518.926025390625 0.0000720383832231164
v 496.4731750488281 1441.3333740234375 0.00005215082273934968
v 366.9837341308594 1520.702880859375 0.000039448226743843406
v 360.6512756347656 1502.666015625 0.00003750707401195541
v 496.4731750488281 1441.3333740234375 0.00005215082273934968
v 496.4731750488281 1441.3333740234375 0.00005215082273934968
v 664.010009765625 1518.926025390625 0.0000720383832231164
v 663.351318359375 1521.17724609375 0.0000716070135240443
v 366.9837341308594 1520.702880859375 0.000039448226743843406
v 496.4731750488281 1441.3333740234375 0.00005215082273934968
v 367.317626953125 1521.4283447265625 0.00003987959280493669
v 367.317626953125 1521.4283447265625 0.00003987959280493669
v 496.4731750488281 1441.3333740234375 0.00005215082273934968
v 367.4814147949219 1522.3907470703125 0.00003987959280493669
v 496.4731750488281 1441.3333740234375 0.00005215082273934968
v 663.351318359375 1521.17724609375 0.0000716070135240443
v 648.037841796875 1558.9908447265625 0.00006729333836119622
v 496.4731750488281 1441.3333740234375 0.00005215082273934968
v 648.037841796875 1558.9908447265625 0.00006729333836119622
v 647.2470092773438 1560.55810546875 0.00006858744018245488
v 647.2470092773438 1560.55810546875 0.00006858744018245488
v 646.9818115234375 1562.127197265625 0.00006858744018245488
v 496.4731750488281 1441.3333740234375 0.00005215082273934968
v 646.9818115234375 1562.127197265625 0.00006858744018245488
v 646.86279296875 1564.3082275390625 0.00006858744018245488
v 496.4731750488281 1441.3333740234375 0.00005215082273934968
v 367.4814147949219 1522.3907470703125 0.00003987959280493669
v 496.4731750488281 1441.3333740234375 0.00005215082273934968
v 436.6704406738281 1602.6099853515625 0.00004701906436821446
v 646.86279296875 1564.3082275390625 0.00006858744018245488
v 635.2449340820313 1599.96728515625 0.00006729333836119622
v 496.4731750488281 1441.3333740234375 0.00005215082273934968
v 496.4731750488281 1441.3333740234375 0.00005215082273934968
v 635.2449340820313 1599.96728515625 0.00006729333836119622
v 634.8512573242188 1601.771728515625 0.00006643060623900965
v 496.4731750488281 1441.3333740234375 0.00005215082273934968
v 634.8512573242188 1601.771728515625 0.00006643060623900965
v 436.6704406738281 1602.6099853515625 0.00004701906436821446
vt 0.5473600029945374 0.6165894269943237
vt 0.5242556929588318 0.5963441133499146
vt 0.5360482335090637 0.5990124344825745
vt 0.5099167227745056 0.6404178142547607
vt 0.5239353775978088 0.5960195064544678
vt 0.5242556929588318 0.5963441133499146
vt 0.4929793179035187 0.598943829536438
vt 0.5239353775978088 0.5960195064544678
vt 0.5099167227745056 0.6404178142547607
vt 0.5711281299591064 0.6374162435531616
vt 0.5473600029945374 0.6165894269943237
vt 0.5360482335090637 0.5990124344825745
vt 0.4618963599205017 0.6018801927566528
vt 0.4929793179035187 0.598943829536438
vt 0.47796744108200073 0.6435267925262451
vt 0.5473600029945374 0.6165894269943237
vt 0.5100802183151245 0.6405903100967407
vt 0.5242556929588318 0.5963441133499146
vt 0.4618963599205017 0.6018801927566528
vt 0.47796744108200073 0.6435267925262451
vt 0.45162543654441833 0.6295275688171387
vt 0.5099167227745056 0.6404178142547607
vt 0.5242556929588318 0.5963441133499146
vt 0.5100802183151245 0.6405903100967407
vt 0.4929793179035187 0.598943829536438
vt 0.5099167227745056 0.6404178142547607
vt 0.47796744108200073 0.6435267925262451
vt 0.5711281299591064 0.6374162435531616
vt 0.5337030291557312 0.662117600440979
vt 0.5473600029945374 0.6165894269943237
vt 0.5337030291557312 0.662117600440979
vt 0.5100802183151245 0.6405903100967407
vt 0.5473600029945374 0.6165894269943237
vt 0.5337030291557312 0.662117600440979
vt 0.5711281299591064 0.6374162435531616
vt 0.571312427520752 0.637928307056427
vt 0.47796744108200073 0.6435267925262451
vt 0.44095098972320557 0.658261239528656
vt 0.45162543654441833 0.6295275688171387
vt 0.571312427520752 0.637928307056427
vt 0.5337900519371033 0.6623822450637817
vt 0.5337030291557312 0.662117600440979
vt 0.557738184928894 0.6713002920150757
vt 0.5337900519371033 0.6623822450637817
vt 0.571312427520752 0.637928307056427
vt 0.5100802183151245 0.6405903100967407
vt 0.4949992001056671 0.6876629590988159
vt 0.5099167227745056 0.6404178142547607
vt 0.47796744108200073 0.6435267925262451
vt 0.5099167227745056 0.6404178142547607
vt 0.4949992001056671 0.6876629590988159
vt 0.47796744108200073 0.6435267925262451
vt 0.46771132946014404 0.6728186011314392
vt 0.44095098972320557 0.658261239528656
vt 0.5337030291557312 0.662117600440979
vt 0.4949992001056671 0.6876629590988159
vt 0.5100802183151245 0.6405903100967407
vt 0.47796744108200073 0.6435267925262451
vt 0.4949992001056671 0.6876629590988159
vt 0.46771132946014404 0.6728186011314392
vt 0.5337900519371033 0.6623822450637817
vt 0.4949992001056671 0.6876629590988159
vt 0.5337030291557312 0.662117600440979
vt 0.557738184928894 0.6713002920150757
vt 0.5435338020324707 0.7062214612960815
vt 0.5337900519371033 0.6623822450637817
vt 0.5435338020324707 0.7062214612960815
vt 0.4949992001056671 0.6876629590988159
vt 0.5337900519371033 0.6623822450637817
vt 0.4949992001056671 0.6876629590988159
vt 0.45704013109207153 0.7032959461212158
vt 0.46771132946014404 0.6728186011314392
vt 0.5442084074020386 0.7061302661895752
vt 0.5435338020324707 0.7062214612960815
vt 0.557738184928894 0.6713002920150757
vt 0.5431653261184692 0.7087635397911072
vt 0.5435338020324707 0.7062214612960815
vt 0.5442084074020386 0.7061302661895752
vt 0.5435338020324707 0.7062214612960815
vt 0.5431653261184692 0.7087635397911072
vt 0.5431045889854431 0.7064093947410583
vt 0.5435338020324707 0.7062214612960815
vt 0.5431045889854431 0.7064093947410583
vt 0.4949992001056671 0.6876629590988159
vt 0.5431045889854431 0.7064093947410583
vt 0.5425822734832764 0.7068066000938416
vt 0.4949992001056671 0.6876629590988159
vt 0.5425822734832764 0.7068066000938416
vt 0.5420958399772644 0.7074944376945496
vt 0.4949992001056671 0.6876629590988159
vt 0.4587200880050659 0.7079546451568604
vt 0.45704013109207153 0.7032959461212158
vt 0.4949992001056671 0.6876629590988159
vt 0.4949992001056671 0.6876629590988159
vt 0.5420958399772644 0.7074944376945496
vt 0.5419309139251709 0.7080775499343872
vt 0.4587200880050659 0.7079546451568604
vt 0.4949992001056671 0.6876629590988159
vt 0.45881012082099915 0.7081426382064819
vt 0.45881012082099915 0.7081426382064819
vt 0.4949992001056671 0.6876629590988159
vt 0.458851158618927 0.7083920240402222
vt 0.4949992001056671 0.6876629590988159
vt 0.5419309139251709 0.7080775499343872
vt 0.537940263748169 0.7179383039474487
vt 0.4949992001056671 0.6876629590988159
vt 0.537940263748169 0.7179383039474487
vt 0.5377296209335327 0.7183496952056885
vt 0.5377296209335327 0.7183496952056885
vt 0.5376675128936768 0.7187618017196655
vt 0.4949992001056671 0.6876629590988159
vt 0.5376675128936768 0.7187618017196655
vt 0.5376517176628113 0.7193350791931152
vt 0.4949992001056671 0.6876629590988159
vt 0.458851158618927 0.7083920240402222
vt 0.4949992001056671 0.6876629590988159
vt 0.4781308174133301 0.7294707894325256
vt 0.5376517176628113 0.7193350791931152
vt 0.5346394777297974 0.7287672758102417
vt 0.4949992001056671 0.6876629590988159
vt 0.4949992001056671 0.6876629590988159
vt 0.5346394777297974 0.7287672758102417
vt 0.5345413684844971 0.7292475700378418
vt 0.4949992001056671 0.6876629590988159
vt 0.5345413684844971 0.7292475700378418
vt 0.4781308174133301 0.7294707894325256
vn 0.00000012521481096428033 -0.00000003780854385126986 -1
vn 0.00000012521481096428033 -0.00000003780854385126986 -1
vn 0.00000012521481096428033 -0.00000003780854385126986 -1
vn 0.0000016191818303923355 0.0000004430478384165326 -1
vn 0.0000016191818303923355 0.0000004430478384165326 -1
vn 0.0000016191818303923355 0.0000004430478384165326 -1
vn 0.0000001010641383913935 0.0000000013884523530904858 -1
vn 0.0000001010641383913935 0.0000000013884523530904858 -1
vn 0.0000001010641383913935 0.0000000013884523530904858 -1
vn 0.00000012521427095180115 -0.000000037808888464496704 -1
vn 0.00000012521427095180115 -0.000000037808888464496704 -1
vn 0.00000012521427095180115 -0.000000037808888464496704 -1
vn 0.00000010106424497280386 0.0000000013885222971410371 -0.9999999403953552
vn 0.00000010106424497280386 0.0000000013885222971410371 -0.9999999403953552
vn 0.00000010106424497280386 0.0000000013885222971410371 -0.9999999403953552
vn 0.00000009330232586535203 -0.000000007303551985415879 -1
vn 0.00000009330232586535203 -0.000000007303551985415879 -1
vn 0.00000009330232586535203 -0.000000007303551985415879 -1
vn 0.00000010744595613232377 -0.0000000008324248512714405 -1
vn 0.00000010744595613232377 -0.0000000008324248512714405 -1
vn 0.00000010744595613232377 -0.0000000008324248512714405 -1
vn 0.0000016191867189263576 0.00000044303692448011134 -1
vn 0.0000016191867189263576 0.00000044303692448011134 -1
vn 0.0000016191867189263576 0.00000044303692448011134 -1
vn 0.00000010106417391853029 0.0000000013885550487202636 -1
vn 0.00000010106417391853029 0.0000000013885550487202636 -1
vn 0.00000010106417391853029 0.0000000013885550487202636 -1
vn 0.00000009330229033821524 -0.000000007303410765047147 -1
vn 0.00000009330229033821524 -0.000000007303410765047147 -1
vn 0.00000009330229033821524 -0.000000007303410765047147 -1
vn 0.00000009330251771189069 -0.0000000073034502889868236 -0.9999999403953552
vn 0.00000009330251771189069 -0.0000000073034502889868236 -0.9999999403953552
vn 0.00000009330251771189069 -0.0000000073034502889868236 -0.9999999403953552
vn 0.00000008258290051799122 -0.000000022135324684313673 -0.9999999403953552
vn 0.00000008258290051799122 -0.000000022135324684313673 -0.9999999403953552
vn 0.00000008258290051799122 -0.000000022135324684313673 -0.9999999403953552
vn 0.00000010744597034317849 -0.0000000008324794187331008 -1
vn 0.00000010744597034317849 -0.0000000008324794187331008 -1
vn 0.00000010744597034317849 -0.0000000008324794187331008 -1
vn 0.00000008257718064896835 -0.000000022121396270335936 -1
vn 0.00000008257718064896835 -0.000000022121396270335936 -1
vn 0.00000008257718064896835 -0.000000022121396270335936 -1
vn 0.00000010731481836501189 0.000000012511589098096465 -1
vn 0.00000010731481836501189 0.000000012511589098096465 -1
vn 0.00000010731481836501189 0.000000012511589098096465 -1
vn 0.0000016191769418583135 0.00000044304178459242394 -1
vn 0.0000016191769418583135 0.00000044304178459242394 -1
vn 0.0000016191769418583135 0.00000044304178459242394 -1
vn 0.00000010106383996344448 0.000000001383965830825673 -0.9999999403953552
vn 0.00000010106383996344448 0.000000001383965830825673 -0.9999999403953552
vn 0.00000010106383996344448 0.000000001383965830825673 -0.9999999403953552
vn 0.00000010744609824087092 -0.0000000008324255729164065 -1
vn 0.00000010744609824087092 -0.0000000008324255729164065 -1
vn 0.00000010744609824087092 -0.0000000008324255729164065 -1
vn 0.00000009330592831702234 -0.000000007306802718431982 -1
vn 0.00000009330592831702234 -0.000000007306802718431982 -1
vn 0.00000009330592831702234 -0.000000007306802718431982 -1
vn 0.00000010743893597009446 -0.0000000008346066060482826 -1
vn 0.00000010743893597009446 -0.0000000008346066060482826 -1
vn 0.00000010743893597009446 -0.0000000008346066060482826 -1
vn 0.0000000825968982098857 -0.00000002213272942697131 -1
vn 0.0000000825968982098857 -0.00000002213272942697131 -1
vn 0.0000000825968982098857 -0.00000002213272942697131 -1
vn 0.00000010731511679296091 0.000000012511611302556958 -1
vn 0.00000010731511679296091 0.000000012511611302556958 -1
vn 0.00000010731511679296091 0.000000012511611302556958 -1
vn 0.00000010732010480296594 0.000000012510771973950341 -1
vn 0.00000010732010480296594 0.000000012510771973950341 -1
vn 0.00000010732010480296594 0.000000012510771973950341 -1
vn 0.00000010743891465381239 -0.0000000008345789059838182 -1
vn 0.00000010743891465381239 -0.0000000008345789059838182 -1
vn 0.00000010743891465381239 -0.0000000008345789059838182 -1
vn 0.0000001848867015041833 0.000000044114056407806856 -1
vn 0.0000001848867015041833 0.000000044114056407806856 -1
vn 0.0000001848867015041833 0.000000044114056407806856 -1
vn 0.14446459710597992 0.9895099401473999 -0
vn 0.14446459710597992 0.9895099401473999 -0
vn 0.14446459710597992 0.9895099401473999 -0
vn 0.4238172173500061 0.905747652053833 -0
vn 0.4238172173500061 0.905747652053833 -0
vn 0.4238172173500061 0.905747652053833 -0
vn 0.0000001907320239524779 -0.00000018581587823973678 -1
vn 0.0000001907320239524779 -0.00000018581587823973678 -1
vn 0.0000001907320239524779 -0.00000018581587823973678 -1
vn -0.000000006059473811603766 0.00000027329821250532405 -1
vn -0.000000006059473811603766 0.00000027329821250532405 -1
vn -0.000000006059473811603766 0.00000027329821250532405 -1
vn 0.00000003306722007323515 0.0000001849239055218277 -0.9999999403953552
vn 0.00000003306722007323515 0.0000001849239055218277 -0.9999999403953552
vn 0.00000003306722007323515 0.0000001849239055218277 -0.9999999403953552
vn 0.00000013500921625109186 0.00000006022158771656905 -1
vn 0.00000013500921625109186 0.00000006022158771656905 -1
vn 0.00000013500921625109186 0.00000006022158771656905 -1
vn 0.00000018269538770709914 -0.00000013816631394547585 -1
vn 0.00000018269538770709914 -0.00000013816631394547585 -1
vn 0.00000018269538770709914 -0.00000013816631394547585 -1
vn 0.00000036081758025829913 0.00000042859903714997927 -1
vn 0.00000036081758025829913 0.00000042859903714997927 -1
vn 0.00000036081758025829913 0.00000042859903714997927 -1
vn 0.00000008592984812594295 -0.000000014623878996644635 -1
vn 0.00000008592984812594295 -0.000000014623878996644635 -1
vn 0.00000008592984812594295 -0.000000014623878996644635 -1
vn 0.00000014338660037083173 -0.00000005600896457735871 -1
vn 0.00000014338660037083173 -0.00000005600896457735871 -1
vn 0.00000014338660037083173 -0.00000005600896457735871 -1
vn -0.00000038880432384758024 0.0000006295515504461946 -1
vn -0.00000038880432384758024 0.0000006295515504461946 -1
vn -0.00000038880432384758024 0.0000006295515504461946 -1
vn 0.00000009618349139373095 0.00000001625234169466694 -1
vn 0.00000009618349139373095 0.00000001625234169466694 -1
vn 0.00000009618349139373095 0.00000001625234169466694 -1
vn 0.00000010461272381689923 0.000000005711820350029484 -0.9999999403953552
vn 0.00000010461272381689923 0.000000005711820350029484 -0.9999999403953552
vn 0.00000010461272381689923 0.000000005711820350029484 -0.9999999403953552
vn 0.00000009796343647394679 0.000000004506063966402962 -1
vn 0.00000009796343647394679 0.000000004506063966402962 -1
vn 0.00000009796343647394679 0.000000004506063966402962 -1
vn 0.00000010973431585625804 -0.0000000005390748958333802 -1
vn 0.00000010973431585625804 -0.0000000005390748958333802 -1
vn 0.00000010973431585625804 -0.0000000005390748958333802 -1
vn 0.000000524796632817015 -0.00000036362584410198906 -1
vn 0.000000524796632817015 -0.00000036362584410198906 -1
vn 0.000000524796632817015 -0.00000036362584410198906 -1
vn 0.00000009796761446523305 0.000000004507636930384251 -1
vn 0.00000009796761446523305 0.000000004507636930384251 -1
vn 0.00000009796761446523305 0.000000004507636930384251 -1
f 3/3/3 2/2/2 1/1/1
f 6/6/6 5/5/5 4/4/4
f 9/9/9 8/8/8 7/7/7
f 12/12/12 11/11/11 10/10/10
f 15/15/15 14/14/14 13/13/13
f 18/18/18 17/17/17 16/16/16
f 21/21/21 20/20/20 19/19/19
f 24/24/24 23/23/23 22/22/22
f 27/27/27 26/26/26 25/25/25
f 30/30/30 29/29/29 28/28/28
f 33/33/33 32/32/32 31/31/31
f 36/36/36 35/35/35 34/34/34
f 39/39/39 38/38/38 37/37/37
f 42/42/42 41/41/41 40/40/40
f 45/45/45 44/44/44 43/43/43
f 48/48/48 47/47/47 46/46/46
f 51/51/51 50/50/50 49/49/49
f 54/54/54 53/53/53 52/52/52
f 57/57/57 56/56/56 55/55/55
f 60/60/60 59/59/59 58/58/58
f 63/63/63 62/62/62 61/61/61
f 66/66/66 65/65/65 64/64/64
f 69/69/69 68/68/68 67/67/67
f 72/72/72 71/71/71 70/70/70
f 75/75/75 74/74/74 73/73/73
f 78/78/78 77/77/77 76/76/76
f 81/81/81 80/80/80 79/79/79
f 84/84/84 83/83/83 82/82/82
f 87/87/87 86/86/86 85/85/85
f 90/90/90 89/89/89 88/88/88
f 93/93/93 92/92/92 91/91/91
f 96/96/96 95/95/95 94/94/94
f 99/99/99 98/98/98 97/97/97
f 102/102/102 101/101/101 100/100/100
f 105/105/105 104/104/104 103/103/103
f 108/108/108 107/107/107 106/106/106
f 111/111/111 110/110/110 109/109/109
f 114/114/114 113/113/113 112/112/112
f 117/117/117 116/116/116 115/115/115
f 120/120/120 119/119/119 118/118/118
f 123/123/123 122/122/122 121/121/121
f 126/126/126 125/125/125 124/124/124
