# VPXTOOL table OBJ file
# VPXTOOL OBJ file
# numVerts: 124 numFaces: 138
o LM_GI_gi08_UnderPF
v 295.1871643066406 537.2084350585938 -12.23087215423584
v 286.161865234375 539.003662109375 -12.23087215423584
v 295.1871643066406 537.2084350585938 -6.426159381866455
v 286.161865234375 539.003662109375 -12.23087215423584
v 277.1365966796875 537.2084350585938 -12.23087215423584
v 286.161865234375 539.003662109375 -6.426159381866455
v 286.161865234375 539.003662109375 -12.23087215423584
v 286.161865234375 539.003662109375 -6.426159381866455
v 295.1871643066406 537.2084350585938 -6.426159381866455
v 302.8384094238281 532.0960693359375 -12.23087215423584
v 295.1871643066406 537.2084350585938 -12.23087215423584
v 302.8384094238281 532.0960693359375 -6.426159381866455
v 277.1365966796875 537.2084350585938 -12.23087215423584
v 277.1365966796875 537.2084350585938 -6.426159381866455
v 286.161865234375 539.003662109375 -6.426159381866455
v 277.1365966796875 537.2084350585938 -12.23087215423584
v 269.4853210449219 532.0960693359375 -12.23087215423584
v 277.1365966796875 537.2084350585938 -6.426159381866455
v 295.1871643066406 537.2084350585938 -12.23087215423584
v 295.1871643066406 537.2084350585938 -6.426159381866455
v 302.8384094238281 532.0960693359375 -6.426159381866455
v 269.4853210449219 532.0960693359375 -12.23087215423584
v 269.4853210449219 532.0960693359375 -6.426159381866455
v 277.1365966796875 537.2084350585938 -6.426159381866455
v 307.9508361816406 524.4447631835938 -12.23087215423584
v 302.8384094238281 532.0960693359375 -12.23087215423584
v 307.9508361816406 524.4447631835938 -6.426159381866455
v 302.8384094238281 532.0960693359375 -12.23087215423584
v 302.8384094238281 532.0960693359375 -6.426159381866455
v 307.9508361816406 524.4447631835938 -6.426159381866455
v 269.4853210449219 532.0960693359375 -12.23087215423584
v 264.3729553222656 524.4447631835938 -12.23087215423584
v 269.4853210449219 532.0960693359375 -6.426159381866455
v 309.74609375 515.41943359375 -6.426159381866455
v 295.1871643066406 537.2084350585938 -6.426159381866455
v 286.161865234375 539.003662109375 -6.426159381866455
v 302.8384094238281 532.0960693359375 -6.426159381866455
v 262.57769775390625 515.41943359375 -6.426159381866455
v 277.1365966796875 537.2084350585938 -6.426159381866455
v 264.3729553222656 524.4447631835938 -12.23087215423584
v 264.3729553222656 524.4447631835938 -6.426159381866455
v 269.4853210449219 532.0960693359375 -6.426159381866455
v 262.57769775390625 515.41943359375 -6.426159381866455
v 277.1365966796875 537.2084350585938 -6.426159381866455
v 269.4853210449219 532.0960693359375 -6.426159381866455
v 307.9508361816406 524.4447631835938 -12.23087215423584
v 307.9508361816406 524.4447631835938 -6.426159381866455
v 309.74609375 515.41943359375 -6.426159381866455
v 307.9508361816406 524.4447631835938 -6.426159381866455
v 309.74609375 515.41943359375 -12.23087215423584
v 307.9508361816406 524.4447631835938 -12.23087215423584
v 309.74609375 515.41943359375 -6.426159381866455
v 264.3729553222656 524.4447631835938 -12.23087215423584
v 262.57769775390625 515.41943359375 -12.23087215423584
v 264.3729553222656 524.4447631835938 -6.426159381866455
v 269.4853210449219 532.0960693359375 -6.426159381866455
v 264.3729553222656 524.4447631835938 -6.426159381866455
v 262.57769775390625 515.41943359375 -6.426159381866455
v 262.57769775390625 515.41943359375 -6.426159381866455
v 309.74609375 515.41943359375 -12.23087215423584
v 309.74609375 515.41943359375 -6.426159381866455
v 307.9508361816406 506.39422607421875 -6.426159381866455
v 307.9508361816406 506.39422607421875 -12.23087215423584
v 309.74609375 515.41943359375 -12.23087215423584
v 307.9508361816406 506.39422607421875 -6.426159381866455
v 286.161865234375 491.8353271484375 -6.426159381866455
v 309.74609375 515.41943359375 -6.426159381866455
v 286.161865234375 539.003662109375 -6.426159381866455
v 262.57769775390625 515.41943359375 -12.23087215423584
v 264.3729553222656 506.39422607421875 -12.23087215423584
v 262.57769775390625 515.41943359375 -6.426159381866455
v 286.161865234375 491.8353271484375 -6.426159381866455
v 264.3729553222656 506.39422607421875 -6.426159381866455
v 302.8384094238281 498.7429504394531 -6.426159381866455
v 307.9508361816406 506.39422607421875 -6.426159381866455
v 309.74609375 515.41943359375 -6.426159381866455
v 307.9508361816406 506.39422607421875 -12.23087215423584
v 307.9508361816406 506.39422607421875 -6.426159381866455
v 302.8384094238281 498.7429504394531 -6.426159381866455
v 302.8384094238281 498.7429504394531 -12.23087215423584
v 307.9508361816406 506.39422607421875 -12.23087215423584
v 302.8384094238281 498.7429504394531 -6.426159381866455
v 264.3729553222656 506.39422607421875 -12.23087215423584
v 269.4853210449219 498.7429504394531 -12.23087215423584
v 264.3729553222656 506.39422607421875 -6.426159381866455
v 264.3729553222656 506.39422607421875 -6.426159381866455
v 269.4853210449219 498.7429504394531 -6.426159381866455
v 295.1871643066406 493.6305847167969 -6.426159381866455
v 302.8384094238281 498.7429504394531 -6.426159381866455
v 269.4853210449219 498.7429504394531 -12.23087215423584
v 269.4853210449219 498.7429504394531 -6.426159381866455
v 264.3729553222656 506.39422607421875 -6.426159381866455
v 309.74609375 515.41943359375 -6.426159381866455
v 286.161865234375 491.8353271484375 -6.426159381866455
v 295.1871643066406 493.6305847167969 -6.426159381866455
v 295.1871643066406 493.6305847167969 -12.23087215423584
v 302.8384094238281 498.7429504394531 -12.23087215423584
v 295.1871643066406 493.6305847167969 -6.426159381866455
v 269.4853210449219 498.7429504394531 -6.426159381866455
v 277.1365966796875 493.6305847167969 -6.426159381866455
v 302.8384094238281 498.7429504394531 -12.23087215423584
v 302.8384094238281 498.7429504394531 -6.426159381866455
v 295.1871643066406 493.6305847167969 -6.426159381866455
v 269.4853210449219 498.7429504394531 -12.23087215423584
v 277.1365966796875 493.6305847167969 -12.23087215423584
v 269.4853210449219 498.7429504394531 -6.426159381866455
v 262.57769775390625 515.41943359375 -6.426159381866455
v 277.1365966796875 493.6305847167969 -6.426159381866455
v 286.161865234375 491.8353271484375 -6.426159381866455
v 286.161865234375 491.8353271484375 -12.23087215423584
v 295.1871643066406 493.6305847167969 -12.23087215423584
v 286.161865234375 491.8353271484375 -6.426159381866455
v 277.1365966796875 493.6305847167969 -12.23087215423584
v 286.161865234375 491.8353271484375 -12.23087215423584
v 277.1365966796875 493.6305847167969 -6.426159381866455
v 277.1365966796875 493.6305847167969 -12.23087215423584
v 277.1365966796875 493.6305847167969 -6.426159381866455
v 269.4853210449219 498.7429504394531 -6.426159381866455
v 295.1871643066406 493.6305847167969 -12.23087215423584
v 295.1871643066406 493.6305847167969 -6.426159381866455
v 286.161865234375 491.8353271484375 -6.426159381866455
v 286.161865234375 491.8353271484375 -12.23087215423584
v 286.161865234375 491.8353271484375 -6.426159381866455
v 277.1365966796875 493.6305847167969 -6.426159381866455
vt 0.5469871163368225 0.7248096466064453
vt 0.5476906895637512 0.7273721694946289
vt 0.5479395985603333 0.7249423861503601
vt 0.5476906895637512 0.7273721694946289
vt 0.5469871163368225 0.7299807071685791
vt 0.5486422777175903 0.7275006771087646
vt 0.5476906895637512 0.7273721694946289
vt 0.5486422777175903 0.7275006771087646
vt 0.5479395985603333 0.7249423861503601
vt 0.544985830783844 0.7226871252059937
vt 0.5469871163368225 0.7248096466064453
vt 0.5459408760070801 0.7228233814239502
vt 0.5469871163368225 0.7299807071685791
vt 0.5479395985603333 0.7301048040390015
vt 0.5486422777175903 0.7275006771087646
vt 0.5469871163368225 0.7299807071685791
vt 0.544985830783844 0.7322338819503784
vt 0.5479395985603333 0.7301048040390015
vt 0.5469871163368225 0.7248096466064453
vt 0.5479395985603333 0.7249423861503601
vt 0.5459408760070801 0.7228233814239502
vt 0.544985830783844 0.7322338819503784
vt 0.5459408760070801 0.7323540449142456
vt 0.5479395985603333 0.7301048040390015
vt 0.5419970750808716 0.7213294506072998
vt 0.544985830783844 0.7226871252059937
vt 0.5429559350013733 0.7214677333831787
vt 0.544985830783844 0.7226871252059937
vt 0.5459408760070801 0.7228233814239502
vt 0.5429559350013733 0.7214677333831787
vt 0.544985830783844 0.7322338819503784
vt 0.5419970750808716 0.7337868213653564
vt 0.5459408760070801 0.7323540449142456
vt 0.5394447445869446 0.7210800051689148
vt 0.5479395985603333 0.7249423861503601
vt 0.5486422777175903 0.7275006771087646
vt 0.5459408760070801 0.7228233814239502
vt 0.5394447445869446 0.7345208525657654
vt 0.5479395985603333 0.7301048040390015
vt 0.5419970750808716 0.7337868213653564
vt 0.5429559350013733 0.733904242515564
vt 0.5459408760070801 0.7323540449142456
vt 0.5394447445869446 0.7345208525657654
vt 0.5479395985603333 0.7301048040390015
vt 0.5459408760070801 0.7323540449142456
vt 0.5419970750808716 0.7213294506072998
vt 0.5429559350013733 0.7214677333831787
vt 0.5394447445869446 0.7210800051689148
vt 0.5429559350013733 0.7214677333831787
vt 0.5384814739227295 0.7209411859512329
vt 0.5419970750808716 0.7213294506072998
vt 0.5394447445869446 0.7210800051689148
vt 0.5419970750808716 0.7337868213653564
vt 0.5384814739227295 0.7344046831130981
vt 0.5429559350013733 0.733904242515564
vt 0.5459408760070801 0.7323540449142456
vt 0.5429559350013733 0.733904242515564
vt 0.5394447445869446 0.7345208525657654
vt 0.5394447445869446 0.7345208525657654
vt 0.5384814739227295 0.7209411859512329
vt 0.5394447445869446 0.7210800051689148
vt 0.5359441637992859 0.721714973449707
vt 0.5349764823913574 0.721577525138855
vt 0.5384814739227295 0.7209411859512329
vt 0.5359441637992859 0.721714973449707
vt 0.5303194522857666 0.7280977964401245
vt 0.5394447445869446 0.7210800051689148
vt 0.5486422777175903 0.7275006771087646
vt 0.5384814739227295 0.7344046831130981
vt 0.5349764823913574 0.7339973449707031
vt 0.5394447445869446 0.7345208525657654
vt 0.5303194522857666 0.7280977964401245
vt 0.5359441637992859 0.7341140508651733
vt 0.5329847931861877 0.7232720851898193
vt 0.5359441637992859 0.721714973449707
vt 0.5394447445869446 0.7210800051689148
vt 0.5349764823913574 0.721577525138855
vt 0.5359441637992859 0.721714973449707
vt 0.5329847931861877 0.7232720851898193
vt 0.5320132970809937 0.723137378692627
vt 0.5349764823913574 0.721577525138855
vt 0.5329847931861877 0.7232720851898193
vt 0.5349764823913574 0.7339973449707031
vt 0.5320132970809937 0.7326309680938721
vt 0.5359441637992859 0.7341140508651733
vt 0.5359441637992859 0.7341140508651733
vt 0.5329847931861877 0.7327498197555542
vt 0.5310115814208984 0.7255128026008606
vt 0.5329847931861877 0.7232720851898193
vt 0.5320132970809937 0.7326309680938721
vt 0.5329847931861877 0.7327498197555542
vt 0.5359441637992859 0.7341140508651733
vt 0.5394447445869446 0.7210800051689148
vt 0.5303194522857666 0.7280977964401245
vt 0.5310115814208984 0.7255128026008606
vt 0.5300376415252686 0.7253819704055786
vt 0.5320132970809937 0.723137378692627
vt 0.5310115814208984 0.7255128026008606
vt 0.5329847931861877 0.7327498197555542
vt 0.5310115814208984 0.730637788772583
vt 0.5320132970809937 0.723137378692627
vt 0.5329847931861877 0.7232720851898193
vt 0.5310115814208984 0.7255128026008606
vt 0.5320132970809937 0.7326309680938721
vt 0.5300376415252686 0.7305154800415039
vt 0.5329847931861877 0.7327498197555542
vt 0.5394447445869446 0.7345208525657654
vt 0.5310115814208984 0.730637788772583
vt 0.5303194522857666 0.7280977964401245
vt 0.5293446779251099 0.7279713153839111
vt 0.5300376415252686 0.7253819704055786
vt 0.5303194522857666 0.7280977964401245
vt 0.5300376415252686 0.7305154800415039
vt 0.5293446779251099 0.7279713153839111
vt 0.5310115814208984 0.730637788772583
vt 0.5300376415252686 0.7305154800415039
vt 0.5310115814208984 0.730637788772583
vt 0.5329847931861877 0.7327498197555542
vt 0.5300376415252686 0.7253819704055786
vt 0.5310115814208984 0.7255128026008606
vt 0.5303194522857666 0.7280977964401245
vt 0.5293446779251099 0.7279713153839111
vt 0.5303194522857666 0.7280977964401245
vt 0.5310115814208984 0.730637788772583
vn -0.19509294629096985 -0.9807847738265991 -0
vn -0.19509294629096985 -0.9807847738265991 -0
vn -0.19509294629096985 -0.9807847738265991 -0
vn 0.19509294629096985 -0.9807847738265991 -0
vn 0.19509294629096985 -0.9807847738265991 -0
vn 0.19509294629096985 -0.9807847738265991 -0
vn -0.19509217143058777 -0.9807848334312439 -0
vn -0.19509217143058777 -0.9807848334312439 -0
vn -0.19509217143058777 -0.9807848334312439 -0
vn -0.5555657148361206 -0.831472635269165 -0
vn -0.5555657148361206 -0.831472635269165 -0
vn -0.5555657148361206 -0.831472635269165 -0
vn 0.19509217143058777 -0.9807848334312439 -0
vn 0.19509217143058777 -0.9807848334312439 -0
vn 0.19509217143058777 -0.9807848334312439 -0
vn 0.5555673837661743 -0.8314713835716248 -0
vn 0.5555673837661743 -0.8314713835716248 -0
vn 0.5555673837661743 -0.8314713835716248 -0
vn -0.555565595626831 -0.831472635269165 -0
vn -0.555565595626831 -0.831472635269165 -0
vn -0.555565595626831 -0.831472635269165 -0
vn 0.555565595626831 -0.831472635269165 -0
vn 0.555565595626831 -0.831472635269165 -0
vn 0.555565595626831 -0.831472635269165 -0
vn -0.8314679861068726 -0.5555726885795593 -0
vn -0.8314679861068726 -0.5555726885795593 -0
vn -0.8314679861068726 -0.5555726885795593 -0
vn -0.8314713835716248 -0.5555675625801086 -0
vn -0.8314713835716248 -0.5555675625801086 -0
vn -0.8314713835716248 -0.5555675625801086 -0
vn 0.8314731121063232 -0.5555648803710938 -0
vn 0.8314731121063232 -0.5555648803710938 -0
vn 0.8314731121063232 -0.5555648803710938 -0
vn 0 -0 -1
vn 0 -0 -1
vn 0 -0 -1
vn 0 -0 -1
vn 0 -0 -1
vn 0 -0 -1
vn 0.8314713835716248 -0.5555675625801086 -0
vn 0.8314713835716248 -0.5555675625801086 -0
vn 0.8314713835716248 -0.5555675625801086 -0
vn 0 -0 -0.9999999403953552
vn 0 -0 -0.9999999403953552
vn 0 -0 -0.9999999403953552
vn -0.9807844758033752 -0.1950945109128952 -0
vn -0.9807844758033752 -0.1950945109128952 -0
vn -0.9807844758033752 -0.1950945109128952 -0
vn 0 -0 -1
vn -0.9807858467102051 -0.19508729875087738 -0
vn -0.9807858467102051 -0.19508729875087738 -0
vn -0.9807858467102051 -0.19508729875087738 -0
vn 0.9807851910591125 -0.1950909048318863 -0
vn 0.9807851910591125 -0.1950909048318863 -0
vn 0.9807851910591125 -0.1950909048318863 -0
vn 0.00000019268000528427365 -0 -1
vn 0.00000019268000528427365 -0 -1
vn 0.00000019268000528427365 -0 -1
vn 0.9807851910591125 -0.1950909048318863 -0
vn -0.9807854294776917 0.19508959352970123 -0
vn -0.9807854294776917 0.19508959352970123 -0
vn -0.9807854294776917 0.19508959352970123 -0
vn -0.9807840585708618 0.19509679079055786 -0
vn -0.9807840585708618 0.19509679079055786 -0
vn -0.9807840585708618 0.19509679079055786 -0
vn 0 -0 -0.9999999403953552
vn 0 -0 -0.9999999403953552
vn 0 -0 -0.9999999403953552
vn 0.9807847142219543 0.19509318470954895 -0
vn 0.9807847142219543 0.19509318470954895 -0
vn 0.9807847142219543 0.19509318470954895 -0
vn 0 -0 -1
vn 0.9807847142219543 0.19509318470954895 -0
vn -0.00000019268237849701109 -0 -0.9999999403953552
vn -0.00000019268237849701109 -0 -0.9999999403953552
vn -0.00000019268237849701109 -0 -0.9999999403953552
vn -0.831467866897583 0.5555726885795593 -0
vn -0.831467866897583 0.5555726885795593 -0
vn -0.831467866897583 0.5555726885795593 -0
vn -0.8314714431762695 0.5555675029754639 -0
vn -0.8314714431762695 0.5555675029754639 -0
vn -0.8314714431762695 0.5555675029754639 -0
vn 0.8314714431762695 0.5555675029754639 -0
vn 0.8314714431762695 0.5555675029754639 -0
vn 0.8314714431762695 0.5555675029754639 -0
vn 0 -0 -1
vn 0 -0 -1
vn 0 -0 -0.9999999403953552
vn 0 -0 -0.9999999403953552
vn 0.8314731121063232 0.5555649995803833 -0
vn 0.8314731121063232 0.5555649995803833 -0
vn 0.8314731121063232 0.5555649995803833 -0
vn 0.00000014646744261881395 -0 -1
vn 0.00000014646744261881395 -0 -1
vn 0.00000014646744261881395 -0 -1
vn -0.5555657148361206 0.831472635269165 -0
vn -0.5555657148361206 0.831472635269165 -0
vn -0.5555657148361206 0.831472635269165 -0
vn 0 -0 -0.9999999403953552
vn 0 -0 -0.9999999403953552
vn -0.555565595626831 0.831472635269165 -0
vn -0.555565595626831 0.831472635269165 -0
vn -0.555565595626831 0.831472635269165 -0
vn 0.5555657148361206 0.831472635269165 -0
vn 0.5555657148361206 0.831472635269165 -0
vn 0.5555657148361206 0.831472635269165 -0
vn -0.00000014646744261881395 -0 -1
vn -0.00000014646744261881395 -0 -1
vn -0.00000014646744261881395 -0 -1
vn -0.19509220123291016 0.9807848334312439 -0
vn -0.19509220123291016 0.9807848334312439 -0
vn -0.19509220123291016 0.9807848334312439 -0
vn 0.19509220123291016 0.9807848334312439 -0
vn 0.19509220123291016 0.9807848334312439 -0
vn 0.19509220123291016 0.9807848334312439 -0
vn 0.5555673837661743 0.8314715027809143 -0
vn 0.5555673837661743 0.8314715027809143 -0
vn 0.5555673837661743 0.8314715027809143 -0
vn -0.19509291648864746 0.9807847738265991 -0
vn -0.19509291648864746 0.9807847738265991 -0
vn -0.19509291648864746 0.9807847738265991 -0
vn 0.19509291648864746 0.9807847738265991 -0
vn 0.19509291648864746 0.9807847738265991 -0
vn 0.19509291648864746 0.9807847738265991 -0
f 3/3/3 2/2/2 1/1/1
f 6/6/6 5/5/5 4/4/4
f 9/9/9 8/8/8 7/7/7
f 12/12/12 11/11/11 10/10/10
f 15/15/15 14/14/14 13/13/13
f 18/18/18 17/17/17 16/16/16
f 21/21/21 20/20/20 19/19/19
f 24/24/24 23/23/23 22/22/22
f 27/27/27 26/26/26 25/25/25
f 30/30/30 29/29/29 28/28/28
f 33/33/33 32/32/32 31/31/31
f 36/36/36 35/35/35 34/34/34
f 35/35/35 37/37/37 34/34/34
f 39/39/39 36/36/36 38/38/38
f 42/42/42 41/41/41 40/40/40
f 45/45/45 44/44/44 43/43/43
f 48/48/48 47/47/47 46/46/46
f 37/37/37 49/49/49 34/34/34
f 52/52/52 51/51/51 50/50/50
f 55/55/55 54/54/54 53/53/53
f 58/58/58 57/57/57 56/56/56
f 55/55/55 59/59/59 54/54/54
f 62/62/62 61/61/61 60/60/60
f 65/65/65 64/64/64 63/63/63
f 68/68/68 67/67/67 66/66/66
f 71/71/71 70/70/70 69/69/69
f 72/72/72 38/38/38 36/36/36
f 71/71/71 73/73/73 70/70/70
f 76/76/76 75/75/75 74/74/74
f 79/79/79 78/78/78 77/77/77
f 82/82/82 81/81/81 80/80/80
f 85/85/85 84/84/84 83/83/83
f 87/87/87 86/86/86 38/38/38
f 89/89/89 88/88/88 67/67/67
f 92/92/92 91/91/91 90/90/90
f 95/95/95 94/94/94 93/93/93
f 98/98/98 97/97/97 96/96/96
f 100/100/100 99/99/99 43/43/43
f 103/103/103 102/102/102 101/101/101
f 106/106/106 105/105/105 104/104/104
f 109/109/109 108/108/108 107/107/107
f 112/112/112 111/111/111 110/110/110
f 115/115/115 114/114/114 113/113/113
f 118/118/118 117/117/117 116/116/116
f 121/121/121 120/120/120 119/119/119
f 124/124/124 123/123/123 122/122/122
