# VPXTOOL table OBJ file
# VPXTOOL OBJ file
# numVerts: 98 numFaces: 189
o LM_L_LS6_Playfield
v 476.629150390625 -603.9579467773438 -0
v 294.1911315917969 -449.6485595703125 -0
v 294.96563720703125 -452.1269226074219 -0
v 476.629150390625 -436.4507751464844 -0
v 244.93356323242188 -460.49139404296875 23.52941131591797
v 246.9471435546875 -459.56207275390625 23.52941131591797
v 246.9471435546875 -459.56207275390625 -0
v 244.93356323242188 -460.49139404296875 -0
v 244.93356323242188 -460.49139404296875 23.52941131591797
v 246.9471435546875 -459.56207275390625 -0
v 246.9471435546875 -459.56207275390625 23.52941131591797
v 289.85400390625 -448.409423828125 23.52941131591797
v 289.85400390625 -448.409423828125 -0
v 246.9471435546875 -459.56207275390625 -0
v 246.9471435546875 -459.56207275390625 23.52941131591797
v 289.85400390625 -448.409423828125 -0
v 292.10284423828125 -448.40936279296875 23.52941131591797
v 294.1911315917969 -449.6485595703125 23.52941131591797
v 294.1911315917969 -449.6485595703125 -0
v 289.85400390625 -448.409423828125 23.52941131591797
v 292.10284423828125 -448.40936279296875 23.52941131591797
v 292.10284423828125 -448.40936279296875 -0
v 294.1911315917969 -449.6485595703125 -0
v 294.1911315917969 -449.6485595703125 23.52941131591797
v 294.96563720703125 -452.1269226074219 -0
v 292.10284423828125 -448.40936279296875 -0
v 292.10284423828125 -448.40936279296875 23.52941131591797
v 294.1911315917969 -449.6485595703125 -0
v 289.85400390625 -448.409423828125 -0
v 289.85400390625 -448.409423828125 23.52941131591797
v 292.10284423828125 -448.40936279296875 -0
v 244.93356323242188 -460.49139404296875 -0
v 246.9471435546875 -459.56207275390625 -0
v 172.42218017578125 -301.0628662109375 -0
v 385.41015625 -359.296142578125 -0
v 289.85400390625 -448.409423828125 -0
v 193.8756561279297 -295.4865417480469 -0
v 339.8006286621094 -320.71881103515625 -0
v 292.10284423828125 -448.40936279296875 -0
v 312.3058776855469 -222.87521362304688 -0
v 298.9323425292969 -222.2556915283203 -0
v 171.1667022705078 -301.9584655761719 -0
v 171.41539001464844 -301.5274963378906 -0
v 476.629150390625 -268.94366455078125 -0
v 313.1126708984375 -222.42709350585938 -0
v 300.0567321777344 -222.25564575195313 -0
v 311.2617492675781 -222.25564575195313 -0
v 300.0567321777344 -222.25564575195313 -0
v 292.10284423828125 -448.40936279296875 -0
v 311.2617492675781 -222.25564575195313 -0
v 97.39984130859375 -143.42550659179688 -0
v 172.42218017578125 -301.0628662109375 -0
v 97.89727783203125 -142.56365966796875 -0
v 171.41539001464844 -301.5274963378906 -0
v 97.89727783203125 -142.56365966796875 -0
v 385.41015625 -191.78903198242188 -0
v 193.8756561279297 -295.4865417480469 -0
v 298.9323425292969 -222.2556915283203 -0
v 202.95394897460938 -69.332763671875 -0
v 476.629150390625 -101.43656158447266 -0
v 97.897216796875 -141.56861877441406 23.52941131591797
v 97.89727783203125 -142.56365966796875 23.52941131591797
v 97.89727783203125 -142.56365966796875 -0
v 97.89727783203125 -142.56365966796875 -0
v 97.89727783203125 -142.56365966796875 23.52941131591797
v 97.39984130859375 -143.42550659179688 -0
v 97.897216796875 -141.56861877441406 -0
v 308.0106201171875 3.8980720043182373 -0
v 330.420654296875 3.8980720043182373 -0
v 332.0342102050781 4.794433116912842 -0
v 97.897216796875 -141.56861877441406 -0
v 185.9591522216797 -9.02059268951416 -0
v 431.0196533203125 -62.8592414855957 -0
v 202.95394897460938 -69.332763671875 -0
v 185.9591522216797 -9.02059268951416 -0
v 308.0106201171875 3.8980720043182373 -0
v 330.420654296875 3.8980720043182373 23.52941131591797
v 308.0106201171875 3.8980720043182373 23.52941131591797
v 308.0106201171875 3.8980720043182373 -0
v 332.0342102050781 4.794433116912842 23.52941131591797
v 330.420654296875 3.8980720043182373 23.52941131591797
v 330.420654296875 3.8980720043182373 -0
v 332.5719909667969 6.4079270362854 23.52941131591797
v 332.0342102050781 4.794433116912842 23.52941131591797
v 332.0342102050781 4.794433116912842 -0
v 308.0106201171875 3.8980720043182373 -0
v 308.0106201171875 3.8980720043182373 23.52941131591797
v 306.3971252441406 4.525535583496094 -0
v 330.420654296875 3.8980720043182373 -0
v 306.3971252441406 4.525535583496094 -0
v 332.0342102050781 4.794433116912842 -0
v 332.0342102050781 4.794433116912842 23.52941131591797
v 330.420654296875 3.8980720043182373 -0
v 332.5719909667969 6.4079270362854 -0
v 332.5719909667969 6.4079270362854 23.52941131591797
v 332.0342102050781 4.794433116912842 -0
v 476.629150390625 66.07054901123047 -0
v 332.5719909667969 6.4079270362854 -0
vt 0.24399636685848236 0.20880311727523804
vt 0.20124074816703796 0.23906773328781128
vt 0.2014068067073822 0.23857086896896362
vt 0.246835857629776 0.24171948432922363
vt 0.18853618204593658 0.24041223526000977
vt 0.1890413761138916 0.2405974268913269
vt 0.18940390646457672 0.23708248138427734
vt 0.18889565765857697 0.23689669370651245
vt 0.18853618204593658 0.24041223526000977
vt 0.18940390646457672 0.23708248138427734
vt 0.1890413761138916 0.2405974268913269
vt 0.19974857568740845 0.24282366037368774
vt 0.20017530024051666 0.23931628465652466
vt 0.18940390646457672 0.23708248138427734
vt 0.1890413761138916 0.2405974268913269
vt 0.20017530024051666 0.23931628465652466
vt 0.20030458271503448 0.24282366037368774
vt 0.2008078247308731 0.24257594347000122
vt 0.20124074816703796 0.23906773328781128
vt 0.19974857568740845 0.24282366037368774
vt 0.20030458271503448 0.24282366037368774
vt 0.20073461532592773 0.23931628465652466
vt 0.20124074816703796 0.23906773328781128
vt 0.2008078247308731 0.24257594347000122
vt 0.2014068067073822 0.23857086896896362
vt 0.20073461532592773 0.23931628465652466
vt 0.20030458271503448 0.24282366037368774
vt 0.20124074816703796 0.23906773328781128
vt 0.20017530024051666 0.23931628465652466
vt 0.19974857568740845 0.24282366037368774
vt 0.20073461532592773 0.23931628465652466
vt 0.18889565765857697 0.23689669370651245
vt 0.18940390646457672 0.23708248138427734
vt 0.1719134896993637 0.26952487230300903
vt 0.22520509362220764 0.2574288845062256
vt 0.20017530024051666 0.23931628465652466
vt 0.17740747332572937 0.27069419622421265
vt 0.21420376002788544 0.2654185891151428
vt 0.20073461532592773 0.23931628465652466
vt 0.208405539393425 0.28609973192214966
vt 0.2049734741449356 0.2862326502799988
vt 0.17158854007720947 0.2693372964859009
vt 0.1716545671224594 0.2694275379180908
vt 0.24981774389743805 0.2762868404388428
vt 0.20861846208572388 0.28619587421417236
vt 0.2052626609802246 0.2862326502799988
vt 0.20814450085163116 0.2862326502799988
vt 0.2052626609802246 0.2862326502799988
vt 0.20073461532592773 0.23931628465652466
vt 0.20814450085163116 0.2862326502799988
vt 0.15344417095184326 0.30334722995758057
vt 0.1719134896993637 0.26952487230300903
vt 0.1535770148038864 0.303536593914032
vt 0.1716545671224594 0.2694275379180908
vt 0.1535770148038864 0.303536593914032
vt 0.2276730239391327 0.2927986979484558
vt 0.17740747332572937 0.27069419622421265
vt 0.2049734741449356 0.2862326502799988
vt 0.18152426183223724 0.3198128938674927
vt 0.25295302271842957 0.3126324415206909
vt 0.15342232584953308 0.3070276379585266
vt 0.15341849625110626 0.30680984258651733
vt 0.1535770148038864 0.303536593914032
vt 0.1535770148038864 0.303536593914032
vt 0.15341849625110626 0.30680984258651733
vt 0.15344417095184326 0.30334722995758057
vt 0.153580904006958 0.30375534296035767
vt 0.2101103961467743 0.33646124601364136
vt 0.216077521443367 0.33646124601364136
vt 0.2165195494890213 0.33666735887527466
vt 0.153580904006958 0.30375534296035767
vt 0.17751166224479675 0.33349674940109253
vt 0.24167881906032562 0.3212693929672241
vt 0.18152426183223724 0.3198128938674927
vt 0.17751166224479675 0.33349674940109253
vt 0.2101103961467743 0.33646124601364136
vt 0.21552033722400665 0.33960068225860596
vt 0.20959092676639557 0.33960068225860596
vt 0.2101103961467743 0.33646124601364136
vt 0.21595950424671173 0.3398059606552124
vt 0.21552033722400665 0.33960068225860596
vt 0.216077521443367 0.33646124601364136
vt 0.21612389385700226 0.3401755690574646
vt 0.21595950424671173 0.3398059606552124
vt 0.2165195494890213 0.33666735887527466
vt 0.2101103961467743 0.33646124601364136
vt 0.20959092676639557 0.33960068225860596
vt 0.20968876779079437 0.3366055488586426
vt 0.216077521443367 0.33646124601364136
vt 0.20968876779079437 0.3366055488586426
vt 0.2165195494890213 0.33666735887527466
vt 0.21595950424671173 0.3398059606552124
vt 0.216077521443367 0.33646124601364136
vt 0.21668513119220734 0.3370385766029358
vt 0.21612389385700226 0.3401755690574646
vt 0.2165195494890213 0.33666735887527466
vt 0.25625383853912354 0.3508971929550171
vt 0.21668513119220734 0.3370385766029358
vn 0 -0 -1
vn 0 -0 -1
vn 0 -0 -1
vn 0 -0 -1
vn 0.41905251145362854 -0.9079620242118835 -0
vn 0.41905251145362854 -0.9079620242118835 -0
vn 0.41905251145362854 -0.9079620242118835 -0
vn 0.41904667019844055 -0.9079647064208984 -0
vn 0.41904667019844055 -0.9079647064208984 -0
vn 0.41904667019844055 -0.9079647064208984 -0
vn 0.25156790018081665 -0.9678395986557007 -0
vn 0.25156790018081665 -0.9678395986557007 -0
vn 0.25156790018081665 -0.9678395986557007 -0
vn 0.251568078994751 -0.9678395390510559 -0
vn 0.251568078994751 -0.9678395390510559 -0
vn 0.251568078994751 -0.9678395390510559 -0
vn -0.5103154182434082 -0.8599873781204224 -0
vn -0.5103154182434082 -0.8599873781204224 -0
vn -0.5103154182434082 -0.8599873781204224 -0
vn 0.000024552182367187925 -1 -0
vn 0.000024552182367187925 -1 -0
vn 0.000024552182367187925 -1 -0
vn -0.9544727802276611 -0.2982977628707886 -0
vn -0.9544727802276611 -0.2982977628707886 -0
vn -0.9544727802276611 -0.2982977628707886 -0
vn -0.5103276371955872 -0.859980046749115 -0
vn -0.5103276371955872 -0.859980046749115 -0
vn -0.5103276371955872 -0.859980046749115 -0
vn 0.00002455292451486457 -1 -0
vn 0.00002455292451486457 -1 -0
vn 0.00002455292451486457 -1 -0
vn 0 -0 -1
vn 0 -0 -1
vn 0 -0 -1
vn 0 -0 -1
vn 0 -0 -1
vn 0 -0 -1
vn 0 -0 -1
vn 0 -0 -1
vn 0 -0 -1
vn 0 -0 -1
vn 0 -0 -1
vn 0 -0 -1
vn 0 -0 -1
vn 0 -0 -1
vn 0 -0 -1
vn 0 -0 -0.9999999403953552
vn 0 -0 -0.9999999403953552
vn 0 -0 -0.9999999403953552
vn 0 -0 -1
vn 0 -0 -1
vn 0 -0 -0.9999999403953552
vn 0 -0 -0.9999999403953552
vn 0 -0 -0.9999999403953552
vn 0 -0 -1
vn 0 -0 -1
vn 0 -0 -0.9999999403953552
vn 0 -0 -0.9999999403953552
vn 0 -0 -0.9999999403953552
vn 0 -0 -1
vn -1 -0.00005120338755659759 -0
vn -1 -0.00005120338755659759 -0
vn -1 -0.00005120338755659759 -0
vn -0.8660945892333984 0.49988019466400146 -0
vn -0.8660945892333984 0.49988019466400146 -0
vn -0.8660945892333984 0.49988019466400146 -0
vn -1 -0.00005120338755659759 -0
vn 0 -0 -1
vn 0 -0 -1
vn 0 -0 -1
vn 0 -0 -0.9999999403953552
vn 0 -0 -0.9999999403953552
vn 0 -0 -1
vn 0 -0 -1
vn 0 -0 -1
vn 0 -0 -0.9999999403953552
vn 0 1 -0
vn 0 1 -0
vn 0 1 -0
vn -0.4856271743774414 0.8741660714149475 -0
vn -0.4856271743774414 0.8741660714149475 -0
vn -0.4856271743774414 0.8741660714149475 -0
vn -0.9486978650093079 0.3161841332912445 -0
vn -0.9486978650093079 0.3161841332912445 -0
vn -0.9486978650093079 0.3161841332912445 -0
vn 0.362438440322876 0.9320077300071716 -0
vn 0.362438440322876 0.9320077300071716 -0
vn 0.362438440322876 0.9320077300071716 -0
vn 0 1 -0
vn 0 -0 -0.9999999403953552
vn -0.48561152815818787 0.8741747140884399 -0
vn -0.48561152815818787 0.8741747140884399 -0
vn -0.48561152815818787 0.8741747140884399 -0
vn -0.9486858248710632 0.31622007489204407 -0
vn -0.9486858248710632 0.31622007489204407 -0
vn -0.9486858248710632 0.31622007489204407 -0
vn 0 -0 -1
vn 0 -0 -1
f 3/3/3 2/2/2 1/1/1
f 2/2/2 4/4/4 1/1/1
f 7/7/7 6/6/6 5/5/5
f 10/10/10 9/9/9 8/8/8
f 13/13/13 12/12/12 11/11/11
f 16/16/16 15/15/15 14/14/14
f 19/19/19 18/18/18 17/17/17
f 22/22/22 21/21/21 20/20/20
f 25/25/25 24/24/24 23/23/23
f 28/28/28 27/27/27 26/26/26
f 31/31/31 30/30/30 29/29/29
f 34/34/34 33/33/33 32/32/32
f 2/2/2 35/35/35 4/4/4
f 33/33/33 37/37/37 36/36/36
f 2/2/2 38/38/38 35/35/35
f 40/40/40 2/2/2 39/39/39
f 39/39/39 36/36/36 41/41/41
f 43/43/43 32/32/32 42/42/42
f 32/32/32 43/43/43 34/34/34
f 33/33/33 34/34/34 37/37/37
f 35/35/35 44/44/44 4/4/4
f 45/45/45 38/38/38 2/2/2
f 41/41/41 36/36/36 37/37/37
f 38/38/38 44/44/44 35/35/35
f 45/45/45 2/2/2 40/40/40
f 46/46/46 39/39/39 41/41/41
f 49/49/49 48/48/48 47/47/47
f 39/39/39 50/50/50 40/40/40
f 43/43/43 42/42/42 51/51/51
f 54/54/54 53/53/53 52/52/52
f 37/37/37 34/34/34 55/55/55
f 38/38/38 56/56/56 44/44/44
f 45/45/45 56/56/56 38/38/38
f 51/51/51 55/55/55 43/43/43
f 59/59/59 58/58/58 57/57/57
f 56/56/56 60/60/60 44/44/44
f 59/59/59 57/57/57 53/53/53
f 63/63/63 62/62/62 61/61/61
f 66/66/66 65/65/65 64/64/64
f 63/63/63 61/61/61 67/67/67
f 41/41/41 68/68/68 46/46/46
f 68/68/68 50/50/50 46/46/46
f 40/40/40 69/69/69 45/45/45
f 50/50/50 69/69/69 40/40/40
f 70/70/70 56/56/56 45/45/45
f 72/72/72 53/53/53 71/71/71
f 56/56/56 73/73/73 60/60/60
f 68/68/68 41/41/41 74/74/74
f 75/75/75 74/74/74 55/55/55
f 70/70/70 73/73/73 56/56/56
f 68/68/68 69/69/69 50/50/50
f 69/69/69 70/70/70 45/45/45
f 72/72/72 76/76/76 59/59/59
f 79/79/79 78/78/78 77/77/77
f 82/82/82 81/81/81 80/80/80
f 85/85/85 84/84/84 83/83/83
f 88/88/88 87/87/87 86/86/86
f 79/79/79 77/77/77 89/89/89
f 90/90/90 76/76/76 72/72/72
f 93/93/93 92/92/92 91/91/91
f 96/96/96 95/95/95 94/94/94
f 70/70/70 97/97/97 73/73/73
f 70/70/70 98/98/98 97/97/97
