# VPXTOOL table OBJ file
# VPXTOOL OBJ file
# numVerts: 15 numFaces: 15
o LM_L_LB2_DiverterPin
v 686.0126953125 37.17202377319336 -25
v 710.8907470703125 39.67435073852539 -25
v 695.3727416992188 57.69389724731445 -25
v 695.3727416992188 57.69389724731445 -25
v 695.3727416992188 57.69389724731445 25
v 686.0126953125 37.17202377319336 -25
v 710.8907470703125 39.67435073852539 -25
v 710.8907470703125 39.67435073852539 25
v 695.3727416992188 57.69389724731445 -25
v 710.8907470703125 39.67435073852539 25
v 695.3727416992188 57.69389724731445 25
v 695.3727416992188 57.69389724731445 -25
v 695.3727416992188 57.69389724731445 25
v 686.0126953125 37.17202377319336 25
v 686.0126953125 37.17202377319336 -25
vt 0.5182344913482666 0.28098344802856445
vt 0.5288326144218445 0.28140103816986084
vt 0.5224701166152954 0.2844167947769165
vt 0.5224701166152954 0.2844167947769165
vt 0.5213785767555237 0.2924147844314575
vt 0.5182344913482666 0.28098344802856445
vt 0.5288326144218445 0.28140103816986084
vt 0.5276696085929871 0.28941476345062256
vt 0.5224701166152954 0.2844167947769165
vt 0.5276696085929871 0.28941476345062256
vt 0.5213785767555237 0.2924147844314575
vt 0.5224701166152954 0.2844167947769165
vt 0.5213785767555237 0.2924147844314575
vt 0.5171953439712524 0.2889993190765381
vt 0.5182344913482666 0.28098344802856445
vn -0.00000012817588412872283 -0 -1
vn -0.00000012817588412872283 -0 -1
vn -0.00000012817588412872283 -0 -1
vn -0.909834086894989 0.4149724245071411 -0
vn -0.909834086894989 0.4149724245071411 -0
vn -0.909834086894989 0.4149724245071411 -0
vn 0.7577416300773621 0.6525547504425049 -0
vn 0.7577416300773621 0.6525547504425049 -0
vn 0.7577416300773621 0.6525547504425049 -0
vn 0.7577442526817322 0.6525516510009766 -0
vn 0.7577442526817322 0.6525516510009766 -0
vn 0.7577442526817322 0.6525516510009766 -0
vn -0.9098318815231323 0.4149770736694336 -0
vn -0.9098318815231323 0.4149770736694336 -0
vn -0.9098318815231323 0.4149770736694336 -0
f 3/3/3 2/2/2 1/1/1
f 6/6/6 5/5/5 4/4/4
f 9/9/9 8/8/8 7/7/7
f 12/12/12 11/11/11 10/10/10
f 15/15/15 14/14/14 13/13/13
