# VPXTOOL table OBJ file
# VPXTOOL OBJ file
# numVerts: 122 numFaces: 138
o LM_L_LW9_UnderPF
v -9.655649185180664 270.0547180175781 -12.153261184692383
v -20.27361297607422 272.16668701171875 -12.153261184692383
v -9.655649185180664 270.0547180175781 -5.324187755584717
v -20.27361297607422 272.16668701171875 -12.153261184692383
v -30.891605377197266 270.0547180175781 -12.153261184692383
v -20.27361297607422 272.16668701171875 -5.324187755584717
v -20.27361297607422 272.16668701171875 -12.153261184692383
v -20.27361297607422 272.16668701171875 -5.324187755584717
v -9.655649185180664 270.0547180175781 -5.324187755584717
v -0.6541602611541748 264.0400085449219 -12.153261184692383
v -9.655649185180664 270.0547180175781 -12.153261184692383
v -0.6541602611541748 264.0400085449219 -5.324187755584717
v -9.655649185180664 270.0547180175781 -12.153261184692383
v -9.655649185180664 270.0547180175781 -5.324187755584717
v -0.6541602611541748 264.0400085449219 -5.324187755584717
v -30.891605377197266 270.0547180175781 -12.153261184692383
v -30.891605377197266 270.0547180175781 -5.324187755584717
v -20.27361297607422 272.16668701171875 -5.324187755584717
v -0.6541602611541748 264.0400085449219 -5.324187755584717
v -9.655649185180664 270.0547180175781 -5.324187755584717
v -20.27361297607422 272.16668701171875 -5.324187755584717
v -30.891605377197266 270.0547180175781 -12.153261184692383
v -39.89309310913086 264.0400085449219 -12.153261184692383
v -30.891605377197266 270.0547180175781 -5.324187755584717
v -0.6541602611541748 264.0400085449219 -12.153261184692383
v -0.6541602611541748 264.0400085449219 -5.324187755584717
v 5.360414981842041 255.03863525390625 -5.324187755584717
v 5.360414981842041 255.03863525390625 -12.153261184692383
v -0.6541602611541748 264.0400085449219 -12.153261184692383
v 5.360414981842041 255.03863525390625 -5.324187755584717
v -20.27361297607422 272.16668701171875 -5.324187755584717
v -30.891605377197266 270.0547180175781 -5.324187755584717
v -39.89309310913086 264.0400085449219 -5.324187755584717
v -39.89309310913086 264.0400085449219 -12.153261184692383
v -39.89309310913086 264.0400085449219 -5.324187755584717
v -30.891605377197266 270.0547180175781 -5.324187755584717
v -39.89309310913086 264.0400085449219 -12.153261184692383
v -45.90766906738281 255.03863525390625 -12.153261184692383
v -39.89309310913086 264.0400085449219 -5.324187755584717
v 7.47247314453125 244.42056274414063 -5.324187755584717
v 5.360414981842041 255.03863525390625 -5.324187755584717
v -0.6541602611541748 264.0400085449219 -5.324187755584717
v 5.360414981842041 255.03863525390625 -12.153261184692383
v 5.360414981842041 255.03863525390625 -5.324187755584717
v 7.47247314453125 244.42056274414063 -5.324187755584717
v 7.47247314453125 244.42056274414063 -12.153261184692383
v 5.360414981842041 255.03863525390625 -12.153261184692383
v 7.47247314453125 244.42056274414063 -5.324187755584717
v -45.90766906738281 255.03863525390625 -12.153261184692383
v -45.90766906738281 255.03863525390625 -5.324187755584717
v -39.89309310913086 264.0400085449219 -5.324187755584717
v -20.27361297607422 216.674560546875 -5.324187755584717
v -45.90766906738281 255.03863525390625 -12.153261184692383
v -48.01972579956055 244.42056274414063 -12.153261184692383
v -45.90766906738281 255.03863525390625 -5.324187755584717
v -39.89309310913086 264.0400085449219 -5.324187755584717
v -39.89309310913086 264.0400085449219 -5.324187755584717
v -45.90766906738281 255.03863525390625 -5.324187755584717
v -48.01972579956055 244.42056274414063 -5.324187755584717
v 7.47247314453125 244.42056274414063 -12.153261184692383
v 7.47247314453125 244.42056274414063 -5.324187755584717
v 5.360414981842041 233.80259704589844 -5.324187755584717
v 5.360414981842041 233.80259704589844 -12.153261184692383
v 7.47247314453125 244.42056274414063 -12.153261184692383
v 5.360414981842041 233.80259704589844 -5.324187755584717
v 7.47247314453125 244.42056274414063 -5.324187755584717
v -48.01972579956055 244.42056274414063 -12.153261184692383
v -48.01972579956055 244.42056274414063 -5.324187755584717
v -45.90766906738281 255.03863525390625 -5.324187755584717
v -48.01972579956055 244.42056274414063 -12.153261184692383
v -45.90766906738281 233.80259704589844 -12.153261184692383
v -48.01972579956055 244.42056274414063 -5.324187755584717
v -48.01972579956055 244.42056274414063 -5.324187755584717
v 5.360414981842041 233.80259704589844 -12.153261184692383
v 5.360414981842041 233.80259704589844 -5.324187755584717
v -0.6541602611541748 224.80111694335938 -5.324187755584717
v -0.6541602611541748 224.80111694335938 -12.153261184692383
v 5.360414981842041 233.80259704589844 -12.153261184692383
v -0.6541602611541748 224.80111694335938 -5.324187755584717
v 5.360414981842041 233.80259704589844 -5.324187755584717
v -45.90766906738281 233.80259704589844 -12.153261184692383
v -45.90766906738281 233.80259704589844 -5.324187755584717
v -48.01972579956055 244.42056274414063 -5.324187755584717
v -45.90766906738281 233.80259704589844 -12.153261184692383
v -39.89309310913086 224.80111694335938 -12.153261184692383
v -45.90766906738281 233.80259704589844 -5.324187755584717
v -0.6541602611541748 224.80111694335938 -12.153261184692383
v -0.6541602611541748 224.80111694335938 -5.324187755584717
v -9.655649185180664 218.7865447998047 -5.324187755584717
v -9.655649185180664 218.7865447998047 -12.153261184692383
v -20.27361297607422 216.674560546875 -5.324187755584717
v -0.6541602611541748 224.80111694335938 -5.324187755584717
v 5.360414981842041 233.80259704589844 -5.324187755584717
v -45.90766906738281 233.80259704589844 -5.324187755584717
v -39.89309310913086 224.80111694335938 -12.153261184692383
v -39.89309310913086 224.80111694335938 -5.324187755584717
v -45.90766906738281 233.80259704589844 -5.324187755584717
v -39.89309310913086 224.80111694335938 -12.153261184692383
v -30.891605377197266 218.7865447998047 -12.153261184692383
v -39.89309310913086 224.80111694335938 -5.324187755584717
v -20.27361297607422 216.674560546875 -12.153261184692383
v -9.655649185180664 218.7865447998047 -12.153261184692383
v -20.27361297607422 216.674560546875 -5.324187755584717
v -20.27361297607422 216.674560546875 -5.324187755584717
v -9.655649185180664 218.7865447998047 -5.324187755584717
v -0.6541602611541748 224.80111694335938 -5.324187755584717
v -9.655649185180664 218.7865447998047 -12.153261184692383
v -9.655649185180664 218.7865447998047 -5.324187755584717
v -20.27361297607422 216.674560546875 -5.324187755584717
v -20.27361297607422 216.674560546875 -5.324187755584717
v -45.90766906738281 233.80259704589844 -5.324187755584717
v -39.89309310913086 224.80111694335938 -5.324187755584717
v -30.891605377197266 218.7865447998047 -12.153261184692383
v -20.27361297607422 216.674560546875 -12.153261184692383
v -30.891605377197266 218.7865447998047 -5.324187755584717
v -30.891605377197266 218.7865447998047 -5.324187755584717
v -20.27361297607422 216.674560546875 -12.153261184692383
v -20.27361297607422 216.674560546875 -5.324187755584717
v -30.891605377197266 218.7865447998047 -5.324187755584717
v -39.89309310913086 224.80111694335938 -5.324187755584717
v -30.891605377197266 218.7865447998047 -5.324187755584717
v -20.27361297607422 216.674560546875 -5.324187755584717
vt 0.058792226016521454 0.043706655502319336
vt 0.0595015212893486 0.04662156105041504
vt 0.05997304245829582 0.04369109869003296
vt 0.0595015212893486 0.04662156105041504
vt 0.058792226016521454 0.04952895641326904
vt 0.060681384056806564 0.046600520610809326
vt 0.0595015212893486 0.04662156105041504
vt 0.060681384056806564 0.046600520610809326
vt 0.05997304245829582 0.04369109869003296
vt 0.05677499994635582 0.041233181953430176
vt 0.058792226016521454 0.043706655502319336
vt 0.057958513498306274 0.041222333908081055
vt 0.058792226016521454 0.043706655502319336
vt 0.05997304245829582 0.04369109869003296
vt 0.057958513498306274 0.041222333908081055
vt 0.058792226016521454 0.04952895641326904
vt 0.05997304245829582 0.04950237274169922
vt 0.060681384056806564 0.046600520610809326
vt 0.057958513498306274 0.041222333908081055
vt 0.05997304245829582 0.04369109869003296
vt 0.060681384056806564 0.046600520610809326
vt 0.058792226016521454 0.04952895641326904
vt 0.05677499994635582 0.05198097229003906
vt 0.05997304245829582 0.04950237274169922
vt 0.05677499994635582 0.041233181953430176
vt 0.057958513498306274 0.041222333908081055
vt 0.054950784891843796 0.039572179317474365
vt 0.053763289004564285 0.03957986831665039
vt 0.05677499994635582 0.041233181953430176
vt 0.054950784891843796 0.039572179317474365
vt 0.060681384056806564 0.046600520610809326
vt 0.05997304245829582 0.04950237274169922
vt 0.057958513498306274 0.05194979906082153
vt 0.05677499994635582 0.05198097229003906
vt 0.057958513498306274 0.05194979906082153
vt 0.05997304245829582 0.04950237274169922
vt 0.05677499994635582 0.05198097229003906
vt 0.053763289004564285 0.05360227823257446
vt 0.057958513498306274 0.05194979906082153
vt 0.05141405016183853 0.03898972272872925
vt 0.054950784891843796 0.039572179317474365
vt 0.057958513498306274 0.041222333908081055
vt 0.053763289004564285 0.03957986831665039
vt 0.054950784891843796 0.039572179317474365
vt 0.05141405016183853 0.03898972272872925
vt 0.050221871584653854 0.03899627923965454
vt 0.053763289004564285 0.03957986831665039
vt 0.05141405016183853 0.03898972272872925
vt 0.053763289004564285 0.05360227823257446
vt 0.054950784891843796 0.05356806516647339
vt 0.057958513498306274 0.05194979906082153
vt 0.04222851246595383 0.04650270938873291
vt 0.053763289004564285 0.05360227823257446
vt 0.050221871584653854 0.05414825677871704
vt 0.054950784891843796 0.05356806516647339
vt 0.057958513498306274 0.05194979906082153
vt 0.057958513498306274 0.05194979906082153
vt 0.054950784891843796 0.05356806516647339
vt 0.05141405016183853 0.054113030433654785
vt 0.050221871584653854 0.03899627923965454
vt 0.05141405016183853 0.03898972272872925
vt 0.047889307141304016 0.039558470249176025
vt 0.04669249430298805 0.039566099643707275
vt 0.050221871584653854 0.03899627923965454
vt 0.047889307141304016 0.039558470249176025
vt 0.05141405016183853 0.03898972272872925
vt 0.050221871584653854 0.05414825677871704
vt 0.05141405016183853 0.054113030433654785
vt 0.054950784891843796 0.05356806516647339
vt 0.050221871584653854 0.05414825677871704
vt 0.04669249430298805 0.053540945053100586
vt 0.05141405016183853 0.054113030433654785
vt 0.05141405016183853 0.054113030433654785
vt 0.04669249430298805 0.039566099643707275
vt 0.047889307141304016 0.039558470249176025
vt 0.0449104979634285 0.041186749935150146
vt 0.04370977729558945 0.04119741916656494
vt 0.04669249430298805 0.039566099643707275
vt 0.0449104979634285 0.041186749935150146
vt 0.047889307141304016 0.039558470249176025
vt 0.04669249430298805 0.053540945053100586
vt 0.047889307141304016 0.05350697040557861
vt 0.05141405016183853 0.054113030433654785
vt 0.04669249430298805 0.053540945053100586
vt 0.04370977729558945 0.05187791585922241
vt 0.047889307141304016 0.05350697040557861
vt 0.04370977729558945 0.04119741916656494
vt 0.0449104979634285 0.041186749935150146
vt 0.04292485862970352 0.04362452030181885
vt 0.04172157123684883 0.04363977909088135
vt 0.04222851246595383 0.04650270938873291
vt 0.0449104979634285 0.041186749935150146
vt 0.047889307141304016 0.039558470249176025
vt 0.047889307141304016 0.05350697040557861
vt 0.04370977729558945 0.05187791585922241
vt 0.0449104979634285 0.05184715986251831
vt 0.047889307141304016 0.05350697040557861
vt 0.04370977729558945 0.05187791585922241
vt 0.04172157123684883 0.04941445589065552
vt 0.0449104979634285 0.05184715986251831
vt 0.04102429002523422 0.046523451805114746
vt 0.04172157123684883 0.04363977909088135
vt 0.04222851246595383 0.04650270938873291
vt 0.04222851246595383 0.04650270938873291
vt 0.04292485862970352 0.04362452030181885
vt 0.0449104979634285 0.041186749935150146
vt 0.04172157123684883 0.04363977909088135
vt 0.04292485862970352 0.04362452030181885
vt 0.04222851246595383 0.04650270938873291
vt 0.04222851246595383 0.04650270938873291
vt 0.047889307141304016 0.05350697040557861
vt 0.0449104979634285 0.05184715986251831
vt 0.04172157123684883 0.04941445589065552
vt 0.04102429002523422 0.046523451805114746
vt 0.04292485862970352 0.049388349056243896
vt 0.04292485862970352 0.049388349056243896
vt 0.04102429002523422 0.046523451805114746
vt 0.04222851246595383 0.04650270938873291
vt 0.04292485862970352 0.049388349056243896
vt 0.0449104979634285 0.05184715986251831
vt 0.04292485862970352 0.049388349056243896
vt 0.04222851246595383 0.04650270938873291
vn -0.19508418440818787 -0.9807865023612976 -0
vn -0.19508418440818787 -0.9807865023612976 -0
vn -0.19508418440818787 -0.9807865023612976 -0
vn 0.19508367776870728 -0.9807866215705872 -0
vn 0.19508367776870728 -0.9807866215705872 -0
vn 0.19508367776870728 -0.9807866215705872 -0
vn -0.19508424401283264 -0.9807865023612976 -0
vn -0.19508424401283264 -0.9807865023612976 -0
vn -0.19508424401283264 -0.9807865023612976 -0
vn -0.5555756688117981 -0.8314660787582397 -0
vn -0.5555756688117981 -0.8314660787582397 -0
vn -0.5555756688117981 -0.8314660787582397 -0
vn -0.5555755496025085 -0.8314661383628845 -0
vn -0.5555755496025085 -0.8314661383628845 -0
vn -0.5555755496025085 -0.8314661383628845 -0
vn 0.1950838267803192 -0.9807866215705872 -0
vn 0.1950838267803192 -0.9807866215705872 -0
vn 0.1950838267803192 -0.9807866215705872 -0
vn 0 -0 -1
vn 0 -0 -1
vn 0 -0 -1
vn 0.5555756688117981 -0.8314660787582397 -0
vn 0.5555756688117981 -0.8314660787582397 -0
vn 0.5555756688117981 -0.8314660787582397 -0
vn -0.8314676284790039 -0.5555732250213623 -0
vn -0.8314676284790039 -0.5555732250213623 -0
vn -0.8314676284790039 -0.5555732250213623 -0
vn -0.8314675688743591 -0.5555732250213623 -0
vn -0.8314675688743591 -0.5555732250213623 -0
vn -0.8314675688743591 -0.5555732250213623 -0
vn -0.000000034801413306695395 -0 -0.9999999403953552
vn -0.000000034801413306695395 -0 -0.9999999403953552
vn -0.000000034801413306695395 -0 -0.9999999403953552
vn 0.5555755496025085 -0.8314661383628845 -0
vn 0.5555755496025085 -0.8314661383628845 -0
vn 0.5555755496025085 -0.8314661383628845 -0
vn 0.8314675688743591 -0.5555732250213623 -0
vn 0.8314675688743591 -0.5555732250213623 -0
vn 0.8314675688743591 -0.5555732250213623 -0
vn 0.00000027841690553032095 -0 -1
vn 0.00000027841690553032095 -0 -1
vn 0.00000027841690553032095 -0 -1
vn -0.9807853698730469 -0.19508963823318481 -0
vn -0.9807853698730469 -0.19508963823318481 -0
vn -0.9807853698730469 -0.19508963823318481 -0
vn -0.9807853698730469 -0.19508951902389526 -0
vn -0.9807853698730469 -0.19508951902389526 -0
vn -0.9807853698730469 -0.19508951902389526 -0
vn 0.8314676284790039 -0.5555732250213623 -0
vn 0.8314676284790039 -0.5555732250213623 -0
vn 0.8314676284790039 -0.5555732250213623 -0
vn 0 -0 -1
vn 0.9807853698730469 -0.1950894296169281 -0
vn 0.9807853698730469 -0.1950894296169281 -0
vn 0.9807853698730469 -0.1950894296169281 -0
vn 0 -0 -1
vn -0.0000001392087654039642 -0 -1
vn -0.0000001392087654039642 -0 -1
vn -0.0000001392087654039642 -0 -1
vn -0.980785071849823 0.19509150087833405 -0
vn -0.980785071849823 0.19509150087833405 -0
vn -0.980785071849823 0.19509150087833405 -0
vn -0.980785071849823 0.1950916200876236 -0
vn -0.980785071849823 0.1950916200876236 -0
vn -0.980785071849823 0.1950916200876236 -0
vn 0 -0 -1
vn 0.9807853102684021 -0.1950901299715042 -0
vn 0.9807853102684021 -0.1950901299715042 -0
vn 0.9807853102684021 -0.1950901299715042 -0
vn 0.9807848930358887 0.1950920969247818 -0
vn 0.9807848930358887 0.1950920969247818 -0
vn 0.9807848930358887 0.1950920969247818 -0
vn 0 -0 -1
vn -0.8314707279205322 0.555568516254425 -0
vn -0.8314707279205322 0.555568516254425 -0
vn -0.8314707279205322 0.555568516254425 -0
vn -0.8314708471298218 0.5555684566497803 -0
vn -0.8314708471298218 0.5555684566497803 -0
vn -0.8314708471298218 0.5555684566497803 -0
vn 0 -0 -1
vn 0.980785071849823 0.19509142637252808 -0
vn 0.980785071849823 0.19509142637252808 -0
vn 0.980785071849823 0.19509142637252808 -0
vn 0.8314708471298218 0.5555684566497803 -0
vn 0.8314708471298218 0.5555684566497803 -0
vn 0.8314708471298218 0.5555684566497803 -0
vn -0.555568516254425 0.8314707279205322 -0
vn -0.555568516254425 0.8314707279205322 -0
vn -0.555568516254425 0.8314707279205322 -0
vn -0.555568516254425 0.8314707279205322 -0
vn 0.00000004888403637437477 -0 -1
vn 0.00000004888403637437477 -0 -1
vn 0.00000004888403637437477 -0 -1
vn 0 -0 -1
vn 0.8314707279205322 0.555568516254425 -0
vn 0.8314707279205322 0.555568516254425 -0
vn 0.8314707279205322 0.555568516254425 -0
vn 0.555568516254425 0.8314708471298218 -0
vn 0.555568516254425 0.8314708471298218 -0
vn 0.555568516254425 0.8314708471298218 -0
vn -0.19508421421051025 0.9807865023612976 -0
vn -0.19508421421051025 0.9807865023612976 -0
vn -0.19508421421051025 0.9807865023612976 -0
vn -0.00000010440610509476755 -0 -1
vn -0.00000010440610509476755 -0 -1
vn -0.00000010440610509476755 -0 -1
vn -0.19508419930934906 0.9807865023612976 -0
vn -0.19508419930934906 0.9807865023612976 -0
vn -0.19508419930934906 0.9807865023612976 -0
vn -0.00000009776746168199679 -0 -1
vn -0.00000009776746168199679 -0 -1
vn -0.00000009776746168199679 -0 -1
vn 0.19508381187915802 0.9807866215705872 -0
vn 0.19508381187915802 0.9807866215705872 -0
vn 0.19508381187915802 0.9807866215705872 -0
vn 0.555568516254425 0.8314708471298218 -0
vn 0.19508369266986847 0.9807866215705872 -0
vn 0.19508369266986847 0.9807866215705872 -0
vn 0.19508369266986847 0.9807866215705872 -0
vn 0.00000013920814012635674 -0 -1
vn 0.00000013920814012635674 -0 -1
vn 0.00000013920814012635674 -0 -1
f 3/3/3 2/2/2 1/1/1
f 6/6/6 5/5/5 4/4/4
f 9/9/9 8/8/8 7/7/7
f 12/12/12 11/11/11 10/10/10
f 15/15/15 14/14/14 13/13/13
f 18/18/18 17/17/17 16/16/16
f 21/21/21 20/20/20 19/19/19
f 24/24/24 23/23/23 22/22/22
f 27/27/27 26/26/26 25/25/25
f 30/30/30 29/29/29 28/28/28
f 33/33/33 32/32/32 31/31/31
f 36/36/36 35/35/35 34/34/34
f 39/39/39 38/38/38 37/37/37
f 42/42/42 41/41/41 40/40/40
f 45/45/45 44/44/44 43/43/43
f 48/48/48 47/47/47 46/46/46
f 51/51/51 50/50/50 49/49/49
f 21/21/21 19/19/19 52/52/52
f 55/55/55 54/54/54 53/53/53
f 56/56/56 21/21/21 52/52/52
f 59/59/59 58/58/58 57/57/57
f 62/62/62 61/61/61 60/60/60
f 65/65/65 64/64/64 63/63/63
f 19/19/19 66/66/66 52/52/52
f 69/69/69 68/68/68 67/67/67
f 72/72/72 71/71/71 70/70/70
f 73/73/73 56/56/56 52/52/52
f 76/76/76 75/75/75 74/74/74
f 79/79/79 78/78/78 77/77/77
f 66/66/66 80/80/80 52/52/52
f 83/83/83 82/82/82 81/81/81
f 86/86/86 85/85/85 84/84/84
f 89/89/89 88/88/88 87/87/87
f 89/89/89 87/87/87 90/90/90
f 93/93/93 92/92/92 91/91/91
f 94/94/94 73/73/73 52/52/52
f 97/97/97 96/96/96 95/95/95
f 100/100/100 99/99/99 98/98/98
f 103/103/103 102/102/102 101/101/101
f 106/106/106 105/105/105 104/104/104
f 109/109/109 108/108/108 107/107/107
f 112/112/112 111/111/111 110/110/110
f 115/115/115 114/114/114 113/113/113
f 100/100/100 116/116/116 99/99/99
f 119/119/119 118/118/118 117/117/117
f 122/122/122 121/121/121 120/120/120
