# VPXTOOL table OBJ file
# VPXTOOL OBJ file
# numVerts: 119 numFaces: 129
o LM_L_LSR_UnderPF
v 373.36309814453125 736.6284790039063 -8.554044723510742
v 373.36309814453125 736.6284790039063 -12.245688438415527
v 352.2796325683594 736.6284790039063 -12.245688438415527
v 375.9750061035156 735.32958984375 -8.554044723510742
v 375.9750061035156 735.32958984375 -12.245689392089844
v 373.36309814453125 736.6284790039063 -12.245688438415527
v 373.36309814453125 736.6284790039063 -8.554044723510742
v 375.9750061035156 735.32958984375 -8.554044723510742
v 373.36309814453125 736.6284790039063 -12.245688438415527
v 352.2796325683594 736.6284790039063 -12.245688438415527
v 349.6676940917969 735.32958984375 -12.245689392089844
v 349.6676940917969 735.32958984375 -8.554044723510742
v 352.2796325683594 736.6284790039063 -8.554044723510742
v 377.7195129394531 732.7465209960938 -8.554046630859375
v 377.7195129394531 732.7465209960938 -12.24569034576416
v 375.9750061035156 735.32958984375 -12.245689392089844
v 352.2796325683594 736.6284790039063 -8.554044723510742
v 352.2796325683594 736.6284790039063 -12.245688438415527
v 349.6676940917969 735.32958984375 -8.554044723510742
v 375.9750061035156 735.32958984375 -8.554044723510742
v 377.7195129394531 732.7465209960938 -8.554046630859375
v 375.9750061035156 735.32958984375 -12.245689392089844
v 349.6676940917969 735.32958984375 -12.245689392089844
v 347.92315673828125 732.7465209960938 -12.24569034576416
v 347.92315673828125 732.7465209960938 -8.554046630859375
v 377.7195129394531 732.7465209960938 -8.554046630859375
v 375.9750061035156 735.32958984375 -8.554044723510742
v 373.36309814453125 736.6284790039063 -8.554044723510742
v 349.6676940917969 735.32958984375 -8.554044723510742
v 349.6676940917969 735.32958984375 -12.245689392089844
v 347.92315673828125 732.7465209960938 -8.554046630859375
v 378.1238708496094 729.54150390625 -8.554046630859375
v 378.1238708496094 729.54150390625 -12.24569034576416
v 377.7195129394531 732.7465209960938 -12.24569034576416
v 377.7195129394531 732.7465209960938 -8.554046630859375
v 347.92315673828125 732.7465209960938 -8.554046630859375
v 347.92315673828125 732.7465209960938 -12.24569034576416
v 347.5188293457031 729.54150390625 -12.24569034576416
v 352.2796325683594 736.6284790039063 -8.554044723510742
v 349.6676940917969 735.32958984375 -8.554044723510742
v 347.92315673828125 732.7465209960938 -8.554046630859375
v 347.5188293457031 729.54150390625 -8.554046630859375
v 373.36309814453125 736.6284790039063 -8.554044723510742
v 352.2796325683594 736.6284790039063 -8.554044723510742
v 373.36309814453125 736.6284790039063 -8.554044723510742
v 378.1238708496094 729.54150390625 -8.554046630859375
v 377.7195129394531 732.7465209960938 -8.554046630859375
v 352.2796325683594 736.6284790039063 -8.554044723510742
v 347.92315673828125 732.7465209960938 -8.554046630859375
v 347.5188293457031 729.54150390625 -8.554046630859375
v 378.1238708496094 729.54150390625 -8.554046630859375
v 373.36309814453125 736.6284790039063 -8.554044723510742
v 347.5188293457031 729.54150390625 -8.554046630859375
v 347.5188293457031 729.54150390625 -8.554046630859375
v 378.1238708496094 729.54150390625 -8.554046630859375
v 368.1335144042969 670.5255737304688 -8.554043769836426
v 378.1238708496094 729.54150390625 -12.24569034576416
v 347.5188293457031 729.54150390625 -8.554046630859375
v 347.5188293457031 729.54150390625 -12.24569034576416
v 357.5091552734375 670.5255737304688 -8.554043769836426
v 378.1238708496094 729.54150390625 -8.554046630859375
v 347.5188293457031 729.54150390625 -8.554046630859375
v 357.5091552734375 670.5255737304688 -8.554043769836426
v 368.1335144042969 670.5255737304688 -8.554043769836426
v 368.1335144042969 670.5255737304688 -12.245688438415527
v 378.1238708496094 729.54150390625 -12.24569034576416
v 347.5188293457031 729.54150390625 -12.24569034576416
v 357.5091552734375 670.5255737304688 -12.245688438415527
v 357.5091552734375 670.5255737304688 -8.554043769836426
v 357.5091552734375 670.5255737304688 -8.554043769836426
v 368.1335144042969 670.5255737304688 -8.554043769836426
v 378.1238708496094 729.54150390625 -8.554046630859375
v 366.9825744628906 668.169677734375 -12.245687484741211
v 368.1335144042969 670.5255737304688 -12.245688438415527
v 368.1335144042969 670.5255737304688 -8.554043769836426
v 357.5091552734375 670.5255737304688 -8.554043769836426
v 357.5091552734375 670.5255737304688 -12.245688438415527
v 358.6601257324219 668.169677734375 -12.245687484741211
v 365.1320495605469 666.453125 -12.245686531066895
v 366.9825744628906 668.169677734375 -12.245687484741211
v 366.9825744628906 668.169677734375 -8.55404281616211
v 366.9825744628906 668.169677734375 -8.55404281616211
v 366.9825744628906 668.169677734375 -12.245687484741211
v 368.1335144042969 670.5255737304688 -8.554043769836426
v 358.6601257324219 668.169677734375 -8.55404281616211
v 358.6601257324219 668.169677734375 -12.245687484741211
v 360.5106506347656 666.453125 -12.245686531066895
v 358.6601257324219 668.169677734375 -8.55404281616211
v 357.5091552734375 670.5255737304688 -8.554043769836426
v 358.6601257324219 668.169677734375 -12.245687484741211
v 357.5091552734375 670.5255737304688 -8.554043769836426
v 366.9825744628906 668.169677734375 -8.55404281616211
v 368.1335144042969 670.5255737304688 -8.554043769836426
v 362.82135009765625 665.8699340820313 -12.245686531066895
v 365.1320495605469 666.453125 -12.245686531066895
v 365.1320495605469 666.453125 -8.55404281616211
v 360.5106506347656 666.453125 -8.55404281616211
v 360.5106506347656 666.453125 -12.245686531066895
v 362.82135009765625 665.8699340820313 -12.245686531066895
v 365.1320495605469 666.453125 -8.55404281616211
v 365.1320495605469 666.453125 -12.245686531066895
v 366.9825744628906 668.169677734375 -8.55404281616211
v 358.6601257324219 668.169677734375 -8.55404281616211
v 366.9825744628906 668.169677734375 -8.55404281616211
v 357.5091552734375 670.5255737304688 -8.554043769836426
v 360.5106506347656 666.453125 -8.55404281616211
v 358.6601257324219 668.169677734375 -8.55404281616211
v 360.5106506347656 666.453125 -12.245686531066895
v 362.82135009765625 665.8699340820313 -8.55404281616211
v 362.82135009765625 665.8699340820313 -12.245686531066895
v 365.1320495605469 666.453125 -8.55404281616211
v 362.82135009765625 665.8699340820313 -8.55404281616211
v 360.5106506347656 666.453125 -8.55404281616211
v 362.82135009765625 665.8699340820313 -12.245686531066895
v 358.6601257324219 668.169677734375 -8.55404281616211
v 365.1320495605469 666.453125 -8.55404281616211
v 366.9825744628906 668.169677734375 -8.55404281616211
v 360.5106506347656 666.453125 -8.55404281616211
v 362.82135009765625 665.8699340820313 -8.55404281616211
vt 0.23412275314331055 0.38521885871887207
vt 0.23429368436336517 0.3848536014556885
vt 0.2250993549823761 0.3848536014556885
vt 0.2352256029844284 0.38484901189804077
vt 0.23539769649505615 0.3844834566116333
vt 0.23429368436336517 0.3848536014556885
vt 0.23412275314331055 0.38521885871887207
vt 0.2352256029844284 0.38484901189804077
vt 0.23429368436336517 0.3848536014556885
vt 0.2250993549823761 0.3848536014556885
vt 0.22392791509628296 0.3844834566116333
vt 0.22376856207847595 0.38484901189804077
vt 0.22493863105773926 0.38521885871887207
vt 0.23591557145118713 0.38411402702331543
vt 0.23608838021755219 0.38374775648117065
vt 0.23539769649505615 0.3844834566116333
vt 0.22493863105773926 0.38521885871887207
vt 0.2250993549823761 0.3848536014556885
vt 0.22376856207847595 0.38484901189804077
vt 0.2352256029844284 0.38484901189804077
vt 0.23591557145118713 0.38411402702331543
vt 0.23539769649505615 0.3844834566116333
vt 0.22392791509628296 0.3844834566116333
vt 0.22310324013233185 0.38374775648117065
vt 0.22294484078884125 0.38411402702331543
vt 0.23591557145118713 0.38411402702331543
vt 0.2352256029844284 0.38484901189804077
vt 0.23412275314331055 0.38521885871887207
vt 0.22376856207847595 0.38484901189804077
vt 0.22392791509628296 0.3844834566116333
vt 0.22294484078884125 0.38411402702331543
vt 0.2360050231218338 0.3832029104232788
vt 0.23617783188819885 0.38283586502075195
vt 0.23608838021755219 0.38374775648117065
vt 0.23591557145118713 0.38411402702331543
vt 0.22294484078884125 0.38411402702331543
vt 0.22310324013233185 0.38374775648117065
vt 0.22284770011901855 0.38283586502075195
vt 0.22493863105773926 0.38521885871887207
vt 0.22376856207847595 0.38484901189804077
vt 0.22294484078884125 0.38411402702331543
vt 0.2226896584033966 0.3832029104232788
vt 0.23412275314331055 0.38521885871887207
vt 0.22493863105773926 0.38521885871887207
vt 0.23412275314331055 0.38521885871887207
vt 0.2360050231218338 0.3832029104232788
vt 0.23591557145118713 0.38411402702331543
vt 0.22493863105773926 0.38521885871887207
vt 0.22294484078884125 0.38411402702331543
vt 0.2226896584033966 0.3832029104232788
vt 0.2360050231218338 0.3832029104232788
vt 0.23412275314331055 0.38521885871887207
vt 0.2226896584033966 0.3832029104232788
vt 0.2226896584033966 0.3832029104232788
vt 0.2360050231218338 0.3832029104232788
vt 0.23012560606002808 0.36660516262054443
vt 0.23617783188819885 0.38283586502075195
vt 0.2226896584033966 0.3832029104232788
vt 0.22284770011901855 0.38283586502075195
vt 0.22555004060268402 0.36660516262054443
vt 0.2360050231218338 0.3832029104232788
vt 0.2226896584033966 0.3832029104232788
vt 0.22555004060268402 0.36660516262054443
vt 0.23012560606002808 0.36660516262054443
vt 0.23029015958309174 0.3662235736846924
vt 0.23617783188819885 0.38283586502075195
vt 0.22284770011901855 0.38283586502075195
vt 0.22570960223674774 0.3662235736846924
vt 0.22555004060268402 0.36660516262054443
vt 0.22555004060268402 0.36660516262054443
vt 0.23012560606002808 0.36660516262054443
vt 0.2360050231218338 0.3832029104232788
vt 0.2297334522008896 0.3655673861503601
vt 0.23029015958309174 0.3662235736846924
vt 0.23012560606002808 0.36660516262054443
vt 0.22555004060268402 0.36660516262054443
vt 0.22570960223674774 0.3662235736846924
vt 0.22614680230617523 0.3655673861503601
vt 0.22889214754104614 0.36508965492248535
vt 0.2297334522008896 0.3655673861503601
vt 0.22956955432891846 0.36594951152801514
vt 0.22956955432891846 0.36594951152801514
vt 0.2297334522008896 0.3655673861503601
vt 0.23012560606002808 0.36660516262054443
vt 0.2259868085384369 0.36594951152801514
vt 0.22614680230617523 0.3655673861503601
vt 0.2269010692834854 0.36508965492248535
vt 0.2259868085384369 0.36594951152801514
vt 0.22555004060268402 0.36660516262054443
vt 0.22614680230617523 0.3655673861503601
vt 0.22555004060268402 0.36660516262054443
vt 0.22956955432891846 0.36594951152801514
vt 0.23012560606002808 0.36660516262054443
vt 0.22788183391094208 0.36492741107940674
vt 0.22889214754104614 0.36508965492248535
vt 0.22872920334339142 0.3654721975326538
vt 0.22674031555652618 0.3654721975326538
vt 0.2269010692834854 0.36508965492248535
vt 0.22788183391094208 0.36492741107940674
vt 0.22872920334339142 0.3654721975326538
vt 0.22889214754104614 0.36508965492248535
vt 0.22956955432891846 0.36594951152801514
vt 0.2259868085384369 0.36594951152801514
vt 0.22956955432891846 0.36594951152801514
vt 0.22555004060268402 0.36660516262054443
vt 0.22674031555652618 0.3654721975326538
vt 0.2259868085384369 0.36594951152801514
vt 0.2269010692834854 0.36508965492248535
vt 0.22772002220153809 0.3653101325035095
vt 0.22788183391094208 0.36492741107940674
vt 0.22872920334339142 0.3654721975326538
vt 0.22772002220153809 0.3653101325035095
vt 0.22674031555652618 0.3654721975326538
vt 0.22788183391094208 0.36492741107940674
vt 0.2259868085384369 0.36594951152801514
vt 0.22872920334339142 0.3654721975326538
vt 0.22956955432891846 0.36594951152801514
vt 0.22674031555652618 0.3654721975326538
vt 0.22772002220153809 0.3653101325035095
vn 0 -0.9999999403953552 -0
vn 0 -0.9999999403953552 -0
vn 0 -0.9999999403953552 -0
vn -0.44527575373649597 -0.8953934907913208 -0
vn -0.44527575373649597 -0.8953934907913208 -0
vn -0.44527575373649597 -0.8953934907913208 -0
vn -0.44527584314346313 -0.895393431186676 -0
vn -0.44527584314346313 -0.895393431186676 -0
vn -0.44527584314346313 -0.895393431186676 -0
vn 0.4452681243419647 -0.8953972458839417 -0
vn 0.4452681243419647 -0.8953972458839417 -0
vn 0.4452681243419647 -0.8953972458839417 -0
vn 0 -0.9999999403953552 -0
vn -0.8287078738212585 -0.5596814155578613 -0
vn -0.8287078738212585 -0.5596814155578613 -0
vn -0.8287078738212585 -0.5596814155578613 -0
vn 0.44526106119155884 -0.8954007625579834 -0
vn 0.44526106119155884 -0.8954007625579834 -0
vn 0.44526106119155884 -0.8954007625579834 -0
vn -0.8287038207054138 -0.5596873760223389 -0
vn -0.8287038207054138 -0.5596873760223389 -0
vn -0.8287038207054138 -0.5596873760223389 -0
vn 0.8287076950073242 -0.5596815347671509 -0
vn 0.8287076950073242 -0.5596815347671509 -0
vn 0.8287076950073242 -0.5596815347671509 -0
vn 0.0000006966737942093459 0.0000010057207191493944 -1
vn 0.0000006966737942093459 0.0000010057207191493944 -1
vn 0.0000006966737942093459 0.0000010057207191493944 -1
vn 0.8287079930305481 -0.5596813559532166 -0
vn 0.8287079930305481 -0.5596813559532166 -0
vn 0.8287079930305481 -0.5596813559532166 -0
vn -0.9921355247497559 -0.12516851723194122 -0
vn -0.9921355247497559 -0.12516851723194122 -0
vn -0.9921355247497559 -0.12516851723194122 -0
vn -0.9921355247497559 -0.12516851723194122 -0
vn 0.9921355247497559 -0.12516851723194122 -0
vn 0.9921355247497559 -0.12516851723194122 -0
vn 0.9921355247497559 -0.12516851723194122 -0
vn -0.0000010451038860992412 0.0000010058316775030107 -1
vn -0.0000010451038860992412 0.0000010058316775030107 -1
vn -0.0000010451038860992412 0.0000010058316775030107 -1
vn 0 0.0000002434704526876885 -1
vn 0 0.0000002434704526876885 -1
vn 0 0.0000002434704526876885 -1
vn -0.0000010076744274556404 -0.000000056298826933698365 -1
vn -0.0000010076744274556404 -0.000000056298826933698365 -1
vn -0.0000010076744274556404 -0.000000056298826933698365 -1
vn 0.000000503820956510026 -0.0000000562970114970085 -0.9999999403953552
vn 0.000000503820956510026 -0.0000000562970114970085 -0.9999999403953552
vn 0.000000503820956510026 -0.0000000562970114970085 -0.9999999403953552
vn 0 0.00000024346815052922466 -1
vn 0 0.00000024346815052922466 -1
vn 0 0.00000024346815052922466 -1
vn 0.9921355247497559 -0.12516851723194122 -0
vn -0.9859726428985596 0.1669074445962906 -0
vn -0.9859726428985596 0.1669074445962906 -0
vn -0.9859726428985596 0.1669074445962906 -0
vn 0.98597252368927 0.16690771281719208 -0
vn 0.98597252368927 0.16690771281719208 -0
vn 0.98597252368927 0.16690771281719208 -0
vn 0 -0.00000004385609031487547 -1
vn 0 -0.00000004385609031487547 -1
vn 0 -0.00000004385609031487547 -1
vn -0.9859725832939148 0.1669076532125473 -0
vn -0.9859725832939148 0.1669076532125473 -0
vn -0.9859725832939148 0.1669076532125473 -0
vn 0.9859725832939148 0.16690774261951447 -0
vn 0.9859725832939148 0.16690774261951447 -0
vn 0.9859725832939148 0.16690774261951447 -0
vn 0 -0.00000004385592333733257 -1
vn 0 -0.00000004385592333733257 -1
vn 0 -0.00000004385592333733257 -1
vn -0.8985090851783752 0.43895480036735535 -0
vn -0.8985090851783752 0.43895480036735535 -0
vn -0.8985090851783752 0.43895480036735535 -0
vn 0.8985077738761902 0.43895775079727173 -0
vn 0.8985077738761902 0.43895775079727173 -0
vn 0.8985077738761902 0.43895775079727173 -0
vn -0.6800618171691895 0.7331547737121582 -0
vn -0.6800618171691895 0.7331547737121582 -0
vn -0.6800618171691895 0.7331547737121582 -0
vn -0.8985077738761902 0.43895775079727173 -0
vn -0.8985077738761902 0.43895775079727173 -0
vn -0.8985077738761902 0.43895775079727173 -0
vn 0.6800707578659058 0.7331464290618896 -0
vn 0.6800707578659058 0.7331464290618896 -0
vn 0.6800707578659058 0.7331464290618896 -0
vn 0.8985084891319275 0.43895620107650757 -0
vn 0.8985084891319275 0.43895620107650757 -0
vn 0.8985084891319275 0.43895620107650757 -0
vn 0 -0.00000036619962884287816 -1
vn 0 -0.00000036619962884287816 -1
vn 0 -0.00000036619962884287816 -1
vn -0.24471046030521393 0.9695962071418762 -0
vn -0.24471046030521393 0.9695962071418762 -0
vn -0.24471046030521393 0.9695962071418762 -0
vn 0.24471046030521393 0.9695962071418762 -0
vn 0.24471046030521393 0.9695962071418762 -0
vn 0.24471046030521393 0.9695962071418762 -0
vn -0.680060088634491 0.7331563830375671 -0
vn -0.680060088634491 0.7331563830375671 -0
vn -0.680060088634491 0.7331563830375671 -0
vn 0 -0.0000003662042615815153 -1
vn 0 -0.0000003662042615815153 -1
vn 0 -0.0000003662042615815153 -1
vn 0.680060088634491 0.7331563830375671 -0
vn 0.680060088634491 0.7331563830375671 -0
vn 0.680060088634491 0.7331563830375671 -0
vn -0.2447105199098587 0.9695961475372314 -0
vn -0.2447105199098587 0.9695961475372314 -0
vn -0.2447105199098587 0.9695961475372314 -0
vn 0.2447105199098587 0.9695961475372314 -0
vn 0.2447105199098587 0.9695961475372314 -0
vn 0.2447105199098587 0.9695961475372314 -0
vn 0 -0 -1
vn 0 -0 -1
vn 0 -0 -1
vn 0 -0 -1
vn 0 -0 -1
f 3/3/3 2/2/2 1/1/1
f 6/6/6 5/5/5 4/4/4
f 9/9/9 8/8/8 7/7/7
f 12/12/12 11/11/11 10/10/10
f 3/3/3 1/1/1 13/13/13
f 16/16/16 15/15/15 14/14/14
f 19/19/19 18/18/18 17/17/17
f 22/22/22 21/21/21 20/20/20
f 25/25/25 24/24/24 23/23/23
f 28/28/28 27/27/27 26/26/26
f 31/31/31 30/30/30 29/29/29
f 34/34/34 33/33/33 32/32/32
f 34/34/34 32/32/32 35/35/35
f 38/38/38 37/37/37 36/36/36
f 41/41/41 40/40/40 39/39/39
f 44/44/44 43/43/43 42/42/42
f 47/47/47 46/46/46 45/45/45
f 50/50/50 49/49/49 48/48/48
f 53/53/53 52/52/52 51/51/51
f 38/38/38 36/36/36 54/54/54
f 57/57/57 56/56/56 55/55/55
f 60/60/60 59/59/59 58/58/58
f 63/63/63 62/62/62 61/61/61
f 66/66/66 65/65/65 64/64/64
f 69/69/69 68/68/68 67/67/67
f 72/72/72 71/71/71 70/70/70
f 75/75/75 74/74/74 73/73/73
f 78/78/78 77/77/77 76/76/76
f 81/81/81 80/80/80 79/79/79
f 84/84/84 83/83/83 82/82/82
f 87/87/87 86/86/86 85/85/85
f 90/90/90 89/89/89 88/88/88
f 93/93/93 92/92/92 91/91/91
f 96/96/96 95/95/95 94/94/94
f 99/99/99 98/98/98 97/97/97
f 102/102/102 101/101/101 100/100/100
f 105/105/105 104/104/104 103/103/103
f 108/108/108 107/107/107 106/106/106
f 111/111/111 110/110/110 109/109/109
f 114/114/114 113/113/113 112/112/112
f 117/117/117 116/116/116 115/115/115
f 118/118/118 115/115/115 116/116/116
f 116/116/116 119/119/119 118/118/118
