# VPXTOOL table OBJ file
# VPXTOOL OBJ file
# numVerts: 147 numFaces: 147
o LM_L_LLO_swLO
v 2406.85302734375 -27384.005859375 -28485.439453125
v 1026.2542724609375 -4601.9208984375 -35424.09765625
v 2021.2559814453125 10298.2333984375 -42271.35546875
v -2571.752685546875 7738.3193359375 -40651.3046875
v 457.4951171875 9405.802734375 -36906.87109375
v -1764.8602294921875 -5396.8759765625 -36081.78515625
v 1026.2542724609375 -4601.9208984375 -35424.09765625
v 457.4951171875 9405.802734375 -36906.87109375
v 2021.2559814453125 10298.2333984375 -42271.35546875
v -2023.6942138671875 -13566.7099609375 -37738.00390625
v -1764.8602294921875 -5396.8759765625 -36081.78515625
v -1387.616943359375 -22341.298828125 -29527.763671875
v -1764.8602294921875 -5396.8759765625 -36081.78515625
v -2023.6942138671875 -13566.7099609375 -37738.00390625
v -2571.752685546875 7738.3193359375 -40651.3046875
v 2406.85302734375 -27384.005859375 -28485.439453125
v 2021.2559814453125 10298.2333984375 -42271.35546875
v 926.0933227539063 -20816.974609375 -35777.88671875
v -2023.6942138671875 -13566.7099609375 -37738.00390625
v 915.5061645507813 -5077.537109375 -40925.42578125
v -2571.752685546875 7738.3193359375 -40651.3046875
v 2021.2559814453125 10298.2333984375 -42271.35546875
v 915.5061645507813 -5077.537109375 -40925.42578125
v 926.0933227539063 -20816.974609375 -35777.88671875
v 2021.2559814453125 10298.2333984375 -42271.35546875
v 457.4951171875 9405.802734375 -36906.87109375
v 2410.33740234375 31765.419921875 -34928.08203125
v 915.5061645507813 -5077.537109375 -40925.42578125
v 2021.2559814453125 10298.2333984375 -42271.35546875
v -2571.752685546875 7738.3193359375 -40651.3046875
v -1387.616943359375 -22341.298828125 -29527.763671875
v 2406.85302734375 -27384.005859375 -28485.439453125
v 464.06085205078125 -33223.25390625 -22607.76953125
v 926.0933227539063 -20816.974609375 -35777.88671875
v 915.5061645507813 -5077.537109375 -40925.42578125
v -2023.6942138671875 -13566.7099609375 -37738.00390625
v -2200.29052734375 -34393.18359375 -27120.37109375
v -2023.6942138671875 -13566.7099609375 -37738.00390625
v -1387.616943359375 -22341.298828125 -29527.763671875
v -2135.38232421875 30667.861328125 -38229.86328125
v -2571.752685546875 7738.3193359375 -40651.3046875
v 2021.2559814453125 10298.2333984375 -42271.35546875
v 926.0933227539063 -20816.974609375 -35777.88671875
v -2023.6942138671875 -13566.7099609375 -37738.00390625
v 927.9803466796875 -35569.671875 -27910.40234375
v -2135.38232421875 30667.861328125 -38229.86328125
v -1378.4644775390625 36017.921875 -31906.0390625
v -2571.752685546875 7738.3193359375 -40651.3046875
v 2406.85302734375 -27384.005859375 -28485.439453125
v 926.0933227539063 -20816.974609375 -35777.88671875
v 927.9803466796875 -35569.671875 -27910.40234375
v -2023.6942138671875 -13566.7099609375 -37738.00390625
v -2200.29052734375 -34393.18359375 -27120.37109375
v 927.9803466796875 -35569.671875 -27910.40234375
v 2410.33740234375 31765.419921875 -34928.08203125
v 920.9976196289063 25583.314453125 -40615.98828125
v 2021.2559814453125 10298.2333984375 -42271.35546875
v 568.7450561523438 -44682.14453125 -13132.9970703125
v 464.06085205078125 -33223.25390625 -22607.76953125
v 2406.85302734375 -27384.005859375 -28485.439453125
v 920.9976196289063 25583.314453125 -40615.98828125
v -2135.38232421875 30667.861328125 -38229.86328125
v 2021.2559814453125 10298.2333984375 -42271.35546875
v -2304.21142578125 -54873.62890625 -6629.34765625
v -1387.616943359375 -22341.298828125 -29527.763671875
v 464.06085205078125 -33223.25390625 -22607.76953125
v -2200.29052734375 -34393.18359375 -27120.37109375
v -1387.616943359375 -22341.298828125 -29527.763671875
v -2304.21142578125 -54873.62890625 -6629.34765625
v 2410.33740234375 31765.419921875 -34928.08203125
v 921.56298828125 41306.2421875 -35195.8828125
v 920.9976196289063 25583.314453125 -40615.98828125
v 2406.85302734375 -27384.005859375 -28485.439453125
v 927.9803466796875 -35569.671875 -27910.40234375
v 2444.360595703125 -53167.92578125 -9346.0869140625
v 921.56298828125 41306.2421875 -35195.8828125
v -2135.38232421875 30667.861328125 -38229.86328125
v 920.9976196289063 25583.314453125 -40615.98828125
v 2444.360595703125 -53167.92578125 -9346.0869140625
v 568.7450561523438 -44682.14453125 -13132.9970703125
v 2406.85302734375 -27384.005859375 -28485.439453125
v 927.9803466796875 -35569.671875 -27910.40234375
v -2200.29052734375 -34393.18359375 -27120.37109375
v -365.42645263671875 -47940.4453125 -18028.95703125
v 568.7450561523438 -44682.14453125 -13132.9970703125
v -2304.21142578125 -54873.62890625 -6629.34765625
v 464.06085205078125 -33223.25390625 -22607.76953125
v -1378.4644775390625 36017.921875 -31906.0390625
v -2135.38232421875 30667.861328125 -38229.86328125
v -2553.334716796875 64436.1640625 -17882.787109375
v -368.3241271972656 55915.328125 -27271.59765625
v -2135.38232421875 30667.861328125 -38229.86328125
v 921.56298828125 41306.2421875 -35195.8828125
v 2410.33740234375 31765.419921875 -34928.08203125
v 2439.314208984375 61828.75390625 -21033.80078125
v 921.56298828125 41306.2421875 -35195.8828125
v -2200.29052734375 -34393.18359375 -27120.37109375
v -2304.21142578125 -54873.62890625 -6629.34765625
v -365.42645263671875 -47940.4453125 -18028.95703125
v -365.42645263671875 -47940.4453125 -18028.95703125
v 2444.360595703125 -53167.92578125 -9346.0869140625
v 927.9803466796875 -35569.671875 -27910.40234375
v 2410.33740234375 31765.419921875 -34928.08203125
v 464.5697021484375 52255.140625 -22685.701171875
v 2439.314208984375 61828.75390625 -21033.80078125
v -1346.314208984375 -53519.60546875 -2135.84228515625
v 568.7450561523438 -44682.14453125 -13132.9970703125
v 1549.1805419921875 -54097.4453125 -1511.0206298828125
v 1549.1805419921875 -54097.4453125 -1511.0206298828125
v 568.7450561523438 -44682.14453125 -13132.9970703125
v 2444.360595703125 -53167.92578125 -9346.0869140625
v -368.3241271972656 55915.328125 -27271.59765625
v -2553.334716796875 64436.1640625 -17882.787109375
v -2135.38232421875 30667.861328125 -38229.86328125
v -2304.21142578125 -54873.62890625 -6629.34765625
v 568.7450561523438 -44682.14453125 -13132.9970703125
v -1346.314208984375 -53519.60546875 -2135.84228515625
v -365.42645263671875 -47940.4453125 -18028.95703125
v 212.03285217285156 -57664.00390625 -5097.53515625
v 2444.360595703125 -53167.92578125 -9346.0869140625
v -365.42645263671875 -47940.4453125 -18028.95703125
v -2304.21142578125 -54873.62890625 -6629.34765625
v 212.03285217285156 -57664.00390625 -5097.53515625
v 1549.1805419921875 -54097.4453125 -1511.0206298828125
v 728.018798828125 -61350.42578125 14002.7568359375
v -1346.314208984375 -53519.60546875 -2135.84228515625
v 2444.360595703125 -53167.92578125 -9346.0869140625
v 1907.5394287109375 -64207.515625 9769.748046875
v 1549.1805419921875 -54097.4453125 -1511.0206298828125
v -2304.21142578125 -54873.62890625 -6629.34765625
v -1346.314208984375 -53519.60546875 -2135.84228515625
v -2528.138916015625 -63155.1875 11999.525390625
v 212.03285217285156 -57664.00390625 -5097.53515625
v 1907.5394287109375 -64207.515625 9769.748046875
v 2444.360595703125 -53167.92578125 -9346.0869140625
v 212.03285217285156 -57664.00390625 -5097.53515625
v -2304.21142578125 -54873.62890625 -6629.34765625
v 1907.5394287109375 -64207.515625 9769.748046875
v -1346.314208984375 -53519.60546875 -2135.84228515625
v 728.018798828125 -61350.42578125 14002.7568359375
v -2528.138916015625 -63155.1875 11999.525390625
v 1907.5394287109375 -64207.515625 9769.748046875
v 728.018798828125 -61350.42578125 14002.7568359375
v 1549.1805419921875 -54097.4453125 -1511.0206298828125
v -2304.21142578125 -54873.62890625 -6629.34765625
v -2528.138916015625 -63155.1875 11999.525390625
v 1907.5394287109375 -64207.515625 9769.748046875
vt 0.023137124255299568 0.11555314064025879
vt 0.02255942113697529 0.11832582950592041
vt 0.022259900346398354 0.12004232406616211
vt 0.021863894537091255 0.12008297443389893
vt 0.02228369191288948 0.12026357650756836
vt 0.022172681987285614 0.11828595399856567
vt 0.02255942113697529 0.11832582950592041
vt 0.02228369191288948 0.12026357650756836
vt 0.022259900346398354 0.12004232406616211
vt 0.02224498987197876 0.11703628301620483
vt 0.022172681987285614 0.11828595399856567
vt 0.022552864626049995 0.11616051197052002
vt 0.022172681987285614 0.11828595399856567
vt 0.02224498987197876 0.11703628301620483
vt 0.021863894537091255 0.12008297443389893
vt 0.023137124255299568 0.11555314064025879
vt 0.022259900346398354 0.12004232406616211
vt 0.022724250331521034 0.11601990461349487
vt 0.02224498987197876 0.11703628301620483
vt 0.022451205179095268 0.11797171831130981
vt 0.021863894537091255 0.12008297443389893
vt 0.022259900346398354 0.12004232406616211
vt 0.022451205179095268 0.11797171831130981
vt 0.022724250331521034 0.11601990461349487
vt 0.022259900346398354 0.12004232406616211
vt 0.02228369191288948 0.12026357650756836
vt 0.02236597239971161 0.1236884593963623
vt 0.022451205179095268 0.11797171831130981
vt 0.022259900346398354 0.12004232406616211
vt 0.021863894537091255 0.12008297443389893
vt 0.022552864626049995 0.11616051197052002
vt 0.023137124255299568 0.11555314064025879
vt 0.023032255470752716 0.11493432521820068
vt 0.022724250331521034 0.11601990461349487
vt 0.022451205179095268 0.11797171831130981
vt 0.02224498987197876 0.11703628301620483
vt 0.022670581936836243 0.11459136009216309
vt 0.02224498987197876 0.11703628301620483
vt 0.022552864626049995 0.11616051197052002
vt 0.02176017500460148 0.12333112955093384
vt 0.021863894537091255 0.12008297443389893
vt 0.022259900346398354 0.12004232406616211
vt 0.022724250331521034 0.11601990461349487
vt 0.02224498987197876 0.11703628301620483
vt 0.023036645725369453 0.11438745260238647
vt 0.02176017500460148 0.12333112955093384
vt 0.02185959182679653 0.12441378831863403
vt 0.021863894537091255 0.12008297443389893
vt 0.023137124255299568 0.11555314064025879
vt 0.022724250331521034 0.11601990461349487
vt 0.023036645725369453 0.11438745260238647
vt 0.02224498987197876 0.11703628301620483
vt 0.022670581936836243 0.11459136009216309
vt 0.023036645725369453 0.11438745260238647
vt 0.02236597239971161 0.1236884593963623
vt 0.02211594767868519 0.12237215042114258
vt 0.022259900346398354 0.12004232406616211
vt 0.023356812074780464 0.11386293172836304
vt 0.023032255470752716 0.11493432521820068
vt 0.023137124255299568 0.11555314064025879
vt 0.02211594767868519 0.12237215042114258
vt 0.02176017500460148 0.12333112955093384
vt 0.022259900346398354 0.12004232406616211
vt 0.023195870220661163 0.11300718784332275
vt 0.022552864626049995 0.11616051197052002
vt 0.023032255470752716 0.11493432521820068
vt 0.022670581936836243 0.11459136009216309
vt 0.022552864626049995 0.11616051197052002
vt 0.023195870220661163 0.11300718784332275
vt 0.02236597239971161 0.1236884593963623
vt 0.02204303815960884 0.12493205070495605
vt 0.02211594767868519 0.12237215042114258
vt 0.023137124255299568 0.11555314064025879
vt 0.023036645725369453 0.11438745260238647
vt 0.023781858384609222 0.11314535140991211
vt 0.02204303815960884 0.12493205070495605
vt 0.02176017500460148 0.12333112955093384
vt 0.02211594767868519 0.12237215042114258
vt 0.023781858384609222 0.11314535140991211
vt 0.023356812074780464 0.11386293172836304
vt 0.023137124255299568 0.11555314064025879
vt 0.023036645725369453 0.11438745260238647
vt 0.022670581936836243 0.11459136009216309
vt 0.02321132831275463 0.11323046684265137
vt 0.023356812074780464 0.11386293172836304
vt 0.023195870220661163 0.11300718784332275
vt 0.023032255470752716 0.11493432521820068
vt 0.02185959182679653 0.12441378831863403
vt 0.02176017500460148 0.12333112955093384
vt 0.021733945235610008 0.1294505000114441
vt 0.02188648283481598 0.12750297784805298
vt 0.02176017500460148 0.12333112955093384
vt 0.02204303815960884 0.12493205070495605
vt 0.02236597239971161 0.1236884593963623
vt 0.02236826904118061 0.12865996360778809
vt 0.02204303815960884 0.12493205070495605
vt 0.022670581936836243 0.11459136009216309
vt 0.023195870220661163 0.11300718784332275
vt 0.02321132831275463 0.11323046684265137
vt 0.02321132831275463 0.11323046684265137
vt 0.023781858384609222 0.11314535140991211
vt 0.023036645725369453 0.11438745260238647
vt 0.02236597239971161 0.1236884593963623
vt 0.022076278924942017 0.12730073928833008
vt 0.02236826904118061 0.12865996360778809
vt 0.023424653336405754 0.11327356100082397
vt 0.023356812074780464 0.11386293172836304
vt 0.023825066164135933 0.11326736211776733
vt 0.023825066164135933 0.11326736211776733
vt 0.023356812074780464 0.11386293172836304
vt 0.023781858384609222 0.11314535140991211
vt 0.02188648283481598 0.12750297784805298
vt 0.021733945235610008 0.1294505000114441
vt 0.02176017500460148 0.12333112955093384
vt 0.023195870220661163 0.11300718784332275
vt 0.023356812074780464 0.11386293172836304
vt 0.023424653336405754 0.11327356100082397
vt 0.02321132831275463 0.11323046684265137
vt 0.023622162640094757 0.11258107423782349
vt 0.023781858384609222 0.11314535140991211
vt 0.02321132831275463 0.11323046684265137
vt 0.023195870220661163 0.11300718784332275
vt 0.023622162640094757 0.11258107423782349
vt 0.023825066164135933 0.11326736211776733
vt 0.024079978466033936 0.11309707164764404
vt 0.023424653336405754 0.11327356100082397
vt 0.023781858384609222 0.11314535140991211
vt 0.024136286228895187 0.11257761716842651
vt 0.023825066164135933 0.11326736211776733
vt 0.023195870220661163 0.11300718784332275
vt 0.023424653336405754 0.11327356100082397
vt 0.023650409653782845 0.11277729272842407
vt 0.023622162640094757 0.11258107423782349
vt 0.024136286228895187 0.11257761716842651
vt 0.023781858384609222 0.11314535140991211
vt 0.023622162640094757 0.11258107423782349
vt 0.023195870220661163 0.11300718784332275
vt 0.024136286228895187 0.11257761716842651
vt 0.023424653336405754 0.11327356100082397
vt 0.024079978466033936 0.11309707164764404
vt 0.023650409653782845 0.11277729272842407
vt 0.024136286228895187 0.11257761716842651
vt 0.024079978466033936 0.11309707164764404
vt 0.023825066164135933 0.11326736211776733
vt 0.023195870220661163 0.11300718784332275
vt 0.023650409653782845 0.11277729272842407
vt 0.024136286228895187 0.11257761716842651
vn 0.5881767868995667 0.12418201565742493 0.7991413474082947
vn 0.6041000485420227 0.09968927502632141 0.7906485795974731
vn 0.8846054673194885 0.3622966706752777 0.2936226427555084
vn -0.9280726909637451 -0.00042194873094558716 0.3723986744880676
vn -0.6427831053733826 0.07520352303981781 0.762347936630249
vn -0.9254422187805176 0.00030671991407871246 0.37888869643211365
vn 0.8555397987365723 -0.020071275532245636 0.5173478722572327
vn 0.857035756111145 -0.01973593421280384 0.5148788094520569
vn 0.9964603781700134 0.01738736778497696 -0.08224618434906006
vn -0.9519245028495789 -0.26521748304367065 -0.15329548716545105
vn -0.94440758228302 0.11309270560741425 0.3087140917778015
vn -0.943017303943634 -0.003069870173931122 0.33272960782051086
vn -0.9257262349128723 0.1520773470401764 0.34627068042755127
vn -0.9712619781494141 -0.17300492525100708 -0.16346082091331482
vn -0.9723144173622131 0.1527484655380249 -0.17684093117713928
vn 0.9994162917137146 -0.03293761610984802 0.009071946144104004
vn 0.9999465346336365 0.008989818394184113 -0.005113482475280762
vn 0.824009358882904 -0.16788387298583984 -0.5411317348480225
vn -0.6966940760612488 -0.29635387659072876 -0.6532929539680481
vn -0.2817140817642212 -0.05179189145565033 -0.9580996036529541
vn -0.6726974248886108 0.11890123784542084 -0.7303017973899841
vn 0.9645643830299377 0.21575689315795898 -0.15186981856822968
vn 0.8480241298675537 -0.2671319842338562 -0.45770686864852905
vn 0.8432573676109314 -0.2132357805967331 -0.4934040606021881
vn 0.9963089823722839 0.03751540929079056 -0.07720714807510376
vn 0.8569723963737488 -0.10651165246963501 0.504235565662384
vn 0.978865921497345 0.1982884407043457 0.05003093183040619
vn -0.1196148693561554 -0.29082822799682617 -0.9492687582969666
vn -0.04493612051010132 0.09398587048053741 -0.9945588707923889
vn -0.5713447332382202 -0.05247703194618225 -0.81903076171875
vn 0.24133147299289703 0.5446951985359192 0.8031602501869202
vn 0.6711276173591614 0.2903231382369995 0.6821292042732239
vn 0.7223552465438843 0.3609606623649597 0.5898392796516418
vn 0.07622697204351425 -0.4942197799682617 -0.8659887313842773
vn 0.07045699656009674 -0.10032571107149124 -0.9924569129943848
vn -0.39169472455978394 -0.39745795726776123 -0.8298208117485046
vn -0.9839215278625488 -0.1638282835483551 -0.07112492620944977
vn -0.9730278253555298 0.1369965374469757 -0.18560418486595154
vn -0.9029656648635864 0.31306007504463196 0.2943577766418457
vn -0.5432268977165222 0.30968010425567627 -0.7803862690925598
vn -0.6058043837547302 -0.04569869861006737 -0.7943000197410583
vn -0.08958666026592255 0.08249063789844513 -0.9925570487976074
vn -0.23023821413516998 -0.49953964352607727 -0.8351349830627441
vn -0.6791594624519348 -0.18315550684928894 -0.7107717394828796
vn -0.3215309679508209 -0.6337566375732422 -0.7035412192344666
vn -0.9662877321243286 -0.012096963822841644 -0.25718027353286743
vn -0.9374615550041199 -0.05619412660598755 0.3435230553150177
vn -0.9441379904747009 -0.14138494431972504 0.2976806163787842
vn 0.9883423447608948 -0.14991037547588348 -0.02657562494277954
vn 0.7849359512329102 -0.21046730875968933 -0.5827339887619019
vn 0.7764819860458374 -0.3232209086418152 -0.540928840637207
vn -0.5331537127494812 -0.1743747591972351 -0.8278529644012451
vn -0.6172947883605957 -0.3933674991130829 -0.6813289523124695
vn -0.09919968992471695 -0.5327377915382385 -0.8404462337493896
vn 0.9623090028762817 0.26473039388656616 -0.06228356063365936
vn 0.8086143136024475 0.045751750469207764 -0.5865575671195984
vn 0.8037972450256348 0.05691436305642128 -0.592174768447876
vn 0.13407978415489197 0.5511152148246765 0.8235863447189331
vn 0.17468953132629395 0.4916556179523468 0.8530874252319336
vn 0.6377438902854919 0.6299861669540405 0.4431704878807068
vn -0.2972796559333801 0.05265682935714722 -0.9533374309539795
vn -0.7460941076278687 0.18687757849693298 -0.6390777826309204
vn -0.3875531554222107 -0.1849551796913147 -0.9031025171279907
vn -0.002118721604347229 0.5032318234443665 0.8641489148139954
vn -0.0032229721546173096 0.6219300031661987 0.7830662131309509
vn 0.43859660625457764 0.3683788478374481 0.8197134733200073
vn -0.9638573527336121 -0.23846638202667236 -0.1187971979379654
vn -0.9358514547348022 0.23938310146331787 0.2586073875427246
vn -0.9400022625923157 0.14089363813400269 0.3107163608074188
vn 0.9880372285842896 -0.08220374584197998 -0.1304793655872345
vn 0.7834862470626831 0.28738656640052795 -0.5509611368179321
vn 0.777642548084259 0.17419728636741638 -0.6040921211242676
vn 0.9671568870544434 0.1498338282108307 -0.2053222507238388
vn 0.8408623933792114 -0.4068446755409241 -0.35697031021118164
vn 0.8349893093109131 -0.41056370735168457 -0.36637431383132935
vn 0.013846173882484436 0.5128515362739563 -0.8583655953407288
vn -0.4263024926185608 0.1469789743423462 -0.8925600051879883
vn 0.021862797439098358 0.12988024950027466 -0.9912885427474976
vn 0.9240585565567017 0.13938191533088684 0.35593318939208984
vn 0.5551304817199707 0.6029590368270874 0.5729490518569946
vn 0.8786370754241943 0.435386598110199 0.19605009257793427
vn -0.11858773231506348 -0.5455487370491028 -0.8296467065811157
vn -0.6353871822357178 -0.39175859093666077 -0.6654384732246399
vn -0.24490155279636383 -0.7633081078529358 -0.5978161692619324
vn -0.2614730894565582 0.7355268597602844 0.6250056028366089
vn -0.6792588829994202 0.42676404118537903 0.5970593690872192
vn -0.216575488448143 0.6472099423408508 0.7308996319770813
vn -0.858070969581604 -0.18101245164871216 0.48057103157043457
vn -0.9919416904449463 -0.07230064272880554 -0.1040390133857727
vn -0.974888026714325 0.18603329360485077 0.12241275608539581
vn -0.6511201858520508 0.5229089856147766 -0.5500986576080322
vn -0.6999585628509521 0.14300057291984558 -0.6997205018997192
vn -0.26927345991134644 0.4815753102302551 -0.8340125679969788
vn 0.9977414608001709 -0.025861116126179695 -0.06199254095554352
vn 0.9990662336349487 0.016632437705993652 -0.03987486660480499
vn 0.7998924255371094 0.2812035083770752 -0.5301854610443115
vn -0.9259235858917236 -0.04233530908823013 -0.3753308057785034
vn -0.9638663530349731 -0.2568129301071167 -0.07077126204967499
vn -0.665325939655304 -0.4701310396194458 -0.5799294710159302
vn 0.4680750370025635 -0.56934654712677 -0.6758331060409546
vn 0.8268917202949524 -0.48928889632225037 -0.27721211314201355
vn 0.7951802611351013 -0.23064300417900085 -0.5607960224151611
vn 0.6383920311927795 -0.4739910364151001 0.6064552664756775
vn 0.6424165964126587 -0.48056238889694214 0.5969595313072205
vn 0.915163516998291 0.05531761422753334 0.39926886558532715
vn -0.2655966877937317 0.8275172114372253 0.4946448504924774
vn -0.2745209336280823 0.7616391777992249 0.5869786739349365
vn 0.283496230840683 0.7881968021392822 0.5462377667427063
vn 0.8281764984130859 0.44971147179603577 0.3344894051551819
vn 0.8536951541900635 0.4223557710647583 0.3046637773513794
vn 0.9826866388320923 -0.1371687948703766 0.12454554438591003
vn -0.6922133564949036 0.24372321367263794 -0.6792934536933899
vn -0.9438158273696899 0.30933427810668945 -0.11629325896501541
vn -0.7664116621017456 0.06836807727813721 -0.6387009620666504
vn -0.9592849612236023 0.07584592700004578 0.2720659375190735
vn -0.8341087102890015 0.4890844523906708 0.25506696105003357
vn -0.9547950029373169 0.28982052206993103 0.06611134111881256
vn 0.2000383883714676 -0.6279562711715698 -0.7521007061004639
vn 0.21437177062034607 -0.8823869228363037 -0.4188532531261444
vn 0.6116514205932617 -0.6865741610527039 -0.39306291937828064
vn -0.576318621635437 -0.47151458263397217 -0.6674808859825134
vn -0.7077013850212097 -0.5442889332771301 -0.45045316219329834
vn -0.26202812790870667 -0.8701971173286438 -0.41725069284439087
vn 0.29704833030700684 0.8158261775970459 0.4961753487586975
vn -0.27139943838119507 0.14292120933532715 0.9517961740493774
vn -0.25778642296791077 0.8361691236495972 0.4841150641441345
vn 0.9995759725570679 0.02910095453262329 -0.0009939111769199371
vn 0.5818716883659363 -0.061853259801864624 0.8109250664710999
vn 0.8972735404968262 0.26896876096725464 0.35007989406585693
vn -0.9936428666114807 0.09330572187900543 -0.0629911720752716
vn -0.6334125399589539 0.5632048845291138 0.5306494235992432
vn -0.4667949676513672 -0.09820728003978729 0.8788957595825195
vn 0.5120144486427307 -0.7567451000213623 -0.4064211845397949
vn 0.552484929561615 -0.793043851852417 0.25659680366516113
vn 0.8199071884155273 -0.3554258942604065 -0.44880348443984985
vn -0.3642100989818573 -0.8674564361572266 -0.3389251232147217
vn -0.8001810312271118 -0.5233662128448486 -0.2929134666919708
vn -0.52918940782547 -0.7788018584251404 0.3367881178855896
vn -0.2122410237789154 0.9148117899894714 0.3436177372932434
vn -0.1510244607925415 0.15570607781410217 0.9761902093887329
vn -0.6929196715354919 -0.35690832138061523 0.6264814138412476
vn 0.7612050771713257 -0.5914794206619263 0.2659304141998291
vn 0.6134900450706482 -0.053877681493759155 0.7878624200820923
vn 0.8892384767532349 0.4202268123626709 0.18073268234729767
vn -0.5144599676132202 -0.6779496669769287 -0.5250859260559082
vn -0.5838489532470703 -0.7884920835494995 0.1933925300836563
vn 0.09402498602867126 -0.9933093190193176 -0.06705105304718018
f 3/3/3 2/2/2 1/1/1
f 6/6/6 5/5/5 4/4/4
f 9/9/9 8/8/8 7/7/7
f 12/12/12 11/11/11 10/10/10
f 15/15/15 14/14/14 13/13/13
f 18/18/18 17/17/17 16/16/16
f 21/21/21 20/20/20 19/19/19
f 24/24/24 23/23/23 22/22/22
f 27/27/27 26/26/26 25/25/25
f 30/30/30 29/29/29 28/28/28
f 33/33/33 32/32/32 31/31/31
f 36/36/36 35/35/35 34/34/34
f 39/39/39 38/38/38 37/37/37
f 42/42/42 41/41/41 40/40/40
f 45/45/45 44/44/44 43/43/43
f 48/48/48 47/47/47 46/46/46
f 51/51/51 50/50/50 49/49/49
f 54/54/54 53/53/53 52/52/52
f 57/57/57 56/56/56 55/55/55
f 60/60/60 59/59/59 58/58/58
f 63/63/63 62/62/62 61/61/61
f 66/66/66 65/65/65 64/64/64
f 69/69/69 68/68/68 67/67/67
f 72/72/72 71/71/71 70/70/70
f 75/75/75 74/74/74 73/73/73
f 78/78/78 77/77/77 76/76/76
f 81/81/81 80/80/80 79/79/79
f 84/84/84 83/83/83 82/82/82
f 87/87/87 86/86/86 85/85/85
f 90/90/90 89/89/89 88/88/88
f 93/93/93 92/92/92 91/91/91
f 96/96/96 95/95/95 94/94/94
f 99/99/99 98/98/98 97/97/97
f 102/102/102 101/101/101 100/100/100
f 105/105/105 104/104/104 103/103/103
f 108/108/108 107/107/107 106/106/106
f 111/111/111 110/110/110 109/109/109
f 114/114/114 113/113/113 112/112/112
f 117/117/117 116/116/116 115/115/115
f 120/120/120 119/119/119 118/118/118
f 123/123/123 122/122/122 121/121/121
f 126/126/126 125/125/125 124/124/124
f 129/129/129 128/128/128 127/127/127
f 132/132/132 131/131/131 130/130/130
f 135/135/135 134/134/134 133/133/133
f 138/138/138 137/137/137 136/136/136
f 141/141/141 140/140/140 139/139/139
f 144/144/144 143/143/143 142/142/142
f 147/147/147 146/146/146 145/145/145
