# VPXTOOL table OBJ file
# VPXTOOL OBJ file
# numVerts: 127 numFaces: 129
o LM_L_LSR_UnderPF
v 392.71295166015625 753.3002319335938 -8.083456039428711
v 392.71295166015625 753.3002319335938 -12.789339065551758
v 360.77191162109375 753.306396484375 -12.789339065551758
v 396.6695861816406 751.569580078125 -8.083456993103027
v 396.6695861816406 751.569580078125 -12.789339065551758
v 392.71295166015625 753.3002319335938 -12.789339065551758
v 392.71295166015625 753.3002319335938 -8.083456039428711
v 396.6695861816406 751.569580078125 -8.083456993103027
v 392.71295166015625 753.3002319335938 -12.789339065551758
v 360.77191162109375 753.306396484375 -12.789339065551758
v 356.8146667480469 751.5772705078125 -12.789339065551758
v 356.8146667480469 751.5772705078125 -8.083456993103027
v 360.77191162109375 753.306396484375 -8.083456039428711
v 392.71295166015625 753.3002319335938 -8.083456039428711
v 360.77191162109375 753.306396484375 -12.789339065551758
v 399.3118591308594 748.1290283203125 -8.083457946777344
v 399.3118591308594 748.1290283203125 -12.78934097290039
v 396.6695861816406 751.569580078125 -12.789339065551758
v 360.77191162109375 753.306396484375 -8.083456039428711
v 360.77191162109375 753.306396484375 -12.789339065551758
v 356.8146667480469 751.5772705078125 -8.083456993103027
v 396.6695861816406 751.569580078125 -8.083456993103027
v 399.3118591308594 748.1290283203125 -8.083457946777344
v 396.6695861816406 751.569580078125 -12.789339065551758
v 356.8146667480469 751.5772705078125 -12.789339065551758
v 354.17108154296875 748.1377563476563 -12.78934097290039
v 354.17108154296875 748.1377563476563 -8.083457946777344
v 356.8146667480469 751.5772705078125 -8.083456993103027
v 356.8146667480469 751.5772705078125 -12.789339065551758
v 354.17108154296875 748.1377563476563 -8.083457946777344
v 399.923583984375 743.8603515625 -8.083457946777344
v 399.923583984375 743.8603515625 -12.78934097290039
v 399.3118591308594 748.1290283203125 -12.78934097290039
v 399.923583984375 743.8603515625 -8.083457946777344
v 396.6695861816406 751.569580078125 -8.083456993103027
v 392.71295166015625 753.3002319335938 -8.083456039428711
v 399.3118591308594 748.1290283203125 -8.083457946777344
v 354.17108154296875 748.1377563476563 -8.083457946777344
v 354.17108154296875 748.1377563476563 -12.78934097290039
v 353.55767822265625 743.8692626953125 -12.78934097290039
v 353.55767822265625 743.8692626953125 -8.083457946777344
v 392.71295166015625 753.3002319335938 -8.083456039428711
v 360.77191162109375 753.306396484375 -8.083456039428711
v 399.923583984375 743.8603515625 -8.083457946777344
v 399.3118591308594 748.1290283203125 -8.083457946777344
v 396.6695861816406 751.569580078125 -8.083456993103027
v 353.55767822265625 743.8692626953125 -8.083457946777344
v 360.77191162109375 753.306396484375 -8.083456039428711
v 356.8146667480469 751.5772705078125 -8.083456993103027
v 399.923583984375 743.8603515625 -8.083457946777344
v 392.71295166015625 753.3002319335938 -8.083456039428711
v 353.55767822265625 743.8692626953125 -8.083457946777344
v 356.8146667480469 751.5772705078125 -8.083456993103027
v 354.17108154296875 748.1377563476563 -8.083457946777344
v 353.55767822265625 743.8692626953125 -8.083457946777344
v 353.55767822265625 743.8692626953125 -8.083457946777344
v 354.17108154296875 748.1377563476563 -8.083457946777344
v 353.55767822265625 743.8692626953125 -12.78934097290039
v 353.55767822265625 743.8692626953125 -8.083457946777344
v 353.55767822265625 743.8692626953125 -12.78934097290039
v 368.6776123046875 665.267578125 -12.789337158203125
v 399.923583984375 743.8603515625 -8.083457946777344
v 384.7732849121094 665.2643432617188 -8.083455085754395
v 399.923583984375 743.8603515625 -12.78934097290039
v 399.923583984375 743.8603515625 -8.083457946777344
v 353.55767822265625 743.8692626953125 -8.083457946777344
v 368.6776123046875 665.267578125 -8.083455085754395
v 384.7732849121094 665.2643432617188 -8.083455085754395
v 384.7732849121094 665.2643432617188 -12.789337158203125
v 399.923583984375 743.8603515625 -12.78934097290039
v 368.6776123046875 665.267578125 -8.083455085754395
v 353.55767822265625 743.8692626953125 -8.083457946777344
v 368.6776123046875 665.267578125 -12.789337158203125
v 368.6776123046875 665.267578125 -8.083455085754395
v 384.7732849121094 665.2643432617188 -8.083455085754395
v 399.923583984375 743.8603515625 -8.083457946777344
v 368.6776123046875 665.267578125 -8.083455085754395
v 368.6776123046875 665.267578125 -12.789337158203125
v 370.4206848144531 662.1293334960938 -12.789337158203125
v 383.02899169921875 662.126953125 -8.083455085754395
v 383.02899169921875 662.126953125 -12.789337158203125
v 384.7732849121094 665.2643432617188 -12.789337158203125
v 384.7732849121094 665.2643432617188 -8.083455085754395
v 383.02899169921875 662.126953125 -8.083455085754395
v 384.7732849121094 665.2643432617188 -12.789337158203125
v 380.2250671386719 659.8414916992188 -12.789337158203125
v 383.02899169921875 662.126953125 -12.789337158203125
v 383.02899169921875 662.126953125 -8.083455085754395
v 370.4206848144531 662.1293334960938 -8.083455085754395
v 370.4206848144531 662.1293334960938 -12.789337158203125
v 373.2237548828125 659.8427734375 -12.789337158203125
v 370.4206848144531 662.1293334960938 -8.083455085754395
v 368.6776123046875 665.267578125 -8.083455085754395
v 370.4206848144531 662.1293334960938 -12.789337158203125
v 368.6776123046875 665.267578125 -8.083455085754395
v 383.02899169921875 662.126953125 -8.083455085754395
v 384.7732849121094 665.2643432617188 -8.083455085754395
v 376.7242736816406 659.0654907226563 -12.789335250854492
v 380.2250671386719 659.8414916992188 -12.789337158203125
v 380.2250671386719 659.8414916992188 -8.083455085754395
v 373.2237548828125 659.8427734375 -8.083455085754395
v 373.2237548828125 659.8427734375 -12.789337158203125
v 376.7242736816406 659.0654907226563 -12.789335250854492
v 370.4206848144531 662.1293334960938 -8.083455085754395
v 383.02899169921875 662.126953125 -8.083455085754395
v 368.6776123046875 665.267578125 -8.083455085754395
v 380.2250671386719 659.8414916992188 -8.083455085754395
v 380.2250671386719 659.8414916992188 -12.789337158203125
v 383.02899169921875 662.126953125 -8.083455085754395
v 373.2237548828125 659.8427734375 -8.083455085754395
v 370.4206848144531 662.1293334960938 -8.083455085754395
v 373.2237548828125 659.8427734375 -12.789337158203125
v 376.7242736816406 659.0654907226563 -8.083454132080078
v 376.7242736816406 659.0654907226563 -12.789335250854492
v 380.2250671386719 659.8414916992188 -8.083455085754395
v 376.7242736816406 659.0654907226563 -8.083454132080078
v 373.2237548828125 659.8427734375 -8.083455085754395
v 376.7242736816406 659.0654907226563 -12.789335250854492
v 383.02899169921875 662.126953125 -8.083455085754395
v 370.4206848144531 662.1293334960938 -8.083455085754395
v 376.7242736816406 659.0654907226563 -8.083454132080078
v 376.7242736816406 659.0654907226563 -8.083454132080078
v 380.2250671386719 659.8414916992188 -8.083455085754395
v 383.02899169921875 662.126953125 -8.083455085754395
v 370.4206848144531 662.1293334960938 -8.083455085754395
v 373.2237548828125 659.8427734375 -8.083455085754395
v 376.7242736816406 659.0654907226563 -8.083454132080078
vt 0.0541047602891922 0.8567975759506226
vt 0.05478085204958916 0.8563511371612549
vt 0.012596547603607178 0.8563528656959534
vt 0.059177953749895096 0.8563158512115479
vt 0.05986114591360092 0.8558688759803772
vt 0.05478085204958916 0.8563511371612549
vt 0.0541047602891922 0.8567975759506226
vt 0.059177953749895096 0.8563158512115479
vt 0.05478085204958916 0.8563511371612549
vt 0.012596547603607178 0.8563528656959534
vt 0.007240797393023968 0.8558710217475891
vt 0.006632193922996521 0.8563179969787598
vt 0.011980244889855385 0.856799304485321
vt 0.0541047602891922 0.8567975759506226
vt 0.012596547603607178 0.8563528656959534
vt 0.06237174570560455 0.8553590178489685
vt 0.06305903941392899 0.8549109697341919
vt 0.05986114591360092 0.8558688759803772
vt 0.011980244889855385 0.856799304485321
vt 0.012596547603607178 0.8563528656959534
vt 0.006632193922996521 0.8563179969787598
vt 0.059177953749895096 0.8563158512115479
vt 0.06237174570560455 0.8553590178489685
vt 0.05986114591360092 0.8558688759803772
vt 0.007240797393023968 0.8558710217475891
vt 0.003495491575449705 0.8549134135246277
vt 0.0028926872182637453 0.8553614616394043
vt 0.006632193922996521 0.8563179969787598
vt 0.007240797393023968 0.8558710217475891
vt 0.0028926872182637453 0.8553614616394043
vt 0.06281797587871552 0.854173481464386
vt 0.06350546330213547 0.8537241220474243
vt 0.06305903941392899 0.8549109697341919
vt 0.06281797587871552 0.854173481464386
vt 0.059177953749895096 0.8563158512115479
vt 0.0541047602891922 0.8567975759506226
vt 0.06237174570560455 0.8553590178489685
vt 0.0028926872182637453 0.8553614616394043
vt 0.003495491575449705 0.8549134135246277
vt 0.002370770089328289 0.8537266254425049
vt 0.0017699655145406723 0.8541759848594666
vt 0.0541047602891922 0.8567975759506226
vt 0.011980244889855385 0.856799304485321
vt 0.06281797587871552 0.854173481464386
vt 0.06237174570560455 0.8553590178489685
vt 0.059177953749895096 0.8563158512115479
vt 0.0017699655145406723 0.8541759848594666
vt 0.011980244889855385 0.856799304485321
vt 0.006632193922996521 0.8563179969787598
vt 0.06281797587871552 0.854173481464386
vt 0.0541047602891922 0.8567975759506226
vt 0.0017699655145406723 0.8541759848594666
vt 0.006632193922996521 0.8563179969787598
vt 0.0028926872182637453 0.8553614616394043
vt 0.0017699655145406723 0.8541759848594666
vt 0.0017699655145406723 0.8541759848594666
vt 0.0028926872182637453 0.8553614616394043
vt 0.002370770089328289 0.8537266254425049
vt 0.0017699655145406723 0.8541759848594666
vt 0.002370770089328289 0.8537266254425049
vt 0.016313957050442696 0.832182765007019
vt 0.06281797587871552 0.854173481464386
vt 0.03660863637924194 0.8326553702354431
vt 0.06350546330213547 0.8537241220474243
vt 0.06281797587871552 0.854173481464386
vt 0.0017699655145406723 0.8541759848594666
vt 0.01570175401866436 0.83265620470047
vt 0.03660863637924194 0.8326553702354431
vt 0.03725013509392738 0.8321819305419922
vt 0.06350546330213547 0.8537241220474243
vt 0.01570175401866436 0.83265620470047
vt 0.0017699655145406723 0.8541759848594666
vt 0.016313957050442696 0.832182765007019
vt 0.01570175401866436 0.83265620470047
vt 0.03660863637924194 0.8326553702354431
vt 0.06281797587871552 0.854173481464386
vt 0.01570175401866436 0.83265620470047
vt 0.016313957050442696 0.832182765007019
vt 0.01834423467516899 0.8313347101211548
vt 0.034097734838724136 0.8318084478378296
vt 0.03473533317446709 0.8313340544700623
vt 0.03725013509392738 0.8321819305419922
vt 0.03660863637924194 0.8326553702354431
vt 0.034097734838724136 0.8318084478378296
vt 0.03725013509392738 0.8321819305419922
vt 0.03091254085302353 0.8307169675827026
vt 0.03473533317446709 0.8313340544700623
vt 0.034097734838724136 0.8318084478378296
vt 0.01772943325340748 0.8318091034889221
vt 0.01834423467516899 0.8313347101211548
vt 0.02181418426334858 0.8307173252105713
vt 0.01772943325340748 0.8318091034889221
vt 0.01570175401866436 0.83265620470047
vt 0.01834423467516899 0.8313347101211548
vt 0.01570175401866436 0.83265620470047
vt 0.034097734838724136 0.8318084478378296
vt 0.03660863637924194 0.8326553702354431
vt 0.026303471997380257 0.8305076360702515
vt 0.03091254085302353 0.8307169675827026
vt 0.030280539765954018 0.8311920166015625
vt 0.021194882690906525 0.8311924338340759
vt 0.02181418426334858 0.8307173252105713
vt 0.026303471997380257 0.8305076360702515
vt 0.01772943325340748 0.8318091034889221
vt 0.034097734838724136 0.8318084478378296
vt 0.01570175401866436 0.83265620470047
vt 0.030280539765954018 0.8311920166015625
vt 0.03091254085302353 0.8307169675827026
vt 0.034097734838724136 0.8318084478378296
vt 0.021194882690906525 0.8311924338340759
vt 0.01772943325340748 0.8318091034889221
vt 0.02181418426334858 0.8307173252105713
vt 0.02567797154188156 0.8309828639030457
vt 0.026303471997380257 0.8305076360702515
vt 0.030280539765954018 0.8311920166015625
vt 0.02567797154188156 0.8309828639030457
vt 0.021194882690906525 0.8311924338340759
vt 0.026303471997380257 0.8305076360702515
vt 0.034097734838724136 0.8318084478378296
vt 0.01772943325340748 0.8318091034889221
vt 0.02567797154188156 0.8309828639030457
vt 0.02567797154188156 0.8309828639030457
vt 0.030280539765954018 0.8311920166015625
vt 0.034097734838724136 0.8318084478378296
vt 0.01772943325340748 0.8318091034889221
vt 0.021194882690906525 0.8311924338340759
vt 0.02567797154188156 0.8309828639030457
vn -0.00019360918668098748 -0.9999999403953552 -0
vn -0.00019360918668098748 -0.9999999403953552 -0
vn -0.00019360918668098748 -0.9999999403953552 -0
vn -0.4007495939731598 -0.916187584400177 -0
vn -0.4007495939731598 -0.916187584400177 -0
vn -0.4007495939731598 -0.916187584400177 -0
vn -0.40074464678764343 -0.9161897897720337 -0
vn -0.40074464678764343 -0.9161897897720337 -0
vn -0.40074464678764343 -0.9161897897720337 -0
vn 0.4003985822200775 -0.9163411259651184 -0
vn 0.4003985822200775 -0.9163411259651184 -0
vn 0.4003985822200775 -0.9163411259651184 -0
vn -0.00019360978330951184 -0.9999999403953552 -0
vn -0.00019360978330951184 -0.9999999403953552 -0
vn -0.00019360978330951184 -0.9999999403953552 -0
vn -0.7931015491485596 -0.6090894341468811 -0
vn -0.7931015491485596 -0.6090894341468811 -0
vn -0.7931015491485596 -0.6090894341468811 -0
vn 0.4003913700580597 -0.9163442254066467 -0
vn 0.4003913700580597 -0.9163442254066467 -0
vn 0.4003913700580597 -0.9163442254066467 -0
vn -0.7931041717529297 -0.6090860962867737 -0
vn -0.7931041717529297 -0.6090860962867737 -0
vn -0.7931041717529297 -0.6090860962867737 -0
vn 0.7928740382194519 -0.60938560962677 -0
vn 0.7928740382194519 -0.60938560962677 -0
vn 0.7928740382194519 -0.60938560962677 -0
vn 0.7928698062896729 -0.6093909740447998 -0
vn 0.7928698062896729 -0.6093909740447998 -0
vn 0.7928698062896729 -0.6093909740447998 -0
vn -0.9898872375488281 -0.14185674488544464 -0
vn -0.9898872375488281 -0.14185674488544464 -0
vn -0.9898872375488281 -0.14185674488544464 -0
vn 0.0000005020887101636617 0.000000024374317675324164 -1
vn 0.0000005020887101636617 0.000000024374317675324164 -1
vn 0.0000005020887101636617 0.000000024374317675324164 -1
vn -0.9898872375488281 -0.14185674488544464 -0
vn 0.9898322224617004 -0.1422402560710907 -0
vn 0.9898322224617004 -0.1422402560710907 -0
vn 0.9898322224617004 -0.1422402560710907 -0
vn 0 0.00000018281092195593374 -1
vn 0 0.00000018281092195593374 -1
vn 0 0.00000018281092195593374 -1
vn -0.0000013611368103738641 -0.000000057525767260813154 -1
vn -0.0000013611368103738641 -0.000000057525767260813154 -1
vn -0.0000013611368103738641 -0.000000057525767260813154 -1
vn 0 0.000000024290043754149337 -1
vn 0 0.000000024290043754149337 -1
vn 0 0.000000024290043754149337 -1
vn -0.000000028534643092825718 0.00000018281158986610535 -1
vn -0.000000028534643092825718 0.00000018281158986610535 -1
vn -0.000000028534643092825718 0.00000018281158986610535 -1
vn 0.0000006805610155424802 -0.000000057680910714452693 -1
vn 0.0000006805610155424802 -0.000000057680910714452693 -1
vn 0.0000006805610155424802 -0.000000057680910714452693 -1
vn 0.9898322224617004 -0.14224016666412354 -0
vn 0.9898322224617004 -0.14224016666412354 -0
vn 0.9898322224617004 -0.14224016666412354 -0
vn 0.9819968938827515 0.18889738619327545 -0
vn 0.9819968938827515 0.18889738619327545 -0
vn 0.9819968938827515 0.18889738619327545 -0
vn -0.9819237589836121 0.18927691876888275 -0
vn -0.9819237589836121 0.18927691876888275 -0
vn -0.9819237589836121 0.18927691876888275 -0
vn 0.000000012223912548847693 -0.000000032929357018929295 -1
vn 0.000000012223912548847693 -0.000000032929357018929295 -1
vn 0.000000012223912548847693 -0.000000032929357018929295 -1
vn -0.981923520565033 0.18927788734436035 -0
vn -0.981923520565033 0.18927788734436035 -0
vn -0.981923520565033 0.18927788734436035 -0
vn 0.9819966554641724 0.1888986974954605 -0
vn 0.9819966554641724 0.1888986974954605 -0
vn 0.9819966554641724 0.1888986974954605 -0
vn 0.000000020527005872850168 -0.000000032929239779377895 -1
vn 0.000000020527005872850168 -0.000000032929239779377895 -1
vn 0.000000020527005872850168 -0.000000032929239779377895 -1
vn 0.8742042779922485 0.48555824160575867 -0
vn 0.8742042779922485 0.48555824160575867 -0
vn 0.8742042779922485 0.48555824160575867 -0
vn -0.8740029335021973 0.4859207272529602 -0
vn -0.8740029335021973 0.4859207272529602 -0
vn -0.8740029335021973 0.4859207272529602 -0
vn -0.8740128874778748 0.48590269684791565 -0
vn -0.8740128874778748 0.48590269684791565 -0
vn -0.8740128874778748 0.48590269684791565 -0
vn -0.6318076252937317 0.7751252055168152 -0
vn -0.6318076252937317 0.7751252055168152 -0
vn -0.6318076252937317 0.7751252055168152 -0
vn 0.6321058869361877 0.7748819589614868 -0
vn 0.6321058869361877 0.7748819589614868 -0
vn 0.6321058869361877 0.7748819589614868 -0
vn 0.8741943836212158 0.48557618260383606 -0
vn 0.8741943836212158 0.48557618260383606 -0
vn 0.8741943836212158 0.48557618260383606 -0
vn 0 -0 -1
vn 0 -0 -1
vn 0 -0 -1
vn -0.2164059430360794 0.9763034582138062 -0
vn -0.2164059430360794 0.9763034582138062 -0
vn -0.2164059430360794 0.9763034582138062 -0
vn 0.2167818546295166 0.9762200713157654 -0
vn 0.2167818546295166 0.9762200713157654 -0
vn 0.2167818546295166 0.9762200713157654 -0
vn 0.000000016336374031311607 -0 -1
vn 0.000000016336374031311607 -0 -1
vn 0.000000016336374031311607 -0 -1
vn -0.6317960619926453 0.7751346826553345 -0
vn -0.6317960619926453 0.7751346826553345 -0
vn -0.6317960619926453 0.7751346826553345 -0
vn 0.6321015357971191 0.7748856544494629 -0
vn 0.6321015357971191 0.7748856544494629 -0
vn 0.6321015357971191 0.7748856544494629 -0
vn -0.21640950441360474 0.9763026237487793 -0
vn -0.21640950441360474 0.9763026237487793 -0
vn -0.21640950441360474 0.9763026237487793 -0
vn 0.2167748361825943 0.9762216210365295 -0
vn 0.2167748361825943 0.9762216210365295 -0
vn 0.2167748361825943 0.9762216210365295 -0
vn -0.000000016738054497977828 -0.0000005634018407363328 -1
vn -0.000000016738054497977828 -0.0000005634018407363328 -1
vn -0.000000016738054497977828 -0.0000005634018407363328 -1
vn -0.0000005359470378607512 -0.00000010321330989881972 -1
vn -0.0000005359470378607512 -0.00000010321330989881972 -1
vn -0.0000005359470378607512 -0.00000010321330989881972 -1
vn 0.0000005359102601687482 -0.00000010329618049809142 -1
vn 0.0000005359102601687482 -0.00000010329618049809142 -1
vn 0.0000005359102601687482 -0.00000010329618049809142 -1
f 3/3/3 2/2/2 1/1/1
f 6/6/6 5/5/5 4/4/4
f 9/9/9 8/8/8 7/7/7
f 12/12/12 11/11/11 10/10/10
f 15/15/15 14/14/14 13/13/13
f 18/18/18 17/17/17 16/16/16
f 21/21/21 20/20/20 19/19/19
f 24/24/24 23/23/23 22/22/22
f 27/27/27 26/26/26 25/25/25
f 30/30/30 29/29/29 28/28/28
f 33/33/33 32/32/32 31/31/31
f 36/36/36 35/35/35 34/34/34
f 33/33/33 31/31/31 37/37/37
f 40/40/40 39/39/39 38/38/38
f 43/43/43 42/42/42 41/41/41
f 46/46/46 45/45/45 44/44/44
f 49/49/49 48/48/48 47/47/47
f 52/52/52 51/51/51 50/50/50
f 55/55/55 54/54/54 53/53/53
f 58/58/58 57/57/57 56/56/56
f 61/61/61 60/60/60 59/59/59
f 64/64/64 63/63/63 62/62/62
f 67/67/67 66/66/66 65/65/65
f 70/70/70 69/69/69 68/68/68
f 73/73/73 72/72/72 71/71/71
f 76/76/76 75/75/75 74/74/74
f 79/79/79 78/78/78 77/77/77
f 82/82/82 81/81/81 80/80/80
f 85/85/85 84/84/84 83/83/83
f 88/88/88 87/87/87 86/86/86
f 91/91/91 90/90/90 89/89/89
f 94/94/94 93/93/93 92/92/92
f 97/97/97 96/96/96 95/95/95
f 100/100/100 99/99/99 98/98/98
f 103/103/103 102/102/102 101/101/101
f 106/106/106 105/105/105 104/104/104
f 109/109/109 108/108/108 107/107/107
f 112/112/112 111/111/111 110/110/110
f 115/115/115 114/114/114 113/113/113
f 118/118/118 117/117/117 116/116/116
f 121/121/121 120/120/120 119/119/119
f 124/124/124 123/123/123 122/122/122
f 127/127/127 126/126/126 125/125/125
