# VPXTOOL table OBJ file
# VPXTOOL OBJ file
# numVerts: 134 numFaces: 138
o LM_L_LW4_UnderPF
v -11.058111190795898 -89.28736877441406 -12.23087215423584
v -20.083396911621094 -87.49211120605469 -12.23087215423584
v -11.058111190795898 -89.28736877441406 -6.426159381866455
v -20.083396911621094 -87.49211120605469 -12.23087215423584
v -29.10865592956543 -89.28736877441406 -12.23087215423584
v -20.083396911621094 -87.49211120605469 -6.426159381866455
v -20.083396911621094 -87.49211120605469 -12.23087215423584
v -20.083396911621094 -87.49211120605469 -6.426159381866455
v -11.058111190795898 -89.28736877441406 -6.426159381866455
v -3.406851291656494 -94.39973449707031 -12.23087215423584
v -11.058111190795898 -89.28736877441406 -12.23087215423584
v -3.406851291656494 -94.39973449707031 -6.426159381866455
v -11.058111190795898 -89.28736877441406 -12.23087215423584
v -11.058111190795898 -89.28736877441406 -6.426159381866455
v -3.406851291656494 -94.39973449707031 -6.426159381866455
v -29.10865592956543 -89.28736877441406 -12.23087215423584
v -29.10865592956543 -89.28736877441406 -6.426159381866455
v -20.083396911621094 -87.49211120605469 -6.426159381866455
v -29.10865592956543 -89.28736877441406 -12.23087215423584
v -36.75991439819336 -94.39973449707031 -12.23087215423584
v -29.10865592956543 -89.28736877441406 -6.426159381866455
v -3.406851291656494 -94.39973449707031 -12.23087215423584
v -3.406851291656494 -94.39973449707031 -6.426159381866455
v 1.7055652141571045 -102.05099487304688 -6.426159381866455
v 1.7055652141571045 -102.05099487304688 -12.23087215423584
v -3.406851291656494 -94.39973449707031 -12.23087215423584
v 1.7055652141571045 -102.05099487304688 -6.426159381866455
v -36.75991439819336 -94.39973449707031 -12.23087215423584
v -36.75991439819336 -94.39973449707031 -6.426159381866455
v -29.10865592956543 -89.28736877441406 -6.426159381866455
v 3.5007996559143066 -111.07627868652344 -6.426159381866455
v -11.058111190795898 -89.28736877441406 -6.426159381866455
v -20.083396911621094 -87.49211120605469 -6.426159381866455
v 3.5007996559143066 -111.07627868652344 -6.426159381866455
v -3.406851291656494 -94.39973449707031 -6.426159381866455
v -11.058111190795898 -89.28736877441406 -6.426159381866455
v -36.75991439819336 -94.39973449707031 -12.23087215423584
v -41.87233352661133 -102.05099487304688 -12.23087215423584
v -36.75991439819336 -94.39973449707031 -6.426159381866455
v -43.66756820678711 -111.07627868652344 -6.426159381866455
v -20.083396911621094 -87.49211120605469 -6.426159381866455
v -29.10865592956543 -89.28736877441406 -6.426159381866455
v 3.5007996559143066 -111.07627868652344 -6.426159381866455
v 1.7055652141571045 -102.05099487304688 -6.426159381866455
v -3.406851291656494 -94.39973449707031 -6.426159381866455
v 1.7055652141571045 -102.05099487304688 -12.23087215423584
v 1.7055652141571045 -102.05099487304688 -6.426159381866455
v 3.5007996559143066 -111.07627868652344 -6.426159381866455
v 3.5007996559143066 -111.07627868652344 -12.23087215423584
v 1.7055652141571045 -102.05099487304688 -12.23087215423584
v 3.5007996559143066 -111.07627868652344 -6.426159381866455
v -43.66756820678711 -111.07627868652344 -6.426159381866455
v -29.10865592956543 -89.28736877441406 -6.426159381866455
v -36.75991439819336 -94.39973449707031 -6.426159381866455
v -41.87233352661133 -102.05099487304688 -12.23087215423584
v -41.87233352661133 -102.05099487304688 -6.426159381866455
v -36.75991439819336 -94.39973449707031 -6.426159381866455
v -41.87233352661133 -102.05099487304688 -12.23087215423584
v -43.66756820678711 -111.07627868652344 -12.23087215423584
v -41.87233352661133 -102.05099487304688 -6.426159381866455
v -36.75991439819336 -94.39973449707031 -6.426159381866455
v -41.87233352661133 -102.05099487304688 -6.426159381866455
v -43.66756820678711 -111.07627868652344 -6.426159381866455
v -20.083396911621094 -87.49211120605469 -6.426159381866455
v -3.406851291656494 -127.75282287597656 -6.426159381866455
v 3.5007996559143066 -111.07627868652344 -6.426159381866455
v 3.5007996559143066 -111.07627868652344 -12.23087215423584
v 3.5007996559143066 -111.07627868652344 -6.426159381866455
v 1.7055652141571045 -120.1015625 -6.426159381866455
v 1.7055652141571045 -120.1015625 -12.23087215423584
v 3.5007996559143066 -111.07627868652344 -12.23087215423584
v 1.7055652141571045 -120.1015625 -6.426159381866455
v -43.66756820678711 -111.07627868652344 -12.23087215423584
v -43.66756820678711 -111.07627868652344 -6.426159381866455
v -41.87233352661133 -102.05099487304688 -6.426159381866455
v -20.083396911621094 -87.49211120605469 -6.426159381866455
v -43.66756820678711 -111.07627868652344 -6.426159381866455
v -36.75991439819336 -127.75282287597656 -6.426159381866455
v -43.66756820678711 -111.07627868652344 -12.23087215423584
v -41.87233352661133 -120.1015625 -12.23087215423584
v -43.66756820678711 -111.07627868652344 -6.426159381866455
v -20.083396911621094 -87.49211120605469 -6.426159381866455
v -20.083396911621094 -134.66050720214844 -6.426159381866455
v -3.406851291656494 -127.75282287597656 -6.426159381866455
v -3.406851291656494 -127.75282287597656 -6.426159381866455
v 1.7055652141571045 -120.1015625 -6.426159381866455
v 3.5007996559143066 -111.07627868652344 -6.426159381866455
v 1.7055652141571045 -120.1015625 -12.23087215423584
v 1.7055652141571045 -120.1015625 -6.426159381866455
v -3.406851291656494 -127.75282287597656 -6.426159381866455
v -36.75991439819336 -127.75282287597656 -6.426159381866455
v -3.406851291656494 -127.75282287597656 -12.23087215423584
v 1.7055652141571045 -120.1015625 -12.23087215423584
v -3.406851291656494 -127.75282287597656 -6.426159381866455
v -41.87233352661133 -120.1015625 -12.23087215423584
v -41.87233352661133 -120.1015625 -6.426159381866455
v -43.66756820678711 -111.07627868652344 -6.426159381866455
v -41.87233352661133 -120.1015625 -12.23087215423584
v -36.75991439819336 -127.75282287597656 -12.23087215423584
v -41.87233352661133 -120.1015625 -6.426159381866455
v -43.66756820678711 -111.07627868652344 -6.426159381866455
v -41.87233352661133 -120.1015625 -6.426159381866455
v -36.75991439819336 -127.75282287597656 -6.426159381866455
v -3.406851291656494 -127.75282287597656 -12.23087215423584
v -3.406851291656494 -127.75282287597656 -6.426159381866455
v -11.058111190795898 -132.865234375 -6.426159381866455
v -11.058111190795898 -132.865234375 -12.23087215423584
v -3.406851291656494 -127.75282287597656 -12.23087215423584
v -11.058111190795898 -132.865234375 -6.426159381866455
v -36.75991439819336 -127.75282287597656 -12.23087215423584
v -36.75991439819336 -127.75282287597656 -6.426159381866455
v -41.87233352661133 -120.1015625 -6.426159381866455
v -36.75991439819336 -127.75282287597656 -12.23087215423584
v -29.10865592956543 -132.865234375 -12.23087215423584
v -36.75991439819336 -127.75282287597656 -6.426159381866455
v -20.083396911621094 -134.66050720214844 -12.23087215423584
v -11.058111190795898 -132.865234375 -12.23087215423584
v -20.083396911621094 -134.66050720214844 -6.426159381866455
v -20.083396911621094 -134.66050720214844 -6.426159381866455
v -11.058111190795898 -132.865234375 -6.426159381866455
v -3.406851291656494 -127.75282287597656 -6.426159381866455
v -11.058111190795898 -132.865234375 -12.23087215423584
v -11.058111190795898 -132.865234375 -6.426159381866455
v -20.083396911621094 -134.66050720214844 -6.426159381866455
v -29.10865592956543 -132.865234375 -12.23087215423584
v -20.083396911621094 -134.66050720214844 -12.23087215423584
v -29.10865592956543 -132.865234375 -6.426159381866455
v -29.10865592956543 -132.865234375 -12.23087215423584
v -29.10865592956543 -132.865234375 -6.426159381866455
v -36.75991439819336 -127.75282287597656 -6.426159381866455
v -20.083396911621094 -134.66050720214844 -12.23087215423584
v -20.083396911621094 -134.66050720214844 -6.426159381866455
v -29.10865592956543 -132.865234375 -6.426159381866455
v -29.10865592956543 -132.865234375 -6.426159381866455
vt 0.6317242383956909 0.004194796085357666
vt 0.6322630643844604 0.006537079811096191
vt 0.6328474879264832 0.00418245792388916
vt 0.6322630643844604 0.006537079811096191
vt 0.6317242383956909 0.00887364149093628
vt 0.6333857774734497 0.006521165370941162
vt 0.6322630643844604 0.006537079811096191
vt 0.6333857774734497 0.006521165370941162
vt 0.6328474879264832 0.00418245792388916
vt 0.630191445350647 0.0022068023681640625
vt 0.6317242383956909 0.004194796085357666
vt 0.6313161253929138 0.0021975040435791016
vt 0.6317242383956909 0.004194796085357666
vt 0.6328474879264832 0.00418245792388916
vt 0.6313161253929138 0.0021975040435791016
vt 0.6317242383956909 0.00887364149093628
vt 0.6328474879264832 0.008854150772094727
vt 0.6333857774734497 0.006521165370941162
vt 0.6317242383956909 0.00887364149093628
vt 0.630191445350647 0.010845482349395752
vt 0.6328474879264832 0.008854150772094727
vt 0.630191445350647 0.0022068023681640625
vt 0.6313161253929138 0.0021975040435791016
vt 0.6290287375450134 0.0008698105812072754
vt 0.6279017925262451 0.000877082347869873
vt 0.630191445350647 0.0022068023681640625
vt 0.6290287375450134 0.0008698105812072754
vt 0.630191445350647 0.010845482349395752
vt 0.6313161253929138 0.01082301139831543
vt 0.6328474879264832 0.008854150772094727
vt 0.6263373494148254 0.00040024518966674805
vt 0.6328474879264832 0.00418245792388916
vt 0.6333857774734497 0.006521165370941162
vt 0.6263373494148254 0.00040024518966674805
vt 0.6313161253929138 0.0021975040435791016
vt 0.6328474879264832 0.00418245792388916
vt 0.630191445350647 0.010845482349395752
vt 0.6279017925262451 0.012150943279266357
vt 0.6313161253929138 0.01082301139831543
vt 0.6263373494148254 0.012567758560180664
vt 0.6333857774734497 0.006521165370941162
vt 0.6328474879264832 0.008854150772094727
vt 0.6263373494148254 0.00040024518966674805
vt 0.6290287375450134 0.0008698105812072754
vt 0.6313161253929138 0.0021975040435791016
vt 0.6279017925262451 0.000877082347869873
vt 0.6290287375450134 0.0008698105812072754
vt 0.6263373494148254 0.00040024518966674805
vt 0.6252079010009766 0.0004067420959472656
vt 0.6279017925262451 0.000877082347869873
vt 0.6263373494148254 0.00040024518966674805
vt 0.6263373494148254 0.012567758560180664
vt 0.6328474879264832 0.008854150772094727
vt 0.6313161253929138 0.01082301139831543
vt 0.6279017925262451 0.012150943279266357
vt 0.6290287375450134 0.012126505374908447
vt 0.6313161253929138 0.01082301139831543
vt 0.6279017925262451 0.012150943279266357
vt 0.6252079010009766 0.012592792510986328
vt 0.6290287375450134 0.012126505374908447
vt 0.6313161253929138 0.01082301139831543
vt 0.6290287375450134 0.012126505374908447
vt 0.6263373494148254 0.012567758560180664
vt 0.6333857774734497 0.006521165370941162
vt 0.6213836073875427 0.0021668076515197754
vt 0.6263373494148254 0.00040024518966674805
vt 0.6252079010009766 0.0004067420959472656
vt 0.6263373494148254 0.00040024518966674805
vt 0.6236532926559448 0.0008568167686462402
vt 0.6225212812423706 0.0008640289306640625
vt 0.6252079010009766 0.0004067420959472656
vt 0.6236532926559448 0.0008568167686462402
vt 0.6252079010009766 0.012592792510986328
vt 0.6263373494148254 0.012567758560180664
vt 0.6290287375450134 0.012126505374908447
vt 0.6333857774734497 0.006521165370941162
vt 0.6263373494148254 0.012567758560180664
vt 0.6213836073875427 0.010748863220214844
vt 0.6252079010009766 0.012592792510986328
vt 0.6225212812423706 0.012107133865356445
vt 0.6263373494148254 0.012567758560180664
vt 0.6333857774734497 0.006521165370941162
vt 0.6193389296531677 0.0064470767974853516
vt 0.6213836073875427 0.0021668076515197754
vt 0.6213836073875427 0.0021668076515197754
vt 0.6236532926559448 0.0008568167686462402
vt 0.6263373494148254 0.00040024518966674805
vt 0.6225212812423706 0.0008640289306640625
vt 0.6236532926559448 0.0008568167686462402
vt 0.6213836073875427 0.0021668076515197754
vt 0.6213836073875427 0.010748863220214844
vt 0.6202494502067566 0.002176046371459961
vt 0.6225212812423706 0.0008640289306640625
vt 0.6213836073875427 0.0021668076515197754
vt 0.6225212812423706 0.012107133865356445
vt 0.6236532926559448 0.012082815170288086
vt 0.6263373494148254 0.012567758560180664
vt 0.6225212812423706 0.012107133865356445
vt 0.6202494502067566 0.01077115535736084
vt 0.6236532926559448 0.012082815170288086
vt 0.6263373494148254 0.012567758560180664
vt 0.6236532926559448 0.012082815170288086
vt 0.6213836073875427 0.010748863220214844
vt 0.6202494502067566 0.002176046371459961
vt 0.6213836073875427 0.0021668076515197754
vt 0.6198699474334717 0.004129350185394287
vt 0.6187343597412109 0.004141569137573242
vt 0.6202494502067566 0.002176046371459961
vt 0.6198699474334717 0.004129350185394287
vt 0.6202494502067566 0.01077115535736084
vt 0.6213836073875427 0.010748863220214844
vt 0.6236532926559448 0.012082815170288086
vt 0.6202494502067566 0.01077115535736084
vt 0.6187343597412109 0.008789598941802979
vt 0.6213836073875427 0.010748863220214844
vt 0.6182029247283936 0.006462752819061279
vt 0.6187343597412109 0.004141569137573242
vt 0.6193389296531677 0.0064470767974853516
vt 0.6193389296531677 0.0064470767974853516
vt 0.6198699474334717 0.004129350185394287
vt 0.6213836073875427 0.0021668076515197754
vt 0.6187343597412109 0.004141569137573242
vt 0.6198699474334717 0.004129350185394287
vt 0.6193389296531677 0.0064470767974853516
vt 0.6187343597412109 0.008789598941802979
vt 0.6182029247283936 0.006462752819061279
vt 0.6198699474334717 0.008770346641540527
vt 0.6187343597412109 0.008789598941802979
vt 0.6198699474334717 0.008770346641540527
vt 0.6213836073875427 0.010748863220214844
vt 0.6182029247283936 0.006462752819061279
vt 0.6193389296531677 0.0064470767974853516
vt 0.6198699474334717 0.008770346641540527
vt 0.6198699474334717 0.008770346641540527
vn -0.19509252905845642 -0.9807848334312439 -0
vn -0.19509252905845642 -0.9807848334312439 -0
vn -0.19509252905845642 -0.9807848334312439 -0
vn 0.19509312510490417 -0.9807847738265991 -0
vn 0.19509312510490417 -0.9807847738265991 -0
vn 0.19509312510490417 -0.9807847738265991 -0
vn -0.19509249925613403 -0.9807848334312439 -0
vn -0.19509249925613403 -0.9807848334312439 -0
vn -0.19509249925613403 -0.9807848334312439 -0
vn -0.5555667281150818 -0.8314719200134277 -0
vn -0.5555667281150818 -0.8314719200134277 -0
vn -0.5555667281150818 -0.8314719200134277 -0
vn -0.555566668510437 -0.8314719796180725 -0
vn -0.555566668510437 -0.8314719796180725 -0
vn -0.555566668510437 -0.8314719796180725 -0
vn 0.1950930953025818 -0.9807847738265991 -0
vn 0.1950930953025818 -0.9807847738265991 -0
vn 0.1950930953025818 -0.9807847738265991 -0
vn 0.5555668473243713 -0.8314719200134277 -0
vn 0.5555668473243713 -0.8314719200134277 -0
vn 0.5555668473243713 -0.8314719200134277 -0
vn -0.8314691185951233 -0.5555709004402161 -0
vn -0.8314691185951233 -0.5555709004402161 -0
vn -0.8314691185951233 -0.5555709004402161 -0
vn -0.8314691781997681 -0.5555707812309265 -0
vn -0.8314691781997681 -0.5555707812309265 -0
vn -0.8314691781997681 -0.5555707812309265 -0
vn 0.5555664896965027 -0.8314720988273621 -0
vn 0.5555664896965027 -0.8314720988273621 -0
vn 0.5555664896965027 -0.8314720988273621 -0
vn 0.00000014646846580035344 -0 -1
vn 0.00000014646846580035344 -0 -1
vn 0.00000014646846580035344 -0 -1
vn -0.00000027063657626058557 -0 -1
vn -0.00000027063657626058557 -0 -1
vn -0.00000027063657626058557 -0 -1
vn 0.8314692378044128 -0.5555707216262817 -0
vn 0.8314692378044128 -0.5555707216262817 -0
vn 0.8314692378044128 -0.5555707216262817 -0
vn -0.0000001464691621322345 -0 -1
vn -0.0000001464691621322345 -0 -1
vn -0.0000001464691621322345 -0 -1
vn 0.0000003853549799259781 -0 -1
vn 0.0000003853549799259781 -0 -1
vn 0.0000003853549799259781 -0 -1
vn -0.9807854294776917 -0.195089653134346 -0
vn -0.9807854294776917 -0.195089653134346 -0
vn -0.9807854294776917 -0.195089653134346 -0
vn -0.9807854294776917 -0.19508960843086243 -0
vn -0.9807854294776917 -0.19508960843086243 -0
vn -0.9807854294776917 -0.19508960843086243 -0
vn 0.00000027063657626058557 -0 -1
vn 0.00000027063657626058557 -0 -1
vn 0.00000027063657626058557 -0 -1
vn 0.8314692378044128 -0.5555707812309265 -0
vn 0.8314692378044128 -0.5555707812309265 -0
vn 0.8314692378044128 -0.5555707812309265 -0
vn 0.9807854294776917 -0.19508931040763855 -0
vn 0.9807854294776917 -0.19508931040763855 -0
vn 0.9807854294776917 -0.19508931040763855 -0
vn -0.0000001926776320715362 -0 -1
vn -0.0000001926776320715362 -0 -1
vn -0.0000001926776320715362 -0 -1
vn -0.000000089803428693358 -0 -1
vn -0.000000089803428693358 -0 -1
vn -0.000000089803428693358 -0 -1
vn -0.9807854294776917 0.195089653134346 -0
vn -0.9807854294776917 0.195089653134346 -0
vn -0.9807854294776917 0.195089653134346 -0
vn -0.9807854294776917 0.19508960843086243 -0
vn -0.9807854294776917 0.19508960843086243 -0
vn -0.9807854294776917 0.19508960843086243 -0
vn 0.9807853102684021 -0.19509027898311615 -0
vn 0.9807853102684021 -0.19509027898311615 -0
vn 0.9807853102684021 -0.19509027898311615 -0
vn 0.00000004490174632110211 -0 -0.9999999403953552
vn 0.00000004490174632110211 -0 -0.9999999403953552
vn 0.00000004490174632110211 -0 -0.9999999403953552
vn 0.9807853102684021 0.19509021937847137 -0
vn 0.9807853102684021 0.19509021937847137 -0
vn 0.9807853102684021 0.19509021937847137 -0
vn 0 -0 -1
vn 0 -0 -1
vn 0 -0 -1
vn 0.00000019267703521563817 -0 -1
vn 0.00000019267703521563817 -0 -1
vn 0.00000019267703521563817 -0 -1
vn -0.8314691185951233 0.5555708408355713 -0
vn -0.8314691185951233 0.5555708408355713 -0
vn -0.8314691185951233 0.5555708408355713 -0
vn 0 -0 -1
vn -0.8314691781997681 0.5555708408355713 -0
vn -0.8314691781997681 0.5555708408355713 -0
vn -0.8314691781997681 0.5555708408355713 -0
vn 0.9807854294776917 0.19508935511112213 -0
vn 0.9807854294776917 0.19508935511112213 -0
vn 0.9807854294776917 0.19508935511112213 -0
vn 0.8314692378044128 0.5555707216262817 -0
vn 0.8314692378044128 0.5555707216262817 -0
vn 0.8314692378044128 0.5555707216262817 -0
vn -0.0000003853543830700801 -0 -1
vn -0.0000003853543830700801 -0 -1
vn -0.0000003853543830700801 -0 -1
vn -0.5555708408355713 0.8314691781997681 -0
vn -0.5555708408355713 0.8314691781997681 -0
vn -0.5555708408355713 0.8314691781997681 -0
vn -0.5555708408355713 0.8314691185951233 -0
vn -0.5555708408355713 0.8314691185951233 -0
vn -0.5555708408355713 0.8314691185951233 -0
vn 0.8314692378044128 0.5555707812309265 -0
vn 0.8314692378044128 0.5555707812309265 -0
vn 0.8314692378044128 0.5555707812309265 -0
vn 0.5555707216262817 0.8314692974090576 -0
vn 0.5555707216262817 0.8314692974090576 -0
vn 0.5555707216262817 0.8314692974090576 -0
vn -0.19509252905845642 0.9807848334312439 -0
vn -0.19509252905845642 0.9807848334312439 -0
vn -0.19509252905845642 0.9807848334312439 -0
vn 0.00000004816970644583307 -0 -1
vn 0.00000004816970644583307 -0 -1
vn 0.00000004816970644583307 -0 -1
vn -0.19509249925613403 0.9807848334312439 -0
vn -0.19509249925613403 0.9807848334312439 -0
vn -0.19509249925613403 0.9807848334312439 -0
vn 0.19509312510490417 0.9807847738265991 -0
vn 0.19509312510490417 0.9807847738265991 -0
vn 0.19509312510490417 0.9807847738265991 -0
vn 0.5555709004402161 0.8314691185951233 -0
vn 0.5555709004402161 0.8314691185951233 -0
vn 0.5555709004402161 0.8314691185951233 -0
vn 0.1950930953025818 0.9807847738265991 -0
vn 0.1950930953025818 0.9807847738265991 -0
vn 0.1950930953025818 0.9807847738265991 -0
vn 0 -0 -1
f 3/3/3 2/2/2 1/1/1
f 6/6/6 5/5/5 4/4/4
f 9/9/9 8/8/8 7/7/7
f 12/12/12 11/11/11 10/10/10
f 15/15/15 14/14/14 13/13/13
f 18/18/18 17/17/17 16/16/16
f 21/21/21 20/20/20 19/19/19
f 24/24/24 23/23/23 22/22/22
f 27/27/27 26/26/26 25/25/25
f 30/30/30 29/29/29 28/28/28
f 33/33/33 32/32/32 31/31/31
f 36/36/36 35/35/35 34/34/34
f 39/39/39 38/38/38 37/37/37
f 42/42/42 41/41/41 40/40/40
f 45/45/45 44/44/44 43/43/43
f 48/48/48 47/47/47 46/46/46
f 51/51/51 50/50/50 49/49/49
f 54/54/54 53/53/53 52/52/52
f 57/57/57 56/56/56 55/55/55
f 60/60/60 59/59/59 58/58/58
f 63/63/63 62/62/62 61/61/61
f 66/66/66 65/65/65 64/64/64
f 69/69/69 68/68/68 67/67/67
f 72/72/72 71/71/71 70/70/70
f 75/75/75 74/74/74 73/73/73
f 78/78/78 77/77/77 76/76/76
f 81/81/81 80/80/80 79/79/79
f 84/84/84 83/83/83 82/82/82
f 87/87/87 86/86/86 85/85/85
f 90/90/90 89/89/89 88/88/88
f 83/83/83 91/91/91 82/82/82
f 94/94/94 93/93/93 92/92/92
f 97/97/97 96/96/96 95/95/95
f 100/100/100 99/99/99 98/98/98
f 103/103/103 102/102/102 101/101/101
f 106/106/106 105/105/105 104/104/104
f 109/109/109 108/108/108 107/107/107
f 112/112/112 111/111/111 110/110/110
f 115/115/115 114/114/114 113/113/113
f 118/118/118 117/117/117 116/116/116
f 121/121/121 120/120/120 119/119/119
f 124/124/124 123/123/123 122/122/122
f 127/127/127 126/126/126 125/125/125
f 130/130/130 129/129/129 128/128/128
f 133/133/133 132/132/132 131/131/131
f 83/83/83 134/134/134 91/91/91
